<?xml version="1.0" encoding="UTF-8"?>
<svg id="OBJECTS" xmlns="http://www.w3.org/2000/svg" version="1.1" viewBox="0 0 121.1 121.1">
  <!-- Generator: Adobe Illustrator 29.5.1, SVG Export Plug-In . SVG Version: 2.1.0 Build 141)  -->
  <defs>
    <style>
      .st0 {
        fill: #00213c;
      }

      .st1 {
        fill: #fff;
      }
    </style>
  </defs>
  <rect class="st0" width="121.1" height="121.1"/>
  <path class="st1" d="M75.4,30.8h-7.7c-8.7,0-14.3,5.7-14.3,14.6v6.8h-7.8c-.7,0-1.2.5-1.2,1.2v9.8c0,.7.5,1.2,1.2,1.2h7.8v24.7c0,.7.5,1.2,1.2,1.2h10.1c.7,0,1.2-.5,1.2-1.2v-24.7h9.1c.7,0,1.2-.5,1.2-1.2v-9.8c0-.3-.1-.6-.4-.9s-.5-.4-.9-.4h-9.1v-5.7c0-2.8.7-4.1,4.2-4.1h5.2c.7,0,1.2-.5,1.2-1.2v-9.1c0-.7-.5-1.2-1.2-1.2Z"/>
</svg>