<?xml version="1.0" encoding="UTF-8"?>
<svg id="Layer_1" xmlns="http://www.w3.org/2000/svg" version="1.1" viewBox="0 0 217 24">
  <!-- Generator: Adobe Illustrator 29.5.1, SVG Export Plug-In . SVG Version: 2.1.0 Build 141)  -->
  <defs>
    <style>
      .st0 {
        fill: #1a161a;
      }

      .st1 {
        fill: #656fab;
      }

      .st2 {
        fill: #8e9093;
      }

      .st3 {
        fill: #fccc1a;
      }

      .st4 {
        fill: #0f8a44;
      }

      .st5 {
        fill: #df1f26;
      }
    </style>
  </defs>
  <g>
    <rect class="st3" x="-.6" y="6.1" width="15.6" height="2.2" transform="translate(-3 7.3) rotate(-45)"/>
    <rect class="st5" x="2.6" y="9.3" width="15.6" height="2.2" transform="translate(-4.3 10.4) rotate(-45)"/>
    <rect class="st4" x="5.8" y="12.4" width="15.6" height="2.2" transform="translate(-5.6 13.6) rotate(-45)"/>
    <rect class="st1" x="8.9" y="15.6" width="15.6" height="2.2" transform="translate(-6.9 16.7) rotate(-45)"/>
  </g>
  <g>
    <path class="st0" d="M29.3,11.8v-.3h.3c.3,0,.4,0,.6-.1.1,0,.2-.2.3-.4,0-.1,0-.4,0-1V3.3c0-.5,0-.9,0-1,0-.1-.1-.3-.3-.4-.1,0-.3-.2-.6-.2h-.3v-.3h3.9c1,0,1.9.2,2.5.5.8.4,1.4,1,1.8,1.9.4.8.6,1.8.6,2.8s0,1.4-.3,2c-.2.6-.5,1.1-.8,1.5-.3.4-.7.7-1.1,1-.4.2-.9.4-1.5.6-.3,0-.7,0-1.2,0h-3.9M32.6,2.1v8c0,.4,0,.7,0,.8,0,0,0,.2.2.2.1,0,.3.1.5.1.7,0,1.3-.3,1.6-.9.5-.8.8-2,.8-3.6s-.2-2.4-.5-3.1c-.3-.6-.6-1-1.1-1.2-.3-.2-.8-.2-1.5-.2"/>
    <path class="st0" d="M41.6,2.2v4.2h.2c.6,0,1-.2,1.2-.6.3-.4.4-1,.5-1.8h.2v5.4h-.2c0-.6-.2-1.1-.3-1.4-.2-.4-.4-.6-.6-.8-.2-.1-.5-.2-1-.2v2.9c0,.6,0,.9,0,1,0,.1.1.2.2.3.1,0,.3.1.5.1h.5c.8,0,1.5-.2,2-.7.5-.4.8-1.1,1.1-2h.2l-.4,3.3h-7.6v-.3h.3c.3,0,.5,0,.6-.2.1,0,.2-.2.3-.4,0-.1,0-.4,0-1V3.3c0-.5,0-.8,0-.9,0-.2-.1-.3-.2-.4-.2-.1-.4-.2-.7-.2h-.3v-.3h7.3v3h-.2c-.1-.7-.3-1.3-.5-1.6-.2-.3-.5-.6-1-.7-.2,0-.7-.1-1.4-.1h-.9"/>
    <path class="st0" d="M204.6,2.2v4.2h.2c.6,0,1-.2,1.2-.6.3-.4.4-1,.5-1.8h.2v5.4h-.2c0-.6-.2-1.1-.3-1.4-.2-.4-.4-.6-.6-.8-.2-.1-.5-.2-1-.2v2.9c0,.6,0,.9,0,1,0,.1.1.2.2.3.1,0,.3.1.5.1h.5c.8,0,1.5-.2,2-.7.5-.4.8-1.1,1.1-2h.2l-.4,3.3h-7.6v-.3h.3c.3,0,.5,0,.6-.2.1,0,.2-.2.3-.4,0-.1,0-.4,0-1V3.3c0-.5,0-.8,0-.9,0-.2-.1-.3-.2-.4-.2-.1-.4-.2-.7-.2h-.3v-.3h7.3v3h-.2c-.1-.7-.3-1.3-.5-1.6-.2-.3-.5-.6-1-.7-.2,0-.7-.1-1.4-.1h-.9"/>
    <path class="st0" d="M54.2,1.6l-5.2,9.7h1.7c.8,0,1.3,0,1.7-.2.5-.2,1-.5,1.3-1,.4-.5.6-1.1.8-1.9h.3l-.4,3.7h-8l5.2-9.7h-1.3c-.5,0-.8,0-1,0-.3,0-.6.2-.9.4-.3.2-.5.5-.7.8-.2.3-.3.7-.4,1.2h-.2l.2-3h6.9"/>
    <path class="st0" d="M60.3,8.9h-3.1l-.4,1c-.1.3-.2.6-.2.8s0,.5.3.7c.1,0,.4.1.9.2v.3h-2.9v-.3c.3,0,.6-.2.8-.5.2-.3.5-.8.7-1.6l3.1-8.2h.1l3.1,8.4c.3.8.5,1.3.7,1.5.1.2.4.3.6.3v.3h-4.2v-.3h.2c.3,0,.6,0,.7-.2,0,0,.1-.2.1-.4s0-.2,0-.3c0,0,0-.2-.2-.6l-.5-1.3M60.1,8.3l-1.3-3.5-1.3,3.5h2.6"/>
    <path class="st0" d="M67.6,1.6l4.3,6.3V3.5c0-.6,0-1-.2-1.3-.2-.3-.6-.4-1-.4v-.3h2.9v.3c-.4,0-.6.1-.7.2-.1,0-.2.2-.3.4,0,.2-.1.5-.1,1v8.5h-.2l-5.9-8.5v6.5c0,.6.1,1,.3,1.2.2.2.5.3.8.3h.2v.3h-3.1v-.3c.5,0,.8-.1,1-.4.2-.2.3-.6.3-1.2V2.8l-.2-.3c-.2-.3-.3-.5-.5-.6-.1,0-.3-.1-.6-.2v-.3h3.1"/>
    <path class="st0" d="M84.6,1.3v3.4c0,0-.2,0-.2,0-.1-.9-.4-1.5-.9-2.1-.5-.5-1-.8-1.6-.8s-.8.1-1.1.4c-.3.3-.4.6-.4.9s0,.4.1.6c.1.2.3.5.6.7.2.2.7.5,1.4.9,1,.6,1.7,1.1,2.1,1.7.4.5.5,1.1.5,1.8s-.3,1.6-.9,2.2c-.6.6-1.3.9-2.2.9s-.5,0-.8-.1c-.2,0-.6-.2-.9-.4-.2-.1-.4-.2-.5-.2s-.2,0-.4.2c-.1.1-.2.3-.3.5h-.2v-3.9h.2c.2,1.1.6,1.9,1.1,2.5.5.6,1.1.9,1.8.9s.9-.2,1.2-.5c.3-.3.4-.7.4-1.1s0-.5-.2-.7c-.1-.2-.3-.4-.5-.6-.2-.2-.6-.5-1.2-.8-.8-.5-1.4-.8-1.7-1.2-.4-.3-.6-.7-.8-1.1-.2-.4-.3-.8-.3-1.3,0-.8.3-1.5.8-2.1.5-.6,1.2-.9,1.9-.9s.6,0,.8.1c.2,0,.4.2.7.3.3.2.5.2.6.2s.2,0,.3-.1c0,0,.1-.3.2-.6h.2"/>
    <path class="st0" d="M152.6,1.3v3.4c0,0-.2,0-.2,0-.1-.9-.4-1.5-.9-2.1-.5-.5-1-.8-1.6-.8s-.8.1-1.1.4c-.3.3-.4.6-.4.9s0,.4.1.6c.1.2.3.5.6.7.2.2.7.5,1.4.9,1,.6,1.7,1.1,2.1,1.7.4.5.5,1.1.5,1.8s-.3,1.6-.9,2.2c-.6.6-1.3.9-2.2.9s-.5,0-.8-.1c-.2,0-.6-.2-.9-.4-.2-.1-.4-.2-.5-.2s-.2,0-.4.2c-.1.1-.2.3-.3.5h-.2v-3.9h.2c.2,1.1.6,1.9,1.1,2.5.5.6,1.1.9,1.8.9s.9-.2,1.2-.5c.3-.3.4-.7.4-1.1s0-.5-.2-.7c-.1-.2-.3-.4-.5-.6-.2-.2-.6-.5-1.2-.8-.8-.5-1.4-.8-1.7-1.2-.4-.3-.6-.7-.8-1.1-.2-.4-.3-.8-.3-1.3,0-.8.3-1.5.8-2.1.5-.6,1.2-.9,1.9-.9s.6,0,.8.1c.2,0,.4.2.7.3.3.2.5.2.6.2s.2,0,.3-.1c0,0,.1-.3.2-.6h.2"/>
    <path class="st0" d="M159.6,1.3v3.4c0,0-.2,0-.2,0-.1-.9-.4-1.5-.9-2.1-.5-.5-1-.8-1.6-.8s-.8.1-1.1.4c-.3.3-.4.6-.4.9s0,.4.1.6c.1.2.3.5.6.7.2.2.7.5,1.4.9,1,.6,1.7,1.1,2.1,1.7.4.5.5,1.1.5,1.8s-.3,1.6-.9,2.2c-.6.6-1.3.9-2.2.9s-.5,0-.8-.1c-.2,0-.6-.2-.9-.4-.2-.1-.4-.2-.5-.2s-.2,0-.4.2c-.1.1-.2.3-.3.5h-.2v-3.9h.2c.2,1.1.6,1.9,1.1,2.5.5.6,1.1.9,1.8.9s.9-.2,1.2-.5c.3-.3.4-.7.4-1.1s0-.5-.2-.7c-.1-.2-.3-.4-.5-.6-.2-.2-.6-.5-1.2-.8-.8-.5-1.4-.8-1.7-1.2-.4-.3-.6-.7-.8-1.1-.2-.4-.3-.8-.3-1.3,0-.8.3-1.5.8-2.1.5-.6,1.2-.9,1.9-.9s.6,0,.8.1c.2,0,.4.2.7.3.3.2.5.2.6.2s.2,0,.3-.1c0,0,.1-.3.2-.6h.2"/>
    <path class="st0" d="M215.5,1.3v3.4c0,0-.2,0-.2,0-.1-.9-.4-1.5-.9-2.1-.5-.5-1-.8-1.6-.8s-.8.1-1.1.4c-.3.3-.4.6-.4.9s0,.4.1.6c.1.2.3.5.6.7.2.2.7.5,1.4.9,1,.6,1.7,1.1,2.1,1.7.4.5.5,1.1.5,1.8s-.3,1.6-.9,2.2c-.6.6-1.3.9-2.2.9s-.5,0-.8-.1c-.2,0-.6-.2-.9-.4-.2-.1-.4-.2-.5-.2s-.2,0-.4.2c-.1.1-.2.3-.3.5h-.2v-3.9h.2c.2,1.1.6,1.9,1.1,2.5.5.6,1.1.9,1.8.9s.9-.2,1.2-.5c.3-.3.4-.7.4-1.1s0-.5-.2-.7c-.1-.2-.3-.4-.5-.6-.2-.2-.6-.5-1.2-.8-.8-.5-1.4-.8-1.7-1.2-.4-.3-.6-.7-.8-1.1-.2-.4-.3-.8-.3-1.3,0-.8.3-1.5.8-2.1.5-.6,1.2-.9,1.9-.9s.6,0,.8.1c.2,0,.5.2.7.3.3.2.5.2.6.2s.2,0,.3-.1c0,0,.1-.3.2-.6h.2"/>
    <path class="st0" d="M88.8,6.9v3.2c0,.5,0,.9,0,1,0,.1.1.3.3.4.1.1.3.2.6.2h.3v.3h-4.6v-.3h.3c.3,0,.5,0,.6-.2.1,0,.2-.2.3-.4,0-.1,0-.4,0-1V3.3c0-.5,0-.9,0-1,0-.1-.1-.3-.3-.4-.1,0-.3-.2-.6-.2h-.3v-.3h4.6v.3h-.3c-.3,0-.5,0-.6.2-.1,0-.2.2-.3.4,0,.1,0,.4,0,1v2.9h3.1v-2.9c0-.5,0-.9,0-1,0-.1-.1-.3-.3-.4-.1,0-.3-.2-.6-.2h-.3v-.3h4.6v.3h-.3c-.3,0-.5,0-.6.2-.1,0-.2.2-.3.4,0,.1,0,.4,0,1v6.7c0,.5,0,.9,0,1,0,.1.1.3.3.4.1.1.3.2.6.2h.3v.3h-4.6v-.3h.3c.3,0,.5,0,.6-.2.1,0,.2-.2.3-.4,0-.1,0-.4,0-1v-3.2h-3.1"/>
    <path class="st0" d="M100.4,11.5v.3h-4.6v-.3h.3c.3,0,.5,0,.6-.2.1,0,.2-.2.3-.4,0-.1,0-.4,0-1V3.3c0-.5,0-.9,0-1,0-.1-.1-.3-.3-.4-.1,0-.3-.2-.6-.2h-.3v-.3h4.6v.3h-.3c-.3,0-.5,0-.6.2-.1,0-.2.2-.3.4,0,.1,0,.4,0,1v6.7c0,.5,0,.9,0,1,0,.1.1.3.3.4.1.1.3.2.6.2h.3"/>
    <path class="st0" d="M184.2,11.5v.3h-4.6v-.3h.3c.3,0,.5,0,.6-.2.1,0,.2-.2.3-.4,0-.1,0-.4,0-1V3.3c0-.5,0-.9,0-1,0-.1-.1-.3-.3-.4-.1,0-.3-.2-.6-.2h-.3v-.3h4.6v.3h-.3c-.3,0-.5,0-.6.2-.1,0-.2.2-.3.4,0,.1,0,.4,0,1v6.7c0,.5,0,.9,0,1,0,.1.1.3.3.4.1.1.3.2.6.2h.3"/>
    <path class="st0" d="M104.1,7.1v2.9c0,.6,0,.9,0,1,0,.1.2.3.3.4.1,0,.4.1.8.1v.3h-4.5v-.3c.4,0,.7,0,.8-.1.1,0,.3-.2.3-.3,0-.1,0-.5,0-1V3.3c0-.6,0-.9,0-1,0-.1-.2-.3-.3-.3-.1,0-.4-.1-.8-.1v-.3h4.1c1.1,0,1.8,0,2.3.3.5.2.9.5,1.2.9.3.5.5,1,.5,1.6s-.2,1.4-.7,1.9c-.3.3-.7.6-1.2.7l2.1,3.5c.3.4.5.7.6.8.2.2.4.2.6.3v.3h-2.8l-2.8-4.7h-.6M104.1,2.1v4.4h.4c.6,0,1,0,1.3-.2.3-.1.5-.4.7-.7.2-.3.3-.8.3-1.3,0-.8-.2-1.3-.5-1.7-.3-.4-.8-.6-1.5-.6h-.7"/>
    <path class="st0" d="M115.8,8.9h-3.1l-.4,1c-.1.3-.2.6-.2.8s0,.5.3.7c.1,0,.4.1.9.2v.3h-2.9v-.3c.3,0,.6-.2.8-.5.2-.3.5-.8.7-1.6l3.1-8.2h.1l3.1,8.4c.3.8.5,1.3.7,1.5.1.2.3.3.6.3v.3h-4.2v-.3h.2c.3,0,.6,0,.7-.2,0,0,.1-.2.1-.4s0-.2,0-.3c0,0,0-.2-.2-.6l-.5-1.3M115.6,8.3l-1.3-3.5-1.3,3.5h2.6"/>
    <path class="st0" d="M142.6,8.9h-3.1l-.4,1c-.1.3-.2.6-.2.8s0,.5.3.7c.1,0,.4.1.9.2v.3h-2.9v-.3c.3,0,.6-.2.8-.5.2-.3.5-.8.7-1.6l3.1-8.2h.1l3.1,8.4c.3.8.5,1.3.7,1.5.1.2.4.3.6.3v.3h-4.2v-.3h.2c.3,0,.6,0,.7-.2,0,0,.1-.2.1-.4s0-.2,0-.3c0,0,0-.2-.2-.6l-.5-1.3M142.4,8.3l-1.3-3.5-1.3,3.5h2.6"/>
    <path class="st0" d="M190.1,8.9h-3.1l-.4,1c-.1.3-.2.6-.2.8s0,.5.3.7c.1,0,.4.1.9.2v.3h-2.9v-.3c.3,0,.6-.2.8-.5.2-.3.5-.8.7-1.6l3.1-8.2h.1l3.1,8.4c.3.8.5,1.3.7,1.5.1.2.4.3.6.3v.3h-4.2v-.3h.2c.3,0,.6,0,.7-.2,0,0,.1-.2.1-.4s0-.2,0-.3c0,0,0-.2-.2-.6l-.5-1.3M189.9,8.3l-1.3-3.5-1.3,3.5h2.6"/>
    <path class="st0" d="M130.4,5.9h2.6v.3c-.3,0-.5.1-.7.3-.2.2-.4.5-.6,1.1-.3.6-.6,1.2-1.1,1.9.4.4.8.7,1,.9.2.1.4.2.5.2.3,0,.6-.2.8-.7l.2.2c-.3.8-.7,1.3-1.1,1.7-.3.2-.6.4-1,.4s-.6,0-.9-.2c-.3-.2-.6-.5-1.1-.9-.5.4-1,.7-1.5.9-.5.2-.9.3-1.4.3-.8,0-1.4-.2-1.9-.8-.5-.5-.7-1.1-.7-1.8s.2-1.4.7-1.9c.4-.5,1.1-1,1.9-1.4-.1-.3-.2-.6-.2-.9,0-.3,0-.6,0-.9,0-.8.2-1.4.7-1.9.5-.5,1.1-.8,1.8-.8s1,.2,1.4.5c.3.3.5.7.5,1.2s-.2,1-.5,1.4c-.3.4-.9.8-1.7,1.1.5,1,1.1,2,2,3.1.6-.8.9-1.5.9-2.1s0-.4-.2-.5c-.1-.1-.3-.2-.5-.3v-.3M126.5,6.6c-.3.2-.6.3-.7.5-.2.3-.3.6-.3.9s.1.9.3,1.4c.2.5.5.8.8,1,.3.2.6.4,1,.4s.3,0,.5-.1c.2,0,.4-.2.6-.4-1-1.2-1.7-2.5-2.3-3.7M128,5.4c.4-.2.7-.4.9-.6.1-.2.2-.5.2-.8,0-.5-.1-1-.4-1.4-.2-.3-.4-.4-.6-.4s-.4,0-.5.3c-.1.2-.2.4-.2.7s0,.5,0,.8c0,.3.2.7.5,1.4"/>
    <path class="st0" d="M165.4,1.4c1.4,0,2.5.4,3.4,1.4.9,1,1.3,2.3,1.3,3.8s-.3,2.4-1,3.4c-.9,1.3-2.1,2-3.6,2s-2.8-.6-3.6-1.9c-.7-1-1-2.2-1-3.5s.4-2.8,1.3-3.8c.9-1,2-1.5,3.2-1.4M165.4,1.9c-.8,0-1.4.5-1.8,1.4-.3.8-.5,1.9-.5,3.4s.3,3,.8,3.9c.4.6.9.9,1.5.9s.8-.1,1.1-.4c.4-.3.7-.8.9-1.5.2-.7.3-1.6.3-2.8s-.1-2.4-.3-3c-.2-.7-.5-1.1-.8-1.4-.3-.3-.7-.4-1.1-.4"/>
    <path class="st0" d="M178.9,1.3v3.6h-.2c-.2-.9-.5-1.6-1.1-2.1-.5-.5-1.1-.7-1.7-.7s-1,.2-1.5.6c-.5.4-.8.8-1,1.4-.3.8-.4,1.6-.4,2.5s0,1.8.3,2.5c.2.8.5,1.3.9,1.7.4.4,1,.6,1.6.6s1-.1,1.5-.4c.5-.3.9-.8,1.4-1.5v.9c-.5.6-1,1-1.5,1.3-.5.3-1.1.4-1.8.4s-1.7-.2-2.5-.7c-.7-.4-1.3-1.1-1.7-1.9-.4-.8-.6-1.7-.6-2.6s.2-1.9.7-2.8c.4-.9,1-1.6,1.8-2,.7-.5,1.5-.7,2.3-.7s1.3.2,1.9.5c.4.2.6.3.8.3s.3,0,.4-.2c0-.1.2-.3.2-.6h.2"/>
    <path class="st0" d="M200.7,1.6v2.8h-.2c-.1-.6-.3-1.1-.5-1.4-.2-.3-.4-.5-.7-.7-.2,0-.4-.1-.8-.1h-.6v7.9c0,.5,0,.9,0,1,0,.1.1.2.3.3.1,0,.3.1.6.1h.3v.3h-4.5v-.3h.3c.2,0,.4,0,.6-.2.1,0,.2-.2.3-.4,0-.1,0-.4,0-1V2.2h-.6c-.6,0-1,.1-1.3.4-.4.4-.6,1-.7,1.7h-.2V1.6h7.8"/>
  </g>
  <g>
    <path class="st2" d="M70.5,21.5c0,1,0,1.1.5,1.2h.3c0,0,0,.2,0,.3-.6,0-.9,0-1.2,0s-.7,0-1.2,0c0,0,0-.2,0-.2h.3c.5,0,.5-.2.5-1.2v-.5c0-.5,0-.6-.3-1.1l-1.1-2.1c-.3-.6-.4-.6-.7-.7h-.3c0-.1,0-.2,0-.3.3,0,.6,0,1.1,0s.7,0,1,0c0,0,0,.2,0,.2h-.1c-.3,0-.4.1-.4.2s.2.6.3.7c.3.7.7,1.4,1,2,.3-.5.6-1,.9-1.5.3-.5.6-1.1.6-1.2s-.2-.1-.4-.1h-.2c0,0,0-.2,0-.2.3,0,.6,0,.9,0s.5,0,.9,0c0,0,0,.2,0,.2h-.3c-.5.1-.7.7-1.2,1.5l-.6,1c-.4.7-.4.8-.4,1.5v.5Z"/>
    <path class="st2" d="M75.9,21c0,1.1-.8,2-1.9,2s-1.9-.7-1.9-1.9.9-2,1.9-2,1.9.8,1.9,1.9ZM73.9,19.4c-.6,0-1.1.6-1.1,1.6s.4,1.7,1.2,1.7,1.1-.8,1.1-1.5-.3-1.8-1.2-1.8Z"/>
    <path class="st2" d="M77.5,21.5c0,.6.2,1.1.9,1.1s.5-.1.7-.3c.1-.1.2-.2.2-.5v-1.5c0-.6,0-.6-.3-.7h-.1c0,0,0-.2,0-.2.4,0,.9,0,1.1-.2,0,0,0,0,0,0,0,.2,0,.5,0,.8v1.5c0,.7,0,1,.3,1s.2,0,.4,0c0,0,0,.2,0,.3-.4,0-.9.2-1.2.3,0,0,0,0-.1,0v-.4c0,0,0-.1,0-.1-.3.2-.7.5-1.3.5-.8,0-1.1-.4-1.1-1.1v-1.5c0-.6,0-.7-.3-.8h-.1c0,0,0-.2,0-.2.4,0,.8,0,1-.2,0,0,0,0,0,0,0,.2,0,.3,0,.8v1.5Z"/>
    <path class="st2" d="M81.6,20.2c0-.4,0-.4-.2-.6h0c0,0,0-.2,0-.2.2,0,.7-.3.9-.4,0,0,0,0,0,0v.5s0,0,0,0c.3-.3.7-.5,1-.5s.4.1.4.4-.2.4-.4.4-.1,0-.2,0c-.1,0-.3-.1-.4-.1s-.3,0-.3.2c0,.1-.1.4-.1.7v1.2c0,.7,0,.8.4.8h.3c0,0,0,.2,0,.3-.4,0-.7,0-1,0s-.6,0-.8,0c0,0,0-.2,0-.2h.2c.3,0,.3-.2.3-.8v-1.6Z"/>
    <path class="st2" d="M87.7,21.5c0,1,0,1.1.6,1.1h.2c0,0,0,.2,0,.3-.5,0-.8,0-1.2,0s-.7,0-1.1,0c0,0,0-.2,0-.2h.2c.5-.1.5-.2.5-1.2v-3.4c0-.8,0-.9-.4-1h-.3c0,0,0-.2,0-.3.5,0,1.1,0,1.8,0s1.3.1,1.8.4c.4.3.7.7.7,1.4s-.5,1.3-.9,1.5c-.4.2-.9.3-1.3.3,0,0,0-.2,0-.2,1-.2,1.3-.7,1.3-1.5s-.5-1.5-1.5-1.5-.5,0-.5.3v4.1Z"/>
    <path class="st2" d="M92.5,21c.1,0,.2-.1.2-.3v-.4c0-.3,0-.8-.7-.8s-.6.1-.6.4c0,.1,0,.3,0,.3-.1.1-.4.2-.5.2s-.1,0-.1-.1c0-.5,1-1.1,1.7-1.1s1,.4,1,1.1v1.6c0,.4,0,.8.4.8s.2,0,.2,0c0,0,0,0,.1,0s0,0,0,.1-.3.4-.8.4-.4,0-.6-.3c0,0,0-.1-.1-.1s-.2,0-.4.2c-.2.1-.4.2-.7.2s-.5,0-.6-.2c-.2-.2-.3-.4-.3-.6s.2-.6.8-.8l1.1-.4ZM92,22.6c.2,0,.5-.1.6-.2.1-.1.1-.2.1-.4v-.5c0-.1,0-.1,0-.1s-.2,0-.4,0c-.5.2-.8.3-.8.7s.1.5.6.5Z"/>
    <path class="st2" d="M94.9,20.2c0-.4,0-.4-.2-.6h0c0,0,0-.2,0-.2.2,0,.7-.3.9-.4,0,0,0,0,0,0v.5s0,0,0,0c.3-.3.7-.5,1-.5s.4.1.4.4-.2.4-.4.4-.1,0-.2,0c-.1,0-.3-.1-.4-.1s-.3,0-.3.2c0,.1-.1.4-.1.7v1.2c0,.7,0,.8.4.8h.3c0,0,0,.2,0,.3-.4,0-.7,0-1,0s-.6,0-.8,0c0,0,0-.2,0-.2h.2c.3,0,.3-.2.3-.8v-1.6Z"/>
    <path class="st2" d="M98.6,19.6c-.2,0-.2,0-.2.2v1.7c0,.5,0,1,.7,1s.2,0,.2,0c0,0,.2-.1.2-.1,0,0,.1.1,0,.2-.2.2-.5.4-1,.4-.8,0-1-.4-1-1v-2.1c0-.2,0-.3-.2-.3h-.3c0,0,0-.1,0-.2.3,0,.5-.2.6-.3.1-.1.3-.4.4-.5,0,0,.2,0,.2,0v.4c0,.2,0,.2.2.2h1c.1,0,0,.3,0,.4h-1Z"/>
    <path class="st2" d="M100.6,20.2c0-.4,0-.4-.2-.6h0c0,0,0-.2,0-.2.2,0,.7-.3.9-.4,0,0,0,0,.1,0,0,.2,0,.3,0,.4s0,.1.1.1c.4-.2.8-.5,1.3-.5.8,0,1.1.5,1.1,1.1v1.6c0,.7,0,.8.3.8h.2c0,0,0,.2,0,.3-.3,0-.5,0-.9,0s-.6,0-.9,0c0,0,0-.2,0-.2h.2c.3,0,.3-.2.3-.8v-1.4c0-.5-.2-.9-.9-.9s-.6.1-.8.3c-.1.2-.1.3-.1.5v1.4c0,.7,0,.7.3.8h.2c0,0,0,.2,0,.3-.2,0-.5,0-.8,0s-.6,0-.9,0c0,0,0-.2,0-.2h.2c.3,0,.3-.2.3-.8v-1.6Z"/>
    <path class="st2" d="M105.6,20.5c-.2,0-.2,0-.2.2,0,.9.5,1.7,1.5,1.7s.6,0,.8-.4c0,0,.2,0,.2.1-.3.6-1,.9-1.4.9s-1.1-.3-1.3-.6c-.3-.4-.4-.8-.4-1.2,0-1.1.7-2.1,1.8-2.1s1.3.5,1.3,1.1,0,.2,0,.2c0,0-.2,0-.5,0h-1.7ZM106.2,20.2c.7,0,.9,0,1,0,0,0,0,0,0-.2,0-.3-.2-.6-.7-.6s-1,.5-1,.8c0,0,0,0,0,0h.6Z"/>
    <path class="st2" d="M108.8,20.2c0-.4,0-.4-.2-.6h0c0,0,0-.2,0-.2.2,0,.7-.3.9-.4,0,0,0,0,0,0v.5s0,0,0,0c.3-.3.7-.5,1-.5s.4.1.4.4-.2.4-.4.4-.1,0-.2,0c-.1,0-.3-.1-.4-.1s-.3,0-.3.2c0,.1-.1.4-.1.7v1.2c0,.7,0,.8.4.8h.3c0,0,0,.2,0,.3-.4,0-.7,0-1,0s-.6,0-.8,0c0,0,0-.2,0-.2h.2c.3,0,.3-.2.3-.8v-1.6Z"/>
    <path class="st2" d="M114.8,19.6c-.2,0-.2,0-.2.3v1.9c0,.7,0,.8.3.8h.3c0,0,0,.2,0,.3-.4,0-.7,0-1,0s-.6,0-.9,0c0,0,0-.2,0-.2h.2c.3,0,.3-.2.3-.8v-1.9c0-.2,0-.3-.2-.3h-.3c0,0,0-.1,0-.2l.4-.2c0,0,.1,0,.1-.2,0-.5,0-1.1.3-1.6.2-.5.7-1.2,1.6-1.2s.9.2.9.5-.2.3-.3.3-.2,0-.2-.1c-.2-.2-.4-.4-.7-.4s-.5.2-.6.5c-.2.4-.2,1.1-.2,1.5v.3c0,.2,0,.3.2.3h1c.1,0,0,.3,0,.4h-1Z"/>
    <path class="st2" d="M119.8,21c0,1.1-.8,2-1.9,2s-1.9-.7-1.9-1.9.9-2,1.9-2,1.9.8,1.9,1.9ZM117.8,19.4c-.6,0-1.1.6-1.1,1.6s.4,1.7,1.2,1.7,1.1-.8,1.1-1.5-.3-1.8-1.2-1.8Z"/>
    <path class="st2" d="M120.9,20.2c0-.4,0-.4-.2-.6h0c0,0,0-.2,0-.2.2,0,.7-.3.9-.4,0,0,0,0,0,0v.5s0,0,0,0c.3-.3.7-.5,1-.5s.4.1.4.4-.2.4-.4.4-.1,0-.2,0c-.1,0-.3-.1-.4-.1s-.3,0-.3.2c0,.1-.1.4-.1.7v1.2c0,.7,0,.8.4.8h.3c0,0,0,.2,0,.3-.4,0-.7,0-1,0s-.6,0-.8,0c0,0,0-.2,0-.2h.2c.3,0,.3-.2.3-.8v-1.6Z"/>
    <path class="st2" d="M131,21.9c0,.4,0,.6.2.6,0,0,0,0,0,.1-.1,0-.3,0-.4,0-.5.1-1.1.2-1.6.2-1.1,0-2.1-.3-2.8-1-.5-.5-.8-1.3-.8-2.1s.3-1.6.8-2.2c.6-.6,1.5-1.1,2.9-1.1s1,.1,1.2.1c.2,0,.5.1.6,0,0,.3,0,.8.1,1.3,0,0-.2,0-.2,0-.3-1-.9-1.3-1.9-1.3-1.8,0-2.6,1.3-2.6,2.6s.9,3.1,2.7,3.1.9-.1,1-.3c0,0,0-.2,0-.5v-.4c0-.8,0-.8-.6-.9h-.4c0,0,0-.2,0-.3.3,0,.8,0,1.3,0s.7,0,1,0c0,0,0,.2,0,.2h-.1c-.4,0-.4.3-.4.8v.5Z"/>
    <path class="st2" d="M132.5,20.2c0-.4,0-.4-.2-.6h0c0,0,0-.2,0-.2.2,0,.7-.3.9-.4,0,0,0,0,0,0v.5s0,0,0,0c.3-.3.7-.5,1-.5s.4.1.4.4-.2.4-.4.4-.1,0-.2,0c-.1,0-.3-.1-.4-.1s-.3,0-.3.2c0,.1-.1.4-.1.7v1.2c0,.7,0,.8.4.8h.3c0,0,0,.2,0,.3-.4,0-.7,0-1,0s-.6,0-.8,0c0,0,0-.2,0-.2h.2c.3,0,.3-.2.3-.8v-1.6Z"/>
    <path class="st2" d="M138.7,21c0,1.1-.8,2-1.9,2s-1.9-.7-1.9-1.9.9-2,1.9-2,1.9.8,1.9,1.9ZM136.7,19.4c-.6,0-1.1.6-1.1,1.6s.4,1.7,1.2,1.7,1.1-.8,1.1-1.5-.3-1.8-1.2-1.8Z"/>
    <path class="st2" d="M139.5,20.1c-.2-.5-.3-.6-.5-.7h-.1c0,0,0-.2,0-.3.3,0,.5,0,.8,0s.5,0,.8,0c0,0,0,.2,0,.2h-.2c-.1,0-.2.1-.2.2s0,.2.1.5l.6,1.4c0,.2.2.4.2.4,0,0,.1-.2.2-.4l.4-1.1c.1-.3.1-.4,0-.5,0-.2-.2-.3-.4-.3h-.1c0,0,0-.2,0-.3.2,0,.5,0,.8,0s.6,0,.9,0c0,0,0,.2,0,.2h-.2c-.4.1-.3.1-.2.5.1.3.6,1.5.7,1.7,0,.1,0,.2.1.3,0,0,0-.1.1-.3.1-.3.5-1.2.6-1.6,0-.2,0-.3,0-.4s0-.1-.2-.1h-.2c0,0,0-.2,0-.3.3,0,.5,0,.7,0s.4,0,.6,0c0,0,0,.2,0,.2h-.2c-.2,0-.3.2-.5.6-.2.5-.7,1.6-.9,2.1-.1.3-.2.6-.3.8,0,0,0,0-.1,0s0,0-.1,0c0-.2-.2-.6-.4-1l-.4-1.1c0-.2-.2-.5-.2-.5s-.1.3-.2.4l-.5,1.1c-.2.4-.3.7-.4.9,0,0,0,0-.1,0s0,0-.1,0c0-.2-.2-.6-.3-.8l-.8-2.1Z"/>
    <path class="st2" d="M146.4,19.6c-.2,0-.2,0-.2.2v1.7c0,.5,0,1,.7,1s.2,0,.2,0c0,0,.2-.1.2-.1,0,0,.1.1,0,.2-.2.2-.5.4-1,.4-.8,0-1-.4-1-1v-2.1c0-.2,0-.3-.2-.3h-.3c0,0,0-.1,0-.2.3,0,.5-.2.6-.3.1-.1.3-.4.4-.5,0,0,.2,0,.2,0v.4c0,.2,0,.2.2.2h1c.1,0,0,.3,0,.4h-1Z"/>
    <path class="st2" d="M148.2,17.7c0-.5,0-.6-.3-.8h0c0,0,0-.2,0-.2.2,0,.7-.2,1-.4,0,0,0,0,0,0,0,.3,0,.7,0,1.1v1.9c0,0,0,.2,0,.2.3-.3.8-.5,1.2-.5.9,0,1.2.5,1.2,1.2v1.5c0,.7,0,.8.3.8h.2c0,0,0,.2,0,.3-.3,0-.6,0-.9,0s-.6,0-.9,0c0,0,0-.2,0-.2h.2c.3,0,.3-.2.3-.8v-1.3c0-.6-.3-1-.9-1s-.5.1-.7.2c-.2.1-.2.2-.2.5v1.5c0,.7,0,.8.3.8h.2c0,0,0,.2,0,.3-.3,0-.5,0-.9,0s-.6,0-.9,0c0,0,0-.2,0-.2h.2c.3,0,.3-.2.3-.8v-4.1Z"/>
    <path class="st2" d="M155.1,20.2c0-.4,0-.4-.2-.6h0c0,0,0-.2,0-.2.2,0,.7-.3.9-.4,0,0,0,0,0,0,0,.3,0,.8,0,1.1v1.6c0,.7,0,.8.3.8h.2c0,0,0,.2,0,.3-.3,0-.5,0-.9,0s-.6,0-.9,0c0,0,0-.2,0-.2h.2c.3,0,.3-.2.3-.8v-1.6ZM155.9,17.6c0,.3-.2.5-.5.5s-.5-.2-.5-.5.2-.5.5-.5.5.2.5.5Z"/>
    <path class="st2" d="M157.4,20.2c0-.4,0-.4-.2-.6h0c0,0,0-.2,0-.2.2,0,.7-.3.9-.4,0,0,0,0,.1,0,0,.2,0,.3,0,.4s0,.1.1.1c.4-.2.8-.5,1.3-.5.8,0,1.1.5,1.1,1.1v1.6c0,.7,0,.8.3.8h.2c0,0,0,.2,0,.3-.3,0-.5,0-.9,0s-.6,0-.9,0c0,0,0-.2,0-.2h.2c.3,0,.3-.2.3-.8v-1.4c0-.5-.2-.9-.9-.9s-.6.1-.8.3c-.1.2-.1.3-.1.5v1.4c0,.7,0,.7.3.8h.2c0,0,0,.2,0,.3-.2,0-.5,0-.8,0s-.6,0-.9,0c0,0,0-.2,0-.2h.2c.3,0,.3-.2.3-.8v-1.6Z"/>
    <path class="st2" d="M167.1,20.7c0-.2-.1-.2-.4-.2h-1.4c-.2,0-.3,0-.3.2l-.3,1c-.1.4-.2.7-.2.8s0,.2.3.2h.3c0,0,0,.2,0,.3-.2,0-.5,0-1,0-.3,0-.6,0-.9,0,0,0,0-.2,0-.2h.3c.2,0,.4-.1.5-.5.2-.4.4-1,.8-2l.9-2.5c.1-.3.2-.5.2-.6.2,0,.4-.2.5-.3,0,0,.1,0,.1,0,.1.4.3.8.4,1.2l1.3,3.7c.3.8.4.9.8,1h.2c0,0,0,.2,0,.3-.4,0-.7,0-1.1,0s-.8,0-1.1,0c0,0,0-.2,0-.2h.3c.2,0,.3-.1.3-.2s0-.3-.1-.5l-.4-1.2ZM165.3,19.9c0,.2,0,.2.2.2h1.1c.3,0,.3,0,.2-.3l-.5-1.5c0-.2-.2-.5-.2-.6h0s-.1.3-.2.5l-.6,1.6Z"/>
    <path class="st2" d="M171.5,19.3c0,.2.1.5.1.7,0,0-.2,0-.2,0-.2-.4-.4-.7-.8-.7s-.6.2-.6.6.4.6.7.8c.5.3.9.6.9,1.2s-.6,1-1.3,1-.7,0-1-.3c0-.2-.1-.6-.1-.9,0,0,.2,0,.2,0,.2.5.4.9,1,.9s.6-.2.6-.6-.4-.6-.7-.8c-.5-.3-.9-.6-.9-1.1s.5-1,1.2-1,.7,0,.8.2Z"/>
    <path class="st2" d="M172.8,20.2c0-.4,0-.4-.2-.6h0c0,0,0-.2,0-.2.2,0,.7-.3.9-.4,0,0,0,0,0,0,0,.3,0,.8,0,1.1v1.6c0,.7,0,.8.3.8h.2c0,0,0,.2,0,.3-.3,0-.5,0-.9,0s-.6,0-.9,0c0,0,0-.2,0-.2h.2c.3,0,.3-.2.3-.8v-1.6ZM173.5,17.6c0,.3-.2.5-.5.5s-.5-.2-.5-.5.2-.5.5-.5.5.2.5.5Z"/>
    <path class="st2" d="M176.3,21c.1,0,.2-.1.2-.3v-.4c0-.3,0-.8-.7-.8s-.6.1-.6.4c0,.1,0,.3,0,.3-.1.1-.4.2-.5.2s-.1,0-.1-.1c0-.5,1-1.1,1.7-1.1s1,.4,1,1.1v1.6c0,.4,0,.8.4.8s.2,0,.2,0c0,0,0,0,.1,0s0,0,0,.1-.3.4-.8.4-.4,0-.6-.3c0,0,0-.1-.1-.1s-.2,0-.4.2c-.2.1-.4.2-.7.2s-.5,0-.6-.2c-.2-.2-.3-.4-.3-.6s.2-.6.8-.8l1.1-.4ZM175.7,22.6c.2,0,.5-.1.6-.2.1-.1.1-.2.1-.4v-.5c0-.1,0-.1,0-.1s-.2,0-.4,0c-.5.2-.8.3-.8.7s.1.5.6.5Z"/>
  </g>
</svg>