<?xml version="1.0" encoding="UTF-8"?>
<svg id="OBJECTS" xmlns="http://www.w3.org/2000/svg" version="1.1" viewBox="0 0 121.1 121.1">
  <!-- Generator: Adobe Illustrator 29.5.1, SVG Export Plug-In . SVG Version: 2.1.0 Build 141)  -->
  <defs>
    <style>
      .st0 {
        fill: #00213c;
      }

      .st1 {
        fill: #fff;
      }
    </style>
  </defs>
  <rect class="st0" width="121.1" height="121.1"/>
  <g>
    <path class="st1" d="M94.6,68.1c0,.7,0,1.8,0,2.4s-.5,2.4-.8,3.3c-1.3,3.7-4.2,6.7-7.5,8.8l3.8,7.6-.2.2-11.1-4.8c-10.2,2.7-25.2-2.9-26.8-14.4-1.6-11.4,9.8-18.6,19.9-19.1s21.7,5.2,22.6,16ZM66.4,61.7c-4,.7-3.1,6.9,1,6.4,4.2-.6,3.2-7.1-1-6.4ZM79.1,61.7c-4,.7-3.1,6.9,1,6.4,4.2-.6,3.2-7.1-1-6.4Z"/>
    <path class="st1" d="M77.1,48.1c-10.4-1.5-22.7,3.3-27.4,13-1.8,3.8-2.3,7.9-1.5,12.1-2.1-.2-4.1-.9-6.2-1.5l-9,3.7,3.2-6.6c-6.9-4.7-11.1-12.2-9.2-20.8s13.6-16.9,23.9-17.3,23.7,5.7,26.3,17.3ZM42.9,40.4c-4,.7-3.1,6.9,1,6.4s3.2-7.1-1-6.4ZM60,40.4c-4,.7-3.1,6.9,1,6.4s3.2-7.1-1-6.4Z"/>
  </g>
</svg>