<svg width="22" height="20" viewBox="0 0 22 20" fill="none" xmlns="http://www.w3.org/2000/svg">
<path d="M3.63104 5.08208C5.14884 5.08208 6.37925 3.94441 6.37925 2.54104C6.37925 1.13766 5.14884 0 3.63104 0C2.11324 0 0.882812 1.13766 0.882812 2.54104C0.882812 3.94441 2.11324 5.08208 3.63104 5.08208Z" fill="#217FD4"/>
<path d="M5.71899 6.77344H1.54888C1.43559 6.77344 1.34375 6.85835 1.34375 6.96309V19.288C1.34375 19.3927 1.43559 19.4776 1.54888 19.4776H5.71899C5.83227 19.4776 5.92411 19.3927 5.92411 19.288V6.96309C5.92411 6.85835 5.83227 6.77344 5.71899 6.77344Z" fill="#217FD4"/>
<path d="M21.4978 11.4336V18.6328C21.4978 19.0985 21.0854 19.4798 20.5817 19.4798H17.8335C17.3298 19.4798 16.9174 19.0985 16.9174 18.6328V12.7037C16.9174 11.5349 15.8918 10.5866 14.6278 10.5866C13.3638 10.5866 12.3382 11.5349 12.3382 12.7037V18.6328C12.3382 19.0985 11.9258 19.4798 11.4221 19.4798H8.67387C8.1702 19.4798 7.75781 19.0985 7.75781 18.6328V7.62159C7.75781 7.15588 8.1702 6.77457 8.67387 6.77457H11.4221C11.9258 6.77457 12.3382 7.15588 12.3382 7.62159V8.16375C13.2542 7.06651 14.7706 6.35156 16.4599 6.35156C18.988 6.35156 21.4978 8.04559 21.4978 11.4336Z" fill="#217FD4"/>
</svg>
