<svg width="18" height="18" viewBox="0 0 18 18" fill="none" xmlns="http://www.w3.org/2000/svg">
<path fill-rule="evenodd" clip-rule="evenodd" d="M15.1875 12.375C15.9609 12.375 16.623 12.6504 17.1738 13.2012C17.7246 13.752 18 14.4141 18 15.1875C18 15.9609 17.7246 16.623 17.1738 17.1738C16.623 17.7246 15.9609 18 15.1875 18C14.4141 18 13.752 17.7246 13.2012 17.1738C12.6504 16.623 12.375 15.9609 12.375 15.1875C12.375 15.0703 12.3809 14.959 12.3926 14.8535C12.4043 14.748 12.4277 14.6426 12.4629 14.5371L5.00977 10.7402C4.75195 11.0684 4.43262 11.3291 4.05176 11.5225C3.6709 11.7158 3.25781 11.8125 2.8125 11.8125C2.03906 11.8125 1.37696 11.5371 0.826172 10.9863C0.275388 10.4355 0 9.77344 0 9C0 8.22656 0.275388 7.56446 0.826172 7.01367C1.37696 6.46289 2.03906 6.1875 2.8125 6.1875C3.22266 6.1875 3.60644 6.26953 3.96387 6.43359C4.32129 6.59766 4.6289 6.82617 4.88672 7.11914L12.4453 3.44531C12.4219 3.33984 12.4043 3.23438 12.3926 3.12891C12.3809 3.02344 12.375 2.91797 12.375 2.8125C12.375 2.03906 12.6504 1.37696 13.2012 0.826172C13.752 0.275388 14.4141 0 15.1875 0C15.9609 0 16.623 0.275388 17.1738 0.826172C17.7246 1.37696 18 2.03906 18 2.8125C18 3.58594 17.7246 4.24804 17.1738 4.79883C16.623 5.34961 15.9609 5.625 15.1875 5.625C14.7187 5.625 14.2881 5.51953 13.8955 5.30859C13.5029 5.09766 13.1777 4.81641 12.9199 4.46484L5.4668 8.08594C5.51367 8.22656 5.55176 8.37305 5.58105 8.52539C5.61035 8.67774 5.625 8.83594 5.625 9C5.625 9.12891 5.61621 9.25488 5.59863 9.37793C5.58105 9.50098 5.55469 9.62109 5.51953 9.73828L12.9375 13.5176C13.1836 13.166 13.5029 12.8877 13.8955 12.6826C14.2881 12.4775 14.7187 12.375 15.1875 12.375ZM15.1875 1.125C14.7187 1.125 14.3203 1.28906 13.9922 1.61719C13.6641 1.94531 13.5 2.34375 13.5 2.8125C13.5 3.28125 13.6641 3.67969 13.9922 4.00781C14.3203 4.33594 14.7187 4.5 15.1875 4.5C15.6563 4.5 16.0547 4.33594 16.3828 4.00781C16.7109 3.67969 16.875 3.28125 16.875 2.8125C16.875 2.34375 16.7109 1.94531 16.3828 1.61719C16.0547 1.28906 15.6563 1.125 15.1875 1.125ZM2.8125 10.6875C3.28125 10.6875 3.67969 10.5234 4.00781 10.1953C4.33594 9.86719 4.5 9.46875 4.5 9C4.5 8.53125 4.33594 8.13281 4.00781 7.80469C3.67969 7.47656 3.28125 7.3125 2.8125 7.3125C2.34375 7.3125 1.94531 7.47656 1.61719 7.80469C1.28906 8.13281 1.125 8.53125 1.125 9C1.125 9.46875 1.28906 9.86719 1.61719 10.1953C1.94531 10.5234 2.34375 10.6875 2.8125 10.6875ZM15.1875 16.875C15.6563 16.875 16.0547 16.7109 16.3828 16.3828C16.7109 16.0547 16.875 15.6563 16.875 15.1875C16.875 14.7187 16.7109 14.3203 16.3828 13.9922C16.0547 13.6641 15.6563 13.5 15.1875 13.5C14.7187 13.5 14.3203 13.6641 13.9922 13.9922C13.6641 14.3203 13.5 14.7187 13.5 15.1875C13.5 15.6563 13.6641 16.0547 13.9922 16.3828C14.3203 16.7109 14.7187 16.875 15.1875 16.875Z" fill="#535353"/>
</svg>
