<svg width="44" height="44" viewBox="0 0 44 44" fill="none" xmlns="http://www.w3.org/2000/svg">
<g clip-path="url(#clip0_530_79)">
<path d="M31.2139 28.9357V29.1167C31.2139 31.1735 31.2139 31.1653 29.3133 31.988C29.0639 32.1142 28.8576 32.3118 28.721 32.5557C28.5235 32.8848 28.4495 33.2797 28.2602 33.6088C27.9546 34.0383 27.7945 34.5544 27.8034 35.0814C27.8123 35.6085 27.9897 36.1188 28.3096 36.5377C28.3983 36.6475 28.4631 36.7747 28.4997 36.911C28.5363 37.0473 28.5441 37.1898 28.5224 37.3292C28.5007 37.4687 28.45 37.6021 28.3737 37.7208C28.2974 37.8396 28.1971 37.941 28.0792 38.0187C27.1194 38.9237 26.1815 39.8616 25.2655 40.8325C24.813 41.3097 24.344 41.5071 23.801 41.0957C22.1555 39.8616 20.8556 41.0958 19.5145 41.6717C19.1361 41.8362 18.988 42.6178 18.8399 43.1361C18.7897 43.4121 18.633 43.6573 18.4037 43.8189C18.1744 43.9805 17.8908 44.0455 17.614 44C16.2812 44 14.9566 44 13.632 44C12.9738 44 12.5048 43.8354 12.4143 43.1772C12.151 41.1451 10.3163 41.1122 8.95883 40.5445C8.62151 40.4047 7.98799 40.8489 7.53549 41.0957C7.40914 41.1866 7.26591 41.2512 7.11422 41.286C6.96254 41.3207 6.80547 41.3247 6.65219 41.2979C6.49891 41.2711 6.35252 41.2139 6.22164 41.1297C6.09076 41.0456 5.97801 40.9361 5.89001 40.8078C5.00968 39.8534 4.08822 38.9402 3.14207 38.0516C2.65666 37.5991 2.48388 37.1137 2.88702 36.5871C4.13758 34.9416 2.88703 33.6417 2.30289 32.2924C2.15479 31.9387 1.41433 31.7905 0.912459 31.6507C0.768406 31.6316 0.629642 31.5839 0.504379 31.5103C0.379116 31.4366 0.26989 31.3386 0.183198 31.222C0.0965065 31.1054 0.0341143 30.9726 -0.000315761 30.8314C-0.0347458 30.6902 -0.0405074 30.5436 -0.0172385 30.4002C0.0238984 29.0673 0.0238984 27.7427 -0.0172385 26.4181C-0.0172385 25.7517 0.163764 25.2992 0.805499 25.2087C2.83766 24.9372 2.86234 23.0942 3.43003 21.7449C3.57813 21.4076 3.1174 20.7824 2.87058 20.3216C2.69725 20.0819 2.62513 19.7836 2.66976 19.4911C2.7144 19.1987 2.8722 18.9355 3.10915 18.7584C4.07998 17.8534 5.01792 16.9155 5.92293 15.9447C6.39189 15.451 6.86908 15.3029 7.39563 15.706C9.04111 16.9484 10.341 15.706 11.6903 15.1137C12.0359 14.9656 12.184 14.2169 12.3156 13.715C12.3355 13.5701 12.3845 13.4306 12.4596 13.3051C12.5347 13.1795 12.6344 13.0704 12.7528 12.9843C12.8711 12.8983 13.0056 12.837 13.1482 12.8042C13.2908 12.7714 13.4386 12.7678 13.5826 12.7936C14.611 12.8429 15.6477 12.7936 16.6761 12.8347C16.9888 12.8347 17.2685 13.2296 17.5564 13.4435C17.2767 13.6739 17.0052 14.0441 16.7337 14.0853C15.9396 14.147 15.1419 14.147 14.3478 14.0853C13.8212 14.0853 13.4839 14.1922 13.4016 14.7517C13.3341 15.2342 13.1153 15.6828 12.7768 16.0332C12.4383 16.3835 11.9974 16.6175 11.5175 16.7016C11.0791 16.8428 10.6593 17.0362 10.267 17.2775C9.86795 17.556 9.39071 17.7006 8.90417 17.6902C8.41764 17.6799 7.94698 17.5152 7.56017 17.2199C7.11589 16.9155 6.78679 17.0142 6.42478 17.4174C5.8571 18.0509 5.24006 18.6514 4.61478 19.2274C4.25277 19.5565 4.1129 19.8526 4.42554 20.2805C4.73134 20.6781 4.90258 21.1628 4.91442 21.6642C4.92625 22.1657 4.77807 22.658 4.49137 23.0696C4.26584 23.4499 4.09415 23.8597 3.98125 24.2872C3.89786 24.783 3.65944 25.2397 3.30023 25.5915C2.94101 25.9434 2.47948 26.1722 1.98201 26.2453C1.88273 26.2492 1.78549 26.2747 1.69708 26.32C1.60867 26.3653 1.53121 26.4294 1.47011 26.5077C1.409 26.586 1.36574 26.6768 1.34331 26.7735C1.32089 26.8703 1.31985 26.9708 1.34027 27.0681C1.3814 27.4784 1.3814 27.8918 1.34027 28.3022C1.15927 29.6597 1.34027 30.7704 2.98575 30.9596C3.21611 30.9596 3.46295 31.371 3.59459 31.6425C3.89078 32.2513 4.06355 32.9177 4.41733 33.5101C4.74069 33.9672 4.91432 34.5134 4.91432 35.0733C4.91432 35.6332 4.74069 36.1794 4.41733 36.6365C4.37221 36.7747 4.36135 36.9218 4.38572 37.0651C4.41008 37.2084 4.46892 37.3437 4.55718 37.4593C4.86982 37.8789 5.33879 38.1832 5.65143 38.6028C6.47417 39.6477 7.29689 40.092 8.48986 39.2035C8.77965 39.0837 9.1051 39.0837 9.39488 39.2035C10.0613 39.4256 10.6866 39.7711 11.3612 40.0262C12.4637 40.38 13.344 40.9065 13.5168 42.1735C13.5826 42.6507 13.8788 42.7659 14.3395 42.7495C15.2281 42.7495 16.1084 42.7495 16.997 42.7495C17.4988 42.7495 17.7703 42.5931 17.8197 42.0995C17.8923 41.6031 18.12 41.1425 18.4702 40.7834C18.8204 40.4243 19.2752 40.1852 19.7696 40.1002C20.1684 39.9947 20.5505 39.8341 20.905 39.623C21.3408 39.3197 21.859 39.1572 22.39 39.1572C22.921 39.1572 23.4392 39.3197 23.8751 39.623C24.0222 39.666 24.1771 39.675 24.3281 39.6493C24.4792 39.6237 24.6225 39.564 24.7472 39.4749C25.1092 39.2363 25.356 38.8332 25.7015 38.5617C26.7793 37.739 27.4293 36.8422 26.4091 35.5176C26.2774 35.3448 26.3515 34.9499 26.4091 34.6948C26.623 34.0531 26.9356 33.4443 27.1495 32.8025C27.528 31.6672 28.0546 30.721 29.4039 30.5071C29.6095 30.5071 29.8646 30.0217 29.881 29.7502C29.9469 28.9274 29.881 28.1047 29.881 27.282C29.881 26.8212 30.0045 26.3523 30.531 26.4592C30.7943 26.5168 31.0987 26.9776 31.1645 27.282C31.2295 27.8307 31.246 28.384 31.2139 28.9357Z" fill="#596399"/>
<path d="M31.7741 24.3365H31.0665C29.421 24.3365 29.5033 24.4928 28.9685 22.9708C28.7053 22.2303 26.8047 21.4651 26.1219 21.8683C25.9527 22.009 25.7549 22.1109 25.5421 22.1669C25.3294 22.2229 25.107 22.2316 24.8905 22.1924C24.674 22.1532 24.4688 22.067 24.2892 21.9399C24.1096 21.8129 23.9601 21.648 23.8511 21.4569C23.3544 20.8589 22.8036 20.3081 22.2056 19.8114C21.9637 19.6434 21.7978 19.3868 21.7439 19.0972C21.69 18.8077 21.7524 18.5085 21.9177 18.2647C22.0737 17.9504 22.1609 17.6064 22.1734 17.2557C22.1859 16.905 22.1236 16.5557 21.9904 16.231C21.8573 15.9063 21.6564 15.6138 21.4013 15.3729C21.1461 15.1319 20.8426 14.9482 20.5108 14.8339C20.2362 14.7873 19.9903 14.6362 19.8246 14.4122C19.6589 14.1883 19.5864 13.9089 19.6222 13.6327C19.6716 12.629 19.6222 11.6252 19.6222 10.6215C19.5954 10.3688 19.6654 10.1154 19.8181 9.91232C19.9708 9.70925 20.1948 9.57161 20.445 9.52722C20.797 9.42309 21.1214 9.24176 21.3945 8.99641C21.6676 8.75106 21.8825 8.44786 22.0236 8.10894C22.1646 7.77002 22.2283 7.40389 22.21 7.03724C22.1917 6.67058 22.0918 6.31263 21.9177 5.98946C21.7734 5.76646 21.7195 5.4969 21.7669 5.23556C21.8143 4.97423 21.9594 4.74075 22.1727 4.58258C22.8803 3.92439 23.5714 3.23328 24.2378 2.5175C24.3945 2.30527 24.6252 2.1596 24.8842 2.10932C25.1432 2.05905 25.4117 2.10783 25.6364 2.24601C25.957 2.42396 26.3132 2.52824 26.6792 2.5513C27.0451 2.57435 27.4116 2.51559 27.7519 2.37928C28.0923 2.24297 28.398 2.03254 28.6469 1.76328C28.8958 1.49403 29.0815 1.1727 29.1907 0.822665C29.2427 0.561841 29.393 0.330978 29.6104 0.177843C29.8279 0.0247082 30.0959 -0.0389817 30.359 -7.2103e-05C31.3298 -7.2103e-05 32.3089 0.0410648 33.2797 -7.2103e-05C33.5568 -0.0390106 33.8383 0.029672 34.0663 0.191878C34.2943 0.354084 34.4515 0.597486 34.5056 0.872028C34.6167 1.20452 34.7975 1.50951 35.0357 1.7667C35.274 2.02388 35.5643 2.22737 35.8873 2.36359C36.2104 2.49981 36.5587 2.56565 36.9092 2.55672C37.2597 2.5478 37.6042 2.46431 37.9199 2.31182C38.0385 2.22595 38.1732 2.16477 38.3159 2.13189C38.4586 2.09902 38.6065 2.09513 38.7507 2.12045C38.8949 2.14576 39.0326 2.1998 39.1556 2.2793C39.2786 2.35881 39.3844 2.4622 39.4667 2.58334C39.655 2.81119 39.8675 3.01807 40.1002 3.20039C40.6423 3.52345 41.0593 4.02032 41.2833 4.6103C41.5074 5.20029 41.5253 5.8487 41.3343 6.45019C41.2645 7.09911 41.4105 7.75294 41.7495 8.31061C42.0886 8.86828 42.6019 9.29874 43.2101 9.53545C43.4723 9.59117 43.7033 9.74473 43.8562 9.96485C44.009 10.185 44.0722 10.4551 44.0329 10.7202C43.9917 11.691 43.9835 12.6701 44.0329 13.6409C44.0693 13.9179 43.9984 14.1983 43.8347 14.4247C43.671 14.6511 43.427 14.8063 43.1525 14.8586C42.8211 14.9722 42.5177 15.1551 42.2625 15.395C42.0072 15.635 41.8059 15.9265 41.6721 16.2503C41.5382 16.5741 41.4748 16.9226 41.4861 17.2728C41.4973 17.6229 41.583 17.9667 41.7374 18.2812C41.8971 18.5116 41.9623 18.7946 41.9194 19.0717C41.8765 19.3488 41.7289 19.5989 41.5071 19.7703C40.7913 20.4285 40.1002 21.1114 39.442 21.8272C39.2706 22.0495 39.0198 22.1968 38.7421 22.2382C38.4645 22.2796 38.1816 22.2119 37.9528 22.0493C37.6382 21.8965 37.2947 21.8123 36.945 21.8023C36.5954 21.7923 36.2477 21.8567 35.9248 21.9913C35.602 22.1259 35.3114 22.3275 35.0724 22.5829C34.8334 22.8383 34.6514 23.1416 34.5385 23.4726C34.4921 23.7495 34.3379 23.9967 34.1097 24.1601C33.8815 24.3236 33.5978 24.3899 33.3208 24.3447C32.7778 24.3036 32.276 24.3365 31.7741 24.3365ZM40.2071 5.33128C39.8085 4.8494 39.3769 4.39578 38.9154 3.97374C38.7819 3.87365 38.6269 3.80595 38.4627 3.77596C38.2985 3.74598 38.1296 3.75454 37.9693 3.80097C37.6796 3.97421 37.3483 4.06568 37.0108 4.06568C36.6733 4.06568 36.342 3.97421 36.0523 3.80097C35.5093 3.51301 34.8922 3.35671 34.3575 3.06875C34.0448 2.89597 33.6581 2.608 33.5923 2.31182C33.4031 1.41503 32.8765 1.20112 32.0785 1.30808C31.8438 1.34095 31.6056 1.34095 31.3709 1.30808C31.2327 1.26477 31.0867 1.2524 30.9432 1.27185C30.7997 1.29129 30.6622 1.34207 30.5405 1.42059C30.4188 1.4991 30.3159 1.60343 30.239 1.72618C30.1621 1.84892 30.1132 1.98705 30.0957 2.13082C29.967 2.5087 29.6993 2.82346 29.347 3.01115C28.6141 3.3874 27.8519 3.70381 27.068 3.95729C26.7782 4.07705 26.4528 4.07705 26.163 3.95729C26.0249 3.83801 25.8612 3.75203 25.6846 3.70594C25.508 3.65985 25.3232 3.65489 25.1444 3.69145C24.9656 3.72801 24.7975 3.80509 24.6532 3.91679C24.5089 4.0285 24.3921 4.17182 24.3118 4.33575C24.1161 4.59318 23.8864 4.82291 23.629 5.01863C23.5363 5.06631 23.4558 5.13455 23.3936 5.21814C23.3314 5.30173 23.2892 5.39847 23.2701 5.50091C23.2511 5.60334 23.2557 5.70876 23.2837 5.80913C23.3117 5.9095 23.3622 6.00216 23.4315 6.07997C23.6102 6.34951 23.7055 6.6657 23.7055 6.98908C23.7055 7.31246 23.6102 7.62867 23.4315 7.89821C23.1353 8.4659 22.9626 9.10764 22.6664 9.67533C22.5183 9.96329 22.2385 10.317 21.9588 10.3746C21.0291 10.5721 20.807 11.1233 20.9304 11.9625C20.9054 12.2857 20.9054 12.6102 20.9304 12.9334C21.0291 13.2378 21.2348 13.6574 21.4816 13.7561C21.823 13.8475 22.1332 14.0297 22.3795 14.2831C22.6257 14.5366 22.7988 14.852 22.8803 15.1959C23.0613 15.78 23.3739 16.323 23.5632 16.9154C23.6786 17.206 23.6786 17.5298 23.5632 17.8204C22.9872 18.6432 23.2752 19.2026 23.9663 19.7374C24.2213 19.9349 24.3941 20.2557 24.6656 20.4038C24.9371 20.5519 25.3979 20.6918 25.62 20.5684C25.9097 20.3951 26.2409 20.3037 26.5785 20.3037C26.916 20.3037 27.2473 20.3951 27.537 20.5684C28.0882 20.8481 28.697 21.0044 29.24 21.3006C29.5759 21.458 29.8423 21.7332 29.9887 22.074C30.0004 22.2474 30.0526 22.4157 30.1412 22.5653C30.2297 22.7149 30.3522 22.8416 30.4986 22.9352C30.6451 23.0288 30.8115 23.0868 30.9844 23.1044C31.1574 23.122 31.332 23.0988 31.4943 23.0366C31.7866 22.9996 32.0824 22.9996 32.3747 23.0366C32.5011 23.0705 32.6334 23.0769 32.7625 23.0553C32.8917 23.0336 33.0146 22.9844 33.1231 22.9111C33.2316 22.8377 33.323 22.7419 33.3912 22.6301C33.4593 22.5183 33.5027 22.3932 33.5183 22.2632C33.6382 21.8823 33.8888 21.5559 34.2258 21.3417C34.9907 20.9579 35.7826 20.6307 36.5953 20.3627C36.74 20.3096 36.8939 20.2859 37.0478 20.293C37.2018 20.3 37.3528 20.3377 37.4921 20.4038C37.6331 20.5191 37.7983 20.6011 37.9755 20.6436C38.1526 20.6861 38.3371 20.688 38.515 20.6493C38.693 20.6105 38.86 20.5321 39.0034 20.4198C39.1468 20.3074 39.263 20.1642 39.3433 20.0007C39.5489 19.7127 39.8945 19.5235 40.0673 19.2273C40.1497 19.098 40.2046 18.9531 40.2286 18.8017C40.2527 18.6502 40.2454 18.4955 40.2071 18.347C40.0232 18.046 39.9259 17.7001 39.9259 17.3473C39.9259 16.9946 40.0232 16.6487 40.2071 16.3477C40.4869 15.7965 40.6596 15.1959 40.9394 14.6446C41.0792 14.3814 41.3343 14.0441 41.5811 13.9947C42.6178 13.8055 42.7988 13.172 42.6754 12.2752C42.636 12.0023 42.636 11.7253 42.6754 11.4524C42.7048 11.3458 42.7103 11.2339 42.6914 11.1248C42.6724 11.0158 42.6295 10.9123 42.5658 10.8218C42.5021 10.7313 42.4191 10.6561 42.3228 10.6015C42.2265 10.547 42.1193 10.5144 42.0089 10.5063C41.7179 10.4583 41.4473 10.326 41.2308 10.1256C41.0143 9.9252 40.8615 9.66563 40.7913 9.37913C40.3388 8.12034 39.4338 6.92739 40.2071 5.33128Z" fill="#596399"/>
<path d="M15.6237 36.9079C14.5017 36.9133 13.3898 36.6964 12.3523 36.2695C11.3147 35.8427 10.372 35.2145 9.57864 34.4211C8.7853 33.6278 8.15707 32.6851 7.73024 31.6475C7.30341 30.6099 7.08645 29.498 7.0919 28.3761C7.08861 27.2542 7.30771 26.1427 7.73654 25.1059C8.16538 24.0692 8.79542 23.1277 9.59029 22.3359C10.3852 21.5441 11.3291 20.9176 12.3675 20.4928C13.4059 20.068 14.5182 19.8532 15.6401 19.8608C17.8913 19.8608 20.0506 20.7539 21.6439 22.3442C23.2373 23.9345 24.1346 26.092 24.139 28.3432C24.1477 29.4662 23.9338 30.5798 23.5095 31.6196C23.0853 32.6594 22.4591 33.6049 21.6673 34.4013C20.8755 35.1977 19.9338 35.8292 18.8964 36.2595C17.8591 36.6897 16.7467 36.9101 15.6237 36.9079ZM15.6237 35.5998C17.5348 35.5934 19.3664 34.8341 20.7216 33.4866C22.0768 32.1391 22.8465 30.3119 22.8638 28.4008C22.8552 26.4911 22.095 24.6616 20.7477 23.3082C19.4005 21.9547 17.5744 21.1862 15.6648 21.1689C13.7537 21.1754 11.9221 21.9346 10.5669 23.2821C9.21168 24.6296 8.44203 26.4568 8.42473 28.3679C8.43318 30.2719 9.18882 32.0965 10.529 33.4491C11.8692 34.8016 13.6869 35.5739 15.5908 35.5998H15.6237Z" fill="#596399"/>
<path d="M31.7979 18.8326C30.9264 18.8337 30.0632 18.6629 29.2577 18.3302C28.4522 17.9974 27.7202 17.5091 27.1036 16.8932C26.4869 16.2774 25.9977 15.546 25.6639 14.7409C25.3302 13.9358 25.1584 13.0728 25.1584 12.2013C25.1518 11.3222 25.3201 10.4505 25.6535 9.63702C25.9869 8.82352 26.4788 8.08443 27.1004 7.46277C27.7221 6.8411 28.4612 6.34925 29.2747 6.01585C30.0882 5.68244 30.9599 5.51412 31.839 5.52069C32.7182 5.51952 33.5888 5.6932 34.4003 6.03161C35.2118 6.37002 35.9478 6.86642 36.5657 7.49192C37.1835 8.11742 37.6708 8.85952 37.9992 9.67508C38.3276 10.4906 38.4905 11.3634 38.4785 12.2425C38.4731 13.114 38.296 13.9759 37.9572 14.779C37.6185 15.582 37.1248 16.3103 36.5043 16.9224C35.8838 17.5345 35.1488 18.0182 34.3412 18.346C33.5337 18.6737 32.6694 18.8391 31.7979 18.8326ZM31.7979 17.5244C33.2137 17.5159 34.5694 16.9514 35.5728 15.9525C36.5763 14.9537 37.147 13.6006 37.1621 12.1849C37.1493 10.7698 36.582 9.41613 35.5821 8.41469C34.5822 7.41324 33.2294 6.84386 31.8143 6.82884C30.4 6.83954 29.0463 7.40502 28.0447 8.40361C27.043 9.4022 26.4734 10.7541 26.4583 12.1684C26.469 13.5842 27.0357 14.9391 28.036 15.9409C29.0364 16.9428 30.3903 17.5115 31.8061 17.5244H31.7979Z" fill="#596399"/>
<path d="M30.5891 13.4436L34.0282 9.96339C34.3819 9.60961 34.7686 9.14066 35.2787 9.60962C35.7888 10.0786 35.3692 10.5064 34.999 10.8684C33.7896 12.0778 32.5719 13.2708 31.3872 14.4967C30.8606 15.0397 30.4163 15.0561 29.9062 14.4967C29.3961 13.9372 28.8614 13.5258 28.4335 12.9746C28.2608 12.7442 28.3513 12.3082 28.3184 11.9627C28.6557 11.9627 29.0835 11.8968 29.3139 12.0696C29.7748 12.4929 30.2013 12.9524 30.5891 13.4436Z" fill="#596399"/>
</g>
<defs>
<clipPath id="clip0_530_79">
<rect width="44" height="44" fill="white"/>
</clipPath>
</defs>
</svg>
