<svg width="288" height="42" viewBox="0 0 288 42" fill="none" xmlns="http://www.w3.org/2000/svg">
<g clip-path="url(#clip0_4718_1669)">
<path d="M50.6033 13.7192H43.8208L42.0555 17.6162H39.4805L47.3182 0.570312L54.8773 17.6162H52.2625L50.6033 13.7192ZM49.6278 11.4415L47.2784 5.98577L44.8163 11.4415H49.6278Z" fill="white"/>
<path d="M66.128 3.95991L64.1901 5.12229C63.8251 4.48399 63.48 4.06742 63.1548 3.87929C62.8097 3.65756 62.3717 3.54334 61.8342 3.54334C61.1705 3.54334 60.6197 3.73147 60.1817 4.11445C59.7436 4.49071 59.5246 4.96103 59.5246 5.52542C59.5246 6.31154 60.102 6.9364 61.2501 7.42016L62.8296 8.0719C64.1171 8.59597 65.0529 9.24099 65.6502 10.0002C66.2475 10.7595 66.5395 11.6867 66.5395 12.7886C66.5395 14.2667 66.055 15.4829 65.0794 16.4504C64.1039 17.4179 62.8894 17.9084 61.436 17.9084C60.0622 17.9084 58.9273 17.4918 58.0314 16.6654C57.1488 15.839 56.5979 14.6766 56.3789 13.1783L58.8013 12.6408C58.9074 13.5814 59.0999 14.2332 59.3786 14.596C59.8697 15.288 60.5865 15.6374 61.5355 15.6374C62.2788 15.6374 62.9026 15.3821 63.3937 14.8782C63.8849 14.3742 64.1304 13.736 64.1304 12.9566C64.1304 12.6475 64.0906 12.3586 64.0043 12.1033C63.918 11.8412 63.7853 11.6061 63.6061 11.3843C63.4269 11.1626 63.188 10.961 62.9026 10.7729C62.6173 10.5848 62.2722 10.4034 61.874 10.2287L60.3476 9.58365C58.1774 8.65644 57.0957 7.29922 57.0957 5.51199C57.0957 4.3093 57.5536 3.30146 58.4628 2.48847C59.372 1.67548 60.5068 1.26562 61.8607 1.26562C63.6858 1.26562 65.1126 2.15924 66.1413 3.9532L66.128 3.95991Z" fill="white"/>
<path d="M72.1274 1.57812V17.6162H69.7383V1.57812H72.1274Z" fill="white"/>
<path d="M85.5526 13.7192H78.77L77.0047 17.6162H74.4297L82.2741 0.570312L89.8331 17.6162H87.2183L85.5592 13.7192H85.5526ZM84.577 11.4415L82.2276 5.98577L79.7655 11.4415H84.577Z" fill="white"/>
<path d="M98.375 17.6158L101.707 0.375L107.142 12.8386L112.776 0.375L115.769 17.6158H113.321L111.794 7.93379L107.109 18.3481L102.556 7.92035L100.85 17.609H98.375V17.6158Z" fill="white"/>
<path d="M128.744 13.7192H121.961L120.196 17.6162H117.621L125.459 0.570312L133.018 17.6162H130.403L128.744 13.7192ZM127.768 11.4415L125.419 5.98577L122.957 11.4415H127.768Z" fill="white"/>
<path d="M135.32 17.6187V0.492188L146.875 12.7274V1.58065H149.264V18.593L137.709 6.3914V17.6187H135.32Z" fill="white"/>
<path d="M155.759 1.57812V11.2332C155.759 12.6106 155.978 13.6184 156.423 14.25C157.086 15.1705 158.022 15.6274 159.223 15.6274C160.425 15.6274 161.374 15.1705 162.037 14.25C162.482 13.6319 162.701 12.6308 162.701 11.2332V1.57812H165.09V11.8984C165.09 13.5848 164.572 14.9824 163.53 16.0708C162.362 17.287 160.922 17.8984 159.223 17.8984C157.524 17.8984 156.084 17.287 154.923 16.0708C153.881 14.9757 153.363 13.5848 153.363 11.8984V1.57812H155.752H155.759Z" fill="white"/>
<path d="M177.118 3.84912H171.596V7.70578H176.919V9.97678H171.596V17.6095H169.207V1.57812H177.118V3.84912Z" fill="white"/>
<path d="M188.459 13.7192H181.676L179.911 17.6162H177.336L185.174 0.570312L192.733 17.6162H190.118L188.459 13.7192ZM187.483 11.4415L185.134 5.98577L182.672 11.4415H187.483Z" fill="white"/>
<path d="M205.998 2.43472V5.29698C204.617 4.12789 203.184 3.54334 201.711 3.54334C200.085 3.54334 198.711 4.13461 197.596 5.31714C196.474 6.49295 195.91 7.93752 195.91 9.63741C195.91 11.3373 196.468 12.7416 197.596 13.8972C198.718 15.0529 200.091 15.6307 201.717 15.6307C202.56 15.6307 203.27 15.4896 203.861 15.2141C204.193 15.073 204.531 14.8916 204.883 14.6564C205.235 14.4213 205.606 14.1391 205.998 13.8031V16.7259C204.631 17.512 203.191 17.9017 201.691 17.9017C199.428 17.9017 197.496 17.1021 195.897 15.503C194.304 13.8905 193.508 11.942 193.508 9.66428C193.508 7.62173 194.171 5.8009 195.505 4.2018C197.145 2.23987 199.268 1.26562 201.877 1.26562C203.297 1.26562 204.671 1.65532 205.998 2.43472Z" fill="white"/>
<path d="M213.697 3.84912V17.6095H211.308V3.84912H207.664V1.57812H217.327V3.84912H213.697Z" fill="white"/>
<path d="M222.173 1.57812V11.2332C222.173 12.6106 222.392 13.6184 222.837 14.25C223.5 15.1705 224.436 15.6274 225.637 15.6274C226.839 15.6274 227.788 15.1705 228.451 14.25C228.896 13.6319 229.115 12.6308 229.115 11.2332V1.57812H231.504V11.8984C231.504 13.5848 230.986 14.9824 229.945 16.0708C228.777 17.287 227.336 17.8984 225.637 17.8984C223.938 17.8984 222.505 17.287 221.337 16.0708C220.295 14.9757 219.777 13.5848 219.777 11.8984V1.57812H222.167H222.173Z" fill="white"/>
<path d="M240.978 10.7831L245.883 17.6162H242.956L238.43 11.0518H237.999V17.6162H235.609V1.57812H238.41C240.501 1.57812 242.014 1.97454 242.943 2.77409C243.971 3.66099 244.482 4.83009 244.482 6.28137C244.482 7.41687 244.164 8.39112 243.52 9.21082C242.876 10.0305 242.027 10.5479 240.978 10.7763V10.7831ZM238.005 8.94207H238.762C241.025 8.94207 242.16 8.06861 242.16 6.31497C242.16 4.67555 241.058 3.85584 238.855 3.85584H238.005V8.94207Z" fill="white"/>
<path d="M250.967 1.57812V17.6162H248.578V1.57812H250.967Z" fill="white"/>
<path d="M255.09 17.6187V0.492188L266.644 12.7274V1.58065H269.033V18.593L257.479 6.3914V17.6187H255.09Z" fill="white"/>
<path d="M281.451 9.26115H287.995V9.79194C287.995 10.9946 287.855 12.0629 287.577 12.9901C287.305 13.8502 286.84 14.6497 286.19 15.4022C284.716 17.0753 282.851 17.9151 280.575 17.9151C278.299 17.9151 276.46 17.1021 274.881 15.4829C273.301 13.8569 272.512 11.9017 272.512 9.62397C272.512 7.34625 273.315 5.32386 274.921 3.70459C276.527 2.07861 278.485 1.26562 280.788 1.26562C282.029 1.26562 283.183 1.52094 284.252 2.03158C285.28 2.54222 286.289 3.36865 287.278 4.51758L285.572 6.17044C284.272 4.4168 282.692 3.54334 280.821 3.54334C279.142 3.54334 277.741 4.12789 276.606 5.29698C275.472 6.44592 274.901 7.88377 274.901 9.61725C274.901 11.3507 275.531 12.8759 276.799 14.0316C277.98 15.1066 279.261 15.6441 280.648 15.6441C281.823 15.6441 282.885 15.241 283.82 14.4414C284.756 13.6352 285.28 12.6676 285.387 11.5389H281.438V9.26786L281.451 9.26115Z" fill="white"/>
<path d="M43.6899 24.9844V41.0225H41.3008V24.9844H43.6899Z" fill="white"/>
<path d="M47.8086 41.025V23.8984L59.3628 36.1336V24.9869H61.752V41.9992L50.1978 29.7977V41.025H47.8086Z" fill="white"/>
<path d="M65.8621 41.0225V24.9844H69.187C70.7798 24.9844 72.0407 25.1456 72.9632 25.4614C73.9521 25.7705 74.8546 26.3013 75.6577 27.0471C77.2903 28.5588 78.1066 30.5409 78.1066 33.0001C78.1066 35.4592 77.2571 37.4614 75.5515 38.9799C74.6954 39.7391 73.7994 40.2699 72.8637 40.5656C71.9876 40.8612 70.7466 41.0157 69.1406 41.0157H65.8555L65.8621 41.0225ZM68.2513 38.7447H69.3264C70.4015 38.7447 71.2908 38.6305 72.0009 38.4021C72.711 38.1602 73.3548 37.7772 73.9322 37.2464C75.1068 36.1579 75.6975 34.7403 75.6975 33.0001C75.6975 31.2599 75.1135 29.8153 73.9521 28.7201C72.9035 27.7459 71.3638 27.2554 69.3264 27.2554H68.2513V38.7447Z" fill="white"/>
<path d="M90.17 27.2543H83.8189V31.1042H89.9842V33.3819H83.8189V38.7436H90.17V41.0146H81.4297V24.9766H90.17V27.2476V27.2543Z" fill="white"/>
<path d="M96.9395 32.6372L92.5793 24.9844H95.3003L98.3266 30.4133L101.505 24.9844H104.246L99.6804 32.6372L104.472 41.0157H101.797L98.2868 34.8746L94.6765 41.0157H91.9688L96.9462 32.6372H96.9395Z" fill="white"/>
<path d="M0 10.9044L0 41.4688H5.72735L5.72735 10.9044H0Z" fill="#F5CC47"/>
<path d="M7.69141 -0.000457764L7.69141 41.4688H13.4188L13.4188 -0.000457764H7.69141Z" fill="#CB2C29"/>
<path d="M15.3828 6.04657L15.3828 41.4688H21.1102V6.04657H15.3828Z" fill="#3F8640"/>
<path d="M23.082 11.0858L23.082 41.4688H28.8094V11.0858H23.082Z" fill="#6971A8"/>
<path d="M112.84 27.6016L112.024 31.7001H112.05C112.621 30.746 113.424 30.2824 114.247 30.2824C115.554 30.2824 116.005 31.3843 116.005 32.419C116.005 34.166 114.685 36.4168 112.535 36.4168C111.738 36.4168 110.922 36.0876 110.922 34.9857C110.922 34.7438 110.962 34.4146 111.008 34.1727L112.302 27.6016H112.846H112.84ZM111.539 34.1391C111.493 34.3406 111.466 34.5892 111.466 34.9386C111.466 35.5836 111.831 35.9465 112.581 35.9465C114.406 35.9465 115.441 33.8838 115.441 32.4056C115.441 31.5792 115.076 30.7595 114.114 30.7595C113.105 30.7595 112.037 31.8345 111.685 33.4269L111.532 34.1391H111.539Z" fill="white"/>
<path d="M118.071 30.4141L118.781 33.9482C118.934 34.6671 119.02 35.1106 119.087 35.5876H119.12C119.286 35.1979 119.485 34.7679 119.803 34.1095L121.562 30.4141H122.153L119.903 35.03C119.372 36.1184 118.854 37.133 118.051 37.9527C117.421 38.6179 116.777 38.8933 116.472 38.974L116.312 38.4969C116.545 38.4029 116.996 38.2282 117.421 37.8654C117.812 37.5361 118.284 36.9919 118.655 36.2998C118.708 36.1991 118.695 36.1319 118.688 36.0445L117.514 30.4141H118.071Z" fill="white"/>
<path d="M127.183 28.1467C127.76 28.0459 128.397 27.9922 129.067 27.9922C130.474 27.9922 131.53 28.4424 132.074 29.215C132.372 29.6182 132.638 30.3035 132.645 31.2374C132.645 32.6618 132.107 34.2072 131.032 35.1613C130.096 35.981 128.915 36.3371 127.475 36.3371C126.93 36.3371 126.26 36.3237 125.656 36.2699L127.176 28.1467H127.183ZM126.293 35.7929C126.758 35.8533 127.222 35.86 127.521 35.86C129.028 35.86 130.036 35.4435 130.806 34.6842C131.649 33.8511 132.08 32.5678 132.08 31.3046C132.08 29.7525 131.384 28.4625 128.988 28.4625C128.59 28.4625 128.012 28.4894 127.654 28.57L126.3 35.7996L126.293 35.7929Z" fill="white"/>
<path d="M137.733 35.9453C137.441 36.1334 136.831 36.4089 135.975 36.4089C134.508 36.4089 133.957 35.2734 133.957 34.1245C133.957 32.3641 135.264 30.2812 136.983 30.2812C138.039 30.2812 138.483 30.9464 138.483 31.625C138.483 33.1973 136.592 33.5131 134.561 33.4862C134.481 33.7952 134.495 34.5209 134.634 34.924C134.873 35.5959 135.377 35.9251 136.034 35.9251C136.764 35.9251 137.269 35.6765 137.554 35.5019L137.72 35.9386L137.733 35.9453ZM136.89 30.7583C135.848 30.7583 134.972 31.8669 134.647 33.0226C136.359 33.0427 137.932 32.821 137.932 31.6653C137.932 31.0606 137.494 30.7583 136.89 30.7583Z" fill="white"/>
<path d="M139.049 35.9236L142.454 32.0468C142.951 31.4824 143.243 31.2136 143.529 30.918V30.8709H140.244L140.337 30.4141H144.272L144.193 30.8105L140.828 34.647C140.303 35.2383 140.031 35.507 139.759 35.7825V35.8228H143.29L143.197 36.2797H138.996L139.056 35.9236H139.049Z" fill="white"/>
<path d="M148.855 36.2813C148.842 35.9184 148.915 35.2734 149.021 34.541H148.995C148.311 35.9117 147.475 36.4156 146.566 36.4156C145.544 36.4156 144.953 35.5825 144.953 34.541C144.953 32.4515 146.553 30.2812 148.869 30.2812C149.34 30.2812 149.864 30.3484 150.209 30.4559L149.632 33.5063C149.406 34.6956 149.347 35.6765 149.38 36.2745H148.855V36.2813ZM149.599 30.8591C149.453 30.8053 149.207 30.7583 148.769 30.7583C147.017 30.7583 145.531 32.4716 145.517 34.447C145.517 35.1525 145.736 35.9453 146.685 35.9453C147.721 35.9453 148.909 34.5343 149.214 32.8949L149.592 30.8658L149.599 30.8591Z" fill="white"/>
<path d="M151.664 36.2812L152.467 31.9946C152.587 31.3966 152.66 30.8792 152.713 30.4156H153.217L153.044 31.6788H153.071C153.575 30.812 154.398 30.2812 155.301 30.2812C155.825 30.2812 156.754 30.5634 156.754 31.9274C156.754 32.1894 156.708 32.5187 156.648 32.8479L156.004 36.2812H155.46L156.111 32.8008C156.15 32.559 156.197 32.2633 156.197 31.9879C156.197 31.2891 155.918 30.765 155.082 30.765C154.246 30.765 153.038 31.7191 152.759 33.2712L152.215 36.2745H151.671L151.664 36.2812Z" fill="white"/>
<path d="M161.267 35.3922C161.686 35.7013 162.25 35.923 162.88 35.923C163.942 35.923 164.931 35.2243 164.931 34.0148C164.931 33.3161 164.599 32.7651 163.683 32.2478C162.535 31.6162 162.104 30.951 162.104 30.1783C162.104 28.8211 163.238 27.9141 164.566 27.9141C165.236 27.9141 165.833 28.1559 166.072 28.3575L165.84 28.7942C165.588 28.633 165.123 28.3911 164.493 28.3911C163.371 28.3911 162.654 29.2243 162.648 30.0372C162.648 30.8234 163.006 31.2534 163.955 31.7842C164.964 32.3418 165.468 32.9801 165.468 34.0081C165.468 35.1839 164.606 36.4135 162.767 36.4135C162.15 36.4135 161.354 36.1649 161.035 35.8491L161.261 35.3989L161.267 35.3922Z" fill="white"/>
<path d="M167.179 36.2835L168.811 27.6094H169.355L168.579 31.6273H168.605C169.116 30.8009 169.873 30.2835 170.822 30.2835C171.326 30.2835 172.255 30.5791 172.255 31.8423C172.255 32.1782 172.222 32.5209 172.169 32.7964L171.512 36.2835H170.968L171.625 32.7829C171.665 32.5814 171.705 32.2925 171.705 31.9229C171.705 31.2846 171.386 30.774 170.603 30.774C169.727 30.774 168.539 31.7885 168.28 33.1861L167.716 36.2835H167.172H167.179Z" fill="white"/>
<path d="M174.008 36.2836L175.116 30.418H175.66L174.552 36.2836H174.008ZM175.269 28.7316C175.269 28.4628 175.461 28.2344 175.72 28.2344C175.979 28.2344 176.145 28.4561 176.145 28.7316C176.125 28.9936 175.966 29.2221 175.68 29.2221C175.415 29.2221 175.262 28.9869 175.269 28.7316Z" fill="white"/>
<path d="M177.102 36.2802L177.845 32.3227C177.978 31.6307 178.071 30.9856 178.137 30.4145H178.635C178.575 30.8311 178.522 31.2477 178.436 31.7314H178.469C178.827 30.9117 179.438 30.2734 180.201 30.2734C180.28 30.2734 180.4 30.2802 180.466 30.3003L180.36 30.858C180.294 30.8378 180.207 30.8311 180.088 30.8311C179.371 30.8311 178.442 31.933 178.17 33.4313L177.646 36.2734H177.102V36.2802Z" fill="white"/>
<path d="M184.812 36.2813C184.799 35.9184 184.872 35.2734 184.978 34.541H184.952C184.268 35.9117 183.432 36.4156 182.523 36.4156C181.501 36.4156 180.91 35.5825 180.91 34.541C180.91 32.4515 182.516 30.2812 184.826 30.2812C185.297 30.2812 185.821 30.3484 186.166 30.4559L185.589 33.5063C185.363 34.6956 185.304 35.6765 185.337 36.2745H184.812V36.2813ZM185.549 30.8591C185.403 30.8053 185.158 30.7583 184.72 30.7583C182.967 30.7583 181.481 32.4716 181.468 34.447C181.468 35.1525 181.687 35.9453 182.636 35.9453C183.671 35.9453 184.859 34.5343 185.164 32.8949L185.542 30.8658L185.549 30.8591Z" fill="white"/>
<path d="M195.16 36.2858C194.935 36.0104 194.755 35.7483 194.523 35.3989C193.747 36.1649 193.003 36.4202 192.174 36.4202C190.827 36.4202 190.156 35.4729 190.156 34.4314C190.156 33.1145 191.231 32.194 192.214 31.7103V31.6699C191.908 31.0787 191.769 30.5949 191.769 30.1044C191.769 28.9488 192.579 27.9141 193.68 27.9141C194.682 27.9141 195.061 28.6666 195.061 29.3989C195.061 30.4001 194.397 31.1996 192.937 31.8782V31.9118C193.461 32.839 194.138 33.9275 194.629 34.633C195.107 33.9947 195.525 33.1615 195.917 31.9387H196.461C196.003 33.2825 195.519 34.297 194.881 35.0227C195.16 35.4191 195.439 35.8222 195.811 36.2858H195.167H195.16ZM194.271 35.016C193.906 34.4247 193.116 33.2623 192.426 32.0664C191.782 32.4292 190.707 33.1347 190.707 34.371C190.707 35.278 191.284 35.9566 192.287 35.9566C193.07 35.9566 193.753 35.5871 194.271 35.016ZM192.293 30.0305C192.293 30.5344 192.413 30.998 192.691 31.5154C193.899 30.9241 194.51 30.3262 194.51 29.4393C194.51 28.9017 194.284 28.3642 193.614 28.3642C192.877 28.3642 192.287 29.0697 192.287 30.0238L192.293 30.0305Z" fill="white"/>
<path d="M201.612 33.3884L200.112 36.2843H199.555L203.902 28.0469H204.433L205.667 36.2843H205.136L204.705 33.3884H201.612ZM204.632 32.9114L204.22 30.1566C204.167 29.74 204.094 29.1757 204.054 28.6986H204.028C203.809 29.1824 203.616 29.6191 203.357 30.1297L201.891 32.9047H204.638L204.632 32.9114Z" fill="white"/>
<path d="M207.43 35.5881C207.668 35.7561 208.087 35.9241 208.511 35.9241C209.301 35.9241 209.845 35.3597 209.845 34.7012C209.845 34.1368 209.633 33.7942 208.989 33.4112C208.319 33.008 208.053 32.4772 208.053 31.9532C208.053 31.0461 208.823 30.2734 209.872 30.2734C210.303 30.2734 210.728 30.4145 210.9 30.5556L210.701 31.026C210.529 30.905 210.19 30.7505 209.799 30.7505C209.095 30.7505 208.591 31.2477 208.591 31.8658C208.591 32.4168 208.896 32.7124 209.447 33.0484C210.104 33.4448 210.396 33.989 210.396 34.5534C210.396 35.7158 209.494 36.4011 208.465 36.4011C207.907 36.4011 207.443 36.2062 207.23 36.0316L207.43 35.5814V35.5881Z" fill="white"/>
<path d="M212.211 35.5881C212.45 35.7561 212.868 35.9241 213.293 35.9241C214.082 35.9241 214.627 35.3597 214.627 34.7012C214.627 34.1368 214.414 33.7942 213.77 33.4112C213.1 33.008 212.835 32.4772 212.835 31.9532C212.835 31.0461 213.604 30.2734 214.653 30.2734C215.084 30.2734 215.509 30.4145 215.682 30.5556L215.483 31.026C215.31 30.905 214.972 30.7505 214.58 30.7505C213.877 30.7505 213.372 31.2477 213.372 31.8658C213.372 32.4168 213.677 32.7124 214.228 33.0484C214.885 33.4448 215.177 33.989 215.177 34.5534C215.177 35.7158 214.275 36.4011 213.246 36.4011C212.689 36.4011 212.224 36.2062 212.012 36.0316L212.211 35.5814V35.5881Z" fill="white"/>
<path d="M222.262 32.7337C222.262 34.3395 221.107 36.4156 219.196 36.4156C217.755 36.4156 217.059 35.2465 217.059 34.017C217.059 32.1357 218.339 30.2812 220.118 30.2812C221.684 30.2812 222.268 31.5511 222.268 32.7337H222.262ZM217.616 33.9699C217.616 35.092 218.253 35.9386 219.269 35.9386C220.589 35.9386 221.704 34.3126 221.704 32.7135C221.704 31.9408 221.339 30.7449 220.078 30.7449C218.658 30.7449 217.616 32.3507 217.616 33.9699Z" fill="white"/>
<path d="M227.514 36.0181C227.262 36.1458 226.651 36.4078 225.808 36.4078C224.275 36.4078 223.711 35.2992 223.711 34.2242C223.711 32.269 225.118 30.2734 227.122 30.2734C227.693 30.2734 228.224 30.475 228.343 30.5825L228.144 31.0528C227.899 30.9252 227.527 30.7841 227.036 30.7841C225.35 30.7841 224.268 32.578 224.268 34.1368C224.268 35.1783 224.753 35.9308 225.901 35.9308C226.551 35.9308 227.062 35.709 227.361 35.5545L227.507 36.0248L227.514 36.0181Z" fill="white"/>
<path d="M229.332 36.2836L230.44 30.418H230.985L229.876 36.2836H229.332ZM230.586 28.7316C230.586 28.4628 230.779 28.2344 231.038 28.2344C231.296 28.2344 231.462 28.4561 231.462 28.7316C231.442 28.9936 231.283 29.2221 230.998 29.2221C230.732 29.2221 230.58 28.9869 230.586 28.7316Z" fill="white"/>
<path d="M236.293 36.2813C236.28 35.9184 236.353 35.2734 236.459 34.541H236.432C235.749 35.9117 234.913 36.4156 234.003 36.4156C232.981 36.4156 232.391 35.5825 232.391 34.541C232.391 32.4515 233.997 30.2812 236.306 30.2812C236.777 30.2812 237.302 30.3484 237.647 30.4559L237.069 33.5063C236.844 34.6956 236.784 35.6765 236.817 36.2745H236.293V36.2813ZM237.03 30.8591C236.884 30.8053 236.638 30.7583 236.2 30.7583C234.448 30.7583 232.961 32.4716 232.948 34.447C232.948 35.1525 233.167 35.9453 234.116 35.9453C235.151 35.9453 236.339 34.5343 236.645 32.8949L237.023 30.8658L237.03 30.8591Z" fill="white"/>
<path d="M241.262 28.875L240.964 30.4136H242.443L242.351 30.8705H240.871L240.247 34.2636C240.174 34.6533 240.121 34.9556 240.121 35.3184C240.121 35.7081 240.313 35.9366 240.705 35.9366C240.904 35.9366 241.056 35.9164 241.176 35.8761L241.222 36.3196C241.076 36.38 240.844 36.4136 240.605 36.4136C239.822 36.4136 239.57 35.8694 239.57 35.352C239.57 34.9959 239.616 34.6533 239.703 34.2434L240.34 30.8705H239.457L239.55 30.4136H240.439L240.691 29.0363L241.275 28.875H241.262Z" fill="white"/>
<path d="M246.952 35.9453C246.66 36.1334 246.049 36.4089 245.193 36.4089C243.727 36.4089 243.176 35.2734 243.176 34.1245C243.176 32.3641 244.483 30.2812 246.209 30.2812C247.264 30.2812 247.709 30.9464 247.709 31.625C247.709 33.1973 245.817 33.5131 243.786 33.4862C243.707 33.7952 243.72 34.5209 243.859 34.924C244.098 35.5959 244.603 35.9251 245.266 35.9251C245.996 35.9251 246.494 35.6765 246.786 35.5019L246.952 35.9386V35.9453ZM246.109 30.7583C245.067 30.7583 244.191 31.8669 243.866 33.0226C245.578 33.0427 247.151 32.821 247.151 31.6653C247.151 31.0606 246.713 30.7583 246.109 30.7583Z" fill="white"/>
<path d="M248.844 35.5881C249.083 35.7561 249.501 35.9241 249.925 35.9241C250.715 35.9241 251.259 35.3597 251.259 34.7012C251.259 34.1368 251.047 33.7942 250.403 33.4112C249.733 33.008 249.467 32.4772 249.467 31.9532C249.467 31.0461 250.237 30.2734 251.286 30.2734C251.717 30.2734 252.142 30.4145 252.315 30.5556L252.115 31.026C251.943 30.905 251.604 30.7505 251.213 30.7505C250.509 30.7505 250.005 31.2477 250.005 31.8658C250.005 32.4168 250.31 32.7124 250.861 33.0484C251.518 33.4448 251.81 33.989 251.81 34.5534C251.81 35.7158 250.908 36.4011 249.879 36.4011C249.321 36.4011 248.857 36.2062 248.645 36.0316L248.844 35.5814V35.5881Z" fill="white"/>
</g>
<defs>
<clipPath id="clip0_4718_1669">
<rect width="288" height="42" fill="white"/>
</clipPath>
</defs>
</svg>
