<?xml version="1.0" encoding="utf-8"?>
<!-- Generator: Adobe Illustrator 27.0.0, SVG Export Plug-In . SVG Version: 6.00 Build 0)  -->
<svg version="1.1" id="Layer_1" xmlns="http://www.w3.org/2000/svg" xmlns:xlink="http://www.w3.org/1999/xlink" x="0px" y="0px"
	 viewBox="0 0 43 42" style="enable-background:new 0 0 43 42;" xml:space="preserve">
<style type="text/css">
	.st0{fill:#473B18;}
</style>
<g>
	<path class="st0" d="M23.5,30.9c-5.2,0-10.3,0-15.5,0c0,1.3,0,2.6,0,3.9c0,2.1,0,4.1,0,6.2c0,0.3-0.3,0.7-0.5,1
		C7.2,41.7,7,41.3,7,41c0-3.1,0-6.3,0-9.4c0-0.7-0.2-1.2-0.9-1.5c-1.3-0.6-2.6-1.3-3.8-2.1c-0.4-0.2-0.8-0.8-0.8-1.2
		c-0.1-3.1-0.1-3.1,3-3.1c8,0,16.1,0,24.1,0c1.1,0,1.3,0.3,1.5,1.4c0.2,1.9-0.4,3.1-2.3,3.8c-1.1,0.4-2.5,1-3.1,1.9
		c-0.5,0.9-0.2,2.3-0.2,3.5c0,2.3,0,4.5,0,6.8c0,0.3-0.3,0.6-0.5,1c-0.2-0.3-0.5-0.7-0.5-1C23.5,37.7,23.5,34.3,23.5,30.9z
		 M2.5,26.7c8.9,0,17.7,0,26.4,0c0-0.7,0-1.3,0-1.9c-8.8,0-17.6,0-26.4,0C2.5,25.5,2.5,26.1,2.5,26.7z M4.1,27.8
		c1.9,1.3,3.7,2.1,5.9,2c4.1-0.2,8.1-0.1,12.2,0c2,0.1,3.3-1.1,4.8-2C19.5,27.8,11.9,27.8,4.1,27.8z"/>
	<path class="st0" d="M32.9,34.8c0,1.9,0,3.8,0,5.7c0,0.3,0.1,0.6,0,0.9c-0.1,0.2-0.3,0.4-0.4,0.6c-0.2-0.2-0.5-0.4-0.5-0.6
		c0-2.2-0.1-4.4,0-6.7c0-0.8,0.6-1.1,1.4-1.1c1.5,0,3.1,0,4.6,0c1.8,0,2.7-0.9,2.7-2.7c0-3.3,0-6.6,0-9.9c0-0.6-0.2-1.3-0.6-1.7
		c-0.3-0.3-1.2-0.5-1.5-0.2c-3.8,2.6-8.3,2.5-12.5,3.3c-0.4,0.1-0.7,0.2-1.1,0.1c-0.3,0-0.6-0.3-0.8-0.4c0.2-0.2,0.4-0.5,0.7-0.5
		c1.6-0.3,3.2-0.5,4.7-0.7c1.2-0.2,2.5-0.2,3.7-0.6c1.6-0.5,3.2-1.1,4.5-2c1.8-1.2,4,0.5,4,2.2c0,3.7,0.1,7.3,0,11
		c0,1.8-1.4,3.1-3.3,3.1c-1.7,0-3.3,0-5,0C33.2,34.7,33.1,34.7,32.9,34.8z"/>
	<path class="st0" d="M25,0.1c0.8,0,1.6,0,2.4,0c2.3,0.1,4.1,1.8,4.1,4.1c0.1,1.7,0,3.4,0,5.1c0,1-0.4,1.2-1.1,0.5
		c-1.2-1-2.5-1.3-4-1.2c-1.3,0.1-2.6,0-3.9,0c-2.4-0.1-4.2-1.9-4.2-4.3c0-2.3,1.8-4.2,4.2-4.3C23.4,0,24.2,0.1,25,0.1z M30.6,8.8
		c0-1.7,0-3.1,0-4.4c-0.1-1.9-1.4-3.3-3.3-3.4C25.8,1,24.2,1,22.7,1c-1.9,0.1-3.3,1.5-3.3,3.3c0,1.8,1.4,3.2,3.4,3.3
		c1.2,0,2.5,0,3.7,0C27.8,7.7,29.3,7.4,30.6,8.8z"/>
	<path class="st0" d="M34.5,24.7c-1,0-1.9,0-2.7,0c-0.3,0-0.5-0.3-0.7-0.5c0.3-0.2,0.5-0.4,0.8-0.5c0,0,0.1,0,0.1,0
		c3.6-0.2,3.6-0.2,3.6,3.4c0,1,0.3,2.3-0.3,3c-0.5,0.6-1.8,0.6-2.8,0.9c-0.9,0.3-2.2,0.2-2.6,0.8c-0.5,0.6-0.2,1.9-0.2,2.8
		c0,2.1,0,4.2,0,6.3c0,0.4-0.3,0.7-0.5,1.1c-0.2-0.3-0.5-0.7-0.5-1c0-2.9,0-5.8,0-8.7c0-0.9,0.4-1.5,1.3-1.7c1.3-0.3,2.7-0.6,4-1
		c0.3-0.1,0.7-0.5,0.7-0.7C34.6,27.5,34.5,26.2,34.5,24.7z"/>
	<path class="st0" d="M15.7,15.2c-2.3,0-4.1-1.8-4-4.1c0-2.2,1.8-4,4.1-4c2.3,0,4.1,1.8,4,4.1C19.7,13.4,18,15.2,15.7,15.2z
		 M15.8,8.1c-1.7,0-3.1,1.3-3.1,2.9c-0.1,1.7,1.3,3.2,3,3.2c1.6,0,3.1-1.4,3.1-3C18.8,9.5,17.5,8.1,15.8,8.1z"/>
	<path class="st0" d="M39.2,13.8c0,2.2-1.8,4-4,4.1c-2.2,0-4.1-1.8-4.1-4.1c0-2.2,1.9-4.1,4.1-4.1C37.5,9.8,39.2,11.6,39.2,13.8z
		 M32.2,13.9c0,1.7,1.4,3,3.1,3c1.7,0,3.1-1.4,3.1-3.1c0-1.7-1.4-3.1-3.2-3.1C33.4,10.8,32.1,12.2,32.2,13.9z"/>
	<path class="st0" d="M15.8,16.2c1.1,0,2.1,0,3.2,0c2.3,0.1,4,1.7,4,4c0,0.6,0.1,1.2,0,1.7c0,0.2-0.3,0.4-0.5,0.7
		C22.3,22.4,22,22.2,22,22c-0.1-0.5,0-1.1,0-1.6c0-1.9-1.2-3.1-3-3.2c-2.1-0.1-4.3-0.1-6.4,0c-1.9,0.1-3,1.3-3.1,3.3
		c0,0.5,0,1.1,0,1.6c0,0.2-0.2,0.5-0.4,0.5c-0.2,0-0.5-0.2-0.5-0.4c-0.7-1.9,0.3-4.8,2.2-5.5c1-0.4,2.1-0.4,3.2-0.5
		C14.5,16.1,15.2,16.2,15.8,16.2C15.8,16.2,15.8,16.2,15.8,16.2z"/>
	<path class="st0" d="M11.9,21.1c0.2-0.4,0.5-0.9,0.7-1.3c0.2,0.5,0.3,1,0.5,1.5c0,0.1,0,0.2,0,0.3c-0.2,0.4-0.4,0.7-0.5,1.1
		c-0.2-0.4-0.3-0.8-0.5-1.2c0-0.1,0-0.2,0-0.3C12,21.1,12,21.1,11.9,21.1z"/>
	<path class="st0" d="M19.3,21.3c0,0.2,0.1,0.4,0,0.5c-0.1,0.3-0.3,0.5-0.5,0.8c-0.2-0.2-0.4-0.5-0.4-0.7c-0.1-0.5-0.1-1,0-1.5
		c0-0.2,0.3-0.5,0.5-0.7c0.2,0.2,0.4,0.5,0.4,0.7C19.4,20.7,19.3,21,19.3,21.3z"/>
	<path class="st0" d="M24.8,3.6c0.8,0,1.7,0,2.5,0c0.3,0,0.5-0.3,0.7-0.4c-0.2-0.2-0.4-0.5-0.7-0.5c-1.7,0-3.3,0-5,0
		c-0.2,0-0.5,0.3-0.7,0.5c0.2,0.1,0.5,0.4,0.7,0.4C23.2,3.6,24,3.6,24.8,3.6z M23.6,6C23.6,6,23.6,6,23.6,6C24,6,24.5,6,25,6
		c0.2,0,0.4-0.3,0.4-0.5c0-0.1-0.3-0.4-0.4-0.4c-0.9,0-1.9,0-2.8,0c-0.2,0-0.3,0.3-0.5,0.4C21.8,5.7,22,6,22.2,6
		C22.6,6.1,23.1,6,23.6,6z"/>
	<path class="st0" d="M24.8,3.6c-0.8,0-1.6,0-2.4,0c-0.3,0-0.5-0.3-0.7-0.4c0.2-0.2,0.5-0.5,0.7-0.5c1.7,0,3.3,0,5,0
		c0.2,0,0.5,0.3,0.7,0.5c-0.2,0.1-0.5,0.4-0.7,0.4C26.5,3.6,25.6,3.6,24.8,3.6z"/>
	<path class="st0" d="M23.6,6c-0.5,0-0.9,0-1.4,0c-0.2,0-0.3-0.3-0.5-0.4c0.2-0.2,0.3-0.4,0.5-0.4c0.9,0,1.9,0,2.8,0
		c0.1,0,0.4,0.3,0.4,0.4C25.3,5.7,25.1,6,25,6C24.5,6,24,6,23.6,6C23.6,6,23.6,6,23.6,6z"/>
</g>
</svg>
