<svg width="42" height="42" viewBox="0 0 42 42" fill="none" xmlns="http://www.w3.org/2000/svg">
<path d="M24.4816 32.295C18.814 32.295 13.2554 32.295 7.58782 32.295C7.58782 33.6537 7.58782 35.0125 7.58782 36.3712C7.58782 38.5662 7.58782 40.6566 7.58782 42.8515C7.58782 43.165 7.26085 43.5831 7.04286 43.8967C6.71589 43.5831 6.4979 43.165 6.4979 42.8515C6.4979 39.6114 6.4979 36.2667 6.4979 33.0266C6.4979 32.295 6.27992 31.7724 5.51697 31.4588C4.10007 30.8317 2.68317 30.1 1.37526 29.2639C0.939289 29.0548 0.50332 28.4277 0.50332 28.0096C0.394327 24.7695 0.394327 24.7695 3.77309 24.7695C12.4925 24.7695 21.3209 24.7695 30.0403 24.7695C31.2392 24.7695 31.4572 25.0831 31.6751 26.2328C31.8931 28.2187 31.2392 29.4729 29.1683 30.2046C27.9694 30.6226 26.4435 31.2498 25.7896 32.1904C25.2446 33.1311 25.5716 34.5944 25.5716 35.8486C25.5716 38.2526 25.5716 40.552 25.5716 42.956C25.5716 43.2695 25.2446 43.5831 25.0266 44.0012C24.8086 43.6876 24.4816 43.2695 24.4816 42.956C24.4816 39.4023 24.4816 35.8486 24.4816 32.295ZM1.59324 27.9051C11.2936 27.9051 20.8849 27.9051 30.3672 27.9051C30.3672 27.1735 30.3672 26.5464 30.3672 25.9192C20.7759 25.9192 11.1846 25.9192 1.59324 25.9192C1.59324 26.6509 1.59324 27.278 1.59324 27.9051ZM3.33712 29.0548C5.40798 30.4136 7.36984 31.2498 9.76767 31.1452C14.2364 30.9362 18.5961 31.0407 23.0647 31.1452C25.2446 31.2498 26.6615 29.9955 28.2964 29.0548C20.1219 29.0548 11.8385 29.0548 3.33712 29.0548Z" fill="#473B18"/>
<path d="M34.7245 36.3781C34.7245 38.364 34.7245 40.3499 34.7245 42.3358C34.7245 42.6493 34.8335 42.9629 34.7245 43.2764C34.6155 43.4855 34.3975 43.6945 34.2886 43.9036C34.0706 43.6945 33.7436 43.4855 33.7436 43.2764C33.7436 40.977 33.6346 38.6776 33.7436 36.2736C33.7436 35.4374 34.3975 35.1239 35.2695 35.1239C36.9044 35.1239 38.6483 35.1239 40.2831 35.1239C42.245 35.1239 43.2259 34.1832 43.2259 32.3018C43.2259 28.8527 43.2259 25.4035 43.2259 21.9544C43.2259 21.3273 43.0079 20.5956 42.572 20.1775C42.245 19.864 41.2641 19.6549 40.9371 19.9685C36.7954 22.686 31.8907 22.5815 27.313 23.4177C26.8771 23.5222 26.5501 23.6267 26.1141 23.5222C25.7871 23.5222 25.4602 23.2086 25.2422 23.1041C25.4602 22.8951 25.6782 22.5815 26.0051 22.5815C27.749 22.2679 29.4929 22.0589 31.1278 21.8499C32.4357 21.6408 33.8526 21.6408 35.1605 21.2227C36.9044 20.7001 38.6482 20.073 40.0652 19.1323C42.027 17.8781 44.4248 19.6549 44.4248 21.4318C44.4248 25.299 44.5338 29.0617 44.4248 32.929C44.4248 34.8103 42.899 36.1691 40.8281 36.1691C38.9752 36.1691 37.2313 36.1691 35.3785 36.1691C35.0515 36.2736 34.9425 36.2736 34.7245 36.3781Z" fill="#473B18"/>
<path d="M26.115 0.10452C26.9869 0.10452 27.8589 0.10452 28.7308 0.10452C31.2376 0.20904 33.1995 1.98588 33.1995 4.38983C33.3085 6.16667 33.1995 7.94351 33.1995 9.72035C33.1995 10.7655 32.7635 10.9746 32.0006 10.2429C30.6927 9.19775 29.2758 8.88419 27.6409 8.98871C26.224 9.09323 24.8071 8.98871 23.3902 8.98871C20.7744 8.88419 18.8125 7.00283 18.8125 4.49436C18.8125 2.0904 20.7744 0.10452 23.3902 0C24.3711 0 25.2431 0.10452 26.115 0.10452ZM32.2186 9.19775C32.2186 7.42091 32.2186 5.95763 32.2186 4.59887C32.1096 2.613 30.6927 1.14972 28.6218 1.0452C26.9869 1.0452 25.2431 1.0452 23.6082 1.0452C21.5373 1.14972 20.0114 2.613 20.0114 4.49436C20.0114 6.37571 21.5373 7.83899 23.7172 7.94351C25.0251 7.94351 26.442 7.94351 27.7499 7.94351C29.1668 8.04803 30.8017 7.73447 32.2186 9.19775Z" fill="#473B18"/>
<path d="M36.47 25.8166C35.3801 25.8166 34.3991 25.8166 33.5272 25.8166C33.2002 25.8166 32.9822 25.503 32.7643 25.294C33.0912 25.0849 33.3092 24.8759 33.6362 24.7714H33.7452C37.6689 24.5623 37.6689 24.5623 37.6689 28.325C37.6689 29.3702 37.9959 30.729 37.3419 31.4606C36.797 32.0878 35.3801 32.0877 34.2901 32.4013C33.3092 32.7149 31.8923 32.6103 31.4563 33.2375C30.9114 33.8646 31.2384 35.2233 31.2384 36.164C31.2384 38.3589 31.2384 40.5539 31.2384 42.7488C31.2384 43.1669 30.9114 43.4804 30.6934 43.8985C30.4754 43.5849 30.1484 43.1669 30.1484 42.8533C30.1484 39.8222 30.1484 36.7911 30.1484 33.7601C30.1484 32.8194 30.5844 32.1923 31.5653 31.9832C32.9822 31.6697 34.5081 31.3561 35.925 30.938C36.252 30.8335 36.688 30.4154 36.688 30.2064C36.579 28.7431 36.47 27.3844 36.47 25.8166Z" fill="#473B18"/>
<path d="M15.9773 15.888C13.4705 15.888 11.5086 14.0066 11.6176 11.6027C11.6176 9.30323 13.5795 7.42188 16.0863 7.42188C18.5931 7.42188 20.555 9.30323 20.446 11.7072C20.337 14.0066 18.4841 15.888 15.9773 15.888ZM16.0863 8.46707C14.2334 8.46707 12.7075 9.82583 12.7075 11.4982C12.5985 13.275 14.1244 14.8428 15.9773 14.8428C17.7212 14.8428 19.3561 13.3795 19.3561 11.7072C19.3561 9.93035 17.9392 8.46707 16.0863 8.46707Z" fill="#473B18"/>
<path d="M41.594 14.422C41.594 16.7215 39.6321 18.6028 37.2343 18.7073C34.8365 18.7073 32.7656 16.826 32.7656 14.422C32.7656 12.1226 34.8365 10.1367 37.2343 10.1367C39.7411 10.2412 41.594 12.1226 41.594 14.422ZM33.9645 14.5266C33.9645 16.3034 35.4904 17.6621 37.3433 17.6621C39.1962 17.6621 40.7221 16.1989 40.7221 14.422C40.7221 12.6452 39.1962 11.1819 37.2343 11.1819C35.2725 11.2864 33.8555 12.7497 33.9645 14.5266Z" fill="#473B18"/>
<path d="M16.0913 16.9332C17.2902 16.9332 18.3801 16.9332 19.579 16.9332C22.0859 17.0377 23.9387 18.71 23.9387 21.114C23.9387 21.7411 24.0477 22.3682 23.9387 22.8908C23.9387 23.0998 23.6118 23.3089 23.3938 23.6224C23.1758 23.4134 22.8488 23.2044 22.8488 22.9953C22.7398 22.4727 22.8488 21.8456 22.8488 21.323C22.8488 19.3371 21.5409 18.0829 19.579 17.9784C17.2902 17.8739 14.8924 17.8739 12.6035 17.9784C10.5327 18.0829 9.33376 19.3371 9.22477 21.4275C9.22477 21.9501 9.22477 22.5772 9.22477 23.0998C9.22477 23.3089 9.00679 23.6224 8.7888 23.6224C8.57082 23.6224 8.24384 23.4134 8.24384 23.2044C7.48089 21.2185 8.57082 18.1874 10.6417 17.4558C11.7316 17.0377 12.9305 17.0377 14.1294 16.9332C14.6744 16.8287 15.4373 16.9332 16.0913 16.9332Z" fill="#473B18"/>
<path d="M11.8398 22.0541C12.0578 21.636 12.3848 21.1134 12.6028 20.6953C12.8208 21.2179 12.9298 21.7405 13.1478 22.2631C13.1478 22.3676 13.1478 22.4722 13.1478 22.5767C12.9298 22.9948 12.7118 23.3083 12.6028 23.7264C12.3848 23.3083 12.2758 22.8902 12.0578 22.4722C12.0578 22.3676 12.0578 22.2631 12.0578 22.1586C11.9488 22.0541 11.9488 22.0541 11.8398 22.0541Z" fill="#473B18"/>
<path d="M19.9025 22.2622C19.9025 22.4712 20.0115 22.6802 19.9025 22.7848C19.7935 23.0983 19.5755 23.3074 19.3576 23.6209C19.1396 23.4119 18.9216 23.0983 18.9216 22.8893C18.8126 22.3667 18.8126 21.8441 18.9216 21.3215C18.9216 21.1124 19.2486 20.7989 19.4666 20.5898C19.6845 20.7989 19.9025 21.1124 19.9025 21.3215C20.0115 21.635 19.9025 21.9486 19.9025 22.2622Z" fill="#473B18"/>
<path d="M25.8979 3.7649C26.7699 3.7649 27.7508 3.7649 28.6227 3.7649C28.9497 3.7649 29.1677 3.45134 29.3857 3.34682C29.1677 3.13778 28.9497 2.82422 28.6227 2.82422C26.7699 2.82422 25.026 2.82422 23.1731 2.82422C22.9551 2.82422 22.6281 3.13778 22.4102 3.34682C22.6281 3.45134 22.9551 3.7649 23.1731 3.7649C24.154 3.7649 25.026 3.7649 25.8979 3.7649ZM24.59 6.27337C25.026 6.27337 25.5709 6.27337 26.1159 6.27337C26.3339 6.27337 26.5519 5.95982 26.5519 5.75078C26.5519 5.64626 26.2249 5.3327 26.1159 5.3327C25.135 5.3327 24.045 5.3327 23.0641 5.3327C22.8461 5.3327 22.7371 5.64626 22.5191 5.75078C22.6281 5.95982 22.8461 6.27337 23.0641 6.27337C23.5001 6.37789 24.045 6.27337 24.59 6.27337Z" fill="#473B18"/>
<path d="M25.8944 3.7649C25.0224 3.7649 24.1505 3.7649 23.2786 3.7649C22.9516 3.7649 22.7336 3.45134 22.5156 3.34682C22.7336 3.13778 23.0606 2.82422 23.2786 2.82422C25.1314 2.82422 26.8753 2.82422 28.7282 2.82422C28.9462 2.82422 29.2732 3.13778 29.4911 3.34682C29.2732 3.45134 28.9462 3.7649 28.7282 3.7649C27.7473 3.7649 26.7663 3.7649 25.8944 3.7649Z" fill="#473B18"/>
<path d="M24.5865 6.27366C24.0415 6.27366 23.6055 6.27366 23.0606 6.27366C22.8426 6.27366 22.7336 5.9601 22.5156 5.85558C22.7336 5.64654 22.8426 5.4375 23.0606 5.4375C24.0415 5.4375 25.1314 5.4375 26.1124 5.4375C26.2214 5.4375 26.5483 5.75106 26.5483 5.85558C26.4393 5.9601 26.2214 6.27366 26.1124 6.27366C25.5674 6.27366 25.0224 6.27366 24.5865 6.27366Z" fill="#473B18"/>
</svg>
