<svg width="39" height="44" viewBox="0 0 39 44" fill="none" xmlns="http://www.w3.org/2000/svg">
<g clip-path="url(#clip0_530_102)">
<path d="M16.3685 40.8864H15.7863C13.5122 40.8864 13.2376 40.5552 13.2376 38.2365C13.2376 36.238 13.2376 34.2395 13.2376 32.241C13.2599 31.9874 13.2045 31.733 13.0788 31.5119C12.9531 31.2909 12.7632 31.1138 12.5345 31.0044C10.0784 29.4916 8.17776 27.2179 7.11863 24.5255C6.05949 21.8332 5.89922 18.868 6.66186 16.0761C7.42451 13.2843 9.06875 10.817 11.3472 9.04567C13.6257 7.27432 16.4151 6.29477 19.2954 6.25447C22.1757 6.21417 24.9911 7.1153 27.3177 8.82222C29.6444 10.5291 31.3564 12.9495 32.1961 15.7189C33.0357 18.4883 32.9576 21.4569 31.9735 24.1778C30.9893 26.8987 29.1524 29.2247 26.7392 30.8056C26.4019 30.9764 26.1244 31.2465 25.9438 31.5799C25.7632 31.9133 25.6882 32.2942 25.7286 32.6716C25.7945 34.6701 25.7286 36.6686 25.7286 38.6671C25.7286 40.4116 25.2672 40.8754 23.5314 40.8754H22.5866C22.5866 41.3943 22.5866 41.8029 22.5866 42.2224C22.6161 42.4698 22.5886 42.7207 22.5062 42.9556C22.4237 43.1906 22.2885 43.4033 22.1111 43.5773C21.9337 43.7514 21.7189 43.882 21.4832 43.9591C21.2475 44.0363 20.9973 44.0579 20.7519 44.0222H18.2141C16.8848 44.0222 16.3465 43.448 16.3246 42.0899C16.3575 41.7035 16.3685 41.3391 16.3685 40.8864ZM24.1905 32.9366C24.2071 32.6792 24.2071 32.4211 24.1905 32.1637C24.0927 31.6405 24.1796 31.0994 24.4363 30.6338C24.6931 30.1681 25.1035 29.8072 25.5967 29.6131C27.5899 28.4293 29.1809 26.6679 30.161 24.5597C31.1412 22.4516 31.4649 20.095 31.0897 17.7988C30.6881 15.2139 29.4426 12.8366 27.5493 11.0411C25.656 9.24558 23.2224 8.13386 20.6315 7.88093C18.0406 7.62799 15.4396 8.2482 13.2379 9.64392C11.0361 11.0396 9.35863 13.1316 8.46961 15.5906C7.5571 18.0362 7.49474 20.7202 8.29259 23.206C9.09043 25.6918 10.7015 27.8332 12.864 29.2819C14.2921 30.1983 15.1271 31.0927 14.8305 32.8152C14.8305 32.8152 14.9074 32.9145 14.9403 32.9587H18.6206C19.0271 30.0106 18.9172 29.6463 16.9727 27.6478C16.9279 27.5972 16.8802 27.5493 16.8299 27.5042C16.4124 27.1067 16.1269 26.6761 16.6432 26.1682C17.1595 25.6603 17.5441 25.9695 17.9066 26.367C18.401 26.9301 18.8733 27.4711 19.4665 28.1998C20.0533 27.4904 20.6806 26.8157 21.3452 26.1793C21.4947 26.0898 21.6655 26.0426 21.8395 26.0426C22.0135 26.0426 22.1843 26.0898 22.3338 26.1793C22.4206 26.3303 22.4663 26.5017 22.4663 26.6761C22.4663 26.8506 22.4206 27.0219 22.3338 27.173C21.8614 27.7913 21.2353 28.2771 20.7189 28.8734C20.4886 29.0898 20.3279 29.3705 20.2575 29.6794C20.2575 30.7835 20.2575 31.8214 20.2575 32.9256L24.1905 32.9366ZM14.8415 36.0503H24.1465V34.6149H14.8305L14.8415 36.0503ZM24.1575 37.7617H14.8305V39.2192H24.1465L24.1575 37.7617ZM17.9615 42.3439H21.0156V40.9085H17.9615V42.3439Z" fill="#B34C50"/>
<path d="M20.3244 2.28546C20.3741 2.8032 20.3741 3.32455 20.3244 3.84229C20.2475 4.15145 19.8629 4.37228 19.6212 4.63727C19.3466 4.37228 18.8633 4.12937 18.8413 3.84229C18.7534 2.80259 18.7534 1.75728 18.8413 0.71758C18.8413 0.441545 19.3466 -0.044279 19.5334 -0.000113352C19.7122 0.0519294 19.8766 0.144774 20.0138 0.271179C20.151 0.397584 20.2573 0.554129 20.3244 0.728615C20.3962 1.24505 20.3962 1.76902 20.3244 2.28546Z" fill="#B34C50"/>
<path d="M2.23017 20.3715C1.71563 20.4327 1.19566 20.4327 0.681121 20.3715C0.51855 20.3124 0.372081 20.2157 0.253727 20.0891C0.135374 19.9624 0.0484831 19.8095 0 19.6428C0.0339116 19.4702 0.112841 19.3097 0.22865 19.1778C0.344458 19.0459 0.492966 18.9473 0.659128 18.8919C1.72662 18.8036 2.79957 18.8036 3.86706 18.8919C4.03537 18.944 4.18692 19.0399 4.30653 19.1698C4.42613 19.2997 4.50954 19.459 4.54818 19.6317C4.54818 19.8857 4.16369 20.3052 3.87806 20.3715C3.33044 20.4324 2.7778 20.4324 2.23017 20.3715Z" fill="#B34C50"/>
<path d="M36.6826 20.3715C36.168 20.4327 35.6481 20.4327 35.1335 20.3715C34.9661 20.3191 34.8147 20.2247 34.6937 20.0972C34.5726 19.9697 34.4857 19.8133 34.4414 19.6428C34.4784 19.4698 34.5598 19.3095 34.6773 19.1779C34.7948 19.0462 34.9444 18.9476 35.1115 18.8919C36.179 18.8036 37.252 18.8036 38.3195 18.8919C38.4878 18.944 38.6393 19.0399 38.7589 19.1698C38.8785 19.2997 38.9619 19.459 39.0006 19.6317C38.9547 19.7993 38.8702 19.9537 38.7537 20.0823C38.6372 20.2108 38.4922 20.3099 38.3305 20.3715C37.7828 20.4324 37.2302 20.4324 36.6826 20.3715Z" fill="#B34C50"/>
<path d="M9.22906 8.60127C9.10821 8.76689 8.97635 9.07605 8.78959 9.12022C8.64275 9.16249 8.48872 9.17353 8.33739 9.15262C8.18606 9.1317 8.04071 9.0793 7.91067 8.99876C7.10753 8.28731 6.35162 7.52382 5.64764 6.71319C5.56878 6.56948 5.52734 6.40804 5.52734 6.24393C5.52734 6.07981 5.56878 5.91837 5.64764 5.77466C5.76995 5.66976 5.91707 5.59837 6.0749 5.56742C6.23272 5.53647 6.39584 5.54701 6.54842 5.59801C7.4273 6.35986 8.2403 7.21005 9.06424 8.0492C9.16311 8.14857 9.16314 8.35836 9.22906 8.60127Z" fill="#B34C50"/>
<path d="M30.4412 9.27482C30.2874 9.15336 29.9799 9.03191 29.9249 8.84421C29.8813 8.69737 29.8685 8.543 29.8874 8.39092C29.9063 8.23885 29.9565 8.0924 30.0348 7.96089C30.7454 7.15284 31.5049 6.38954 32.3089 5.67532C32.4512 5.59401 32.6121 5.55127 32.7758 5.55127C32.9395 5.55127 33.1004 5.59401 33.2427 5.67532C33.4405 5.8299 33.5722 6.42613 33.4404 6.56967C32.6384 7.47507 31.7706 8.30317 30.9137 9.14232C30.8368 9.23065 30.672 9.21961 30.4412 9.27482Z" fill="#B34C50"/>
<path d="M9.16201 30.5626C9.16201 31.2251 6.69023 33.7977 6.19586 33.7205C6.0588 33.6967 5.92868 33.6428 5.81474 33.5626C5.70079 33.4825 5.60587 33.378 5.53674 33.2567C5.49133 33.1267 5.47752 32.9877 5.49664 32.8513C5.51575 32.7149 5.56721 32.5851 5.64657 32.4728C6.35917 31.6738 7.11459 30.9144 7.9096 30.1982C8.04124 30.1214 8.18744 30.0729 8.33873 30.0557C8.49003 30.0386 8.64317 30.0533 8.78852 30.0989C8.97528 30.1541 9.09609 30.4632 9.16201 30.5626Z" fill="#B34C50"/>
<path d="M30.5308 29.8779C30.7646 29.9763 30.9859 30.1023 31.19 30.2533C31.9122 30.911 32.5945 31.6116 33.2333 32.3512C33.34 32.5132 33.4023 32.7005 33.4138 32.8944C33.4254 33.0882 33.3859 33.2817 33.2993 33.4554C33.0027 33.9301 32.5303 33.8197 32.2007 33.4554C31.5086 32.7597 30.7944 32.0862 30.1462 31.3575C30.0568 31.2309 29.9949 31.0869 29.9647 30.9347C29.9344 30.7825 29.9364 30.6255 29.9706 30.4742C29.9815 30.2202 30.3111 30.0767 30.5308 29.8779Z" fill="#B34C50"/>
</g>
<defs>
<clipPath id="clip0_530_102">
<rect width="39" height="44" fill="white"/>
</clipPath>
</defs>
</svg>
