<svg width="38" height="47" viewBox="0 0 38 47" fill="none" xmlns="http://www.w3.org/2000/svg">
<g clip-path="url(#clip0_530_70)">
<path d="M34.267 0C34.3809 0.453317 34.5863 0.902948 34.5938 1.35872C34.7726 7.80835 34.9258 14.258 35.0865 20.7088C35.0929 20.9545 35.11 21.2002 35.1312 21.6093C35.674 21.2789 36.1487 20.9951 36.6212 20.7002C37.5791 20.1093 37.9899 20.3796 37.9909 21.6597C37.998 28.0823 37.998 34.5049 37.9909 40.9275C37.9909 42.5491 37.976 44.1695 37.9909 45.7912C38.0016 46.6327 37.7142 47.0012 36.9543 47C24.9784 46.9869 13.0024 46.9869 1.02649 47C0.263406 47 -0.00692052 46.6229 -0.00585625 45.785C0.00478652 40.3419 0.00478652 34.898 -0.00585625 29.4533C-0.00585625 28.7543 0.231478 28.3477 0.760423 28.0123C4.56415 25.602 8.35297 23.156 12.1482 20.7285C13.1539 20.0848 13.5701 20.36 13.5743 21.6757C13.5807 23.6007 13.5743 25.5258 13.5743 27.5983C13.9032 27.4066 14.1554 27.2727 14.3981 27.1167C17.6824 25.0102 20.9664 22.9021 24.2501 20.7924C25.4016 20.0553 25.7848 20.3096 25.788 21.817C25.788 23.699 25.788 25.5823 25.788 27.6241C26.4872 27.1794 27.08 26.8526 27.6185 26.4312C27.7835 26.3022 27.8665 25.9189 27.8739 25.6474C28.0506 18.8317 28.2184 12.0147 28.3773 5.19656C28.4093 3.84521 28.4284 2.50491 28.5061 1.16339C28.5295 0.769042 28.7317 0.386978 28.8509 0H34.267ZM12.9081 45.3612C12.9081 44.0344 12.9081 42.7813 12.9081 41.5369C12.9081 40.0111 12.9613 39.9545 14.3151 39.9533H16.7001C19.1384 39.9533 21.5755 39.9533 24.0138 39.9533C24.9482 39.9533 25.0834 40.1192 25.1015 41.1671C25.1089 41.6265 25.1015 42.0848 25.1015 42.5442C25.1015 43.4767 25.1015 44.4091 25.1015 45.3587H36.5957V22.5442C36.2679 22.742 36.0114 22.8882 35.7613 23.0479C32.472 25.1536 29.1844 27.258 25.8986 29.3612C24.8109 30.0577 24.4225 29.7813 24.4193 28.3231C24.4193 26.6413 24.4193 24.9582 24.4193 23.2764C24.4193 23.0565 24.381 22.8366 24.3533 22.5307L18.719 26.1376C17.029 27.2199 15.3421 28.3071 13.6499 29.3833C12.6058 30.0479 12.2131 29.769 12.2057 28.3686C12.2003 27.328 12.2057 26.2887 12.2057 25.2482V22.5319C11.98 22.6548 11.8864 22.6978 11.798 22.7543C8.46579 24.8882 5.13886 27.0356 1.79384 29.1425C1.37345 29.4079 1.35323 29.7432 1.35323 30.183C1.35819 34.9865 1.35819 39.7891 1.35323 44.5909C1.35323 44.8292 1.37664 45.0676 1.39154 45.36L12.9081 45.3612ZM29.2543 25.4189C30.6176 24.5442 31.8437 23.7199 33.1027 22.9705C33.6136 22.6658 33.8105 22.328 33.7902 21.6388C33.6434 16.8477 33.5412 12.0479 33.4199 7.25184C33.3986 6.43489 33.3507 5.61916 33.3135 4.78378H29.7556C29.5885 11.6536 29.4235 18.4533 29.2543 25.4189ZM18.2635 45.3636V41.5762H14.3097V45.3636H18.2635ZM23.7158 41.5786H19.7131V45.355H23.7158V41.5786ZM29.8535 3.07862H33.4784C33.2656 2.49263 33.1347 1.67445 32.9229 1.64496C31.9235 1.50614 30.9007 1.58231 29.8535 1.58231V3.07862Z" fill="#648972"/>
<path d="M6.84086 36.0123C6.0203 36.0123 5.19975 35.9902 4.38025 36.0197C3.65974 36.0443 3.37558 35.6696 3.40431 34.8563C3.43305 34.043 3.4224 33.2076 3.40431 32.3821C3.3926 31.7089 3.63313 31.3428 4.23977 31.3428C5.93303 31.3428 7.62736 31.3489 9.32063 31.3428C9.93259 31.3428 10.1806 31.7113 10.1838 32.3649C10.1838 33.2506 10.1838 34.1364 10.1838 35.0221C10.1838 35.688 9.90598 36.0332 9.30147 36.0197C8.47665 35.9951 7.6561 36.0123 6.84086 36.0123ZM4.79106 34.4042H8.75656V32.93H4.79106V34.4042Z" fill="#648972"/>
<path d="M31.1662 36.0124C30.3457 36.0124 29.5251 35.9989 28.7045 36.0124C28.1 36.0259 27.8265 35.6807 27.8212 35.0161C27.8148 34.1291 27.8212 33.2433 27.8212 32.3576C27.8212 31.7003 28.0724 31.3318 28.6833 31.3355C30.3776 31.3453 32.0709 31.3355 33.7652 31.3355C34.3133 31.3355 34.6006 31.6328 34.5974 32.2839C34.5921 33.2003 34.5889 34.1168 34.5974 35.0333C34.6038 35.7397 34.2867 36.0161 33.7066 36.0075C32.8595 36.0038 32.0123 36.0124 31.1662 36.0124ZM29.2133 34.4153H33.1969V32.9473H29.2133V34.4153Z" fill="#648972"/>
<path d="M18.9305 36.0123C18.1365 36.0123 17.3437 35.9976 16.5497 36.0123C15.9282 36.0283 15.6078 35.7322 15.6174 34.989C15.6291 34.1045 15.6248 33.2187 15.6174 32.333C15.6174 31.7101 15.8377 31.3416 16.4092 31.3403H21.5667C22.1286 31.3403 22.3809 31.6769 22.3777 32.3121C22.3777 33.2273 22.3777 34.1438 22.3777 35.059C22.3777 35.6991 22.1042 36.0123 21.5475 36.0086C20.6759 36.0074 19.8032 36.0111 18.9305 36.0123ZM16.9861 34.4054H20.9835V32.9448H16.9861V34.4054Z" fill="#648972"/>
</g>
<defs>
<clipPath id="clip0_530_70">
<rect width="38" height="47" fill="white"/>
</clipPath>
</defs>
</svg>
