<svg width="38" height="38" viewBox="0 0 38 38" fill="none" xmlns="http://www.w3.org/2000/svg">
<g clip-path="url(#clip0_4117_2244)">
<path d="M36.2877 27.1404C35.2523 27.1099 35.0885 26.3299 35.7882 25.5498L35.681 25.4137C35.5718 25.1233 35.6385 24.782 35.8792 24.3859C36.2614 22.0539 36.3281 19.6834 36.0774 17.2742C35.5334 15.6187 34.8195 14.0261 33.9378 12.5006L34.0632 12.3097C33.8913 12.0517 33.7235 11.9847 33.5577 12.1065C33.6426 12.399 33.2199 12.5534 33.0521 12.3097C32.591 12.6591 32.3767 12.9292 32.2432 13.5285C32.4232 13.6503 32.5 13.8636 32.4758 14.1643C32.8398 15.3201 33.1148 16.484 33.3008 17.6581C35.0319 19.0313 35.4161 20.6869 34.2392 22.6268C33.8408 23.2829 30.9995 26.2669 30.4009 26.3928C28.5223 26.7869 28.9126 24.6195 30.0673 23.9024L32.2472 21.9077C33.8165 20.7011 32.407 18.4341 30.7508 19.5209L24.585 25.6717L24.3564 25.6148C24.1542 25.5173 24.1744 25.3406 24.4191 25.0826L26.8074 22.773C26.411 22.0133 26.8923 21.0403 27.683 21.8325L30.1967 19.3076C29.4808 18.5621 30.0086 18.4097 30.7285 18.2777C31.0804 17.7617 30.9146 17.6805 30.227 18.0319L30.0187 17.8958C30.403 17.5485 30.9348 17.4489 31.4343 17.4895C31.2058 15.446 29.8003 13.6361 31.2907 11.7084C32.0733 10.6968 34.2836 9.58566 35.2199 10.9934C35.8307 12.6022 36.9227 14.2049 37.5192 15.7934C38.0794 17.2824 38.0612 21.93 37.8913 23.6221C37.7437 25.105 37.133 26.0231 36.2857 27.1383L36.2877 27.1404Z" fill="#1D9649"/>
<path d="M6.36292 11.3924C7.24462 12.2029 7.52571 13.1556 7.34977 14.3642C7.22439 15.2275 6.56312 16.5215 6.5611 17.334C6.5611 17.5575 6.5611 17.462 6.71681 17.4864C6.94937 17.5229 7.02217 17.5168 7.27293 17.59C7.15968 17.6414 7.15968 17.6414 7.27293 17.59C7.91196 17.7728 8.18092 17.9272 8.69052 18.3497C10.2456 19.6436 13.5904 23.0075 14.7552 24.598C14.9008 24.8723 14.8624 24.9393 14.5833 24.9962C14.282 25.9143 13.9686 26.1195 13.643 25.6137C13.2851 25.6035 12.9655 25.4207 12.6865 25.0673C10.9817 23.1863 9.2163 21.3723 7.3882 19.6274C5.72793 18.3233 4.11014 20.5963 5.7522 21.9065C6.77748 22.7861 7.74411 23.7205 8.64603 24.7138C9.55806 26.0647 8.03127 26.9178 7.25271 26.2231C6.04947 25.1465 4.81994 23.8505 3.78456 22.6317L3.734 22.3636C2.72085 20.6999 3.30933 18.8697 4.75119 17.6997C4.89881 17.4478 4.9251 17.1593 4.94735 16.879L4.80174 16.684C5.29315 15.5485 5.53784 14.3947 5.53582 13.2247C5.27899 12.9139 5.18395 12.6417 5.25068 12.4081C4.59952 11.9632 5.09699 11.9307 5.62278 11.9043C5.67535 11.3924 5.84118 11.0755 6.36292 11.3924Z" fill="#1D9649"/>
<path d="M14.7585 24.6016C15.2175 25.2292 15.8707 26.3912 15.8707 27.1915V34.0472C15.8707 34.1285 16.9445 33.771 17.3288 34.4616C17.5816 34.9187 17.5755 37.1206 17.3288 37.5939C16.9385 38.3435 15.8707 37.9108 15.8707 37.4497V35.6723H6.4673V37.2466C6.4673 37.9575 5.17104 38.3943 4.89399 37.5066C4.79288 37.1816 4.79288 35.1055 4.85557 34.7135C4.89197 34.486 5.1953 34.0472 5.40562 34.0472H7.17508C7.27619 33.6674 6.92837 33.5577 6.87175 33.2347C7.04768 33.1209 7.2499 33.1027 7.47842 33.1859C7.76558 32.4872 7.83636 32.3369 8.38843 32.7269C8.97488 32.4222 9.20744 33.8014 8.79288 34.0472L8.8859 33.8441H14.1296L14.2509 34.0472L14.0487 33.9518V27.4149L14.2509 27.2931L14.0426 27.1895C13.9334 26.7101 13.7575 26.251 13.5108 25.8163L13.6422 25.6172C14.081 26.0986 14.2206 25.1825 14.4046 24.9042C14.5886 24.6259 14.803 24.9408 14.7545 24.6016H14.7585Z" fill="#1D9649"/>
<path d="M21.1226 2.05428C24.5908 -1.31162 29.9032 2.57836 28.0852 6.96602L27.0883 8.45296C28.2066 8.8125 29.3916 9.69409 30.1196 10.6407C30.4796 11.1099 30.6656 11.697 30.0225 12.0098H29.3147C29.0741 11.9225 29.0013 11.8473 28.8092 11.7051C28.2895 10.9576 27.5554 10.5249 26.7869 10.08C26.7202 10.0496 26.6656 10.011 26.5847 9.97848L25.5736 9.67378C23.6707 9.38533 22.2227 9.70019 20.8193 7.99997C20.5342 7.65668 20.4957 7.49214 20.3158 7.13463C20.2146 6.85837 20.4007 6.70195 20.8759 6.66133C21.0114 6.43991 21.1631 6.36069 21.3269 6.42366C21.3208 6.35053 21.3552 6.316 21.428 6.3221C21.521 6.4196 21.6221 6.52116 21.7313 6.62679L21.9881 6.6532C23.6403 8.65812 26.6838 7.6648 26.6717 4.9733L26.888 4.7986C26.9339 4.73089 26.9339 4.73089 26.888 4.7986C26.8294 4.87376 26.7606 4.89814 26.6777 4.86157C26.3016 2.83025 24.0306 1.96693 22.3987 3.20807L22.1358 3.17354C21.5594 3.97998 21.3228 4.0592 21.4219 3.40918C20.6595 3.12682 20.5989 2.6454 21.1247 2.05631L21.1226 2.05428Z" fill="#1D9649"/>
<path d="M24.1545 25.9163C24.4195 26.0544 24.2233 26.3814 23.9523 26.3225C23.9018 26.6293 23.8007 26.8324 23.649 26.9319C23.4832 28.9775 23.4366 31.0332 23.5094 33.099C23.4306 33.6008 23.4427 33.9156 23.5479 34.0416C23.6834 34.0091 23.7683 34.0416 23.8007 34.1411H29.1697C29.2769 33.9948 29.4002 33.9928 29.5115 34.1391C29.8714 33.9867 30.5388 33.9725 30.8846 34.1452L32.6985 34.1614C32.9291 34.2549 32.9149 34.4417 32.6904 34.5555C32.7855 34.6327 32.8886 34.6855 32.9978 34.716C33.192 34.9658 33.1313 37.4176 32.8522 37.8015C32.2516 38.287 31.5378 37.767 31.5378 37.1414V35.6687H22.1343V37.5476C22.1343 37.83 21.0888 38.348 20.7188 37.5984V34.4499C21.0059 33.8445 21.5863 34.0802 22.1343 34.0436C22.2597 31.9148 21.9665 29.595 22.1303 27.4885C22.1424 27.324 22.2557 26.5805 22.3365 26.5277C22.5772 25.768 22.6419 25.573 23.469 25.6603C23.7076 25.0387 24.3123 25.4145 24.1566 25.9183L24.1545 25.9163Z" fill="#1D9649"/>
<path d="M6.36234 11.3924C5.60602 11.3782 5.99227 11.8718 5.75971 12.0566C5.60804 12.1745 5.23999 12.144 5.0499 12.1054C5.02361 12.1298 5.20764 12.341 5.25213 12.4101L5.08832 12.5584L4.28347 12.1826C3.31482 13.7995 2.53221 15.4774 1.9316 17.2122C1.78802 18.9632 1.75162 20.7609 1.85071 22.5241C1.93969 24.0922 2.14191 25.114 3.34313 26.2394L3.32897 26.5278L3.73342 27.0356C4.02058 26.8874 4.22887 27.2794 3.93564 27.4419C3.81431 27.5516 3.65051 27.5353 3.44222 27.3932C3.01552 27.4622 2.61714 27.4561 2.20865 27.2855L2.01451 27.4439C0.985189 26.5887 0.238981 24.9556 0.105513 23.623C-0.0562665 22.002 -0.0603109 18.0877 0.295604 16.5763C0.341442 16.6644 0.341442 16.6644 0.295604 16.5763C0.592874 15.3088 2.01249 12.2963 2.70208 11.1222C2.9043 10.7789 3.42199 10.3808 3.80824 10.3016C4.55647 10.1472 5.83049 10.9069 6.36234 11.3965V11.3924Z" fill="#1D9649"/>
<path d="M35.6841 25.4141L35.9854 25.3125C36.1734 25.5949 35.3908 26.0966 35.591 26.6674C35.6578 26.8543 36.1492 26.8055 36.2887 27.1407C34.7073 29.2187 32.8024 31.1282 31.2351 33.1859C31.039 33.4439 30.7659 33.6917 30.8286 34.0472H32.5981C32.865 34.0472 33.1259 34.5428 33.1562 34.8069C33.2108 35.2782 33.2108 37.3115 33.041 37.6447C32.9965 37.73 32.9136 37.7544 32.8509 37.8052C32.9924 37.4436 33.041 34.9796 32.952 34.8597C32.9459 34.8516 32.8206 34.9532 32.774 34.9329C32.7518 34.9227 32.7457 34.8029 32.6749 34.7663C32.5698 34.7135 32.2786 34.7053 32.2442 34.6058C32.0865 34.1406 32.6588 34.5164 32.7498 34.2524L23.6133 34.2463C23.5061 34.226 23.5668 34.0655 23.5486 34.0492L23.4535 34.0167C23.4474 31.6543 23.5122 29.2939 23.6497 26.9396C23.7245 26.7283 23.8559 26.5293 23.953 26.3302L24.0865 26.8177C23.9591 29.1537 23.8964 31.4877 23.8923 33.8177L23.7508 34.0472L23.8438 33.8441H29.0875L29.2088 34.0472C28.8388 33.9903 28.9318 32.6821 29.411 33.0315C29.4474 33.0722 29.4474 33.0722 29.411 33.0315C29.3544 32.9665 29.312 32.8934 29.3018 32.8081C29.2857 32.6659 30.4545 31.2765 30.5637 31.1465C32.0319 29.4077 33.502 27.6688 34.9904 25.9483C35.0834 25.8406 35.1947 25.7492 35.3099 25.6599C35.4252 25.5705 35.5526 25.4892 35.68 25.412L35.6841 25.4141Z" fill="#1D9649"/>
<path d="M30.0263 17.8973C30.1173 17.8567 30.732 17.6312 30.8068 17.615C31.0475 17.5622 31.2983 17.5987 31.5429 17.5926C31.5551 17.7694 31.3286 17.6658 31.189 17.7937C31.0495 17.9217 30.9969 18.3646 30.8372 18.458C30.4671 18.6733 29.4398 18.4255 30.5298 19.2685L27.6501 22.1611C27.5834 22.1591 27.3751 21.5192 26.9868 21.7995C26.8372 21.9092 26.825 22.7035 27.094 22.7197C26.9565 23.0955 24.91 24.747 24.5096 25.3076C24.4145 25.4417 24.4044 25.5554 24.364 25.6143C24.5905 25.8134 24.4368 25.9861 24.1617 25.919L23.7593 25.4112C23.7795 26.2136 22.9302 25.7017 22.6896 25.9069C22.4489 26.112 22.5925 26.4573 22.544 26.5284C22.5258 26.5549 22.3761 26.5061 22.3438 26.5284C22.4671 25.6448 22.9464 24.8607 23.5045 24.1904C24.8594 22.5694 27.6562 19.7784 29.2659 18.3991C29.5227 18.1797 29.7148 18.0334 30.0263 17.8933V17.8973Z" fill="#1D9649"/>
<path d="M3.93111 27.4412C3.96953 27.4066 4.00795 27.3782 4.05244 27.364C4.4488 27.2441 7.90077 31.6907 8.40229 32.4057L8.38004 32.7226C8.285 32.9887 8.02817 32.5764 7.97762 32.6211C7.91897 32.6718 7.32645 33.8581 7.47003 34.043C7.17681 33.9963 7.39521 33.3605 7.36892 33.332C7.35072 33.3117 7.17883 33.4234 6.86336 33.2305C6.68338 33.1208 6.55193 32.9765 6.40633 32.8242C4.83707 31.1869 3.47003 29.1516 2.00997 27.4412C2.10906 27.2055 1.52666 27.1202 1.70664 26.9333C1.74506 26.8927 2.52969 27.2035 2.78247 27.2299C3.36285 27.2868 3.33454 26.9902 3.92908 27.4412H3.93111Z" fill="#1D9649"/>
<path d="M21.1271 2.05469C20.9511 2.4122 20.8015 2.72299 21.1574 3.03988C21.4405 3.29176 21.7924 3.10285 21.5315 3.78131C21.8025 3.6635 21.8652 3.36895 21.7317 3.12316L22.1382 3.17192L22.2413 3.37708C21.572 4.22821 21.3738 5.35559 21.8268 6.36719L21.7337 6.62517C21.5032 6.67798 21.5396 6.47079 21.4304 6.32047C21.3778 6.31235 21.3455 6.34688 21.3293 6.42204C21.2363 6.54188 21.1048 6.7633 20.9815 6.8344C20.7327 6.97659 20.4132 6.8608 20.3182 7.133C19.4001 5.31293 19.6528 3.48474 21.1271 2.05469Z" fill="#1D9649"/>
<path d="M20.7161 37.6037C20.6392 37.4514 20.6271 37.4615 20.6089 37.2584C20.5543 36.6815 20.5402 35.2555 20.6089 34.6969C20.6291 34.5364 20.6777 34.5344 20.7161 34.4531C20.8839 34.5588 20.8172 34.8391 20.8192 35.0097C20.8273 35.6861 20.8273 36.3666 20.8192 37.0431C20.8172 37.2157 20.8839 37.494 20.7161 37.5996V37.6037Z" fill="#1D9649"/>
<path d="M28.8113 11.7032C28.4797 11.4574 28.2855 11.1771 27.9498 10.8927C27.5737 10.5758 27.1288 10.4092 26.7891 10.0781C27.5676 10.4417 28.421 10.8744 28.8113 11.7032Z" fill="#1D9649"/>
<path d="M30.0203 12.0014C29.6522 12.1802 29.6543 12.1254 29.3125 12.0014C29.4399 11.8329 29.8929 11.8329 30.0203 12.0014Z" fill="#1D9649"/>
<path d="M26.5892 9.97657L25.5781 9.67188C26.0938 9.74907 26.1524 9.79985 26.5892 9.97657Z" fill="#1D9649"/>
<path d="M33.0589 12.3125C33.1155 12.6274 32.796 12.5034 32.6484 12.6883C32.4927 12.8833 32.4482 13.3302 32.25 13.5313C32.2985 12.8447 32.4906 12.6436 33.0589 12.3125Z" fill="#1D9649"/>
<path d="M34.0681 12.3105H33.9346C33.8355 12.1277 33.793 12.0586 33.5625 12.1074C33.6333 12.0708 33.7182 11.9408 33.8153 11.9062C33.9548 12.0058 33.9892 12.1724 34.0681 12.3105Z" fill="#1D9649"/>
<path d="M15.1546 17.9962C15.3852 17.6569 15.8827 17.4132 16.2669 17.2832C13.735 15.1584 14.2729 10.919 17.4519 9.79165C22.1658 8.11987 25.4479 14.0391 21.7269 17.2832C22.9848 17.5777 25.3265 20.2184 25.0374 21.4738C24.9625 21.7947 24.5277 22.0751 24.2103 22.0588C23.5712 22.0223 23.4236 21.1163 23.1587 20.6714C21.8018 18.3963 19.4297 17.7544 16.9747 18.6056C16.9383 18.5284 16.91 18.4288 16.9625 18.372C17.4782 17.7991 17.3508 17.5005 16.5621 17.7219C16.7704 18.6279 16.006 19.3308 15.5631 18.2379C15.3771 18.1831 15.2396 18.1038 15.1526 17.9982L15.1546 17.9962ZM12.9221 21.1996C12.91 21.7318 13.4276 22.1705 13.9433 22.0162C14.459 21.8618 14.5803 21.0919 14.8331 20.6694C15.4256 19.6761 16.004 19.2068 16.9726 18.6035C17.2274 18.4451 17.3872 18.2765 17.7815 18.2968C17.8058 18.0835 17.4357 18.2481 17.3771 18.1952C17.3488 18.1688 17.5935 17.5513 17.3104 17.4802C17.183 17.4497 16.554 17.464 16.461 17.529C16.1294 17.7585 16.7724 18.5649 15.913 18.6035C15.8564 18.1709 15.642 17.8398 15.1526 17.9921C14.3882 18.2298 12.9383 20.3911 12.9221 21.1975V21.1996ZM19.6299 16.5499C22.8533 16.0034 22.1496 10.5473 18.5662 11.114C14.9828 11.6808 15.6885 17.2182 19.6299 16.5499ZM14.9504 12.9179H14.8513V13.4257H14.9504V12.9179Z" fill="#1D9649"/>
<path d="M17.0424 7.39813C14.9838 9.52493 12.2416 8.038 9.79672 10.2257C9.2224 10.7397 8.67841 12.0133 7.87154 11.7574C6.19105 11.2231 8.83008 8.90944 9.46102 8.46864C9.91603 8.15175 10.3589 7.87143 10.9089 7.73736C10.9777 7.64595 10.2295 6.74404 10.1203 6.55107C7.89176 2.57983 12.3993 -1.7794 16.3003 0.749603C18.5065 2.18169 18.8766 5.5029 17.0424 7.39813ZM12.5288 2.05168C12.0819 2.37873 11.6976 2.79312 11.4165 3.27048C10.0535 6.33575 14.3043 8.73474 16.1688 5.80963C16.5813 5.11289 16.6562 4.35724 16.4721 3.57518C15.8998 1.82214 14.1547 1.11321 12.5288 2.05168ZM16.4721 3.57518C16.5126 4.3938 16.5005 5.05601 16.1688 5.80963C16.7027 4.97273 16.7917 4.55428 16.4721 3.57518ZM11.4165 3.27048L12.5288 2.05168C11.8695 2.43154 11.73 2.56358 11.4165 3.27048Z" fill="#1D9649"/>
<path d="M3.73483 22.3654C3.45778 22.0363 3.30207 21.8941 3.23736 21.3924C3.09782 20.3218 3.17467 19.3001 3.88245 18.5038C4.59024 17.7075 4.55182 18.0143 4.94818 16.8828C5.19894 17.9675 4.41026 18.0224 3.89459 18.7191C3.08165 19.8221 3.19894 21.1669 3.73483 22.3674V22.3654Z" fill="#1D9649"/>
<path d="M7.27074 17.5938C7.21614 17.7867 6.86426 17.6669 6.66406 17.6933V17.5938H7.27074Z" fill="#1D9649"/>
<path d="M8.69204 34.1457C8.6799 34.164 8.33814 34.2554 8.25725 34.2371C7.92965 34.162 7.92358 33.5892 8.03076 33.3332C8.18243 33.0854 8.59901 33.6217 8.48981 33.0326C8.63946 33.0082 8.62935 33.3271 8.63946 33.4368C8.64957 33.5404 8.71024 34.1173 8.69001 34.1457H8.69204Z" fill="#1D9649"/>
<path d="M14.5542 27.75H14.4531V33.7424H14.5542V27.75Z" fill="#1D9649"/>
<path d="M21.4268 6.32035C21.3985 6.35691 21.354 6.38535 21.3257 6.42191L21.2266 5.40625L21.4268 6.32035Z" fill="#1D9649"/>
<path d="M26.885 4.79689C26.8951 4.62829 26.8769 4.45766 26.885 4.28906H26.984V4.74611C26.9699 4.80096 26.9294 4.79689 26.8829 4.79689H26.885Z" fill="#1D9649"/>
<path d="M23.5485 34.0471C23.5343 34.0329 23.3584 34.0918 23.3381 33.9821C23.3179 33.8724 23.4433 33.586 23.4514 33.391C23.5161 31.6949 23.146 28.3594 23.6496 26.9375L23.5485 34.0471Z" fill="#1D9649"/>
<path d="M22.437 26.8359H22.3359V33.9456H22.437V26.8359Z" fill="#1D9649"/>
<path d="M0.296875 16.5723C0.468766 16.6109 0.39192 16.8892 0.397987 17.0294C0.49101 19.406 0.369676 21.8172 0.347431 24.1898L0.296875 16.5703V16.5723Z" fill="#1D9649"/>
<path d="M3.73257 27.0391C3.53844 26.9294 3.34228 26.773 3.32812 26.5312C3.54046 26.7669 3.54653 26.6978 3.73257 27.0391Z" fill="#1D9649"/>
<path d="M29.4141 33.0255C29.5617 33.0295 29.4909 33.188 29.5556 33.2936C29.5839 33.3383 29.7235 33.3302 29.7235 33.383C29.7194 33.5374 29.4161 33.7771 29.5152 34.0391L29.4161 33.0234L29.4141 33.0255Z" fill="#1D9649"/>
</g>
<defs>
<clipPath id="clip0_4117_2244">
<rect width="38" height="38" fill="white"/>
</clipPath>
</defs>
</svg>
