<svg width="14" height="16" viewBox="0 0 14 16" fill="none" xmlns="http://www.w3.org/2000/svg">
<path fill-rule="evenodd" clip-rule="evenodd" d="M10.2474 1.33333C10.2474 1.01117 9.98623 0.75 9.66406 0.75C9.3419 0.75 9.08073 1.01117 9.08073 1.33333V2.08333H4.91406V1.33333C4.91406 1.01117 4.6529 0.75 4.33073 0.75C4.00856 0.75 3.7474 1.01117 3.7474 1.33333V2.08333H2.33073C1.27218 2.08333 0.414062 2.94145 0.414062 4V13.3333C0.414062 14.3919 1.27218 15.25 2.33073 15.25H11.6641C12.7226 15.25 13.5807 14.3919 13.5807 13.3333V4C13.5807 2.94145 12.7226 2.08333 11.6641 2.08333H10.2474V1.33333ZM12.4141 6.08333V4C12.4141 3.58579 12.0783 3.25 11.6641 3.25H10.2474V4C10.2474 4.32217 9.98623 4.58333 9.66406 4.58333C9.3419 4.58333 9.08073 4.32217 9.08073 4V3.25H4.91406V4C4.91406 4.32217 4.6529 4.58333 4.33073 4.58333C4.00856 4.58333 3.7474 4.32217 3.7474 4V3.25H2.33073C1.91652 3.25 1.58073 3.58579 1.58073 4V6.08333H12.4141ZM1.58073 7.25H12.4141V13.3333C12.4141 13.7475 12.0783 14.0833 11.6641 14.0833H2.33073C1.91652 14.0833 1.58073 13.7475 1.58073 13.3333V7.25Z" fill="#4E5562"/>
</svg>
