<svg width="33" height="34" viewBox="0 0 33 34" fill="none" xmlns="http://www.w3.org/2000/svg">
<g clip-path="url(#clip0_4117_2278)">
<path d="M32.6998 32.1878L22.7126 21.7969C24.5746 19.4918 25.6962 16.526 25.6962 13.2875C25.6942 5.94843 19.944 0 12.8471 0C5.75015 0 0 5.94843 0 13.2854C0 20.6223 5.75218 26.5708 12.8471 26.5708C16.07 26.5708 19.0151 25.3395 21.2725 23.3113L31.2455 33.6896C31.6471 34.1049 32.2982 34.1049 32.6998 33.6896C33.1014 33.2743 33.1014 32.6031 32.6998 32.1857V32.1878ZM12.8491 24.4649C6.8799 24.4649 2.04044 19.4603 2.04044 13.2875C2.04044 7.11462 6.87787 2.10796 12.8491 2.10796C18.8203 2.10796 23.6578 7.11252 23.6578 13.2854C23.6578 19.4582 18.8183 24.4628 12.8491 24.4628V24.4649Z" fill="#636EAB"/>
<path d="M14.6647 6.03491C14.9886 6.07633 15.3595 6.34831 15.5138 6.63202C15.8393 7.23069 15.5533 8.26039 16.3899 8.49954C17.0957 8.70119 17.701 7.88094 18.5545 8.20802C18.8948 8.33854 19.0386 8.56168 19.2219 8.85476C19.6475 9.53628 20.0121 10.262 20.4228 10.9528C20.5857 11.3374 20.5392 11.7618 20.2926 12.0978C19.946 12.5707 19.1008 12.8446 19.1426 13.5398C19.1989 14.4714 20.6803 14.5246 20.5072 15.7821C20.4865 15.9329 20.411 16.0693 20.3442 16.2029C20.0421 16.8094 19.5845 17.5652 19.2219 18.1459C19.0984 18.3432 18.971 18.5585 18.7694 18.6863C17.828 19.2854 17.1312 18.2487 16.345 18.5148C15.6142 18.7621 15.7999 19.6336 15.5857 20.2072C15.4235 20.6414 15.0242 20.9306 14.5634 20.9669C13.8616 21.022 12.6928 21.0161 11.9871 20.9669C11.4618 20.9306 11.039 20.6039 10.8999 20.097C10.7393 19.5124 10.8616 18.6902 10.1078 18.4956C9.39151 18.3108 8.79323 19.149 7.92687 18.7747C7.60565 18.6359 7.47709 18.43 7.29967 18.1459C6.93625 17.564 6.47982 16.8106 6.17736 16.2029C6.01128 15.8696 5.94602 15.6254 6.05036 15.2494C6.27584 14.437 7.63535 14.2366 7.33211 13.2436C7.18205 12.7516 6.5275 12.505 6.22894 12.0978C5.97924 11.7571 5.93625 11.3417 6.09881 10.9528C6.34032 10.3749 6.95071 9.41045 7.29967 8.85476C7.48568 8.55855 7.62246 8.34011 7.96712 8.20802C8.82019 7.88094 9.4259 8.70158 10.1316 8.49954C10.9663 8.26078 10.6846 7.24319 10.9956 6.64882C11.1695 6.31666 11.5017 6.12362 11.8569 6.03452C12.7334 6.1158 13.8128 5.92588 14.665 6.03452L14.6647 6.03491ZM14.4861 7.20451H12.0351C11.9519 7.55972 11.9394 7.94816 11.8284 8.29595C11.524 9.24867 10.5209 9.83757 9.53453 9.67657C9.13281 9.61131 8.77603 9.38466 8.37822 9.30298L7.1801 11.3913L7.20354 11.4456C7.65411 11.802 8.15157 12.1428 8.38096 12.693C8.62441 13.2776 8.59315 13.9263 8.29303 14.482C8.0359 14.9583 7.57361 15.2389 7.17853 15.5886L8.37822 17.6973C8.8663 17.5812 9.3071 17.303 9.82214 17.2897C10.7381 17.2659 11.599 17.9001 11.8483 18.7719C11.9441 19.1072 11.9452 19.4679 12.05 19.8008L14.4861 19.7961C14.5896 19.2815 14.6033 18.768 14.8749 18.303C15.2418 17.6754 15.9929 17.2647 16.7264 17.2916C17.2305 17.3104 17.6631 17.5855 18.1426 17.6973L19.3407 15.609L19.3173 15.5546C18.4806 14.9673 17.8257 14.2752 18.0027 13.1686C18.1387 12.319 18.7209 11.9153 19.3423 11.4112L18.1426 9.30259C17.6557 9.4167 17.211 9.69689 16.6987 9.71017C15.9632 9.72932 15.2067 9.29673 14.8542 8.65976C14.6014 8.20294 14.5877 7.7047 14.4861 7.20412V7.20451Z" fill="#636EAB"/>
<path d="M13.1018 10.6222C15.1928 10.5007 16.6997 12.6155 15.9384 14.5581C15.1264 16.63 12.3116 17.0259 10.9611 15.247C9.55585 13.3967 10.7946 10.7558 13.1022 10.6218L13.1018 10.6222ZM13.1604 11.7887C10.9576 11.8981 11.0674 15.2377 13.2686 15.2236C15.5449 15.2091 15.4922 11.673 13.1604 11.7887Z" fill="#636EAB"/>
</g>
<defs>
<clipPath id="clip0_4117_2278">
<rect width="33" height="34" fill="white"/>
</clipPath>
</defs>
</svg>
