<svg width="46" height="42" viewBox="0 0 46 42" fill="none" xmlns="http://www.w3.org/2000/svg">
<g clip-path="url(#clip0_4079_1505)">
<path d="M31.4241 1.89344H40.9889C40.9099 2.47763 41.2061 3.27068 40.7611 3.70959H31.7278V11.3526C31.7278 12.8842 28.9957 16.2047 28.9957 16.4983V42.0001H27.3251V15.8929C27.3251 15.7779 28.4247 14.2962 28.6023 13.989C29.3708 12.6617 30.1696 11.5629 29.9069 9.91477C29.3981 9.88299 28.8484 9.98439 28.3457 9.88147C28.0207 9.81488 27.4603 9.34874 27.2492 9.36236C27.1338 9.36992 26.8422 9.66051 26.6098 9.73315C25.6394 10.0389 24.7995 10.0056 23.9065 9.50462L22.9254 10.1448C22.684 10.3385 22.81 10.278 22.9209 10.4445C23.1866 10.841 23.7395 11.2527 24.0478 11.7445C24.6871 12.7616 24.8694 13.8119 25.0501 14.9833L23.2246 15.062C23.2656 12.6829 21.2503 10.6004 18.8219 10.673V8.70552H22.0871C22.1357 8.70552 22.6976 8.1304 22.7386 7.99268C22.8708 7.54772 22.7128 6.91207 22.769 6.43533H16.9995C16.5514 7.84587 14.6576 9.3669 14.8839 10.8894C15.0646 12.1153 18.3055 15.0409 18.9738 16.3485V41.8503H17.1513V16.801C15.4777 14.2296 11.9012 12.244 13.5262 8.79784C14.325 7.10276 16.1581 5.74822 15.7845 3.70959H6.52344V1.89344H15.7845L15.9272 0.143879C19.7741 0.187769 23.8716 -0.139138 27.7093 0.0712327C28.25 0.101502 29.1658 0.16204 29.667 0.237713C30.3732 0.345169 31.3193 1.17757 31.4226 1.89344H31.4241ZM19.2775 1.89344H17.6069V4.61766H19.2775V1.89344ZM22.7705 1.89344H21.0999V4.61766H22.7705V1.89344ZM26.262 1.89344L24.8405 1.91463L24.5914 2.2718C24.8041 3.35393 24.2589 7.28589 24.8238 7.94122C25.1351 8.30294 25.7563 8.35742 26.1071 8.01992C26.8923 7.26168 25.9993 3.09512 26.262 1.89344ZM28.2348 1.89344V7.72025C28.2348 8.13645 29.5212 8.6253 29.8386 7.65366C29.9828 7.2087 29.9813 2.93016 29.8386 2.48974C29.6214 1.81776 28.8241 1.86468 28.2348 1.89344Z" fill="#D2232A"/>
<path d="M13.5119 19.1439H16.0922C14.7208 28.7347 1.22863 28.8043 0 19.1439H2.35247L7.97015 4.00781L13.5119 19.1439ZM11.6895 19.1439L7.97015 9.15357L4.40272 19.1439H11.6895ZM13.6638 20.9601H2.27654C4.37387 25.8168 11.6743 25.8712 13.6623 20.9601H13.6638Z" fill="#D2232A"/>
<path d="M45.9984 19.1439C44.7713 28.8149 31.2761 28.7287 29.9062 19.1439H32.4865L38.0283 4.00781L43.646 19.1439H45.9984ZM41.5957 19.1439L38.0283 9.15357L34.309 19.1439H41.5957ZM43.7219 20.9601H32.3362C34.3682 25.8728 41.5987 25.8228 43.7219 20.9601Z" fill="#D2232A"/>
</g>
<defs>
<clipPath id="clip0_4079_1505">
<rect width="46" height="42" fill="white"/>
</clipPath>
</defs>
</svg>
