<svg width="43" height="44" viewBox="0 0 43 44" fill="none" xmlns="http://www.w3.org/2000/svg">
<path d="M21.6332 43.0845C21.0017 42.8056 20.6448 42.318 20.7283 41.602C18.2069 41.2308 16.0215 39.0245 15.5734 36.5119C15.4142 35.6213 15.4801 34.7669 15.4592 33.8675C13.801 33.8214 13.6505 31.5339 15.2989 31.3856C15.2132 29.8361 14.3764 28.1899 13.3716 27.0225C12.9751 26.5613 12.4491 26.2066 12.0527 25.7904C3.34519 16.6557 10.3669 1.65238 22.9927 2.39365C33.6429 3.01852 39.4841 15.9737 33.0092 24.4616C31.8748 25.9496 30.3758 26.8908 29.4819 28.5863C29.0459 29.4122 28.6692 30.4489 28.6231 31.3856C30.2912 31.4921 30.1067 33.84 28.4639 33.8675C28.4441 34.9448 28.5352 35.9365 28.2497 36.9885C27.6194 39.3112 25.6196 41.155 23.275 41.6404C23.1585 42.3388 22.9806 42.7946 22.291 43.0845H21.6332ZM33.2234 14.9162C32.6106 10.0359 29.1535 6.06377 24.2798 5.1391C17.5798 3.86851 11.5607 8.16019 10.6997 14.9162H16.2488L18.4726 12.6902C18.3628 12.2213 18.1432 11.8369 18.0992 11.3317C17.8906 8.90915 19.8585 6.78198 22.3217 7.01919C25.2868 7.30471 26.9066 10.8156 25.0716 13.214C23.8899 14.7592 21.9879 15.1117 20.211 14.4341C19.6927 14.7811 17.4612 17.3871 17.0702 17.3871H10.8227C10.7381 17.4486 10.7348 17.4596 10.7337 17.5551C10.725 18.2689 11.1972 19.8273 11.4816 20.5158C12.627 23.2898 15.088 24.7811 16.5201 27.2455C17.2459 28.4941 17.672 29.9031 17.8477 31.3362L26.0632 31.3801C26.2422 30.2655 26.508 29.1563 26.9615 28.1207C28.2783 25.1161 31.0347 23.7741 32.3569 20.6783C32.6534 19.9854 33.23 18.2821 33.2069 17.5716C33.2036 17.4706 33.1772 17.4453 33.0993 17.386H27.8379L25.5328 19.6955C25.5262 20.1512 25.7854 20.5543 25.826 21.0484C26.0808 24.1222 23.0114 26.3537 20.2022 24.9536C18.0948 23.9037 17.4074 21.055 18.8493 19.1716C20.0254 17.6353 21.944 17.2619 23.7098 17.9516C24.7641 17.039 25.6284 15.8804 26.7496 15.0623C26.8847 15.059 27.1735 14.9162 27.2614 14.9162H33.2212H33.2234ZM21.6947 9.49888C20.2429 9.7262 20.1748 12.0598 21.6815 12.2729C23.9569 12.5946 23.8361 9.16503 21.6947 9.49888ZM21.6112 20.1249C20.6986 20.2808 20.2846 21.491 20.7733 22.2422C21.1807 22.8703 22.0527 23.1163 22.6973 22.6957C23.9954 21.8501 23.3244 19.8316 21.6112 20.1249ZM25.9897 33.8598H17.9334V35.7948C17.9334 37.6705 20.1572 39.287 21.9209 39.3024C23.7296 39.3189 25.9897 37.721 25.9897 35.7948V33.8598Z" fill="#EDB818"/>
<path d="M8.23365 0.915161C8.40057 1.03376 8.55542 1.06561 8.72893 1.20069C9.01775 1.42691 10.1829 2.57341 10.3718 2.84906C11.1515 3.99006 9.74365 5.37597 8.60374 4.53806C8.327 4.33489 6.89936 2.87431 6.817 2.62173C6.55893 1.83324 6.92352 1.20069 7.6582 0.914062H8.23365V0.915161Z" fill="#EDB818"/>
<path d="M42.9971 15.903V16.4795C42.8192 16.8353 42.6039 17.2482 42.1811 17.3504C41.7583 17.4525 40.0397 17.4426 39.5839 17.3877C38.2332 17.2252 38.0563 15.098 39.9979 14.9168C40.9951 14.8235 42.6413 14.7367 42.9971 15.9041V15.903Z" fill="#EDB818"/>
<path d="M36.2627 0.914062C36.9897 1.23693 37.4454 1.88925 37.0753 2.67664C36.9501 2.9435 35.5906 4.34807 35.3182 4.53915C34.1256 5.37597 32.6793 3.98567 33.7127 2.68323C33.984 2.3406 34.8944 1.42142 35.2337 1.16005C35.3852 1.04365 35.5522 1.03376 35.6872 0.914063L36.2627 0.914062Z" fill="#EDB818"/>
<path d="M2.21175 14.9419C2.74876 14.8749 4.27084 14.8584 4.72659 15.0934C5.69848 15.5931 5.49751 17.2558 4.32575 17.3897C3.80302 17.449 2.45885 17.4545 1.9405 17.3919C0.610608 17.2316 0.443685 15.1637 2.21175 14.9419Z" fill="#EDB818"/>
<path d="M9.03032 27.6224C10.0582 27.4083 10.939 28.434 10.4678 29.3916C10.3822 29.5662 8.83484 31.1355 8.63827 31.264C7.46651 32.0305 6.12124 30.6051 7.03712 29.4124C7.28641 29.0885 8.23414 28.1385 8.5581 27.8893C8.69318 27.7849 8.86339 27.6575 9.03032 27.6224Z" fill="#EDB818"/>
<path d="M34.2743 27.6125C34.6576 27.5324 34.9574 27.5906 35.278 27.8047C35.512 27.9607 36.8528 29.3114 36.9956 29.542C37.6864 30.6578 36.4849 31.9613 35.3362 31.2871C35.1254 31.163 33.712 29.7386 33.5704 29.5157C33.1091 28.7942 33.4309 27.7883 34.2743 27.6125Z" fill="#EDB818"/>
</svg>
