<svg width="14" height="16" viewBox="0 0 14 16" fill="none" xmlns="http://www.w3.org/2000/svg">
<path fill-rule="evenodd" clip-rule="evenodd" d="M6.9974 1.2526C5.56081 1.2526 4.18306 1.82329 3.16723 2.83911C2.15141 3.85493 1.58073 5.23268 1.58073 6.66927C1.58073 8.76814 2.94408 10.7926 4.42087 12.3514C5.14734 13.1182 5.87578 13.7457 6.42327 14.1817C6.65137 14.3633 6.84724 14.5111 6.99739 14.6211C7.14755 14.5111 7.34342 14.3633 7.57152 14.1817C8.11901 13.7457 8.84745 13.1182 9.57392 12.3514C11.0507 10.7926 12.4141 8.76814 12.4141 6.66927C12.4141 5.23268 11.8434 3.85493 10.8276 2.83911C9.81173 1.82329 8.43398 1.2526 6.9974 1.2526ZM6.9974 15.3359C6.67382 15.8213 6.6735 15.8211 6.6735 15.8211L6.6717 15.8199L6.66741 15.817L6.65243 15.8069C6.63965 15.7982 6.62135 15.7857 6.59788 15.7694C6.55096 15.7369 6.48336 15.6895 6.39805 15.6278C6.22748 15.5047 5.98574 15.3247 5.69652 15.0944C5.11901 14.6345 4.34746 13.9703 3.57392 13.1538C2.05072 11.546 0.414062 9.23707 0.414062 6.66927C0.414063 4.92326 1.10766 3.24877 2.34228 2.01415C3.57689 0.779537 5.25139 0.0859375 6.9974 0.0859375C8.7434 0.0859375 10.4179 0.779537 11.6525 2.01415C12.8871 3.24877 13.5807 4.92326 13.5807 6.66927C13.5807 9.23707 11.9441 11.546 10.4209 13.1538C9.64734 13.9703 8.87578 14.6345 8.29827 15.0944C8.00905 15.3247 7.76731 15.5047 7.59674 15.6278C7.51143 15.6895 7.44384 15.7369 7.39691 15.7694C7.37344 15.7857 7.35514 15.7982 7.34236 15.8069L7.32738 15.817L7.32309 15.8199L7.32176 15.8208C7.32176 15.8208 7.32097 15.8213 6.9974 15.3359ZM6.9974 15.3359L7.32097 15.8213C7.12503 15.9519 6.86944 15.9517 6.6735 15.8211L6.9974 15.3359Z" fill="#1D2735"/>
<path fill-rule="evenodd" clip-rule="evenodd" d="M6.9974 5.2526C6.21499 5.2526 5.58073 5.88687 5.58073 6.66927C5.58073 7.45167 6.21499 8.08594 6.9974 8.08594C7.7798 8.08594 8.41406 7.45167 8.41406 6.66927C8.41406 5.88687 7.7798 5.2526 6.9974 5.2526ZM4.41406 6.66927C4.41406 5.24254 5.57066 4.08594 6.9974 4.08594C8.42413 4.08594 9.58073 5.24254 9.58073 6.66927C9.58073 8.09601 8.42413 9.2526 6.9974 9.2526C5.57066 9.2526 4.41406 8.09601 4.41406 6.66927Z" fill="#1D2735"/>
</svg>
