<svg width="18" height="18" viewBox="0 0 18 18" fill="none" xmlns="http://www.w3.org/2000/svg">
<path d="M5.72778 11.4548H2.04499C0.915636 11.4548 0 10.539 0 9.4095V2.04525C0 0.91575 0.915636 0 2.04499 0H9.40832C10.5377 0 11.4533 0.91575 11.4533 2.04525V5.72625H10.6344V2.04525C10.6344 1.368 10.0855 0.819 9.40832 0.819H2.04499C1.36783 0.819 0.818898 1.368 0.818898 2.04525V9.4095C0.818898 10.0868 1.36783 10.6357 2.04499 10.6357H5.72553V11.4548H5.72778ZM5.69629 7.5195C4.7874 8.226 3.73678 8.72775 2.61417 8.98875L2.4162 8.1945C3.38808 7.96725 4.30371 7.53975 5.10236 6.94125C4.13498 5.91975 3.46907 4.65075 3.1811 3.27375H2.45444V2.45475H5.13611L4.69066 2.00925L5.26884 1.431L6.29246 2.45475H8.99887V3.27375H8.25197C8.04949 4.1895 7.68729 5.0625 7.18335 5.85225C6.49944 6.20775 5.97075 6.7995 5.69404 7.5195H5.69629ZM5.72104 6.38775C6.55343 5.5215 7.13611 4.44375 7.41057 3.27375H4.027C4.30146 4.446 4.88639 5.5215 5.72104 6.38775ZM17.9977 15.912V8.6355C18.0112 7.49475 17.0956 6.55875 15.955 6.5475C15.9505 6.5475 15.9438 6.5475 15.9393 6.5475H8.63217C7.47807 6.5475 6.54443 7.4835 6.54443 8.6355V15.912C6.54443 17.0662 7.48031 18 8.63217 18H15.9078C17.0619 18 17.9955 17.064 17.9955 15.912H17.9977ZM15.9415 7.36425C16.6254 7.36425 17.1811 7.92 17.1811 8.604V15.9412C17.1811 16.6252 16.6254 17.181 15.9415 17.181H8.60517C7.92126 17.181 7.36558 16.6252 7.36558 15.9412V8.604C7.36558 7.92 7.92126 7.36425 8.60517 7.36425H15.9415ZM14.234 13.9095H10.3105L9.36333 15.7343L8.63892 15.3585L12.2745 8.35875L15.91 15.3585L15.1856 15.7343L14.2385 13.9095H14.234ZM13.8088 13.0927L12.2722 10.134L10.7357 13.0927H13.8088Z" fill="#1D2735"/>
</svg>
