<svg width="14" height="10" viewBox="0 0 14 10" fill="none" xmlns="http://www.w3.org/2000/svg">
<path fill-rule="evenodd" clip-rule="evenodd" d="M0.414062 4.9974C0.414062 4.67523 0.67523 4.41406 0.997396 4.41406H12.9974C13.3196 4.41406 13.5807 4.67523 13.5807 4.9974C13.5807 5.31956 13.3196 5.58073 12.9974 5.58073H0.997396C0.67523 5.58073 0.414062 5.31956 0.414062 4.9974Z" fill="#4E5562"/>
<path fill-rule="evenodd" clip-rule="evenodd" d="M0.414062 0.997396C0.414062 0.67523 0.67523 0.414062 0.997396 0.414062H12.9974C13.3196 0.414062 13.5807 0.67523 13.5807 0.997396C13.5807 1.31956 13.3196 1.58073 12.9974 1.58073H0.997396C0.67523 1.58073 0.414062 1.31956 0.414062 0.997396Z" fill="#4E5562"/>
<path fill-rule="evenodd" clip-rule="evenodd" d="M0.414062 8.9974C0.414062 8.67523 0.67523 8.41406 0.997396 8.41406H12.9974C13.3196 8.41406 13.5807 8.67523 13.5807 8.9974C13.5807 9.31956 13.3196 9.58073 12.9974 9.58073H0.997396C0.67523 9.58073 0.414062 9.31956 0.414062 8.9974Z" fill="#4E5562"/>
</svg>
