<svg width="500" height="300" viewBox="0 0 500 300" fill="none" xmlns="http://www.w3.org/2000/svg">
<mask id="mask0_4858_8692" style="mask-type:luminance" maskUnits="userSpaceOnUse" x="3" y="4" width="41" height="40">
<path d="M23.5 4C12.5 4 3.5 12.9 3.5 24C3.5 35.1 12.4 44 23.5 44C34.6 44 43.5 35.1 43.5 24C43.5 12.9 37.3 6.8 28.3 4.6C26.7 4.2 25.1 4 23.5 4Z" fill="white"/>
</mask>
<g mask="url(#mask0_4858_8692)">
<path d="M45.6 4H1.5V46H45.6V4Z" fill="url(#paint0_radial_4858_8692)"/>
</g>
<path d="M4.10357 19.1971C6.80357 8.49705 17.6036 1.89705 28.3036 4.59705C39.0036 7.29705 45.6036 18.0971 42.9036 28.7971C40.2036 39.4971 29.4036 45.9971 18.7036 43.3971C8.00357 40.6971 1.50357 29.8971 4.10357 19.1971Z" fill="#223C72"/>
<path d="M37.6987 9.89868L29.6987 15.2987V4.99868C29.1987 4.79868 28.7987 4.69868 28.2987 4.59868C24.6987 3.69868 20.8987 3.79868 17.2987 4.99868V15.2987L9.29868 9.99868C7.49868 11.7987 5.99868 14.0987 4.99868 16.4987L7.09868 17.8987H4.49868C4.49868 18.2987 4.29868 18.6987 4.09868 19.1987C3.19868 22.7987 3.29868 26.6987 4.49868 30.2987H7.09868L4.99868 31.6987C5.99868 34.0987 7.49868 36.3987 9.39868 38.1987L17.2987 32.9987V42.9987C17.7987 42.9987 18.1987 43.2987 18.6987 43.3987C22.2987 44.2987 26.0987 44.1987 29.5987 42.9987V32.9987L37.4987 38.1987C39.3987 36.2987 40.8987 34.0987 41.8987 31.6987L39.7987 30.2987H42.4987C42.6987 29.7987 42.7987 29.2987 42.8987 28.7987C43.7987 25.1987 43.6987 21.4987 42.4987 17.8987H39.7987L41.9987 16.4987C40.9987 13.9987 39.5987 11.7987 37.6987 9.89868Z" fill="#EFEBE7"/>
<path d="M14.3016 17.9L6.80156 13C6.30156 13.8 5.90156 14.5 5.50156 15.3L9.40156 17.9H14.3016ZM40.2016 13C39.7016 12.2 39.1016 11.5 38.5016 10.8L29.6016 16.7V17.9H32.6016L40.2016 13ZM6.90156 35.1C7.40156 35.9 7.90156 36.6 8.50156 37.2L17.3016 31.4V30.3H14.1016L6.90156 35.1ZM43.2016 20.5H27.1016V4.3C24.7016 3.9 22.3016 3.9 19.9016 4.3V20.5H3.90156C3.50156 22.9 3.50156 25.3 3.90156 27.7H19.9016V43.7C22.3016 44.1 24.7016 44.1 27.1016 43.7V27.7H43.2016C43.6016 25.3 43.6016 22.9 43.2016 20.5ZM32.9016 30.3L40.2016 35.1C40.7016 34.3 41.2016 33.6 41.6016 32.8L37.9016 30.3H32.9016Z" fill="#ED3726"/>
<path d="M29.6016 7.10156V8.40156C29.7016 8.20156 29.7016 7.90156 29.7016 7.70156C29.7016 7.40156 29.7016 7.20156 29.6016 7.10156Z" fill="#2F3E67"/>
<mask id="mask1_4858_8692" style="mask-type:luminance" maskUnits="userSpaceOnUse" x="44" y="4" width="41" height="40">
<path d="M64.3984 4C53.3984 4 44.3984 12.9 44.3984 24C44.3984 35.1 53.2984 44 64.3984 44C75.4984 44 84.3984 35.1 84.3984 24C84.3984 12.9 78.1984 6.8 69.1984 4.6C67.6984 4.2 66.0984 4 64.3984 4Z" fill="white"/>
</mask>
<g mask="url(#mask1_4858_8692)">
<path d="M86.4984 4H42.3984V46H86.4984V4Z" fill="url(#paint1_radial_4858_8692)"/>
</g>
<path d="M45.1029 19.1971C47.7029 8.49705 58.5029 1.89705 69.2029 4.59705C79.9029 7.29705 86.503 18.0971 83.803 28.7971C81.203 39.4971 70.403 45.9971 59.703 43.3971C48.903 40.6971 42.4029 29.8971 45.1029 19.1971Z" fill="#223C72"/>
<path d="M78.5971 9.89868L70.5971 15.2987V4.99868C70.0971 4.79868 69.6971 4.69868 69.1971 4.59868C65.5971 3.69868 61.7971 3.79868 58.1971 4.99868V15.2987L50.1971 9.99868C48.2971 11.8987 46.8971 14.0987 45.8971 16.5987L47.9971 17.9987H45.3971C45.3971 18.3987 45.1971 18.7987 44.9971 19.2987C44.0971 22.8987 44.1971 26.7987 45.3971 30.3987H47.9971L45.9971 31.5987C46.9971 33.9987 48.4971 36.2987 50.3971 38.0987L58.2971 32.8987V42.8987C58.7971 42.8987 59.1971 43.1987 59.6971 43.2987C63.2971 44.1987 67.0971 44.0987 70.5971 42.8987V32.9987L78.4971 38.1987C80.3971 36.2987 81.8971 34.0987 82.8971 31.6987L80.7971 30.2987H83.4971C83.6971 29.7987 83.7971 29.2987 83.8971 28.7987C84.7971 25.1987 84.6971 21.4987 83.4971 17.8987H80.7971L82.9971 16.4987C81.9971 13.9987 80.4971 11.7987 78.5971 9.89868Z" fill="#EFEBE7"/>
<path d="M55.2 17.9L47.8 13C47.3 13.8 46.9 14.5 46.5 15.3L50.4 17.9H55.2ZM81.1 13C80.6 12.2 80 11.5 79.4 10.8L70.5 16.7V17.9H73.5L81.1 13ZM47.8 35.1C48.3 35.9 48.8 36.6 49.4 37.2L58.2 31.4V30.3H55L47.8 35.1ZM84.1 20.5H68V4.3C65.6 3.9 63.2 3.9 60.8 4.3V20.5H44.8C44.4 22.9 44.4 25.3 44.8 27.7H60.8V43.7C63.2 44.1 65.6 44.1 68 43.7V27.7H84.1C84.5 25.3 84.5 22.9 84.1 20.5ZM73.8 30.3L81.1 35.1C81.6 34.3 82.1 33.6 82.5 32.8L78.8 30.3H73.8Z" fill="#ED3726"/>
<path d="M45.1029 19.1971C47.7029 8.49705 58.5029 1.89705 69.2029 4.59705C79.9029 7.29705 86.503 18.0971 83.803 28.7971C81.203 39.4971 70.403 45.9971 59.703 43.3971C48.903 40.6971 42.4029 29.8971 45.1029 19.1971Z" fill="#FFD201"/>
<path d="M45.6016 17.2966H83.2016C79.5016 6.8966 68.1016 1.49661 57.7016 5.19661C52.1016 7.19661 47.6016 11.5966 45.6016 17.2966Z" fill="#181306"/>
<path d="M84.0021 28.0984V27.7984V27.4984V27.0984V26.6984V26.3984V26.0984V25.7984V25.3984V24.9984V22.7984V22.4984V22.1984V21.8984C84.0021 21.5984 84.0021 21.3984 84.0021 21.0984V20.6984V19.7984C84.0021 19.5984 84.0021 19.4984 84.0021 19.3984C84.0021 19.2984 84.0021 19.1984 84.0021 19.0984C84.0021 18.4984 83.7021 17.8984 83.5021 17.3984H45.9021C45.7021 17.9984 45.5021 18.6984 45.3021 19.2984C44.7021 21.8984 44.5021 24.5984 45.0021 27.1984V27.4984V27.8984V28.1984V28.4984V29.1984C45.0021 29.2984 45.0021 29.3984 45.2021 29.3984C45.2021 29.4984 45.2021 29.6984 45.2021 29.6984C45.2021 29.8318 45.2021 29.9318 45.2021 29.9984C45.2021 30.1318 45.2021 30.2318 45.2021 30.2984C45.2021 30.4318 45.2021 30.5318 45.2021 30.5984V30.7984H83.2021C83.2021 30.6984 83.2021 30.2984 83.2021 30.2984C83.2021 30.0984 83.2021 29.9984 83.2021 29.7984C83.2021 29.5984 83.2021 29.3984 83.2021 29.2984C83.2021 28.9984 83.2021 28.8984 83.2021 28.6984C83.2021 28.4984 83.2021 28.4984 83.2021 28.3984V28.0984" fill="#EC4639"/>
<path d="M45.1029 19.1971C47.7029 8.49705 58.5029 1.89705 69.2029 4.59705C79.9029 7.29705 86.503 18.0971 83.803 28.7971C81.203 39.4971 70.403 45.9971 59.703 43.3971C48.903 40.6971 42.4029 29.8971 45.1029 19.1971Z" fill="#F1F1F2"/>
<path d="M57.799 5.20312C47.399 8.90313 41.899 20.3031 45.599 30.7031C47.599 36.4031 52.099 40.8031 57.699 42.8031V5.20312H57.799Z" fill="#00A84F"/>
<path d="M71.2031 5.20312V42.8031C81.6031 39.1031 87.0031 27.6031 83.3031 17.3031C81.2031 11.6031 76.8031 7.20312 71.2031 5.20312Z" fill="#ED3726"/>
<path d="M45.1029 19.1971C47.7029 8.49705 58.5029 1.89705 69.2029 4.59705C79.9029 7.29705 86.503 18.0971 83.803 28.7971C81.203 39.4971 70.403 45.9971 59.703 43.3971C48.903 40.6971 42.4029 29.8971 45.1029 19.1971Z" fill="#F1F1F2"/>
<path d="M57.799 5.20312C47.399 8.90313 41.899 20.3031 45.599 30.7031C47.599 36.4031 52.099 40.8031 57.699 42.8031V5.20312H57.799Z" fill="#223C72"/>
<path d="M71.2031 5.20312V42.8031C81.6031 39.1031 87.0031 27.6031 83.3031 17.3031C81.2031 11.6031 76.8031 7.20312 71.2031 5.20312Z" fill="#ED3726"/>
<mask id="mask2_4858_8692" style="mask-type:luminance" maskUnits="userSpaceOnUse" x="85" y="4" width="41" height="40">
<path d="M105.602 4C94.6016 4 85.6016 12.9 85.6016 23.9C85.6016 34.9 94.5016 43.9 105.502 43.9C116.502 43.9 125.502 35 125.502 24C125.502 13 119.302 6.8 110.302 4.6C108.802 4.2 107.202 4 105.602 4Z" fill="white"/>
</mask>
<g mask="url(#mask2_4858_8692)">
<path d="M127.6 4H83.5V46H127.6V4Z" fill="url(#paint2_radial_4858_8692)"/>
</g>
<path d="M86.1986 19.1971C88.7986 8.49705 99.6986 1.89705 110.399 4.59705C121.099 7.29705 127.599 18.0971 124.999 28.7971C122.399 39.4971 111.499 45.9971 100.799 43.3971C90.0986 40.6971 83.4986 29.8971 86.1986 19.1971Z" fill="#223C72"/>
<path d="M119.699 9.89868L111.699 15.2987V4.99868C111.199 4.79868 110.799 4.69868 110.299 4.59868C106.699 3.69868 102.899 3.79868 99.2987 4.99868V15.2987L91.2987 9.99868C89.3987 11.8987 87.9987 14.0987 86.9987 16.5987L89.0987 17.9987H86.4987C86.4987 18.3987 86.2987 18.7987 86.0987 19.2987C85.1987 22.8987 85.2987 26.7987 86.4987 30.3987H89.0987L86.9987 31.7987C87.9987 34.1987 89.4987 36.4987 91.3987 38.2987L99.2987 33.0987V43.0987C99.7987 43.0987 100.199 43.3987 100.699 43.4987C104.299 44.3987 108.099 44.2987 111.599 43.0987V32.9987L119.399 38.1987C121.299 36.2987 122.799 34.0987 123.799 31.6987L121.699 30.2987H124.399C124.599 29.7987 124.699 29.2987 124.799 28.7987C125.699 25.1987 125.599 21.4987 124.399 17.8987H121.699L123.899 16.4987C123.099 13.9987 121.599 11.7987 119.699 9.89868Z" fill="#EFEBE7"/>
<path d="M96.3016 17.9L88.9016 13C88.4016 13.8 88.0016 14.5 87.6016 15.3L91.5016 17.9H96.3016ZM122.202 13C121.702 12.2 121.102 11.5 120.502 10.8L111.602 16.7V17.9H114.602L122.202 13ZM89.0016 35C89.5016 35.8 90.0016 36.5 90.6016 37.1L99.4016 31.3V30.2H96.2016L89.0016 35ZM125.202 20.5H109.102V4.3C106.702 3.9 104.302 3.9 101.902 4.3V20.4H85.9016C85.5016 22.8 85.5016 25.2 85.9016 27.6H101.902V43.6C104.302 44 106.702 44 109.102 43.6V27.6H125.202C125.602 25.3 125.602 22.9 125.202 20.5ZM114.902 30.2L122.202 35C122.702 34.2 123.202 33.5 123.602 32.7L119.902 30.2H114.902Z" fill="#ED3726"/>
<path d="M86.1986 19.1971C88.7986 8.49705 99.6986 1.89705 110.399 4.59705C121.099 7.29705 127.599 18.0971 124.999 28.7971C122.399 39.4971 111.499 45.9971 100.799 43.3971C90.0986 40.6971 83.4986 29.8971 86.1986 19.1971Z" fill="#FFD201"/>
<path d="M86.7969 17.2966H124.397C120.597 6.8966 109.197 1.49661 98.7969 5.19661C93.1969 7.19661 88.7969 11.5966 86.7969 17.2966Z" fill="#181306"/>
<path d="M125.097 28.0984V27.7984V27.4984V27.0984V26.6984V26.3984V26.0984V25.7984V25.3984V24.9984V22.7984V22.4984V22.1984V21.8984C125.097 21.5984 125.097 21.3984 125.097 21.0984V20.6984V19.7984C125.097 19.5984 125.097 19.4984 125.097 19.3984C125.097 19.2984 125.097 19.1984 125.097 19.0984C125.097 18.4984 124.797 17.8984 124.597 17.3984H87.0974C86.8974 17.9984 86.6975 18.6984 86.4975 19.2984C85.8975 21.8984 85.6974 24.5984 86.1974 27.1984V27.4984V27.8984V28.1984V28.4984V29.1984C86.1974 29.2984 86.1975 29.3984 86.3975 29.3984C86.3975 29.4984 86.3975 29.6984 86.3975 29.6984C86.3975 29.8318 86.3975 29.9318 86.3975 29.9984C86.3975 30.1318 86.3975 30.2318 86.3975 30.2984C86.3975 30.4318 86.3975 30.5318 86.3975 30.5984V30.7984H124.297C124.297 30.6984 124.297 30.2984 124.297 30.2984C124.297 30.0984 124.297 29.9984 124.297 29.7984C124.297 29.5984 124.297 29.3984 124.297 29.2984C124.297 28.9984 124.297 28.8984 124.297 28.6984C124.297 28.4984 124.297 28.4984 124.297 28.3984V28.0984" fill="#EC4639"/>
<mask id="mask3_4858_8692" style="mask-type:luminance" maskUnits="userSpaceOnUse" x="126" y="4" width="41" height="40">
<path d="M146.297 4C135.297 4 126.297 12.9 126.297 24C126.297 35.1 135.197 44 146.297 44C157.397 44 166.297 35.1 166.297 24C166.297 12.9 160.097 6.8 151.097 4.6C149.497 4.2 147.897 4 146.297 4Z" fill="white"/>
</mask>
<g mask="url(#mask3_4858_8692)">
<path d="M168.397 4H124.297V46H168.397V4Z" fill="url(#paint3_radial_4858_8692)"/>
</g>
<path d="M126.9 19.1971C129.5 8.49705 140.4 1.89705 151.1 4.59705C161.8 7.29705 168.4 18.0971 165.7 28.7971C163 39.4971 152.2 45.9971 141.5 43.3971C130.8 40.6971 124.3 29.8971 126.9 19.1971Z" fill="#223C72"/>
<path d="M160.503 9.89868L152.503 15.2987V4.99868C152.003 4.79868 151.603 4.69868 151.103 4.59868C147.503 3.69868 143.703 3.79868 140.103 4.99868V15.2987L132.103 9.99868C130.203 11.8987 128.803 14.0987 127.803 16.5987L129.903 17.9987H127.303C127.303 18.3987 127.103 18.7987 126.903 19.2987C126.003 22.8987 126.103 26.7987 127.303 30.3987H129.903L127.803 31.7987C128.803 34.1987 130.303 36.4987 132.203 38.2987L140.103 33.0987V43.0987C140.603 43.0987 141.003 43.3987 141.503 43.4987C145.103 44.3987 148.903 44.2987 152.403 43.0987V32.9987L160.303 38.1987C162.203 36.2987 163.703 34.0987 164.703 31.6987L162.603 30.2987H165.303C165.503 29.7987 165.603 29.2987 165.703 28.7987C166.603 25.1987 166.503 21.4987 165.303 17.8987H162.603L164.803 16.4987C163.803 13.9987 162.403 11.7987 160.503 9.89868Z" fill="#EFEBE7"/>
<path d="M137.098 17.9L129.698 13C129.198 13.8 128.798 14.5 128.398 15.3L132.298 17.9H137.098ZM162.998 13C162.498 12.2 161.898 11.5 161.298 10.8L152.398 16.7V17.9H155.398L162.998 13ZM129.698 35.1C130.198 35.9 130.698 36.6 131.298 37.2L140.098 31.4V30.3H136.898L129.698 35.1ZM165.998 20.5H149.898V4.3C147.498 3.9 145.098 3.9 142.698 4.3V20.5H126.698C126.298 22.9 126.298 25.3 126.698 27.7H142.698V43.7C145.098 44.1 147.498 44.1 149.898 43.7V27.7H165.998C166.398 25.3 166.398 22.9 165.998 20.5ZM155.698 30.3L162.998 35.1C163.498 34.3 163.998 33.6 164.398 32.8L160.698 30.3H155.698Z" fill="#ED3726"/>
<path d="M152.5 7.10156V8.40156C152.6 8.20156 152.6 7.90156 152.6 7.70156C152.6 7.40156 152.5 7.20156 152.5 7.10156Z" fill="#2F3E67"/>
<path d="M126.9 19.1971C129.5 8.49705 140.4 1.89705 151.1 4.59705C161.8 7.29705 168.4 18.0971 165.7 28.7971C163 39.4971 152.2 45.9971 141.5 43.3971C130.8 40.6971 124.3 29.8971 126.9 19.1971Z" fill="#FFD201"/>
<path d="M127.5 17.2966H165.1C161.4 6.8966 150 1.49661 139.6 5.19661C134 7.19661 129.5 11.5966 127.5 17.2966Z" fill="#181306"/>
<path d="M165.904 28.0984V27.7984V27.4984V27.0984V26.6984V26.3984V26.0984V25.7984V25.3984V24.9984V22.7984V22.4984V22.1984V21.8984C165.904 21.5984 165.804 21.3984 165.804 21.0984V20.6984V19.7984C165.804 19.5984 165.804 19.4984 165.704 19.3984C165.704 19.2984 165.604 19.1984 165.604 19.0984C165.504 18.4984 165.304 17.8984 165.104 17.3984H127.504C127.304 17.9984 127.104 18.6984 126.904 19.2984C126.304 21.8984 126.104 24.5984 126.604 27.1984V27.4984V27.8984V28.1984V28.4984V29.1984C126.604 29.2984 126.604 29.3984 126.804 29.3984C126.804 29.4984 126.804 29.6984 126.804 29.6984C126.804 29.8318 126.804 29.9318 126.804 29.9984C126.804 30.1318 126.804 30.2318 126.804 30.2984C126.804 30.4318 126.804 30.5318 126.804 30.5984V30.7984H164.804C164.804 30.6984 164.904 30.2984 164.904 30.2984C165.004 30.0984 165.004 29.9984 165.004 29.7984C165.004 29.5984 165.104 29.3984 165.104 29.2984C165.104 28.9984 165.204 28.8984 165.204 28.6984C165.204 28.4984 165.304 28.4984 165.304 28.3984V28.0984" fill="#EC4639"/>
<path d="M126.9 19.1971C129.5 8.49705 140.4 1.89705 151.1 4.59705C161.8 7.29705 168.4 18.0971 165.7 28.7971C163 39.4971 152.2 45.9971 141.5 43.3971C130.8 40.6971 124.3 29.8971 126.9 19.1971Z" fill="#F1F1F2"/>
<path d="M139.601 5.20312C129.201 8.90313 123.801 20.3031 127.501 30.7031C129.501 36.4031 134.001 40.8031 139.601 42.8031V5.20312Z" fill="#00A84F"/>
<path d="M153 5.20312V42.8031C163.4 39.1031 168.8 27.6031 165.1 17.3031C163.1 11.6031 158.7 7.20312 153 5.20312Z" fill="#ED3726"/>
<path d="M187.297 44C198.343 44 207.297 35.0457 207.297 24C207.297 12.9543 198.343 4 187.297 4C176.251 4 167.297 12.9543 167.297 24C167.297 35.0457 176.251 44 187.297 44Z" fill="#F0F0F0"/>
<path d="M206.098 31C206.898 28.8 207.298 26.5 207.298 24C207.298 21.5 206.898 19.2 206.098 17H168.598C167.798 19.2 167.398 21.5 167.398 24C167.398 26.5 167.798 28.8 168.598 31L187.398 32.7L206.098 31Z" fill="#0052B4"/>
<path d="M187.302 44C195.902 44 203.202 38.6 206.102 31H168.602C171.402 38.6 178.702 44 187.302 44Z" fill="#D80027"/>
<mask id="mask4_4858_8692" style="mask-type:luminance" maskUnits="userSpaceOnUse" x="208" y="4" width="40" height="40">
<path d="M228.102 4C217.102 4 208.102 12.9 208.102 23.9C208.102 34.9 217.002 43.9 228.002 43.9C239.002 43.9 248.002 35 248.002 24C248.002 13 241.802 6.8 232.802 4.6C231.302 4.2 229.702 4 228.102 4Z" fill="white"/>
</mask>
<g mask="url(#mask4_4858_8692)">
<path d="M250.202 4H206.102V46H250.202V4Z" fill="url(#paint4_radial_4858_8692)"/>
</g>
<path d="M208.697 19.2036C211.297 8.50357 222.197 2.00357 232.897 4.60357C243.597 7.20357 250.097 18.1036 247.497 28.8036C244.897 39.5036 233.997 46.0036 223.297 43.4036C212.597 40.7036 206.097 29.9036 208.697 19.2036Z" fill="#223C72"/>
<path d="M242.3 9.89868L234.3 15.2987V4.99868C233.8 4.79868 233.4 4.69868 232.9 4.59868C229.3 3.69868 225.5 3.79868 221.9 4.99868V15.2987L213.9 9.99868C212 11.8987 210.6 14.0987 209.6 16.5987L211.7 17.9987H209.1C209 18.3987 208.9 18.7987 208.7 19.2987C207.8 22.8987 207.9 26.7987 209.1 30.3987H211.7L209.6 31.7987C210.6 34.1987 212.1 36.4987 214 38.2987L221.9 33.0987V43.0987C222.4 43.0987 222.8 43.3987 223.3 43.4987C226.9 44.3987 230.7 44.2987 234.2 43.0987V32.9987L242 38.1987C243.9 36.2987 245.4 34.0987 246.4 31.6987L244.3 30.2987H247C247.2 29.7987 247.3 29.2987 247.4 28.7987C248.3 25.1987 248.2 21.4987 247 17.8987H244.3L246.5 16.4987C245.6 13.9987 244.1 11.7987 242.3 9.89868Z" fill="#EFEBE7"/>
<path d="M218.903 17.9L211.503 13C211.003 13.8 210.603 14.5 210.203 15.3L214.103 17.9H218.903ZM244.803 13C244.303 12.2 243.703 11.5 243.103 10.8L234.203 16.7V17.9H237.203L244.803 13ZM211.503 35C212.003 35.8 212.503 36.5 213.103 37.1L221.903 31.3V30.2H218.703L211.503 35ZM247.803 20.5H231.703V4.3C229.303 3.9 226.903 3.9 224.503 4.3V20.4H208.503C208.103 22.8 208.103 25.2 208.503 27.6H224.503V43.6C226.903 44 229.303 44 231.703 43.6V27.6H247.803C248.203 25.3 248.203 22.9 247.803 20.5ZM237.503 30.2L244.803 35C245.303 34.2 245.803 33.5 246.203 32.7L242.503 30.2H237.503Z" fill="#ED3726"/>
<path d="M234.203 7.10156V8.40156C234.303 8.20156 234.303 7.90156 234.303 7.70156C234.303 7.40156 234.303 7.20156 234.203 7.10156Z" fill="#2F3E67"/>
<path d="M208.697 19.2036C211.297 8.50357 222.197 2.00357 232.897 4.60357C243.597 7.20357 250.097 18.1036 247.497 28.8036C244.897 39.5036 233.997 46.0036 223.297 43.4036C212.597 40.7036 206.097 29.9036 208.697 19.2036Z" fill="#FFD201"/>
<path d="M209.297 17.2966H246.897C243.197 6.8966 231.797 1.49661 221.397 5.19661C215.797 7.19661 211.297 11.5966 209.297 17.2966Z" fill="#181306"/>
<path d="M247.702 28.0984V27.7984V27.4984V27.0984V26.6984V26.3984V26.0984V25.7984V25.3984V24.9984V22.7984V22.4984V22.1984V21.8984C247.702 21.5984 247.602 21.3984 247.602 21.0984V20.6984V19.7984C247.602 19.5984 247.602 19.4984 247.502 19.3984C247.502 19.2984 247.402 19.1984 247.402 19.0984C247.302 18.4984 247.102 17.8984 246.902 17.3984H209.402C209.202 17.9984 209.002 18.6984 208.802 19.2984C208.202 21.8984 208.002 24.5984 208.502 27.1984V27.4984V27.8984V28.1984V28.4984V29.1984C208.602 29.2984 208.602 29.3984 208.702 29.3984C208.702 29.4984 208.802 29.6984 208.802 29.6984C208.802 29.8318 208.835 29.9318 208.902 29.9984C208.902 30.1318 208.935 30.2318 209.002 30.2984C209.002 30.4318 209.035 30.5318 209.102 30.5984V30.7984H247.002C247.002 30.6984 247.102 30.2984 247.102 30.2984C247.202 30.0984 247.202 29.9984 247.202 29.7984C247.202 29.5984 247.302 29.3984 247.302 29.2984C247.302 28.9984 247.402 28.8984 247.402 28.6984C247.402 28.4984 247.502 28.4984 247.502 28.3984V28.0984" fill="#EC4639"/>
<path d="M208.697 19.2036C211.297 8.50357 222.197 2.00357 232.897 4.60357C243.597 7.20357 250.097 18.1036 247.497 28.8036C244.897 39.5036 233.997 46.0036 223.297 43.4036C212.597 40.7036 206.097 29.9036 208.697 19.2036Z" fill="#F1F1F2"/>
<path d="M221.398 5.20312C210.998 8.90313 205.598 20.3031 209.298 30.7031C211.298 36.3031 215.798 40.8031 221.398 42.8031V5.20312Z" fill="#00A84F"/>
<path d="M234.797 5.20312V42.8031C245.197 39.1031 250.597 27.7031 246.897 17.3031C244.897 11.6031 240.497 7.20312 234.797 5.20312Z" fill="#ED3726"/>
<path d="M208.697 19.2036C211.297 8.50357 222.197 2.00357 232.897 4.60357C243.597 7.20357 250.097 18.1036 247.497 28.8036C244.897 39.5036 233.997 46.0036 223.297 43.4036C212.597 40.7036 206.097 29.9036 208.697 19.2036Z" fill="#F1F1F2"/>
<path d="M221.398 5.20312C210.998 8.90313 205.598 20.3031 209.298 30.7031C211.298 36.3031 215.798 40.8031 221.398 42.8031V5.20312Z" fill="#223C72"/>
<path d="M234.797 5.20312V42.8031C245.197 39.1031 250.597 27.7031 246.897 17.3031C244.897 11.6031 240.497 7.20312 234.797 5.20312Z" fill="#ED3726"/>
<path d="M208.697 19.2036C211.297 8.50357 222.197 2.00357 232.897 4.60357C243.597 7.20357 250.097 18.1036 247.497 28.8036C244.897 39.5036 233.997 46.0036 223.297 43.4036C212.597 40.7036 206.097 29.9036 208.697 19.2036Z" fill="#ED3726"/>
<path d="M209.297 17.2966H246.897C243.197 6.8966 231.797 1.49661 221.397 5.19661C215.797 7.19661 211.297 11.5966 209.297 17.2966Z" fill="#ED3726"/>
<path d="M247.701 28.1031V27.8031V27.5031V27.1031V26.7031V26.4031V26.1031V25.8031V25.4031V25.0031V23.6031V22.8031V22.5031V22.2031V21.9031C247.701 21.6031 247.601 21.4031 247.601 21.1031V20.7031V20.4031V20.1031C247.601 19.9031 247.601 19.8031 247.501 19.7031C247.501 19.6031 247.401 19.5031 247.401 19.4031C247.301 18.8031 247.101 18.2031 246.901 17.7031H209.301C209.101 18.3031 208.901 19.0031 208.701 19.6031C208.101 22.2031 207.901 24.9031 208.401 27.5031V27.8031V28.2031V28.5031V28.8031V29.5031C208.501 29.6031 208.501 29.7031 208.601 29.7031C208.601 29.8031 208.701 30.0031 208.701 30.0031C208.701 30.1365 208.734 30.2365 208.801 30.3031C208.801 30.4365 208.834 30.5365 208.901 30.6031C208.901 30.7365 208.934 30.8365 209.001 30.9031V31.1031H246.901C246.901 31.0031 247.001 30.6031 247.001 30.6031C247.101 30.4031 247.101 30.3031 247.101 30.1031C247.101 29.9031 247.201 29.7031 247.201 29.6031C247.201 29.3031 247.301 29.2031 247.301 29.0031C247.301 28.8031 247.401 28.8031 247.401 28.7031V28.4031" fill="#FFD201"/>
<path d="M269 44C280.046 44 289 35.0457 289 24C289 12.9543 280.046 4 269 4C257.954 4 249 12.9543 249 24C249 35.0457 257.954 44 269 44Z" fill="#D80027"/>
<path d="M259.902 16.2031L261.702 21.5031H267.302L262.702 24.8031L264.502 30.1031L259.902 26.8031L255.402 30.1031L257.202 24.8031L252.602 21.5031H258.202L259.902 16.2031Z" fill="#FFDA44"/>
<path d="M272.705 35L271.405 33.4L269.405 34.1L270.605 32.4L269.305 30.7L271.305 31.3L272.405 29.5L272.505 31.6L274.605 32.1L272.605 32.9L272.705 35Z" fill="#FFDA44"/>
<path d="M275.305 30.2L276.005 28.2L274.305 27H276.305L277.005 25L277.605 27L279.705 26.9L278.105 28.2L278.705 30.2L277.005 29L275.305 30.2Z" fill="#FFDA44"/>
<path d="M278.9 18.7031L278 20.6031L279.5 22.0031L277.4 21.7031L276.5 23.6031L276.1 21.5031L274 21.2031L275.9 20.3031L275.5 18.2031L277 19.7031L278.9 18.7031Z" fill="#FFDA44"/>
<path d="M272.803 13L272.603 15.1L274.603 15.9L272.503 16.4L272.403 18.4L271.303 16.7L269.203 17.2L270.603 15.6L269.503 13.8L271.403 14.6L272.803 13Z" fill="#FFDA44"/>
<path d="M310.102 44C321.147 44 330.102 35.0457 330.102 24C330.102 12.9543 321.147 4 310.102 4C299.056 4 290.102 12.9543 290.102 24C290.102 35.0457 299.056 44 310.102 44Z" fill="#757575"/>
<path fill-rule="evenodd" clip-rule="evenodd" d="M310.498 23.0016L318.898 14.6016L320.098 15.7016L311.598 24.2016L320.098 32.6016L318.898 33.8016L310.498 25.3016L301.998 33.8016L300.898 32.6016L309.298 24.2016L300.898 15.7016L301.998 14.6016L310.498 23.0016Z" fill="white"/>
<path d="M23.5 89C12.5 89 3.5 80 3.5 69C3.5 58 12.5 49 23.5 49C34.5 49 43.5 58 43.5 69C43.5 80 34.5 89 23.5 89Z" fill="#3E5C9A"/>
<path d="M20.2969 81.4031H25.1969V69.1031H28.5969L28.9969 65.0031H25.1969V62.7031C25.1969 61.7031 25.3969 61.4031 26.2969 61.4031H28.9969V57.2031H25.5969C21.9969 57.2031 20.2969 58.8031 20.2969 61.9031V65.0031H17.7969V69.1031H20.2969V81.4031Z" fill="white"/>
<path d="M64.6016 89C53.6016 89 44.6016 80 44.6016 69C44.6016 58 53.6016 49 64.6016 49C75.6016 49 84.6016 58 84.6016 69C84.6016 80 75.7016 89 64.6016 89Z" fill="#DF4B38"/>
<path d="M68.9017 69.3001H60.8017V71.6001H66.2017C65.8017 74.2001 63.6017 76.2001 60.9017 76.2001C58.2017 76.2001 54.6017 73.4001 54.6017 69.8001C54.6017 66.2001 57.4017 63.5001 61.0017 63.5001C64.6017 63.5001 64.1017 64.1001 65.3017 65.2001L67.1017 63.7001C63.7017 60.3001 58.2017 60.4001 54.8017 63.7001C51.4017 67.0001 51.5017 72.6001 54.8017 76.0001C56.4017 77.6001 58.6017 78.5001 60.9017 78.5001C65.5017 78.5001 68.8017 75.0001 68.8017 70.2001V69.2001L68.9017 69.3001Z" fill="white"/>
<path d="M80.5031 69.4H77.2031V66H75.1031V69.4H71.7031V71.5H75.1031V74.8H77.2031V71.5H80.5031V69.4Z" fill="white"/>
<path d="M105.797 89C94.7969 89 85.7969 80 85.7969 69C85.7969 58 94.7969 49 105.797 49C116.797 49 125.797 58 125.797 69C125.797 80 116.897 89 105.797 89Z" fill="#117BB8"/>
<path d="M102.6 63.7969H98.5V77.1969H102.6V63.7969Z" fill="white"/>
<path d="M98.6031 59.1031C100.003 59.1031 101.103 58.0031 101.103 56.7031C101.103 55.4031 100.003 54.2031 98.7031 54.2031C97.4031 54.2031 96.2031 55.3031 96.2031 56.6031C96.2031 58.0031 97.2031 59.1031 98.6031 59.1031Z" fill="white"/>
<path d="M109.297 70.1984C109.297 68.2984 110.197 67.1984 111.797 67.1984C113.397 67.1984 114.097 68.2984 114.097 70.1984V77.1984H118.197V68.6984C118.197 65.0984 116.197 63.3984 113.297 63.3984C110.397 63.3984 110.197 64.1984 109.297 65.5984V63.7984H105.297V77.1984H109.297V70.1984Z" fill="white"/>
<path d="M146.797 89C135.797 89 126.797 80 126.797 69C126.797 58 135.797 49 146.797 49C157.797 49 166.797 58 166.797 69C166.797 80 157.897 89 146.797 89Z" fill="#29A9E1"/>
<path d="M138.102 75.0008C143.902 78.7008 151.602 77.0008 155.302 71.2008C156.702 69.1008 157.402 66.5008 157.202 64.0008C158.102 63.4008 158.802 62.6008 159.402 61.7008C158.602 62.0008 157.802 62.3008 156.902 62.3008C157.802 61.8008 158.502 60.9008 158.802 59.9008C157.902 60.4008 157.002 60.8008 156.002 61.0008C154.402 59.2008 151.602 59.1008 149.802 60.8008C148.602 61.9008 148.202 63.5008 148.502 65.0008C145.002 64.8008 141.702 63.2008 139.502 60.4008C138.302 62.4008 138.902 65.0008 140.902 66.2008C140.202 66.2008 139.502 66.0008 138.902 65.7008C138.902 67.8008 140.302 69.6008 142.402 70.0008C141.702 70.2008 141.102 70.2008 140.402 70.0008C141.002 71.8008 142.602 73.0008 144.502 73.0008C142.702 74.5008 140.402 75.1008 138.102 74.9008V75.0008Z" fill="white"/>
<path d="M186.2 72.2H187.4V78.5H186.2V77.8C186 78.1 185.7 78.3 185.5 78.5C184.8 78.8 184 78.8 184 77.5V72.2H185.2V77C185.2 77.3 185.2 77.5 185.5 77.5C185.8 77.5 186 77.2 186.2 77V72.2ZM187.3 65.3C187.6 65.3 187.8 65 187.8 64.6V61.4C187.8 61.1 187.6 60.7 187.3 60.7C187 60.7 186.8 61 186.8 61.4V64.6C186.7 65 187 65.3 187.3 65.3ZM184 70H180V71.2H181.3V78.5H182.6V71.2H183.9V70H184ZM191.8 73.7V77.2C191.8 78 191.5 78.5 190.8 78.5C190.1 78.5 190 78.3 189.6 78V78.5H188.4V70H189.6V72.8C189.9 72.5 190.3 72.1 190.6 72.1C191.7 72.1 191.8 72.8 191.8 73.7ZM190.7 73.8C190.7 73.6 190.7 73.5 190.5 73.3C190.3 73.1 190.2 73.1 189.8 73.1L189.6 73.3V77.3L189.9 77.5C190.1 77.7 190.4 77.7 190.6 77.5C190.6 77.3 190.8 77.3 190.8 77V73.8H190.7ZM208 69C208 80 199 89 188 89C177 89 168 80 168 69C168 58 177 49 188 49C199 49 208 58 208 69ZM190.2 65.2C190.2 65.9 190.4 66.4 191 66.4C191.6 66.4 191.8 66.2 192.5 65.6V66.3H193.7V59.6H192.5V64.6C192.3 64.8 192 65.1 191.8 65.1C191.3 65.3 191.3 65.1 191.3 64.9V59.7H190.1V65.2H190.2ZM185.5 61.5V64.8C185.5 66 186.2 66.6 187.3 66.6C188.4 66.6 189.1 65.9 189.1 64.8V61.5C189.1 60.5 188.3 59.7 187.3 59.7C186.2 59.7 185.5 60.3 185.5 61.5ZM180.8 57.3L182.5 62.6V66.3H183.8V62.6L185.5 57.3H184.2L183.2 61L182.4 57.3H180.8ZM197.7 74.3C197.7 70 197.4 68.3 194.7 68.1C192.2 67.9 183.9 67.9 181.4 68.1C178.7 68.3 178.4 69.9 178.4 74.3C178.4 78.7 178.7 80.3 181.4 80.5C183.9 80.7 192.2 80.7 194.7 80.5C197.3 80.3 197.7 78.7 197.7 74.3ZM196.2 74V75.7H193.9V76.9C193.9 77.4 193.9 77.7 194.4 77.7C194.9 77.7 194.9 77.4 194.9 76.9V76.4H196.1V76.9C196.1 78.1 195.6 78.9 194.3 78.9C193 78.9 192.6 78.1 192.6 76.9V74C192.6 72.8 193.3 72.2 194.4 72.2C195.7 72 196.2 72.8 196.2 74ZM195 73.8C195 73.3 194.8 73.1 194.5 73.1C194 73.1 194 73.4 194 73.8V74.5H195V73.8Z" fill="#FF0000"/>
<path d="M25.4031 121.398L18.0031 113.998C16.6031 114.898 15.0031 115.398 13.2031 115.398C8.20312 115.398 4.20312 111.398 4.20312 106.398C4.20312 101.398 8.20312 97.3984 13.2031 97.3984C18.2031 97.3984 22.2031 101.398 22.2031 106.398C22.2031 111.398 21.7031 109.798 20.8031 111.198L28.2031 118.598L25.4031 121.398ZM13.2031 113.398C17.1031 113.398 20.2031 110.298 20.2031 106.398C20.2031 102.498 17.1031 99.3984 13.2031 99.3984C9.30312 99.3984 6.20312 102.498 6.20312 106.398C6.20312 110.298 9.40313 113.398 13.2031 113.398Z" fill="#BB2127"/>
<path d="M461.403 118.398L454.003 110.998C452.603 111.898 451.003 112.398 449.203 112.398C444.203 112.398 440.203 108.398 440.203 103.398C440.203 98.3984 444.203 94.3984 449.203 94.3984C454.203 94.3984 458.203 98.3984 458.203 103.398C458.203 108.398 457.703 106.798 456.803 108.198L464.203 115.598L461.403 118.398ZM449.203 110.398C453.103 110.398 456.203 107.298 456.203 103.398C456.203 99.4984 453.103 96.3984 449.203 96.3984C445.303 96.3984 442.203 99.4984 442.203 103.398C442.203 107.298 445.403 110.398 449.203 110.398Z" fill="white"/>
<path d="M52.2031 99C55.0031 99 57.2031 101.2 57.2031 104C57.2031 106.8 55.0031 109 52.2031 109C49.4031 109 47.2031 106.8 47.2031 104C47.2031 101.2 49.5031 99 52.2031 99ZM52.2031 97C48.3031 97 45.2031 100.1 45.2031 104C45.2031 107.9 48.3031 111 52.2031 111C56.1031 111 59.2031 107.9 59.2031 104C59.2031 100.1 56.1031 97 52.2031 97ZM58.6031 110.4C58.1031 110.9 57.5031 111.3 56.9031 111.7C59.8031 113.6 61.3031 116.8 61.9031 119H42.5031C43.1031 116.7 44.6031 113.5 47.5031 111.6C46.9031 111.2 46.3031 110.8 45.8031 110.3C41.5031 113.4 40.2031 118.8 40.2031 121H64.2031C64.2031 118.9 62.8031 113.4 58.6031 110.4Z" fill="#BB2127"/>
<path d="M143.198 107.097L130.798 97.0969C128.798 95.4969 129.998 92.2969 132.498 92.2969H157.298C159.798 92.2969 160.998 95.4969 158.998 97.0969L146.598 107.097C145.598 107.897 144.198 107.897 143.198 107.097ZM143.198 111.397L129.298 100.097C127.498 98.6969 124.898 99.8969 124.898 102.197V119.597C124.898 121.097 126.098 122.297 127.598 122.297H161.598C163.398 122.297 164.898 120.797 164.898 118.997V102.197C164.898 99.8969 162.298 98.6969 160.498 100.097L146.598 111.397C145.598 112.197 144.198 112.197 143.198 111.397Z" fill="#BB2127"/>
<path d="M201 104H177V100H201V104ZM201 108H177V112H201V108ZM201 116H177V120H201V116Z" fill="#BB2127"/>
<path d="M31.2771 125.004L4.26562 152.016L8.084 155.834L35.0955 128.823L31.2771 125.004Z" fill="#FBCA19"/>
<path d="M38.9646 132.707L11.9531 159.719L15.7715 163.537L42.783 136.526L38.9646 132.707Z" fill="#DF001A"/>
<path d="M46.6521 140.504L19.6406 167.516L23.459 171.334L50.4705 144.323L46.6521 140.504Z" fill="#088830"/>
<path d="M54.3396 148.207L27.3281 175.219L31.2172 179.108L58.2287 152.096L54.3396 148.207Z" fill="#646EAA"/>
<path d="M89.8984 140.3L89.3984 140C89.3984 140.1 89.3984 140.2 89.5984 140.3C89.5984 140.3 89.7984 140.3 89.8984 140.3Z" fill="#F9A51A"/>
<path d="M88.1016 139.398C88.3016 139.498 88.4016 139.498 88.6016 139.598C88.4016 139.598 88.2016 139.398 88.1016 139.398Z" fill="#F9A51A"/>
<path d="M88.6984 139.803C88.6984 139.736 88.6984 139.703 88.6984 139.703H88.3984C88.4984 139.703 88.5984 139.703 88.5984 139.803" fill="#F9A51A"/>
<path d="M88.0024 140.701V140.401C87.6024 140.401 87.2024 140.301 86.8024 140.201C86.6024 140.201 86.5024 139.801 86.3024 139.801C85.9024 139.701 84.7024 140.001 85.4024 140.101C86.2024 140.201 86.9024 140.401 87.7024 140.601C88.4024 140.701 89.0024 140.901 89.6024 141.201C89.8024 141.301 89.9024 141.401 90.0024 141.601C90.0024 141.401 89.7024 141.201 89.5024 141.001C89.2024 140.701 88.6024 140.901 88.1024 140.701" fill="#F9A51A"/>
<path d="M92.0984 143.703C92.0984 143.603 92.0984 143.503 91.8984 143.403C91.8984 142.903 91.8984 142.503 91.3984 142.203V142.503C91.3984 142.703 91.5984 142.703 91.5984 142.503C91.5984 143.103 91.7984 143.503 91.8984 144.003C91.8984 144.003 92.0984 143.903 92.0984 143.703Z" fill="#F9A51A"/>
<path d="M91.9984 144.198L91.8984 143.898V143.998L91.9984 144.198Z" fill="#F9A51A"/>
<path d="M86.0012 139C84.8012 138.7 83.6012 138.6 82.4012 138.5C82.4012 138.6 82.2012 138.6 82.1012 138.6C82.1012 138.5 81.9012 138.5 81.8012 138.5H81.1012V138.6C81.1012 138.6 81.1012 138.7 81.3012 138.7C81.3012 138.7 81.3012 138.6 81.1012 138.6C80.9012 138.6 80.9012 138.5 80.8012 138.5C80.6012 138.5 80.5012 138.6 80.3012 138.6C80.5012 138.5 80.6012 138.5 80.8012 138.5H81.2011C80.8011 138.5 80.4012 138.5 80.0012 138.6H79.8012C79.5012 138.7 79.3012 138.8 79.1012 138.7H78.8012C78.5012 138.7 78.2012 138.8 77.9012 138.8L77.4012 139.1H77.2011C77.2011 139.1 77.0012 139.1 76.9012 139.1C77.1012 139.2 77.2012 139.2 77.4012 139.2C77.6012 139.3 77.7012 138.8 78.0012 139C77.7012 138.7 77.6012 139.3 77.4012 139.2C77.2012 139.2 77.1012 139.1 76.9012 139.1C76.6012 139.2 76.3012 139.3 76.0012 139.3C76.3012 139.1 76.6012 139 76.9012 139.1C76.9012 139 77.1011 139 77.2011 138.9H77.4012C77.4012 139 77.9012 138.7 77.9012 138.7C77.3012 138.8 76.8011 139 76.2011 139.1C74.3011 139.6 72.6012 140.7 71.4012 142.1C70.0012 143.7 69.8012 146.1 70.9012 148C72.2012 149.8 74.2012 151.2 76.3012 151.8C80.5012 153.1 84.4012 152.4 88.9012 151.1C90.0012 150.7 91.1012 150 91.9012 149.1C92.8012 148.2 93.5012 147 93.8012 145.7C93.5012 142.8 91.9012 144.5 91.9012 144.4C91.4012 144.8 91.1012 145.3 90.8012 145.8C90.4012 146.5 89.8012 147.1 89.0012 147.4C90.4012 146.7 88.7012 148.9 86.8012 148.7C84.5012 148.4 81.9011 149.9 79.2011 149.3C78.6011 149.2 77.9011 149.1 77.2011 148.9C73.6011 147.6 71.2011 145.4 74.2011 142.9C74.9011 142.2 75.6012 141.6 76.4012 141.1C77.0012 140.8 77.6012 140.7 78.3012 140.6C79.2012 140.4 79.9012 140.1 80.6012 139.9C79.8012 140 79.1012 140.2 78.3012 140.5C77.7012 140.7 78.6012 140 79.0012 139.8C79.2012 139.7 79.5011 140 79.7011 139.9C80.1011 139.8 80.4012 139.7 80.8012 139.5C81.0012 139.4 81.0012 139.7 81.1012 139.7C81.7012 139.6 82.1012 139.2 82.5012 139.3C82.9012 139.4 83.0012 139.4 83.3012 139.5C83.5012 139.5 83.6012 139.6 83.8012 139.6H84.1012C84.1012 139.4 84.1012 139.3 84.1012 139.1C84.3012 139.1 84.4012 139.2 84.6012 139.3C84.4012 139.2 84.3012 139.2 84.1012 139.1C84.1012 139.2 84.1012 139.3 84.1012 139.5C84.9012 139.4 85.8012 139.4 86.6012 139.5C86.1012 139.4 85.6011 139.2 85.2011 139C85.4011 139.1 85.4011 139.2 85.2011 139.2L85.0012 139C85.4012 138.9 85.9012 139 86.3012 139.3H86.6012C86.6012 139.4 86.6012 139.5 86.6012 139.6H86.9012C86.5012 139.3 86.3012 139.1 86.0012 138.9" fill="#F9A51A"/>
<path d="M80.9016 138.602H81.1016H80.1016C80.3016 138.802 80.6016 138.602 80.9016 138.602Z" fill="#F9A51A"/>
<path d="M82.9031 142.1V141.5C82.9031 141 82.9031 140.5 82.9031 140C82.9031 138.1 83.1031 136.2 82.9031 134.2V132.8C82.9031 131.8 82.9031 130.8 83.2031 129.9C83.4031 129.1 83.5031 128.3 83.5031 127.5C83.5031 126.7 83.3031 126.4 82.8031 126.1C82.5031 125.8 82.2031 125.6 81.8031 125.5C81.6031 125.5 81.2031 126 80.6031 126.9C80.2031 127.4 79.9031 128 79.7031 128.6C79.7031 128.9 79.7031 129.2 79.9031 129.5C80.1031 130.4 80.1031 131.4 80.1031 132.3C80.1031 133.2 80.1031 132.8 80.1031 133V154.4C80.1031 155.1 80.1031 155.8 80.1031 156.7C80.1031 159.9 80.1031 162.1 80.4031 163.1C80.4031 164.2 80.6031 165.3 80.6031 166.5C81.6031 163.2 82.3031 159.9 82.7031 156.5C82.7031 156 82.7031 155.5 82.9031 155C82.4031 150.7 82.4031 146.4 82.9031 142.1Z" fill="#231F20"/>
<path d="M79.2031 149.503C80.7031 149.503 82.2031 149.403 83.6031 149.203L83.9031 152.403C83.9031 152.403 79.9031 153.003 78.7031 152.403L79.2031 149.503Z" fill="#F9A51A"/>
<path d="M65.6031 163.001V162.501C65.1031 159.701 65.0031 156.901 64.7031 153.701C64.5031 151.501 64.5031 149.001 64.5031 146.801C64.5031 152.101 64.8031 157.301 65.6031 162.501C65.6031 161.901 65.6031 161.301 65.6031 160.701C65.4031 159.001 65.3031 157.401 65.2031 155.701H65.0031C65.0031 151.001 64.5031 146.501 65.0031 141.801C65.0031 142.001 65.0031 141.901 65.0031 141.801C65.0031 141.801 65.0031 141.801 65.0031 142.101V141.801C65.0031 146.401 65.0031 150.801 65.2031 155.401C64.9031 148.201 64.9031 141.101 65.2031 133.901C65.2031 133.601 65.2031 132.901 65.2031 132.601C65.2031 131.301 65.2031 130.101 65.2031 128.801C64.9031 129.101 64.4031 127.801 64.4031 130.401H64.1031C64.1031 127.901 63.2031 126.901 62.9031 129.401C62.5031 132.201 62.6031 136.001 62.4031 139.501C62.2031 142.101 62.2031 144.601 62.2031 147.101C62.4031 150.601 62.4031 154.401 62.8031 157.901C62.8031 159.301 63.0031 160.701 63.2031 162.001C63.2031 162.501 63.4031 162.501 63.6031 162.401C63.4031 160.301 63.3031 158.201 63.1031 156.201C62.9031 153.701 62.8031 151.201 62.7031 148.601C62.9031 151.101 63.0031 153.601 63.1031 156.201C63.1031 158.201 63.4031 160.301 63.7031 162.301C63.7031 162.201 63.9031 162.101 64.0031 162.201C64.0031 162.301 64.0031 162.801 64.0031 163.201C64.4031 164.401 64.8031 164.101 65.0031 163.401C65.1031 163.401 65.2031 163.201 65.2031 163.001" fill="#EC1C24"/>
<path d="M78.0037 129.203H77.8037C76.5037 129.103 75.3037 129.003 74.0037 128.903H71.1037C73.3037 128.803 75.6037 129.003 77.8037 129.003C77.6037 128.803 77.3037 128.703 77.1037 128.603C76.4037 128.503 75.6037 128.503 74.9037 128.403V128.603C72.9037 128.303 71.0037 128.703 69.0037 128.503V128.403C69.0037 128.336 69.0037 128.336 69.0037 128.403H74.8037C71.7037 128.303 68.8037 128.303 65.7037 128.403H65.2037C64.7037 128.503 64.2037 128.603 63.6037 128.603C63.6037 128.903 63.2037 129.403 64.3037 129.303V129.503C63.3037 129.803 62.8037 130.503 63.9037 130.703C65.3037 130.803 66.7037 130.803 68.1037 130.703C69.1037 130.803 70.2037 130.803 71.2037 130.703C72.6037 130.503 74.1037 130.603 75.6037 130.603C77.1037 130.603 76.9037 130.903 77.2037 130.803C77.2037 130.803 77.4037 130.703 77.4037 130.503C76.6037 130.303 75.7037 130.203 74.9037 130.203C74.1037 130.203 72.9037 130.203 71.8037 130.303C72.8037 130.203 73.8037 130.103 74.9037 130.203C75.7037 130.203 76.6037 130.303 77.4037 130.403C77.4037 130.303 77.4037 130.203 77.4037 130.103H77.8037C78.4037 130.103 78.3037 129.603 78.1037 129.303H77.9037" fill="#EC1C24"/>
<path d="M63.601 163.203H63.801C65.001 163.203 66.101 163.303 67.401 163.303H70.201C68.101 163.403 65.801 163.203 63.701 163.303C63.901 163.503 64.201 163.603 64.401 163.603C65.101 163.603 65.801 163.603 66.501 163.703V163.503C68.401 163.803 70.301 163.403 72.201 163.603V163.703V163.803C72.201 163.803 72.201 163.77 72.201 163.703H66.601C69.601 163.803 72.401 163.903 75.401 163.803H76.001C76.501 163.703 77.001 163.603 77.501 163.603C77.501 163.303 77.901 162.803 76.901 162.903V162.703C77.901 162.403 78.301 161.703 77.301 161.503C76.301 161.303 74.601 161.503 73.201 161.403C72.201 161.303 71.201 161.303 70.201 161.403C68.801 161.503 67.301 161.403 65.901 161.503C65.401 161.503 64.601 161.203 64.301 161.403C64.301 161.403 64.101 161.603 64.101 161.703C64.901 161.803 65.701 161.903 66.601 161.903C67.501 161.903 68.601 161.903 69.601 161.803C68.601 161.903 67.601 162.003 66.601 161.903C65.801 161.903 65.001 161.903 64.201 161.803V162.103H63.801C63.501 162.203 63.301 162.403 63.401 162.703C63.401 162.803 63.401 162.903 63.601 163.003V163.203Z" fill="#EC1C24"/>
<path d="M100.697 128.798H100.497C99.297 128.998 98.097 128.898 96.797 128.998C95.797 129.098 94.897 129.098 93.897 128.998C96.097 128.998 98.297 128.898 100.497 128.698C100.297 128.598 99.997 128.498 99.697 128.498H97.597V128.698C95.597 128.498 93.797 128.898 91.797 128.598V128.498C93.797 128.598 95.597 128.598 97.497 128.498C94.497 128.598 91.597 128.398 88.397 128.398H87.897C87.397 128.498 86.797 128.598 86.297 128.598C86.297 128.898 85.897 129.398 86.997 129.298V129.498C85.897 129.798 85.497 130.498 86.597 130.698C87.697 130.898 89.397 130.698 90.797 130.798C91.897 130.898 92.897 130.898 93.997 130.898C95.497 130.798 96.997 130.898 98.497 130.598C99.097 130.698 99.697 130.698 100.197 130.598C100.197 130.598 100.397 130.398 100.397 130.298H97.797C98.897 130.298 99.497 130.198 100.397 130.198V129.898H100.797C101.297 129.598 101.197 129.298 100.797 128.998L100.597 128.798" fill="#EC1C24"/>
<path d="M85.9035 164.097H86.6035C90.7035 163.997 94.8035 164.197 99.4035 164.097H100.303L101.003 163.397V154.297C101.003 156.097 101.003 157.997 101.003 159.897V163.297C101.203 163.197 99.5035 164.697 100.203 163.997H97.9035C94.0035 163.997 90.2035 163.997 86.6035 164.097C87.5035 164.297 88.3035 164.297 89.2035 164.397H96.5035V164.197C97.4035 164.197 98.2035 164.297 99.1035 164.297H100.203C99.2035 165.197 101.503 163.097 101.303 163.297V157.097C101.303 153.897 101.103 150.597 101.303 147.297C101.303 147.497 101.303 147.397 101.303 147.297C101.303 147.297 101.303 147.297 101.303 147.697C101.303 147.43 101.303 147.297 101.303 147.297C101.303 150.597 101.303 153.797 101.503 156.997V163.297L100.303 164.497C100.803 163.997 99.1035 165.697 101.503 163.397V162.897C101.503 161.597 101.503 160.397 101.503 159.097C101.503 156.597 101.503 154.097 101.503 151.497C101.503 146.497 101.303 141.397 101.503 136.197C101.503 135.797 101.503 134.897 101.503 134.397C101.503 132.597 101.503 130.897 101.503 129.097C101.203 129.497 100.803 127.697 100.603 131.297H100.403C100.403 127.697 99.8035 126.297 99.2035 129.897C98.6035 133.897 98.7035 139.297 98.7035 144.197C98.7035 149.097 98.7035 151.297 98.9035 154.897C98.9035 157.297 98.9035 159.897 98.9035 162.397V163.297C97.9035 164.297 100.303 161.997 100.003 162.197H96.9035C95.6035 162.197 94.3035 162.197 93.1035 162.297C91.3035 162.297 88.1035 162.097 87.1035 162.197C86.4035 162.297 86.4035 162.397 86.5035 162.497C89.5035 162.497 92.5035 162.597 95.5035 162.597H99.9035L99.2035 163.297V162.297C99.2035 160.497 99.2035 158.797 99.2035 156.997C99.4035 158.697 99.4035 160.397 99.4035 162.197V163.197L100.103 162.597H98.4035C98.4035 162.697 95.6035 162.697 95.6035 162.697C92.6035 162.697 89.7035 162.597 86.7035 162.697C86.7035 162.797 86.9035 162.897 86.7035 162.997H85.4035C83.6035 163.297 84.0035 163.597 84.9035 163.897L85.7035 164.097" fill="#EC1C24"/>
<path d="M126.102 137.3C126.302 136.3 126.302 135.4 126.102 134.4C126.502 135.4 126.802 136.4 126.902 137.5C127.202 135.8 126.102 132.7 126.102 132.7C127.102 134.1 128.202 138.5 128.202 138.5C128.102 136.2 126.102 131 126.102 131C127.402 132.2 130.102 140.7 130.102 140.7C129.702 136.2 126.102 129.1 126.102 129.1C128.802 131.9 132.202 143.2 132.202 143.2C131.502 136.8 126.202 127.6 126.102 127.3C131.502 135 133.702 144.7 133.702 144.7C133.602 137.7 126.102 125.4 126.102 125.4C130.802 131.4 133.902 138.5 135.202 146C136.002 137.8 127.402 125.4 127.402 125.4C137.602 138.2 136.702 148 136.702 148C138.602 139.8 128.802 125 128.802 125C133.902 130.3 137.102 137.1 138.002 144.4C138.302 149 137.402 153.5 135.302 157.6C132.702 162.7 126.002 165.4 126.002 165.4C126.002 165.4 119.302 162.7 116.702 157.6C114.602 153.5 113.702 149 114.002 144.4C114.902 137.1 118.102 130.3 123.202 125C123.202 125 113.502 139.8 115.402 148C115.402 148 114.502 138.2 124.702 125.4C124.702 125.4 116.202 137.8 116.902 146C118.202 138.5 121.302 131.4 126.002 125.4C126.002 125.4 118.502 137.7 118.402 144.7C118.402 144.7 120.602 135 126.002 127.3C126.002 127.6 120.602 136.8 119.902 143.2C119.902 143.2 123.302 131.9 126.002 129.1C126.002 129.1 122.302 136.2 122.002 140.7C122.002 140.7 124.702 132.3 126.002 131C126.002 131 123.902 136.2 123.902 138.5C123.902 138.5 125.002 134.2 126.002 132.7C126.002 132.7 124.902 135.8 125.202 137.5C125.202 136.4 125.602 135.4 126.002 134.4C125.902 135.4 125.902 136.3 126.002 137.3H126.102Z" fill="#1D9549"/>
<path d="M126.103 162.802C122.003 162.802 118.703 159.302 118.703 153.202C118.703 147.102 122.003 140.602 126.103 140.602C130.203 140.602 133.503 147.002 133.503 153.202C133.503 159.402 130.203 162.802 126.103 162.802Z" fill="white"/>
<path d="M126.103 162.097C122.303 162.097 119.203 158.797 119.203 153.097C119.203 147.397 122.303 141.297 126.103 141.297C129.903 141.297 133.003 147.297 133.003 153.097C133.003 158.897 129.903 162.097 126.103 162.097Z" fill="#F69333"/>
<path d="M128.597 159.603C127.397 160.003 126.997 159.503 126.097 159.503C125.197 159.503 124.897 160.103 123.597 159.603C121.797 159.003 120.797 155.903 120.797 153.703C120.797 150.403 123.197 148.703 126.097 148.703C128.997 148.703 131.397 150.403 131.397 153.703C131.397 156.003 130.397 159.003 128.597 159.603Z" fill="white"/>
<path d="M127.797 158.9C126.597 158.9 126.497 156.7 126.097 156.7C125.697 156.7 125.697 159 124.597 159C122.897 159 121.297 156.4 121.297 153.9C121.297 151.4 123.297 149.5 126.097 149.5C128.897 149.5 130.897 150.9 130.897 153.9C130.897 156.3 129.297 158.9 127.797 158.9Z" fill="#262265"/>
<path d="M191.798 148.803C189.898 147.303 187.698 146.203 185.398 145.603C186.198 144.703 186.898 143.703 187.398 142.603C187.398 142.503 190.998 146.803 190.998 146.803C191.798 147.603 192.198 148.203 191.798 148.803Z" fill="#36A862"/>
<path d="M171.903 138.097C171.803 138.397 171.703 138.697 171.603 138.997C171.503 138.597 171.403 138.197 171.303 137.897C170.803 136.497 170.103 135.297 169.203 134.097C169.603 131.197 170.303 128.497 171.503 125.797L171.603 125.997C172.003 126.797 172.303 127.697 172.603 128.497C173.203 130.397 173.703 132.397 173.903 134.397C173.003 135.597 172.303 136.797 171.903 138.097Z" fill="#8061A1"/>
<path d="M163.698 137.398C163.798 138.398 163.998 139.398 164.298 140.398C164.598 141.398 165.098 142.298 165.598 143.098C165.298 142.898 164.998 142.798 164.598 142.598C163.798 142.298 162.998 141.998 162.098 141.898C161.598 140.898 161.298 139.798 161.098 138.698C160.998 137.998 160.898 137.398 160.898 136.698V136.398C161.898 136.598 162.798 136.898 163.698 137.398Z" fill="#8061A1"/>
<path d="M163.703 136.497C162.903 136.097 162.103 135.797 161.203 135.597L164.403 131.797C163.903 133.297 163.703 134.897 163.703 136.497Z" fill="#36A862"/>
<path d="M161.303 141.703C160.503 141.603 159.803 141.603 159.003 141.703C157.903 141.803 156.803 141.903 155.703 142.203L160.303 136.703C160.303 138.403 160.703 140.103 161.303 141.703Z" fill="#36A862"/>
<path d="M178.303 142.498C177.903 142.698 177.603 142.798 177.203 142.998C177.803 142.098 178.203 141.198 178.603 140.298C178.903 139.398 179.103 138.398 179.203 137.398C180.103 136.998 181.003 136.598 182.003 136.398V136.698C182.003 137.398 181.903 137.998 181.803 138.698C181.603 139.798 181.303 140.798 180.903 141.898C179.903 141.898 179.103 142.198 178.303 142.498Z" fill="#8061A1"/>
<path d="M182.697 136.797L187.297 142.197C185.497 141.697 183.597 141.497 181.797 141.697C182.297 140.097 182.597 138.397 182.697 136.797Z" fill="#36A862"/>
<path d="M179.303 136.497C179.303 134.897 179.103 133.397 178.703 131.797L181.803 135.497C180.903 135.797 180.103 136.197 179.303 136.497Z" fill="#36A862"/>
<path d="M175.398 128L175.798 128.5L177.798 130.9C176.598 131.7 175.498 132.6 174.498 133.7C174.098 130.7 173.198 127.7 171.898 125C173.298 125.3 174.598 127 175.398 128Z" fill="#36A862"/>
<path d="M167.103 128.5L167.503 128C168.303 127 169.703 125.3 171.003 125C169.703 127.6 168.903 130.5 168.403 133.4C167.503 132.4 166.403 131.5 165.203 130.7L167.103 128.5Z" fill="#36A862"/>
<path d="M151.797 146.8L155.397 142.5C155.897 143.7 156.597 144.7 157.397 145.6C155.097 146.2 152.997 147.3 151.097 148.8C150.897 148.3 151.097 147.7 151.797 146.8Z" fill="#36A862"/>
<path d="M160.603 152.697C158.303 152.597 156.103 151.997 154.103 150.897C153.403 150.497 152.703 150.097 152.103 149.597L151.703 149.297C153.603 147.897 155.703 146.897 158.003 146.297C159.103 147.397 160.303 148.297 161.803 148.997C163.303 149.597 164.903 149.997 166.603 149.897H167.503C168.003 149.897 168.503 149.797 168.903 149.797C166.503 151.497 163.603 152.497 160.603 152.697Z" fill="#8061A1"/>
<path d="M171.5 148.103C171.5 148.003 171.4 147.903 171.4 147.903C171.3 147.603 171.1 147.303 171 147.003C171.2 146.403 171.4 145.803 171.5 145.203C171.6 145.803 171.8 146.403 172 147.003C171.8 147.503 171.6 147.903 171.5 148.103Z" fill="#36A862"/>
<path d="M190.902 149.603C190.302 150.103 189.602 150.503 188.902 150.803C186.902 151.903 184.702 152.503 182.402 152.603C179.402 152.503 176.602 151.503 174.102 149.703C174.502 149.803 175.002 149.803 175.402 149.803H176.302C177.902 149.803 179.602 149.503 181.102 148.903C182.502 148.303 183.802 147.303 184.902 146.203C187.202 146.703 189.402 147.803 191.302 149.203L190.902 149.603Z" fill="#8061A1"/>
<path d="M156.398 142.797L156.598 143.097C156.898 143.697 157.298 144.197 157.698 144.697C158.898 146.297 160.398 147.497 162.198 148.297C163.898 148.997 165.698 149.297 167.498 149.097C168.398 148.997 169.298 148.897 170.198 148.697V148.397C169.798 147.797 169.398 147.297 168.998 146.797C167.798 145.197 166.298 143.997 164.498 143.197C162.798 142.497 160.998 142.197 159.198 142.397C158.198 142.397 157.298 142.597 156.398 142.797Z" fill="#A4027D"/>
<path d="M165.301 131.602C165.301 131.702 165.201 131.802 165.201 131.902C165.001 132.602 164.801 133.302 164.701 134.002C164.301 136.002 164.401 138.102 165.001 140.102C166.101 142.802 167.901 145.002 170.301 146.602V146.302C170.601 145.602 170.801 144.902 170.901 144.202C171.301 142.202 171.201 140.102 170.601 138.102C169.601 135.402 167.701 133.202 165.301 131.602Z" fill="#A4027D"/>
<path d="M177.9 131.797C175.6 133.397 173.8 135.697 172.7 138.297C172.1 140.197 171.9 142.297 172.2 144.297C172.3 144.997 172.4 145.597 172.6 146.297V146.597C175 144.997 176.8 142.697 177.9 140.097C178.5 138.197 178.7 136.097 178.4 134.097C178.3 133.397 178.2 132.797 178 132.097C177.9 131.997 177.9 131.897 177.9 131.797Z" fill="#A4027D"/>
<path d="M172.898 148.801C173.798 149.001 174.698 149.101 175.598 149.201C177.398 149.301 179.198 149.101 180.898 148.401C182.698 147.601 184.198 146.301 185.398 144.801C185.798 144.301 186.198 143.701 186.498 143.201L186.698 142.901C185.798 142.701 184.898 142.601 183.998 142.501C182.198 142.401 180.398 142.601 178.698 143.301C176.898 144.101 175.398 145.401 174.198 146.901C173.798 147.401 173.398 148.001 173.098 148.501L172.898 148.801Z" fill="#A4027D"/>
<path d="M171.503 156.103C172.303 155.203 172.703 154.003 172.803 152.803C172.603 152.103 171.503 148.703 171.503 148.703C171.503 148.703 170.403 152.103 170.203 152.703C170.303 154.003 170.703 155.103 171.503 156.103Z" fill="#36A862"/>
<path d="M167.797 153.103C168.597 152.903 169.297 152.503 169.797 151.903C170.197 151.303 170.497 150.503 170.397 149.703C169.597 149.903 168.897 150.303 168.397 150.903C167.997 151.603 167.797 152.303 167.797 153.103Z" fill="#A4027D"/>
<path d="M175.401 153.103C174.601 152.903 173.901 152.503 173.401 151.903C173.001 151.303 172.701 150.503 172.801 149.703C173.601 149.903 174.301 150.303 174.801 150.903C175.201 151.603 175.401 152.303 175.401 153.103Z" fill="#A4027D"/>
<path d="M243.298 162.197V152.797L243.798 151.197C245.198 149.197 243.798 147.197 242.798 146.397C242.198 145.797 241.598 144.997 241.298 144.197C241.198 143.797 241.098 143.397 240.998 142.897C241.098 142.797 241.198 142.697 241.198 142.497C241.198 142.297 240.998 142.097 240.798 142.097V139.697L241.098 140.197C241.098 140.097 240.798 139.597 240.798 139.597V138.997H240.698V139.497V142.097C240.498 142.097 240.298 142.297 240.298 142.497C240.298 142.697 240.398 142.797 240.498 142.897C240.398 143.297 240.398 143.797 240.198 144.197C239.798 144.997 239.298 145.797 238.698 146.397C237.798 147.197 236.298 149.097 237.698 151.097L238.398 152.697V154.697H238.198L237.998 155.197H237.498V155.697C236.798 155.797 236.198 156.497 236.198 157.197V155.697L236.798 155.097V154.497C237.298 153.997 237.598 153.397 237.598 152.697C237.598 151.497 237.198 150.597 235.498 149.597C234.998 149.297 234.598 148.897 234.398 148.397C234.298 148.297 234.298 148.097 234.298 147.997V147.097C234.298 146.997 234.498 146.697 234.298 146.497C234.198 146.397 234.098 146.297 233.998 146.297V144.597L234.298 144.897C234.298 144.797 233.998 144.497 233.998 144.497V143.997H233.898V144.397L233.598 143.997C233.598 144.097 233.898 144.497 233.898 144.497V146.297C233.698 146.297 233.498 146.597 233.598 146.797C233.598 146.897 233.698 146.997 233.798 147.097V147.997C233.698 148.097 233.598 148.297 233.598 148.397C233.398 148.797 233.098 149.197 232.698 149.397L231.698 144.397L232.398 143.997L231.098 143.397C231.098 143.097 230.998 142.797 230.798 142.597V142.097C230.698 142.097 230.398 140.697 230.398 140.697H229.898L228.398 134.997V134.697L228.698 134.397V133.697L228.398 133.397V132.697L228.798 131.797C229.098 131.497 229.298 131.097 229.198 130.697C229.198 130.097 228.798 129.497 228.298 129.297C228.098 129.097 227.998 128.897 227.898 128.697C227.798 128.497 227.798 128.197 227.798 127.997C227.864 127.997 227.898 127.93 227.898 127.797C227.898 127.797 227.798 127.497 227.598 127.497V125.897L227.798 126.197V125.797C227.698 125.797 227.698 125.297 227.698 125.297H227.598V125.697V127.497C227.498 127.497 227.298 127.497 227.298 127.797C227.298 128.097 227.298 127.997 227.398 127.997C227.398 128.197 227.398 128.497 227.298 128.697C227.198 128.897 226.998 129.197 226.898 129.297C226.298 129.497 225.998 130.097 225.998 130.697C225.998 131.297 226.198 131.497 226.498 131.797L226.898 132.697V133.397L226.598 133.697V134.397L226.898 134.697V134.997L225.398 140.597H225.098L224.798 141.897L224.598 142.097V142.397C224.398 142.597 224.298 142.897 224.298 143.197L222.998 143.797L223.698 144.197V144.897L223.298 144.697C222.698 144.397 222.198 143.897 221.898 143.197C221.798 142.997 221.798 142.697 221.698 142.497V141.397C221.698 141.297 221.898 141.097 221.898 140.897C221.898 140.597 221.698 140.397 221.498 140.397V138.297L221.798 138.697C221.798 138.597 221.498 138.197 221.498 138.197V137.597H221.398V138.097L220.998 137.597C220.998 137.697 221.398 138.197 221.398 138.197V140.497C221.098 140.497 220.998 140.697 220.998 140.997C220.998 141.297 221.098 141.397 221.298 141.497V142.597C221.198 142.797 221.098 143.097 221.098 143.297C220.798 143.897 220.298 144.497 219.698 144.797C217.498 145.997 216.998 147.397 216.998 148.897C216.998 150.397 217.398 150.597 217.998 151.197H217.898C217.898 151.297 218.098 152.097 218.098 152.097H218.298V152.597L218.598 152.797V153.397L218.898 153.597V155.497C218.698 155.597 218.598 155.597 218.498 155.697C218.598 155.397 218.698 155.097 218.698 154.797C218.698 153.197 217.898 151.797 216.498 151.097V150.397L216.698 150.697C216.698 150.597 216.498 150.297 216.498 150.297V149.997H216.398V150.397L215.898 149.997C215.898 150.097 216.198 150.497 216.198 150.497V151.297H216.098C215.498 150.897 215.098 150.397 214.798 149.897C214.598 149.297 214.498 148.797 214.298 148.197V147.197C214.298 147.097 214.498 146.797 214.298 146.597C214.198 146.497 214.098 146.397 213.898 146.397V144.097L214.198 144.497C214.198 144.397 213.898 143.997 213.898 143.997V143.497H213.798V143.897L213.498 143.497C213.498 143.597 213.798 143.997 213.798 143.997V146.397C213.598 146.397 213.398 146.597 213.398 146.897C213.398 147.197 213.498 147.197 213.698 147.297V148.297C213.598 148.597 213.098 149.997 213.098 149.997C212.798 150.597 212.398 150.997 211.798 151.297C210.298 151.997 209.298 153.497 209.398 155.097C209.498 155.997 209.898 156.797 210.698 157.197V157.697L210.898 157.897V158.597L211.198 158.897V162.397" fill="#293895"/>
<path d="M244.6 166.503H210L211.3 163.203H243.3L244.6 166.503Z" fill="#D71921"/>
<path d="M273.999 125.696C262.799 125.696 253.799 134.996 253.899 146.196C253.999 157.396 263.199 166.396 274.399 166.296C285.599 166.196 294.499 157.096 294.499 145.996C294.399 134.696 285.299 125.596 273.999 125.696Z" fill="url(#paint5_linear_4858_8692)"/>
<path d="M272.698 146.198C272.698 146.198 274.298 141.298 273.398 137.398C272.498 133.498 272.098 132.798 272.498 129.898C271.798 131.698 270.898 136.698 271.898 139.198C272.698 141.598 272.698 146.198 272.698 146.198Z" fill="#F1EA37"/>
<path d="M271.8 146.702C271.8 146.702 272.7 141.702 271.2 137.902C269.7 134.102 269.2 133.502 269.2 130.602C268.8 132.402 268.6 137.402 269.9 139.802C271.2 142.202 271.8 146.702 271.8 146.702Z" fill="#F1EA37"/>
<path d="M270.997 146.598C270.997 146.598 270.897 141.598 268.697 137.998C266.497 134.398 265.797 133.798 265.297 130.898C265.197 132.698 265.997 137.698 267.797 139.898C269.197 141.998 270.297 144.198 270.997 146.598Z" fill="#F1EA37"/>
<path d="M270.497 146.698C269.697 143.698 268.297 140.898 266.297 138.498C263.297 135.198 262.497 134.698 261.297 131.898C261.697 133.698 263.597 138.498 265.797 140.498C267.597 142.398 269.097 144.398 270.497 146.698Z" fill="#F1EA37"/>
<path d="M270.098 146.9C268.598 144 266.598 141.4 264.198 139.3C260.498 136.5 259.698 136.1 257.898 133.5C258.598 135.2 261.598 139.7 264.198 141.4C266.298 143 268.298 144.8 270.098 146.9Z" fill="#F1EA37"/>
<path d="M275.1 146.198C275.1 146.198 273.5 141.298 274.4 137.398C275.3 133.498 275.7 132.798 275.3 129.898C276 131.698 276.9 136.698 276 139.198C275.1 141.698 275.1 146.198 275.1 146.198Z" fill="#F1EA37"/>
<path d="M275.901 146.498C275.901 146.498 275.001 141.498 276.501 137.798C278.001 134.098 278.501 133.398 278.501 130.398C278.901 132.198 279.101 137.198 277.801 139.598C276.501 141.998 275.901 146.498 275.901 146.498Z" fill="#F1EA37"/>
<path d="M276.5 146.703C276.5 146.703 276.7 141.703 278.9 138.203C281.2 134.703 281.8 134.103 282.4 131.203C282.4 133.003 281.5 138.003 279.8 140.203C278.4 142.203 277.3 144.403 276.5 146.703Z" fill="#F1EA37"/>
<path d="M277.102 146.6C278.002 143.6 279.502 140.9 281.502 138.5C284.602 135.3 285.402 134.8 286.602 132C286.202 133.8 284.202 138.6 281.902 140.5C280.102 142.3 278.502 144.4 277.102 146.6Z" fill="#F1EA37"/>
<path d="M277.5 146.798C279.1 143.998 281.2 141.498 283.7 139.498C287.5 136.798 288.4 136.398 290.3 133.898C289.5 135.598 286.4 139.998 283.7 141.598C281.4 143.098 279.3 144.798 277.5 146.798Z" fill="#F1EA37"/>
<path d="M272.698 146.203C272.698 146.203 274.298 151.103 273.398 155.003C272.498 158.903 272.098 159.603 272.498 162.503C271.798 160.703 270.898 155.703 271.898 153.203C272.898 150.703 272.698 146.203 272.698 146.203Z" fill="#F1EA37"/>
<path d="M271.8 145.602C271.8 145.602 272.7 150.602 271.2 154.402C269.7 158.202 269.2 158.802 269.2 161.702C268.8 159.902 268.6 154.902 269.9 152.502C271.2 150.202 271.8 145.602 271.8 145.602Z" fill="#F1EA37"/>
<path d="M270.997 145.797C270.997 145.797 270.897 150.797 268.697 154.397C266.497 157.997 265.797 158.597 265.297 161.497C265.197 159.697 265.997 154.697 267.797 152.497C269.097 150.397 270.197 148.197 270.997 145.797Z" fill="#F1EA37"/>
<path d="M270.497 145.703C269.697 148.703 268.297 151.503 266.297 153.903C263.297 157.203 262.497 157.703 261.297 160.503C261.697 158.703 263.597 153.903 265.797 151.903C267.597 150.003 269.097 147.903 270.497 145.703Z" fill="#F1EA37"/>
<path d="M270.103 145.5C268.603 148.4 266.603 150.9 264.103 153C260.403 155.8 259.503 156.2 257.703 158.8C258.503 157.1 261.503 152.6 264.103 150.9C266.203 149.3 268.303 147.5 270.103 145.5Z" fill="#F1EA37"/>
<path d="M274.998 146.203C274.998 146.203 273.398 151.103 274.298 155.003C275.198 158.903 275.598 159.603 275.198 162.503C275.898 160.703 276.798 155.703 275.898 153.203C274.898 150.703 274.998 146.203 274.998 146.203Z" fill="#F1EA37"/>
<path d="M275.799 145.797C275.799 145.797 274.899 150.797 276.399 154.497C277.899 158.197 278.399 158.897 278.399 161.897C278.799 160.097 278.999 155.097 277.699 152.697C276.399 150.297 275.799 145.797 275.799 145.797Z" fill="#F1EA37"/>
<path d="M276.398 145.602C276.398 145.602 276.598 150.602 278.798 154.102C281.098 157.602 281.698 158.202 282.298 161.102C282.298 159.302 281.398 154.302 279.698 152.102C278.298 150.102 277.198 147.902 276.398 145.602Z" fill="#F1EA37"/>
<path d="M277.102 145.797C278.002 148.797 279.502 151.497 281.502 153.897C284.602 157.097 285.402 157.597 286.602 160.397C286.202 158.597 284.202 153.797 281.902 151.897C280.102 149.997 278.402 147.997 277.102 145.797Z" fill="#F1EA37"/>
<path d="M277.297 145.5C278.897 148.3 281.097 150.8 283.597 152.7C287.397 155.4 288.297 155.7 290.297 158.2C289.497 156.5 286.297 152.2 283.497 150.6C281.297 149.2 279.197 147.5 277.297 145.5Z" fill="#F1EA37"/>
<path d="M278.698 145.5H268.898V146.8H278.698V145.5Z" fill="#F1EA37"/>
<path d="M318.703 125.898C315.003 125.898 311.303 126.998 308.203 129.098L317.703 142.098L318.703 125.898Z" fill="#00ADEE"/>
<path d="M320.102 142.098L329.602 129.098C326.502 127.098 322.802 125.998 319.102 125.898L320.102 142.098Z" fill="#00ADEE"/>
<path d="M338.702 149.303C339.302 145.603 338.802 141.703 337.302 138.203L323.102 145.703L338.702 149.303Z" fill="#00ADEE"/>
<path d="M322.203 143.397L337.203 137.797C335.603 134.397 333.203 131.397 330.003 129.297L322.203 143.397Z" fill="#00ADEE"/>
<path d="M315.603 143.397L307.803 129.297C304.703 131.397 302.203 134.297 300.703 137.797L315.603 143.397Z" fill="#00ADEE"/>
<path d="M300.498 138.203C299.398 140.703 298.898 143.503 298.898 146.203C298.898 148.903 298.998 148.203 299.098 149.203L314.698 145.703L300.498 138.203Z" fill="#00ADEE"/>
<path d="M318.902 147.797L299.102 149.697C300.702 159.397 309.102 166.497 318.902 166.497C328.702 166.497 324.802 165.797 327.502 164.497C324.002 162.397 320.302 160.597 316.402 159.197C308.602 156.397 294.902 151.297 318.902 147.797C318.902 147.797 306.902 151.097 312.902 152.097C317.302 152.897 328.102 154.297 335.502 157.497C337.102 155.097 338.202 152.397 338.602 149.597L318.902 147.797Z" fill="#FAC815"/>
<path d="M335.503 157.598C328.103 154.398 317.303 152.898 312.903 152.198C306.903 151.098 318.903 147.898 318.903 147.898C294.903 151.398 308.603 156.498 316.503 159.298C320.403 160.698 324.103 162.498 327.603 164.598C330.703 162.998 333.503 160.598 335.503 157.598Z" fill="#262261"/>
<path d="M338.6 149.7C338.6 149.6 338.6 149.4 338.7 149.3L323.1 145.8L337.3 138.3C337.2 138.2 337.2 138 337.1 137.9L322.2 143.5L330 129.4L329.6 129.2L320.1 142.2L319.1 126H318.7L317.7 142.2L308.2 129.2L307.8 129.4L315.6 143.5L300.6 137.9L300.4 138.3L314.6 145.8L299 149.3C299 149.4 299.1 149.6 299.1 149.7L318.9 147.8L338.6 149.7Z" fill="white"/>
<path d="M216 106H213V110H216V122H221V110H224.6L225 106H221V104.3C221 103.3 221.2 103 222.1 103H225V98H221.2C217.6 98 216 99.6 216 102.6V106Z" fill="#840D18"/>
<path d="M254.002 100.503C253.102 100.903 252.202 101.203 251.202 101.303C252.202 100.703 253.002 99.7031 253.402 98.6031C252.402 99.2031 251.402 99.6031 250.302 99.8031C249.402 98.8031 248.102 98.2031 246.702 98.2031C243.502 98.2031 241.202 101.203 241.902 104.203C237.802 104.003 234.202 102.003 231.802 99.1031C230.502 101.303 231.102 104.203 233.302 105.703C232.502 105.703 231.702 105.503 231.102 105.103C231.002 107.403 232.702 109.503 235.002 110.003C234.302 110.203 233.502 110.203 232.802 110.003C233.402 112.003 235.202 113.403 237.402 113.403C235.302 115.003 232.702 115.703 230.102 115.403C232.302 116.803 234.902 117.603 237.602 117.603C246.702 117.603 251.902 109.903 251.602 103.003C252.502 102.203 253.302 101.303 254.002 100.403V100.503Z" fill="#840D18"/>
<path d="M264.102 101C264.102 102.4 263.002 103.5 261.602 103.5C260.202 103.5 259.102 102.4 259.102 101C259.102 99.6 260.202 98.5 261.602 98.5C263.002 98.5 264.102 99.6 264.102 101ZM264.102 105.5H259.102V121.5H264.102V105.5ZM272.102 105.5H267.102V121.5H272.102V113.1C272.102 108.4 278.102 108 278.102 113.1V121.5H283.102V111.4C283.102 103.5 274.202 103.8 272.102 107.7V105.5Z" fill="#840D18"/>
<path d="M292.2 97.8984H293.6L294.6 101.598L295.5 97.8984H297L295.3 103.398V107.198H293.9V103.398L292.2 97.8984ZM298.8 100.198C297.7 100.198 296.9 100.898 296.9 101.998V105.298C296.9 106.498 297.5 107.098 298.8 107.098C300.1 107.098 300.6 106.398 300.6 105.298V101.998C300.6 100.998 299.8 100.198 298.8 100.198ZM299.3 105.398C299.3 105.798 299.1 105.998 298.8 105.998C298.5 105.998 298.2 105.698 298.2 105.398V102.198C298.2 101.798 298.4 101.498 298.7 101.498C299 101.498 299.3 101.798 299.3 102.198V105.398ZM304.1 100.298V105.498C303.9 105.698 303.6 105.998 303.4 105.998C303.1 105.998 303.1 105.798 303.1 105.498V100.298H301.8V105.998C301.8 106.698 302 107.198 302.7 107.198C303.4 107.198 303.6 106.998 304.2 106.298V107.098H305.5V100.298H304.1ZM306.3 114.198C305.9 114.198 305.8 114.498 305.8 114.998V115.698H306.9V114.998C306.8 114.498 306.7 114.198 306.3 114.198ZM301.6 114.198C301.5 114.198 301.4 114.198 301.3 114.398V118.498C301.4 118.498 301.5 118.698 301.6 118.698C301.8 118.698 302.1 118.698 302.2 118.698C302.3 118.698 302.3 118.498 302.3 118.298V114.898C302.3 114.698 302.3 114.498 302.2 114.398C302 114.198 301.8 114.198 301.6 114.398V114.198ZM306.4 108.998C303.8 108.798 295.3 108.798 292.7 108.998C289.9 109.198 289.6 110.898 289.5 115.398C289.5 119.898 289.9 121.598 292.7 121.798C295.3 121.998 303.8 121.998 306.4 121.798C309.2 121.598 309.5 119.898 309.6 115.398C309.5 110.898 309.2 109.198 306.4 108.998ZM294.1 119.698H292.7V112.198H291.3V110.898H295.5V112.198H294.1V119.698ZM298.9 119.698H297.7V118.998C297.5 119.298 297.2 119.498 297 119.598C296.3 119.998 295.5 119.998 295.5 118.598V113.198H296.7V118.198C296.7 118.498 296.8 118.598 297 118.598C297.2 118.598 297.6 118.298 297.7 118.098V113.198H298.9V119.698ZM303.6 118.298C303.6 119.098 303.3 119.698 302.5 119.698C301.7 119.698 301.7 119.498 301.4 119.098V119.598H300.2V110.798H301.4V113.598C301.7 113.298 302 112.998 302.5 112.998C303.4 112.998 303.7 113.698 303.7 114.598V118.298H303.6ZM308 116.598H305.7V117.798C305.7 118.298 305.7 118.698 306.2 118.698C306.7 118.698 306.7 118.398 306.7 117.798V117.298H307.9V117.798C307.9 119.098 307.4 119.798 306.1 119.798C304.8 119.798 304.4 118.998 304.4 117.798V114.898C304.4 113.798 305.1 112.998 306.2 112.998C307.3 112.998 307.9 113.698 307.9 114.898V116.598H308Z" fill="#840D18"/>
<path d="M333.502 107.898C334.602 107.898 335.602 108.798 335.602 109.998V113.898C335.602 114.998 334.702 115.998 333.502 115.998H331.602V107.998H333.502V107.898ZM321.602 107.898C320.502 107.898 319.502 108.798 319.502 109.998V113.898C319.502 114.998 320.402 115.998 321.602 115.998H323.502V107.998H321.602V107.898ZM327.602 95.8984C320.502 95.8984 315.602 101.598 315.602 108.898V111.898H317.602V108.798C317.602 102.498 322.602 98.8984 327.602 98.8984C332.602 98.8984 337.602 102.498 337.602 108.798V111.898H339.602V108.898C339.602 101.598 334.602 95.8984 327.602 95.8984ZM326.602 118.898C326.602 119.398 327.002 119.898 327.602 119.898H330.602V117.898H327.602C327.002 117.898 326.602 118.398 326.602 118.898ZM337.602 113.898C337.602 117.198 335.202 118.398 331.602 118.398V119.398C335.602 119.398 338.602 117.798 338.602 113.898H337.602Z" fill="#840D18"/>
<path d="M370.5 115.898H366.5V111.898H370.5V115.898ZM364.5 105.898H360.5V109.898H364.5V105.898ZM370.5 105.898H366.5V109.898H370.5V105.898ZM358.5 111.898H354.5V115.898H358.5V111.898ZM364.5 111.898H360.5V115.898H364.5V111.898ZM358.5 105.898H354.5V109.898H358.5V105.898ZM374.5 97.8984V119.898H350.5V97.8984H353.5V98.8984C353.5 99.9984 354.4 100.898 355.5 100.898C356.6 100.898 357.5 99.9984 357.5 98.8984V97.8984H367.5V98.8984C367.5 99.9984 368.4 100.898 369.5 100.898C370.6 100.898 371.5 99.9984 371.5 98.8984V97.8984H374.5ZM372.5 103.898H352.5V117.898H372.5V103.898ZM370.5 96.8984C370.5 96.2984 370.1 95.8984 369.5 95.8984C368.9 95.8984 368.5 96.2984 368.5 96.8984V98.8984C368.5 99.4984 368.9 99.8984 369.5 99.8984C370.1 99.8984 370.5 99.4984 370.5 98.8984V96.8984ZM356.5 98.8984C356.5 99.4984 356.1 99.8984 355.5 99.8984C354.9 99.8984 354.5 99.4984 354.5 98.8984V96.8984C354.5 96.2984 354.9 95.8984 355.5 95.8984C356.1 95.8984 356.5 96.2984 356.5 96.8984V98.8984Z" fill="#840D18"/>
<path d="M388 110H401V111H388V110ZM401 107H388V108H401V107ZM401 101H396V102H401V101ZM401 104H396V105H401V104ZM384 96V113.2C384.1 113.5 383.9 113.7 383.6 113.8C383.3 113.9 383.1 113.8 383 113.4V98H381V114C381 115.1 381.9 116 383 116H403C404.1 116 405 115.1 405 114V96H384ZM403 113H386V98H403V113ZM394 101H388V105H394V101Z" fill="#840D18"/>
<path fill-rule="evenodd" clip-rule="evenodd" d="M418 102.002V104.402H422C421.8 105.402 420.8 107.402 418 107.402C415.2 107.402 413.7 105.402 413.7 103.002C413.7 100.602 415.6 98.6016 418 98.6016C420.4 98.6016 420.3 99.2016 420.8 99.7016L422.7 97.9016C421.5 96.8016 419.9 96.1016 418 96.1016C414.1 96.1016 411 99.2016 411 103.102C411 107.002 414.1 110.102 418 110.102C421.9 110.102 424.7 107.302 424.7 103.302C424.7 99.3016 424.6 102.502 424.6 102.102H418V102.002ZM435 104.002H432V107.002H430V104.002H427V102.002H430V99.0016H432V102.002H435V104.002Z" fill="#840D18"/>
<path d="M454 105.7L442 96H466L454 105.7ZM454 108.3L442 98.6V114H466V98.6L454 108.3Z" fill="#840D18"/>
<path fill-rule="evenodd" clip-rule="evenodd" d="M17 212.097C10.9 206.097 5.1 200.897 5.1 196.497C5.1 192.097 8.4 190.897 10.8 190.897C13.2 190.897 15.3 191.397 17 195.697C18.7 191.397 21.8 190.897 23.2 190.897C26 190.897 28.9 192.697 28.9 196.497C28.9 200.897 23.4 205.797 17 212.097ZM23.2 189.797C20.8 189.797 18.4 190.897 17 193.297C15.6 190.897 13.2 189.797 10.8 189.797C7.4 189.797 4 192.197 4 196.497C4 200.797 10 206.697 17 213.597C24 206.697 30 201.497 30 196.497C30 191.497 26.6 189.797 23.2 189.797Z" fill="black"/>
<path fill-rule="evenodd" clip-rule="evenodd" d="M51.3016 195.203C51.1016 194.703 51.0016 194.303 51.0016 193.703C51.0016 191.503 52.8016 189.703 55.0016 189.703C57.2016 189.703 59.0016 191.503 59.0016 193.703C59.0016 195.903 57.2016 197.703 55.0016 197.703C52.8016 197.703 52.5016 197.003 51.7016 196.003L44.6016 199.803C44.8016 200.403 45.0016 201.003 45.0016 201.703C45.0016 202.403 45.0016 203.003 44.6016 203.603L51.7016 207.403C52.4016 206.403 53.6016 205.703 55.0016 205.703C57.2016 205.703 59.0016 207.503 59.0016 209.703C59.0016 211.903 57.2016 213.703 55.0016 213.703C52.8016 213.703 51.0016 211.903 51.0016 209.703C51.0016 207.503 51.0016 208.703 51.3016 208.303L44.2016 204.503C43.3016 205.803 41.8016 206.703 40.1016 206.703C37.3016 206.703 35.1016 204.503 35.1016 201.703C35.1016 198.903 37.3016 196.703 40.1016 196.703C42.9016 196.703 43.3016 197.603 44.2016 198.903L51.3016 195.203ZM55.0016 206.803C56.7016 206.803 58.0016 208.103 58.0016 209.803C58.0016 211.503 56.7016 212.803 55.0016 212.803C53.3016 212.803 52.0016 211.503 52.0016 209.803C52.0016 208.103 53.3016 206.803 55.0016 206.803ZM40.0016 197.803C42.2016 197.803 44.0016 199.603 44.0016 201.803C44.0016 204.003 42.2016 205.803 40.0016 205.803C37.8016 205.803 36.0016 204.003 36.0016 201.803C36.0016 199.603 37.8016 197.803 40.0016 197.803ZM55.0016 190.803C56.7016 190.803 58.0016 192.103 58.0016 193.803C58.0016 195.503 56.7016 196.803 55.0016 196.803C53.3016 196.803 52.0016 195.503 52.0016 193.803C52.0016 192.103 53.3016 190.803 55.0016 190.803Z" fill="black"/>
<path fill-rule="evenodd" clip-rule="evenodd" d="M81.0016 203.797H83.0016V205.797H84.0016V203.797H86.0016V202.797H84.0016V200.797H83.0016V202.797H81.0016V203.797ZM85.6016 212.397C85.0016 211.297 84.0016 209.797 83.4016 208.797C82.9016 208.797 82.4016 208.697 81.9016 208.597L81.7016 212.797H70.3016L70.0016 206.597C70.0016 206.597 67.3016 210.797 66.4016 212.397C66.0016 213.197 64.8016 212.697 65.0016 211.897C65.6016 209.897 66.9016 205.597 67.7016 202.997C67.9016 202.297 68.6016 201.797 69.3016 201.797H79.3016C79.1016 202.297 79.0016 202.797 79.0016 203.297C79.0016 205.797 81.0016 207.797 83.5016 207.797C86.0016 207.797 85.0016 207.597 85.6016 207.297C86.2016 209.297 86.8016 211.397 87.0016 211.897C87.2016 212.597 86.1016 213.197 85.6016 212.397ZM83.5016 199.797C85.4016 199.797 87.0016 201.397 87.0016 203.297C87.0016 205.197 85.4016 206.797 83.5016 206.797C81.6016 206.797 80.0016 205.197 80.0016 203.297C80.0016 201.397 81.6016 199.797 83.5016 199.797ZM86.7016 207.497L86.4016 206.597C87.3016 205.797 87.9016 204.597 87.9016 203.197C87.9016 200.697 85.9016 198.697 83.4016 198.697C80.9016 198.697 80.5016 199.497 79.7016 200.697H69.3016C68.1016 200.697 67.1016 201.497 66.8016 202.597C66.1016 205.097 64.7016 209.497 64.1016 211.397C64.1016 211.597 64.1016 211.697 64.1016 211.897C64.1016 212.297 64.4016 213.597 65.8016 213.597C67.2016 213.597 67.0016 213.297 67.3016 212.697C67.8016 211.797 68.6016 210.497 69.2016 209.597L69.4016 213.597H82.8016L83.0016 209.697C83.6016 210.697 84.3016 211.897 84.8016 212.797C85.1016 213.297 85.7016 213.697 86.3016 213.697C86.9016 213.697 88.0016 213.197 88.0016 211.997C88.0016 210.797 88.0016 211.697 88.0016 211.497C87.8016 210.497 87.4016 208.997 86.9016 207.497M76.0016 189.797C73.2016 189.797 71.0016 192.097 71.0016 194.797C71.0016 197.497 73.3016 199.797 76.0016 199.797C78.7016 199.797 81.0016 197.497 81.0016 194.797C81.0016 192.097 78.8016 189.797 76.0016 189.797ZM76.0016 190.797C78.2016 190.797 80.0016 192.597 80.0016 194.797C80.0016 196.997 78.2016 198.797 76.0016 198.797C73.8016 198.797 72.0016 196.997 72.0016 194.797C72.0016 192.597 73.8016 190.797 76.0016 190.797Z" fill="black"/>
<path fill-rule="evenodd" clip-rule="evenodd" d="M115.6 204.397L106 194.797H101.1C101.1 195.197 101.3 195.497 101.3 195.797C102.3 195.897 103.1 196.797 103.1 197.797C103.1 198.797 102.2 199.797 101.1 199.797C100 199.797 99.1 198.897 99.1 197.797C99.1 196.697 99.6 196.197 100.4 195.897C100.4 195.597 100.4 195.197 100.2 194.797H98.2V202.797L107.8 212.397L115.6 204.397ZM101.1 196.797C101.1 196.997 100.9 197.197 100.7 197.397C100.5 197.597 100.2 197.797 100 197.897C100 198.397 100.5 198.797 101 198.797C101.5 198.797 102 198.397 102 197.797C102 197.197 101.6 196.797 101.1 196.797ZM117 204.397L107.6 213.797L97 203.197V197.297C95.9 196.797 94.6 196.197 93 196.197V195.197C94.6 195.197 95.9 195.697 97 196.197V193.797H99.5C98.4 192.297 96.3 190.797 93 190.797V189.797C97.1 189.797 99.6 191.897 100.7 193.797H106.5L117 204.397ZM110 206.097L110.5 206.597L109.8 207.297L109.3 206.797C108.8 207.197 108.2 207.397 107.7 207.397C107.2 207.397 106.4 207.097 106 206.597L106.7 205.897C107 206.197 107.3 206.397 107.7 206.397C108.1 206.397 108.6 206.197 109 205.697C109.4 205.297 109.6 204.997 109.6 204.597C109.6 203.797 109.1 203.297 108.5 203.297C107.9 203.297 107.6 203.497 107 203.897C105.8 204.697 104.6 205.097 103.6 204.097C102.7 203.197 103 201.997 103.6 201.197L102.9 200.497L103.6 199.797L104.2 200.397C104.7 199.897 105.3 199.697 105.9 199.697C106.5 199.697 107.2 199.997 107.7 200.497L107 201.197C106.3 200.497 105.4 200.697 104.7 201.297C104.4 201.597 104.2 201.997 104.1 202.297C104.1 203.097 104.7 203.497 105.1 203.497C105.5 203.497 105.9 203.297 106.6 202.897C107.5 202.297 108.2 202.097 108.8 202.097C109.4 202.097 109.8 202.297 110.2 202.697C111.3 203.897 110.8 205.197 110.1 206.097H110Z" fill="black"/>
<path d="M129.102 208V196H132.102V208H129.102ZM147.002 208V196H150.002V208H147.002ZM133.602 208V196H135.102V208H133.602ZM136.602 208V196H139.602V208H136.602ZM141.102 208V196H142.602V208H141.102ZM144.002 208V196H145.502V208H144.002ZM151.502 208V196H153.002V208H151.502ZM150.002 193H156.002V199H159.002V190H150.002V193ZM126.102 199V193H132.102V190H123.102V199H126.102ZM132.102 211H126.102V205H123.102V214H132.102V211ZM156.002 205V211H150.002V214H159.002V205H156.002Z" fill="black"/>
<path d="M169.5 211.797V191.797H185.5V203.297C185.5 207.397 179.5 205.797 179.5 205.797C179.5 205.797 181 211.797 176.9 211.797H169.5ZM187.5 204.197V189.797H167.5V213.797H177.7C180.9 213.797 187.5 206.597 187.5 204.197ZM182.5 202.797H172.5V201.797H182.5V202.797ZM182.5 198.797H172.5V199.797H182.5V198.797ZM182.5 195.797H172.5V196.797H182.5V195.797Z" fill="black"/>
<path d="M198.898 205.903L201.698 208.703L210.898 199.403L220.098 208.703L222.898 205.903L210.898 193.703L198.898 205.903Z" fill="#840D18"/>
<path d="M250.898 196.503L248.098 193.703L238.898 203.003L229.698 193.703L226.898 196.503L238.898 208.703L250.898 196.503Z" fill="#840D18"/>
<path d="M480 115H483V110H485V115H488L484 119L480 115ZM491.5 102.1C491.3 98.1 488 95 484 95C480 95 476.7 98.1 476.5 102.1C473.9 102.6 472 104.8 472 107.5C472 110.2 474.5 113 477.5 113H481V111H477.5C475.6 111 474 109.4 474 107.5C474 104.7 476.5 103.7 478.4 103.8C478.2 99.6 480.6 97 484 97C487.4 97 489.9 99.8 489.6 103.8C491.3 103.8 494 104.6 494 107.5C494 110.4 492.4 111 490.5 111H487V113H490.5C493.5 113 496 110.5 496 107.5C496 104.5 494 102.6 491.5 102.1Z" fill="#840D18"/>
<path d="M229.266 62.2733L227.852 63.6875L232.943 68.7787L234.357 67.3645L229.266 62.2733Z" fill="#EC1C24"/>
<path d="M237.591 62.4051L232.594 67.7266L234.052 69.0957L239.049 63.7742L237.591 62.4051Z" fill="#EC1C24"/>
<path d="M255.375 88.1016H228.075C227.575 88.1016 227.175 87.8016 226.975 87.3016C226.675 86.6016 227.075 85.8016 227.275 85.6016L241.475 70.1016L256.475 85.8016C256.575 86.0016 257.075 86.8016 256.675 87.5016C256.575 87.7016 256.275 88.2016 255.475 88.2016L255.375 88.1016ZM229.275 86.1016H253.975L241.375 72.9016L229.275 86.0016V86.1016Z" fill="#EC1C24"/>
<path d="M250.478 84.7047H233.078L240.378 77.2047L238.478 75.2047L239.878 73.8047L250.478 84.7047ZM237.678 82.7047H245.678L241.678 78.6047L237.678 82.7047Z" fill="#EC1C24"/>
<path d="M222.774 86.5L222.074 86.2C218.474 84.4 216.474 82.2 216.074 79.4C215.374 74.7 219.874 70.5 220.074 70.3L241.074 48L262.474 70.2C266.174 74 267.674 77.5 266.974 80.5C265.974 84.6 261.174 86.2 260.974 86.3L260.374 86.5L241.174 67.2L222.774 86.6V86.5ZM241.074 64.3L260.874 84.2C261.974 83.7 264.374 82.4 264.974 80C265.574 77.7 264.174 74.8 260.974 71.6L241.074 50.9L221.474 71.7C221.474 71.7 217.574 75.4 218.074 79.1C218.374 81 219.774 82.7 222.374 84.1L241.074 64.3Z" fill="#EC1C24"/>
<path d="M238.681 52.2898L237.281 53.7188L242.354 58.6864L243.753 57.2574L238.681 52.2898Z" fill="#EC1C24"/>
<path d="M245.316 54.351L240.172 59.9453L241.644 61.2991L246.788 55.7047L245.316 54.351Z" fill="#EC1C24"/>
<path d="M240.208 55.23L232.898 62.9062L234.347 64.2855L241.657 56.6093L240.208 55.23Z" fill="#EC1C24"/>
<path d="M231.512 59.9892L230.133 61.4375L235.274 66.3338L236.654 64.8855L231.512 59.9892Z" fill="#EC1C24"/>
<path d="M248.004 56.7203L242.664 62.4062L244.122 63.7753L249.461 58.0894L248.004 56.7203Z" fill="#EC1C24"/>
<path d="M239.712 57.782L238.312 59.2109L244.6 65.368L245.999 63.939L239.712 57.782Z" fill="#EC1C24"/>
<path d="M246.752 59.8532L245.32 61.25L255.168 71.3413L256.599 69.9444L246.752 59.8532Z" fill="#EC1C24"/>
<path d="M246.717 61.8433L241.984 66.7266L243.421 68.1184L248.153 63.2351L246.717 61.8433Z" fill="#EC1C24"/>
<path d="M249.248 64.257L244.461 69.5L245.938 70.8486L250.725 65.6056L249.248 64.257Z" fill="#EC1C24"/>
<path d="M237.085 60.5926L235.695 62.0312L242.169 68.2832L243.559 66.8445L237.085 60.5926Z" fill="#EC1C24"/>
<path d="M221.97 81.7L221.27 81.1C220.47 80.4 220.07 79.5 220.07 78.5C220.07 76.3 222.07 74.4 222.27 74.2L230.67 65.5L232.07 66.9L223.67 75.6C223.17 76.1 221.97 77.4 222.07 78.5V78.8L232.77 67.5L234.17 68.9L221.97 81.8V81.7Z" fill="#EC1C24"/>
<path d="M260.87 81.6984L247.07 68.1984L248.47 66.7984L260.77 78.8984V78.6984C260.77 78.0984 260.57 77.0984 259.27 75.5984L251.57 67.7984L252.97 66.3984L260.67 74.1984C262.17 75.8984 262.87 77.4984 262.67 78.8984C262.47 80.3984 261.57 81.0984 261.47 81.1984L260.77 81.6984H260.87Z" fill="#EC1C24"/>
<path d="M88.8497 103.603L87.7891 104.664L91.5367 108.412L92.5974 107.351L88.8497 103.603Z" fill="#EC1C24"/>
<path d="M94.9622 103.798L91.2656 107.734L92.3591 108.761L96.0556 104.825L94.9622 103.798Z" fill="#EC1C24"/>
<path d="M108.252 122.898H87.8516C87.4516 122.898 87.1516 122.598 87.0516 122.298C86.8516 121.798 87.0516 121.198 87.2516 120.998L97.8516 109.398L109.052 121.098C109.052 121.298 109.452 121.798 109.252 122.298C109.252 122.498 108.952 122.798 108.352 122.798L108.252 122.898ZM88.8516 121.398H107.252L97.8516 111.598L88.8516 121.398Z" fill="#EC1C24"/>
<path d="M104.648 120.397H91.6484L97.0484 114.797L95.6484 113.297L96.7484 112.297L104.648 120.397ZM95.1484 118.897H101.148L98.1484 115.797L95.1484 118.897Z" fill="#EC1C24"/>
<path d="M84.0515 121.7L83.5515 121.5C80.8515 120.2 79.3515 118.5 79.0515 116.4C78.5515 112.9 81.8515 109.7 82.0515 109.6L97.7515 93L113.652 109.6C116.452 112.4 117.552 115 116.952 117.3C116.152 120.4 112.652 121.6 112.552 121.6H112.152L97.7515 107.3L84.0515 121.7ZM97.6515 105.2L112.452 120C113.252 119.6 115.052 118.6 115.552 116.9C115.952 115.2 114.952 113 112.552 110.6L97.6515 95.2L82.9515 110.7C82.9515 110.7 80.0515 113.5 80.4515 116.2C80.6515 117.6 81.7515 118.9 83.6515 119.9L97.6515 105.1V105.2Z" fill="#EC1C24"/>
<path d="M95.8386 96.2877L94.7891 97.3594L98.5758 101.068L99.6253 99.9959L95.8386 96.2877Z" fill="#EC1C24"/>
<path d="M100.913 97.6324L97.0547 101.828L98.1588 102.843L102.017 98.6477L100.913 97.6324Z" fill="#EC1C24"/>
<path d="M96.9792 98.279L91.5312 104L92.6175 105.034L98.0655 99.3135L96.9792 98.279Z" fill="#EC1C24"/>
<path d="M90.5735 101.882L89.5391 102.969L93.3772 106.624L94.4116 105.537L90.5735 101.882Z" fill="#EC1C24"/>
<path d="M102.853 99.561L98.8828 103.789L99.9763 104.816L103.947 100.588L102.853 99.561Z" fill="#EC1C24"/>
<path d="M96.6354 100.389L95.5859 101.461L100.301 106.079L101.351 105.007L96.6354 100.389Z" fill="#EC1C24"/>
<path d="M102.027 101.812L100.953 102.859L108.286 110.374L109.36 109.327L102.027 101.812Z" fill="#EC1C24"/>
<path d="M101.963 103.291L98.4141 106.953L99.4913 107.997L103.04 104.335L101.963 103.291Z" fill="#EC1C24"/>
<path d="M103.761 105.094L100.188 109.008L101.295 110.019L104.869 106.105L103.761 105.094Z" fill="#EC1C24"/>
<path d="M94.8076 102.398L93.7656 103.477L98.5852 108.131L99.6272 107.052L94.8076 102.398Z" fill="#EC1C24"/>
<path d="M83.4547 118.098L82.9547 117.598C82.3547 117.098 82.0547 116.398 82.0547 115.598C82.0547 113.898 83.5547 112.498 83.7547 112.398L89.9547 105.898L91.0547 106.898L84.7547 113.398C84.3547 113.698 83.5547 114.698 83.5547 115.598V115.798L91.5547 107.398L92.6547 108.398L83.5547 117.998L83.4547 118.098Z" fill="#EC1C24"/>
<path d="M112.448 118.103L102.148 108.003L103.148 106.903L112.348 115.903C112.348 115.403 112.348 114.603 111.248 113.503L105.548 107.703L106.648 106.703L112.448 112.503C113.548 113.803 114.048 115.003 113.948 116.003C113.948 117.103 113.148 117.603 113.048 117.703L112.548 118.103H112.448Z" fill="#EC1C24"/>
<defs>
<radialGradient id="paint0_radial_4858_8692" cx="0" cy="0" r="1" gradientUnits="userSpaceOnUse" gradientTransform="translate(23 23.9) scale(20)">
<stop stop-color="white"/>
<stop offset="0.8" stop-color="#F9F8F8"/>
<stop offset="0.9" stop-color="#CFC8C2"/>
<stop offset="1" stop-color="#B5ABA1"/>
</radialGradient>
<radialGradient id="paint1_radial_4858_8692" cx="0" cy="0" r="1" gradientUnits="userSpaceOnUse" gradientTransform="translate(62.9984 24.9) scale(20)">
<stop stop-color="white"/>
<stop offset="0.8" stop-color="#F9F8F8"/>
<stop offset="0.9" stop-color="#CFC8C2"/>
<stop offset="1" stop-color="#B5ABA1"/>
</radialGradient>
<radialGradient id="paint2_radial_4858_8692" cx="0" cy="0" r="1" gradientUnits="userSpaceOnUse" gradientTransform="translate(105 24.9) scale(20)">
<stop stop-color="white"/>
<stop offset="0.8" stop-color="#F9F8F8"/>
<stop offset="0.9" stop-color="#CFC8C2"/>
<stop offset="1" stop-color="#B5ABA1"/>
</radialGradient>
<radialGradient id="paint3_radial_4858_8692" cx="0" cy="0" r="1" gradientUnits="userSpaceOnUse" gradientTransform="translate(144.997 24.9) scale(20 20)">
<stop stop-color="white"/>
<stop offset="0.8" stop-color="#F9F8F8"/>
<stop offset="0.9" stop-color="#CFC8C2"/>
<stop offset="1" stop-color="#B5ABA1"/>
</radialGradient>
<radialGradient id="paint4_radial_4858_8692" cx="0" cy="0" r="1" gradientUnits="userSpaceOnUse" gradientTransform="translate(227.002 24.9) scale(20 20)">
<stop stop-color="white"/>
<stop offset="0.8" stop-color="#F9F8F8"/>
<stop offset="0.9" stop-color="#CFC8C2"/>
<stop offset="1" stop-color="#B5ABA1"/>
</radialGradient>
<linearGradient id="paint5_linear_4858_8692" x1="274.199" y1="125.696" x2="274.199" y2="166.296" gradientUnits="userSpaceOnUse">
<stop stop-color="#EE4036"/>
<stop offset="0.1" stop-color="#DC3F3E"/>
<stop offset="0.4" stop-color="#AE3B54"/>
<stop offset="0.8" stop-color="#653577"/>
<stop offset="1" stop-color="#2E3191"/>
</linearGradient>
</defs>
</svg>
