<svg viewBox="0 0 133 45" fill="none" xmlns="http://www.w3.org/2000/svg"><path d="M20 43.1v-5.54c.374-.086.756-.13 1.14-.13a1.999 1.999 0 011.47.47 1.31 1.31 0 01.08 1.69 1.54 1.54 0 01-.7.49c.313.075.6.234.83.46a1.34 1.34 0 01.37 1 1.53 1.53 0 01-.42 1.08 2.46 2.46 0 01-1.79.53c-.23 0-.56-.01-.98-.05zm.4-5.27V40h.82a1.43 1.43 0 001-.31 1 1 0 00.36-.79c0-.72-.48-1.08-1.44-1.08a2.998 2.998 0 00-.77.01h.03zm0 2.45v2.5c.233.021.467.021.7 0a2.23 2.23 0 001.2-.3 1.222 1.222 0 000-1.92 2.09 2.09 0 00-1.19-.32l-.71.04zm3.38-1.18h.42l1.06 2.62c.1.28.2.57.29.87.18-.53.28-.83.31-.89l1-2.6h.43l-1.2 3c-.203.54-.436 1.067-.7 1.58a2.89 2.89 0 01-.66.87c-.213.195-.46.347-.73.45l-.13-.33a2 2 0 00.71-.45 3.3 3.3 0 00.67-1 .539.539 0 000-.17c.01-.06.01-.12 0-.18l-1.47-3.77zm6.22 4v-5.54a8.888 8.888 0 011.45-.13 2.999 2.999 0 012.27.77 2.7 2.7 0 01.7 2 3 3 0 01-.73 2.13 3.11 3.11 0 01-2.44.86A11.049 11.049 0 0130 43.1zm.4-5.24v4.92c.303.02.607.02.91 0a2.7 2.7 0 002-.7 2.66 2.66 0 00.68-1.94 2.339 2.339 0 00-.63-1.77 2.66 2.66 0 00-2-.64c-.31.016-.618.06-.92.13h-.04zm8.2 3.2h-3a1.84 1.84 0 00.43 1.35 1.43 1.43 0 001.1.44 2.53 2.53 0 001.11-.22l.1.31c-.392.19-.825.279-1.26.26a1.76 1.76 0 01-1.36-.56 2.1 2.1 0 01-.51-1.46 2.39 2.39 0 01.5-1.58 1.62 1.62 0 011.3-.59c.23-.007.46.037.67.13.173.08.33.191.46.33a1.922 1.922 0 01.4.94c.014.136.014.274 0 .41.028.078.048.158.06.24zm-2.94-.31h2.54a2.308 2.308 0 00-.05-.46 1.41 1.41 0 00-.18-.45.86.86 0 00-.37-.36 1.269 1.269 0 00-.6-.14 1.13 1.13 0 00-.94.43 1.9 1.9 0 00-.4.98zm3.52 2.36v-.24L41.34 40l.46-.58h-2.45v-.32h2.94v.27l-2.16 2.85-.43.55h2.6v.32l-3.12.02zm6.5-2.52v1.57a7.87 7.87 0 000 1h-.36l-.06-.57a1.65 1.65 0 01-.51.46 1.42 1.42 0 01-.78.2 1.1 1.1 0 01-1.18-1.1 1.2 1.2 0 01.66-1.15 3.36 3.36 0 011.82-.38v-.11c0-.79-.34-1.18-1-1.18a1.71 1.71 0 00-1 .3l-.12-.29a2.07 2.07 0 011.14-.34c.92 0 1.39.53 1.39 1.59zm-.41 1.23V41c-1.35 0-2 .32-2 1.07a.759.759 0 00.81.84 1.19 1.19 0 001.18-.8.66.66 0 00.01-.29zm1.79 1.29v-4h.38v.73a1.33 1.33 0 01.54-.59 1.52 1.52 0 01.84-.23h.3c.277.057.53.2.72.41.126.145.218.316.27.5.083.241.124.495.12.75v2.41h-.41v-2.35c.014-.352-.077-.7-.26-1a1 1 0 00-.85-.39c-.269 0-.53.092-.74.26a1.31 1.31 0 00-.46.66 1.2 1.2 0 000 .36v2.48h-.45zm6.15-.29l.15-.33a2.1 2.1 0 001.23.37 1.45 1.45 0 001-.32 1.06 1.06 0 00.37-.85 1.17 1.17 0 00-.26-.78 2.291 2.291 0 00-.88-.54c-1-.34-1.45-.86-1.45-1.56a1.29 1.29 0 01.46-1 1.72 1.72 0 011.18-.4 2 2 0 011.12.26L56 38a1.67 1.67 0 00-1-.27 1.222 1.222 0 00-.92.32 1 1 0 00-.3.71 1 1 0 00.27.74c.265.228.57.404.9.52.404.144.772.372 1.08.67a1.368 1.368 0 01.35 1 1.49 1.49 0 01-.47 1.11 1.82 1.82 0 01-1.32.44 2.758 2.758 0 01-.75-.1 1.867 1.867 0 01-.63-.32zm4.29.29v-5.93h.4v2.64c.122-.24.31-.441.54-.58.244-.15.524-.23.81-.23.096-.01.194-.01.29 0 .126.026.247.07.36.13.135.076.26.17.37.28.118.15.21.319.27.5.077.242.114.496.11.75v2.41h-.4v-2.34a1.7 1.7 0 00-.27-1 .93.93 0 00-.84-.39 1.13 1.13 0 00-.74.26 1.41 1.41 0 00-.47.64c-.035.13-.052.265-.05.4v2.45l-.38.01zm4.5-5.4a.3.3 0 01.23-.11.288.288 0 01.22.11.36.36 0 01.09.24.37.37 0 01-.09.25.332.332 0 01-.24.1.3.3 0 01-.22-.1.37.37 0 01-.065-.38.327.327 0 01.075-.11zm.43 5.4h-.41v-4h.41v4zm1.46 0V39.1h.37v.81a1.59 1.59 0 01.45-.65 1 1 0 01.69-.26h.17v.39h-.19a.9.9 0 00-.69.32 1.53 1.53 0 00-.37.8c-.012.13-.012.26 0 .39v2.21h-.43zM69 40.59v1.57a7.87 7.87 0 000 1h-.36l-.06-.57a1.64 1.64 0 01-.51.46 1.42 1.42 0 01-.78.2 1.118 1.118 0 01-.87-.33 1.1 1.1 0 01-.3-.77 1.19 1.19 0 01.6-1.15 3.37 3.37 0 011.83-.38v-.11c0-.79-.35-1.18-1-1.18a1.71 1.71 0 00-1 .3l-.12-.29a2.09 2.09 0 011.13-.34c.92 0 1.44.53 1.44 1.59zm-.4 1.23V41c-1.36 0-2 .32-2 1.07a.76.76 0 00.81.84 1.28 1.28 0 00.77-.23 1.19 1.19 0 00.41-.57.659.659 0 00-.04-.29h.05zm7.64 1.29h-.49l-.62-.64a2.412 2.412 0 01-1.72.73 1.56 1.56 0 01-1.14-.45 1.52 1.52 0 01-.45-1.12A1.88 1.88 0 0172.94 40a2.09 2.09 0 01-.49-1.23 1.36 1.36 0 01.34-.94 1.18 1.18 0 01.93-.39 1 1 0 01.77.31 1.059 1.059 0 01.31.81 1.22 1.22 0 01-.31.82 3.24 3.24 0 01-1 .72l1.64 1.9a4.64 4.64 0 00.57-1.81h.38a4.43 4.43 0 01-.74 2l.9.92zm-2.73-.23a1.769 1.769 0 001.39-.65l-.79-.89c-.41-.47-.75-.84-1-1.13a1.57 1.57 0 00-.9 1.37 1.27 1.27 0 00.36.93 1.26 1.26 0 00.94.37zm.14-5.19A.76.76 0 0073 38a1.13 1.13 0 00-.21.69 2 2 0 00.46 1.15c.31-.154.597-.353.85-.59a1 1 0 00.09-1.28.698.698 0 00-.54-.28zm8.17 3.45H79.6l-.69 2h-.41l2-5.63h.38l2 5.63h-.41l-.65-2zm-2.1-.34h2L81 38.92a7.771 7.771 0 01-.29-1 9.619 9.619 0 01-.29 1l-.7 1.88zm3.8 2.12l.14-.33c.273.171.588.264.91.27a1 1 0 00.69-.21.71.71 0 00.24-.55.73.73 0 00-.19-.53 2 2 0 00-.65-.38c-.68-.26-1-.62-1-1.1a.999.999 0 01.34-.77c.247-.218.57-.33.9-.31a1.45 1.45 0 01.88.25l-.15.32a1.35 1.35 0 00-.8-.24.77.77 0 00-.57.2.67.67 0 00-.26.46.61.61 0 00.19.46c.19.156.407.278.64.36.289.108.554.27.78.48a1 1 0 01.26.71 1 1 0 01-.38.83 1.44 1.44 0 01-1 .32 2 2 0 01-.97-.24zm3.2 0l.15-.33c.27.17.58.264.9.27a1 1 0 00.7-.21.71.71 0 00.24-.55.74.74 0 00-.2-.53 2.001 2.001 0 00-.65-.38c-.68-.26-1-.62-1-1.1a1 1 0 01.34-.77c.247-.218.57-.33.9-.31a1.45 1.45 0 01.88.25l-.15.32a1.35 1.35 0 00-.8-.24.79.79 0 00-.57.2.67.67 0 00-.21.5.58.58 0 00.2.46 2 2 0 00.63.36c.291.103.557.267.78.48a1 1 0 01.26.71 1 1 0 01-.37.83 1.49 1.49 0 01-1 .32 2 2 0 01-1.03-.28zM91.8 39a1.721 1.721 0 011.35.57c.353.41.536.94.51 1.48a2.07 2.07 0 01-.58 1.59 1.858 1.858 0 01-1.34.55 1.74 1.74 0 01-1.32-.56 2.17 2.17 0 01-.52-1.5 2.14 2.14 0 01.56-1.56A1.79 1.79 0 0191.8 39zm0 .33a1.27 1.27 0 00-1.1.53 2 2 0 00-.39 1.24 1.9 1.9 0 00.42 1.26 1.349 1.349 0 002.11 0 1.86 1.86 0 00.43-1.27 2.394 2.394 0 00-.08-.59 2.532 2.532 0 00-.25-.56 1.22 1.22 0 00-.47-.43 1.331 1.331 0 00-.68-.17l.01-.01zm5.63 3.29l.11.32a2.8 2.8 0 01-1.18.26 1.831 1.831 0 01-1.4-.57 2.1 2.1 0 01-.53-1.48A2.17 2.17 0 0195 39.6a1.998 1.998 0 011.5-.6c.35-.018.699.07 1 .25l-.14.32a1.999 1.999 0 00-.94-.23 1.47 1.47 0 00-1.2.51 1.872 1.872 0 00-.44 1.25c-.022.466.14.922.45 1.27a1.51 1.51 0 001.14.47c.365.01.728-.065 1.06-.22zm1.12-4.91a.31.31 0 01.23-.11.3.3 0 01.23.11.36.36 0 01.09.24.37.37 0 01-.09.25.36.36 0 01-.25.1.32.32 0 01-.22-.1.4.4 0 010-.49h.01zm.43 5.4h-.4v-4H99l-.02 4zm3.93-2.52v1.57c-.008.334.012.669.06 1h-.37l-.06-.57a1.63 1.63 0 01-.54.41 1.44 1.44 0 01-.78.2 1.12 1.12 0 01-.87-.33 1.05 1.05 0 01-.31-.77 1.204 1.204 0 01.62-1.09 3.421 3.421 0 011.83-.38v-.11c0-.79-.34-1.18-1-1.18a1.7 1.7 0 00-1 .3l-.13-.29c.35-.23.762-.348 1.18-.34.91-.01 1.37.52 1.37 1.58zm-.4 1.23V41c-1.35 0-2 .32-2 1.07a.85.85 0 00.23.63.8.8 0 00.57.21c.275.01.545-.071.77-.23.19-.147.336-.345.42-.57a.66.66 0 00.01-.29zm1.93-3.46l.4-.15v.89H106v.33h-1.15V42c0 .56.2.83.59.83a1.47 1.47 0 00.46-.06v.3a1.339 1.339 0 01-.56.1.821.821 0 01-.69-.28 1.49 1.49 0 01-.25-1v-2.46h-.68v-.33h.68l.04-.74zm5.49 2.7h-3c-.041.487.11.972.42 1.35a1.472 1.472 0 001.11.44 2.53 2.53 0 001.11-.22l.1.31a2.63 2.63 0 01-1.26.26 1.783 1.783 0 01-1.37-.56 2.102 2.102 0 01-.51-1.46 2.341 2.341 0 01.51-1.58 1.75 1.75 0 012-.46c.172.077.325.19.45.33.111.14.202.295.27.46.066.154.113.315.14.48.01.136.01.273 0 .41.017.079.027.16.03.24zm-3-.31h2.55a2.357 2.357 0 000-.46 2.088 2.088 0 00-.18-.45.88.88 0 00-.38-.36 1.2 1.2 0 00-.59-.14 1.132 1.132 0 00-.94.43 1.918 1.918 0 00-.39.98h-.07zm3.81 2.17l.14-.33c.27.17.581.264.9.27a1 1 0 00.7-.21.714.714 0 00.24-.55.748.748 0 00-.2-.53 1.926 1.926 0 00-.64-.38c-.69-.26-1-.62-1-1.1a1.05 1.05 0 01.34-.77 1.28 1.28 0 01.9-.31 1.46 1.46 0 01.89.25l-.15.32a1.37 1.37 0 00-.8-.24.82.82 0 00-.58.2.69.69 0 00-.2.5.584.584 0 00.19.46c.191.156.407.278.64.36.287.105.549.269.77.48a1 1 0 01.26.71 1.008 1.008 0 01-.37.83 1.46 1.46 0 01-1 .32 1.9 1.9 0 01-1.03-.28z" fill="#58595B"/><path d="M16.93 20.62l-.19-3.35H8.53l-2.79 4.08a5.079 5.079 0 00-.68 1.36c-.32 1 .15 1.43 1.65 1.43l-.22.66H.29l.22-.66c1.54-.1 2.1-.63 5.76-5.72l12.1-17.11H19l1.35 19.8c.25 2.58.44 2.93 1.81 3l-.21.66H14l.22-.66c2.34.03 2.88-.82 2.71-3.49zm-.66-14.36l-6.74 9.58h7.24l-.5-9.58zm20.88 2.86h.35l-1.44 4.74h-.47c.31-3.14-.25-4.29-2-4.29a3.37 3.37 0 00-3.19 2.37 2.05 2.05 0 00.6 2.37l2.63 2.23a3.37 3.37 0 011.29 4.15A6.77 6.77 0 0129 25.15a8.93 8.93 0 01-2.19-.35 4.53 4.53 0 00-1.35-.28c-.37 0-.5.07-.85.42h-.4L26 19.5h.5c-.44 3.56.22 4.88 2.38 4.88a3.56 3.56 0 003.45-2.51 2.19 2.19 0 00-.78-2.61l-1.45-1.15c-2.09-1.71-2.66-3.07-2-5a6.13 6.13 0 015.73-4.28 4.5 4.5 0 012 .41c.226.15.489.236.76.25a1.52 1.52 0 00.56-.37zm5.28 1.78a.54.54 0 00-.5-.53 2.45 2.45 0 00-1.41.94l-1.47 1.78-.41-.38c2.1-2.93 3.38-4 4.92-4 1.85 0 1.63 2 .75 4.67l-2.41 7.38c-.22.66-.57 1.92-.66 2.27a.51.51 0 00.47.52 2.49 2.49 0 001.44-.94l1.47-1.78.41.38c-2.1 2.93-3.38 4-4.92 4-1.85 0-1.63-2-.75-4.67l2.41-7.35c.23-.69.57-1.94.66-2.29zm2.76-4.22c-.88 0-1.35-.77-1-1.78a2.57 2.57 0 012.16-1.77c.91 0 1.35.8 1 1.77a2.55 2.55 0 01-2.16 1.78zM57.79 23a.51.51 0 00.47.52 2.49 2.49 0 001.44-.94l1.47-1.78.41.38c-2.1 2.93-3.38 4-4.92 4-1.25 0-1.72-.94-1.5-2.36a6.43 6.43 0 01-4.8 2.33c-3.44 0-4.79-3-3.32-7.49 1.63-4.95 5.8-8.89 9.4-8.89a3.07 3.07 0 012.82 1.5v-.07l3-1.08-3.81 11.64c-.22.66-.57 1.92-.66 2.24zm.5-9.8c.59-1.85-.41-3.48-2.07-3.48-2.38 0-4.76 2.58-6 6.51-1.41 4.29-.6 7.08 2 7.08a3.88 3.88 0 002.6-1.05c.353-.275.652-.615.88-1l2.59-8.06z" fill="#0C2740"/><path d="M67.7 25.15a2.65 2.65 0 01-2.7-1.5c-.83 2.55-1.65 5.11-2.51 7.63l-3 1.08 6.3-19.2c.21-.66.56-1.91.65-2.26a.54.54 0 00-.5-.53 2.45 2.45 0 00-1.41.94l-1.47 1.78-.41-.38c2.1-2.93 3.39-4 4.92-4 1.38 0 1.69 1.12 1.38 2.79 2-1.88 3.63-2.75 5.39-2.75 3 0 4.22 3.1 2.82 7.42-1.6 5.08-5.76 8.98-9.46 8.98zm4.73-14.29c-1.44 0-3.6 1.26-3.94 2.3l-2.82 8.57c-.35 1.05 1 2.31 2.5 2.31 2.26 0 4.67-2.62 5.92-6.49 1.32-4.04.66-6.69-1.66-6.69zM82 25.15c-3.61 0-4.86-3-3.29-7.81 1.66-5.08 5.45-8.57 9.33-8.57a3.42 3.42 0 013.38 2c.41 1.11.41 2.12-.09 4.39h-9.61A10.62 10.62 0 0081.1 20c.28 1.88 1.28 2.78 3 2.78 2 0 3.7-1 6.08-3.65l.41.24C88.05 23.09 85 25.15 82 25.15zM86.77 10c-1.92 0-3.39 1.25-4.64 4h6.39c.59-3 .15-4-1.75-4zm17.43 10.76c-.22.66-.57 1.92-.66 2.27a.507.507 0 00.47.52 2.49 2.49 0 001.44-.94l1.47-1.78.41.38c-2.1 2.93-3.38 4-4.92 4-1.25 0-1.72-.94-1.5-2.36a6.432 6.432 0 01-4.8 2.33c-3.44 0-4.79-3-3.32-7.49 1.63-4.95 5.8-8.89 9.4-8.89a3.073 3.073 0 012.81 1.47l1.79-5.44c.47-1.43.28-1.78-.88-1.78a4 4 0 00-.69 0l.19-.56c2.19-.59 3.41-.94 5.1-1.53l.13.07-6.44 19.73zm-.2-7.53c.59-1.85-.41-3.48-2.07-3.48-2.38 0-4.76 2.58-6 6.51-1.41 4.29-.6 7.08 2 7.08a3.88 3.88 0 002.6-1.05 3.57 3.57 0 00.88-1l2.59-8.06zm8.89-2.33a.542.542 0 00-.5-.53 2.419 2.419 0 00-1.41.94l-1.47 1.78-.41-.38c2.1-2.93 3.38-4 4.92-4 1.84 0 1.63 2 .75 4.67l-2.41 7.36c-.22.66-.57 1.92-.66 2.27a.507.507 0 00.47.52 2.49 2.49 0 001.44-.94l1.47-1.78.41.38c-2.1 2.93-3.38 4-4.92 4-1.85 0-1.63-2-.75-4.67l2.41-7.35c.22-.67.57-1.92.66-2.27zm2.76-4.22c-.88 0-1.35-.77-1-1.78a2.54 2.54 0 012.15-1.77c.91 0 1.35.8 1 1.77a2.536 2.536 0 01-2.15 1.78zM128.25 23a.511.511 0 00.47.52 2.49 2.49 0 001.44-.94l1.47-1.78.41.38c-2.1 2.93-3.38 4-4.92 4-1.25 0-1.72-.94-1.5-2.36a6.435 6.435 0 01-4.8 2.33c-3.44 0-4.79-3-3.32-7.49 1.63-4.95 5.8-8.89 9.4-8.89a3.084 3.084 0 012.82 1.5v-.07l3-1.08-3.82 11.64c-.21.66-.56 1.92-.65 2.24zm.5-9.8c.59-1.85-.41-3.48-2.07-3.48-2.38 0-4.76 2.58-6 6.51-1.41 4.29-.6 7.08 2 7.08a3.881 3.881 0 002.6-1.05 3.57 3.57 0 00.88-1l2.59-8.06z" fill="#0C2740"/><path d="M0 31.91h33.11" stroke="#FFCD33" stroke-width=".93" stroke-miterlimit="10"/><path d="M33.11 31.91h33.11" stroke="#EC2227" stroke-width=".93" stroke-miterlimit="10"/><path d="M66.22 31.91h33.1" stroke="#1C954A" stroke-width=".93" stroke-miterlimit="10"/><path d="M99.32 31.91h33.11" stroke="#6770AB" stroke-width=".93" stroke-miterlimit="10"/></svg>