<svg width="141" height="51" viewBox="0 0 141 51" fill="none" xmlns="http://www.w3.org/2000/svg">
<rect width="140" height="51" fill="white"/>
<path d="M35.5206 18.6116H38.4668L38.4112 31.9959H35.465V30.5809C34.1865 32.1728 32.5744 32.4087 31.685 32.4087C27.7938 32.4087 25.5703 28.9299 25.5703 25.2743C25.5703 20.9111 28.4053 18.2578 31.7406 18.2578C32.6856 18.2578 34.2977 18.4937 35.465 20.2036L35.5206 18.6116ZM28.5721 25.2743C28.5721 27.5738 29.9618 29.5195 32.0741 29.5785C33.9086 29.5785 35.6318 28.1634 35.6318 25.3332C35.6318 22.3851 33.9086 20.9701 32.0741 20.9701C29.9618 20.9701 28.5721 22.9158 28.5721 25.2743Z" fill="black"/>
<path d="M46.9768 22.153C46.6989 21.6224 46.0874 21.0328 45.198 20.9738C44.7533 20.9738 44.4753 21.1507 44.3086 21.3276C44.1418 21.5045 44.0306 21.7403 44.0306 22.0351C44.0306 22.3889 44.1974 22.6247 44.4753 22.8016C44.6421 22.9195 44.8088 22.9785 45.4759 23.3323L46.9768 24.1577C47.6439 24.5115 48.2553 24.8653 48.7556 25.3959C49.4227 26.1035 49.7006 26.9879 49.7006 27.8723C49.7006 29.1105 49.2559 30.1129 48.5889 30.9384C47.5883 32.0586 46.3653 32.4124 45.0312 32.4124C44.1974 32.4124 43.1968 32.2945 42.3074 31.528C41.5847 30.9384 40.9733 30.0539 40.6953 29.0516L43.0856 27.8723C43.2524 28.344 43.5303 28.8747 43.7527 29.1695C43.9194 29.3464 44.3641 29.7002 45.0312 29.7002C45.4759 29.7002 45.9762 29.5233 46.2541 29.2285C46.4765 28.9926 46.6989 28.5799 46.6989 28.1672C46.6989 27.8134 46.5877 27.4596 46.3097 27.1648C45.9762 26.811 45.5315 26.5752 45.0312 26.3393L43.975 25.8087C43.4191 25.5139 42.6965 25.1601 42.2518 24.6294C41.5847 23.9809 41.3624 23.2144 41.3624 22.3889C41.3624 21.3276 41.7515 20.2663 42.4185 19.4998C42.9744 18.8512 43.975 18.2026 45.5315 18.2616C46.4209 18.2616 47.1436 18.4384 47.8662 18.9691C48.3109 19.2639 48.8668 19.7946 49.3115 20.62L46.9768 22.153Z" fill="black"/>
<path d="M53.0931 11.125C54.1493 11.125 54.9831 12.0094 54.9831 13.1297C54.9831 14.25 54.1493 15.1344 53.0931 15.1344C52.037 15.1344 51.2031 14.25 51.2031 13.1297C51.2031 11.9505 52.037 11.125 53.0931 11.125ZM54.5384 18.6132L54.4828 31.9975H51.5367L51.5922 18.6132H54.5384Z" fill="black"/>
<path d="M66.7706 18.6663H69.7168L69.6612 32.0506H66.715V30.6355C65.4365 32.2275 63.8244 32.4634 62.935 32.4634C59.0438 32.4634 56.8203 28.9846 56.8203 25.329C56.8203 20.9658 59.6553 18.3125 62.9906 18.3125C63.9356 18.3125 65.5477 18.5483 66.715 20.2582L66.7706 18.6663ZM59.8221 25.3879C59.8221 27.6874 61.2118 29.6332 63.3241 29.6921C65.1586 29.6921 66.8818 28.2771 66.8818 25.4469C66.8818 22.4988 65.1586 21.0837 63.3241 21.0837C61.2118 21.1427 59.8221 23.0295 59.8221 25.3879Z" fill="black"/>
<path d="M81.88 18.6663H84.8262L84.7706 32.0506H81.8244V30.6355C80.5459 32.2275 78.9338 32.4634 78.0444 32.4634C74.1532 32.4634 71.9297 28.9846 71.9297 25.329C71.9297 20.9658 74.7647 18.3125 78.1 18.3125C79.045 18.3125 80.6571 18.5483 81.8244 20.2582L81.88 18.6663ZM74.987 25.3879C74.987 27.6874 76.3768 29.6332 78.4891 29.6921C80.3235 29.6921 82.0468 28.2771 82.0468 25.4469C82.0468 22.4988 80.3235 21.0837 78.4891 21.0837C76.3768 21.1427 74.987 23.0295 74.987 25.3879Z" fill="black"/>
<path d="M97.1691 9H100.115L100.06 32.231H97.1135V30.8159C95.8349 32.4079 94.2229 32.6437 93.3335 32.6437C89.4423 32.6437 87.2188 29.165 87.2188 25.5093C87.2188 21.1462 90.0537 18.4929 93.389 18.4929C94.3341 18.4929 95.9461 18.7287 97.1135 20.4386L97.1691 9ZM90.2205 25.5093C90.2205 27.8088 91.6102 29.7546 93.7226 29.8136C95.6126 29.8136 97.2802 28.3985 97.2802 25.5683C97.2802 22.6202 95.557 21.2051 93.7226 21.2051C91.6102 21.1462 90.2205 23.1509 90.2205 25.5093Z" fill="black"/>
<path d="M103.055 18.7913H106.001V20.0295C107.001 18.7323 108.169 18.4375 109.114 18.4375C110.448 18.4375 111.671 19.0861 112.394 20.4422C113.45 18.8502 115.062 18.4965 116.174 18.4965C117.73 18.4965 119.064 19.263 119.787 20.6191C120.009 21.0908 120.454 22.0342 120.454 23.9799V32.2346H117.508V24.8643C117.508 23.3903 117.341 22.7417 117.23 22.4469C117.063 21.9163 116.618 21.2677 115.562 21.2677C114.839 21.2677 114.228 21.6804 113.839 22.27C113.339 23.0365 113.283 24.1568 113.283 25.336V32.2346H110.337V24.8054C110.337 23.3313 110.17 22.6828 110.059 22.3879C109.892 21.8573 109.447 21.2087 108.391 21.2087C107.669 21.2087 107.057 21.6214 106.668 22.2111C106.168 22.9776 106.112 24.0978 106.112 25.2771V32.1756H103.166L103.055 18.7913Z" fill="black"/>
<path d="M124.843 11.2344C125.899 11.2344 126.733 12.1188 126.733 13.2391C126.733 14.3594 125.899 15.2438 124.843 15.2438C123.787 15.2438 122.953 14.3594 122.953 13.2391C122.953 12.1188 123.787 11.2344 124.843 11.2344ZM126.344 18.7815L126.288 32.1659H123.342L123.398 18.7815H126.344Z" fill="black"/>
<path d="M129.297 18.7913H132.243V20.0295C133.522 18.5554 134.967 18.4375 135.69 18.4375C138.024 18.4375 139.025 19.6757 139.414 20.2653C139.914 20.9729 140.192 21.9163 140.192 23.9799V32.1756H137.246V24.8054C137.246 21.3856 136.079 21.3266 134.967 21.2677C133.633 21.2677 132.299 21.4446 132.299 25.8077V32.2346H129.352L129.297 18.7913Z" fill="black"/>
<path d="M17.7309 26.8691C17.6753 26.8691 21.1774 24.6875 21.1218 24.6875L0.109375 25.0413L17.7309 26.8691Z" fill="#118E3C"/>
<path d="M8.06031 33.997V33.938V33.8791C8.17148 34.1739 13.6191 29.6338 13.6191 29.7517L0 25.0938L8.06031 33.997Z" fill="#6A6EAA"/>
<path d="M21.1811 24.8016L14.3438 9.64844L17.7346 26.8653L21.1811 24.8016Z" fill="#FFCF1E"/>
<path d="M13.7238 29.8688L14.3353 9.58594C10.4441 24.8571 11.8338 19.3736 8.10938 33.9962L13.7238 29.8688Z" fill="#E2131B"/>
</svg>
