<svg width="198" height="51" viewBox="0 0 198 51" fill="none" xmlns="http://www.w3.org/2000/svg">
<rect x="1" width="196" height="51" fill="white"/>
<path d="M50.6352 21.4563H54.7604L54.6825 40.1966H50.5574V38.2153C48.7672 40.4443 46.5101 40.7745 45.2648 40.7745C39.8164 40.7745 36.7031 35.9037 36.7031 30.7852C36.7031 24.676 40.6726 20.9609 45.3426 20.9609C46.6657 20.9609 48.9229 21.2912 50.5574 23.6853L50.6352 21.4563ZM40.9061 30.7852C40.9061 34.0049 42.8519 36.7292 45.8096 36.8118C48.3781 36.8118 50.7909 34.8304 50.7909 30.8677C50.7909 26.7399 48.3781 24.7585 45.8096 24.7585C42.8519 24.7585 40.9061 27.4829 40.9061 30.7852Z" fill="black"/>
<path d="M66.6779 26.4149C66.2888 25.6719 65.4326 24.8463 64.1873 24.7638C63.5646 24.7638 63.1755 25.0114 62.942 25.2591C62.7085 25.5068 62.5528 25.837 62.5528 26.2498C62.5528 26.7451 62.7863 27.0754 63.1755 27.323C63.409 27.4881 63.6425 27.5707 64.5764 28.066L66.6779 29.2218C67.6119 29.7172 68.4681 30.2125 69.1686 30.9555C70.1026 31.9462 70.4918 33.1845 70.4918 34.4229C70.4918 36.1566 69.8691 37.56 68.9351 38.7158C67.5341 40.2844 65.8218 40.7797 63.9538 40.7797C62.7863 40.7797 61.3853 40.6146 60.14 39.5414C59.1281 38.7158 58.272 37.4775 57.8828 36.074L61.2296 34.4229C61.4631 35.0833 61.8523 35.8264 62.1636 36.2391C62.3971 36.4868 63.0198 36.9821 63.9538 36.9821C64.5765 36.9821 65.2769 36.7345 65.6661 36.3217C65.9774 35.9915 66.2888 35.4136 66.2888 34.8357C66.2888 34.3403 66.1331 33.845 65.7439 33.4322C65.2769 32.9369 64.6543 32.6066 63.9538 32.2764L62.475 31.5334C61.6966 31.1206 60.6848 30.6253 60.0621 29.8823C59.1281 28.9742 58.8168 27.9009 58.8168 26.7451C58.8168 25.2591 59.3616 23.7731 60.2956 22.6999C61.074 21.7917 62.475 20.8836 64.6543 20.9662C65.8996 20.9662 66.9114 21.2138 67.9233 21.9569C68.5459 22.3696 69.3243 23.1126 69.9469 24.2684L66.6779 26.4149Z" fill="black"/>
<path d="M75.2401 10.9766C76.7189 10.9766 77.8864 12.2149 77.8864 13.7835C77.8864 15.3521 76.7189 16.5904 75.2401 16.5904C73.7612 16.5904 72.5938 15.3521 72.5938 13.7835C72.5938 12.1324 73.7612 10.9766 75.2401 10.9766ZM77.2637 21.4612L77.1859 40.2016H73.0607L73.1386 21.4612H77.2637Z" fill="black"/>
<path d="M94.393 21.5344H98.5182L98.4404 40.2747H94.3152V38.2934C92.525 40.5224 90.2679 40.8526 89.0226 40.8526C83.5743 40.8526 80.4609 35.9818 80.4609 30.8633C80.4609 24.7541 84.4304 21.0391 89.1004 21.0391C90.4236 21.0391 92.6807 21.3693 94.3152 23.7634L94.393 21.5344ZM84.6639 30.9458C84.6639 34.1656 86.6097 36.8899 89.5674 36.9725C92.1359 36.9725 94.5487 34.9911 94.5487 31.0284C94.5487 26.9006 92.1359 24.9192 89.5674 24.9192C86.6097 25.0018 84.6639 27.6436 84.6639 30.9458Z" fill="black"/>
<path d="M115.541 21.5344H119.667L119.589 40.2747H115.464V38.2934C113.673 40.5224 111.416 40.8526 110.171 40.8526C104.723 40.8526 101.609 35.9818 101.609 30.8633C101.609 24.7541 105.579 21.0391 110.249 21.0391C111.572 21.0391 113.829 21.3693 115.464 23.7634L115.541 21.5344ZM105.89 30.9458C105.89 34.1656 107.836 36.8899 110.794 36.9725C113.362 36.9725 115.775 34.9911 115.775 31.0284C115.775 26.9006 113.362 24.9192 110.794 24.9192C107.836 25.0018 105.89 27.6436 105.89 30.9458Z" fill="black"/>
<path d="M136.956 8H141.081L141.003 40.5273H136.878V38.5459C135.088 40.775 132.83 41.1052 131.585 41.1052C126.137 41.1052 123.023 36.2344 123.023 31.1158C123.023 25.0067 126.993 21.2916 131.663 21.2916C132.986 21.2916 135.243 21.6218 136.878 24.016L136.956 8ZM127.226 31.1158C127.226 34.3355 129.172 37.0599 132.13 37.1425C134.776 37.1425 137.111 35.1611 137.111 31.1984C137.111 27.0706 134.698 25.0892 132.13 25.0892C129.172 25.0067 127.226 27.8136 127.226 31.1158Z" fill="black"/>
<path d="M145.195 21.7063H149.32V23.44C150.721 21.6237 152.356 21.2109 153.679 21.2109C155.547 21.2109 157.259 22.1191 158.271 24.0179C159.75 21.7888 162.007 21.2935 163.564 21.2935C165.743 21.2935 167.611 22.3667 168.623 24.2655C168.934 24.926 169.557 26.2469 169.557 28.9713V40.5292H165.432V30.2096C165.432 28.1457 165.198 27.2376 165.043 26.8248C164.809 26.0818 164.187 25.1737 162.708 25.1737C161.696 25.1737 160.84 25.7515 160.295 26.5771C159.594 27.6504 159.517 29.2189 159.517 30.8701V40.5292H155.391V30.127C155.391 28.0631 155.158 27.155 155.002 26.7422C154.769 25.9992 154.146 25.0911 152.667 25.0911C151.655 25.0911 150.799 25.669 150.254 26.4946C149.554 27.5678 149.476 29.1364 149.476 30.7875V40.4466H145.351L145.195 21.7063Z" fill="black"/>
<path d="M175.701 11.125C177.18 11.125 178.347 12.3633 178.347 13.9319C178.347 15.5005 177.18 16.7388 175.701 16.7388C174.222 16.7388 173.055 15.5005 173.055 13.9319C173.055 12.3633 174.222 11.125 175.701 11.125ZM177.802 21.6922L177.725 40.4326H173.6L173.677 21.6922H177.802Z" fill="black"/>
<path d="M181.938 21.7063H186.063V23.44C187.853 21.3761 189.876 21.2109 190.888 21.2109C194.157 21.2109 195.558 22.9446 196.103 23.7702C196.804 24.7609 197.193 26.0818 197.193 28.9713V40.4466H193.068V30.127C193.068 25.3388 191.433 25.2562 189.876 25.1737C188.008 25.1737 186.14 25.4213 186.14 31.5305V40.5292H182.015L181.938 21.7063Z" fill="black"/>
<path d="M25.7277 33.0233C25.6499 33.0233 30.5534 29.9688 30.4756 29.9688L1.05469 30.4641L25.7277 33.0233Z" fill="#118E3C"/>
<path d="M12.1842 42.9973V42.9147V42.8322C12.3399 43.245 19.9675 36.8881 19.9675 37.0532L0.898438 30.5312L12.1842 42.9973Z" fill="#6A6EAA"/>
<path d="M30.5578 30.1233L20.9844 8.90625L25.7322 33.0128L30.5578 30.1233Z" fill="#FFCF1E"/>
<path d="M20.1189 37.2198L20.9751 8.82031C15.5268 30.2025 17.4726 22.5247 12.2578 42.9987L20.1189 37.2198Z" fill="#E2131B"/>
</svg>
