<svg width="30" height="30" viewBox="0 0 30 30" fill="none" xmlns="http://www.w3.org/2000/svg">
<g filter="url(#filter0_d_1215_5153)">
<path d="M14 11H9.2C8.07989 11 7.51984 11 7.09202 11.218C6.71569 11.4097 6.40973 11.7157 6.21799 12.092C6 12.5198 6 13.0799 6 14.2V21M24 21V6.2C24 5.0799 24 4.51984 23.782 4.09202C23.5903 3.71569 23.2843 3.40973 22.908 3.21799C22.4802 3 21.9201 3 20.8 3H17.2C16.0799 3 15.5198 3 15.092 3.21799C14.7157 3.40973 14.4097 3.71569 14.218 4.09202C14 4.51984 14 5.0799 14 6.2V21M25 21H5M17.5 7H20.5M17.5 11H20.5M17.5 15H20.5" stroke="#217FD4" stroke-width="2" stroke-linecap="round" stroke-linejoin="round"/>
</g>
<defs>
<filter id="filter0_d_1215_5153" x="-1" y="0" width="32" height="32" filterUnits="userSpaceOnUse" color-interpolation-filters="sRGB">
<feFlood flood-opacity="0" result="BackgroundImageFix"/>
<feColorMatrix in="SourceAlpha" type="matrix" values="0 0 0 0 0 0 0 0 0 0 0 0 0 0 0 0 0 0 127 0" result="hardAlpha"/>
<feOffset dy="4"/>
<feGaussianBlur stdDeviation="2"/>
<feComposite in2="hardAlpha" operator="out"/>
<feColorMatrix type="matrix" values="0 0 0 0 0 0 0 0 0 0 0 0 0 0 0 0 0 0 0.25 0"/>
<feBlend mode="normal" in2="BackgroundImageFix" result="effect1_dropShadow_1215_5153"/>
<feBlend mode="normal" in="SourceGraphic" in2="effect1_dropShadow_1215_5153" result="shape"/>
</filter>
</defs>
</svg>
