<svg width="20" height="20" viewBox="0 0 20 20" fill="none" xmlns="http://www.w3.org/2000/svg">
<path d="M17.3437 5.875L16.75 5.28125L11.25 10.7813C10.5625 11.4688 9.40625 11.4688 8.71875 10.7813L3.21875 5.3125L2.625 5.90625L6.71875 10L7.3125 10.5938L8.125 11.4063C8.625 11.9063 9.28125 12.1875 9.96875 12.1875C10.6563 12.1875 11.3125 11.9063 11.8125 11.4063L12.625 10.5938L13.2187 10L17.3437 5.875Z" fill="white"/>
<path d="M16.1875 15.75H3.84375C3.125 15.75 2.53125 15.1562 2.53125 14.4375V5.625C2.53125 4.90625 3.125 4.3125 3.84375 4.3125H16.1875C16.9063 4.3125 17.5 4.90625 17.5 5.625V14.4375C17.5 15.1562 16.9063 15.75 16.1875 15.75ZM3.8125 5.15625C3.5625 5.15625 3.375 5.34375 3.375 5.59375V14.4063C3.375 14.6563 3.5625 14.8437 3.8125 14.8437H16.1563C16.4063 14.8437 16.5938 14.6563 16.5938 14.4063V5.59375C16.5938 5.34375 16.4063 5.15625 16.1563 5.15625H3.8125Z" fill="white"/>
</svg>
