<?xml version="1.0" encoding="UTF-8"?>
<svg id="Layer_1" xmlns="http://www.w3.org/2000/svg" version="1.1" viewBox="0 0 380 57">
  <!-- Generator: Adobe Illustrator 29.5.1, SVG Export Plug-In . SVG Version: 2.1.0 Build 141)  -->
  <defs>
    <style>
      .st0 {
        fill: #9c9e9f;
      }

      .st1 {
        fill: #1a171b;
      }

      .st2 {
        fill: #0a8b30;
      }

      .st3 {
        fill: #fecd1a;
      }

      .st4 {
        fill: #656ead;
      }

      .st5 {
        fill: #e2001a;
      }
    </style>
  </defs>
  <g>
    <path class="st1" d="M53.4,27.5v-.4h.5c.4,0,.8,0,1-.2.2-.2.4-.4.5-.7,0-.2.1-.7.1-1.7v-11.6c0-.9,0-1.5-.1-1.7,0-.2-.2-.4-.5-.6-.2-.2-.6-.3-1-.3h-.5v-.4h6.7c1.8,0,3.2.3,4.3.9,1.3.7,2.4,1.8,3,3.2.7,1.4,1,3,1,4.8s-.2,2.4-.5,3.4c-.3,1-.8,1.9-1.3,2.6-.5.7-1.2,1.2-1.9,1.6-.7.4-1.6.7-2.6,1-.5,0-1.2.1-2.1.1h-6.7M59.1,10.9v13.7c0,.7,0,1.2,0,1.3,0,.2.2.3.3.4.2.1.5.2.9.2,1.2,0,2.2-.5,2.8-1.5.9-1.3,1.3-3.4,1.3-6.2s-.3-4.1-.9-5.4c-.5-1.1-1.1-1.8-1.8-2.1-.5-.3-1.4-.4-2.6-.4"/>
    <path class="st1" d="M74.6,10.9v7.2h.3c1,0,1.7-.4,2.1-1.1.4-.7.7-1.7.8-3.1h.4v9.3h-.4c0-1-.3-1.8-.6-2.5-.3-.6-.6-1.1-1-1.3-.4-.2-.9-.3-1.7-.3v4.9c0,1,0,1.6.1,1.8,0,.2.2.4.4.5.2.1.5.2.9.2h.9c1.4,0,2.5-.4,3.4-1.1.8-.8,1.5-1.9,1.8-3.5h.4l-.7,5.6h-13v-.4h.5c.4,0,.8,0,1.1-.3.2-.1.3-.3.4-.6,0-.2.1-.8.1-1.7v-11.6c0-.8,0-1.3,0-1.5,0-.3-.2-.6-.4-.7-.3-.3-.7-.4-1.2-.4h-.5v-.4h12.6v5.2h-.4c-.2-1.3-.5-2.2-.9-2.7-.4-.5-.9-1-1.7-1.2-.4-.2-1.2-.2-2.3-.2h-1.6"/>
    <path class="st1" d="M355.1,10.9v7.2h.3c1,0,1.7-.4,2.1-1.1.4-.7.7-1.7.8-3.1h.4v9.3h-.4c0-1-.3-1.8-.6-2.5-.3-.6-.6-1.1-1-1.3-.4-.2-.9-.3-1.7-.3v4.9c0,1,0,1.6.1,1.8,0,.2.2.4.4.5.2.1.5.2.9.2h.9c1.4,0,2.5-.4,3.4-1.1.8-.8,1.5-1.9,1.8-3.5h.4l-.7,5.6h-13v-.4h.5c.4,0,.8,0,1.1-.3.2-.1.3-.3.4-.6,0-.2.1-.8.1-1.7v-11.6c0-.8,0-1.3,0-1.5,0-.3-.2-.6-.4-.7-.3-.3-.7-.4-1.2-.4h-.5v-.4h12.6v5.2h-.4c-.2-1.3-.5-2.2-.9-2.7-.4-.5-.9-1-1.7-1.2-.4-.2-1.2-.2-2.3-.2h-1.6"/>
    <path class="st1" d="M96.4,9.9l-8.9,16.6h2.9c1.4,0,2.3,0,2.8-.3.9-.3,1.6-.9,2.3-1.7.6-.8,1.1-2,1.3-3.3h.4l-.6,6.4h-13.8l8.9-16.7h-2.2c-.9,0-1.4,0-1.7,0-.5.1-1,.3-1.5.7-.5.3-.8.8-1.1,1.3-.3.6-.5,1.3-.7,2.1h-.4l.4-5.2h11.9"/>
    <path class="st1" d="M106.8,22.5h-5.3l-.7,1.7c-.2.6-.3,1.1-.3,1.4s.2.9.5,1.1c.2.1.7.2,1.5.3v.4h-5v-.4c.5,0,1-.4,1.3-.8.3-.4.8-1.3,1.3-2.7l5.4-14.1h.2l5.4,14.5c.5,1.4.9,2.3,1.3,2.6.2.3.6.4,1.1.5v.4h-7.2v-.4h.3c.6,0,1-.1,1.2-.3.2-.1.2-.3.2-.6s0-.3,0-.5c0,0-.1-.4-.3-1l-.8-2.2M106.4,21.5l-2.2-6.1-2.3,6.1h4.5"/>
    <path class="st1" d="M119.4,9.9l7.4,10.8v-7.5c0-1.1-.1-1.8-.4-2.2-.4-.5-.9-.8-1.8-.7v-.4h4.9v.4c-.6,0-1.1.2-1.3.4-.2.2-.4.4-.5.8-.1.3-.2.9-.2,1.8v14.7h-.4l-10.2-14.6v11.2c0,1,.2,1.7.6,2.1.4.4.9.5,1.4.5h.4v.4h-5.4v-.4c.8,0,1.4-.2,1.7-.6.3-.4.5-1.1.5-2v-12.4l-.4-.5c-.3-.5-.6-.8-.8-1-.2-.2-.6-.2-1.1-.3v-.4h5.4"/>
    <path class="st1" d="M148.5,9.5v5.9c.1,0-.3,0-.3,0-.2-1.5-.7-2.7-1.6-3.6s-1.8-1.3-2.7-1.3-1.4.2-1.8.7c-.4.5-.7,1-.7,1.6s0,.7.2,1c.2.4.6.8,1,1.2.3.3,1.1.8,2.4,1.5,1.8,1,2.9,2,3.6,2.9.6.9.9,1.9.9,3.1s-.5,2.7-1.5,3.8c-1,1.1-2.2,1.6-3.8,1.6s-.9,0-1.3-.2c-.4-.1-1-.3-1.6-.6-.4-.2-.7-.3-.9-.3s-.4,0-.6.3c-.2.2-.4.4-.5.8h-.4v-6.6h.4c.3,1.9,1,3.3,1.9,4.3.9,1,1.9,1.5,3,1.5s1.5-.3,2-.8c.5-.5.7-1.1.7-1.8s0-.8-.3-1.2c-.2-.4-.5-.8-.9-1.1-.4-.3-1.1-.8-2-1.4-1.4-.8-2.4-1.4-3-2-.6-.6-1.1-1.2-1.4-1.9-.3-.7-.5-1.4-.5-2.2,0-1.4.4-2.6,1.3-3.6.9-1,2-1.5,3.3-1.5s1,0,1.4.2c.4.1.8.3,1.3.6.5.3.9.4,1.1.4s.3,0,.5-.2c.1-.1.2-.5.3-1h.3"/>
    <path class="st1" d="M265.6,9.5v5.9c.1,0-.3,0-.3,0-.2-1.5-.7-2.7-1.6-3.6-.8-.9-1.8-1.3-2.7-1.3s-1.4.2-1.8.7c-.4.5-.7,1-.7,1.6s0,.7.2,1c.2.4.6.8,1,1.2.3.3,1.1.8,2.4,1.5,1.8,1,2.9,2,3.6,2.9.6.9.9,1.9.9,3.1s-.5,2.7-1.5,3.8c-1,1.1-2.2,1.6-3.8,1.6s-.9,0-1.3-.2c-.4-.1-1-.3-1.6-.6-.4-.2-.7-.3-.9-.3s-.4,0-.6.3c-.2.2-.4.4-.5.8h-.4v-6.6h.4c.3,1.9,1,3.3,1.9,4.3.9,1,1.9,1.5,3,1.5s1.5-.3,2-.8c.5-.5.7-1.1.7-1.8s0-.8-.3-1.2c-.2-.4-.5-.8-.9-1.1-.4-.3-1.1-.8-2-1.4-1.4-.8-2.4-1.4-3-2-.6-.6-1.1-1.2-1.4-1.9-.3-.7-.5-1.4-.5-2.2,0-1.4.4-2.6,1.3-3.6.9-1,2-1.5,3.3-1.5s1,0,1.4.2c.3.1.8.3,1.3.6.5.3.9.4,1.1.4s.3,0,.5-.2c.1-.1.2-.5.3-1h.3"/>
    <path class="st1" d="M277.6,9.5v5.9c.1,0-.3,0-.3,0-.2-1.5-.7-2.7-1.6-3.6-.8-.9-1.8-1.3-2.7-1.3s-1.4.2-1.8.7c-.4.5-.7,1-.7,1.6s0,.7.2,1c.2.4.6.8,1,1.2.3.3,1.1.8,2.4,1.5,1.8,1,2.9,2,3.6,2.9.6.9.9,1.9.9,3.1s-.5,2.7-1.5,3.8c-1,1.1-2.2,1.6-3.8,1.6s-.9,0-1.3-.2c-.4-.1-1-.3-1.6-.6-.4-.2-.7-.3-.9-.3s-.4,0-.6.3c-.2.2-.4.4-.5.8h-.4v-6.6h.4c.3,1.9,1,3.3,1.9,4.3.9,1,1.9,1.5,3,1.5s1.5-.3,2-.8c.5-.5.7-1.1.7-1.8s0-.8-.3-1.2c-.2-.4-.5-.8-.9-1.1-.4-.3-1.1-.8-2-1.4-1.4-.8-2.3-1.4-3-2-.6-.6-1.1-1.2-1.4-1.9-.3-.7-.5-1.4-.5-2.2,0-1.4.4-2.6,1.3-3.6.9-1,2-1.5,3.3-1.5s1,0,1.4.2c.3.1.8.3,1.3.6.5.3.9.4,1.1.4s.3,0,.5-.2c.1-.1.2-.5.3-1h.3"/>
    <path class="st1" d="M373.7,9.5v5.9c.1,0-.3,0-.3,0-.2-1.5-.7-2.7-1.6-3.6-.8-.9-1.8-1.3-2.7-1.3s-1.4.2-1.8.7c-.4.5-.7,1-.7,1.6s0,.7.2,1c.2.4.6.8,1,1.2.3.3,1.1.8,2.4,1.5,1.8,1,2.9,2,3.6,2.9.6.9.9,1.9.9,3.1s-.5,2.7-1.5,3.8c-1,1.1-2.2,1.6-3.8,1.6s-.9,0-1.3-.2c-.4-.1-1-.3-1.6-.6-.4-.2-.7-.3-.9-.3s-.4,0-.6.3c-.2.2-.4.4-.5.8h-.4v-6.6h.4c.3,1.9,1,3.3,1.9,4.3.9,1,1.9,1.5,3,1.5s1.5-.3,2-.8c.5-.5.7-1.1.7-1.8s0-.8-.3-1.2c-.2-.4-.5-.8-.9-1.1-.4-.3-1.1-.8-2-1.4-1.4-.8-2.4-1.4-3-2-.6-.6-1.1-1.2-1.4-1.9-.3-.7-.5-1.4-.5-2.2,0-1.4.4-2.6,1.3-3.6.9-1,2-1.5,3.3-1.5s1,0,1.4.2c.4.1.8.3,1.3.6.5.3.9.4,1.1.4s.3,0,.5-.2c.1-.1.2-.5.3-1h.3"/>
    <path class="st1" d="M155.8,19v5.4c0,.9,0,1.5.1,1.7,0,.2.3.4.5.6.2.2.6.3,1,.3h.5v.4h-7.9v-.4h.5c.4,0,.8,0,1.1-.3.2-.1.3-.3.4-.6,0-.2.1-.8.1-1.7v-11.6c0-.9,0-1.5-.1-1.7,0-.2-.2-.4-.5-.6-.2-.2-.6-.3-1-.3h-.5v-.4h7.9v.4h-.5c-.4,0-.8,0-1.1.3-.2.1-.3.3-.5.6,0,.2-.1.8-.1,1.7v5h5.3v-5c0-.9,0-1.5-.1-1.7,0-.2-.2-.4-.5-.6-.3-.2-.6-.3-1-.3h-.5v-.4h7.9v.4h-.5c-.4,0-.8,0-1.1.3-.2.1-.3.3-.5.6,0,.2-.1.8-.1,1.7v11.6c0,.9,0,1.5.1,1.7,0,.2.2.4.5.6.3.2.6.3,1,.3h.5v.4h-7.9v-.4h.5c.4,0,.8,0,1.1-.3.2-.1.3-.3.5-.6,0-.2.1-.8.1-1.7v-5.4h-5.3"/>
    <path class="st1" d="M175.8,27.1v.4h-7.9v-.4h.5c.4,0,.8,0,1.1-.3.2-.1.3-.3.4-.6,0-.2.1-.8.1-1.7v-11.6c0-.9,0-1.5-.1-1.7,0-.2-.2-.4-.5-.6-.3-.2-.6-.3-1-.3h-.5v-.4h7.9v.4h-.5c-.4,0-.8,0-1.1.3-.2.1-.3.3-.5.6,0,.2-.1.8-.1,1.7v11.6c0,.9,0,1.5.1,1.7,0,.2.3.4.5.6.2.2.6.3,1,.3h.5"/>
    <path class="st1" d="M319.9,27.1v.4h-7.9v-.4h.5c.4,0,.8,0,1.1-.3.2-.1.3-.3.4-.6,0-.2.1-.8.1-1.7v-11.6c0-.9,0-1.5-.1-1.7,0-.2-.2-.4-.5-.6-.3-.2-.6-.3-1-.3h-.5v-.4h7.9v.4h-.5c-.4,0-.8,0-1.1.3-.2.1-.3.3-.5.6,0,.2-.1.8-.1,1.7v11.6c0,.9,0,1.5.1,1.7,0,.2.3.4.5.6.2.2.6.3,1,.3h.5"/>
    <path class="st1" d="M182.2,19.5v5c0,1,0,1.6.2,1.8.1.3.3.5.5.6.3.1.7.2,1.4.2v.4h-7.8v-.4c.7,0,1.2,0,1.4-.2.3-.2.4-.4.5-.6.1-.2.2-.8.2-1.8v-11.5c0-1,0-1.6-.2-1.8-.1-.3-.3-.4-.5-.6-.3-.1-.7-.2-1.4-.2v-.4h7c1.8,0,3.2.1,4,.4.8.3,1.5.8,2.1,1.6.5.8.8,1.7.8,2.8s-.4,2.4-1.2,3.2c-.5.5-1.2.9-2.1,1.2l3.6,6c.5.8.8,1.3,1,1.5.3.3.7.4,1.1.4v.5h-4.7l-4.8-8h-1M182.2,10.9v7.6h.6c1,0,1.8-.1,2.3-.3.5-.2.9-.6,1.2-1.2.3-.6.4-1.3.4-2.2,0-1.3-.3-2.3-.8-2.9s-1.4-.9-2.6-.9h-1.2"/>
    <path class="st1" d="M202.2,22.5h-5.3l-.7,1.7c-.2.6-.3,1.1-.3,1.4s.2.9.5,1.1c.2.1.7.2,1.5.3v.4h-5v-.4c.5,0,1-.4,1.3-.8.3-.4.8-1.3,1.3-2.7l5.4-14.1h.2l5.4,14.5c.5,1.4.9,2.3,1.3,2.6.2.3.6.4,1.1.5v.4h-7.2v-.4h.3c.6,0,1-.1,1.2-.3.2-.1.2-.3.2-.6s0-.3,0-.5c0,0-.1-.4-.3-1l-.8-2.2M201.9,21.5l-2.2-6.1-2.3,6.1h4.5"/>
    <path class="st1" d="M248.4,22.5h-5.3l-.7,1.7c-.2.6-.3,1.1-.3,1.4s.2.9.5,1.1c.2.1.7.2,1.5.3v.4h-5v-.4c.5,0,1-.4,1.3-.8.3-.4.8-1.3,1.3-2.7l5.4-14.1h.2l5.4,14.5c.5,1.4.9,2.3,1.3,2.6.2.3.6.4,1.1.5v.4h-7.2v-.4h.3c.6,0,1-.1,1.2-.3.2-.1.2-.3.2-.6s0-.3,0-.5c0,0-.1-.4-.3-1l-.8-2.2M248,21.5l-2.2-6.1-2.3,6.1h4.5"/>
    <path class="st1" d="M330.1,22.5h-5.3l-.7,1.7c-.2.6-.3,1.1-.3,1.4s.2.9.5,1.1c.2.1.7.2,1.5.3v.4h-5v-.4c.5,0,1-.4,1.3-.8.3-.4.8-1.3,1.3-2.7l5.4-14.1h.2l5.4,14.5c.5,1.4.9,2.3,1.3,2.6.2.3.6.4,1.1.5v.4h-7.2v-.4h.3c.6,0,1-.1,1.2-.3.2-.1.2-.3.2-.6s0-.3,0-.5c0,0-.1-.4-.3-1l-.8-2.2M329.7,21.5l-2.2-6.1-2.3,6.1h4.5"/>
    <path class="st1" d="M227.4,17.3h4.4v.5c-.5,0-.9.3-1.2.5-.3.3-.7.9-1.1,1.9-.5,1-1.1,2.1-1.9,3.2.7.8,1.3,1.3,1.8,1.6.3.2.6.3.9.3.5,0,1-.4,1.4-1.2l.4.3c-.6,1.4-1.2,2.3-1.9,2.9-.5.4-1.1.6-1.7.6s-1.1-.1-1.6-.4c-.5-.3-1.1-.8-1.8-1.6-.9.7-1.7,1.2-2.5,1.5-.8.3-1.6.5-2.4.5-1.3,0-2.4-.4-3.2-1.3-.8-.9-1.2-1.9-1.2-3s.4-2.4,1.1-3.3c.8-.9,1.9-1.7,3.3-2.4-.2-.5-.3-1.1-.4-1.6,0-.5-.1-1-.1-1.5,0-1.3.4-2.5,1.2-3.3.8-.9,1.8-1.3,3.1-1.3s1.8.3,2.4.9c.6.6.9,1.3.9,2.1s-.3,1.8-.9,2.4c-.6.7-1.6,1.3-2.9,1.9.8,1.7,2,3.5,3.5,5.4,1-1.4,1.6-2.6,1.6-3.6s-.1-.7-.3-.9c-.2-.3-.5-.4-.9-.4v-.5M220.7,18.6c-.6.3-1,.6-1.2.9-.3.5-.5,1-.5,1.6s.2,1.6.6,2.4c.4.8.9,1.4,1.4,1.8.5.4,1.1.6,1.6.6s.6,0,.9-.2c.3-.1.7-.3,1.1-.6-1.7-2.1-3-4.2-3.9-6.4M223.2,16.5c.7-.3,1.2-.7,1.5-1,.3-.4.4-.8.4-1.4,0-.9-.2-1.7-.6-2.4-.3-.4-.6-.6-1-.6s-.6.2-.9.5c-.2.3-.4.7-.4,1.3s0,.8.2,1.3c.1.5.4,1.3.8,2.4"/>
    <path class="st1" d="M287.5,9.6c2.4-.1,4.3.7,5.8,2.5,1.5,1.7,2.2,3.9,2.2,6.5s-.5,4.2-1.7,5.9c-1.5,2.3-3.5,3.4-6.2,3.4s-4.8-1.1-6.2-3.2c-1.2-1.7-1.7-3.7-1.7-6s.8-4.8,2.3-6.5c1.5-1.7,3.4-2.6,5.6-2.5M287.7,10.4c-1.4,0-2.4.8-3.1,2.5-.6,1.4-.9,3.3-.9,5.8s.4,5.2,1.3,6.7c.6,1,1.5,1.5,2.6,1.5s1.4-.2,1.9-.7c.6-.6,1.1-1.4,1.5-2.7.4-1.2.5-2.8.5-4.8s-.2-4.1-.6-5.2c-.4-1.2-.8-2-1.4-2.5-.6-.5-1.2-.7-2-.7"/>
    <path class="st1" d="M310.9,9.5v6.1h-.4c-.3-1.6-.9-2.8-1.8-3.7-.9-.9-1.9-1.3-3-1.3s-1.8.3-2.6,1c-.8.6-1.3,1.5-1.7,2.5-.5,1.3-.7,2.8-.7,4.4s.2,3,.5,4.3c.3,1.3.9,2.3,1.6,2.9.7.7,1.6,1,2.8,1s1.8-.2,2.6-.7c.8-.5,1.6-1.3,2.5-2.5v1.5c-.8,1-1.7,1.8-2.6,2.3-.9.5-2,.7-3.2.7s-3-.4-4.2-1.1c-1.2-.8-2.2-1.8-2.9-3.2-.7-1.4-1-2.9-1-4.5s.4-3.3,1.1-4.8c.7-1.5,1.8-2.7,3-3.5,1.3-.8,2.6-1.2,4-1.2s2.2.3,3.3.8c.7.3,1.1.5,1.3.5s.4-.1.6-.3c.2-.2.3-.5.3-1h.4"/>
    <path class="st1" d="M348.3,9.9v4.8h-.4c-.2-1.1-.5-1.9-.8-2.4-.3-.5-.7-.9-1.2-1.1-.3-.2-.8-.2-1.5-.2h-1.1v13.6c0,.9,0,1.5.1,1.7,0,.2.2.4.5.6.2.2.6.3,1,.3h.5v.5h-7.8v-.5h.5c.4,0,.8,0,1-.3.2-.1.3-.3.4-.6,0-.2.1-.8.1-1.6v-13.6h-1.1c-1,0-1.7.2-2.2.8-.6.7-1,1.7-1.2,3h-.4v-4.8h13.4"/>
  </g>
  <g>
    <rect class="st3" x="2.1" y="18.4" width="26.9" height="3.8" transform="translate(-9.8 17) rotate(-45)"/>
    <rect class="st5" x="7.5" y="23.8" width="26.9" height="3.8" transform="translate(-12.1 22.4) rotate(-45)"/>
    <rect class="st2" x="13" y="29.3" width="26.9" height="3.8" transform="translate(-14.3 27.8) rotate(-45)"/>
    <polygon class="st4" points="23.7 47.5 21 44.8 40 25.8 42.7 28.5 23.7 47.5"/>
  </g>
  <g>
    <path class="st0" d="M124.4,44.8c0,1.7,0,1.9.9,2h.6c0,.1,0,.4,0,.4-1,0-1.5,0-2.1,0s-1.2,0-2.1,0c0,0-.1-.3,0-.4h.5c.9-.1.9-.4.9-2v-.8c0-.9,0-1.1-.5-2l-1.9-3.6c-.5-1-.8-1.1-1.2-1.2h-.4c0-.2,0-.4,0-.5.5,0,1.1,0,1.8,0s1.3,0,1.7,0c.1,0,.1.3,0,.4h-.2c-.5.1-.7.2-.7.3s.4,1.1.5,1.2c.6,1.2,1.2,2.4,1.8,3.5.5-.8,1-1.7,1.5-2.7.4-.8,1-1.9,1-2.1s-.3-.2-.7-.3h-.3c-.1-.1,0-.4,0-.4.6,0,1,0,1.5,0s.9,0,1.5,0c.1,0,.1.3,0,.4h-.4c-.8.2-1.3,1.2-2.1,2.6l-1,1.7c-.7,1.2-.7,1.3-.7,2.5v.8h0Z"/>
    <path class="st0" d="M133.6,44c0,2-1.4,3.4-3.3,3.4s-3.2-1.3-3.2-3.2,1.5-3.4,3.4-3.4,3.2,1.3,3.2,3.3h0ZM130.2,41.2c-1,0-1.8,1-1.8,2.7s.6,3,2,3,1.8-1.4,1.8-2.7-.5-3-2-3h0Z"/>
    <path class="st0" d="M136.5,44.8c0,1.1.3,1.8,1.5,1.8s.9-.2,1.3-.5c.2-.2.3-.4.3-.9v-2.6c0-1-.1-1.1-.6-1.2h-.2c-.1-.1-.1-.4,0-.4.6,0,1.5-.1,1.8-.3,0,0,.1,0,.1.1,0,.3,0,.8,0,1.4v2.6c0,1.2,0,1.7.5,1.7s.4,0,.6,0c0,0,.1.4,0,.5-.6.1-1.5.3-2.1.6,0,0-.2,0-.2-.1v-.6c0-.1,0-.2-.1-.2-.5.3-1.2.8-2.2.8-1.4,0-1.9-.7-1.9-2v-2.6c0-1,0-1.1-.5-1.3h-.2c0-.2,0-.4,0-.4.7,0,1.3-.2,1.7-.3,0,0,.1,0,.2.1,0,.3,0,.6,0,1.4v2.6h0Z"/>
    <path class="st0" d="M143.4,42.6c0-.6,0-.7-.4-1h-.1c0-.2,0-.3,0-.4.4-.1,1.2-.5,1.6-.8,0,0,.1,0,.1.1v.9c0,0,0,.1,0,.1.6-.5,1.1-.9,1.7-.9s.7.3.7.6-.4.7-.7.7-.2,0-.3-.1c-.2-.2-.5-.3-.7-.3s-.4.1-.6.3c-.2.2-.2.7-.2,1.2v2.1c0,1.1,0,1.3.6,1.4h.6c.1.1,0,.4,0,.4-.7,0-1.2,0-1.7,0s-1,0-1.4,0c-.1,0-.1-.3,0-.4h.3c.6-.1.6-.3.6-1.4v-2.8h0Z"/>
    <path class="st0" d="M154,44.8c0,1.7,0,1.9,1,2h.4c0,.1,0,.4,0,.4-.9,0-1.4,0-2,0s-1.2,0-1.9,0c0,0-.1-.3,0-.4h.3c.9-.2.9-.4.9-2v-5.8c0-1.3,0-1.6-.7-1.7h-.6c-.1-.2,0-.4,0-.5.8-.1,1.8-.1,3.1-.1s2.3.2,3,.6c.7.5,1.3,1.3,1.3,2.4s-.9,2.2-1.6,2.5c-.7.3-1.5.5-2.2.5-.1,0-.1-.3,0-.3,1.7-.3,2.3-1.3,2.3-2.6s-.9-2.5-2.5-2.5-.8,0-.8.6v7h0Z"/>
    <path class="st0" d="M162.3,43.9c.2,0,.3-.2.3-.5v-.7c0-.6-.2-1.4-1.1-1.4s-1,.2-1,.7c0,.3,0,.4-.2.5-.2.2-.7.3-.9.3s-.2,0-.2-.2c0-.8,1.8-1.9,2.9-1.9s1.7.7,1.6,1.8v2.7c-.1.7,0,1.4.6,1.4s.3,0,.4,0c0,0,.2-.1.2-.1s.1,0,.1.2-.5.7-1.3.7-.8-.1-1-.5c0,0-.2-.2-.3-.2s-.3.1-.6.3c-.3.2-.7.4-1.1.4s-.8-.1-1.1-.4c-.3-.3-.5-.7-.5-1.1s.3-1,1.3-1.3l1.9-.7h0ZM161.3,46.7c.3,0,.8-.2,1-.4.2-.2.2-.4.2-.7v-.9c0-.2,0-.2-.1-.2s-.4,0-.6.2c-.9.3-1.4.5-1.4,1.2s.2.9,1,.9h0Z"/>
    <path class="st0" d="M166.3,42.6c0-.6,0-.7-.4-1h-.1c0-.2,0-.3,0-.4.4-.1,1.2-.5,1.6-.8,0,0,.1,0,.1.1v.9c0,0,0,.1,0,.1.6-.5,1.1-.9,1.7-.9s.7.3.7.6-.4.7-.7.7-.2,0-.3-.1c-.2-.2-.5-.3-.7-.3s-.4.1-.6.3c-.2.2-.2.7-.2,1.2v2.1c0,1.1,0,1.3.6,1.4h.6c.1.1,0,.4,0,.4-.7,0-1.2,0-1.7,0s-1,0-1.4,0c-.1,0-.1-.3,0-.4h.3c.6-.1.6-.3.6-1.4v-2.8h0Z"/>
    <path class="st0" d="M172.8,41.6c-.3,0-.3,0-.3.4v2.9c0,.9.1,1.7,1.1,1.7s.3,0,.4,0c.1,0,.3-.2.4-.2.1,0,.2.2.2.3-.3.3-.8.7-1.7.7-1.4,0-1.6-.8-1.6-1.7v-3.6c0-.4,0-.5-.3-.5h-.4c0,0-.1-.2,0-.3.5-.1.8-.3,1-.5.2-.2.5-.6.7-.9,0,0,.3,0,.3,0v.7c0,.3,0,.3.3.3h1.7c.2.1.2.6,0,.7h-1.8,0Z"/>
    <path class="st0" d="M176.1,42.6c0-.6,0-.7-.4-1h-.1c0-.2,0-.3,0-.4.4-.1,1.3-.5,1.6-.8,0,0,.1,0,.2.1,0,.4,0,.6,0,.7s0,.2.2.2c.7-.4,1.4-.8,2.2-.8,1.3,0,1.8.9,1.8,2v2.7c0,1.1,0,1.3.6,1.4h.3c.1.1,0,.4,0,.4-.5,0-.9,0-1.5,0s-1,0-1.5,0c-.1,0-.1-.3,0-.4h.3c.6-.1.6-.3.6-1.4v-2.3c0-.9-.4-1.6-1.5-1.6s-1.1.3-1.3.5c-.2.3-.2.5-.2.9v2.4c0,1.1,0,1.3.6,1.4h.3c.1.1,0,.4,0,.4-.4,0-.9,0-1.4,0s-1,0-1.5,0c-.1,0-.1-.3,0-.4h.3c.6-.1.6-.3.6-1.4v-2.8h0Z"/>
    <path class="st0" d="M184.7,43.1c-.4,0-.4,0-.4.4,0,1.6.9,2.9,2.6,2.9s1-.2,1.4-.8c.2,0,.3,0,.3.2-.5,1.1-1.7,1.5-2.5,1.5s-1.8-.4-2.3-1c-.5-.6-.7-1.4-.7-2,0-1.9,1.3-3.6,3.2-3.6s2.2.9,2.2,1.9,0,.3,0,.4c0,0-.3.1-.9.1h-2.9,0ZM185.7,42.7c1.2,0,1.5,0,1.6-.2,0,0,0,0,0-.3,0-.4-.3-1-1.2-1s-1.7.9-1.7,1.4c0,0,0,0,.1,0h1.1Z"/>
    <path class="st0" d="M190.3,42.6c0-.6,0-.7-.4-1h-.1c0-.2,0-.3,0-.4.4-.1,1.2-.5,1.6-.8,0,0,.1,0,.1.1v.9c0,0,0,.1,0,.1.6-.5,1.1-.9,1.7-.9s.7.3.7.6-.4.7-.7.7-.2,0-.3-.1c-.2-.2-.5-.3-.7-.3s-.4.1-.6.3c-.2.2-.2.7-.2,1.2v2.1c0,1.1,0,1.3.6,1.4h.6c.1.1,0,.4,0,.4-.7,0-1.2,0-1.7,0s-1,0-1.4,0c-.1,0-.1-.3,0-.4h.3c.6-.1.6-.3.6-1.4v-2.8h0Z"/>
    <path class="st0" d="M200.5,41.6c-.3,0-.3,0-.3.5v3.3c0,1.1,0,1.3.6,1.4h.6c.1.1,0,.4,0,.4-.7,0-1.2,0-1.7,0s-1,0-1.5,0c-.1,0-.1-.3,0-.4h.4c.6-.1.6-.3.6-1.4v-3.3c0-.4,0-.5-.3-.5h-.6c0,0-.1-.2,0-.3l.7-.3c.1,0,.2-.2.2-.3,0-.9.1-1.9.5-2.8.4-.9,1.3-2,2.8-2s1.5.4,1.5.9-.3.6-.6.6-.3,0-.4-.2c-.3-.3-.7-.7-1.3-.7s-.9.3-1.1.9c-.3.7-.3,1.9-.3,2.7v.5c0,.4,0,.4.3.4h1.8c.2.2,0,.6-.1.7h-1.7Z"/>
    <path class="st0" d="M209.1,44c0,2-1.4,3.4-3.3,3.4s-3.2-1.3-3.2-3.2,1.5-3.4,3.4-3.4,3.2,1.3,3.2,3.3h0ZM205.7,41.2c-1,0-1.8,1-1.8,2.7s.6,3,2,3,1.8-1.4,1.8-2.7-.5-3-2-3h0Z"/>
    <path class="st0" d="M211,42.6c0-.6,0-.7-.4-1h-.1c0-.2,0-.3,0-.4.4-.1,1.2-.5,1.6-.8,0,0,.1,0,.1.1v.9c0,0,0,.1,0,.1.5-.5,1.1-.9,1.7-.9s.7.3.7.6-.4.7-.7.7-.2,0-.3-.1c-.2-.2-.5-.3-.7-.3s-.4.1-.6.3c-.2.2-.2.7-.2,1.2v2.1c0,1.1,0,1.3.6,1.4h.6c.1.1,0,.4,0,.4-.7,0-1.2,0-1.7,0s-1,0-1.4,0c-.1,0-.1-.3,0-.4h.3c.6-.1.6-.3.6-1.4v-2.8h0Z"/>
    <path class="st0" d="M228.5,45.6c0,.6,0,1,.4,1.1,0,0,0,.1,0,.2-.2,0-.5,0-.8.1-.8.2-2,.4-2.8.4-1.9,0-3.6-.5-4.8-1.7-.9-.9-1.4-2.2-1.4-3.6s.4-2.7,1.4-3.7c1.1-1.1,2.6-1.8,5-1.8s1.7.2,2,.2c.3,0,.8.2,1,.1,0,.5,0,1.3.2,2.3,0,.1-.3.1-.4,0-.4-1.7-1.6-2.2-3.2-2.2-3.1,0-4.4,2.2-4.4,4.5s1.6,5.4,4.7,5.4,1.6-.2,1.7-.5c0-.1.2-.4.2-.9v-.6c0-1.3,0-1.4-1-1.5h-.7c-.1-.1-.1-.4,0-.5.5,0,1.3,0,2.3,0s1.1,0,1.7,0c.1,0,.1.3,0,.4h-.3c-.7.1-.7.5-.7,1.4v.9h0Z"/>
    <path class="st0" d="M231.1,42.6c0-.6,0-.7-.4-1h-.1c0-.2,0-.3,0-.4.4-.1,1.2-.5,1.6-.8,0,0,.1,0,.1.1v.9c0,0,0,.1,0,.1.5-.5,1.1-.9,1.7-.9s.7.3.7.6-.4.7-.7.7-.2,0-.3-.1c-.2-.2-.5-.3-.7-.3s-.4.1-.6.3c-.2.2-.2.7-.2,1.2v2.1c0,1.1,0,1.3.6,1.4h.6c.1.1,0,.4,0,.4-.7,0-1.2,0-1.7,0s-1,0-1.4,0c-.1,0-.1-.3,0-.4h.3c.6-.1.6-.3.6-1.4v-2.8h0Z"/>
    <path class="st0" d="M241.6,44c0,2-1.4,3.4-3.3,3.4s-3.2-1.3-3.2-3.2,1.5-3.4,3.4-3.4,3.2,1.3,3.2,3.3h0ZM238.3,41.2c-1,0-1.8,1-1.8,2.7s.6,3,2,3,1.8-1.4,1.8-2.7-.5-3-2-3h0Z"/>
    <path class="st0" d="M243,42.5c-.4-.9-.6-1-.9-1.1h-.3c0-.1,0-.4,0-.4.5,0,.9,0,1.4,0s.9,0,1.4,0c.1,0,.1.3,0,.4h-.4c-.2,0-.3.2-.3.3s0,.4.3.8l1,2.4c.1.4.3.6.3.7,0,0,.2-.3.4-.8l.8-1.9c.2-.5.2-.7.1-.9-.1-.3-.4-.5-.7-.5h-.3c-.1-.2,0-.4,0-.4.4,0,.9,0,1.3,0s1,0,1.5,0c.1,0,.1.3,0,.4h-.3c-.6.2-.6.2-.4.8.2.5,1,2.5,1.2,2.9,0,.2.2.4.2.4,0,0,.1-.2.2-.4.2-.5.8-2.1,1.1-2.8.1-.4.2-.6.2-.7s0-.2-.3-.2h-.4c-.1-.1,0-.4,0-.4.5,0,.9,0,1.2,0s.7,0,1,0c.1,0,.1.3,0,.4h-.3c-.4.1-.5.4-.9,1.1-.4.9-1.2,2.8-1.5,3.6-.2.6-.4,1-.5,1.4,0,0-.1,0-.2,0s-.1,0-.2,0c0-.3-.4-1.1-.6-1.7l-.8-1.8c-.1-.3-.3-.8-.4-.8s-.2.5-.3.8l-.8,2c-.3.7-.5,1.2-.6,1.6,0,0-.1,0-.2,0s-.1,0-.2,0c0-.3-.3-1-.5-1.3l-1.4-3.6h0Z"/>
    <path class="st0" d="M254.9,41.6c-.3,0-.3,0-.3.4v2.9c0,.9.1,1.7,1.1,1.7s.3,0,.4,0c.1,0,.3-.2.4-.2.1,0,.2.2.2.3-.3.3-.9.7-1.7.7-1.4,0-1.6-.8-1.6-1.7v-3.6c0-.4,0-.5-.3-.5h-.4c0,0-.1-.2,0-.3.5-.1.8-.3,1-.5.2-.2.5-.6.7-.9,0,0,.3,0,.3,0v.7c0,.3,0,.3.3.3h1.7c.2.1.2.6,0,.7h-1.8Z"/>
    <path class="st0" d="M258.1,38.3c0-.9,0-1-.5-1.3h-.2c0-.1,0-.4,0-.4.4-.1,1.1-.4,1.7-.7,0,0,.1,0,.2,0,0,.5,0,1.3,0,2v3.3c0,.1,0,.3,0,.3.6-.4,1.3-.8,2.1-.8,1.5,0,2,.9,2,2v2.6c0,1.1,0,1.3.6,1.4h.4c.1.1,0,.4,0,.4-.6,0-1,0-1.6,0s-1,0-1.5,0c-.1,0-.1-.3,0-.4h.3c.6-.1.6-.3.6-1.4v-2.2c0-1-.5-1.7-1.5-1.7s-.9.2-1.2.4c-.3.2-.3.3-.3.9v2.6c0,1.1,0,1.3.6,1.4h.3c.1.1,0,.4,0,.4-.5,0-.9,0-1.5,0s-1,0-1.5,0c-.1,0-.1-.3,0-.4h.4c.6-.1.6-.3.6-1.4v-7.1h0Z"/>
    <path class="st0" d="M270,42.6c0-.6,0-.7-.4-1h-.1c0-.2,0-.3,0-.4.4-.1,1.3-.5,1.6-.8,0,0,.1,0,.2,0,0,.6,0,1.3,0,2v2.8c0,1.1,0,1.3.6,1.4h.3c.1.1,0,.4,0,.4-.5,0-.9,0-1.5,0s-1,0-1.5,0c-.1,0-.1-.3,0-.4h.3c.6-.1.6-.3.6-1.4v-2.8h0ZM271.3,38.2c0,.6-.4.8-.8.8s-.8-.4-.8-.8.4-.8.8-.8.8.4.8.8h0Z"/>
    <path class="st0" d="M273.9,42.6c0-.6,0-.7-.4-1h-.1c0-.2,0-.3,0-.4.4-.1,1.3-.5,1.6-.8,0,0,.1,0,.2.1,0,.4,0,.6,0,.7s0,.2.2.2c.7-.4,1.4-.8,2.2-.8,1.3,0,1.8.9,1.8,2v2.7c0,1.1,0,1.3.6,1.4h.3c.1.1,0,.4,0,.4-.5,0-.9,0-1.5,0s-1,0-1.5,0c-.1,0-.1-.3,0-.4h.3c.6-.1.6-.3.6-1.4v-2.3c0-.9-.4-1.6-1.5-1.6s-1.1.3-1.3.5c-.2.3-.2.5-.2.9v2.4c0,1.1,0,1.3.6,1.4h.3c.1.1,0,.4,0,.4-.4,0-.9,0-1.4,0s-1,0-1.5,0c-.1,0-.1-.3,0-.4h.3c.6-.1.6-.3.6-1.4v-2.8h0Z"/>
    <path class="st0" d="M290.6,43.5c-.1-.3-.2-.4-.6-.4h-2.4c-.4,0-.5,0-.6.4l-.5,1.7c-.2.7-.3,1.1-.3,1.3s0,.3.5.3h.5c.1.1.1.4,0,.4-.4,0-.9,0-1.6,0-.5,0-1.1,0-1.5,0,0,0-.1-.3,0-.4h.5c.4,0,.7-.3.9-.8.3-.7.7-1.7,1.4-3.5l1.6-4.2c.2-.6.3-.9.3-1.1.4-.1.6-.4.8-.6,0,0,.2,0,.2.1.2.7.5,1.4.7,2.1l2.2,6.3c.5,1.4.7,1.6,1.3,1.7h.4c.1.1,0,.4,0,.4-.6,0-1.2,0-1.9,0s-1.4,0-1.8,0c-.1,0-.1-.3,0-.4h.5c.3,0,.5-.2.5-.3s0-.5-.2-.8l-.7-2.1h0ZM287.5,42.1c-.1.4-.1.4.3.4h1.9c.5,0,.5,0,.3-.5l-.8-2.6c-.1-.4-.3-.8-.4-1h0c0,0-.2.5-.4.9l-1,2.7h0Z"/>
    <path class="st0" d="M298.2,41c.1.3.3.8.3,1.3,0,.1-.3.1-.4,0-.3-.7-.7-1.1-1.4-1.1s-1,.4-1,1,.7,1,1.2,1.3c.8.5,1.6,1,1.6,2.1s-1.1,1.8-2.3,1.8-1.3-.2-1.7-.5c-.1-.3-.2-1.1-.2-1.6,0,0,.3-.1.4,0,.3.9.8,1.6,1.7,1.6s1.1-.3,1.1-1-.6-1.1-1.2-1.4c-.9-.5-1.6-1.1-1.6-1.9s.9-1.8,2.1-1.8,1.2.2,1.4.3h0Z"/>
    <path class="st0" d="M300.3,42.6c0-.6,0-.7-.4-1h-.1c0-.2,0-.3,0-.4.4-.1,1.3-.5,1.6-.8,0,0,.1,0,.2,0,0,.6,0,1.3,0,2v2.8c0,1.1,0,1.3.6,1.4h.3c.1.1,0,.4,0,.4-.5,0-.9,0-1.5,0s-1,0-1.5,0c-.1,0-.1-.3,0-.4h.3c.6-.1.6-.3.6-1.4v-2.8h0ZM301.6,38.2c0,.6-.4.8-.8.8s-.8-.4-.8-.8.4-.8.8-.8.8.4.8.8h0Z"/>
    <path class="st0" d="M306.4,43.9c.2,0,.3-.2.3-.5v-.7c0-.6-.2-1.4-1.1-1.4s-1,.2-1,.7c0,.3,0,.4-.2.5-.2.2-.7.3-.9.3s-.2,0-.2-.2c0-.8,1.8-1.9,2.9-1.9s1.7.7,1.6,1.8v2.7c-.1.7,0,1.4.6,1.4s.3,0,.4,0c0,0,.2-.1.2-.1s.1,0,.1.2-.5.7-1.3.7-.8-.1-1-.5c0,0-.2-.2-.3-.2s-.3.1-.6.3c-.3.2-.7.4-1.1.4s-.8-.1-1.1-.4c-.3-.3-.5-.7-.5-1.1s.3-1,1.3-1.3l1.9-.7h0ZM305.4,46.7c.3,0,.8-.2,1-.4.2-.2.2-.4.2-.7v-.9c0-.2,0-.2-.1-.2s-.4,0-.6.2c-.9.3-1.4.5-1.4,1.2s.2.9,1,.9h0Z"/>
  </g>
</svg>