<svg xmlns="http://www.w3.org/2000/svg" id="Layer_1" version="1.1" viewBox="0 0 380 57"><defs><style>.st0{fill:#9c9e9f}.st1{fill:#1a171b}</style></defs><path d="M53.4 27.5v-.4h.5c.4 0 .8 0 1-.2s.4-.4.5-.7c0-.2.1-.7.1-1.7V12.9c0-.9 0-1.5-.1-1.7 0-.2-.2-.4-.5-.6-.2-.2-.6-.3-1-.3h-.5v-.4h6.7c1.8 0 3.2.3 4.3.9 1.3.7 2.4 1.8 3 3.2.7 1.4 1 3 1 4.8s-.2 2.4-.5 3.4-.8 1.9-1.3 2.6-1.2 1.2-1.9 1.6-1.6.7-2.6 1c-.5 0-1.2.1-2.1.1h-6.7m5.8-16.6v15c0 .2.2.3.3.4.2.1.5.2.9.2 1.2 0 2.2-.5 2.8-1.5.9-1.3 1.3-3.4 1.3-6.2s-.3-4.1-.9-5.4q-.75-1.65-1.8-2.1c-.5-.3-1.4-.4-2.6-.4M74.6 10.9v7.2h.3c1 0 1.7-.4 2.1-1.1s.7-1.7.8-3.1h.4v9.3h-.4c0-1-.3-1.8-.6-2.5-.3-.6-.6-1.1-1-1.3s-.9-.3-1.7-.3V24c0 1 0 1.6.1 1.8 0 .2.2.4.4.5s.5.2.9.2h.9c1.4 0 2.5-.4 3.4-1.1.8-.8 1.5-1.9 1.8-3.5h.4l-.7 5.6h-13v-.4h.5c.4 0 .8 0 1.1-.3.2-.1.3-.3.4-.6 0-.2.1-.8.1-1.7V11.4c0-.3-.2-.6-.4-.7-.3-.3-.7-.4-1.2-.4h-.5v-.4h12.6v5.2h-.4q-.3-1.95-.9-2.7c-.4-.5-.9-1-1.7-1.2-.4-.2-1.2-.2-2.3-.2h-1.6M355.1 10.9v7.2h.3c1 0 1.7-.4 2.1-1.1s.7-1.7.8-3.1h.4v9.3h-.4c0-1-.3-1.8-.6-2.5-.3-.6-.6-1.1-1-1.3s-.9-.3-1.7-.3V24c0 1 0 1.6.1 1.8 0 .2.2.4.4.5s.5.2.9.2h.9c1.4 0 2.5-.4 3.4-1.1.8-.8 1.5-1.9 1.8-3.5h.4l-.7 5.6h-13v-.4h.5c.4 0 .8 0 1.1-.3.2-.1.3-.3.4-.6 0-.2.1-.8.1-1.7V11.4c0-.3-.2-.6-.4-.7-.3-.3-.7-.4-1.2-.4h-.5v-.4h12.6v5.2h-.4q-.3-1.95-.9-2.7c-.4-.5-.9-1-1.7-1.2-.4-.2-1.2-.2-2.3-.2h-1.6M96.4 9.9l-8.9 16.6h2.9c1.4 0 2.3 0 2.8-.3.9-.3 1.6-.9 2.3-1.7.6-.8 1.1-2 1.3-3.3h.4l-.6 6.4H82.8l8.9-16.7h-3.9000000000000004c-.5.1-1 .3-1.5.7-.5.3-.8.8-1.1 1.3-.3.6-.5 1.3-.7 2.1h-.4l.4-5.2h11.9M106.8 22.5h-5.3l-.7 1.7c-.2.6-.3 1.1-.3 1.4s.2.9.5 1.1q.3.15 1.5.3v.4h-5V27c.5 0 1-.4 1.3-.8s.8-1.3 1.3-2.7l5.4-14.1h.2l5.4 14.5c.5 1.4.9 2.3 1.3 2.6.2.3.6.4 1.1.5v.4h-7.2V27h.3q.9 0 1.2-.3c.2-.1.2-.3.2-.6v-.5s-.1-.4-.3-1l-.8-2.2m-.5-.9-2.2-6.1-2.3 6.1zM119.4 9.9l7.4 10.8v-7.5c0-1.1-.1-1.8-.4-2.2-.4-.5-.9-.8-1.8-.7v-.4h4.9v.4c-.6 0-1.1.2-1.3.4s-.4.4-.5.8c-.1.3-.2.9-.2 1.8V28h-.4l-10.2-14.6v11.2q0 1.5.6 2.1c.4.4.9.5 1.4.5h.4v.4h-5.4v-.4c.8 0 1.4-.2 1.7-.6s.5-1.1.5-2V12.2l-.4-.5c-.3-.5-.6-.8-.8-1s-.6-.2-1.1-.3V10h5.4M148.5 9.5v5.9h-.3c-.2-1.5-.7-2.7-1.6-3.6s-1.8-1.3-2.7-1.3-1.4.2-1.8.7-.7 1-.7 1.6 0 .7.2 1c.2.4.6.8 1 1.2q.45.45 2.4 1.5c1.8 1 2.9 2 3.6 2.9.6.9.9 1.9.9 3.1s-.5 2.7-1.5 3.8-2.2 1.6-3.8 1.6-.9 0-1.3-.2c-.4-.1-1-.3-1.6-.6q-.6-.3-.9-.3c-.3 0-.4 0-.6.3-.2.2-.4.4-.5.8h-.4v-6.6h.4c.3 1.9 1 3.3 1.9 4.3q1.35 1.5 3 1.5c1.65 0 1.5-.3 2-.8s.7-1.1.7-1.8 0-.8-.3-1.2c-.2-.4-.5-.8-.9-1.1s-1.1-.8-2-1.4c-1.4-.8-2.4-1.4-3-2s-1.1-1.2-1.4-1.9-.5-1.4-.5-2.2c0-1.4.4-2.6 1.3-3.6q1.35-1.5 3.3-1.5c1.95 0 1 0 1.4.2.4.1.8.3 1.3.6s.9.4 1.1.4.3 0 .5-.2c.1-.1.2-.5.3-1h.3M265.6 9.5v5.9h-.3c-.2-1.5-.7-2.7-1.6-3.6-.8-.9-1.8-1.3-2.7-1.3s-1.4.2-1.8.7-.7 1-.7 1.6 0 .7.2 1c.2.4.6.8 1 1.2q.45.45 2.4 1.5c1.8 1 2.9 2 3.6 2.9.6.9.9 1.9.9 3.1s-.5 2.7-1.5 3.8-2.2 1.6-3.8 1.6-.9 0-1.3-.2c-.4-.1-1-.3-1.6-.6q-.6-.3-.9-.3c-.3 0-.4 0-.6.3-.2.2-.4.4-.5.8h-.4v-6.6h.4c.3 1.9 1 3.3 1.9 4.3q1.35 1.5 3 1.5c1.65 0 1.5-.3 2-.8s.7-1.1.7-1.8 0-.8-.3-1.2c-.2-.4-.5-.8-.9-1.1s-1.1-.8-2-1.4c-1.4-.8-2.4-1.4-3-2s-1.1-1.2-1.4-1.9-.5-1.4-.5-2.2c0-1.4.4-2.6 1.3-3.6q1.35-1.5 3.3-1.5c1.95 0 1 0 1.4.2.3.1.8.3 1.3.6s.9.4 1.1.4.3 0 .5-.2c.1-.1.2-.5.3-1h.3M277.6 9.5v5.9h-.3c-.2-1.5-.7-2.7-1.6-3.6-.8-.9-1.8-1.3-2.7-1.3s-1.4.2-1.8.7-.7 1-.7 1.6 0 .7.2 1c.2.4.6.8 1 1.2q.45.45 2.4 1.5c1.8 1 2.9 2 3.6 2.9.6.9.9 1.9.9 3.1s-.5 2.7-1.5 3.8-2.2 1.6-3.8 1.6-.9 0-1.3-.2c-.4-.1-1-.3-1.6-.6q-.6-.3-.9-.3c-.3 0-.4 0-.6.3-.2.2-.4.4-.5.8h-.4v-6.6h.4c.3 1.9 1 3.3 1.9 4.3q1.35 1.5 3 1.5c1.65 0 1.5-.3 2-.8s.7-1.1.7-1.8 0-.8-.3-1.2c-.2-.4-.5-.8-.9-1.1s-1.1-.8-2-1.4c-1.4-.8-2.3-1.4-3-2-.6-.6-1.1-1.2-1.4-1.9s-.5-1.4-.5-2.2c0-1.4.4-2.6 1.3-3.6q1.35-1.5 3.3-1.5c1.95 0 1 0 1.4.2.3.1.8.3 1.3.6s.9.4 1.1.4.3 0 .5-.2c.1-.1.2-.5.3-1h.3M373.7 9.5v5.9h-.3c-.2-1.5-.7-2.7-1.6-3.6-.8-.9-1.8-1.3-2.7-1.3s-1.4.2-1.8.7-.7 1-.7 1.6 0 .7.2 1c.2.4.6.8 1 1.2q.45.45 2.4 1.5c1.8 1 2.9 2 3.6 2.9.6.9.9 1.9.9 3.1s-.5 2.7-1.5 3.8-2.2 1.6-3.8 1.6-.9 0-1.3-.2c-.4-.1-1-.3-1.6-.6q-.6-.3-.9-.3c-.3 0-.4 0-.6.3-.2.2-.4.4-.5.8h-.4v-6.6h.4c.3 1.9 1 3.3 1.9 4.3q1.35 1.5 3 1.5c1.65 0 1.5-.3 2-.8s.7-1.1.7-1.8 0-.8-.3-1.2c-.2-.4-.5-.8-.9-1.1s-1.1-.8-2-1.4c-1.4-.8-2.4-1.4-3-2s-1.1-1.2-1.4-1.9-.5-1.4-.5-2.2c0-1.4.4-2.6 1.3-3.6q1.35-1.5 3.3-1.5c1.95 0 1 0 1.4.2.4.1.8.3 1.3.6s.9.4 1.1.4.3 0 .5-.2c.1-.1.2-.5.3-1h.3M155.8 19v5.4c0 .9 0 1.5.1 1.7 0 .2.3.4.5.6s.6.3 1 .3h.5v.4H150V27h.5c.4 0 .8 0 1.1-.3.2-.1.3-.3.4-.6 0-.2.1-.8.1-1.7V12.8c0-.9 0-1.5-.1-1.7 0-.2-.2-.4-.5-.6-.2-.2-.6-.3-1-.3h-.5v-.4h7.9v.4h-.5c-.4 0-.8 0-1.1.3-.2.1-.3.3-.5.6 0 .2-.1.8-.1 1.7v5h5.3v-5c0-.9 0-1.5-.1-1.7 0-.2-.2-.4-.5-.6s-.6-.3-1-.3h-.5v-.4h7.9v.4h-.5c-.4 0-.8 0-1.1.3-.2.1-.3.3-.5.6 0 .2-.1.8-.1 1.7v11.6c0 .9 0 1.5.1 1.7 0 .2.2.4.5.6s.6.3 1 .3h.5v.4h-7.9V27h.5c.4 0 .8 0 1.1-.3.2-.1.3-.3.5-.6 0-.2.1-.8.1-1.7V19h-5.3M175.8 27.1v.4h-7.9v-.4h.5c.4 0 .8 0 1.1-.3.2-.1.3-.3.4-.6 0-.2.1-.8.1-1.7V12.9c0-.9 0-1.5-.1-1.7 0-.2-.2-.4-.5-.6s-.6-.3-1-.3h-.5v-.4h7.9v.4h-.5c-.4 0-.8 0-1.1.3-.2.1-.3.3-.5.6 0 .2-.1.8-.1 1.7v11.6c0 .9 0 1.5.1 1.7 0 .2.3.4.5.6s.6.3 1 .3h.5M319.9 27.1v.4H312v-.4h.5c.4 0 .8 0 1.1-.3.2-.1.3-.3.4-.6 0-.2.1-.8.1-1.7V12.9c0-.9 0-1.5-.1-1.7 0-.2-.2-.4-.5-.6s-.6-.3-1-.3h-.5v-.4h7.9v.4h-.5c-.4 0-.8 0-1.1.3-.2.1-.3.3-.5.6 0 .2-.1.8-.1 1.7v11.6c0 .9 0 1.5.1 1.7 0 .2.3.4.5.6s.6.3 1 .3h.5M182.2 19.5v5c0 1 0 1.6.2 1.8.1.3.3.5.5.6.3.1.7.2 1.4.2v.4h-7.8v-.4c.7 0 1.2 0 1.4-.2.3-.2.4-.4.5-.6s.2-.8.2-1.8V13c0-1 0-1.6-.2-1.8-.1-.3-.3-.4-.5-.6-.3-.1-.7-.2-1.4-.2V10h7c1.8 0 3.2.1 4 .4s1.5.8 2.1 1.6c.5.8.8 1.7.8 2.8s-.4 2.4-1.2 3.2q-.75.75-2.1 1.2l3.6 6c.5.8.8 1.3 1 1.5.3.3.7.4 1.1.4v.5h-4.7l-4.8-8h-1m-.1-8.7v7.6h.6c1 0 1.8-.1 2.3-.3q.75-.3 1.2-1.2c.3-.6.4-1.3.4-2.2 0-1.3-.3-2.3-.8-2.9s-1.4-.9-2.6-.9h-1.2M202.2 22.5h-5.3l-.7 1.7c-.2.6-.3 1.1-.3 1.4s.2.9.5 1.1q.3.15 1.5.3v.4h-5V27c.5 0 1-.4 1.3-.8s.8-1.3 1.3-2.7l5.4-14.1h.2l5.4 14.5c.5 1.4.9 2.3 1.3 2.6.2.3.6.4 1.1.5v.4h-7.2V27h.3q.9 0 1.2-.3c.2-.1.2-.3.2-.6v-.5s-.1-.4-.3-1l-.8-2.2m-.4-.9-2.2-6.1-2.3 6.1zM248.4 22.5h-5.3l-.7 1.7c-.2.6-.3 1.1-.3 1.4s.2.9.5 1.1q.3.15 1.5.3v.4h-5V27c.5 0 1-.4 1.3-.8s.8-1.3 1.3-2.7l5.4-14.1h.2l5.4 14.5c.5 1.4.9 2.3 1.3 2.6.2.3.6.4 1.1.5v.4h-7.2V27h.3q.9 0 1.2-.3c.2-.1.2-.3.2-.6v-.5s-.1-.4-.3-1l-.8-2.2m-.5-.9-2.2-6.1-2.3 6.1zM330.1 22.5h-5.3l-.7 1.7c-.2.6-.3 1.1-.3 1.4s.2.9.5 1.1q.3.15 1.5.3v.4h-5V27c.5 0 1-.4 1.3-.8s.8-1.3 1.3-2.7l5.4-14.1h.2l5.4 14.5c.5 1.4.9 2.3 1.3 2.6.2.3.6.4 1.1.5v.4h-7.2V27h.3q.9 0 1.2-.3c.2-.1.2-.3.2-.6v-.5s-.1-.4-.3-1l-.8-2.2m-.5-.9-2.2-6.1-2.3 6.1zM227.4 17.3h4.4v.5c-.5 0-.9.3-1.2.5-.3.3-.7.9-1.1 1.9-.5 1-1.1 2.1-1.9 3.2.7.8 1.3 1.3 1.8 1.6q.45.3.9.3c.5 0 1-.4 1.4-1.2l.4.3c-.6 1.4-1.2 2.3-1.9 2.9-.5.4-1.1.6-1.7.6s-1.1-.1-1.6-.4-1.1-.8-1.8-1.6c-.9.7-1.7 1.2-2.5 1.5s-1.6.5-2.4.5c-1.3 0-2.4-.4-3.2-1.3q-1.2-1.35-1.2-3c0-1.65.4-2.4 1.1-3.3q1.2-1.35 3.3-2.4c-.2-.5-.3-1.1-.4-1.6 0-.5-.1-1-.1-1.5 0-1.3.4-2.5 1.2-3.3.8-.9 1.8-1.3 3.1-1.3s1.8.3 2.4.9q.9.9.9 2.1c0 1.2-.3 1.8-.9 2.4-.6.7-1.6 1.3-2.9 1.9.8 1.7 2 3.5 3.5 5.4 1-1.4 1.6-2.6 1.6-3.6s-.1-.7-.3-.9c-.2-.3-.5-.4-.9-.4v-.5m-6.7 1.1q-.9.45-1.2.9c-.3.5-.5 1-.5 1.6s.2 1.6.6 2.4.9 1.4 1.4 1.8 1.1.6 1.6.6.6 0 .9-.2c.3-.1.7-.3 1.1-.6-1.7-2.1-3-4.2-3.9-6.4m2.5-2.2c.7-.3 1.2-.7 1.5-1 .3-.4.4-.8.4-1.4q0-1.35-.6-2.4c-.3-.4-.6-.6-1-.6s-.6.2-.9.5c-.2.3-.4.7-.4 1.3s0 .8.2 1.3c.1.5.4 1.3.8 2.4M287.5 9.6c2.4-.1 4.3.7 5.8 2.5 1.5 1.7 2.2 3.9 2.2 6.5s-.5 4.2-1.7 5.9c-1.5 2.3-3.5 3.4-6.2 3.4s-4.8-1.1-6.2-3.2c-1.2-1.7-1.7-3.7-1.7-6s.8-4.8 2.3-6.5 3.4-2.6 5.6-2.5m.1.7c-1.4 0-2.4.8-3.1 2.5-.6 1.4-.9 3.3-.9 5.8s.4 5.2 1.3 6.7c.6 1 1.5 1.5 2.6 1.5s1.4-.2 1.9-.7c.6-.6 1.1-1.4 1.5-2.7.4-1.2.5-2.8.5-4.8s-.2-4.1-.6-5.2c-.4-1.2-.8-2-1.4-2.5s-1.2-.7-2-.7M310.9 9.5v6.1h-.4c-.3-1.6-.9-2.8-1.8-3.7s-1.9-1.3-3-1.3-1.8.3-2.6 1c-.8.6-1.3 1.5-1.7 2.5-.5 1.3-.7 2.8-.7 4.4s.2 3 .5 4.3.9 2.3 1.6 2.9c.7.7 1.6 1 2.8 1s1.8-.2 2.6-.7 1.6-1.3 2.5-2.5V25c-.8 1-1.7 1.8-2.6 2.3s-2 .7-3.2.7-3-.4-4.2-1.1c-1.2-.8-2.2-1.8-2.9-3.2s-1-2.9-1-4.5.4-3.3 1.1-4.8 1.8-2.7 3-3.5c1.3-.8 2.6-1.2 4-1.2s2.2.3 3.3.8c.7.3 1.1.5 1.3.5s.4-.1.6-.3.3-.5.3-1h.4M348.3 9.9v4.8h-.4c-.2-1.1-.5-1.9-.8-2.4s-.7-.9-1.2-1.1c-.3-.2-.8-.2-1.5-.2h-1.1v13.6c0 .9 0 1.5.1 1.7 0 .2.2.4.5.6.2.2.6.3 1 .3h.5v.5h-7.8v-.5h.5c.4 0 .8 0 1-.3.2-.1.3-.3.4-.6 0-.2.1-.8.1-1.6V11.1h-1.1c-1 0-1.7.2-2.2.8q-.9 1.05-1.2 3h-.4v-4.8h13.4" class="st1"/><path d="M2.1 18.4H29v3.8H2.1z" style="fill:#fecd1a" transform="rotate(-45 15.62 20.33)"/><path d="M7.5 23.8h26.9v3.8H7.5z" style="fill:#e2001a" transform="rotate(-45 20.99 25.806)"/><path d="M13 29.3h26.9v3.8H13z" style="fill:#0a8b30" transform="rotate(-45 26.408 31.162)"/><path d="M23.7 47.5 21 44.8l19-19 2.7 2.7z" style="fill:#656ead"/><path d="M124.4 44.8c0 1.7 0 1.9.9 2h.6v.4h-4.2s-.1-.3 0-.4h.5c.9-.1.9-.4.9-2V44c0-.9 0-1.1-.5-2l-1.9-3.6c-.5-1-.8-1.1-1.2-1.2h-.4v-.5h3.5c.1 0 .1.3 0 .4h-.2c-.5.1-.7.2-.7.3s.4 1.1.5 1.2c.6 1.2 1.2 2.4 1.8 3.5q.75-1.2 1.5-2.7c.4-.8 1-1.9 1-2.1s-.3-.2-.7-.3h-.3c-.1-.1 0-.4 0-.4h3c.1 0 .1.3 0 .4h-.4c-.8.2-1.3 1.2-2.1 2.6l-1 1.7c-.7 1.2-.7 1.3-.7 2.5v.8ZM133.6 44c0 2-1.4 3.4-3.3 3.4s-3.2-1.3-3.2-3.2 1.5-3.4 3.4-3.4 3.2 1.3 3.2 3.3Zm-3.4-2.8c-1 0-1.8 1-1.8 2.7s.6 3 2 3 1.8-1.4 1.8-2.7-.5-3-2-3M136.5 44.8c0 1.1.3 1.8 1.5 1.8s.9-.2 1.3-.5c.2-.2.3-.4.3-.9v-2.6c0-1-.1-1.1-.6-1.2h-.2c-.1-.1-.1-.4 0-.4.6 0 1.5-.1 1.8-.3 0 0 .1 0 .1.1v4c0 1.2 0 1.7.5 1.7h.6s.1.4 0 .5c-.6.1-1.5.3-2.1.6 0 0-.2 0-.2-.1v-.6c0-.1 0-.2-.1-.2-.5.3-1.2.8-2.2.8-1.4 0-1.9-.7-1.9-2v-2.6c0-1 0-1.1-.5-1.3h-.2v-.4c.7 0 1.3-.2 1.7-.3 0 0 .1 0 .2.1v4ZM143.4 42.6c0-.6 0-.7-.4-1h-.1v-.4c.4-.1 1.2-.5 1.6-.8 0 0 .1 0 .1.1v1c.6-.5 1.1-.9 1.7-.9s.7.3.7.6-.4.7-.7.7-.2 0-.3-.1c-.2-.2-.5-.3-.7-.3s-.4.1-.6.3-.2.7-.2 1.2v2.1c0 1.1 0 1.3.6 1.4h.6c.1.1 0 .4 0 .4h-3.0999999999999996c-.1 0-.1-.3 0-.4h.3c.6-.1.6-.3.6-1.4v-2.8ZM154 44.8c0 1.7 0 1.9 1 2h.4v.4h-3.9s-.1-.3 0-.4h.3c.9-.2.9-.4.9-2V39c0-1.3 0-1.6-.7-1.7h-.6c-.1-.2 0-.4 0-.5.8-.1 1.8-.1 3.1-.1s2.3.2 3 .6c.7.5 1.3 1.3 1.3 2.4s-.9 2.2-1.6 2.5-1.5.5-2.2.5c-.1 0-.1-.3 0-.3 1.7-.3 2.3-1.3 2.3-2.6s-.9-2.5-2.5-2.5-.8 0-.8.6v7ZM162.3 43.9c.2 0 .3-.2.3-.5v-.7c0-.6-.2-1.4-1.1-1.4s-1 .2-1 .7c0 .3 0 .4-.2.5-.2.2-.7.3-.9.3s-.2 0-.2-.2c0-.8 1.8-1.9 2.9-1.9s1.7.7 1.6 1.8v2.7c-.1.7 0 1.4.6 1.4h.4l.2-.1s.1 0 .1.2-.5.7-1.3.7-.8-.1-1-.5c0 0-.2-.2-.3-.2s-.3.1-.6.3-.7.4-1.1.4-.8-.1-1.1-.4-.5-.7-.5-1.1.3-1 1.3-1.3zm-1 2.8c.3 0 .8-.2 1-.4s.2-.4.2-.7v-.9c0-.2 0-.2-.1-.2s-.4 0-.6.2c-.9.3-1.4.5-1.4 1.2s.2.9 1 .9ZM166.3 42.6c0-.6 0-.7-.4-1h-.1v-.4c.4-.1 1.2-.5 1.6-.8 0 0 .1 0 .1.1v1c.6-.5 1.1-.9 1.7-.9s.7.3.7.6-.4.7-.7.7-.2 0-.3-.1c-.2-.2-.5-.3-.7-.3s-.4.1-.6.3-.2.7-.2 1.2v2.1c0 1.1 0 1.3.6 1.4h.6c.1.1 0 .4 0 .4h-3.0999999999999996c-.1 0-.1-.3 0-.4h.3c.6-.1.6-.3.6-1.4v-2.8ZM172.8 41.6c-.3 0-.3 0-.3.4v2.9c0 .9.1 1.7 1.1 1.7h.4c.1 0 .3-.2.4-.2s.2.2.2.3c-.3.3-.8.7-1.7.7-1.4 0-1.6-.8-1.6-1.7v-3.6c0-.4 0-.5-.3-.5h-.4s-.1-.2 0-.3c.5-.1.8-.3 1-.5s.5-.6.7-.9h.3v.7c0 .3 0 .3.3.3h1.7c.2.1.2.6 0 .7zM176.1 42.6c0-.6 0-.7-.4-1h-.1v-.4c.4-.1 1.3-.5 1.6-.8 0 0 .1 0 .2.1v.7c0 .1 0 .2.2.2.7-.4 1.4-.8 2.2-.8 1.3 0 1.8.9 1.8 2v2.7c0 1.1 0 1.3.6 1.4h.3c.1.1 0 .4 0 .4h-3c-.1 0-.1-.3 0-.4h.3c.6-.1.6-.3.6-1.4V43c0-.9-.4-1.6-1.5-1.6s-1.1.3-1.3.5c-.2.3-.2.5-.2.9v2.4c0 1.1 0 1.3.6 1.4h.3c.1.1 0 .4 0 .4h-2.9c-.1 0-.1-.3 0-.4h.3c.6-.1.6-.3.6-1.4v-2.8ZM184.7 43.1c-.4 0-.4 0-.4.4 0 1.6.9 2.9 2.6 2.9s1-.2 1.4-.8c.2 0 .3 0 .3.2-.5 1.1-1.7 1.5-2.5 1.5s-1.8-.4-2.3-1-.7-1.4-.7-2c0-1.9 1.3-3.6 3.2-3.6s2.2.9 2.2 1.9v.4s-.3.1-.9.1zm1-.4c1.2 0 1.5 0 1.6-.2v-.3c0-.4-.3-1-1.2-1s-1.7.9-1.7 1.4h1.2000000000000002ZM190.3 42.6c0-.6 0-.7-.4-1h-.1v-.4c.4-.1 1.2-.5 1.6-.8 0 0 .1 0 .1.1v1c.6-.5 1.1-.9 1.7-.9s.7.3.7.6-.4.7-.7.7-.2 0-.3-.1c-.2-.2-.5-.3-.7-.3s-.4.1-.6.3-.2.7-.2 1.2v2.1c0 1.1 0 1.3.6 1.4h.6c.1.1 0 .4 0 .4h-3.0999999999999996c-.1 0-.1-.3 0-.4h.3c.6-.1.6-.3.6-1.4v-2.8ZM200.5 41.6c-.3 0-.3 0-.3.5v3.3c0 1.1 0 1.3.6 1.4h.6c.1.1 0 .4 0 .4h-3.2c-.1 0-.1-.3 0-.4h.4c.6-.1.6-.3.6-1.4v-3.3c0-.4 0-.5-.3-.5h-.6s-.1-.2 0-.3l.7-.3c.1 0 .2-.2.2-.3 0-.9.1-1.9.5-2.8s1.3-2 2.8-2 1.5.4 1.5.9-.3.6-.6.6-.3 0-.4-.2c-.3-.3-.7-.7-1.3-.7s-.9.3-1.1.9c-.3.7-.3 1.9-.3 2.7v.5c0 .4 0 .4.3.4h1.8c.2.2 0 .6-.1.7h-1.7ZM209.1 44c0 2-1.4 3.4-3.3 3.4s-3.2-1.3-3.2-3.2 1.5-3.4 3.4-3.4 3.2 1.3 3.2 3.3Zm-3.4-2.8c-1 0-1.8 1-1.8 2.7s.6 3 2 3 1.8-1.4 1.8-2.7-.5-3-2-3M211 42.6c0-.6 0-.7-.4-1h-.1v-.4c.4-.1 1.2-.5 1.6-.8 0 0 .1 0 .1.1v1c.5-.5 1.1-.9 1.7-.9s.7.3.7.6-.4.7-.7.7-.2 0-.3-.1c-.2-.2-.5-.3-.7-.3s-.4.1-.6.3-.2.7-.2 1.2v2.1c0 1.1 0 1.3.6 1.4h.6c.1.1 0 .4 0 .4h-3.0999999999999996c-.1 0-.1-.3 0-.4h.3c.6-.1.6-.3.6-1.4v-2.8ZM228.5 45.6c0 .6 0 1 .4 1.1v.2c-.2 0-.5 0-.8.1-.8.2-2 .4-2.8.4-1.9 0-3.6-.5-4.8-1.7-.9-.9-1.4-2.2-1.4-3.6s.4-2.7 1.4-3.7c1.1-1.1 2.6-1.8 5-1.8s1.7.2 2 .2.8.2 1 .1c0 .5 0 1.3.2 2.3 0 .1-.3.1-.4 0-.4-1.7-1.6-2.2-3.2-2.2-3.1 0-4.4 2.2-4.4 4.5s1.6 5.4 4.7 5.4 1.6-.2 1.7-.5c0-.1.2-.4.2-.9v-.6c0-1.3 0-1.4-1-1.5h-.7c-.1-.1-.1-.4 0-.5h4c.1 0 .1.3 0 .4h-.3c-.7.1-.7.5-.7 1.4v.9ZM231.1 42.6c0-.6 0-.7-.4-1h-.1v-.4c.4-.1 1.2-.5 1.6-.8 0 0 .1 0 .1.1v1c.5-.5 1.1-.9 1.7-.9s.7.3.7.6-.4.7-.7.7-.2 0-.3-.1c-.2-.2-.5-.3-.7-.3s-.4.1-.6.3-.2.7-.2 1.2v2.1c0 1.1 0 1.3.6 1.4h.6c.1.1 0 .4 0 .4h-3.0999999999999996c-.1 0-.1-.3 0-.4h.3c.6-.1.6-.3.6-1.4v-2.8ZM241.6 44c0 2-1.4 3.4-3.3 3.4s-3.2-1.3-3.2-3.2 1.5-3.4 3.4-3.4 3.2 1.3 3.2 3.3Zm-3.3-2.8c-1 0-1.8 1-1.8 2.7s.6 3 2 3 1.8-1.4 1.8-2.7-.5-3-2-3M243 42.5c-.4-.9-.6-1-.9-1.1h-.3V41h2.8c.1 0 .1.3 0 .4h-.4c-.2 0-.3.2-.3.3s0 .4.3.8l1 2.4c.1.4.3.6.3.7 0 0 .2-.3.4-.8l.8-1.9c.2-.5.2-.7.1-.9-.1-.3-.4-.5-.7-.5h-.3c-.1-.2 0-.4 0-.4h2.8c.1 0 .1.3 0 .4h-.3c-.6.2-.6.2-.4.8.2.5 1 2.5 1.2 2.9 0 .2.2.4.2.4l.2-.4c.2-.5.8-2.1 1.1-2.8.1-.4.2-.6.2-.7s0-.2-.3-.2h-.4c-.1-.1 0-.4 0-.4h2.2c.1 0 .1.3 0 .4h-.3c-.4.1-.5.4-.9 1.1-.4.9-1.2 2.8-1.5 3.6-.2.6-.4 1-.5 1.4h-.4c0-.3-.4-1.1-.6-1.7l-.8-1.8c-.1-.3-.3-.8-.4-.8s-.2.5-.3.8l-.8 2c-.3.7-.5 1.2-.6 1.6h-.4c0-.3-.3-1-.5-1.3l-1.4-3.6ZM254.9 41.6c-.3 0-.3 0-.3.4v2.9c0 .9.1 1.7 1.1 1.7h.4c.1 0 .3-.2.4-.2s.2.2.2.3c-.3.3-.9.7-1.7.7-1.4 0-1.6-.8-1.6-1.7v-3.6c0-.4 0-.5-.3-.5h-.4s-.1-.2 0-.3c.5-.1.8-.3 1-.5s.5-.6.7-.9h.3v.7c0 .3 0 .3.3.3h1.7c.2.1.2.6 0 .7zM258.1 38.3c0-.9 0-1-.5-1.3h-.2v-.4c.4-.1 1.1-.4 1.7-.7h.2v5.6c.6-.4 1.3-.8 2.1-.8 1.5 0 2 .9 2 2v2.6c0 1.1 0 1.3.6 1.4h.4c.1.1 0 .4 0 .4h-3.1c-.1 0-.1-.3 0-.4h.3c.6-.1.6-.3.6-1.4v-2.2c0-1-.5-1.7-1.5-1.7s-.9.2-1.2.4-.3.3-.3.9v2.6c0 1.1 0 1.3.6 1.4h.3c.1.1 0 .4 0 .4h-3c-.1 0-.1-.3 0-.4h.4c.6-.1.6-.3.6-1.4v-7.1ZM270 42.6c0-.6 0-.7-.4-1h-.1v-.4c.4-.1 1.3-.5 1.6-.8h.2v4.8c0 1.1 0 1.3.6 1.4h.3c.1.1 0 .4 0 .4h-3c-.1 0-.1-.3 0-.4h.3c.6-.1.6-.3.6-1.4v-2.8Zm1.3-4.4c0 .6-.4.8-.8.8s-.8-.4-.8-.8.4-.8.8-.8.8.4.8.8M273.9 42.6c0-.6 0-.7-.4-1h-.1v-.4c.4-.1 1.3-.5 1.6-.8 0 0 .1 0 .2.1v.7c0 .1 0 .2.2.2.7-.4 1.4-.8 2.2-.8 1.3 0 1.8.9 1.8 2v2.7c0 1.1 0 1.3.6 1.4h.3c.1.1 0 .4 0 .4h-3c-.1 0-.1-.3 0-.4h.3c.6-.1.6-.3.6-1.4V43c0-.9-.4-1.6-1.5-1.6s-1.1.3-1.3.5c-.2.3-.2.5-.2.9v2.4c0 1.1 0 1.3.6 1.4h.3c.1.1 0 .4 0 .4h-2.9c-.1 0-.1-.3 0-.4h.3c.6-.1.6-.3.6-1.4v-2.8ZM290.6 43.5c-.1-.3-.2-.4-.6-.4h-2.4c-.4 0-.5 0-.6.4l-.5 1.7c-.2.7-.3 1.1-.3 1.3s0 .3.5.3h.5c.1.1.1.4 0 .4h-3.1s-.1-.3 0-.4h.5c.4 0 .7-.3.9-.8.3-.7.7-1.7 1.4-3.5l1.6-4.2c.2-.6.3-.9.3-1.1.4-.1.6-.4.8-.6 0 0 .2 0 .2.1.2.7.5 1.4.7 2.1l2.2 6.3c.5 1.4.7 1.6 1.3 1.7h.4c.1.1 0 .4 0 .4h-3.7c-.1 0-.1-.3 0-.4h.5c.3 0 .5-.2.5-.3s0-.5-.2-.8l-.7-2.1Zm-3.1-1.4c-.1.4-.1.4.3.4h1.9c.5 0 .5 0 .3-.5l-.8-2.6c-.1-.4-.3-.8-.4-1 0 0-.2.5-.4.9l-1 2.7ZM298.2 41c.1.3.3.8.3 1.3 0 .1-.3.1-.4 0-.3-.7-.7-1.1-1.4-1.1s-1 .4-1 1 .7 1 1.2 1.3c.8.5 1.6 1 1.6 2.1s-1.1 1.8-2.3 1.8-1.3-.2-1.7-.5c-.1-.3-.2-1.1-.2-1.6 0 0 .3-.1.4 0 .3.9.8 1.6 1.7 1.6s1.1-.3 1.1-1-.6-1.1-1.2-1.4c-.9-.5-1.6-1.1-1.6-1.9s.9-1.8 2.1-1.8 1.2.2 1.4.3ZM300.3 42.6c0-.6 0-.7-.4-1h-.1v-.4c.4-.1 1.3-.5 1.6-.8h.2v4.8c0 1.1 0 1.3.6 1.4h.3c.1.1 0 .4 0 .4h-3c-.1 0-.1-.3 0-.4h.3c.6-.1.6-.3.6-1.4v-2.8Zm1.3-4.4c0 .6-.4.8-.8.8s-.8-.4-.8-.8.4-.8.8-.8.8.4.8.8M306.4 43.9c.2 0 .3-.2.3-.5v-.7c0-.6-.2-1.4-1.1-1.4s-1 .2-1 .7c0 .3 0 .4-.2.5-.2.2-.7.3-.9.3s-.2 0-.2-.2c0-.8 1.8-1.9 2.9-1.9s1.7.7 1.6 1.8v2.7c-.1.7 0 1.4.6 1.4h.4l.2-.1s.1 0 .1.2-.5.7-1.3.7-.8-.1-1-.5c0 0-.2-.2-.3-.2s-.3.1-.6.3-.7.4-1.1.4-.8-.1-1.1-.4-.5-.7-.5-1.1.3-1 1.3-1.3zm-1 2.8c.3 0 .8-.2 1-.4s.2-.4.2-.7v-.9c0-.2 0-.2-.1-.2s-.4 0-.6.2c-.9.3-1.4.5-1.4 1.2s.2.9 1 .9Z" class="st0"/></svg>