<?xml version="1.0" encoding="UTF-8"?>
<svg id="Layer_1" data-name="Layer 1" xmlns="http://www.w3.org/2000/svg" viewBox="0 0 2613.77 333.09">
  <defs>
    <style>
      .cls-1 {
        fill: #fecd1a;
      }

      .cls-2 {
        fill: #656ead;
      }

      .cls-3 {
        fill: #9c9e9f;
      }

      .cls-4 {
        fill: #e2001a;
      }

      .cls-5 {
        fill: #0a8b30;
      }

      .cls-6 {
        fill: #1a171b;
      }
    </style>
  </defs>
  <g>
    <path class="cls-6" d="M351.05,161.07v-3.05h3.52c3.04,0,5.43-.59,7.06-1.75,1.62-1.14,2.84-2.74,3.62-4.72,.48-1.32,.71-5.2,.71-11.72V58.6c0-6.43-.3-10.42-.87-12.04-.57-1.64-1.72-3.05-3.46-4.27-1.75-1.2-4.11-1.81-7.06-1.81h-3.52v-3.09h47.26c12.61,0,22.75,2.02,30.43,6.05,9.38,4.97,16.52,12.41,21.37,22.39,4.85,9.95,7.28,21.22,7.28,33.82,0,8.67-1.2,16.68-3.57,24.01-2.39,7.36-5.48,13.38-9.26,18.17-3.81,4.79-8.18,8.61-13.15,11.5-4.94,2.91-11.03,5.15-18.17,6.74-3.17,.67-8.16,1-14.94,1h-47.26m40.27-116.69v96.37c0,5.05,.19,8.14,.62,9.31,.39,1.19,1.11,2.08,2.09,2.69,1.39,.88,3.41,1.35,6.05,1.35,8.66,0,15.25-3.47,19.81-10.42,6.23-9.35,9.33-23.84,9.33-43.47,0-15.88-2.12-28.52-6.35-37.99-3.39-7.37-7.72-12.4-12.98-15.09-3.75-1.87-9.93-2.81-18.57-2.74"/>
    <path class="cls-6" d="M499.86,44.64v50.27h2.13c6.77,0,11.72-2.48,14.77-7.43,3.08-4.95,4.98-12.24,5.85-21.88h2.84v65.05h-2.84c-.65-7.04-1.98-12.83-3.99-17.31-2.05-4.52-4.39-7.55-7.07-9.1-2.69-1.55-6.56-2.37-11.68-2.37v34.64c0,6.77,.24,10.89,.74,12.38,.51,1.53,1.42,2.75,2.77,3.73,1.35,.99,3.54,1.47,6.59,1.47h6.3c9.88,0,17.81-2.64,23.79-7.92,5.95-5.31,10.24-13.43,12.86-24.37h2.85l-4.75,39.27h-91.44v-3.05h3.52c3.07,0,5.55-.66,7.44-1.98,1.35-.86,2.4-2.38,3.12-4.49,.56-1.52,.87-5.38,.87-11.72V58.6c0-5.66-.13-9.16-.4-10.46-.53-2.17-1.5-3.87-2.9-5.03-1.97-1.77-4.69-2.63-8.13-2.63h-3.52v-3.09h88.6v36.6h-2.85c-1.51-8.91-3.63-15.29-6.35-19.15-2.73-3.86-6.6-6.7-11.59-8.54-2.91-1.11-8.39-1.66-16.41-1.66h-11.13"/>
    <path class="cls-6" d="M2468.58,44.64v50.27h2.13c6.78,0,11.72-2.48,14.77-7.43,3.07-4.95,4.99-12.24,5.85-21.88h2.84v65.05h-2.84c-.66-7.04-1.98-12.83-4-17.31-2.04-4.52-4.39-7.55-7.06-9.1-2.7-1.55-6.57-2.37-11.68-2.37v34.64c0,6.77,.24,10.89,.74,12.38,.51,1.53,1.43,2.75,2.78,3.73,1.34,.99,3.54,1.47,6.59,1.47h6.3c9.89,0,17.81-2.64,23.79-7.92,5.95-5.31,10.24-13.43,12.86-24.37h2.86l-4.75,39.27h-91.44v-3.05h3.52c3.07,0,5.55-.66,7.43-1.98,1.36-.86,2.39-2.38,3.13-4.49,.56-1.52,.86-5.38,.86-11.72V58.6c0-5.66-.13-9.16-.4-10.46-.52-2.17-1.5-3.87-2.89-5.03-1.98-1.77-4.69-2.63-8.13-2.63h-3.52v-3.09h88.61v36.6h-2.86c-1.51-8.91-3.63-15.29-6.34-19.15-2.73-3.86-6.61-6.7-11.59-8.54-2.91-1.11-8.39-1.66-16.41-1.66h-11.13"/>
    <path class="cls-6" d="M652.67,37.39l-62.29,116.7h20.14c9.52,0,16.19-.67,19.97-2.1,6.21-2.2,11.55-6.22,16.03-12.07,4.46-5.86,7.57-13.71,9.29-23.51h3.02l-4.28,44.67h-96.64l62.47-116.96h-15.74c-6.1,0-10.13,.2-12.06,.63-3.67,.81-7.08,2.37-10.31,4.69-3.21,2.33-5.86,5.46-7.97,9.36-2.13,3.91-3.78,8.85-4.98,14.75h-2.88l2.84-36.15h83.39"/>
    <path class="cls-6" d="M725.93,125.61h-36.99l-4.64,12.18c-1.46,4.05-2.18,7.43-2.18,10.12,0,3.54,1.17,6.17,3.57,7.85,1.4,1,4.85,1.75,10.35,2.27v3.05h-35.1v-3.05c3.79-.7,6.88-2.6,9.33-5.67,2.44-3.07,5.44-9.39,9.03-18.98l37.76-98.75h1.48l37.83,101.52c3.64,9.78,6.63,15.94,8.95,18.49,1.75,1.96,4.26,3.05,7.48,3.39v3.05h-50.84v-3.05h2.12c4.1,0,6.99-.72,8.65-2.09,1.15-.98,1.69-2.43,1.69-4.33,0-1.11-.14-2.26-.47-3.48-.08-.54-.89-2.89-2.34-6.95l-5.71-15.57m-2.49-6.71l-15.68-42.47-16.25,42.47h31.93"/>
    <path class="cls-6" d="M814.44,37.39l52.05,75.95V60.86c0-7.49-.91-12.55-2.71-15.19-2.47-3.56-6.65-5.31-12.46-5.19v-3.09h34.6v3.09c-4.45,.68-7.41,1.54-8.92,2.63-1.53,1.09-2.7,2.84-3.56,5.28-.83,2.43-1.26,6.62-1.26,12.47v103h-2.62l-71.32-102.81v78.78c0,7.09,1.43,11.91,4.22,14.41,2.81,2.48,6.02,3.78,9.64,3.78h2.53v3.05h-37.69v-3.05c5.84-.09,9.92-1.47,12.19-4.23,2.29-2.76,3.44-7.37,3.44-13.96V52.84l-2.47-3.58c-2.22-3.52-4.19-5.82-5.92-6.93-1.71-1.1-4.15-1.72-7.39-1.86v-3.09h37.67"/>
    <path class="cls-6" d="M1018.71,34.62l.94,41.33h-3.07c-1.53-10.32-5.24-18.65-11.19-24.93-5.95-6.28-12.4-9.46-19.29-9.46-5.36,0-9.59,1.69-12.71,4.99-3.11,3.33-4.67,7.11-4.67,11.38,0,2.73,.55,5.19,1.65,7.3,1.5,2.88,3.91,5.67,7.25,8.41,2.42,2,8.06,5.6,16.9,10.69,12.33,7.05,20.66,13.77,24.94,20.1,4.23,6.3,6.37,13.49,6.37,21.59,0,10.38-3.46,19.27-10.36,26.7-6.93,7.41-15.69,11.11-26.35,11.11-3.35,0-6.49-.39-9.46-1.22-2.97-.8-6.71-2.27-11.21-4.45-2.51-1.24-4.57-1.86-6.19-1.86-1.33,0-2.79,.61-4.28,1.9-1.53,1.24-2.75,3.13-3.68,5.64h-2.84v-46.6h2.84c2.28,13.04,6.72,23.03,13.33,29.88,6.53,6.86,13.61,10.31,21.2,10.31,5.86,0,10.53-1.86,14.02-5.6,3.47-3.68,5.22-7.99,5.22-12.87,0-2.93-.65-5.73-1.98-8.51-1.33-2.72-3.35-5.31-6.04-7.76-2.69-2.41-7.47-5.63-14.32-9.58-9.61-5.47-16.5-10.17-20.71-14.07-4.23-3.91-7.47-8.26-9.71-13.03-2.25-4.79-3.38-10.08-3.38-15.79,0-9.91,3.1-18.3,9.3-25.23,6.18-6.92,14-10.38,23.41-10.38,3.44,0,6.78,.47,10.01,1.43,2.46,.74,5.43,2.06,8.94,4.01,3.52,1.95,5.99,2.92,7.39,2.92s2.42-.46,3.21-1.45c.76-.95,1.51-3.25,2.18-6.92h2.37"/>
    <path class="cls-6" d="M1840.55,34.62l.94,41.33h-3.07c-1.53-10.32-5.25-18.65-11.18-24.93-5.96-6.28-12.4-9.46-19.3-9.46-5.36,0-9.59,1.69-12.7,4.99-3.11,3.33-4.68,7.11-4.68,11.38,0,2.73,.55,5.19,1.64,7.3,1.51,2.88,3.92,5.67,7.26,8.41,2.42,2,8.05,5.6,16.9,10.69,12.33,7.05,20.66,13.77,24.93,20.1,4.23,6.3,6.37,13.49,6.37,21.59,0,10.38-3.46,19.27-10.36,26.7-6.94,7.41-15.69,11.11-26.35,11.11-3.35,0-6.49-.39-9.46-1.22-2.97-.8-6.7-2.27-11.21-4.45-2.51-1.24-4.57-1.86-6.18-1.86-1.33,0-2.79,.61-4.28,1.9-1.53,1.24-2.75,3.13-3.68,5.64h-2.85v-46.6h2.85c2.27,13.04,6.71,23.03,13.32,29.88,6.53,6.86,13.62,10.31,21.21,10.31,5.85,0,10.52-1.86,14.02-5.6,3.46-3.68,5.21-7.99,5.21-12.87,0-2.93-.64-5.73-1.97-8.51-1.35-2.72-3.36-5.31-6.05-7.76-2.7-2.41-7.48-5.63-14.32-9.58-9.63-5.47-16.5-10.17-20.72-14.07-4.23-3.91-7.47-8.26-9.72-13.03-2.25-4.79-3.38-10.08-3.38-15.79,0-9.91,3.11-18.3,9.3-25.23,6.18-6.92,13.99-10.38,23.41-10.38,3.42,0,6.78,.47,10.01,1.43,2.45,.74,5.42,2.06,8.93,4.01,3.52,1.95,5.99,2.92,7.39,2.92s2.42-.46,3.21-1.45c.76-.95,1.5-3.25,2.18-6.92h2.37"/>
    <path class="cls-6" d="M1924.64,34.62l.95,41.33h-3.07c-1.53-10.32-5.25-18.65-11.19-24.93-5.95-6.28-12.39-9.46-19.3-9.46-5.37,0-9.6,1.69-12.72,4.99-3.09,3.33-4.66,7.11-4.66,11.38,0,2.73,.55,5.19,1.65,7.3,1.49,2.88,3.91,5.67,7.25,8.41,2.43,2,8.06,5.6,16.9,10.69,12.33,7.05,20.67,13.77,24.94,20.1,4.23,6.3,6.36,13.49,6.36,21.59,0,10.38-3.45,19.27-10.37,26.7-6.92,7.41-15.68,11.11-26.34,11.11-3.35,0-6.49-.39-9.46-1.22-2.97-.8-6.7-2.27-11.2-4.45-2.52-1.24-4.57-1.86-6.19-1.86-1.33,0-2.79,.61-4.28,1.9-1.53,1.24-2.76,3.13-3.69,5.64h-2.83v-46.6h2.83c2.28,13.04,6.73,23.03,13.33,29.88,6.53,6.86,13.62,10.31,21.21,10.31,5.86,0,10.53-1.86,14.02-5.6,3.47-3.68,5.22-7.99,5.22-12.87,0-2.93-.65-5.73-1.99-8.51-1.33-2.72-3.33-5.31-6.04-7.76-2.69-2.41-7.47-5.63-14.33-9.58-9.61-5.47-16.49-10.17-20.71-14.07-4.23-3.91-7.48-8.26-9.71-13.03-2.25-4.79-3.38-10.08-3.38-15.79,0-9.91,3.09-18.3,9.29-25.23,6.18-6.92,13.99-10.38,23.41-10.38,3.43,0,6.78,.47,10.01,1.43,2.45,.74,5.42,2.06,8.93,4.01,3.52,1.95,5.99,2.92,7.39,2.92s2.43-.46,3.22-1.45c.76-.95,1.51-3.25,2.17-6.92h2.37"/>
    <path class="cls-6" d="M2599.62,34.62l.95,41.33h-3.07c-1.52-10.32-5.25-18.65-11.19-24.93-5.95-6.28-12.38-9.46-19.3-9.46-5.34,0-9.59,1.69-12.7,4.99-3.11,3.33-4.68,7.11-4.68,11.38,0,2.73,.55,5.19,1.65,7.3,1.5,2.88,3.91,5.67,7.25,8.41,2.43,2,8.05,5.6,16.89,10.69,12.34,7.05,20.67,13.77,24.95,20.1,4.23,6.3,6.36,13.49,6.36,21.59,0,10.38-3.46,19.27-10.36,26.7-6.94,7.41-15.69,11.11-26.35,11.11-3.35,0-6.49-.39-9.46-1.22-2.96-.8-6.7-2.27-11.21-4.45-2.51-1.24-4.57-1.86-6.17-1.86-1.35,0-2.8,.61-4.29,1.9-1.54,1.24-2.75,3.13-3.68,5.64h-2.84v-46.6h2.84c2.28,13.04,6.71,23.03,13.33,29.88,6.52,6.86,13.61,10.31,21.2,10.31,5.86,0,10.53-1.86,14.01-5.6,3.48-3.68,5.22-7.99,5.22-12.87,0-2.93-.64-5.73-1.98-8.51-1.32-2.72-3.33-5.31-6.05-7.76-2.68-2.41-7.46-5.63-14.31-9.58-9.62-5.47-16.5-10.17-20.72-14.07-4.23-3.91-7.47-8.26-9.71-13.03-2.26-4.79-3.39-10.08-3.39-15.79,0-9.91,3.11-18.3,9.3-25.23,6.18-6.92,13.99-10.38,23.4-10.38,3.44,0,6.79,.47,10.01,1.43,2.47,.74,5.44,2.06,8.94,4.01,3.52,1.95,5.99,2.92,7.4,2.92s2.42-.46,3.2-1.45c.76-.95,1.52-3.25,2.18-6.92h2.35"/>
    <path class="cls-6" d="M1070.21,101.61v38.22c0,6.45,.32,10.46,.91,12.07,.59,1.63,1.77,3.06,3.5,4.28,1.74,1.21,4.08,1.84,7.05,1.84h3.47v3.05h-55.19v-3.05h3.52c3.07,0,5.55-.66,7.41-1.98,1.36-.85,2.41-2.38,3.14-4.49,.58-1.52,.85-5.38,.85-11.72V58.6c0-6.43-.28-10.42-.85-12.04-.57-1.64-1.73-3.05-3.49-4.27-1.75-1.2-4.1-1.81-7.06-1.81h-3.52v-3.09h55.19v3.09h-3.47c-3.06,0-5.54,.63-7.41,1.97-1.36,.87-2.39,2.36-3.19,4.47-.56,1.49-.87,5.4-.87,11.68v34.91h37.21V58.6c0-6.43-.29-10.42-.86-12.04-.57-1.64-1.75-3.05-3.51-4.27-1.79-1.2-4.14-1.81-7.1-1.81h-3.44v-3.09h55.19v3.09h-3.44c-3.14,0-5.59,.63-7.43,1.97-1.35,.87-2.41,2.36-3.22,4.47-.56,1.49-.84,5.4-.84,11.68v81.23c0,6.45,.28,10.46,.84,12.07,.6,1.63,1.75,3.06,3.53,4.28,1.78,1.21,4.16,1.84,7.12,1.84h3.44v3.05h-55.19v-3.05h3.44c3.12,0,5.57-.66,7.41-1.98,1.36-.85,2.42-2.38,3.2-4.49,.57-1.52,.86-5.38,.86-11.72v-38.22h-37.21"/>
    <path class="cls-6" d="M1210.15,158.02v3.05h-55.19v-3.05h3.51c3.08,0,5.54-.66,7.43-1.98,1.36-.85,2.39-2.38,3.13-4.49,.55-1.52,.84-5.38,.84-11.72V58.6c0-6.43-.29-10.42-.84-12.04-.58-1.64-1.75-3.05-3.47-4.27-1.77-1.2-4.13-1.81-7.09-1.81h-3.51v-3.09h55.19v3.09h-3.49c-3.06,0-5.52,.63-7.39,1.97-1.37,.87-2.41,2.36-3.18,4.47-.57,1.49-.86,5.4-.86,11.68v81.23c0,6.45,.31,10.46,.91,12.07,.59,1.63,1.77,3.06,3.5,4.28,1.74,1.21,4.08,1.84,7.03,1.84h3.49"/>
    <path class="cls-6" d="M2221.72,158.02v3.05h-55.18v-3.05h3.51c3.08,0,5.54-.66,7.42-1.98,1.37-.85,2.39-2.38,3.13-4.49,.57-1.52,.84-5.38,.84-11.72V58.6c0-6.43-.28-10.42-.84-12.04-.57-1.64-1.74-3.05-3.47-4.27-1.76-1.2-4.12-1.81-7.08-1.81h-3.51v-3.09h55.18v3.09h-3.49c-3.06,0-5.52,.63-7.39,1.97-1.37,.87-2.42,2.36-3.18,4.47-.58,1.49-.86,5.4-.86,11.68v81.23c0,6.45,.31,10.46,.9,12.07,.59,1.63,1.77,3.06,3.5,4.28,1.73,1.21,4.08,1.84,7.04,1.84h3.49"/>
    <path class="cls-6" d="M1255.31,104.67v34.92c0,6.68,.35,10.89,1.07,12.61,.71,1.8,1.98,3.2,3.77,4.25,1.78,1.02,5.15,1.57,10.08,1.57v3.05h-54.74v-3.05c4.98,0,8.38-.56,10.14-1.62,1.78-1.11,3.02-2.48,3.73-4.22,.71-1.69,1.07-5.91,1.07-12.58V58.91c0-6.69-.36-10.93-1.07-12.67-.71-1.77-1.97-3.14-3.78-4.2-1.8-1.03-5.16-1.56-10.09-1.56v-3.09h49.17c12.79,0,22.15,1.05,28.06,3.13,5.95,2.07,10.76,5.88,14.54,11.43,3.73,5.53,5.63,12.03,5.63,19.49,0,9.13-2.8,16.68-8.36,22.53-3.56,3.83-8.54,6.66-14.92,8.55l25.25,41.91c3.34,5.43,5.73,8.84,7.13,10.18,2.15,1.86,4.62,2.96,7.46,3.12v3.35h-33.23l-33.96-56.39h-6.96m0-60.3v53.32h4.43c7.23,0,12.65-.76,16.26-2.31,3.58-1.51,6.39-4.27,8.44-8.24,2.06-3.96,3.07-9.15,3.07-15.61,0-9.25-1.85-16.1-5.64-20.52-3.79-4.42-9.84-6.64-18.23-6.64h-8.33"/>
    <path class="cls-6" d="M1395.84,125.61h-36.97l-4.65,12.18c-1.47,4.05-2.19,7.43-2.19,10.12,0,3.54,1.2,6.17,3.59,7.85,1.39,1,4.84,1.75,10.34,2.27v3.05h-35.09v-3.05c3.78-.7,6.9-2.6,9.35-5.67,2.44-3.07,5.44-9.39,9.02-18.98l37.76-98.75h1.47l37.86,101.52c3.66,9.78,6.61,15.94,8.98,18.49,1.73,1.96,4.22,3.05,7.44,3.39v3.05h-50.81v-3.05h2.09c4.1,0,6.97-.72,8.65-2.09,1.13-.98,1.72-2.43,1.72-4.33,0-1.11-.16-2.26-.47-3.48-.12-.54-.91-2.89-2.37-6.95l-5.71-15.57m-2.48-6.71l-15.67-42.47-16.26,42.47h31.93"/>
    <path class="cls-6" d="M1719.62,125.61h-36.97l-4.65,12.18c-1.47,4.05-2.18,7.43-2.18,10.12,0,3.54,1.19,6.17,3.58,7.85,1.39,1,4.85,1.75,10.34,2.27v3.05h-35.09v-3.05c3.78-.7,6.9-2.6,9.34-5.67,2.44-3.07,5.45-9.39,9.04-18.98l37.75-98.75h1.45l37.86,101.52c3.66,9.78,6.62,15.94,8.98,18.49,1.73,1.96,4.23,3.05,7.44,3.39v3.05h-50.81v-3.05h2.08c4.12,0,6.99-.72,8.66-2.09,1.13-.98,1.71-2.43,1.71-4.33,0-1.11-.16-2.26-.47-3.48-.11-.54-.91-2.89-2.36-6.95l-5.71-15.57m-2.49-6.71l-15.67-42.47-16.24,42.47h31.91"/>
    <path class="cls-6" d="M2293.03,125.61h-36.96l-4.66,12.18c-1.46,4.05-2.18,7.43-2.18,10.12,0,3.54,1.2,6.17,3.59,7.85,1.39,1,4.84,1.75,10.35,2.27v3.05h-35.1v-3.05c3.79-.7,6.9-2.6,9.34-5.67,2.44-3.07,5.45-9.39,9.04-18.98l37.75-98.75h1.46l37.86,101.52c3.66,9.78,6.61,15.94,8.97,18.49,1.73,1.96,4.23,3.05,7.44,3.39v3.05h-50.81v-3.05h2.09c4.11,0,6.97-.72,8.65-2.09,1.14-.98,1.73-2.43,1.73-4.33,0-1.11-.16-2.26-.48-3.48-.11-.54-.91-2.89-2.36-6.95l-5.71-15.57m-2.48-6.71l-15.67-42.47-16.25,42.47h31.92"/>
    <path class="cls-6" d="M1572.66,89.3h31.01v3.36c-3.47,.57-6.19,1.81-8.17,3.68-1.99,1.88-4.58,6.21-7.72,13.02-3.16,6.78-7.63,14.41-13.36,22.81,5.1,5.31,9.25,9,12.45,11.1,2.19,1.42,4.38,2.12,6.52,2.12,3.7,0,7.07-2.81,10.06-8.54l2.85,1.93c-4.11,9.5-8.46,16.25-13.1,20.26-3.49,3.01-7.51,4.51-12.03,4.51-3.9,0-7.6-.97-11.12-2.94-3.54-1.97-7.81-5.68-12.76-11.08-6.26,4.93-12.12,8.5-17.58,10.72-5.48,2.19-11.19,3.3-17.11,3.3-9.45,0-16.95-3.02-22.58-9.09-5.55-6.03-8.39-13.18-8.39-21.32,0-8.84,2.7-16.54,8.07-23.02,5.37-6.54,13.13-12.18,23.29-16.94-1.27-3.82-2.23-7.56-2.89-11.19-.64-3.65-.97-7.18-.97-10.6,0-9.4,2.82-17.23,8.47-23.51,5.61-6.25,12.77-9.39,21.48-9.39,7.06,0,12.63,2.05,16.74,6.24,4.09,4.13,6.17,8.96,6.17,14.5,0,6.64-2.13,12.34-6.3,17.08-4.2,4.72-10.89,9.08-20.02,12.99,5.66,11.75,13.86,24.42,24.69,37.98,7.24-9.77,10.88-18.15,10.88-25.12,0-2.51-.72-4.63-2.19-6.35-1.46-1.76-3.56-2.81-6.35-3.15v-3.36m-47.59,9.52c-4.04,2-6.9,4.12-8.56,6.34-2.37,3.3-3.58,6.98-3.58,11.03,0,5.54,1.38,11.05,4.1,16.5,2.71,5.47,6.04,9.7,9.86,12.68,3.86,3,7.68,4.53,11.48,4.53,1.92,0,4.05-.49,6.43-1.47,2.37-.97,4.95-2.41,7.75-4.36-11.96-14.51-21.1-29.61-27.47-45.25m18.01-14.83c5.22-2.24,8.74-4.73,10.54-7.31,1.76-2.64,2.66-5.77,2.66-9.48,0-6.58-1.47-12.15-4.43-16.64-1.95-3.02-4.36-4.52-7.18-4.52-2.36,0-4.35,1.08-6.03,3.24-1.64,2.18-2.47,5.15-2.47,8.84,0,2.88,.39,5.96,1.2,9.23,.77,3.31,2.68,8.86,5.72,16.64"/>
    <path class="cls-6" d="M1994.59,35.62c16.64-.76,30.17,4.98,40.57,17.24,10.43,12.21,15.61,27.5,15.61,45.87,0,15.69-3.82,29.5-11.59,41.43-10.29,15.8-24.83,23.72-43.59,23.72s-33.39-7.54-43.61-22.64c-8.19-11.9-12.23-26.06-12.23-42.4,0-18.39,5.27-33.68,15.83-45.94,10.58-12.25,23.59-18.04,39.01-17.28m.92,5.74c-9.55,0-16.78,5.78-21.79,17.34-4.06,9.51-6.08,23.13-6.08,40.88,0,21.09,3.14,36.69,9.41,46.79,4.38,7.07,10.48,10.57,18.29,10.57,5.3,0,9.74-1.5,13.27-4.57,4.48-3.87,7.99-10.08,10.54-18.62,2.49-8.56,3.77-19.72,3.77-33.43,0-16.39-1.3-28.64-3.87-36.75-2.61-8.09-5.85-13.85-9.8-17.2-3.97-3.35-8.55-5.02-13.75-5.02"/>
    <path class="cls-6" d="M2158.19,34.51v42.96h-2.7c-2.28-11.29-6.52-19.89-12.73-25.9-6.18-5.99-13.23-9.01-21.06-9.01-6.59,0-12.56,2.24-18.05,6.7-5.47,4.42-9.47,10.26-12,17.43-3.24,9.19-4.89,19.42-4.89,30.69s1.17,21.15,3.54,30.27c2.37,9.09,6.07,15.98,11.11,20.66,5.03,4.66,11.58,6.97,19.63,6.97,6.6,0,12.62-1.69,18.1-5.11,5.45-3.4,11.23-9.27,17.32-17.61v10.65c-5.87,7.29-12,12.56-18.36,15.84-6.34,3.24-13.77,4.9-22.3,4.9-11.15,0-21.04-2.66-29.74-7.97-8.68-5.29-15.39-12.89-20.11-22.78-4.71-9.96-7.08-20.51-7.08-31.71,0-11.78,2.63-23,7.89-33.59,5.24-10.56,12.35-18.77,21.24-24.63,8.92-5.83,18.33-8.76,28.36-8.76,7.42,0,15.22,1.88,23.38,5.66,4.78,2.18,7.81,3.28,9.09,3.28,1.65,0,3.11-.72,4.31-2.16,1.2-1.42,2-3.67,2.37-6.77h2.69"/>
    <path class="cls-6" d="M2421.37,37.39v33.42h-2.7c-1.65-7.66-3.5-13.18-5.49-16.53-2-3.37-4.8-6.04-8.25-8.04-1.93-1.09-5.35-1.64-10.23-1.64h-7.83v95.43c0,6.34,.3,10.31,.87,11.9,.59,1.59,1.74,2.99,3.42,4.17,1.71,1.17,4.02,1.76,6.98,1.76h3.41v3.22h-54.57v-3.22h3.41c3,0,5.42-.6,7.31-1.89,1.3-.87,2.35-2.32,3.14-4.4,.55-1.46,.83-5.33,.83-11.54V44.59h-7.81c-7.06,0-12.2,1.75-15.42,5.29-4.51,4.88-7.36,11.87-8.55,20.92h-2.67V37.39h94.16"/>
  </g>
  <g>
    <rect class="cls-1" x="-8.81" y="97.24" width="188.72" height="26.96" transform="translate(-53.23 92.91) rotate(-45)"/>
    <rect class="cls-4" x="29.32" y="135.37" width="188.72" height="26.96" transform="translate(-69.03 131.06) rotate(-45)"/>
    <rect class="cls-5" x="67.45" y="173.49" width="188.72" height="26.96" transform="translate(-84.82 169.15) rotate(-44.99)"/>
    <polygon class="cls-2" points="142.74 301.36 123.68 282.29 257.12 148.85 276.18 167.91 142.74 301.36"/>
  </g>
  <g>
    <path class="cls-3" d="M849.3,282.22c0,11.82,.66,13.58,6.63,14.03l4.2,.33c.66,.66,.44,2.43-.22,2.76-6.85-.22-10.61-.33-15.02-.33-4.64,0-8.61,.11-14.47,.33-.66-.33-.88-2.1-.22-2.76l3.42-.33c6.41-.66,6.63-2.21,6.63-14.03v-5.63c0-6.08-.33-7.51-3.53-13.7l-13.03-25.4c-3.75-7.29-5.41-7.84-8.72-8.39l-3.09-.55c-.66-.77-.55-2.32,.22-2.76,3.53,.22,7.51,.33,12.81,.33s9.06-.11,11.82-.33c.99,.33,.99,2.1,.33,2.76l-1.44,.22c-3.86,.55-4.64,1.11-4.64,1.99,0,1.11,2.87,7.4,3.42,8.5,4.09,8.17,8.17,16.9,12.48,24.52,3.42-5.86,7.07-12.26,10.38-18.67,3.09-5.74,7.18-13.25,7.18-14.58,0-.66-1.99-1.44-4.64-1.77l-1.99-.22c-.78-.77-.66-2.32,.22-2.76,3.97,.22,7.18,.33,10.6,.33s6.52-.11,10.27-.33c.89,.55,1,2.1,.22,2.76l-3.09,.55c-5.74,.99-9.05,7.95-14.58,17.45l-6.96,12.04c-4.86,8.39-5.19,9.39-5.19,17.89v5.74Z"/>
    <path class="cls-3" d="M913.91,276.81c0,13.8-9.5,23.74-23.3,23.74-12.7,0-22.64-8.95-22.64-22.75s10.49-23.86,23.53-23.86,22.42,9.28,22.42,22.86Zm-23.74-19.55c-7.29,0-12.7,6.96-12.7,19.11,0,10.05,4.53,20.88,14.25,20.88s12.7-10.16,12.7-18.67c0-9.39-3.75-21.32-14.25-21.32Z"/>
    <path class="cls-3" d="M934.23,282.78c0,7.62,1.88,12.7,10.27,12.7,2.98,0,6.52-1.21,8.95-3.31,1.44-1.33,2.21-2.98,2.21-6.4v-18.11c0-7.18-.77-7.4-4.09-8.73l-1.44-.55c-.77-.44-.77-1.99,.11-2.43,4.42-.11,10.49-.88,12.92-1.99,.55,.11,.88,.33,.99,.77-.22,2.1-.33,5.52-.33,9.61v18.56c0,8.72,.33,12.04,3.42,12.04,1.32,0,2.76-.22,4.31-.55,.66,.55,.77,2.76-.11,3.2-4.31,.89-10.72,1.99-14.47,4.09-.55,0-1.11-.33-1.33-.77v-4.53c0-.99-.33-1.55-.99-1.55-3.31,2.1-8.73,5.74-15.24,5.74-9.72,0-13.36-4.86-13.36-13.8v-18.45c0-6.96,0-7.95-3.31-9.39l-1.33-.55c-.66-.55-.55-2.1,.22-2.43,5.08-.11,9.39-1.11,11.82-1.99,.66,.11,.99,.33,1.1,.77-.22,1.88-.33,4.2-.33,9.61v18.45Z"/>
    <path class="cls-3" d="M982.92,267.31c0-4.3,0-4.86-2.98-6.85l-.99-.66c-.44-.44-.44-1.66,.11-1.99,2.54-.88,8.39-3.75,11.16-5.41,.55,.11,.88,.33,.88,.77v6.41c0,.55,.11,.88,.33,.99,3.87-3.2,8.06-6.63,12.15-6.63,2.76,0,4.97,1.77,4.97,4.42,0,3.64-2.98,5.08-4.75,5.08-1.11,0-1.66-.33-2.43-.77-1.66-1.11-3.31-1.77-4.86-1.77-1.77,0-3.09,.99-3.98,2.21-1.11,1.55-1.44,4.75-1.44,8.51v15.02c0,7.95,.22,9.28,4.42,9.61l3.98,.33c.77,.55,.55,2.43-.22,2.76-5.19-.22-8.39-.33-12.26-.33s-7.29,.11-10.16,.33c-.77-.33-1-2.21-.22-2.76l2.1-.33c4.09-.66,4.2-1.66,4.2-9.61v-19.33Z"/>
    <path class="cls-3" d="M1057.36,282.44c0,11.6,.22,13.03,7.29,13.81l2.98,.33c.66,.55,.44,2.43-.22,2.76-6.3-.22-9.94-.33-14.36-.33-4.64,0-8.61,.11-13.47,.33-.66-.33-.89-2.1-.22-2.76l2.32-.33c6.41-.89,6.63-2.21,6.63-13.81v-40.75c0-9.39-.22-11.27-5.19-11.82l-3.98-.44c-.77-.66-.66-2.32,.22-2.76,5.86-.77,12.7-.88,21.87-.88s16.02,1.21,21.21,4.42c5.08,3.2,8.84,8.95,8.84,16.57,0,10.16-6.3,15.24-11.05,17.56-4.86,2.32-10.71,3.32-15.24,3.32-.78-.33-.78-1.99-.11-2.21,11.93-2.21,16.24-8.95,16.24-18.55,0-10.71-6.29-17.67-17.78-17.67-5.85,0-5.96,.44-5.96,3.97v49.26Z"/>
    <path class="cls-3" d="M1115.23,276.15c1.66-.55,1.88-1.55,1.88-3.2l.11-5.08c.11-4.08-1.22-9.61-8.06-9.61-3.09,0-6.85,1.55-7.07,4.97-.11,1.77-.22,3.09-1.1,3.75-1.66,1.33-4.64,2.1-6.3,2.1-.99,0-1.55-.55-1.55-1.55,0-5.74,12.48-13.58,20.54-13.58s11.82,4.64,11.49,12.92l-.66,19.22c-.22,5.08,.77,9.61,5.08,9.61,1.11,0,2.1-.33,2.76-.67,.55-.33,1.11-.77,1.44-.77,.44,0,.77,.66,.77,1.44,0,.55-3.86,4.86-9.28,4.86-2.65,0-5.3-.99-7.18-3.42-.44-.66-1.1-1.55-1.77-1.55-.77,0-2.1,.99-4.31,2.21-2.43,1.33-4.86,2.76-7.95,2.76s-5.85-.89-7.73-2.54c-2.1-1.88-3.42-4.64-3.42-7.73,0-4.3,2.1-6.85,9.17-9.39l13.14-4.75Zm-6.85,19.44c2.21,0,5.63-1.66,6.74-2.76,1.33-1.33,1.33-2.87,1.44-5.19l.22-6.52c0-1.21-.44-1.43-1.1-1.43s-2.54,.44-4.53,1.11c-6.52,2.21-9.72,3.86-9.72,8.17,0,1.88,1.33,6.63,6.96,6.63Z"/>
    <path class="cls-3" d="M1143.39,267.31c0-4.3,0-4.86-2.98-6.85l-.99-.66c-.44-.44-.44-1.66,.11-1.99,2.54-.88,8.39-3.75,11.16-5.41,.55,.11,.88,.33,.88,.77v6.41c0,.55,.11,.88,.33,.99,3.87-3.2,8.06-6.63,12.15-6.63,2.76,0,4.97,1.77,4.97,4.42,0,3.64-2.98,5.08-4.75,5.08-1.11,0-1.66-.33-2.43-.77-1.66-1.11-3.31-1.77-4.86-1.77-1.77,0-3.09,.99-3.98,2.21-1.11,1.55-1.44,4.75-1.44,8.51v15.02c0,7.95,.22,9.28,4.42,9.61l3.98,.33c.77,.55,.55,2.43-.22,2.76-5.19-.22-8.39-.33-12.26-.33s-7.29,.11-10.16,.33c-.77-.33-1-2.21-.22-2.76l2.1-.33c4.09-.66,4.2-1.66,4.2-9.61v-19.33Z"/>
    <path class="cls-3" d="M1188.89,260.14c-1.88,0-1.99,.33-1.99,2.65v20.65c0,6.41,.77,12.26,8.06,12.26,1.1,0,2.1-.23,2.98-.55,.99-.33,2.43-1.55,2.76-1.55,.88,0,1.33,1.21,1.1,1.87-1.99,2.32-5.96,5.08-11.6,5.08-9.5,0-11.49-5.3-11.49-11.93v-25.29c0-2.98-.11-3.2-2.32-3.2h-3.09c-.66-.44-.77-1.66-.33-2.32,3.2-.99,5.96-2.43,7.07-3.42,1.44-1.33,3.53-4.3,4.64-6.52,.55-.22,1.88-.22,2.32,.55v4.97c0,1.99,.11,2.1,1.99,2.1h12.26c1.33,.99,1.1,3.98,.11,4.64h-12.48Z"/>
    <path class="cls-3" d="M1212.63,267.31c0-4.3,0-4.86-2.98-6.85l-.99-.66c-.44-.44-.44-1.66,.11-1.99,2.54-.88,8.83-3.75,11.04-5.41,.44,0,1,.22,1.22,.77-.22,2.54-.22,4.2-.22,5.19,0,.66,.44,1.22,1.22,1.22,4.64-2.87,9.83-5.64,15.46-5.64,9.17,0,12.92,6.3,12.92,13.7v18.99c0,7.95,.22,9.06,4.2,9.61l2.43,.33c.77,.55,.55,2.43-.22,2.76-3.31-.22-6.52-.33-10.38-.33s-7.29,.11-10.27,.33c-.78-.33-1-2.21-.22-2.76l2.1-.33c4.09-.66,4.2-1.66,4.2-9.61v-16.46c0-6.3-2.87-10.93-10.38-10.93-4.2,0-7.84,1.77-9.39,3.86-1.44,1.88-1.66,3.42-1.66,6.63v16.9c0,7.95,.22,8.95,4.2,9.61l1.99,.33c.77,.55,.55,2.43-.22,2.76-2.98-.22-6.18-.33-10.05-.33s-7.29,.11-10.38,.33c-.77-.33-.99-2.21-.22-2.76l2.32-.33c4.09-.55,4.2-1.66,4.2-9.61v-19.33Z"/>
    <path class="cls-3" d="M1273.04,270.74c-2.87,0-2.98,.22-2.98,2.98,0,11.15,6.52,20.65,18.33,20.65,3.64,0,6.74-1.11,10.16-5.42,1.11-.33,1.88,.33,1.99,1.33-3.64,7.51-11.6,10.27-17.34,10.27-7.18,0-12.81-3.09-16.02-7.29-3.31-4.31-4.64-9.5-4.64-14.36,0-13.58,8.95-24.96,22.2-24.96,9.5,0,15.68,6.52,15.68,13.14,0,1.55-.22,2.43-.44,2.87-.33,.66-1.88,.77-6.52,.77h-20.43Zm6.85-3.31c8.17,0,10.6-.44,11.49-1.11,.33-.22,.66-.66,.66-2.1,0-3.09-2.1-6.96-8.5-6.96s-12.15,5.97-12.26,9.61c0,.22,0,.55,.77,.55h7.84Z"/>
    <path class="cls-3" d="M1312.13,267.31c0-4.3,0-4.86-2.98-6.85l-.99-.66c-.44-.44-.44-1.66,.11-1.99,2.54-.88,8.39-3.75,11.16-5.41,.55,.11,.89,.33,.89,.77v6.41c0,.55,.11,.88,.33,.99,3.87-3.2,8.07-6.63,12.15-6.63,2.76,0,4.97,1.77,4.97,4.42,0,3.64-2.98,5.08-4.75,5.08-1.11,0-1.66-.33-2.43-.77-1.66-1.11-3.31-1.77-4.86-1.77-1.77,0-3.09,.99-3.98,2.21-1.11,1.55-1.43,4.75-1.43,8.51v15.02c0,7.95,.22,9.28,4.41,9.61l3.98,.33c.77,.55,.55,2.43-.22,2.76-5.19-.22-8.39-.33-12.26-.33s-7.29,.11-10.16,.33c-.77-.33-1-2.21-.22-2.76l2.1-.33c4.09-.66,4.2-1.66,4.2-9.61v-19.33Z"/>
    <path class="cls-3" d="M1383.91,260.14c-1.88,0-1.88,.22-1.88,3.2v23.3c0,7.95,.22,9.28,4.2,9.61l3.98,.33c.77,.55,.55,2.43-.22,2.76-4.97-.22-8.17-.33-12.04-.33s-7.29,.11-10.6,.33c-.77-.33-.99-2.21-.22-2.76l2.54-.33c4.09-.55,4.2-1.66,4.2-9.61v-23.3c0-2.98,0-3.2-2.21-3.2h-3.87c-.66-.44-.77-1.44-.33-2.1l4.75-2.32c.88-.44,1.65-1.1,1.65-2.21,0-6.41,.77-13.26,3.42-19.44,2.76-6.3,8.95-14.02,19.88-14.02,5.86,0,10.83,2.65,10.83,6.62,0,2.21-2.1,3.98-4.2,3.98-1.22,0-1.87-.44-2.65-1.33-2.1-2.43-5.19-4.86-8.83-4.86-3.42,0-6.19,2.1-7.84,6.08-1.99,5.08-2.43,13.14-2.43,18.66v3.2c0,2.98,0,3.09,1.88,3.09h12.59c1.22,1.11,.44,4.2-.77,4.64h-11.82Z"/>
    <path class="cls-3" d="M1444.11,276.81c0,13.8-9.5,23.74-23.3,23.74-12.7,0-22.64-8.95-22.64-22.75s10.49-23.86,23.52-23.86,22.42,9.28,22.42,22.86Zm-23.74-19.55c-7.29,0-12.7,6.96-12.7,19.11,0,10.05,4.53,20.88,14.25,20.88s12.7-10.16,12.7-18.67c0-9.39-3.76-21.32-14.25-21.32Z"/>
    <path class="cls-3" d="M1457.68,267.31c0-4.3,0-4.86-2.98-6.85l-1-.66c-.44-.44-.44-1.66,.11-1.99,2.54-.88,8.39-3.75,11.16-5.41,.55,.11,.88,.33,.88,.77v6.41c0,.55,.11,.88,.33,.99,3.86-3.2,8.06-6.63,12.15-6.63,2.76,0,4.97,1.77,4.97,4.42,0,3.64-2.98,5.08-4.75,5.08-1.11,0-1.65-.33-2.43-.77-1.66-1.11-3.32-1.77-4.86-1.77-1.77,0-3.09,.99-3.97,2.21-1.11,1.55-1.44,4.75-1.44,8.51v15.02c0,7.95,.22,9.28,4.42,9.61l3.98,.33c.77,.55,.55,2.43-.23,2.76-5.19-.22-8.39-.33-12.26-.33s-7.29,.11-10.16,.33c-.77-.33-1-2.21-.23-2.76l2.1-.33c4.08-.66,4.2-1.66,4.2-9.61v-19.33Z"/>
    <path class="cls-3" d="M1580.49,287.75c0,4.42,.66,7.07,2.65,7.84,.33,.33,.33,.99-.11,1.33-1.33,0-3.32,.44-5.41,.99-5.86,1.55-13.8,2.87-19.77,2.87-13.14,0-25.18-3.64-33.68-12.26-6.63-6.63-10.16-15.35-10.16-25.07s3.1-18.89,9.94-26.18c7.41-7.73,18.33-12.92,35.02-12.92,6.3,0,12.15,1.22,14.03,1.66,2.09,.44,5.52,1.21,6.84,.99,0,3.64,.66,9.39,1.66,16.02-.33,.89-2.32,.99-2.98,.33-3.09-11.93-11.38-15.68-22.64-15.68-21.43,0-30.82,15.24-30.82,31.81,0,21.21,10.94,37.88,33.14,37.88,6.85,0,10.93-1.43,12.15-3.31,.55-.77,1.1-2.76,1.1-6.3v-4.42c0-9.28-.33-9.94-7.18-10.71l-4.86-.55c-.88-.44-.77-2.43,0-2.76,3.2,.22,9.28,.33,15.8,.33,4.31,0,8.06-.11,11.71-.33,.77,.44,.89,2.1,.11,2.76l-1.76,.22c-4.64,.55-4.75,3.64-4.75,9.28v6.18Z"/>
    <path class="cls-3" d="M1598.49,267.31c0-4.3,0-4.86-2.98-6.85l-.99-.66c-.44-.44-.44-1.66,.11-1.99,2.53-.88,8.39-3.75,11.15-5.41,.55,.11,.88,.33,.88,.77v6.41c0,.55,.11,.88,.33,.99,3.86-3.2,8.06-6.63,12.15-6.63,2.76,0,4.97,1.77,4.97,4.42,0,3.64-2.98,5.08-4.75,5.08-1.11,0-1.66-.33-2.43-.77-1.65-1.11-3.31-1.77-4.86-1.77-1.77,0-3.1,.99-3.98,2.21-1.11,1.55-1.44,4.75-1.44,8.51v15.02c0,7.95,.22,9.28,4.42,9.61l3.97,.33c.77,.55,.56,2.43-.22,2.76-5.19-.22-8.39-.33-12.26-.33s-7.29,.11-10.16,.33c-.77-.33-1-2.21-.23-2.76l2.1-.33c4.08-.66,4.2-1.66,4.2-9.61v-19.33Z"/>
    <path class="cls-3" d="M1672.37,276.81c0,13.8-9.49,23.74-23.3,23.74-12.7,0-22.64-8.95-22.64-22.75s10.5-23.86,23.53-23.86,22.42,9.28,22.42,22.86Zm-23.74-19.55c-7.29,0-12.7,6.96-12.7,19.11,0,10.05,4.53,20.88,14.25,20.88s12.7-10.16,12.7-18.67c0-9.39-3.76-21.32-14.25-21.32Z"/>
    <path class="cls-3" d="M1682.09,266.21c-2.54-6.18-3.87-7.29-6.63-7.95l-1.76-.44c-.56-.55-.66-2.21,.33-2.65,3.42,.22,6.52,.33,9.83,.33s6.63-.11,9.61-.33c.89,.44,.99,2.1,.22,2.65l-2.54,.44c-1.55,.22-2.43,.88-2.43,1.55s.55,2.76,1.77,5.74l6.84,16.9c.99,2.54,1.99,4.53,1.99,4.75,.33-.22,1.21-2.1,2.54-5.3l5.41-13.36c1.43-3.53,1.55-4.97,.99-6.4-.99-2.43-2.65-3.31-5.08-3.86l-1.77-.44c-.77-.66-.55-2.32,.33-2.65,2.76,.22,6.3,.33,9.17,.33,3.42,0,6.74-.11,10.49-.33,.99,.33,.99,2.1,.33,2.65l-2.32,.44c-4.42,.88-4.2,1.21-2.87,5.08,1.21,3.64,7.18,17.67,8.39,20.65,.66,1.66,1.11,2.87,1.43,3.1,.22-.22,.77-1.33,1.55-3.1,1.43-3.2,5.85-14.91,7.5-19.55,.89-2.54,1.11-3.98,1.11-4.75,0-.66-.66-1.21-1.99-1.43l-2.76-.44c-.89-.55-.66-2.32,.11-2.65,3.2,.22,5.97,.33,8.73,.33,2.1,0,4.75-.11,7.18-.33,.88,.44,.99,2.1,.33,2.65l-2.21,.44c-2.65,.55-3.65,2.1-5.97,6.96-2.98,6.18-8.28,19.44-10.38,25.07-1.55,3.98-2.87,7.18-3.76,10.05-.44,.33-.88,.44-1.43,.44-.45,0-.89-.11-1.22-.44-.66-1.99-2.65-7.73-4.53-12.15l-5.3-12.7c-.77-1.99-2.43-5.64-2.54-5.64s-1.66,3.42-2.43,5.41l-5.74,13.8c-1.99,4.75-3.54,8.73-4.42,11.27-.33,.33-.77,.44-1.33,.44-.44,0-.99-.11-1.33-.44-.67-2.32-2.43-6.85-3.32-9.17l-10.16-24.96Z"/>
    <path class="cls-3" d="M1765.47,260.14c-1.88,0-1.99,.33-1.99,2.65v20.65c0,6.41,.77,12.26,8.06,12.26,1.11,0,2.1-.23,2.98-.55,.99-.33,2.43-1.55,2.76-1.55,.88,0,1.33,1.21,1.11,1.87-1.99,2.32-5.97,5.08-11.6,5.08-9.5,0-11.49-5.3-11.49-11.93v-25.29c0-2.98-.11-3.2-2.32-3.2h-3.09c-.66-.44-.77-1.66-.33-2.32,3.2-.99,5.96-2.43,7.07-3.42,1.44-1.33,3.53-4.3,4.64-6.52,.55-.22,1.88-.22,2.32,.55v4.97c0,1.99,.11,2.1,1.99,2.1h12.26c1.33,.99,1.1,3.98,.11,4.64h-12.48Z"/>
    <path class="cls-3" d="M1788.11,236.72c0-6.52-.11-7.18-3.42-9.17l-1.11-.66c-.55-.33-.55-1.87,0-2.21,2.76-.89,7.95-2.54,11.93-4.64,.44,0,.89,.22,1.11,.66-.11,3.31-.33,8.83-.33,13.7v23.19c0,.99,.11,1.88,.44,2.1,3.98-3.09,9.28-5.74,14.91-5.74,10.49,0,14.24,6.52,14.24,14.25v18.44c0,7.95,.22,9.17,4.2,9.61l2.98,.33c.77,.55,.55,2.43-.22,2.76-3.98-.22-7.18-.33-11.05-.33s-7.29,.11-10.27,.33c-.77-.33-.99-2.21-.22-2.76l2.21-.33c4.09-.66,4.2-1.66,4.2-9.61v-15.79c0-7.07-3.42-11.82-10.49-11.82-3.75,0-6.62,1.33-8.61,2.98-1.99,1.66-2.32,2.21-2.32,6.08v18.55c0,7.95,.22,9.06,4.2,9.61l2.32,.33c.77,.44,.55,2.43-.22,2.76-3.31-.22-6.52-.33-10.38-.33s-7.29,.11-10.83,.33c-.77-.33-.99-2.21-.22-2.76l2.76-.33c4.09-.44,4.2-1.66,4.2-9.61v-49.92Z"/>
    <path class="cls-3" d="M1871.49,267.31c0-4.3,0-4.86-2.98-6.85l-.99-.66c-.44-.44-.44-1.66,.11-1.99,2.54-.88,8.84-3.75,11.38-5.41,.55,0,.99,.22,1.11,.66-.22,3.87-.44,9.17-.44,13.7v19.88c0,7.95,.22,9.06,4.2,9.61l2.32,.33c.77,.55,.55,2.43-.22,2.76-3.31-.22-6.52-.33-10.38-.33s-7.29,.11-10.38,.33c-.77-.33-.99-2.21-.22-2.76l2.32-.33c4.08-.55,4.2-1.66,4.2-9.61v-19.33Zm9.17-31.48c0,3.98-2.76,5.74-5.86,5.74-3.42,0-5.63-2.54-5.63-5.52,0-3.64,2.65-5.96,5.96-5.96s5.52,2.65,5.52,5.74Z"/>
    <path class="cls-3" d="M1898.77,267.31c0-4.3,0-4.86-2.98-6.85l-.99-.66c-.44-.44-.44-1.66,.11-1.99,2.54-.88,8.84-3.75,11.05-5.41,.44,0,.99,.22,1.22,.77-.23,2.54-.23,4.2-.23,5.19,0,.66,.44,1.22,1.22,1.22,4.64-2.87,9.83-5.64,15.46-5.64,9.17,0,12.92,6.3,12.92,13.7v18.99c0,7.95,.22,9.06,4.2,9.61l2.43,.33c.77,.55,.55,2.43-.22,2.76-3.31-.22-6.52-.33-10.38-.33s-7.29,.11-10.27,.33c-.77-.33-.99-2.21-.22-2.76l2.1-.33c4.08-.66,4.2-1.66,4.2-9.61v-16.46c0-6.3-2.87-10.93-10.39-10.93-4.2,0-7.84,1.77-9.39,3.86-1.43,1.88-1.66,3.42-1.66,6.63v16.9c0,7.95,.23,8.95,4.2,9.61l1.99,.33c.77,.55,.55,2.43-.22,2.76-2.98-.22-6.19-.33-10.05-.33s-7.29,.11-10.38,.33c-.77-.33-.99-2.21-.22-2.76l2.32-.33c4.08-.55,4.2-1.66,4.2-9.61v-19.33Z"/>
    <path class="cls-3" d="M2016.27,273.39c-.77-2.43-1.21-2.76-4.53-2.76h-16.68c-2.76,0-3.42,.33-4.2,2.65l-3.86,11.6c-1.66,4.97-2.43,7.95-2.43,9.17,0,1.33,.55,1.99,3.2,2.21l3.64,.33c.77,.55,.77,2.32-.22,2.76-2.87-.22-6.3-.22-11.49-.33-3.64,0-7.62,.22-10.61,.33-.66-.44-.88-2.21-.22-2.76l3.64-.33c2.65-.22,5.08-1.44,6.63-5.42,1.99-5.08,5.08-12.26,9.72-24.63l11.27-29.82c1.55-3.98,2.21-6.08,1.88-7.84,2.65-.77,4.53-2.76,5.74-4.2,.66,0,1.43,.22,1.65,.99,1.44,4.86,3.2,9.94,4.86,14.8l15.13,44.4c3.2,9.5,4.64,11.16,9.39,11.71l2.98,.33c.77,.55,.55,2.32,0,2.76-4.53-.22-8.39-.33-13.36-.33-5.3,0-9.5,.22-12.7,.33-.88-.44-.99-2.21-.22-2.76l3.2-.33c2.32-.22,3.86-.89,3.86-1.99,0-1.21-.55-3.2-1.43-5.85l-4.86-15.02Zm-21.87-9.83c-.89,2.54-.77,2.65,2.32,2.65h13.58c3.2,0,3.42-.44,2.43-3.42l-5.96-18c-.88-2.65-1.88-5.63-2.54-6.96h-.22c-.33,.55-1.43,3.2-2.65,6.52l-6.96,19.22Z"/>
    <path class="cls-3" d="M2069.28,255.94c1,2.43,1.77,5.96,1.77,8.94-.45,.77-2.1,1-2.65,.33-1.88-4.86-5.19-8.06-9.72-8.06s-7.07,2.76-7.07,6.74c0,4.53,4.64,6.96,8.5,9.17,5.86,3.31,11.27,7.07,11.27,14.91,0,8.39-7.73,12.59-15.9,12.59-5.19,0-9.05-1.11-11.82-3.31-.88-2.1-1.55-7.51-1.33-11.16,.55-.66,1.99-.77,2.54-.11,1.87,6.08,5.41,11.37,11.71,11.37,3.98,0,7.4-2.32,7.4-7.07,0-5.08-4.42-7.84-8.51-10.16-6.4-3.64-10.93-7.51-10.93-13.58,0-8.06,6.63-12.59,15.02-12.59,4.64,0,8.72,1.11,9.72,1.99Z"/>
    <path class="cls-3" d="M2084.41,267.31c0-4.3,0-4.86-2.98-6.85l-.99-.66c-.44-.44-.44-1.66,.11-1.99,2.54-.88,8.84-3.75,11.38-5.41,.55,0,.99,.22,1.11,.66-.22,3.87-.44,9.17-.44,13.7v19.88c0,7.95,.22,9.06,4.2,9.61l2.32,.33c.77,.55,.55,2.43-.22,2.76-3.31-.22-6.52-.33-10.38-.33s-7.29,.11-10.38,.33c-.77-.33-1-2.21-.22-2.76l2.32-.33c4.08-.55,4.2-1.66,4.2-9.61v-19.33Zm9.17-31.48c0,3.98-2.76,5.74-5.86,5.74-3.42,0-5.63-2.54-5.63-5.52,0-3.64,2.65-5.96,5.96-5.96s5.52,2.65,5.52,5.74Z"/>
    <path class="cls-3" d="M2127.03,276.15c1.66-.55,1.88-1.55,1.88-3.2l.11-5.08c.11-4.08-1.21-9.61-8.06-9.61-3.09,0-6.85,1.55-7.07,4.97-.11,1.77-.22,3.09-1.11,3.75-1.65,1.33-4.64,2.1-6.3,2.1-.99,0-1.55-.55-1.55-1.55,0-5.74,12.48-13.58,20.55-13.58s11.82,4.64,11.49,12.92l-.66,19.22c-.22,5.08,.77,9.61,5.08,9.61,1.11,0,2.1-.33,2.76-.67,.55-.33,1.1-.77,1.43-.77,.44,0,.77,.66,.77,1.44,0,.55-3.86,4.86-9.27,4.86-2.65,0-5.3-.99-7.18-3.42-.44-.66-1.11-1.55-1.77-1.55-.77,0-2.1,.99-4.31,2.21-2.43,1.33-4.86,2.76-7.95,2.76s-5.86-.89-7.73-2.54c-2.1-1.88-3.42-4.64-3.42-7.73,0-4.3,2.1-6.85,9.17-9.39l13.14-4.75Zm-6.85,19.44c2.21,0,5.64-1.66,6.74-2.76,1.33-1.33,1.33-2.87,1.44-5.19l.22-6.52c0-1.21-.44-1.43-1.11-1.43s-2.54,.44-4.53,1.11c-6.52,2.21-9.72,3.86-9.72,8.17,0,1.88,1.33,6.63,6.96,6.63Z"/>
  </g>
</svg>