<svg width="362" height="37" viewBox="0 0 362 37" fill="none" xmlns="http://www.w3.org/2000/svg">
<g clip-path="url(#clip0_4733_6566)">
<path d="M47.6264 17.5307V17.1084H48.117C48.5407 17.1084 48.8737 17.0267 49.1009 16.8661C49.3267 16.7082 49.4967 16.4867 49.6054 16.2126C49.6723 16.0298 49.7044 15.4926 49.7044 14.5898V3.34293C49.7044 2.45265 49.6626 1.90021 49.5831 1.67591C49.5037 1.44884 49.3434 1.25361 49.1009 1.08469C48.857 0.918543 48.5281 0.834084 48.117 0.834084H47.6264V0.40625H54.213C55.9704 0.40625 57.3836 0.685934 58.4539 1.24392C59.7612 1.93205 60.7563 2.96218 61.4322 4.34398C62.1082 5.72163 62.4468 7.28205 62.4468 9.02661C62.4468 10.227 62.2796 11.3361 61.9493 12.351C61.6162 13.37 61.1856 14.2035 60.6587 14.8668C60.1278 15.53 59.5187 16.0589 58.826 16.459C58.1376 16.8619 57.2888 17.1721 56.2937 17.3922C55.8519 17.485 55.1565 17.5307 54.2116 17.5307H47.625M53.2374 1.37407V14.7172C53.2374 15.4164 53.2639 15.8443 53.3238 16.0063C53.3781 16.171 53.4785 16.2942 53.6151 16.3787C53.8088 16.5006 54.0903 16.5656 54.4582 16.5656C55.6652 16.5656 56.5836 16.0852 57.2191 15.1229C58.0874 13.8283 58.5194 11.8221 58.5194 9.10415C58.5194 6.90545 58.224 5.15534 57.6344 3.84415C57.162 2.82372 56.5585 2.12728 55.8254 1.75483C55.3028 1.49591 54.4415 1.36576 53.2374 1.37545" fill="white"/>
<path d="M68.3638 1.41007V8.37033H68.6606C69.6041 8.37033 70.294 8.02695 70.7191 7.34159C71.1483 6.65622 71.4131 5.64687 71.5344 4.31214H71.9302V13.3188H71.5344C71.4438 12.3441 71.2585 11.5424 70.9783 10.9221C70.6926 10.2963 70.3665 9.87674 69.993 9.66213C69.6181 9.44753 69.0787 9.33399 68.3652 9.33399V14.1302C68.3652 15.0675 68.3986 15.638 68.4683 15.8443C68.5394 16.0561 68.6662 16.225 68.8543 16.3607C69.0425 16.4978 69.3477 16.5642 69.7728 16.5642H70.6508C72.0278 16.5642 73.133 16.1987 73.9664 15.4677C74.7956 14.7324 75.3935 13.6082 75.7587 12.0934H76.1559L75.4939 17.5307H62.75V17.1084H63.2406C63.6684 17.1084 64.0141 17.017 64.2775 16.8342C64.4656 16.7152 64.612 16.5047 64.7123 16.2126C64.7904 16.0021 64.8336 15.4677 64.8336 14.5898V3.34293C64.8336 2.55926 64.8154 2.07466 64.7778 1.89467C64.7039 1.59422 64.5688 1.35884 64.3736 1.19823C64.0991 0.953157 63.72 0.834084 63.2406 0.834084H62.75V0.40625H75.0981V5.47379H74.7009C74.4904 4.24014 74.1949 3.35678 73.8159 2.82233C73.4354 2.28789 72.896 1.89467 72.2006 1.63991C71.795 1.48622 71.0313 1.41007 69.9135 1.41007H68.3624" fill="white"/>
<path d="M342.744 1.41007V8.37033H343.041C343.986 8.37033 344.674 8.02695 345.099 7.34159C345.527 6.65622 345.795 5.64687 345.914 4.31214H346.31V13.3188H345.914C345.822 12.3441 345.638 11.5424 345.357 10.9221C345.073 10.2963 344.745 9.87674 344.373 9.66213C343.997 9.44753 343.457 9.33399 342.745 9.33399V14.1302C342.745 15.0675 342.779 15.638 342.848 15.8443C342.919 16.0561 343.048 16.225 343.236 16.3607C343.423 16.4978 343.729 16.5642 344.154 16.5642H345.032C346.411 16.5642 347.514 16.1987 348.348 15.4677C349.177 14.7324 349.775 13.6082 350.14 12.0934H350.539L349.877 17.5307H337.133V17.1084H337.623C338.051 17.1084 338.397 17.017 338.659 16.8342C338.848 16.7152 338.992 16.5047 339.095 16.2126C339.173 16.0021 339.215 15.4677 339.215 14.5898V3.34293C339.215 2.55926 339.197 2.07466 339.159 1.89467C339.087 1.59422 338.95 1.35884 338.756 1.19823C338.48 0.953157 338.103 0.834084 337.623 0.834084H337.133V0.40625H349.482V5.47379H349.084C348.873 4.24014 348.578 3.35678 348.2 2.82233C347.82 2.28789 347.279 1.89467 346.585 1.63991C346.179 1.48622 345.415 1.41007 344.298 1.41007H342.747" fill="white"/>
<path d="M89.6597 0.40625L80.9784 16.5642H83.7853C85.1121 16.5642 86.0417 16.4715 86.5685 16.2735C87.434 15.9689 88.1782 15.4123 88.8026 14.6023C89.4242 13.7909 89.8576 12.704 90.0973 11.3472H90.5182L89.9217 17.5321H76.4531L85.1595 1.33807H82.9658C82.1157 1.33807 81.554 1.36576 81.285 1.4253C80.7736 1.53745 80.2983 1.75344 79.8481 2.07466C79.4008 2.39727 79.0314 2.83064 78.7374 3.37063C78.4405 3.91199 78.2106 4.59597 78.0433 5.41287H77.6419L78.0377 0.407635H89.6597" fill="white"/>
<path d="M99.8701 12.6203H94.7148L94.0681 14.3067C93.8647 14.8675 93.7643 15.3355 93.7643 15.7079C93.7643 16.198 93.9274 16.5622 94.2619 16.7948C94.457 16.9333 94.9378 17.0371 95.7043 17.1091V17.5314H90.8125V17.1091C91.3407 17.0122 91.7713 16.7491 92.1128 16.324C92.4529 15.899 92.871 15.0239 93.3713 13.6961L98.6339 0.0234375H98.8401L104.112 14.0796C104.62 15.4338 105.036 16.2867 105.36 16.6397C105.604 16.9111 105.953 17.062 106.402 17.1091V17.5314H99.3168V17.1091H99.6122C100.184 17.1091 100.586 17.0094 100.818 16.8197C100.978 16.684 101.053 16.4833 101.053 16.2202C101.053 16.0665 101.034 15.9073 100.988 15.7384C100.977 15.6636 100.864 15.3382 100.662 14.7761L99.8659 12.6203M99.5188 11.6912L97.3336 5.81096L95.0688 11.6912H99.5188Z" fill="white"/>
<path d="M112.208 0.407635L119.462 10.9235V3.65723C119.462 2.62019 119.335 1.91959 119.085 1.55406C118.74 1.06115 118.158 0.818853 117.348 0.835468V0.407635H122.17V0.835468C121.55 0.929619 121.138 1.04869 120.927 1.19961C120.714 1.35053 120.551 1.59283 120.431 1.93067C120.315 2.26712 120.255 2.84726 120.255 3.65723V17.9184H119.89L109.95 3.68354V14.5912C109.95 15.5729 110.15 16.2402 110.539 16.5864C110.93 16.9298 111.378 17.1098 111.882 17.1098H112.235V17.5321H106.982V17.1098C107.796 17.0973 108.364 16.9062 108.681 16.5241C109 16.1419 109.16 15.5037 109.16 14.5912V2.5468L108.816 2.05113C108.507 1.56375 108.232 1.2453 107.991 1.09161C107.753 0.939311 107.412 0.853468 106.961 0.834084V0.40625H112.211" fill="white"/>
<path d="M140.677 0.0262066L140.808 5.74866H140.38C140.167 4.31977 139.65 3.16642 138.821 2.29691C137.992 1.4274 137.093 0.987102 136.132 0.987102C135.385 0.987102 134.796 1.2211 134.361 1.678C133.928 2.13907 133.71 2.66244 133.71 3.25365C133.71 3.63164 133.787 3.97225 133.94 4.26439C134.149 4.66315 134.485 5.04944 134.951 5.42882C135.288 5.70573 136.074 6.20418 137.306 6.90893C139.024 7.88505 140.185 8.81549 140.782 9.69193C141.371 10.5642 141.67 11.5597 141.67 12.6812C141.67 14.1184 141.187 15.3493 140.226 16.378C139.26 17.404 138.039 17.9163 136.553 17.9163C136.086 17.9163 135.649 17.8623 135.235 17.7474C134.821 17.6366 134.3 17.4331 133.673 17.1312C133.323 16.9596 133.036 16.8737 132.81 16.8737C132.625 16.8737 132.421 16.9582 132.213 17.1368C132 17.3085 131.83 17.5702 131.7 17.9177H131.305V11.4656H131.7C132.018 13.2711 132.637 14.6542 133.558 15.6027C134.468 16.5525 135.455 17.0302 136.513 17.0302C137.33 17.0302 137.98 16.7726 138.467 16.2548C138.95 15.7453 139.194 15.1485 139.194 14.4729C139.194 14.0672 139.104 13.6795 138.918 13.2946C138.733 12.918 138.452 12.5594 138.077 12.2202C137.702 11.8865 137.036 11.4406 136.081 10.8937C134.742 10.1364 133.781 9.48562 133.195 8.94564C132.605 8.40427 132.153 7.80198 131.841 7.14154C131.528 6.47833 131.37 5.74589 131.37 4.95529C131.37 3.58318 131.802 2.42152 132.666 1.46201C133.528 0.503885 134.617 0.0248221 135.929 0.0248221C136.408 0.0248221 136.874 0.0898971 137.324 0.222816C137.667 0.325275 138.081 0.508039 138.57 0.778031C139.061 1.04802 139.405 1.18233 139.6 1.18233C139.795 1.18233 139.937 1.11864 140.047 0.981563C140.153 0.850029 140.258 0.531577 140.351 0.0234375H140.681" fill="white"/>
<path d="M255.218 0.0262066L255.349 5.74866H254.921C254.708 4.31977 254.189 3.16642 253.363 2.29691C252.532 1.4274 251.635 0.987102 250.673 0.987102C249.926 0.987102 249.336 1.2211 248.903 1.678C248.469 2.13907 248.251 2.66244 248.251 3.25365C248.251 3.63164 248.327 3.97225 248.479 4.26439C248.69 4.66315 249.026 5.04944 249.491 5.42882C249.828 5.70573 250.613 6.20418 251.846 6.90893C253.565 7.88505 254.726 8.81549 255.321 9.69193C255.91 10.5642 256.209 11.5597 256.209 12.6812C256.209 14.1184 255.726 15.3493 254.765 16.378C253.798 17.404 252.578 17.9163 251.092 17.9163C250.625 17.9163 250.188 17.8623 249.774 17.7474C249.36 17.6366 248.84 17.4331 248.212 17.1312C247.862 16.9596 247.575 16.8737 247.35 16.8737C247.165 16.8737 246.961 16.9582 246.754 17.1368C246.541 17.3085 246.371 17.5702 246.241 17.9177H245.844V11.4656H246.241C246.557 13.2711 247.176 14.6542 248.097 15.6027C249.007 16.5525 249.996 17.0302 251.053 17.0302C251.869 17.0302 252.52 16.7726 253.007 16.2548C253.49 15.7453 253.733 15.1485 253.733 14.4729C253.733 14.0672 253.644 13.6795 253.459 13.2946C253.271 12.918 252.991 12.5594 252.616 12.2202C252.239 11.8865 251.573 11.4406 250.62 10.8937C249.278 10.1364 248.32 9.48562 247.732 8.94564C247.143 8.40427 246.691 7.80198 246.378 7.14154C246.064 6.47833 245.906 5.74589 245.906 4.95529C245.906 3.58318 246.34 2.42152 247.203 1.46201C248.064 0.503885 249.152 0.0248221 250.465 0.0248221C250.942 0.0248221 251.41 0.0898971 251.86 0.222816C252.202 0.325275 252.616 0.508039 253.105 0.778031C253.595 1.04802 253.94 1.18233 254.135 1.18233C254.33 1.18233 254.472 1.11864 254.582 0.981563C254.688 0.850029 254.791 0.531577 254.886 0.0234375H255.216" fill="white"/>
<path d="M266.935 0.0262066L267.067 5.74866H266.64C266.426 4.31977 265.908 3.16642 265.08 2.29691C264.251 1.4274 263.353 0.987102 262.39 0.987102C261.642 0.987102 261.052 1.2211 260.617 1.678C260.187 2.13907 259.968 2.66244 259.968 3.25365C259.968 3.63164 260.045 3.97225 260.198 4.26439C260.406 4.66315 260.743 5.04944 261.208 5.42882C261.547 5.70573 262.332 6.20418 263.564 6.90893C265.282 7.88505 266.444 8.81549 267.04 9.69193C267.629 10.5642 267.926 11.5597 267.926 12.6812C267.926 14.1184 267.445 15.3493 266.481 16.378C265.516 17.404 264.295 17.9163 262.81 17.9163C262.343 17.9163 261.905 17.8623 261.491 17.7474C261.077 17.6366 260.558 17.4331 259.93 17.1312C259.579 16.9596 259.293 16.8737 259.068 16.8737C258.882 16.8737 258.679 16.9582 258.471 17.1368C258.258 17.3085 258.087 17.5702 257.957 17.9177H257.562V11.4656H257.957C258.275 13.2711 258.895 14.6542 259.815 15.6027C260.725 16.5525 261.713 17.0302 262.771 17.0302C263.587 17.0302 264.238 16.7726 264.725 16.2548C265.208 15.7453 265.452 15.1485 265.452 14.4729C265.452 14.0672 265.362 13.6795 265.175 13.2946C264.989 12.918 264.711 12.5594 264.333 12.2202C263.958 11.8865 263.292 11.4406 262.336 10.8937C260.997 10.1364 260.038 9.48562 259.45 8.94564C258.86 8.40427 258.407 7.80198 258.096 7.14154C257.783 6.47833 257.625 5.74589 257.625 4.95529C257.625 3.58318 258.056 2.42152 258.92 1.46201C259.781 0.503885 260.87 0.0248221 262.183 0.0248221C262.661 0.0248221 263.127 0.0898971 263.578 0.222816C263.919 0.325275 264.333 0.508039 264.822 0.778031C265.313 1.04802 265.657 1.18233 265.852 1.18233C266.047 1.18233 266.191 1.11864 266.301 0.981563C266.407 0.850029 266.511 0.531577 266.603 0.0234375H266.934" fill="white"/>
<path d="M361.005 0.0262066L361.138 5.74866H360.71C360.498 4.31977 359.978 3.16642 359.15 2.29691C358.321 1.4274 357.425 0.987102 356.461 0.987102C355.716 0.987102 355.124 1.2211 354.691 1.678C354.257 2.13907 354.038 2.66244 354.038 3.25365C354.038 3.63164 354.115 3.97225 354.268 4.26439C354.477 4.66315 354.813 5.04944 355.279 5.42882C355.617 5.70573 356.401 6.20418 357.633 6.90893C359.352 7.88505 360.513 8.81549 361.11 9.69193C361.699 10.5642 361.996 11.5597 361.996 12.6812C361.996 14.1184 361.514 15.3493 360.552 16.378C359.585 17.404 358.366 17.9163 356.88 17.9163C356.413 17.9163 355.976 17.8623 355.562 17.7474C355.149 17.6366 354.628 17.4331 353.999 17.1312C353.649 16.9596 353.362 16.8737 353.139 16.8737C352.951 16.8737 352.749 16.9582 352.541 17.1368C352.327 17.3085 352.158 17.5702 352.029 17.9177H351.633V11.4656H352.029C352.346 13.2711 352.964 14.6542 353.886 15.6027C354.795 16.5525 355.783 17.0302 356.841 17.0302C357.658 17.0302 358.309 16.7726 358.794 16.2548C359.279 15.7453 359.521 15.1485 359.521 14.4729C359.521 14.0672 359.432 13.6795 359.245 13.2946C359.061 12.918 358.781 12.5594 358.402 12.2202C358.028 11.8865 357.362 11.4406 356.408 10.8937C355.067 10.1364 354.108 9.48562 353.52 8.94564C352.93 8.40427 352.479 7.80198 352.167 7.14154C351.852 6.47833 351.694 5.74589 351.694 4.95529C351.694 3.58318 352.128 2.42152 352.99 1.46201C353.852 0.503885 354.94 0.0248221 356.251 0.0248221C356.731 0.0248221 357.198 0.0898971 357.647 0.222816C357.991 0.325275 358.405 0.508039 358.892 0.778031C359.383 1.04802 359.727 1.18233 359.924 1.18233C360.12 1.18233 360.261 1.11864 360.37 0.981563C360.476 0.850029 360.582 0.531577 360.674 0.0234375H361.001" fill="white"/>
<path d="M147.853 9.29799V14.5898C147.853 15.4829 147.898 16.0381 147.98 16.261C148.062 16.4867 148.227 16.6847 148.468 16.8536C148.71 17.0212 149.036 17.1084 149.45 17.1084H149.934V17.5307H142.242V17.1084H142.733C143.161 17.1084 143.506 17.017 143.765 16.8342C143.955 16.7165 144.101 16.5047 144.203 16.2126C144.284 16.0021 144.322 15.4677 144.322 14.5898V3.34293C144.322 2.45265 144.283 1.90021 144.203 1.67591C144.124 1.44884 143.962 1.25361 143.717 1.08469C143.473 0.918543 143.145 0.834084 142.733 0.834084H142.242V0.40625H149.934V0.834084H149.45C149.024 0.834084 148.678 0.921312 148.418 1.10684C148.228 1.2273 148.085 1.4336 147.973 1.72575C147.895 1.93205 147.852 2.47342 147.852 3.34293V8.17649H153.038V3.34293C153.038 2.45265 152.997 1.90021 152.918 1.67591C152.838 1.44884 152.674 1.25361 152.429 1.08469C152.179 0.918543 151.852 0.834084 151.439 0.834084H150.96V0.40625H158.651V0.834084H158.172C157.734 0.834084 157.393 0.921312 157.137 1.10684C156.948 1.2273 156.801 1.4336 156.688 1.72575C156.61 1.93205 156.571 2.47342 156.571 3.34293V14.5898C156.571 15.4829 156.61 16.0381 156.688 16.261C156.771 16.4867 156.932 16.6847 157.18 16.8536C157.428 17.0212 157.759 17.1084 158.172 17.1084H158.651V17.5307H150.96V17.1084H151.439C151.874 17.1084 152.215 17.017 152.472 16.8342C152.661 16.7165 152.809 16.5047 152.918 16.2126C152.997 16.0021 153.038 15.4677 153.038 14.5898V9.29799H147.852" fill="white"/>
<path d="M167.356 17.1084V17.5307H159.664V17.1084H160.153C160.583 17.1084 160.925 17.017 161.189 16.8342C161.378 16.7165 161.522 16.5047 161.625 16.2126C161.702 16.0021 161.742 15.4677 161.742 14.5898V3.34293C161.742 2.45265 161.702 1.90021 161.625 1.67591C161.544 1.44884 161.381 1.25361 161.141 1.08469C160.895 0.918543 160.566 0.834084 160.153 0.834084H159.664V0.40625H167.356V0.834084H166.869C166.443 0.834084 166.1 0.921312 165.839 1.10684C165.649 1.2273 165.504 1.4336 165.396 1.72575C165.317 1.93205 165.276 2.47342 165.276 3.34293V14.5898C165.276 15.4829 165.32 16.0381 165.403 16.261C165.485 16.4867 165.65 16.6847 165.891 16.8536C166.134 17.0212 166.46 17.1084 166.871 17.1084H167.357" fill="white"/>
<path d="M308.339 17.1084V17.5307H300.648V17.1084H301.138C301.567 17.1084 301.91 17.017 302.172 16.8342C302.363 16.7165 302.505 16.5047 302.608 16.2126C302.687 16.0021 302.725 15.4677 302.725 14.5898V3.34293C302.725 2.45265 302.686 1.90021 302.608 1.67591C302.529 1.44884 302.365 1.25361 302.124 1.08469C301.879 0.918543 301.55 0.834084 301.138 0.834084H300.648V0.40625H308.339V0.834084H307.852C307.426 0.834084 307.083 0.921312 306.822 1.10684C306.632 1.2273 306.485 1.4336 306.379 1.72575C306.298 1.93205 306.259 2.47342 306.259 3.34293V14.5898C306.259 15.4829 306.303 16.0381 306.385 16.261C306.467 16.4867 306.632 16.6847 306.873 16.8536C307.114 17.0212 307.441 17.1084 307.854 17.1084H308.34" fill="white"/>
<path d="M173.651 9.72167V14.5566C173.651 15.4815 173.7 16.0644 173.8 16.3026C173.899 16.5518 174.076 16.7456 174.326 16.891C174.574 17.0322 175.044 17.1084 175.731 17.1084V17.5307H168.102V17.1084C168.796 17.1084 169.269 17.0308 169.515 16.8841C169.763 16.7304 169.936 16.5407 170.035 16.2998C170.134 16.0658 170.184 15.4815 170.184 14.558V3.38586C170.184 2.45957 170.134 1.87252 170.035 1.6316C169.936 1.38653 169.76 1.19684 169.508 1.05008C169.257 0.907466 168.789 0.834084 168.102 0.834084V0.40625H174.954C176.737 0.40625 178.041 0.55163 178.865 0.839622C179.694 1.12623 180.365 1.65375 180.891 2.42219C181.411 3.18786 181.676 4.08784 181.676 5.12073C181.676 6.38485 181.286 7.4302 180.511 8.24018C180.015 8.77047 179.321 9.1623 178.432 9.42399L181.951 15.2267C182.416 15.9786 182.749 16.4507 182.944 16.6362C183.244 16.8938 183.588 17.0461 183.984 17.0682V17.5321H179.353L174.62 9.72444H173.65M173.65 1.37545V8.75801H174.267C175.275 8.75801 176.03 8.65278 176.533 8.43817C177.032 8.2291 177.424 7.84696 177.71 7.29728C177.997 6.74899 178.137 6.03039 178.137 5.13596C178.137 3.85523 177.88 2.90679 177.351 2.29481C176.823 1.68283 175.98 1.37545 174.811 1.37545H173.65Z" fill="white"/>
<path d="M193.234 12.6203H188.082L187.434 14.3067C187.229 14.8675 187.129 15.3355 187.129 15.7079C187.129 16.198 187.296 16.5622 187.629 16.7948C187.823 16.9333 188.304 17.0371 189.07 17.1091V17.5314H184.18V17.1091C184.707 17.0122 185.141 16.7491 185.483 16.324C185.823 15.899 186.241 15.0239 186.74 13.6961L192.002 0.0234375H192.207L197.484 14.0796C197.994 15.4338 198.405 16.2867 198.735 16.6397C198.976 16.9111 199.323 17.062 199.772 17.1091V17.5314H192.691V17.1091H192.982C193.554 17.1091 193.954 17.0094 194.188 16.8197C194.345 16.684 194.427 16.4833 194.427 16.2202C194.427 16.0665 194.405 15.9073 194.362 15.7384C194.345 15.6636 194.235 15.3382 194.032 14.7761L193.236 12.6203M192.89 11.6912L190.706 5.81096L188.44 11.6912H192.89Z" fill="white"/>
<path d="M238.359 12.6203H233.207L232.559 14.3067C232.354 14.8675 232.255 15.3355 232.255 15.7079C232.255 16.198 232.421 16.5622 232.754 16.7948C232.948 16.9333 233.43 17.0371 234.195 17.1091V17.5314H229.305V17.1091C229.832 17.0122 230.266 16.7491 230.606 16.324C230.946 15.899 231.366 15.0239 231.866 13.6961L237.127 0.0234375H237.33L242.606 14.0796C243.116 15.4338 243.529 16.2867 243.858 16.6397C244.099 16.9111 244.447 17.062 244.894 17.1091V17.5314H237.813V17.1091H238.103C238.677 17.1091 239.077 17.0094 239.31 16.8197C239.467 16.684 239.548 16.4833 239.548 16.2202C239.548 16.0665 239.526 15.9073 239.483 15.7384C239.467 15.6636 239.356 15.3382 239.154 14.7761L238.358 12.6203M238.011 11.6912L235.827 5.81096L233.564 11.6912H238.011Z" fill="white"/>
<path d="M318.28 12.6203H313.129L312.479 14.3067C312.276 14.8675 312.176 15.3355 312.176 15.7079C312.176 16.198 312.343 16.5622 312.676 16.7948C312.87 16.9333 313.35 17.0371 314.118 17.1091V17.5314H309.227V17.1091C309.755 17.0122 310.188 16.7491 310.528 16.324C310.868 15.899 311.288 15.0239 311.788 13.6961L317.049 0.0234375H317.253L322.529 14.0796C323.039 15.4338 323.451 16.2867 323.779 16.6397C324.021 16.9111 324.369 17.062 324.816 17.1091V17.5314H317.735V17.1091H318.026C318.599 17.1091 318.998 17.0094 319.232 16.8197C319.391 16.684 319.473 16.4833 319.473 16.2202C319.473 16.0665 319.451 15.9073 319.406 15.7384C319.391 15.6636 319.279 15.3382 319.077 14.7761L318.281 12.6203M317.936 11.6912L315.752 5.81096L313.487 11.6912H317.936Z" fill="white"/>
<path d="M217.879 7.59753H222.201V8.06274C221.717 8.14166 221.338 8.31335 221.062 8.57227C220.785 8.83257 220.424 9.43209 219.986 10.375C219.546 11.3137 218.923 12.3702 218.124 13.5332C218.835 14.2684 219.413 14.7793 219.859 15.0701C220.165 15.2667 220.47 15.3636 220.768 15.3636C221.284 15.3636 221.753 14.9745 222.17 14.1812L222.567 14.4484C221.995 15.7638 221.388 16.6983 220.742 17.2536C220.255 17.6703 219.695 17.878 219.065 17.878C218.521 17.878 218.006 17.7437 217.515 17.4709C217.022 17.1982 216.427 16.6845 215.737 15.9368C214.864 16.6194 214.048 17.1137 213.287 17.4211C212.523 17.7243 211.727 17.878 210.902 17.878C209.585 17.878 208.54 17.4599 207.755 16.6194C206.982 15.7845 206.586 14.7945 206.586 13.6675C206.586 12.4435 206.962 11.3774 207.711 10.4802C208.459 9.5747 209.541 8.7938 210.957 8.13474C210.78 7.60583 210.646 7.088 210.554 6.5854C210.465 6.08003 210.419 5.59128 210.419 5.11775C210.419 3.81625 210.812 2.73213 211.599 1.86262C212.381 0.997257 213.379 0.5625 214.593 0.5625C215.577 0.5625 216.353 0.846338 216.926 1.42647C217.496 1.9983 217.786 2.66705 217.786 3.43411C217.786 4.35347 217.489 5.14267 216.908 5.79896C216.322 6.45248 215.39 7.05616 214.117 7.59753C214.906 9.2244 216.049 10.9787 217.558 12.8561C218.567 11.5034 219.075 10.3431 219.075 9.37809C219.075 9.03056 218.974 8.73703 218.77 8.49888C218.566 8.2552 218.273 8.10982 217.885 8.06274V7.59753M211.252 8.91564C210.689 9.19256 210.29 9.48609 210.059 9.79346C209.729 10.2504 209.56 10.7599 209.56 11.3206C209.56 12.0877 209.752 12.8506 210.131 13.6052C210.509 14.3626 210.973 14.9482 211.506 15.3608C212.044 15.7762 212.576 15.9881 213.106 15.9881C213.373 15.9881 213.67 15.9202 214.002 15.7845C214.332 15.6502 214.692 15.4508 215.082 15.1808C213.415 13.1718 212.141 11.0811 211.253 8.91564M213.763 6.86232C214.491 6.55217 214.982 6.20741 215.232 5.85019C215.478 5.48466 215.603 5.05129 215.603 4.53761C215.603 3.62656 215.398 2.85536 214.986 2.23368C214.714 1.81554 214.378 1.60785 213.985 1.60785C213.656 1.60785 213.379 1.75739 213.145 2.05646C212.916 2.35829 212.8 2.76951 212.8 3.28042C212.8 3.67918 212.855 4.10563 212.968 4.55838C213.075 5.01668 213.341 5.78512 213.765 6.86232" fill="white"/>
<path d="M276.682 0.157665C279.001 0.0524369 280.887 0.847183 282.336 2.54467C283.79 4.23524 284.512 6.35225 284.512 8.89572C284.512 11.0681 283.979 12.9802 282.896 14.632C281.462 16.8196 279.436 17.9162 276.821 17.9162C274.207 17.9162 272.168 16.8723 270.744 14.7815C269.602 13.1339 269.039 11.1733 269.039 8.91095C269.039 6.36471 269.774 4.2477 271.245 2.55021C272.72 0.854106 274.533 0.0524369 276.682 0.157665ZM276.81 0.952411C275.479 0.952411 274.472 1.7527 273.773 3.35326C273.208 4.66999 272.926 6.55579 272.926 9.01341C272.926 11.9335 273.364 14.0934 274.238 15.4918C274.848 16.4707 275.698 16.9553 276.787 16.9553C277.525 16.9553 278.144 16.7476 278.636 16.3226C279.26 15.7867 279.75 14.9269 280.105 13.7445C280.452 12.5593 280.63 11.0141 280.63 9.11587C280.63 6.84655 280.449 5.15044 280.091 4.02755C279.727 2.90743 279.276 2.10992 278.725 1.64608C278.172 1.18225 277.534 0.951026 276.809 0.951026" fill="white"/>
<path d="M299.483 0.0078125V5.95595H299.106C298.789 4.39276 298.198 3.20203 297.332 2.3699C296.471 1.54054 295.488 1.1224 294.397 1.1224C293.479 1.1224 292.647 1.43254 291.882 2.05006C291.119 2.66204 290.562 3.47063 290.209 4.46338C289.758 5.7358 289.528 7.15222 289.528 8.71264C289.528 10.2731 289.691 11.641 290.021 12.9037C290.351 14.1623 290.867 15.1163 291.569 15.7643C292.27 16.4095 293.183 16.7293 294.305 16.7293C295.225 16.7293 296.064 16.4953 296.828 16.0218C297.587 15.5511 298.393 14.7383 299.242 13.5836V15.0581C298.423 16.0675 297.569 16.7972 296.683 17.2513C295.799 17.6999 294.764 17.9298 293.575 17.9298C292.021 17.9298 290.643 17.5615 289.43 16.8262C288.22 16.0938 287.285 15.0415 286.627 13.6722C285.971 12.2931 285.641 10.8324 285.641 9.2817C285.641 7.65067 286.007 6.09717 286.74 4.63091C287.471 3.1688 288.461 2.03206 289.7 1.2207C290.944 0.413493 292.255 0.0078125 293.653 0.0078125C294.687 0.0078125 295.774 0.268113 296.911 0.791482C297.578 1.09332 298 1.24562 298.178 1.24562C298.408 1.24562 298.612 1.14593 298.779 0.946554C298.946 0.749945 299.058 0.438415 299.109 0.00919708H299.484" fill="white"/>
<path d="M336.161 0.40625V5.0335H335.784C335.554 3.97292 335.297 3.20863 335.019 2.7448C334.74 2.2782 334.35 1.90851 333.869 1.6316C333.6 1.48068 333.124 1.40453 332.444 1.40453H331.352V14.6175C331.352 15.4953 331.394 16.045 331.474 16.2652C331.556 16.4853 331.716 16.6792 331.95 16.8425C332.189 17.0045 332.511 17.0862 332.923 17.0862H333.398V17.5321H325.793V17.0862H326.268C326.686 17.0862 327.024 17.0032 327.287 16.8245C327.468 16.7041 327.615 16.5033 327.725 16.2153C327.801 16.0132 327.84 15.4773 327.84 14.6175V1.40314H326.752C325.768 1.40314 325.052 1.64544 324.603 2.13558C323.974 2.81126 323.577 3.77907 323.411 5.03212H323.039V0.40625H336.162" fill="white"/>
<path d="M18.5981 7.53652e-05L0 18.4766L2.65687 21.1161L21.2549 2.63957L18.5981 7.53652e-05Z" fill="#FECD1A"/>
<path d="M23.9106 5.28133L5.3125 23.7578L7.96937 26.3973L26.5674 7.92082L23.9106 5.28133Z" fill="#E2001A"/>
<path d="M29.2263 10.5658L10.625 29.0391L13.2814 31.679L31.8827 13.2058L29.2263 10.5658Z" fill="#0A8B30"/>
<path d="M18.6017 36.9599L15.9453 34.3195L34.5427 15.8438L37.199 18.4828L18.6017 36.9599Z" fill="#656EAD"/>
<path d="M117.072 34.3067C117.072 35.9433 117.164 36.187 117.996 36.2493L118.582 36.295C118.674 36.3864 118.643 36.6314 118.551 36.6771C117.596 36.6467 117.072 36.6314 116.458 36.6314C115.811 36.6314 115.258 36.6467 114.441 36.6771C114.349 36.6314 114.319 36.3864 114.411 36.295L114.887 36.2493C115.78 36.1579 115.811 35.9433 115.811 34.3067V33.5272C115.811 32.6854 115.765 32.4874 115.319 31.6303L113.503 28.1135C112.981 27.1042 112.749 27.028 112.288 26.9519L111.857 26.8757C111.765 26.7691 111.781 26.5545 111.888 26.4936C112.38 26.524 112.935 26.5393 113.673 26.5393C114.412 26.5393 114.936 26.524 115.321 26.4936C115.459 26.5393 115.459 26.7843 115.367 26.8757L115.166 26.9062C114.628 26.9823 114.519 27.0599 114.519 27.1817C114.519 27.3354 114.919 28.2063 114.996 28.3586C115.566 29.4898 116.134 30.6985 116.735 31.7536C117.212 30.9422 117.721 30.0561 118.182 29.1686C118.612 28.3738 119.182 27.334 119.182 27.1499C119.182 27.0585 118.905 26.9505 118.536 26.9048L118.258 26.8743C118.15 26.7677 118.166 26.5531 118.289 26.4922C118.842 26.5226 119.29 26.5379 119.766 26.5379C120.243 26.5379 120.675 26.5226 121.198 26.4922C121.322 26.5683 121.337 26.7829 121.228 26.8743L120.798 26.9505C119.998 27.0876 119.536 28.0512 118.766 29.3666L117.796 31.0336C117.118 32.1953 117.072 32.3337 117.072 33.5106V34.3053V34.3067Z" fill="#F6F6F6"/>
<path d="M126.074 33.5571C126.074 35.4679 124.75 36.8441 122.827 36.8441C121.057 36.8441 119.672 35.6049 119.672 33.6942C119.672 31.7835 121.134 30.3906 122.951 30.3906C124.769 30.3906 126.076 31.6755 126.076 33.5558H126.074V33.5571ZM122.766 30.8503C121.75 30.8503 120.996 31.814 120.996 33.4962C120.996 34.8877 121.627 36.3872 122.982 36.3872C124.337 36.3872 124.752 34.9805 124.752 33.8022C124.752 32.5021 124.229 30.8503 122.766 30.8503Z" fill="#F6F6F6"/>
<path d="M128.91 34.381C128.91 35.436 129.172 36.1394 130.341 36.1394C130.756 36.1394 131.25 35.9718 131.588 35.6811C131.789 35.4969 131.896 35.2685 131.896 34.795V32.2875C131.896 31.2934 131.789 31.2629 131.326 31.0788L131.126 31.0026C131.018 30.9417 131.018 30.7271 131.141 30.6662C131.757 30.6509 132.603 30.5443 132.942 30.3906C133.018 30.4059 133.064 30.4363 133.08 30.4972C133.049 30.788 133.034 31.2615 133.034 31.8278V34.3976C133.034 35.6049 133.08 36.0646 133.51 36.0646C133.694 36.0646 133.895 36.0342 134.111 35.9885C134.203 36.0646 134.218 36.3706 134.096 36.4315C133.495 36.5548 132.601 36.7071 132.079 36.9978C132.002 36.9978 131.924 36.9521 131.893 36.8912V36.264C131.893 36.1269 131.847 36.0494 131.756 36.0494C131.294 36.3401 130.539 36.8441 129.632 36.8441C128.277 36.8441 127.77 36.1712 127.77 34.9334V32.3789C127.77 31.4152 127.77 31.2781 127.308 31.0788L127.123 31.0026C127.031 30.9265 127.046 30.7118 127.154 30.6662C127.862 30.6509 128.462 30.5125 128.801 30.3906C128.893 30.4059 128.939 30.4363 128.954 30.4972C128.924 30.7575 128.908 31.0788 128.908 31.8278V34.3824H128.91V34.381Z" fill="#F6F6F6"/>
<path d="M135.694 32.2441C135.694 31.6487 135.694 31.5712 135.279 31.2957L135.141 31.2043C135.079 31.1434 135.079 30.9744 135.156 30.9287C135.51 30.8069 136.325 30.4095 136.711 30.1797C136.788 30.1949 136.834 30.2254 136.834 30.2863V31.1738C136.834 31.25 136.849 31.2957 136.88 31.3109C137.419 30.8678 138.003 30.3929 138.573 30.3929C138.958 30.3929 139.266 30.638 139.266 31.0049C139.266 31.5089 138.851 31.7083 138.604 31.7083C138.449 31.7083 138.373 31.6626 138.265 31.6016C138.034 31.448 137.804 31.3566 137.588 31.3566C137.341 31.3566 137.157 31.4937 137.033 31.6626C136.879 31.8772 136.833 32.3202 136.833 32.8408V34.9205C136.833 36.0212 136.863 36.2054 137.449 36.251L138.003 36.2967C138.111 36.3729 138.08 36.6332 137.973 36.6789C137.249 36.6484 136.803 36.6332 136.264 36.6332C135.725 36.6332 135.248 36.6484 134.848 36.6789C134.741 36.6332 134.709 36.3729 134.817 36.2967L135.11 36.251C135.68 36.1597 135.695 36.0212 135.695 34.9205V32.2441H135.694Z" fill="#F6F6F6"/>
<path d="M146.072 34.3358C146.072 35.9419 146.103 36.1399 147.088 36.2479L147.503 36.2936C147.595 36.3697 147.565 36.63 147.473 36.6757C146.595 36.6453 146.087 36.63 145.471 36.63C144.825 36.63 144.271 36.6453 143.594 36.6757C143.502 36.63 143.47 36.385 143.563 36.2936L143.887 36.2479C144.78 36.1247 144.811 35.9419 144.811 34.3358V28.6937C144.811 27.3935 144.78 27.1332 144.087 27.0571L143.533 26.9962C143.425 26.9048 143.441 26.675 143.563 26.614C144.38 26.5074 145.333 26.4922 146.611 26.4922C147.889 26.4922 148.844 26.6597 149.567 27.1042C150.275 27.5472 150.799 28.3434 150.799 29.3984C150.799 30.8051 149.921 31.5085 149.259 31.8297C148.582 32.1509 147.767 32.2894 147.135 32.2894C147.027 32.2437 147.027 32.0139 147.12 31.9834C148.783 31.6774 149.383 30.7442 149.383 29.415C149.383 27.9321 148.507 26.9685 146.905 26.9685C146.09 26.9685 146.075 27.0294 146.075 27.5182V34.3386L146.072 34.3358Z" fill="#F6F6F6"/>
<path d="M154.133 33.4644C154.364 33.3882 154.395 33.2498 154.395 33.0213L154.41 32.318C154.425 31.753 154.24 30.9874 153.287 30.9874C152.856 30.9874 152.332 31.202 152.301 31.6755C152.286 31.9206 152.271 32.1033 152.148 32.1947C151.917 32.3789 151.501 32.4855 151.27 32.4855C151.132 32.4855 151.054 32.4093 151.054 32.2709C151.054 31.4761 152.793 30.3906 153.917 30.3906C155.04 30.3906 155.564 31.0331 155.518 32.1795L155.426 34.8406C155.395 35.544 155.533 36.1712 156.134 36.1712C156.289 36.1712 156.427 36.1255 156.519 36.0785C156.595 36.0328 156.673 35.9718 156.719 35.9718C156.781 35.9718 156.827 36.0632 156.827 36.1712C156.827 36.2474 156.289 36.8441 155.533 36.8441C155.164 36.8441 154.795 36.7071 154.533 36.3706C154.471 36.2792 154.379 36.156 154.286 36.156C154.179 36.156 153.993 36.2931 153.685 36.462C153.347 36.6461 153.008 36.8441 152.577 36.8441C152.147 36.8441 151.762 36.7209 151.5 36.4924C151.207 36.2321 151.023 35.85 151.023 35.4222C151.023 34.8268 151.316 34.4737 152.301 34.1221L154.133 33.4644ZM153.178 36.156C153.486 36.156 153.963 35.9262 154.117 35.7739C154.303 35.5897 154.303 35.3765 154.318 35.0553L154.349 34.1525C154.349 33.985 154.287 33.9545 154.195 33.9545C154.103 33.9545 153.841 34.0154 153.564 34.1082C152.655 34.4142 152.209 34.6427 152.209 35.2394C152.209 35.4997 152.395 36.1574 153.179 36.1574L153.178 36.156Z" fill="#F6F6F6"/>
<path d="M158.061 32.2441C158.061 31.6487 158.061 31.5712 157.646 31.2957L157.508 31.2043C157.447 31.1434 157.447 30.9744 157.523 30.9287C157.877 30.8069 158.693 30.4095 159.079 30.1797C159.155 30.1949 159.201 30.2254 159.201 30.2863V31.1738C159.201 31.25 159.217 31.2957 159.247 31.3109C159.787 30.8678 160.371 30.3929 160.941 30.3929C161.325 30.3929 161.633 30.638 161.633 31.0049C161.633 31.5089 161.218 31.7083 160.971 31.7083C160.816 31.7083 160.74 31.6626 160.633 31.6016C160.401 31.448 160.171 31.3566 159.955 31.3566C159.709 31.3566 159.525 31.4937 159.4 31.6626C159.246 31.8772 159.2 32.3202 159.2 32.8408V34.9205C159.2 36.0212 159.23 36.2054 159.816 36.251L160.371 36.2967C160.478 36.3729 160.447 36.6332 160.34 36.6789C159.617 36.6484 159.171 36.6332 158.631 36.6332C158.092 36.6332 157.615 36.6484 157.215 36.6789C157.108 36.6332 157.076 36.3729 157.185 36.2967L157.477 36.251C158.047 36.1597 158.063 36.0212 158.063 34.9205V32.2441H158.061Z" fill="#F6F6F6"/>
<path d="M164.404 31.2476C164.142 31.2476 164.127 31.2933 164.127 31.6146V34.4737C164.127 35.3612 164.234 36.1712 165.25 36.1712C165.403 36.1712 165.543 36.1394 165.665 36.095C165.803 36.0494 166.004 35.8804 166.05 35.8804C166.173 35.8804 166.235 36.048 166.203 36.1393C165.926 36.4606 165.373 36.8427 164.587 36.8427C163.263 36.8427 162.985 36.1089 162.985 35.1909V31.6893C162.985 31.2767 162.97 31.2463 162.662 31.2463H162.231C162.139 31.1853 162.124 31.0164 162.185 30.925C162.631 30.788 163.016 30.5886 163.171 30.4515C163.371 30.2674 163.663 29.8562 163.817 29.5488C163.894 29.5183 164.079 29.5183 164.141 29.6249V30.3131C164.141 30.5886 164.156 30.6038 164.418 30.6038H166.127C166.312 30.7409 166.28 31.1549 166.142 31.2463H164.403L164.404 31.2476Z" fill="#F6F6F6"/>
<path d="M167.706 32.2441C167.706 31.6487 167.706 31.5712 167.29 31.2957L167.152 31.2043C167.091 31.1434 167.091 30.9744 167.168 30.9287C167.522 30.8069 168.398 30.4095 168.706 30.1797C168.768 30.1797 168.846 30.2101 168.876 30.2863C168.846 30.638 168.846 30.8678 168.846 31.0049C168.846 31.0963 168.907 31.1738 169.016 31.1738C169.662 30.7764 170.386 30.3929 171.17 30.3929C172.448 30.3929 172.971 31.2652 172.971 32.2898V34.9191C172.971 36.0198 173.002 36.1735 173.556 36.2497L173.895 36.2954C174.002 36.3715 173.972 36.6318 173.864 36.6775C173.403 36.647 172.956 36.6318 172.418 36.6318C171.88 36.6318 171.402 36.647 170.986 36.6775C170.878 36.6318 170.847 36.3715 170.956 36.2954L171.248 36.2497C171.818 36.1583 171.834 36.0198 171.834 34.9191V32.6401C171.834 31.7678 171.434 31.1267 170.387 31.1267C169.802 31.1267 169.294 31.3718 169.078 31.6612C168.878 31.9215 168.847 32.1347 168.847 32.5792V34.9191C168.847 36.0198 168.878 36.1583 169.432 36.2497L169.71 36.2954C169.817 36.3715 169.786 36.6318 169.679 36.6775C169.264 36.647 168.818 36.6318 168.278 36.6318C167.739 36.6318 167.262 36.647 166.832 36.6775C166.725 36.6318 166.694 36.3715 166.801 36.2954L167.124 36.2497C167.695 36.1735 167.71 36.0198 167.71 34.9191V32.2427H167.706V32.2441Z" fill="#F6F6F6"/>
<path d="M176.127 32.7167C175.727 32.7167 175.712 32.7472 175.712 33.1293C175.712 34.6731 176.621 35.9885 178.267 35.9885C178.774 35.9885 179.206 35.8348 179.683 35.238C179.837 35.1923 179.945 35.2837 179.96 35.4222C179.453 36.462 178.343 36.8441 177.543 36.8441C176.543 36.8441 175.758 36.4163 175.311 35.8348C174.849 35.238 174.664 34.5194 174.664 33.8465C174.664 31.9663 175.911 30.3906 177.758 30.3906C179.082 30.3906 179.943 31.2934 179.943 32.21C179.943 32.4246 179.913 32.5464 179.882 32.6073C179.836 32.6987 179.62 32.7139 178.973 32.7139H176.126V32.7167H176.127ZM177.082 32.2584C178.221 32.2584 178.559 32.1975 178.683 32.1047C178.729 32.0743 178.775 32.0133 178.775 31.814C178.775 31.3861 178.483 30.8503 177.591 30.8503C176.699 30.8503 175.897 31.6769 175.882 32.1809C175.882 32.2113 175.882 32.257 175.989 32.257H177.082V32.2584Z" fill="#F6F6F6"/>
<path d="M181.575 32.2441C181.575 31.6487 181.575 31.5712 181.16 31.2957L181.022 31.2043C180.961 31.1434 180.961 30.9744 181.037 30.9287C181.391 30.8069 182.207 30.4095 182.593 30.1797C182.669 30.1949 182.717 30.2254 182.717 30.2863V31.1738C182.717 31.25 182.732 31.2957 182.763 31.3109C183.302 30.8678 183.888 30.3929 184.456 30.3929C184.841 30.3929 185.149 30.638 185.149 31.0049C185.149 31.5089 184.733 31.7083 184.487 31.7083C184.332 31.7083 184.255 31.6626 184.148 31.6016C183.917 31.448 183.687 31.3566 183.471 31.3566C183.224 31.3566 183.04 31.4937 182.916 31.6626C182.761 31.8772 182.717 32.3202 182.717 32.8408V34.9205C182.717 36.0212 182.747 36.2054 183.331 36.251L183.886 36.2967C183.993 36.3729 183.963 36.6332 183.855 36.6789C183.132 36.6484 182.686 36.6332 182.147 36.6332C181.607 36.6332 181.131 36.6484 180.731 36.6789C180.624 36.6332 180.591 36.3729 180.7 36.2967L180.993 36.251C181.563 36.1597 181.578 36.0212 181.578 34.9205V32.2441H181.575Z" fill="#F6F6F6"/>
<path d="M191.577 31.2461C191.315 31.2461 191.315 31.2765 191.315 31.6891V34.9152C191.315 36.0159 191.346 36.2001 191.901 36.2458L192.455 36.2915C192.563 36.3676 192.532 36.6279 192.425 36.6736C191.732 36.6431 191.286 36.6279 190.747 36.6279C190.207 36.6279 189.731 36.6431 189.269 36.6736C189.162 36.6279 189.131 36.3676 189.239 36.2915L189.593 36.2458C190.163 36.1696 190.178 36.0159 190.178 34.9152V31.6891C190.178 31.2765 190.178 31.2461 189.87 31.2461H189.331C189.239 31.1852 189.223 31.0467 189.285 30.9553L189.947 30.6341C190.069 30.5732 190.177 30.4818 190.177 30.3281C190.177 29.4406 190.284 28.4922 190.653 27.6365C191.038 26.7642 191.901 25.6953 193.424 25.6953C194.241 25.6953 194.933 26.0622 194.933 26.6119C194.933 26.9179 194.641 27.163 194.348 27.163C194.178 27.163 194.087 27.102 193.979 26.9788C193.686 26.6424 193.255 26.3059 192.748 26.3059C192.271 26.3059 191.885 26.5967 191.655 27.1477C191.378 27.8511 191.317 28.9671 191.317 29.7313V30.1744C191.317 30.587 191.317 30.6022 191.579 30.6022H193.333C193.503 30.7559 193.395 31.1838 193.226 31.2447H191.577V31.2461Z" fill="#F6F6F6"/>
<path d="M199.973 33.5571C199.973 35.4679 198.649 36.8441 196.726 36.8441C194.956 36.8441 193.57 35.6049 193.57 33.6942C193.57 31.7835 195.032 30.3906 196.848 30.3906C198.664 30.3906 199.973 31.6755 199.973 33.5558V33.5571ZM196.664 30.8503C195.648 30.8503 194.894 31.814 194.894 33.4962C194.894 34.8877 195.526 36.3872 196.88 36.3872C198.235 36.3872 198.65 34.9805 198.65 33.8022C198.65 32.5021 198.126 30.8503 196.664 30.8503Z" fill="#F6F6F6"/>
<path d="M201.86 32.2441C201.86 31.6487 201.86 31.5712 201.444 31.2957L201.305 31.2043C201.244 31.1434 201.244 30.9744 201.32 30.9287C201.674 30.8069 202.49 30.4095 202.876 30.1797C202.952 30.1949 202.998 30.2254 202.998 30.2863V31.1738C202.998 31.25 203.014 31.2957 203.044 31.3109C203.582 30.8678 204.168 30.3929 204.738 30.3929C205.122 30.3929 205.43 30.638 205.43 31.0049C205.43 31.5089 205.015 31.7083 204.768 31.7083C204.614 31.7083 204.538 31.6626 204.43 31.6016C204.198 31.448 203.967 31.3566 203.752 31.3566C203.506 31.3566 203.322 31.4937 203.199 31.6626C203.044 31.8772 202.998 32.3202 202.998 32.8408V34.9205C202.998 36.0212 203.029 36.2054 203.614 36.251L204.169 36.2967C204.276 36.3729 204.246 36.6332 204.137 36.6789C203.414 36.6484 202.968 36.6332 202.428 36.6332C201.889 36.6332 201.412 36.6484 201.012 36.6789C200.905 36.6332 200.873 36.3729 200.98 36.2967L201.273 36.251C201.842 36.1597 201.858 36.0212 201.858 34.9205V32.2441H201.86Z" fill="#F6F6F6"/>
<path d="M218.976 35.0673C218.976 35.6793 219.068 36.0462 219.345 36.1528C219.391 36.1985 219.391 36.2898 219.33 36.3369C219.145 36.3369 218.867 36.3978 218.576 36.474C217.759 36.6886 216.653 36.8714 215.821 36.8714C213.99 36.8714 212.312 36.3674 211.127 35.1739C210.203 34.2559 209.711 33.0486 209.711 31.7028C209.711 30.3569 210.143 29.0873 211.096 28.0779C212.129 27.0077 213.651 26.2891 215.977 26.2891C216.855 26.2891 217.67 26.458 217.932 26.5189C218.224 26.5798 218.702 26.6864 218.886 26.656C218.886 27.16 218.978 27.9561 219.117 28.8741C219.071 28.9973 218.794 29.0111 218.702 28.9198C218.271 27.268 217.116 26.7487 215.546 26.7487C212.56 26.7487 211.251 28.8588 211.251 31.1531C211.251 34.0898 212.776 36.3978 215.87 36.3978C216.824 36.3978 217.393 36.1999 217.563 35.9396C217.64 35.8329 217.716 35.5574 217.716 35.0673V34.4553C217.716 33.1704 217.67 33.079 216.716 32.9724L216.038 32.8963C215.916 32.8353 215.931 32.5598 216.038 32.5141C216.484 32.5446 217.332 32.5598 218.24 32.5598C218.841 32.5598 219.364 32.5446 219.872 32.5141C219.98 32.575 219.996 32.8049 219.888 32.8963L219.642 32.9267C218.996 33.0029 218.98 33.4307 218.98 34.2116V35.0673H218.976Z" fill="#F6F6F6"/>
<path d="M221.486 32.2441C221.486 31.6487 221.486 31.5712 221.071 31.2957L220.933 31.2043C220.871 31.1434 220.871 30.9744 220.948 30.9287C221.301 30.8069 222.117 30.4095 222.502 30.1797C222.579 30.1949 222.625 30.2254 222.625 30.2863V31.1738C222.625 31.25 222.64 31.2957 222.671 31.3109C223.209 30.8678 223.794 30.3929 224.364 30.3929C224.749 30.3929 225.057 30.638 225.057 31.0049C225.057 31.5089 224.641 31.7083 224.395 31.7083C224.24 31.7083 224.163 31.6626 224.056 31.6016C223.826 31.448 223.595 31.3566 223.379 31.3566C223.132 31.3566 222.947 31.4937 222.824 31.6626C222.669 31.8772 222.623 32.3202 222.623 32.8408V34.9205C222.623 36.0212 222.654 36.2054 223.239 36.251L223.793 36.2967C223.9 36.3729 223.871 36.6332 223.762 36.6789C223.039 36.6484 222.593 36.6332 222.053 36.6332C221.514 36.6332 221.037 36.6484 220.637 36.6789C220.53 36.6332 220.498 36.3729 220.605 36.2967L220.898 36.251C221.467 36.1597 221.483 36.0212 221.483 34.9205V32.2441H221.486Z" fill="#F6F6F6"/>
<path d="M231.785 33.5571C231.785 35.4679 230.463 36.8441 228.538 36.8441C226.768 36.8441 225.383 35.6049 225.383 33.6942C225.383 31.7835 226.846 30.3906 228.662 30.3906C230.478 30.3906 231.787 31.6755 231.787 33.5558H231.785V33.5571ZM228.477 30.8503C227.461 30.8503 226.707 31.814 226.707 33.4962C226.707 34.8877 227.338 36.3872 228.693 36.3872C230.047 36.3872 230.463 34.9805 230.463 33.8022C230.463 32.5021 229.939 30.8503 228.477 30.8503Z" fill="#F6F6F6"/>
<path d="M233.134 32.0911C232.78 31.2354 232.595 31.0817 232.21 30.9903L231.965 30.9294C231.887 30.8533 231.873 30.6234 232.011 30.5625C232.487 30.593 232.919 30.6082 233.381 30.6082C233.842 30.6082 234.305 30.593 234.72 30.5625C234.844 30.6234 234.858 30.8533 234.751 30.9294L234.397 30.9903C234.181 31.0208 234.058 31.1122 234.058 31.2049C234.058 31.2977 234.135 31.5871 234.305 31.9997L235.258 34.3396C235.396 34.6913 235.535 34.9668 235.535 34.9973C235.581 34.9668 235.704 34.7065 235.889 34.2635L236.643 32.4137C236.843 31.9249 236.859 31.7255 236.781 31.5275C236.643 31.1911 236.412 31.0693 236.073 30.9931L235.827 30.9322C235.719 30.8408 235.75 30.611 235.873 30.5653C236.257 30.5957 236.751 30.611 237.151 30.611C237.627 30.611 238.09 30.5957 238.613 30.5653C238.751 30.611 238.751 30.856 238.659 30.9322L238.335 30.9931C237.719 31.1149 237.75 31.1606 237.935 31.6965C238.104 32.2005 238.936 34.143 239.105 34.5556C239.197 34.7855 239.259 34.953 239.304 34.9848C239.335 34.9544 239.411 34.8007 239.52 34.5556C239.719 34.1125 240.335 32.4912 240.565 31.8488C240.689 31.4971 240.72 31.2977 240.72 31.1911C240.72 31.0997 240.628 31.0236 240.442 30.9931L240.058 30.9322C239.934 30.856 239.966 30.611 240.073 30.5653C240.519 30.5957 240.905 30.611 241.29 30.611C241.583 30.611 241.952 30.5957 242.291 30.5653C242.413 30.6262 242.428 30.856 242.337 30.9322L242.029 30.9931C241.659 31.0693 241.52 31.2839 241.196 31.9568C240.781 32.8124 240.043 34.6484 239.75 35.4279C239.534 35.979 239.35 36.422 239.226 36.8194C239.164 36.8651 239.103 36.8803 239.027 36.8803C238.964 36.8803 238.902 36.8651 238.856 36.8194C238.764 36.5439 238.487 35.7491 238.225 35.1371L237.486 33.3787C237.379 33.1032 237.148 32.5978 237.132 32.5978C237.117 32.5978 236.901 33.0713 236.794 33.3469L235.994 35.2576C235.717 35.9153 235.5 36.4663 235.378 36.818C235.332 36.8637 235.271 36.8789 235.192 36.8789C235.131 36.8789 235.055 36.8637 235.007 36.818C234.914 36.4968 234.668 35.8696 234.544 35.5484L233.128 32.0925H233.134V32.0911Z" fill="#F6F6F6"/>
<path d="M244.754 31.2476C244.492 31.2476 244.477 31.2933 244.477 31.6146V34.4737C244.477 35.3612 244.584 36.1712 245.6 36.1712C245.755 36.1712 245.893 36.1394 246.015 36.095C246.153 36.0494 246.354 35.8804 246.4 35.8804C246.523 35.8804 246.585 36.048 246.555 36.1393C246.277 36.4606 245.723 36.8427 244.938 36.8427C243.614 36.8427 243.337 36.1089 243.337 35.1909V31.6893C243.337 31.2767 243.321 31.2463 243.013 31.2463H242.583C242.491 31.1853 242.475 31.0164 242.537 30.925C242.983 30.788 243.367 30.5886 243.522 30.4515C243.723 30.2674 244.014 29.8562 244.169 29.5488C244.245 29.5183 244.431 29.5183 244.492 29.6249V30.3131C244.492 30.5886 244.507 30.6038 244.769 30.6038H246.478C246.664 30.7409 246.631 31.1549 246.493 31.2463H244.754V31.2476Z" fill="#F6F6F6"/>
<path d="M247.91 28.0048C247.91 27.102 247.895 27.0107 247.434 26.7351L247.279 26.6437C247.202 26.5981 247.202 26.3848 247.279 26.3378C247.664 26.2145 248.387 25.9861 248.942 25.6953C249.003 25.6953 249.066 25.7258 249.096 25.7867C249.081 26.245 249.05 27.0093 249.05 27.6836V30.8944C249.05 31.0315 249.066 31.1547 249.112 31.1852C249.666 30.7573 250.405 30.3904 251.19 30.3904C252.652 30.3904 253.174 31.2931 253.174 32.3634V34.9166C253.174 36.0173 253.205 36.1862 253.76 36.2472L254.175 36.2929C254.282 36.369 254.252 36.6293 254.144 36.675C253.59 36.6445 253.144 36.6293 252.604 36.6293C252.065 36.6293 251.588 36.6445 251.173 36.675C251.066 36.6293 251.035 36.369 251.142 36.2929L251.45 36.2472C252.02 36.1558 252.036 36.0173 252.036 34.9166V32.7303C252.036 31.7514 251.559 31.0938 250.574 31.0938C250.051 31.0938 249.651 31.2779 249.374 31.5064C249.096 31.7362 249.05 31.8124 249.05 32.3482V34.9166C249.05 36.0173 249.081 36.171 249.636 36.2472L249.959 36.2929C250.066 36.3538 250.036 36.6293 249.928 36.675C249.467 36.6445 249.02 36.6293 248.482 36.6293C247.944 36.6293 247.466 36.6445 246.972 36.675C246.865 36.6293 246.834 36.369 246.942 36.2929L247.326 36.2472C247.896 36.1862 247.912 36.0173 247.912 34.9166V28.0048H247.91Z" fill="#F6F6F6"/>
<path d="M259.534 32.2393C259.534 31.644 259.534 31.5664 259.118 31.2909L258.98 31.1995C258.919 31.1386 258.919 30.9697 258.996 30.924C259.35 30.8021 260.228 30.4048 260.582 30.1749C260.658 30.1749 260.72 30.2054 260.737 30.2663C260.706 30.8021 260.675 31.536 260.675 32.1632V34.9157C260.675 36.0164 260.706 36.1701 261.261 36.2463L261.584 36.292C261.691 36.3681 261.661 36.6284 261.553 36.6741C261.092 36.6437 260.645 36.6284 260.107 36.6284C259.569 36.6284 259.091 36.6437 258.66 36.6741C258.553 36.6284 258.522 36.3681 258.629 36.292L258.953 36.2463C259.521 36.1701 259.538 36.0164 259.538 34.9157V32.2393H259.534ZM260.812 27.8807C260.812 28.4317 260.427 28.6754 259.995 28.6754C259.518 28.6754 259.21 28.3237 259.21 27.9111C259.21 27.4072 259.58 27.0859 260.041 27.0859C260.502 27.0859 260.81 27.4529 260.81 27.8807H260.812Z" fill="#F6F6F6"/>
<path d="M263.332 32.2441C263.332 31.6487 263.332 31.5712 262.917 31.2957L262.779 31.2043C262.717 31.1434 262.717 30.9744 262.794 30.9287C263.148 30.8069 264.026 30.4095 264.334 30.1797C264.395 30.1797 264.472 30.2101 264.504 30.2863C264.472 30.638 264.472 30.8678 264.472 31.0049C264.472 31.0963 264.533 31.1738 264.642 31.1738C265.289 30.7764 266.012 30.3929 266.797 30.3929C268.075 30.3929 268.597 31.2652 268.597 32.2898V34.9191C268.597 36.0198 268.628 36.1735 269.183 36.2497L269.521 36.2954C269.629 36.3715 269.598 36.6318 269.491 36.6775C269.029 36.647 268.582 36.6318 268.044 36.6318C267.506 36.6318 267.028 36.647 266.613 36.6775C266.505 36.6318 266.475 36.3715 266.582 36.2954L266.875 36.2497C267.443 36.1583 267.46 36.0198 267.46 34.9191V32.6401C267.46 31.7678 267.06 31.1267 266.012 31.1267C265.427 31.1267 264.919 31.3718 264.703 31.6612C264.504 31.9215 264.472 32.1347 264.472 32.5792V34.9191C264.472 36.0198 264.504 36.1583 265.057 36.2497L265.335 36.2954C265.442 36.3715 265.411 36.6318 265.304 36.6775C264.889 36.647 264.441 36.6318 263.903 36.6318C263.365 36.6318 262.887 36.647 262.457 36.6775C262.349 36.6318 262.319 36.3715 262.426 36.2954L262.749 36.2497C263.318 36.1735 263.335 36.0198 263.335 34.9191V32.2427H263.332V32.2441Z" fill="#F6F6F6"/>
<path d="M279.708 33.079C279.601 32.7426 279.54 32.6969 279.077 32.6969H276.752C276.368 32.6969 276.276 32.7426 276.167 33.0638L275.629 34.6699C275.398 35.358 275.291 35.7706 275.291 35.9396C275.291 36.1237 275.367 36.2151 275.736 36.2455L276.244 36.2912C276.351 36.3674 276.351 36.6125 276.213 36.6734C275.813 36.6429 275.335 36.6429 274.612 36.6277C274.104 36.6277 273.55 36.6581 273.133 36.6734C273.041 36.6125 273.01 36.3674 273.102 36.2912L273.61 36.2455C273.979 36.2151 274.318 36.0462 274.534 35.4951C274.811 34.7917 275.242 33.7976 275.888 32.0849L277.459 27.9561C277.675 27.405 277.767 27.1143 277.721 26.8706C278.09 26.764 278.352 26.4884 278.521 26.2891C278.613 26.2891 278.72 26.3195 278.751 26.4261C278.952 27.099 279.197 27.8024 279.428 28.4753L281.537 34.6228C281.983 35.9382 282.184 36.168 282.846 36.2442L283.261 36.2898C283.368 36.366 283.338 36.6111 283.261 36.672C282.63 36.6415 282.092 36.6263 281.399 36.6263C280.66 36.6263 280.075 36.6568 279.629 36.672C279.506 36.6111 279.491 36.366 279.598 36.2898L280.044 36.2442C280.368 36.2137 280.582 36.1209 280.582 35.9686C280.582 35.8011 280.506 35.5256 280.383 35.1587L279.706 33.079H279.708ZM276.66 31.718C276.536 32.0697 276.553 32.0849 276.984 32.0849H278.876C279.322 32.0849 279.353 32.024 279.215 31.6114L278.384 29.1191C278.262 28.7522 278.122 28.3396 278.03 28.1555H278C277.954 28.2316 277.801 28.5985 277.631 29.0582L276.66 31.7194V31.718Z" fill="#F6F6F6"/>
<path d="M287.098 30.6662C287.237 31.0026 287.344 31.4914 287.344 31.904C287.282 32.0106 287.052 32.0424 286.975 31.9497C286.713 31.2768 286.252 30.8337 285.62 30.8337C284.989 30.8337 284.635 31.2158 284.635 31.7669C284.635 32.3941 285.282 32.7306 285.82 33.0365C286.636 33.4948 287.39 34.0154 287.39 35.1009C287.39 36.2626 286.313 36.8441 285.175 36.8441C284.451 36.8441 283.913 36.6904 283.527 36.3858C283.405 36.0951 283.311 35.346 283.342 34.8406C283.418 34.7493 283.619 34.734 283.696 34.8254C283.956 35.6672 284.45 36.3997 285.328 36.3997C285.883 36.3997 286.359 36.0785 286.359 35.4208C286.359 34.7174 285.743 34.3353 285.173 34.0141C284.281 33.5101 283.65 32.9742 283.65 32.1338C283.65 31.0178 284.574 30.3906 285.743 30.3906C286.39 30.3906 286.958 30.5443 287.098 30.6662Z" fill="#F6F6F6"/>
<path d="M289.206 32.2393C289.206 31.644 289.206 31.5664 288.791 31.2909L288.653 31.1995C288.592 31.1386 288.592 30.9697 288.668 30.924C289.022 30.8021 289.9 30.4048 290.254 30.1749C290.331 30.1749 290.392 30.2054 290.409 30.2663C290.378 30.8021 290.348 31.536 290.348 32.1632V34.9157C290.348 36.0164 290.378 36.1701 290.933 36.2463L291.256 36.292C291.364 36.3681 291.333 36.6284 291.226 36.6741C290.764 36.6437 290.317 36.6284 289.779 36.6284C289.241 36.6284 288.763 36.6437 288.332 36.6741C288.225 36.6284 288.193 36.3681 288.302 36.292L288.625 36.2463C289.194 36.1701 289.21 36.0164 289.21 34.9157V32.2393H289.206ZM290.484 27.8807C290.484 28.4317 290.1 28.6754 289.668 28.6754C289.191 28.6754 288.883 28.3237 288.883 27.9111C288.883 27.4072 289.252 27.0859 289.714 27.0859C290.175 27.0859 290.483 27.4529 290.483 27.8807H290.484Z" fill="#F6F6F6"/>
<path d="M295.148 33.4644C295.38 33.3882 295.41 33.2498 295.41 33.0213L295.426 32.318C295.441 31.753 295.257 30.9874 294.302 30.9874C293.872 30.9874 293.348 31.202 293.317 31.6755C293.302 31.9206 293.286 32.1033 293.162 32.1947C292.932 32.3789 292.516 32.4855 292.284 32.4855C292.146 32.4855 292.068 32.4093 292.068 32.2709C292.068 31.4761 293.808 30.3906 294.932 30.3906C296.057 30.3906 296.58 31.0331 296.534 32.1795L296.442 34.8406C296.411 35.544 296.549 36.1712 297.15 36.1712C297.304 36.1712 297.442 36.1255 297.534 36.0785C297.611 36.0328 297.688 35.9718 297.734 35.9718C297.795 35.9718 297.841 36.0632 297.841 36.1712C297.841 36.2474 297.303 36.8441 296.549 36.8441C296.18 36.8441 295.81 36.7071 295.548 36.3706C295.487 36.2792 295.394 36.156 295.302 36.156C295.194 36.156 295.009 36.2931 294.701 36.462C294.362 36.6461 294.024 36.8441 293.593 36.8441C293.162 36.8441 292.776 36.7209 292.516 36.4924C292.223 36.2321 292.039 35.85 292.039 35.4222C292.039 34.8268 292.332 34.4737 293.317 34.1221L295.148 33.4644ZM294.194 36.156C294.502 36.156 294.98 35.9262 295.133 35.7739C295.318 35.5897 295.318 35.3765 295.334 35.0553L295.364 34.1525C295.364 33.985 295.303 33.9545 295.21 33.9545C295.116 33.9545 294.856 34.0154 294.578 34.1082C293.67 34.4142 293.224 34.6427 293.224 35.2394C293.224 35.4997 293.409 36.1574 294.194 36.1574V36.156Z" fill="#F6F6F6"/>
</g>
<defs>
<clipPath id="clip0_4733_6566">
<rect width="362" height="37" fill="white"/>
</clipPath>
</defs>
</svg>
