<?xml version="1.0" encoding="UTF-8"?>
<svg id="Layer_1" xmlns="http://www.w3.org/2000/svg" version="1.1" viewBox="0 0 640 93">
  <!-- Generator: Adobe Illustrator 29.5.1, SVG Export Plug-In . SVG Version: 2.1.0 Build 141)  -->
  <defs>
    <style>
      .st0 {
        fill: #656fab;
      }

      .st1 {
        fill: #101514;
      }

      .st2 {
        fill: #f57f3b;
      }

      .st3 {
        fill: #1a171b;
      }

      .st4 {
        fill: #fccc1a;
      }

      .st5 {
        fill: #0f8a44;
      }

      .st6 {
        fill: #df1f26;
      }
    </style>
  </defs>
  <g>
    <path class="st3" d="M86.3,41.4v-.7h.9c.7,0,1.3-.1,1.7-.4.4-.3.7-.7.9-1.2.1-.3.2-1.3.2-2.9v-19.8c0-1.6,0-2.5-.2-2.9-.1-.4-.4-.7-.8-1-.4-.3-1-.4-1.7-.4h-.9v-.8h11.5c3.1,0,5.6.5,7.4,1.5,2.3,1.2,4,3,5.2,5.5,1.2,2.4,1.8,5.2,1.8,8.3s-.3,4.1-.9,5.9c-.6,1.8-1.3,3.3-2.3,4.4-.9,1.2-2,2.1-3.2,2.8-1.2.7-2.7,1.3-4.4,1.6-.8.2-2,.2-3.6.2h-11.5M96.2,12.9v23.5c0,1.2,0,2,.2,2.3,0,.3.3.5.5.7.3.2.8.3,1.5.3,2.1,0,3.7-.8,4.8-2.5,1.5-2.3,2.3-5.8,2.3-10.6s-.5-7-1.5-9.3c-.8-1.8-1.9-3-3.2-3.7-.9-.5-2.4-.7-4.5-.7"/>
    <path class="st3" d="M122.7,12.9v12.3h.5c1.7,0,2.9-.6,3.6-1.8.8-1.2,1.2-3,1.4-5.3h.7v15.9h-.7c-.2-1.7-.5-3.1-1-4.2-.5-1.1-1.1-1.8-1.7-2.2-.7-.4-1.6-.6-2.9-.6v8.5c0,1.7,0,2.7.2,3,.1.4.3.7.7.9.3.2.9.4,1.6.4h1.5c2.4,0,4.3-.6,5.8-1.9,1.5-1.3,2.5-3.3,3.1-6h.7l-1.2,9.6h-22.3v-.7h.9c.8,0,1.4-.2,1.8-.5.3-.2.6-.6.8-1.1.1-.4.2-1.3.2-2.9v-19.8c0-1.4,0-2.2,0-2.6-.1-.5-.4-.9-.7-1.2-.5-.4-1.1-.6-2-.6h-.9v-.8h21.6v8.9h-.7c-.4-2.2-.9-3.7-1.5-4.7-.7-.9-1.6-1.6-2.8-2.1-.7-.3-2-.4-4-.4h-2.7"/>
    <path class="st3" d="M603.4,12.9v12.3h.5c1.7,0,2.9-.6,3.6-1.8.8-1.2,1.2-3,1.4-5.3h.7v15.9h-.7c-.2-1.7-.5-3.1-1-4.2-.5-1.1-1.1-1.8-1.7-2.2-.7-.4-1.6-.6-2.9-.6v8.5c0,1.7,0,2.7.2,3,.1.4.3.7.7.9.3.2.9.4,1.6.4h1.5c2.4,0,4.3-.6,5.8-1.9,1.5-1.3,2.5-3.3,3.1-6h.7l-1.2,9.6h-22.3v-.7h.9c.8,0,1.4-.2,1.8-.5.3-.2.6-.6.8-1.1.1-.4.2-1.3.2-2.9v-19.8c0-1.4,0-2.2,0-2.6-.1-.5-.4-.9-.7-1.2-.5-.4-1.1-.6-2-.6h-.9v-.8h21.6v8.9h-.7c-.4-2.2-.9-3.7-1.5-4.7-.7-.9-1.6-1.6-2.8-2.1-.7-.3-2-.4-4-.4h-2.7"/>
    <path class="st3" d="M160,11.2l-15.2,28.5h4.9c2.3,0,4-.2,4.9-.5,1.5-.5,2.8-1.5,3.9-2.9,1.1-1.4,1.8-3.3,2.3-5.7h.7l-1,10.9h-23.6l15.3-28.6h-3.8c-1.5,0-2.5,0-2.9.2-.9.2-1.7.6-2.5,1.1-.8.6-1.4,1.3-1.9,2.3-.5,1-.9,2.2-1.2,3.6h-.7l.7-8.8h20.4"/>
    <path class="st3" d="M177.9,32.7h-9l-1.1,3c-.4,1-.5,1.8-.5,2.5s.3,1.5.9,1.9c.3.2,1.2.4,2.5.6v.7h-8.6v-.7c.9-.2,1.7-.6,2.3-1.4.6-.7,1.3-2.3,2.2-4.6l9.2-24.1h.4l9.2,24.8c.9,2.4,1.6,3.9,2.2,4.5.4.5,1,.7,1.8.8v.7h-12.4v-.7h.5c1,0,1.7-.2,2.1-.5.3-.2.4-.6.4-1.1s0-.6-.1-.8c0-.1-.2-.7-.6-1.7l-1.4-3.8M177.3,31.1l-3.8-10.4-4,10.4h7.8"/>
    <path class="st3" d="M199.5,11.2l12.7,18.5v-12.8c0-1.8-.2-3.1-.7-3.7-.6-.9-1.6-1.3-3-1.3v-.8h8.4v.8c-1.1.2-1.8.4-2.2.6-.4.3-.7.7-.9,1.3-.2.6-.3,1.6-.3,3v25.2h-.6l-17.4-25.1v19.2c0,1.7.3,2.9,1,3.5.7.6,1.5.9,2.4.9h.6v.7h-9.2v-.7c1.4,0,2.4-.4,3-1,.6-.7.8-1.8.8-3.4V14.9l-.6-.9c-.5-.9-1-1.4-1.4-1.7-.4-.3-1-.4-1.8-.5v-.8h9.2"/>
    <path class="st3" d="M249.4,10.5l.2,10.1h-.8c-.4-2.5-1.3-4.6-2.7-6.1-1.5-1.5-3-2.3-4.7-2.3s-2.3.4-3.1,1.2c-.8.8-1.1,1.7-1.1,2.8s.1,1.3.4,1.8c.4.7,1,1.4,1.8,2.1.6.5,2,1.4,4.1,2.6,3,1.7,5,3.4,6.1,4.9,1,1.5,1.6,3.3,1.6,5.3s-.8,4.7-2.5,6.5c-1.7,1.8-3.8,2.7-6.4,2.7s-1.6,0-2.3-.3c-.7-.2-1.6-.6-2.7-1.1-.6-.3-1.1-.5-1.5-.5s-.7.2-1,.5c-.4.3-.7.8-.9,1.4h-.7v-11.4h.7c.6,3.2,1.6,5.6,3.3,7.3,1.6,1.7,3.3,2.5,5.2,2.5s2.6-.5,3.4-1.4c.8-.9,1.3-2,1.3-3.1s-.2-1.4-.5-2.1c-.3-.7-.8-1.3-1.5-1.9-.7-.6-1.8-1.4-3.5-2.3-2.3-1.3-4-2.5-5.1-3.4-1-1-1.8-2-2.4-3.2-.5-1.2-.8-2.5-.8-3.9,0-2.4.8-4.5,2.3-6.2,1.5-1.7,3.4-2.5,5.7-2.5s1.7.1,2.4.3c.6.2,1.3.5,2.2,1,.9.5,1.5.7,1.8.7s.6-.1.8-.4c.2-.2.4-.8.5-1.7h.6"/>
    <path class="st3" d="M450,10.5l.2,10.1h-.8c-.4-2.5-1.3-4.6-2.7-6.1-1.5-1.5-3-2.3-4.7-2.3s-2.3.4-3.1,1.2c-.8.8-1.1,1.7-1.1,2.8s.1,1.3.4,1.8c.4.7,1,1.4,1.8,2.1.6.5,2,1.4,4.1,2.6,3,1.7,5,3.4,6.1,4.9,1,1.5,1.6,3.3,1.6,5.3s-.8,4.7-2.5,6.5c-1.7,1.8-3.8,2.7-6.4,2.7s-1.6,0-2.3-.3c-.7-.2-1.6-.6-2.7-1.1-.6-.3-1.1-.5-1.5-.5s-.7.2-1,.5c-.4.3-.7.8-.9,1.4h-.7v-11.4h.7c.6,3.2,1.6,5.6,3.3,7.3,1.6,1.7,3.3,2.5,5.2,2.5s2.6-.5,3.4-1.4c.8-.9,1.3-2,1.3-3.1s-.2-1.4-.5-2.1c-.3-.7-.8-1.3-1.5-1.9-.7-.6-1.8-1.4-3.5-2.3-2.4-1.3-4-2.5-5.1-3.4-1-1-1.8-2-2.4-3.2-.5-1.2-.8-2.5-.8-3.9,0-2.4.8-4.5,2.3-6.2,1.5-1.7,3.4-2.5,5.7-2.5s1.7.1,2.4.3c.6.2,1.3.5,2.2,1,.9.5,1.5.7,1.8.7s.6-.1.8-.4c.2-.2.4-.8.5-1.7h.6"/>
    <path class="st3" d="M470.6,10.5l.2,10.1h-.8c-.4-2.5-1.3-4.6-2.7-6.1-1.5-1.5-3-2.3-4.7-2.3s-2.3.4-3.1,1.2c-.8.8-1.1,1.7-1.1,2.8s.1,1.3.4,1.8c.4.7,1,1.4,1.8,2.1.6.5,2,1.4,4.1,2.6,3,1.7,5,3.4,6.1,4.9,1,1.5,1.6,3.3,1.6,5.3s-.8,4.7-2.5,6.5c-1.7,1.8-3.8,2.7-6.4,2.7s-1.6,0-2.3-.3c-.7-.2-1.6-.6-2.7-1.1-.6-.3-1.1-.5-1.5-.5s-.7.2-1,.5c-.4.3-.7.8-.9,1.4h-.7v-11.4h.7c.6,3.2,1.6,5.6,3.3,7.3,1.6,1.7,3.3,2.5,5.2,2.5s2.6-.5,3.4-1.4c.8-.9,1.3-2,1.3-3.1s-.2-1.4-.5-2.1c-.3-.7-.8-1.3-1.5-1.9-.7-.6-1.8-1.4-3.5-2.3-2.3-1.3-4-2.5-5.1-3.4-1-1-1.8-2-2.4-3.2-.5-1.2-.8-2.5-.8-3.9,0-2.4.8-4.5,2.3-6.2,1.5-1.7,3.4-2.5,5.7-2.5s1.7.1,2.4.3c.6.2,1.3.5,2.2,1,.9.5,1.5.7,1.8.7s.6-.1.8-.4c.2-.2.4-.8.5-1.7h.6"/>
    <path class="st3" d="M635.4,10.5l.2,10.1h-.8c-.4-2.5-1.3-4.6-2.7-6.1-1.5-1.5-3-2.3-4.7-2.3s-2.3.4-3.1,1.2c-.8.8-1.1,1.7-1.1,2.8s.1,1.3.4,1.8c.4.7,1,1.4,1.8,2.1.6.5,2,1.4,4.1,2.6,3,1.7,5,3.4,6.1,4.9,1,1.5,1.6,3.3,1.6,5.3s-.8,4.7-2.5,6.5c-1.7,1.8-3.8,2.7-6.4,2.7s-1.6,0-2.3-.3c-.7-.2-1.6-.6-2.7-1.1-.6-.3-1.1-.5-1.5-.5s-.7.2-1,.5c-.4.3-.7.8-.9,1.4h-.7v-11.4h.7c.6,3.2,1.6,5.6,3.3,7.3,1.6,1.7,3.3,2.5,5.2,2.5s2.6-.5,3.4-1.4c.8-.9,1.3-2,1.3-3.1s-.2-1.4-.5-2.1c-.3-.7-.8-1.3-1.5-1.9-.7-.6-1.8-1.4-3.5-2.3-2.3-1.3-4-2.5-5.1-3.4-1-1-1.8-2-2.4-3.2-.6-1.2-.8-2.5-.8-3.9,0-2.4.8-4.5,2.3-6.2,1.5-1.7,3.4-2.5,5.7-2.5s1.7.1,2.4.3c.6.2,1.3.5,2.2,1,.9.5,1.5.7,1.8.7s.6-.1.8-.4c.2-.2.4-.8.5-1.7h.6"/>
    <path class="st3" d="M261.9,26.9v9.3c0,1.6,0,2.6.2,2.9.1.4.4.7.9,1,.4.3,1,.4,1.7.4h.8v.7h-13.5v-.7h.9c.7,0,1.4-.2,1.8-.5.3-.2.6-.6.8-1.1.1-.4.2-1.3.2-2.9v-19.8c0-1.6,0-2.5-.2-2.9-.1-.4-.4-.7-.9-1-.4-.3-1-.4-1.7-.4h-.9v-.8h13.5v.8h-.8c-.7,0-1.4.2-1.8.5-.3.2-.6.6-.8,1.1-.1.4-.2,1.3-.2,2.9v8.5h9.1v-8.5c0-1.6,0-2.5-.2-2.9-.1-.4-.4-.7-.9-1-.4-.3-1-.4-1.7-.4h-.8v-.8h13.5v.8h-.8c-.8,0-1.4.2-1.8.5-.3.2-.6.6-.8,1.1-.1.4-.2,1.3-.2,2.9v19.8c0,1.6,0,2.6.2,2.9.1.4.4.7.9,1,.4.3,1,.4,1.7.4h.8v.7h-13.5v-.7h.8c.8,0,1.4-.2,1.8-.5.3-.2.6-.6.8-1.1.1-.4.2-1.3.2-2.9v-9.3h-9.1"/>
    <path class="st3" d="M296.1,40.6v.7h-13.5v-.7h.9c.8,0,1.4-.2,1.8-.5.3-.2.6-.6.8-1.1.1-.4.2-1.3.2-2.9v-19.8c0-1.6,0-2.5-.2-2.9-.1-.4-.4-.7-.8-1-.4-.3-1-.4-1.7-.4h-.9v-.8h13.5v.8h-.9c-.7,0-1.3.2-1.8.5-.3.2-.6.6-.8,1.1-.1.4-.2,1.3-.2,2.9v19.8c0,1.6,0,2.6.2,2.9.1.4.4.7.9,1,.4.3,1,.4,1.7.4h.9"/>
    <path class="st3" d="M543.1,40.6v.7h-13.5v-.7h.9c.8,0,1.4-.2,1.8-.5.3-.2.6-.6.8-1.1.1-.4.2-1.3.2-2.9v-19.8c0-1.6,0-2.5-.2-2.9-.1-.4-.4-.7-.8-1-.4-.3-1-.4-1.7-.4h-.9v-.8h13.5v.8h-.9c-.7,0-1.3.2-1.8.5-.3.2-.6.6-.8,1.1-.1.4-.2,1.3-.2,2.9v19.8c0,1.6,0,2.6.2,2.9.1.4.4.7.9,1,.4.3,1,.4,1.7.4h.9"/>
    <path class="st3" d="M307.1,27.6v8.5c0,1.6,0,2.7.3,3.1.2.4.5.8.9,1,.4.3,1.3.4,2.5.4v.7h-13.4v-.7c1.2,0,2-.1,2.5-.4.4-.3.7-.6.9-1,.2-.4.3-1.4.3-3.1v-19.7c0-1.6,0-2.7-.3-3.1-.2-.4-.5-.8-.9-1-.4-.3-1.3-.4-2.5-.4v-.8h12c3.1,0,5.4.3,6.9.8,1.5.5,2.6,1.4,3.6,2.8.9,1.3,1.4,2.9,1.4,4.8s-.7,4.1-2,5.5c-.9.9-2.1,1.6-3.6,2.1l6.2,10.2c.8,1.3,1.4,2.2,1.7,2.5.5.5,1.1.7,1.8.8v.8h-8.1l-8.3-13.8h-1.7M307.1,12.9v13h1.1c1.8,0,3.1-.2,4-.6.9-.4,1.6-1,2.1-2,.5-1,.7-2.2.7-3.8,0-2.3-.5-3.9-1.4-5-.9-1.1-2.4-1.6-4.5-1.6h-2"/>
    <path class="st3" d="M341.4,32.7h-9l-1.1,3c-.4,1-.5,1.8-.5,2.5s.3,1.5.9,1.9c.3.2,1.2.4,2.5.6v.7h-8.6v-.7c.9-.2,1.7-.6,2.3-1.4.6-.7,1.3-2.3,2.2-4.6l9.2-24.1h.4l9.2,24.8c.9,2.4,1.6,3.9,2.2,4.5.4.5,1,.7,1.8.8v.7h-12.4v-.7h.5c1,0,1.7-.2,2.1-.5.3-.2.4-.6.4-1.1s0-.6-.1-.8c0-.1-.2-.7-.6-1.7l-1.4-3.8M340.8,31.1l-3.8-10.4-4,10.4h7.8"/>
    <path class="st3" d="M420.5,32.7h-9l-1.1,3c-.4,1-.5,1.8-.5,2.5s.3,1.5.9,1.9c.3.2,1.2.4,2.5.6v.7h-8.6v-.7c.9-.2,1.7-.6,2.3-1.4.6-.7,1.3-2.3,2.2-4.6l9.2-24.1h.4l9.2,24.8c.9,2.4,1.6,3.9,2.2,4.5.4.5,1,.7,1.8.8v.7h-12.4v-.7h.5c1,0,1.7-.2,2.1-.5.3-.2.4-.6.4-1.1s0-.6-.1-.8c0-.1-.2-.7-.6-1.7l-1.4-3.8M419.9,31.1l-3.8-10.4-4,10.4h7.8"/>
    <path class="st3" d="M560.5,32.7h-9l-1.1,3c-.4,1-.5,1.8-.5,2.5s.3,1.5.9,1.9c.3.2,1.2.4,2.5.6v.7h-8.6v-.7c.9-.2,1.7-.6,2.3-1.4.6-.7,1.3-2.3,2.2-4.6l9.2-24.1h.4l9.2,24.8c.9,2.4,1.6,3.9,2.2,4.5.4.5,1,.7,1.8.8v.7h-12.4v-.7h.5c1,0,1.7-.2,2.1-.5.3-.2.4-.6.4-1.1s0-.6-.1-.8c0-.1-.2-.7-.6-1.7l-1.4-3.8M559.9,31.1l-3.8-10.4-4,10.4h7.8"/>
    <path class="st3" d="M384.6,23.9h7.6v.8c-.8.1-1.5.4-2,.9-.5.5-1.1,1.5-1.9,3.2-.8,1.7-1.9,3.5-3.3,5.6,1.2,1.3,2.3,2.2,3,2.7.5.3,1.1.5,1.6.5.9,0,1.7-.7,2.5-2.1l.7.5c-1,2.3-2.1,4-3.2,4.9-.9.7-1.8,1.1-2.9,1.1s-1.9-.2-2.7-.7c-.9-.5-1.9-1.4-3.1-2.7-1.5,1.2-3,2.1-4.3,2.6-1.3.5-2.7.8-4.2.8-2.3,0-4.1-.7-5.5-2.2-1.4-1.5-2-3.2-2-5.2s.7-4,2-5.6c1.3-1.6,3.2-3,5.7-4.1-.3-.9-.5-1.8-.7-2.7-.2-.9-.2-1.8-.2-2.6,0-2.3.7-4.2,2.1-5.7,1.4-1.5,3.1-2.3,5.2-2.3s3.1.5,4.1,1.5c1,1,1.5,2.2,1.5,3.5s-.5,3-1.5,4.2c-1,1.2-2.7,2.2-4.9,3.2,1.4,2.9,3.4,6,6,9.3,1.8-2.4,2.7-4.4,2.7-6.1s-.2-1.1-.5-1.6c-.4-.4-.9-.7-1.5-.8v-.8M373,26.2c-1,.5-1.7,1-2.1,1.5-.6.8-.9,1.7-.9,2.7s.3,2.7,1,4c.7,1.3,1.5,2.4,2.4,3.1.9.7,1.9,1.1,2.8,1.1s1-.1,1.6-.4c.6-.2,1.2-.6,1.9-1.1-2.9-3.5-5.2-7.2-6.7-11M377.4,22.6c1.3-.5,2.1-1.2,2.6-1.8.4-.6.6-1.4.6-2.3,0-1.6-.4-3-1.1-4.1-.5-.7-1.1-1.1-1.8-1.1s-1.1.3-1.5.8c-.4.5-.6,1.3-.6,2.2s0,1.5.3,2.3c.2.8.7,2.2,1.4,4.1"/>
    <path class="st3" d="M487.7,10.7c4.1-.2,7.4,1.2,9.9,4.2,2.5,3,3.8,6.7,3.8,11.2s-.9,7.2-2.8,10.1c-2.5,3.9-6.1,5.8-10.6,5.8s-8.2-1.8-10.6-5.5c-2-2.9-3-6.4-3-10.4s1.3-8.2,3.9-11.2c2.6-3,5.8-4.4,9.5-4.2M487.9,12.1c-2.3,0-4.1,1.4-5.3,4.2-1,2.3-1.5,5.6-1.5,10s.8,9,2.3,11.4c1.1,1.7,2.6,2.6,4.5,2.6s2.4-.4,3.2-1.1c1.1-.9,2-2.5,2.6-4.5.6-2.1.9-4.8.9-8.2s-.3-7-.9-9c-.6-2-1.4-3.4-2.4-4.2-1-.8-2.1-1.2-3.4-1.2"/>
    <path class="st3" d="M527.6,10.5v10.5h-.7c-.6-2.8-1.6-4.9-3.1-6.3-1.5-1.5-3.2-2.2-5.1-2.2s-3.1.5-4.4,1.6c-1.3,1.1-2.3,2.5-2.9,4.3-.8,2.2-1.2,4.7-1.2,7.5s.3,5.2.9,7.4c.6,2.2,1.5,3.9,2.7,5,1.2,1.1,2.8,1.7,4.8,1.7s3.1-.4,4.4-1.2c1.3-.8,2.7-2.3,4.2-4.3v2.6c-1.4,1.8-2.9,3.1-4.5,3.9-1.5.8-3.4,1.2-5.4,1.2s-5.1-.6-7.3-1.9c-2.1-1.3-3.8-3.1-4.9-5.6-1.2-2.4-1.7-5-1.7-7.7s.6-5.6,1.9-8.2c1.3-2.6,3-4.6,5.2-6,2.2-1.4,4.5-2.1,6.9-2.1s3.7.5,5.7,1.4c1.2.5,1.9.8,2.2.8s.8-.2,1.1-.5c.3-.3.5-.9.6-1.7h.7"/>
    <path class="st3" d="M591.9,11.2v8.2h-.7c-.4-1.9-.9-3.2-1.3-4-.5-.8-1.2-1.5-2-2-.5-.3-1.3-.4-2.5-.4h-1.9v23.3c0,1.5,0,2.5.2,2.9.1.4.4.7.8,1,.4.3,1,.4,1.7.4h.8v.8h-13.3v-.8h.8c.7,0,1.3-.1,1.8-.5.3-.2.6-.6.8-1.1.1-.4.2-1.3.2-2.8V12.9h-1.9c-1.7,0-3,.4-3.8,1.3-1.1,1.2-1.8,2.9-2.1,5.1h-.7v-8.2h23"/>
  </g>
  <g>
    <rect class="st4" x="-1.5" y="25.8" width="46.1" height="6.6" transform="translate(-14.2 23.7) rotate(-45)"/>
    <rect class="st6" x="7.8" y="35.1" width="46.1" height="6.6" transform="translate(-18.1 33) rotate(-45)"/>
    <rect class="st5" x="17.1" y="44.4" width="46.1" height="6.6" transform="translate(-22 42.3) rotate(-45)"/>
    <rect class="st0" x="26.4" y="53.7" width="46.1" height="6.6" transform="translate(-25.8 51.6) rotate(-45)"/>
  </g>
  <g>
    <path class="st1" d="M216.8,56.5h-3.5v1.9h0c0,.1,1.4.1,1.4.1v1.4h2.1v-3.5Z"/>
    <path class="st1" d="M97.9,72.4h-7.6l-1.4,3.8h-2.4l6.3-16.9h2.6l6.3,16.9h-2.4l-1.4-3.8ZM97.2,70.6l-3.2-8.6-3.2,8.6h6.3Z"/>
    <path class="st1" d="M115.2,64.1c1,1,1.6,2.4,1.6,4.3v7.9h-2.3v-7.6c0-1.3-.3-2.4-1-3.1-.7-.7-1.6-1.1-2.8-1.1s-2.2.4-2.9,1.1c-.7.7-1.1,1.8-1.1,3.2v7.4h-2.3v-13.4h2.3v1.9c.5-.7,1.1-1.2,1.8-1.6.8-.4,1.6-.6,2.6-.6,1.7,0,3,.5,4.1,1.5Z"/>
    <path class="st1" d="M268,63.2c.8-1.3,1.8-2.4,3.1-3.1,1.3-.7,2.8-1.1,4.4-1.1s3.6.4,5,1.3c1.4.9,2.5,2.2,3.1,3.8h-2.7c-.5-1-1.2-1.8-2.1-2.4-.9-.6-2-.8-3.3-.8s-2.3.3-3.3.8-1.7,1.3-2.3,2.4-.8,2.2-.8,3.6.3,2.5.8,3.6c.6,1,1.3,1.8,2.3,2.4s2.1.8,3.3.8,2.4-.3,3.3-.8c.9-.5,1.6-1.3,2.1-2.4h2.7c-.7,1.6-1.7,2.9-3.1,3.8-1.4.9-3.1,1.3-5,1.3s-3.1-.4-4.4-1.1c-1.3-.7-2.4-1.8-3.1-3.1-.8-1.3-1.2-2.8-1.2-4.5s.4-3.2,1.2-4.5Z"/>
    <path class="st1" d="M289.5,75.6c-1-.6-1.9-1.4-2.5-2.4-.6-1-.9-2.3-.9-3.6s.3-2.6.9-3.6c.6-1,1.4-1.9,2.5-2.4,1.1-.6,2.2-.8,3.5-.8s2.5.3,3.5.8c1.1.6,1.9,1.4,2.5,2.4.6,1,.9,2.3.9,3.6s-.3,2.6-.9,3.6c-.6,1-1.5,1.9-2.5,2.4-1.1.6-2.3.9-3.6.9s-2.5-.3-3.5-.9ZM295.3,73.9c.7-.4,1.3-.9,1.7-1.7.4-.7.7-1.7.7-2.7s-.2-2-.7-2.7c-.4-.7-1-1.3-1.7-1.7-.7-.4-1.5-.5-2.3-.5s-1.6.2-2.3.5c-.7.4-1.2.9-1.7,1.7-.4.7-.6,1.7-.6,2.7s.2,2,.6,2.8c.4.7,1,1.3,1.6,1.7.7.4,1.4.5,2.3.5s1.6-.2,2.3-.6Z"/>
    <path class="st1" d="M322.4,63.3c.8.4,1.5,1.1,2,1.9.5.9.7,1.9.7,3.1v7.9h-2.3v-7.6c0-1.3-.3-2.4-1-3.1-.7-.7-1.6-1.1-2.7-1.1s-2.1.4-2.8,1.1c-.7.7-1.1,1.8-1.1,3.2v7.4h-2.3v-7.6c0-1.3-.3-2.4-1-3.1-.7-.7-1.6-1.1-2.7-1.1s-2.1.4-2.8,1.1c-.7.7-1.1,1.8-1.1,3.2v7.4h-2.3v-13.4h2.3v1.9c.5-.7,1.1-1.2,1.8-1.6.8-.4,1.6-.6,2.5-.6s2.2.3,3.1.8c.9.5,1.5,1.2,2,2.2.4-.9,1-1.7,1.9-2.2.9-.5,1.9-.8,3-.8s2,.2,2.9.6Z"/>
    <path class="st1" d="M333.1,63.4c.9-.5,1.9-.8,3.1-.8s2.3.3,3.3.9c1,.6,1.8,1.4,2.3,2.4.6,1,.9,2.2.9,3.6s-.3,2.6-.9,3.6c-.6,1.1-1.3,1.9-2.3,2.5s-2.1.9-3.3.9-2.2-.3-3.1-.8-1.6-1.2-2-1.9v8.8h-2.3v-19.7h2.3v2.5c.5-.8,1.1-1.4,2-1.9ZM339.8,66.9c-.4-.7-1-1.3-1.7-1.7-.7-.4-1.5-.6-2.3-.6s-1.6.2-2.3.6c-.7.4-1.3,1-1.7,1.7s-.6,1.6-.6,2.6.2,1.9.6,2.6,1,1.3,1.7,1.7c.7.4,1.5.6,2.3.6s1.6-.2,2.3-.6c.7-.4,1.3-1,1.7-1.7s.6-1.6.6-2.7-.2-1.9-.6-2.6Z"/>
    <path class="st1" d="M345.8,65.9c.6-1,1.3-1.8,2.3-2.4,1-.6,2.1-.9,3.3-.9s2.2.3,3.1.8,1.5,1.1,2,1.9v-2.4h2.3v13.4h-2.3v-2.5c-.5.8-1.1,1.4-2,1.9s-1.9.8-3.1.8-2.3-.3-3.3-.9c-1-.6-1.8-1.4-2.3-2.5-.6-1.1-.9-2.3-.9-3.6s.3-2.6.9-3.6ZM355.9,66.9c-.4-.7-1-1.3-1.7-1.7-.7-.4-1.5-.6-2.3-.6s-1.6.2-2.3.6c-.7.4-1.3,1-1.7,1.7-.4.7-.6,1.6-.6,2.6s.2,1.9.6,2.7c.4.8,1,1.3,1.7,1.7.7.4,1.5.6,2.3.6s1.6-.2,2.3-.6c.7-.4,1.3-1,1.7-1.7.4-.8.6-1.6.6-2.6s-.2-1.9-.6-2.6Z"/>
    <path class="st1" d="M373.4,64.1c1,1,1.6,2.4,1.6,4.3v7.9h-2.3v-7.6c0-1.3-.3-2.4-1-3.1-.7-.7-1.6-1.1-2.8-1.1s-2.2.4-2.9,1.1c-.7.7-1.1,1.8-1.1,3.2v7.4h-2.3v-13.4h2.3v1.9c.5-.7,1.1-1.2,1.8-1.6.8-.4,1.6-.6,2.6-.6,1.7,0,3,.5,4.1,1.5Z"/>
    <path class="st1" d="M390.5,62.9l-8.3,19.7h-2.4l2.7-6.4-5.5-13.2h2.5l4.3,10.8,4.3-10.8h2.4Z"/>
    <path class="st1" d="M147.4,65.7c0,.4.3.7.7.9.5.2,1.1.4,1.8.6.7.2,1.4.4,2.1.7.7.3,1.3.7,1.8,1.4.5.6.7,1.4.7,2.4,0,1.4-.5,2.6-1.6,3.3-1.1.8-2.4,1.2-4.1,1.2-2.9,0-4.9-1.1-5.9-3.3l3.2-1.8c.4,1.2,1.3,1.8,2.8,1.8s1.9-.4,1.9-1.2-.3-.7-.7-.9c-.5-.2-1.1-.4-1.8-.6-.7-.2-1.4-.4-2.1-.7-.7-.3-1.3-.7-1.8-1.3-.5-.6-.7-1.4-.7-2.3,0-1.4.5-2.5,1.5-3.3,1-.8,2.3-1.2,3.8-1.2s2.2.3,3.1.8c.9.5,1.7,1.3,2.2,2.2l-3.1,1.7c-.5-1-1.2-1.4-2.3-1.4s-.9.1-1.2.3-.5.5-.5.8h0s0,0,0,0Z"/>
    <path class="st1" d="M163.5,76.2c-2.1,0-3.9-.7-5.3-2.1-1.4-1.4-2.1-3.2-2.1-5.3s.7-3.9,2.1-5.3c1.4-1.4,3.2-2.1,5.3-2.1s2.6.3,3.8,1,2,1.5,2.6,2.6l-3.1,1.8c-.3-.6-.7-1-1.3-1.4-.6-.3-1.2-.5-1.9-.5-1.1,0-2,.4-2.7,1.1-.7.7-1.1,1.6-1.1,2.8s.4,2,1.1,2.7c.7.7,1.6,1.1,2.7,1.1s1.4-.2,2-.5,1-.8,1.3-1.4l3.2,1.8c-.6,1.1-1.5,2-2.6,2.7-1.1.7-2.4,1-3.8,1h0s0,0,0,0Z"/>
    <path class="st1" d="M174.6,70.2c.5,1.8,1.8,2.6,4,2.6s2.4-.5,3.2-1.4l2.9,1.7c-1.4,2-3.4,3-6.2,3s-4.2-.7-5.6-2.1c-1.4-1.4-2.1-3.2-2.1-5.3s.7-3.9,2.1-5.3c1.4-1.4,3.2-2.1,5.4-2.1s3.8.7,5.1,2.1c1.3,1.4,2,3.2,2,5.3s0,1-.1,1.5h-10.6,0s0,0,0,0ZM174.5,67.4h7.2c-.2-1-.6-1.7-1.3-2.1-.6-.5-1.4-.7-2.2-.7s-1.8.3-2.4.7c-.6.5-1.1,1.2-1.3,2.1h0s0,0,0,0Z"/>
    <path class="st1" d="M195.8,61.3c1.6,0,2.9.5,3.9,1.6,1,1.1,1.5,2.5,1.5,4.4v8.9h-3.7v-8.4c0-1-.3-1.7-.8-2.2-.5-.5-1.2-.8-2.1-.8s-1.7.3-2.3.9c-.6.6-.9,1.5-.9,2.7v7.8h-3.7v-14.4h3.7v1.6c.9-1.3,2.4-2,4.3-2h0Z"/>
    <path class="st1" d="M210.7,65v-3.6h-3.3v-3.8l-3.8,1.2v12.5c0,2,.5,3.4,1.6,4.2,1.1.8,2.9,1,5.5.7v-3.4c-.7,0-1.3,0-1.8,0-.5,0-.9-.2-1.1-.4-.3-.2-.4-.6-.4-1.1v-6.3h3.3,0Z"/>
    <path class="st1" d="M229.3,61.3h3.7v14.9h-3.7v-2c-.9,1.3-2.4,2-4.3,2s-2.9-.5-3.9-1.6c-1-1.1-1.6-2.5-1.6-4.4v-8.9h3.7v8.4c0,1,.3,1.7.8,2.2.5.5,1.2.8,2.1.8s1.7-.3,2.3-.9c.6-.6.9-1.5.9-2.7v-7.8h0Z"/>
    <path class="st1" d="M251.8,61.3c1.7,0,3,.5,4,1.6,1,1.1,1.5,2.5,1.5,4.3v8.9h-3.7v-8.6c0-.9-.2-1.5-.6-2-.4-.5-1-.7-1.8-.7s-1.5.3-2,.8c-.5.6-.7,1.4-.7,2.4v8.1h-3.7v-8.6c0-.9-.2-1.5-.6-2-.4-.5-1-.7-1.8-.7s-1.5.3-2,.8c-.5.6-.7,1.4-.7,2.4v8.1h-3.7v-14.4h3.7v1.5c.9-1.3,2.2-1.9,4-1.9s3.1.7,3.9,2.1c1-1.4,2.4-2.1,4.3-2.1h0Z"/>
    <path class="st1" d="M213.1,76.2v-14.9h3.8v14.9h-3.8Z"/>
    <polygon class="st2" points="135.1 61.3 135.1 65 137.5 65 137.5 67.4 141.2 67.4 141.2 61.3 135.1 61.3"/>
    <path class="st1" d="M137.3,70.2c-.2.5-.5,1-.9,1.3-.7.7-1.7,1.1-2.8,1.1s-2.1-.4-2.8-1.1-1.1-1.7-1.1-2.9.4-2.1,1.1-2.9c.4-.4.9-.7,1.5-.9v-3.6h-.2c-1.5.2-2.8.9-4,2.1-1.3,1.4-2,3.2-2,5.3s.7,3.8,2,5.3c1.3,1.4,3,2.2,4.8,2.2s3.5-.7,4.6-2.1v2.1h3.6v-5.9h-3.9Z"/>
  </g>
</svg>