<?xml version="1.0" encoding="UTF-8"?>
<svg id="Layer_1" xmlns="http://www.w3.org/2000/svg" version="1.1" viewBox="0 0 640 93">
  <!-- Generator: Adobe Illustrator 29.5.1, SVG Export Plug-In . SVG Version: 2.1.0 Build 141)  -->
  <defs>
    <style>
      .st0 {
        fill: #088a30;
      }

      .st1 {
        fill: #1a171b;
      }

      .st2 {
        fill: #fdcc19;
      }

      .st3 {
        fill: #e1001a;
      }

      .st4 {
        fill: #0f1514;
      }

      .st5 {
        fill: #f61;
      }

      .st6 {
        fill: #646eac;
      }
    </style>
  </defs>
  <g>
    <g>
      <path class="st1" d="M85.1,49v-.7h.9c.7,0,1.4,0,1.8-.4s.7-.7.9-1.2v-22.8c0-1.6,0-2.5-.2-3,0-.4-.4-.7-.9-1.1-.4-.4-1.1-.5-1.8-.5h-.9v-.7h11.7c3.2,0,5.7.5,7.4,1.4,2.3,1.2,4.1,3,5.3,5.5,1.2,2.5,1.8,5.1,1.8,8.3s-.4,4.1-.9,5.8-1.4,3.4-2.3,4.4c-.9,1.2-1.9,2.1-3.2,2.8s-2.7,1.2-4.4,1.6c-.7,0-1.9.2-3.7.2h-11.7M95,20.4v26c0,.4.4.5.5.7.4.2.9.4,1.4.4,2.1,0,3.7-.9,4.9-2.5,1.6-2.3,2.3-5.8,2.3-10.6s-.5-7.1-1.6-9.4c-.9-1.8-1.9-3-3.2-3.7-.9-.5-2.5-.7-4.6-.7"/>
      <path class="st1" d="M121.7,20.4v12.4h.5c1.6,0,2.8-.5,3.7-1.8.7-1.2,1.2-3,1.4-5.3h.7v15.9h-.7c0-1.8-.5-3.2-1.1-4.2-.5-1.1-1.1-1.8-1.8-2.3-.7-.4-1.6-.5-2.8-.5v8.5c0,1.6,0,2.7.2,3,0,.4.4.7.7.9.4.2.9.4,1.6.4h1.6c2.5,0,4.4-.7,5.8-1.9s2.5-3.4,3.2-6h.7l-1.2,9.7h-22.5v-.7h.9c.7,0,1.4,0,1.8-.5.4-.2.5-.5.7-1.1,0-.4.2-1.2.2-2.8v-22.6c0-.5-.4-.9-.7-1.2-.5-.4-1.2-.7-1.9-.7h-.9v-.7h21.7v9h-.7c-.4-2.1-.9-3.7-1.6-4.8-.7-.9-1.6-1.6-2.8-2.1-.7-.4-2.1-.4-4.1-.4h-2.7"/>
      <path class="st1" d="M605.3,20.4v12.4h.5c1.6,0,2.8-.5,3.7-1.8.7-1.2,1.2-3,1.4-5.3h.7v15.9h-.7c0-1.8-.5-3.2-1.1-4.2-.5-1.1-1.1-1.8-1.8-2.3-.7-.4-1.6-.5-2.8-.5v8.5c0,1.6,0,2.7.2,3,0,.4.4.7.7.9.4.2.9.4,1.6.4h1.6c2.5,0,4.4-.7,5.8-1.9,1.4-1.2,2.5-3.4,3.2-6h.7l-1.2,9.7h-22.5v-.7h.9c.7,0,1.4,0,1.8-.5.4-.2.5-.5.7-1.1,0-.4.2-1.2.2-2.8v-22.6c0-.5-.4-.9-.7-1.2-.5-.4-1.2-.7-1.9-.7h-.9v-.7h21.7v9h-.7c-.4-2.1-.9-3.7-1.6-4.8-.7-.9-1.6-1.6-2.8-2.1-.7-.4-2.1-.4-4.1-.4h-2.7"/>
      <path class="st1" d="M159.3,18.6l-15.4,28.6h4.9c2.3,0,3.9,0,4.9-.5,1.6-.5,2.8-1.6,3.9-3,1.1-1.4,1.9-3.4,2.3-5.8h.7l-1.1,11h-23.7l15.4-28.8h-6.9c-.9.2-1.8.5-2.5,1.2-.7.5-1.4,1.4-1.9,2.3-.5.9-.9,2.1-1.2,3.7h-.7l.7-8.8h20.5"/>
      <path class="st1" d="M177.2,40.2h-9l-1.1,3c-.4,1.1-.5,1.8-.5,2.5s.4,1.6.9,1.9c.4.2,1.2.4,2.5.5v.7h-8.7v-.7c.9,0,1.8-.7,2.3-1.4s1.4-2.3,2.3-4.6l9.2-24.2h.4l9.4,24.9c.9,2.5,1.6,3.9,2.1,4.6.4.5,1.1.7,1.8.9v.7h-12.6v-.7h.5c1.1,0,1.8,0,2.1-.5.4-.2.4-.5.4-1.1v-.9s-.2-.7-.5-1.8l-1.4-3.9M176.6,38.6l-3.9-10.4-4.1,10.4h7.8"/>
      <path class="st1" d="M198.9,18.6l12.7,18.7v-12.9c0-1.8-.2-3-.7-3.7-.5-.9-1.6-1.2-3-1.2v-.7h8.5v.7c-1.1,0-1.8.4-2.1.7s-.7.7-.9,1.2-.4,1.6-.4,3v25.3h-.7l-17.5-25.3v19.3c0,1.8.4,3,1.1,3.5s1.4.9,2.3.9h.7v.7h-9.2v-.7c1.4,0,2.5-.4,3-1.1.5-.7.9-1.8.9-3.4v-21.4l-.5-.9c-.5-.9-1.1-1.4-1.4-1.8-.4-.4-1.1-.4-1.8-.5v-.7h9.2"/>
      <path class="st1" d="M249.1,17.9v10.1c.2,0-.5,0-.5,0-.4-2.5-1.2-4.6-2.8-6.2-1.4-1.6-3-2.3-4.8-2.3s-2.3.4-3.2,1.2c-.7.9-1.1,1.8-1.1,2.8s0,1.2.4,1.8c.4.7.9,1.4,1.8,2.1.5.5,1.9,1.4,4.1,2.7,3,1.8,5.1,3.4,6.2,4.9s1.6,3.4,1.6,5.3-.9,4.8-2.5,6.5c-1.8,1.8-3.9,2.7-6.5,2.7s-1.6,0-2.3-.4c-.7-.2-1.6-.5-2.8-1.1-.5-.4-1.1-.5-1.6-.5s-.7,0-1.1.5c-.4.4-.7.7-.9,1.4h-.7v-11.5h.7c.5,3.2,1.6,5.7,3.4,7.4,1.6,1.8,3.4,2.5,5.1,2.5s2.7-.5,3.4-1.4c.9-.9,1.2-1.9,1.2-3.2s0-1.4-.5-2.1c-.4-.7-.9-1.2-1.4-1.9-.7-.5-1.8-1.4-3.5-2.3-2.3-1.4-4.1-2.5-5.1-3.5-1.1-.9-1.8-1.9-2.3-3.2-.5-1.2-.9-2.5-.9-3.9,0-2.5.7-4.4,2.3-6.2,1.6-1.8,3.4-2.5,5.8-2.5s1.6,0,2.5.4c.5.2,1.4.5,2.1,1.1.9.5,1.4.7,1.8.7s.5,0,.7-.4c.2-.2.4-.9.5-1.8h.5"/>
      <path class="st1" d="M451,17.9v10.1c.2,0-.5,0-.5,0-.4-2.5-1.2-4.6-2.8-6.2-1.4-1.6-3-2.3-4.8-2.3s-2.3.4-3.2,1.2c-.7.9-1.2,1.8-1.2,2.8s0,1.2.4,1.8c.4.7.9,1.4,1.8,2.1.5.5,1.9,1.4,4.1,2.7,3,1.8,5.1,3.4,6.2,4.9,1.1,1.6,1.6,3.4,1.6,5.3s-.9,4.8-2.5,6.5c-1.8,1.8-3.9,2.7-6.5,2.7s-1.6,0-2.3-.4c-.7-.2-1.6-.5-2.8-1.1-.5-.4-1.1-.5-1.6-.5s-.7,0-1.1.5c-.4.4-.7.7-.9,1.4h-.7v-11.5h.7c.5,3.2,1.6,5.7,3.4,7.4,1.6,1.8,3.4,2.5,5.1,2.5s2.7-.5,3.4-1.4c.9-.9,1.2-1.9,1.2-3.2s0-1.4-.5-2.1c-.4-.7-.9-1.2-1.4-1.9-.7-.5-1.8-1.4-3.5-2.3-2.3-1.4-4.1-2.5-5.1-3.5-1.1-.9-1.8-1.9-2.5-3.2-.5-1.2-.9-2.5-.9-3.9,0-2.5.7-4.4,2.3-6.2,1.6-1.8,3.4-2.5,5.8-2.5s1.6,0,2.5.4c.5.2,1.4.5,2.1,1.1.9.5,1.4.7,1.8.7s.5,0,.7-.4c.2-.2.4-.9.5-1.8h.5"/>
      <path class="st1" d="M471.7,17.9v10.1c.2,0-.5,0-.5,0-.4-2.5-1.2-4.6-2.8-6.2-1.4-1.6-3-2.3-4.8-2.3s-2.3.4-3.2,1.2c-.7.9-1.1,1.8-1.1,2.8s0,1.2.4,1.8c.4.7.9,1.4,1.8,2.1.5.5,1.9,1.4,4.1,2.7,3,1.8,5.1,3.4,6.2,4.9s1.6,3.4,1.6,5.3-.9,4.8-2.5,6.5c-1.8,1.8-3.9,2.7-6.5,2.7s-1.6,0-2.3-.4c-.7-.2-1.6-.5-2.8-1.1-.5-.4-1.1-.5-1.6-.5s-.7,0-1.1.5c-.4.4-.7.7-.9,1.4h-.7v-11.5h.7c.5,3.2,1.6,5.7,3.4,7.4,1.6,1.8,3.4,2.5,5.1,2.5s2.7-.5,3.4-1.4c.9-.9,1.2-1.9,1.2-3.2s0-1.4-.5-2.1c-.4-.7-.9-1.2-1.4-1.9-.7-.5-1.8-1.4-3.5-2.3-2.3-1.4-4.1-2.5-5.1-3.5-1.1-.9-1.8-1.9-2.3-3.2-.5-1.2-.9-2.5-.9-3.9,0-2.5.7-4.4,2.3-6.2s3.4-2.5,5.8-2.5,1.6,0,2.5.4c.5.2,1.4.5,2.1,1.1.9.5,1.4.7,1.8.7s.5,0,.7-.4c.2-.2.4-.9.5-1.8h.5"/>
      <path class="st1" d="M637.5,17.9v10.1c.2,0-.5,0-.5,0-.4-2.5-1.2-4.6-2.8-6.2-1.4-1.6-3-2.3-4.8-2.3s-2.3.4-3.2,1.2c-.7.9-1.2,1.8-1.2,2.8s0,1.2.4,1.8c.4.7.9,1.4,1.8,2.1.5.5,1.9,1.4,4.1,2.7,3,1.8,5.1,3.4,6.2,4.9,1.1,1.6,1.6,3.4,1.6,5.3s-.9,4.8-2.5,6.5c-1.8,1.8-3.9,2.7-6.5,2.7s-1.6,0-2.3-.4c-.7-.2-1.6-.5-2.8-1.1-.5-.4-1.1-.5-1.6-.5s-.7,0-1.1.5c-.4.4-.7.7-.9,1.4h-.7v-11.5h.7c.5,3.2,1.6,5.7,3.4,7.4,1.6,1.8,3.4,2.5,5.1,2.5s2.7-.5,3.4-1.4c.9-.9,1.2-1.9,1.2-3.2s0-1.4-.5-2.1c-.4-.7-.9-1.2-1.4-1.9-.7-.5-1.8-1.4-3.5-2.3-2.3-1.4-4.1-2.5-5.1-3.5-1.1-.9-1.8-1.9-2.3-3.2-.5-1.2-.9-2.5-.9-3.9,0-2.5.7-4.4,2.3-6.2,1.6-1.8,3.4-2.5,5.8-2.5s1.6,0,2.5.4c.5.2,1.4.5,2.1,1.1.9.5,1.4.7,1.8.7s.5,0,.7-.4c.2-.2.4-.9.5-1.8h.5"/>
      <path class="st1" d="M261.8,34.3v9.4c0,1.6,0,2.7.2,3,0,.4.4.7.9,1.1.4.4,1.1.5,1.8.5h.9v.7h-13.6v-.7h.9c.7,0,1.4,0,1.8-.5.4-.2.5-.5.7-1.1,0-.4.2-1.2.2-2.8v-20c0-1.6,0-2.5-.2-3,0-.4-.4-.7-.9-1.1-.4-.4-1.1-.5-1.8-.5h-.9v-.7h13.6v.7h-.9c-.7,0-1.4,0-1.8.5-.4.2-.5.5-.7,1.1,0,.4-.2,1.4-.2,2.8v8.7h9.2v-8.7c0-1.6,0-2.5-.2-3,0-.4-.4-.7-.9-1.1-.4-.4-1.1-.5-1.8-.5h-.9v-.7h13.6v.7h-.9c-.7,0-1.4,0-1.8.5-.4.2-.5.5-.7,1.1,0,.4-.2,1.4-.2,2.8v20c0,1.6,0,2.7.2,3,0,.4.4.7.9,1.1.4.4,1.1.5,1.8.5h.9v.7h-13.6v-.7h.9c.7,0,1.4,0,1.8-.5.4-.2.5-.5.7-1.1,0-.4.2-1.2.2-2.8v-9.4h-9.2"/>
      <path class="st1" d="M296.1,48.1v.7h-13.6v-.7h.9c.7,0,1.4,0,1.8-.5.4-.2.5-.5.7-1.1,0-.4.2-1.2.2-2.8v-20c0-1.6,0-2.5-.2-3,0-.4-.4-.7-.9-1.1-.4-.4-1.1-.5-1.8-.5h-.9v-.7h13.6v.7h-.9c-.7,0-1.4,0-1.8.5-.4.2-.5.5-.7,1.1,0,.4-.2,1.4-.2,2.8v20c0,1.6,0,2.7.2,3,0,.4.4.7.9,1.1.4.4,1.1.5,1.8.5h.9"/>
      <path class="st1" d="M544.7,48.1v.7h-13.6v-.7h.9c.7,0,1.4,0,1.8-.5.4-.2.5-.5.7-1.1,0-.4.2-1.2.2-2.8v-20c0-1.6,0-2.5-.2-3,0-.4-.4-.7-.9-1.1-.4-.4-1.1-.5-1.8-.5h-.9v-.7h13.6v.7h-.9c-.7,0-1.4,0-1.8.5-.4.2-.5.5-.7,1.1,0,.4-.2,1.4-.2,2.8v20c0,1.6,0,2.7.2,3,0,.4.4.7.9,1.1.4.4,1.1.5,1.8.5h.9"/>
      <path class="st1" d="M307.3,35v8.7c0,1.6,0,2.7.2,3.2,0,.4.5.7.9,1.1.4.2,1.2.4,2.5.4v.7h-13.4v-.7c1.2,0,2.1,0,2.5-.4s.7-.5.9-1.1c0-.4.2-1.4.2-3v-19.8c0-1.6,0-2.7-.2-3.2,0-.4-.5-.7-.9-1.1-.5-.2-1.2-.4-2.5-.4v-.7h12c3.2,0,5.5.2,6.9.7,1.4.5,2.7,1.4,3.5,2.8s1.4,3,1.4,4.8-.7,4.1-2.1,5.5c-.9.9-2.1,1.6-3.7,2.1l6.2,10.3c.9,1.4,1.4,2.1,1.8,2.5.5.5,1.1.7,1.8.7v.9h-8.1l-8.3-13.8h-1.8M307.3,20.4v13.1h1.1c1.8,0,3.2-.2,4.1-.5.9-.4,1.6-1.1,2.1-1.9s.7-2.3.7-3.9c0-2.3-.5-3.9-1.4-5.1-.9-1.1-2.5-1.6-4.4-1.6h-2.1"/>
      <path class="st1" d="M341.7,40.2h-9l-1.1,3c-.4,1.1-.5,1.8-.5,2.5s.4,1.6.9,1.9c.4.2,1.2.4,2.5.5v.7h-8.7v-.7c.9,0,1.8-.7,2.3-1.4s1.4-2.3,2.3-4.6l9.2-24.2h.4l9.4,24.9c.9,2.5,1.6,3.9,2.1,4.6.4.5,1.1.7,1.8.9v.7h-12.6v-.7h.5c1.1,0,1.8,0,2.1-.5.4-.2.4-.5.4-1.1v-.9s-.2-.7-.5-1.8l-1.4-3.9M341.2,38.6l-3.9-10.4-4.1,10.4h7.8"/>
      <path class="st1" d="M421.3,40.2h-9l-1.1,3c-.4,1.1-.5,1.8-.5,2.5s.4,1.6.9,1.9c.4.2,1.2.4,2.5.5v.7h-8.7v-.7c.9,0,1.8-.7,2.3-1.4.5-.7,1.4-2.3,2.3-4.6l9.2-24.2h.4l9.4,24.9c.9,2.5,1.6,3.9,2.1,4.6.4.5,1.1.7,1.8.9v.7h-12.6v-.7h.5c1.1,0,1.8,0,2.1-.5.4-.2.4-.5.4-1.1v-.9s-.2-.7-.5-1.8l-1.4-3.9M420.8,38.6l-3.9-10.4-4.1,10.4h7.8"/>
      <path class="st1" d="M562.2,40.2h-9l-1.1,3c-.4,1.1-.5,1.8-.5,2.5s.4,1.6.9,1.9c.4.2,1.2.4,2.5.5v.7h-8.7v-.7c.9,0,1.8-.7,2.3-1.4.5-.7,1.4-2.3,2.3-4.6l9.2-24.2h.4l9.4,24.9c.9,2.5,1.6,3.9,2.1,4.6.4.5,1.1.7,1.8.9v.7h-12.6v-.7h.5c1.1,0,1.8,0,2.1-.5.4-.2.4-.5.4-1.1v-.9s-.2-.7-.5-1.8l-1.4-3.9M561.6,38.6l-3.9-10.4-4.1,10.4h7.8"/>
      <path class="st1" d="M385.2,31.3h7.6v.9c-.9,0-1.6.5-1.9.9-.5.5-1.1,1.6-1.9,3.2-.7,1.6-1.9,3.5-3.4,5.7,1.2,1.2,2.3,2.3,3,2.7.5.4,1.1.5,1.6.5.9,0,1.8-.7,2.5-2.1l.7.5c-1.1,2.3-2.1,4.1-3.2,4.9-.9.7-1.8,1.1-3,1.1s-1.9-.2-2.7-.7c-.9-.5-1.9-1.4-3.2-2.7-1.6,1.2-3,2.1-4.2,2.7-1.4.5-2.8.9-4.2.9-2.3,0-4.2-.7-5.5-2.3-1.4-1.4-2.1-3.2-2.1-5.3s.7-4.1,1.9-5.7c1.2-1.6,3.2-3,5.7-4.2-.4-.9-.5-1.9-.7-2.8,0-.9-.2-1.8-.2-2.7,0-2.3.7-4.2,2.1-5.8,1.4-1.6,3.2-2.3,5.3-2.3s3.2.5,4.1,1.6c1.1,1.1,1.6,2.1,1.6,3.5s-.5,3-1.6,4.2c-1.1,1.2-2.7,2.3-4.9,3.2,1.4,2.8,3.4,6,6,9.4,1.8-2.5,2.7-4.4,2.7-6.2s0-1.1-.5-1.6c-.4-.4-.9-.7-1.6-.7v-.9M373.6,33.6c-1.1.5-1.8,1.1-2.1,1.6-.5.9-.9,1.8-.9,2.7s.4,2.7,1.1,4.1c.7,1.4,1.4,2.3,2.5,3.2.9.7,1.9,1.1,2.8,1.1s1.1,0,1.6-.4c.5-.2,1.2-.5,1.9-1.1-3-3.5-5.1-7.2-6.7-11.1M378,30.1c1.2-.5,2.1-1.2,2.7-1.8.4-.7.7-1.4.7-2.3,0-1.6-.4-3-1.1-4.1-.5-.7-1.1-1.1-1.8-1.1s-1.1.4-1.4.9c-.4.5-.5,1.2-.5,2.1s0,1.4.4,2.3c.2.9.7,2.1,1.4,4.1"/>
      <path class="st1" d="M489,18.1c4.1-.2,7.4,1.2,9.9,4.2,2.7,3,3.9,6.7,3.9,11.3s-.9,7.2-2.8,10.3c-2.5,3.9-6.2,5.8-10.8,5.8s-8.1-1.8-10.8-5.5c-1.9-3-3-6.4-3-10.4s1.2-8.3,3.9-11.3c2.7-3,5.8-4.4,9.5-4.2M489.2,19.5c-2.3,0-4.1,1.4-5.3,4.2-1.1,2.3-1.4,5.7-1.4,10.1s.7,9,2.3,11.5c1.1,1.8,2.7,2.7,4.4,2.7s2.5-.4,3.2-1.1c1.1-.9,1.9-2.5,2.7-4.6.5-2.1.9-4.8.9-8.1s-.4-7.1-.9-9c-.7-1.9-1.4-3.4-2.5-4.2s-2.1-1.2-3.4-1.2"/>
      <path class="st1" d="M529.1,17.9v10.6h-.7c-.5-2.8-1.6-4.9-3.2-6.4-1.6-1.4-3.2-2.3-5.1-2.3s-3,.5-4.4,1.6c-1.4,1.1-2.3,2.5-3,4.2-.9,2.3-1.2,4.8-1.2,7.6s.4,5.1.9,7.4c.5,2.3,1.4,3.9,2.7,5.1,1.2,1.1,2.8,1.8,4.8,1.8s3.2-.4,4.4-1.2c1.4-.9,2.8-2.3,4.2-4.2v2.7c-1.4,1.8-3,3-4.6,3.9-1.6.7-3.4,1.2-5.5,1.2s-5.1-.7-7.2-1.9c-2.1-1.2-3.7-3.2-4.9-5.7-1.2-2.5-1.8-5.1-1.8-7.8s.7-5.7,1.9-8.3c1.2-2.7,3-4.6,5.3-6,2.1-1.4,4.4-2.1,6.9-2.1s3.7.5,5.7,1.4c1.2.5,1.9.9,2.3.9s.7,0,1.1-.5c.4-.4.5-.9.5-1.6h.7"/>
      <path class="st1" d="M593.8,18.6v8.1h-.7c-.4-1.9-.9-3.2-1.4-4.1s-1.2-1.4-1.9-1.9c-.5-.4-1.2-.4-2.5-.4h-1.9v23.5c0,1.6,0,2.5.2,3,0,.4.4.7.9,1.1.4.4,1.1.4,1.8.4h.9v.7h-13.4v-.7h.9c.7,0,1.4,0,1.8-.5.4-.2.5-.5.7-1.1,0-.4.2-1.2.2-2.8v-23.5h-1.9c-1.8,0-3,.4-3.7,1.2-1.1,1.2-1.8,2.8-2.1,5.1h-.7v-8.1h23.2"/>
    </g>
    <g>
      <rect class="st2" x="-3.4" y="15.9" width="46.3" height="6.5" transform="translate(-7.8 19.6) rotate(-45)"/>
      <rect class="st3" x="6" y="25.3" width="46.3" height="6.5" transform="translate(-11.7 29) rotate(-45)"/>
      <rect class="st0" x="15.4" y="34.5" width="46.3" height="6.5" transform="translate(-15.4 38.3) rotate(-45)"/>
      <rect class="st6" x="24.7" y="43.9" width="46.3" height="6.5" transform="translate(-19.3 47.7) rotate(-45)"/>
    </g>
  </g>
  <g>
    <path class="st4" d="M216.6,65.8h-3.5v1.9h1.4v1.4h2.1v-3.5.2Z"/>
    <g>
      <path class="st4" d="M96.7,81.9h-7.6l-1.4,3.9h-2.5l6.4-17h2.7l6.4,17h-2.5s-1.4-3.9-1.4-3.9ZM96.2,80.1l-3.2-8.7-3.2,8.7h6.4Z"/>
      <path class="st4" d="M114.2,73.6c1.1,1.1,1.6,2.5,1.6,4.2v8h-2.3v-7.6c0-1.4-.4-2.3-1.1-3-.7-.7-1.6-1.1-2.8-1.1s-2.1.4-2.8,1.1-1.1,1.8-1.1,3.2v7.4h-2.3v-13.4h2.3v1.9c.5-.7,1.1-1.2,1.8-1.6s1.6-.5,2.7-.5c1.8,0,3,.5,4.1,1.4Z"/>
      <path class="st4" d="M268,72.7c.7-1.4,1.8-2.3,3.2-3.2,1.4-.7,2.8-1.1,4.4-1.1s3.5.5,4.9,1.4,2.5,2.1,3.2,3.9h-2.8c-.5-1.1-1.2-1.8-2.1-2.3s-1.9-.9-3.4-.9-2.3.4-3.4.9-1.8,1.4-2.3,2.3-.9,2.3-.9,3.5.4,2.5.9,3.5,1.2,1.8,2.3,2.3,2.1.9,3.4.9,2.3-.4,3.4-.9c.9-.5,1.6-1.4,2.1-2.3h2.8c-.7,1.6-1.8,2.8-3.2,3.7s-3.2,1.4-4.9,1.4-3.2-.4-4.4-1.1c-1.4-.7-2.5-1.8-3.2-3.2-.7-1.4-1.2-2.8-1.2-4.4s.4-3.2,1.2-4.6Z"/>
      <path class="st4" d="M289.8,85.1c-1.1-.5-1.9-1.4-2.5-2.5-.5-1.1-.9-2.3-.9-3.7s.4-2.7.9-3.7,1.4-1.9,2.5-2.5c1.1-.5,2.3-.9,3.5-.9s2.5.4,3.5.9,1.9,1.4,2.5,2.5c.5,1.1.9,2.3.9,3.7s-.4,2.7-.9,3.7c-.7,1.1-1.4,1.9-2.5,2.5-1.1.5-2.3.9-3.5.9s-2.5-.4-3.5-.9ZM295.6,83.5c.7-.4,1.2-.9,1.8-1.8.5-.7.7-1.6.7-2.8s-.2-1.9-.7-2.8c-.4-.7-1.1-1.2-1.8-1.8-.7-.4-1.4-.5-2.3-.5s-1.6.2-2.3.5c-.7.4-1.2.9-1.6,1.8-.4.7-.7,1.6-.7,2.8s.2,1.9.5,2.8c.4.7.9,1.2,1.6,1.8.7.4,1.4.5,2.3.5s1.6-.2,2.3-.5h.2Z"/>
      <path class="st4" d="M322.8,72.7c.9.4,1.6,1.1,1.9,1.9.5.9.7,1.9.7,3.2v8h-2.3v-7.6c0-1.4-.4-2.3-1.1-3-.7-.7-1.6-1.1-2.8-1.1s-2.1.4-2.8,1.1c-.7.7-1.1,1.8-1.1,3.2v7.4h-2.3v-7.6c0-1.4-.4-2.3-1.1-3-.7-.7-1.6-1.1-2.8-1.1s-2.1.4-2.8,1.1c-.7.7-1.1,1.8-1.1,3.2v7.4h-2.3v-13.4h2.3v1.9c.5-.7,1.1-1.2,1.8-1.6s1.6-.5,2.5-.5,2.1.2,3,.7c.9.5,1.6,1.2,1.9,2.3.4-.9,1.1-1.8,1.9-2.3s1.9-.7,3-.7,2.1.2,2.8.7l.5-.2Z"/>
      <path class="st4" d="M333.6,72.9c.9-.5,1.9-.7,3.2-.7s2.3.4,3.4.9c1.1.5,1.8,1.4,2.3,2.5.5,1.1.9,2.3.9,3.7s-.4,2.7-.9,3.7c-.5,1.1-1.4,1.9-2.3,2.5s-2.1.9-3.4.9-2.3-.2-3.2-.7-1.6-1.2-2.1-1.9v8.8h-2.3v-19.8h2.3v2.5c.5-.7,1.1-1.4,1.9-1.9l.2-.4ZM340.3,76.4c-.4-.7-1.1-1.4-1.8-1.8s-1.4-.5-2.3-.5-1.6.2-2.3.5c-.7.4-1.2,1.1-1.8,1.8s-.7,1.6-.7,2.7.2,1.9.7,2.7,1.1,1.4,1.8,1.8,1.4.5,2.3.5,1.6-.2,2.3-.5c.7-.4,1.2-1.1,1.8-1.8s.7-1.6.7-2.7-.2-1.9-.7-2.7Z"/>
      <path class="st4" d="M346.3,75.3c.5-1.1,1.4-1.8,2.3-2.5,1.1-.5,2.1-.9,3.4-.9s2.3.2,3.2.7,1.6,1.1,1.9,1.9v-2.5h2.3v13.4h-2.3v-2.5c-.5.7-1.1,1.4-1.9,1.9s-1.9.7-3.2.7-2.3-.4-3.4-.9c-1.1-.5-1.8-1.4-2.3-2.5-.5-1.1-.9-2.3-.9-3.7s.4-2.7.9-3.7v.4ZM356.6,76.4c-.4-.7-1.1-1.4-1.8-1.8s-1.4-.5-2.3-.5-1.6.2-2.3.5c-.7.4-1.2.9-1.8,1.8-.4.7-.7,1.6-.7,2.7s.2,1.9.7,2.7c.4.7,1.1,1.4,1.8,1.8s1.4.5,2.3.5,1.6-.2,2.3-.5c.7-.4,1.2-1.1,1.8-1.8.4-.7.7-1.6.7-2.7s-.2-1.9-.7-2.7Z"/>
      <path class="st4" d="M374.3,73.6c1.1,1.1,1.6,2.5,1.6,4.2v8h-2.3v-7.6c0-1.4-.4-2.3-1.1-3-.7-.7-1.6-1.1-2.8-1.1s-2.1.4-2.8,1.1c-.7.7-1.1,1.8-1.1,3.2v7.4h-2.3v-13.4h2.3v1.9c.5-.7,1.1-1.2,1.8-1.6s1.6-.5,2.7-.5c1.8,0,3,.5,4.1,1.4h0Z"/>
      <path class="st4" d="M391.4,72.3l-8.3,19.8h-2.3l2.7-6.5-5.7-13.3h2.5l4.4,11,4.2-11h2.5Z"/>
      <path class="st4" d="M146.8,75.2c0,.4.2.7.7.9s1.1.5,1.8.7c.7.2,1.4.4,2.1.7.7.4,1.4.7,1.8,1.4.5.7.7,1.4.7,2.5s-.5,2.7-1.6,3.4c-1.1.7-2.5,1.2-4.1,1.2-3,0-4.9-1.1-6-3.4l3.2-1.8c.4,1.2,1.4,1.8,2.8,1.8s1.9-.4,1.9-1.2-.2-.7-.7-.9-1.1-.5-1.8-.7c-.7-.2-1.4-.4-2.1-.7-.7-.4-1.4-.7-1.8-1.4-.5-.5-.7-1.4-.7-2.3,0-1.4.5-2.5,1.6-3.4s2.3-1.2,3.9-1.2,2.3.2,3.2.7c.9.5,1.8,1.2,2.3,2.3l-3.2,1.8c-.5-.9-1.2-1.4-2.3-1.4s-.9,0-1.2.4-.5.5-.5.9h0v-.2Z"/>
      <path class="st4" d="M162.8,85.8c-2.1,0-3.9-.7-5.3-2.1s-2.1-3.2-2.1-5.3.7-3.9,2.1-5.3c1.4-1.4,3.2-2.1,5.3-2.1s2.7.4,3.7,1.1c1.1.7,1.9,1.6,2.7,2.7l-3.2,1.8c-.4-.5-.7-1.1-1.2-1.4-.5-.4-1.2-.5-1.9-.5-1.1,0-1.9.4-2.7,1.1-.7.7-1.1,1.6-1.1,2.8s.4,1.9,1.1,2.8c.7.7,1.6,1.1,2.7,1.1s1.4,0,1.9-.5,1.1-.7,1.2-1.4l3.2,1.8c-.7,1.1-1.6,1.9-2.7,2.7s-2.5,1.1-3.7,1.1h0Z"/>
      <path class="st4" d="M174,79.8c.5,1.8,1.8,2.7,4.1,2.7s2.5-.5,3.2-1.4l3,1.8c-1.4,1.9-3.5,3-6.2,3s-4.2-.7-5.7-2.1c-1.4-1.4-2.1-3.2-2.1-5.3s.7-3.9,2.1-5.3c1.4-1.4,3.2-2.1,5.5-2.1s3.9.7,5.1,2.1c1.4,1.4,1.9,3.2,1.9,5.3s0,1.1,0,1.4h-11ZM174,76.9h7.2c-.2-.9-.7-1.8-1.2-2.1-.7-.5-1.4-.7-2.3-.7s-1.8.2-2.5.7c-.7.5-1.1,1.2-1.2,2.1h0Z"/>
      <path class="st4" d="M195.4,70.7c1.6,0,2.8.5,3.9,1.6,1.1,1.1,1.6,2.5,1.6,4.4v8.8h-3.7v-8.5c0-1.1-.2-1.8-.7-2.3s-1.2-.7-2.1-.7-1.8.4-2.3.9-.9,1.4-.9,2.7v7.8h-3.7v-14.5h3.7v1.6c.9-1.4,2.3-1.9,4.4-1.9h0l-.2.2Z"/>
      <path class="st4" d="M210.4,74.5v-3.7h-3.4v-3.9l-3.7,1.2v12.6c0,1.9.5,3.4,1.6,4.2,1.1.7,2.8,1.1,5.5.7v-3.4h-1.8c-.5,0-.9,0-1.1-.4-.2-.2-.4-.5-.4-1.1v-6.4h3.4-.2Z"/>
      <path class="st4" d="M229.1,70.7h3.7v15h-3.7v-2.1c-.9,1.4-2.3,2.1-4.4,2.1s-3-.5-3.9-1.6c-1.1-1.1-1.6-2.5-1.6-4.4v-9h3.7v8.5c0,1.1.2,1.8.7,2.3s1.2.7,2.1.7,1.8-.4,2.3-.9c.5-.5.9-1.4.9-2.7v-7.8h0l.2-.2Z"/>
      <path class="st4" d="M251.8,70.7c1.6,0,3,.5,4.1,1.6,1.1,1.1,1.4,2.5,1.4,4.4v9h-3.7v-8.7c0-.9-.2-1.6-.7-1.9-.4-.5-1.1-.7-1.8-.7s-1.6.4-1.9.9c-.5.5-.7,1.4-.7,2.5v8.1h-3.7v-8.7c0-.9-.2-1.6-.7-1.9-.4-.5-1.1-.7-1.8-.7s-1.4.4-1.9.9-.7,1.4-.7,2.5v8.1h-3.7v-14.5h3.7v1.6c.9-1.2,2.3-1.9,4.1-1.9s3.2.7,3.9,2.1c.9-1.4,2.5-2.1,4.4-2.1h0l-.2-.5Z"/>
      <path class="st4" d="M212.9,85.8v-15h3.7v15h-3.7Z"/>
      <polygon class="st5" points="134.2 70.7 134.2 74.5 136.7 74.5 136.7 76.9 140.4 76.9 140.4 70.7 134.2 70.7"/>
      <path class="st4" d="M136.5,79.8c-.2.5-.5.9-.9,1.4-.7.7-1.8,1.1-2.8,1.1s-2.1-.4-2.8-1.1-1.1-1.8-1.1-2.8.4-2.1,1.1-2.8c.4-.4.9-.7,1.4-.9v-3.7h-.2c-1.6.2-2.8.9-4.1,2.1-1.4,1.4-1.9,3.2-1.9,5.3s.7,3.9,1.9,5.3c1.4,1.4,3,2.1,4.9,2.1s3.5-.7,4.6-2.1v2.1h3.7v-6s-3.9,0-3.9,0Z"/>
    </g>
  </g>
</svg>