<?xml version="1.0" encoding="UTF-8"?>
<svg id="Layer_1" xmlns="http://www.w3.org/2000/svg" version="1.1" viewBox="0 0 335 49">
  <!-- Generator: Adobe Illustrator 29.5.1, SVG Export Plug-In . SVG Version: 2.1.0 Build 141)  -->
  <defs>
    <style>
      .st0 {
        fill: #656fab;
      }

      .st1 {
        fill: #101514;
      }

      .st2 {
        fill: #f57f3b;
      }

      .st3 {
        fill: #1a171b;
      }

      .st4 {
        fill: #fccc1a;
      }

      .st5 {
        fill: #0f8a44;
      }

      .st6 {
        fill: #df1f26;
      }
    </style>
  </defs>
  <g>
    <path class="st3" d="M45.1,21.8v-.4h.5c.4,0,.7,0,.9-.2.2-.1.4-.3.5-.6,0-.2,0-.7,0-1.5v-10.4c0-.8,0-1.3-.1-1.5,0-.2-.2-.4-.4-.5-.2-.2-.5-.2-.9-.2h-.5v-.4h6c1.6,0,2.9.3,3.9.8,1.2.6,2.1,1.6,2.7,2.9.6,1.3.9,2.7.9,4.3s-.2,2.1-.5,3.1c-.3.9-.7,1.7-1.2,2.3-.5.6-1,1.1-1.7,1.5-.6.4-1.4.7-2.3.9-.4,0-1,.1-1.9.1h-6M50.2,6.9v12.3c0,.6,0,1,0,1.2,0,.2.1.3.3.3.2.1.4.2.8.2,1.1,0,2-.4,2.5-1.3.8-1.2,1.2-3,1.2-5.6s-.3-3.6-.8-4.9c-.4-.9-1-1.6-1.7-1.9-.5-.2-1.3-.4-2.4-.4"/>
    <path class="st3" d="M64.1,6.9v6.4h.3c.9,0,1.5-.3,1.9-1,.4-.6.6-1.6.7-2.8h.4v8.3h-.4c0-.9-.3-1.6-.5-2.2-.3-.6-.6-1-.9-1.2-.3-.2-.8-.3-1.5-.3v4.4c0,.9,0,1.4,0,1.6,0,.2.2.4.4.5.2.1.5.2.8.2h.8c1.3,0,2.3-.3,3-1,.8-.7,1.3-1.7,1.6-3.1h.4l-.6,5h-11.7v-.4h.4c.4,0,.7,0,1-.3.2-.1.3-.3.4-.6,0-.2.1-.7.1-1.5v-10.4c0-.7,0-1.2,0-1.3,0-.3-.2-.5-.4-.6-.3-.2-.6-.3-1-.3h-.4v-.4h11.3v4.7h-.4c-.2-1.1-.5-2-.8-2.4-.3-.5-.8-.9-1.5-1.1-.4-.1-1.1-.2-2.1-.2h-1.4"/>
    <path class="st3" d="M316,6.9v6.4h.3c.9,0,1.5-.3,1.9-1,.4-.6.6-1.6.7-2.8h.4v8.3h-.4c0-.9-.3-1.6-.5-2.2-.3-.6-.6-1-.9-1.2-.3-.2-.8-.3-1.5-.3v4.4c0,.9,0,1.4,0,1.6,0,.2.2.4.4.5.2.1.5.2.8.2h.8c1.3,0,2.3-.3,3-1,.8-.7,1.3-1.7,1.6-3.1h.4l-.6,5h-11.7v-.4h.5c.4,0,.7,0,1-.3.2-.1.3-.3.4-.6,0-.2.1-.7.1-1.5v-10.4c0-.7,0-1.2,0-1.3,0-.3-.2-.5-.4-.6-.3-.2-.6-.3-1-.3h-.5v-.4h11.3v4.7h-.4c-.2-1.1-.5-2-.8-2.4-.3-.5-.8-.9-1.5-1.1-.4-.1-1.1-.2-2.1-.2h-1.4"/>
    <path class="st3" d="M83.7,6l-8,14.9h2.6c1.2,0,2.1,0,2.6-.3.8-.3,1.5-.8,2.1-1.5.6-.8,1-1.8,1.2-3h.4l-.5,5.7h-12.4l8-15h-2c-.8,0-1.3,0-1.5,0-.5.1-.9.3-1.3.6-.4.3-.7.7-1,1.2-.3.5-.5,1.1-.6,1.9h-.4l.4-4.6h10.7"/>
    <path class="st3" d="M93,17.3h-4.7l-.6,1.6c-.2.5-.3,1-.3,1.3s.1.8.5,1c.2.1.6.2,1.3.3v.4h-4.5v-.4c.5,0,.9-.3,1.2-.7.3-.4.7-1.2,1.2-2.4l4.8-12.6h.2l4.8,13c.5,1.3.8,2,1.1,2.4.2.3.5.4,1,.4v.4h-6.5v-.4h.3c.5,0,.9,0,1.1-.3.1-.1.2-.3.2-.6s0-.3,0-.4c0,0-.1-.4-.3-.9l-.7-2M92.7,16.4l-2-5.4-2.1,5.4h4.1"/>
    <path class="st3" d="M104.4,6l6.7,9.7v-6.7c0-1-.1-1.6-.3-1.9-.3-.5-.9-.7-1.6-.7v-.4h4.4v.4c-.6,0-.9.2-1.1.3-.2.1-.3.4-.5.7-.1.3-.2.8-.2,1.6v13.2h-.3l-9.1-13.2v10.1c0,.9.2,1.5.5,1.8.4.3.8.5,1.2.5h.3v.4h-4.8v-.4c.7,0,1.3-.2,1.6-.5.3-.4.4-.9.4-1.8V8l-.3-.5c-.3-.5-.5-.7-.8-.9-.2-.1-.5-.2-.9-.2v-.4h4.8"/>
    <path class="st3" d="M130.5,5.6v5.3c.1,0-.3,0-.3,0-.2-1.3-.7-2.4-1.4-3.2-.8-.8-1.6-1.2-2.5-1.2s-1.2.2-1.6.6c-.4.4-.6.9-.6,1.5s0,.7.2.9c.2.4.5.7.9,1.1.3.3,1,.7,2.2,1.4,1.6.9,2.6,1.8,3.2,2.6.5.8.8,1.7.8,2.8s-.4,2.5-1.3,3.4c-.9.9-2,1.4-3.4,1.4s-.8,0-1.2-.2c-.4-.1-.9-.3-1.4-.6-.3-.2-.6-.2-.8-.2s-.4,0-.5.2c-.2.2-.4.4-.5.7h-.4v-6h.4c.3,1.7.9,2.9,1.7,3.8.8.9,1.7,1.3,2.7,1.3s1.3-.2,1.8-.7c.4-.5.7-1,.7-1.6s0-.7-.3-1.1c-.2-.3-.4-.7-.8-1-.3-.3-1-.7-1.8-1.2-1.2-.7-2.1-1.3-2.6-1.8-.5-.5-1-1.1-1.2-1.7-.3-.6-.4-1.3-.4-2,0-1.3.4-2.3,1.2-3.2.8-.9,1.8-1.3,3-1.3s.9,0,1.3.2c.3,0,.7.3,1.1.5.4.3.8.4.9.4s.3,0,.4-.2c0-.1.2-.4.3-.9h.3"/>
    <path class="st3" d="M235.6,5.6v5.3c.1,0-.3,0-.3,0-.2-1.3-.7-2.4-1.4-3.2-.8-.8-1.6-1.2-2.5-1.2s-1.2.2-1.6.6c-.4.4-.6.9-.6,1.5s0,.7.2.9c.2.4.5.7.9,1.1.3.3,1,.7,2.2,1.4,1.6.9,2.6,1.8,3.2,2.6.5.8.8,1.7.8,2.8s-.4,2.5-1.3,3.4c-.9.9-2,1.4-3.4,1.4s-.8,0-1.2-.2c-.4-.1-.9-.3-1.4-.6-.3-.2-.6-.2-.8-.2s-.4,0-.5.2c-.2.2-.4.4-.5.7h-.4v-6h.4c.3,1.7.9,2.9,1.7,3.8.8.9,1.7,1.3,2.7,1.3s1.3-.2,1.8-.7c.4-.5.7-1,.7-1.6s0-.7-.3-1.1c-.2-.3-.4-.7-.8-1-.3-.3-1-.7-1.8-1.2-1.2-.7-2.1-1.3-2.7-1.8-.5-.5-1-1.1-1.2-1.7-.3-.6-.4-1.3-.4-2,0-1.3.4-2.3,1.2-3.2.8-.9,1.8-1.3,3-1.3s.9,0,1.3.2c.3,0,.7.3,1.1.5.5.3.8.4.9.4s.3,0,.4-.2c0-.1.2-.4.3-.9h.3"/>
    <path class="st3" d="M246.4,5.6v5.3c.1,0-.3,0-.3,0-.2-1.3-.7-2.4-1.4-3.2-.8-.8-1.6-1.2-2.5-1.2s-1.2.2-1.6.6c-.4.4-.6.9-.6,1.5s0,.7.2.9c.2.4.5.7.9,1.1.3.3,1,.7,2.2,1.4,1.6.9,2.6,1.8,3.2,2.6.5.8.8,1.7.8,2.8s-.4,2.5-1.3,3.4c-.9.9-2,1.4-3.4,1.4s-.8,0-1.2-.2c-.4-.1-.9-.3-1.4-.6-.3-.2-.6-.2-.8-.2s-.4,0-.5.2c-.2.2-.4.4-.5.7h-.4v-6h.4c.3,1.7.9,2.9,1.7,3.8.8.9,1.7,1.3,2.7,1.3s1.3-.2,1.8-.7c.4-.5.7-1,.7-1.6s0-.7-.3-1.1c-.2-.3-.4-.7-.8-1-.3-.3-1-.7-1.8-1.2-1.2-.7-2.1-1.3-2.6-1.8-.5-.5-1-1.1-1.2-1.7-.3-.6-.4-1.3-.4-2,0-1.3.4-2.3,1.2-3.2.8-.9,1.8-1.3,3-1.3s.9,0,1.3.2c.3,0,.7.3,1.1.5.5.3.8.4.9.4s.3,0,.4-.2c0-.1.2-.4.3-.9h.3"/>
    <path class="st3" d="M332.7,5.6v5.3c.1,0-.3,0-.3,0-.2-1.3-.7-2.4-1.4-3.2-.8-.8-1.6-1.2-2.5-1.2s-1.2.2-1.6.6c-.4.4-.6.9-.6,1.5s0,.7.2.9c.2.4.5.7.9,1.1.3.3,1,.7,2.2,1.4,1.6.9,2.6,1.8,3.2,2.6.5.8.8,1.7.8,2.8s-.4,2.5-1.3,3.4c-.9.9-2,1.4-3.4,1.4s-.8,0-1.2-.2c-.4-.1-.9-.3-1.4-.6-.3-.2-.6-.2-.8-.2s-.4,0-.5.2c-.2.2-.4.4-.5.7h-.4v-6h.4c.3,1.7.9,2.9,1.7,3.8.8.9,1.7,1.3,2.7,1.3s1.3-.2,1.8-.7c.4-.5.7-1,.7-1.6s0-.7-.3-1.1c-.2-.3-.4-.7-.8-1-.3-.3-1-.7-1.8-1.2-1.2-.7-2.1-1.3-2.7-1.8-.5-.5-1-1.1-1.2-1.7-.3-.6-.4-1.3-.4-2,0-1.3.4-2.3,1.2-3.2.8-.9,1.8-1.3,3-1.3s.9,0,1.3.2c.3,0,.7.3,1.1.5.5.3.8.4.9.4s.3,0,.4-.2c0-.1.2-.4.3-.9h.3"/>
    <path class="st3" d="M137.1,14.2v4.9c0,.8,0,1.3.1,1.5,0,.2.2.4.4.5.2.2.5.2.9.2h.4v.4h-7.1v-.4h.5c.4,0,.7,0,.9-.3.2-.1.3-.3.4-.6,0-.2.1-.7.1-1.5v-10.4c0-.8,0-1.3-.1-1.5,0-.2-.2-.4-.4-.5-.2-.2-.5-.2-.9-.2h-.5v-.4h7.1v.4h-.4c-.4,0-.7,0-.9.3-.2.1-.3.3-.4.6,0,.2-.1.7-.1,1.5v4.5h4.8v-4.5c0-.8,0-1.3-.1-1.5,0-.2-.2-.4-.4-.5-.2-.2-.5-.2-.9-.2h-.4v-.4h7.1v.4h-.4c-.4,0-.7,0-1,.3-.2.1-.3.3-.4.6,0,.2-.1.7-.1,1.5v10.4c0,.8,0,1.3.1,1.5,0,.2.2.4.5.5.2.2.5.2.9.2h.4v.4h-7.1v-.4h.4c.4,0,.7,0,.9-.3.2-.1.3-.3.4-.6,0-.2.1-.7.1-1.5v-4.9h-4.8"/>
    <path class="st3" d="M155,21.4v.4h-7.1v-.4h.4c.4,0,.7,0,1-.3.2-.1.3-.3.4-.6,0-.2.1-.7.1-1.5v-10.4c0-.8,0-1.3-.1-1.5,0-.2-.2-.4-.4-.5-.2-.2-.5-.2-.9-.2h-.4v-.4h7.1v.4h-.4c-.4,0-.7,0-.9.3-.2.1-.3.3-.4.6,0,.2-.1.7-.1,1.5v10.4c0,.8,0,1.3.1,1.5,0,.2.2.4.4.5.2.2.5.2.9.2h.4"/>
    <path class="st3" d="M284.4,21.4v.4h-7.1v-.4h.4c.4,0,.7,0,.9-.3.2-.1.3-.3.4-.6,0-.2.1-.7.1-1.5v-10.4c0-.8,0-1.3-.1-1.5,0-.2-.2-.4-.4-.5-.2-.2-.5-.2-.9-.2h-.4v-.4h7.1v.4h-.4c-.4,0-.7,0-.9.3-.2.1-.3.3-.4.6,0,.2-.1.7-.1,1.5v10.4c0,.8,0,1.3.1,1.5,0,.2.2.4.4.5.2.2.5.2.9.2h.4"/>
    <path class="st3" d="M160.8,14.6v4.5c0,.9,0,1.4.1,1.6,0,.2.3.4.5.5.2.1.7.2,1.3.2v.4h-7v-.4c.6,0,1.1,0,1.3-.2.2-.1.4-.3.5-.5,0-.2.1-.8.1-1.6v-10.3c0-.9,0-1.4-.1-1.6,0-.2-.3-.4-.5-.5-.2-.1-.7-.2-1.3-.2v-.4h6.3c1.6,0,2.8.1,3.6.4.8.3,1.4.8,1.9,1.5.5.7.7,1.5.7,2.5s-.4,2.1-1.1,2.9c-.5.5-1.1.9-1.9,1.1l3.2,5.4c.4.7.7,1.1.9,1.3.3.2.6.4,1,.4v.4h-4.3l-4.3-7.2h-.9M160.8,6.9v6.8h.6c.9,0,1.6,0,2.1-.3.5-.2.8-.5,1.1-1.1.3-.5.4-1.2.4-2,0-1.2-.2-2.1-.7-2.6-.5-.6-1.3-.8-2.3-.8h-1.1"/>
    <path class="st3" d="M178.7,17.3h-4.7l-.6,1.6c-.2.5-.3,1-.3,1.3s.2.8.5,1c.2.1.6.2,1.3.3v.4h-4.5v-.4c.5,0,.9-.3,1.2-.7.3-.4.7-1.2,1.2-2.4l4.8-12.6h.2l4.8,13c.5,1.3.8,2,1.1,2.4.2.3.5.4,1,.4v.4h-6.5v-.4h.3c.5,0,.9,0,1.1-.3.1-.1.2-.3.2-.6s0-.3,0-.4c0,0-.1-.4-.3-.9l-.7-2M178.4,16.4l-2-5.4-2.1,5.4h4.1"/>
    <path class="st3" d="M220.2,17.3h-4.7l-.6,1.6c-.2.5-.3,1-.3,1.3s.2.8.5,1c.2.1.6.2,1.3.3v.4h-4.5v-.4c.5,0,.9-.3,1.2-.7.3-.4.7-1.2,1.2-2.4l4.8-12.6h.2l4.8,13c.5,1.3.8,2,1.1,2.4.2.3.5.4,1,.4v.4h-6.5v-.4h.3c.5,0,.9,0,1.1-.3.1-.1.2-.3.2-.6s0-.3,0-.4c0,0-.1-.4-.3-.9l-.7-2M219.8,16.4l-2-5.4-2.1,5.4h4.1"/>
    <path class="st3" d="M293.5,17.3h-4.7l-.6,1.6c-.2.5-.3,1-.3,1.3s.2.8.5,1c.2.1.6.2,1.3.3v.4h-4.5v-.4c.5,0,.9-.3,1.2-.7.3-.4.7-1.2,1.2-2.4l4.8-12.6h.2l4.8,13c.5,1.3.8,2,1.1,2.4.2.3.5.4,1,.4v.4h-6.5v-.4h.3c.5,0,.9,0,1.1-.3.1-.1.2-.3.2-.6s0-.3,0-.4c0,0-.1-.4-.3-.9l-.7-2M293.2,16.4l-2-5.4-2.1,5.4h4.1"/>
    <path class="st3" d="M201.4,12.6h4v.4c-.4,0-.8.2-1,.5-.3.2-.6.8-1,1.7-.4.9-1,1.8-1.7,2.9.7.7,1.2,1.2,1.6,1.4.3.2.6.3.8.3.5,0,.9-.4,1.3-1.1l.4.2c-.5,1.2-1.1,2.1-1.7,2.6-.4.4-1,.6-1.5.6s-1-.1-1.4-.4c-.5-.3-1-.7-1.6-1.4-.8.6-1.6,1.1-2.2,1.4-.7.3-1.4.4-2.2.4-1.2,0-2.2-.4-2.9-1.2-.7-.8-1.1-1.7-1.1-2.7s.3-2.1,1-2.9c.7-.8,1.7-1.6,3-2.2-.2-.5-.3-1-.4-1.4,0-.5-.1-.9-.1-1.4,0-1.2.4-2.2,1.1-3,.7-.8,1.6-1.2,2.7-1.2s1.6.3,2.1.8c.5.5.8,1.1.8,1.9s-.3,1.6-.8,2.2c-.5.6-1.4,1.2-2.6,1.7.7,1.5,1.8,3.1,3.2,4.9.9-1.2,1.4-2.3,1.4-3.2s0-.6-.3-.8c-.2-.2-.5-.4-.8-.4v-.4M195.3,13.9c-.5.3-.9.5-1.1.8-.3.4-.5.9-.5,1.4s.2,1.4.5,2.1c.3.7.8,1.2,1.3,1.6.5.4,1,.6,1.5.6s.5,0,.8-.2c.3-.1.6-.3,1-.6-1.5-1.9-2.7-3.8-3.5-5.8M197.6,12c.7-.3,1.1-.6,1.3-.9.2-.3.3-.7.3-1.2,0-.8-.2-1.6-.6-2.1-.2-.4-.6-.6-.9-.6s-.6.1-.8.4c-.2.3-.3.7-.3,1.1s0,.8.2,1.2c0,.4.3,1.1.7,2.1"/>
    <path class="st3" d="M255.3,5.8c2.1,0,3.9.6,5.2,2.2,1.3,1.6,2,3.5,2,5.9s-.5,3.8-1.5,5.3c-1.3,2-3.2,3-5.6,3s-4.3-1-5.6-2.9c-1-1.5-1.6-3.3-1.6-5.4s.7-4.3,2-5.9c1.4-1.6,3-2.3,5-2.2M255.5,6.5c-1.2,0-2.1.7-2.8,2.2-.5,1.2-.8,3-.8,5.2s.4,4.7,1.2,6c.6.9,1.3,1.4,2.3,1.4s1.2-.2,1.7-.6c.6-.5,1-1.3,1.3-2.4.3-1.1.5-2.5.5-4.3s-.2-3.7-.5-4.7c-.3-1-.7-1.8-1.3-2.2-.5-.4-1.1-.6-1.8-.6"/>
    <path class="st3" d="M276.3,5.6v5.5h-.3c-.3-1.4-.8-2.5-1.6-3.3-.8-.8-1.7-1.2-2.7-1.2s-1.6.3-2.3.9c-.7.6-1.2,1.3-1.5,2.2-.4,1.2-.6,2.5-.6,3.9s.1,2.7.5,3.9c.3,1.2.8,2,1.4,2.6.6.6,1.5.9,2.5.9s1.6-.2,2.3-.7c.7-.4,1.4-1.2,2.2-2.3v1.4c-.8.9-1.5,1.6-2.3,2-.8.4-1.8.6-2.9.6s-2.7-.3-3.8-1c-1.1-.7-2-1.6-2.6-2.9-.6-1.3-.9-2.6-.9-4.1s.3-2.9,1-4.3c.7-1.4,1.6-2.4,2.7-3.2,1.1-.7,2.3-1.1,3.6-1.1s1.9.2,3,.7c.6.3,1,.4,1.2.4s.4,0,.6-.3c.2-.2.3-.5.3-.9h.3"/>
    <path class="st3" d="M309.9,6v4.3h-.3c-.2-1-.4-1.7-.7-2.1-.3-.4-.6-.8-1.1-1-.2-.1-.7-.2-1.3-.2h-1v12.2c0,.8,0,1.3.1,1.5,0,.2.2.4.4.5.2.1.5.2.9.2h.4v.4h-7v-.4h.4c.4,0,.7,0,.9-.2.2-.1.3-.3.4-.6,0-.2.1-.7.1-1.5V6.9h-1c-.9,0-1.6.2-2,.7-.6.6-.9,1.5-1.1,2.7h-.3v-4.3h12"/>
  </g>
  <g>
    <rect class="st4" x="-1" y="13.6" width="24.1" height="3.4" transform="translate(-7.6 12.4) rotate(-45)"/>
    <rect class="st6" x="3.9" y="18.5" width="24.1" height="3.4" transform="translate(-9.6 17.2) rotate(-45)"/>
    <rect class="st5" x="8.8" y="23.4" width="24.1" height="3.4" transform="translate(-11.6 22.1) rotate(-45)"/>
    <rect class="st0" x="13.7" y="28.3" width="24.1" height="3.4" transform="translate(-13.7 27) rotate(-45)"/>
  </g>
  <g>
    <path class="st1" d="M113.4,29.7h-1.8v1h0c0,0,.7,0,.7,0v.7h1.1v-1.8Z"/>
    <path class="st1" d="M51.1,38.1h-4l-.7,2h-1.3l3.3-8.9h1.4l3.3,8.9h-1.3l-.7-2ZM50.8,37.1l-1.7-4.5-1.7,4.5h3.3Z"/>
    <path class="st1" d="M60.2,33.7c.5.5.8,1.3.8,2.2v4.1h-1.2v-4c0-.7-.2-1.2-.5-1.6-.4-.4-.8-.6-1.5-.6s-1.1.2-1.5.6c-.4.4-.6.9-.6,1.7v3.9h-1.2v-7h1.2v1c.2-.4.6-.6,1-.8.4-.2.9-.3,1.3-.3.9,0,1.6.3,2.1.8Z"/>
    <path class="st1" d="M140.2,33.3c.4-.7,1-1.2,1.6-1.6.7-.4,1.5-.6,2.3-.6s1.9.2,2.6.7c.7.5,1.3,1.1,1.6,2h-1.4c-.3-.5-.6-1-1.1-1.2-.5-.3-1-.4-1.7-.4s-1.2.1-1.7.4-.9.7-1.2,1.2-.4,1.2-.4,1.9.1,1.3.4,1.9c.3.5.7.9,1.2,1.2s1.1.4,1.7.4,1.2-.1,1.7-.4c.5-.3.8-.7,1.1-1.2h1.4c-.3.9-.9,1.5-1.6,2-.7.5-1.6.7-2.6.7s-1.6-.2-2.3-.6c-.7-.4-1.2-.9-1.6-1.6-.4-.7-.6-1.5-.6-2.3s.2-1.7.6-2.3Z"/>
    <path class="st1" d="M151.5,39.7c-.5-.3-1-.7-1.3-1.3-.3-.5-.5-1.2-.5-1.9s.2-1.3.5-1.9c.3-.5.8-1,1.3-1.3.6-.3,1.2-.4,1.9-.4s1.3.1,1.9.4c.6.3,1,.7,1.3,1.3.3.5.5,1.2.5,1.9s-.2,1.4-.5,1.9c-.3.5-.8,1-1.3,1.3-.6.3-1.2.4-1.9.4s-1.3-.1-1.8-.4ZM154.6,38.9c.4-.2.7-.5.9-.9.2-.4.3-.9.3-1.4s-.1-1-.3-1.4c-.2-.4-.5-.7-.9-.9-.4-.2-.8-.3-1.2-.3s-.8,0-1.2.3c-.4.2-.7.5-.9.9-.2.4-.3.9-.3,1.4s.1,1.1.3,1.4c.2.4.5.7.9.9.4.2.8.3,1.2.3s.8,0,1.2-.3Z"/>
    <path class="st1" d="M168.8,33.3c.4.2.8.6,1,1,.3.5.4,1,.4,1.6v4.1h-1.2v-4c0-.7-.2-1.2-.5-1.6-.4-.4-.8-.6-1.4-.6s-1.1.2-1.5.6c-.4.4-.6.9-.6,1.7v3.9h-1.2v-4c0-.7-.2-1.2-.5-1.6-.4-.4-.8-.6-1.4-.6s-1.1.2-1.5.6c-.4.4-.6.9-.6,1.7v3.9h-1.2v-7h1.2v1c.2-.4.6-.6,1-.8.4-.2.8-.3,1.3-.3s1.1.1,1.6.4c.5.3.8.7,1,1.2.2-.5.5-.9,1-1.2.5-.3,1-.4,1.5-.4s1.1.1,1.5.3Z"/>
    <path class="st1" d="M174.4,33.4c.5-.3,1-.4,1.6-.4s1.2.1,1.7.4c.5.3.9.7,1.2,1.3.3.5.4,1.2.4,1.9s-.1,1.3-.4,1.9c-.3.6-.7,1-1.2,1.3s-1.1.5-1.7.5-1.2-.1-1.6-.4-.8-.6-1.1-1v4.6h-1.2v-10.3h1.2v1.3c.2-.4.6-.7,1.1-1ZM177.9,35.2c-.2-.4-.5-.7-.9-.9-.4-.2-.8-.3-1.2-.3s-.8.1-1.2.3c-.4.2-.7.5-.9.9s-.3.9-.3,1.4.1,1,.3,1.4.5.7.9.9c.4.2.8.3,1.2.3s.9-.1,1.2-.3c.4-.2.7-.5.9-.9s.3-.9.3-1.4-.1-1-.3-1.4Z"/>
    <path class="st1" d="M181,34.7c.3-.5.7-1,1.2-1.3.5-.3,1.1-.4,1.7-.4s1.2.1,1.6.4.8.6,1,1v-1.3h1.2v7h-1.2v-1.3c-.2.4-.6.7-1.1,1s-1,.4-1.6.4-1.2-.2-1.7-.5c-.5-.3-.9-.7-1.2-1.3s-.4-1.2-.4-1.9.1-1.3.4-1.9ZM186.3,35.2c-.2-.4-.5-.7-.9-.9-.4-.2-.8-.3-1.2-.3s-.9.1-1.2.3c-.4.2-.7.5-.9.9-.2.4-.3.9-.3,1.4s.1,1,.3,1.4c.2.4.5.7.9.9.4.2.8.3,1.2.3s.9-.1,1.2-.3c.4-.2.7-.5.9-.9.2-.4.3-.9.3-1.4s-.1-1-.3-1.4Z"/>
    <path class="st1" d="M195.5,33.7c.5.5.8,1.3.8,2.2v4.1h-1.2v-4c0-.7-.2-1.2-.5-1.6-.4-.4-.8-.6-1.5-.6s-1.1.2-1.5.6c-.4.4-.6.9-.6,1.7v3.9h-1.2v-7h1.2v1c.2-.4.6-.6,1-.8.4-.2.9-.3,1.3-.3.9,0,1.6.3,2.1.8Z"/>
    <path class="st1" d="M204.5,33.1l-4.3,10.3h-1.2l1.4-3.4-2.9-6.9h1.3l2.3,5.7,2.2-5.7h1.2Z"/>
    <path class="st1" d="M77.1,34.6c0,.2.1.4.4.5.3.1.6.2,1,.3.4,0,.7.2,1.1.4.4.1.7.4,1,.7.3.3.4.8.4,1.3,0,.8-.3,1.3-.8,1.7-.6.4-1.3.6-2.1.6-1.5,0-2.6-.6-3.1-1.8l1.7-.9c.2.6.7,1,1.5,1s1-.2,1-.6-.1-.4-.4-.5c-.3-.1-.6-.2-1-.3-.4,0-.7-.2-1.1-.4-.4-.1-.7-.4-1-.7-.3-.3-.4-.7-.4-1.2,0-.7.3-1.3.8-1.7.5-.4,1.2-.6,2-.6s1.2.1,1.6.4c.5.3.9.7,1.2,1.2l-1.6.9c-.2-.5-.6-.8-1.2-.8s-.5,0-.6.2-.2.3-.2.4h0s0,0,0,0Z"/>
    <path class="st1" d="M85.5,40c-1.1,0-2-.4-2.8-1.1-.7-.7-1.1-1.7-1.1-2.8s.4-2,1.1-2.8c.7-.7,1.7-1.1,2.8-1.1s1.4.2,2,.5,1,.8,1.3,1.4l-1.6,1c-.2-.3-.4-.5-.7-.7-.3-.2-.6-.3-1-.3-.6,0-1,.2-1.4.6-.4.4-.6.9-.6,1.5s.2,1.1.6,1.4c.4.4.8.6,1.4.6s.7,0,1-.3.5-.4.7-.7l1.7.9c-.3.6-.8,1-1.4,1.4-.6.4-1.2.5-2,.5h0s0,0,0,0Z"/>
    <path class="st1" d="M91.3,36.9c.3.9,1,1.4,2.1,1.4s1.3-.2,1.7-.7l1.5.9c-.7,1.1-1.8,1.6-3.2,1.6s-2.2-.4-2.9-1.1c-.7-.7-1.1-1.7-1.1-2.8s.4-2,1.1-2.8c.7-.7,1.7-1.1,2.8-1.1s2,.4,2.7,1.1c.7.7,1.1,1.7,1.1,2.8s0,.5,0,.8h-5.6,0s0,0,0,0ZM91.3,35.5h3.8c-.1-.5-.3-.9-.7-1.1-.3-.2-.7-.4-1.2-.4s-.9.1-1.3.4c-.3.3-.6.6-.7,1.1h0s0,0,0,0Z"/>
    <path class="st1" d="M102.4,32.3c.8,0,1.5.3,2.1.8.5.6.8,1.3.8,2.3v4.6h-2v-4.4c0-.5-.1-.9-.4-1.2-.3-.3-.6-.4-1.1-.4s-.9.2-1.2.5c-.3.3-.5.8-.5,1.4v4.1h-2v-7.6h2v.8c.5-.7,1.2-1.1,2.3-1.1h0Z"/>
    <path class="st1" d="M110.2,34.2v-1.9h-1.7v-2l-2,.6v6.6c0,1,.3,1.8.8,2.2.6.4,1.5.5,2.9.4v-1.8c-.4,0-.7,0-.9,0-.3,0-.4,0-.6-.2-.1-.1-.2-.3-.2-.6v-3.3h1.7,0Z"/>
    <path class="st1" d="M120,32.3h2v7.8h-2v-1.1c-.5.7-1.2,1.1-2.3,1.1s-1.5-.3-2.1-.8c-.5-.6-.8-1.3-.8-2.3v-4.7h2v4.4c0,.5.1.9.4,1.2.3.3.6.4,1.1.4s.9-.2,1.2-.5c.3-.3.5-.8.5-1.4v-4.1h0Z"/>
    <path class="st1" d="M131.8,32.3c.9,0,1.6.3,2.1.8.5.6.8,1.3.8,2.3v4.6h-2v-4.5c0-.4-.1-.8-.3-1.1-.2-.3-.5-.4-.9-.4s-.8.1-1,.4c-.2.3-.4.7-.4,1.3v4.2h-2v-4.5c0-.4-.1-.8-.3-1.1-.2-.3-.5-.4-.9-.4s-.8.1-1,.4c-.3.3-.4.7-.4,1.3v4.2h-2v-7.6h2v.8c.5-.7,1.2-1,2.1-1s1.6.4,2.1,1.1c.5-.7,1.3-1.1,2.3-1.1h0Z"/>
    <path class="st1" d="M111.5,40.1v-7.8h2v7.8h-2Z"/>
    <polygon class="st2" points="70.6 32.3 70.6 34.2 71.9 34.2 71.9 35.5 73.8 35.5 73.8 32.3 70.6 32.3"/>
    <path class="st1" d="M71.8,36.9c0,.3-.2.5-.4.7-.4.4-.9.6-1.5.6s-1.1-.2-1.5-.6-.6-.9-.6-1.5.2-1.1.6-1.5c.2-.2.5-.4.8-.5v-1.9h-.1c-.8,0-1.5.5-2.1,1.1-.7.8-1.1,1.7-1.1,2.8s.4,2,1.1,2.8c.7.8,1.6,1.1,2.5,1.1s1.8-.4,2.4-1.1v1.1h1.9v-3.1h-2.1Z"/>
  </g>
</svg>