<?xml version="1.0" encoding="UTF-8"?>
<svg id="Layer_1" xmlns="http://www.w3.org/2000/svg" version="1.1" viewBox="0 0 362 53">
  <!-- Generator: Adobe Illustrator 29.5.1, SVG Export Plug-In . SVG Version: 2.1.0 Build 141)  -->
  <defs>
    <style>
      .st0 {
        fill: #088a30;
      }

      .st1 {
        fill: #fdcc19;
      }

      .st2 {
        fill: #e1001a;
      }

      .st3 {
        fill: #fff;
      }

      .st4 {
        fill: #f61;
      }

      .st5 {
        fill: #646eac;
      }
    </style>
  </defs>
  <g>
    <path class="st3" d="M48.1,28.2v-.4h.5c.4,0,.8,0,1-.2.2-.2.4-.4.5-.7,0-.2,0-.7,0-1.6v-11.3c0-.9,0-1.4-.1-1.7,0-.2-.2-.4-.5-.6-.2-.2-.6-.3-1-.3h-.5v-.4h6.6c1.8,0,3.2.3,4.2.8,1.3.7,2.3,1.7,3,3.1.7,1.4,1,2.9,1,4.7s-.2,2.3-.5,3.3c-.3,1-.8,1.9-1.3,2.5-.5.7-1.1,1.2-1.8,1.6-.7.4-1.5.7-2.5.9-.4,0-1.1.1-2.1.1h-6.6M53.7,12v13.4c0,.7,0,1.1,0,1.3,0,.2.2.3.3.4.2.1.5.2.8.2,1.2,0,2.1-.5,2.8-1.4.9-1.3,1.3-3.3,1.3-6s-.3-4-.9-5.3c-.5-1-1.1-1.7-1.8-2.1-.5-.3-1.4-.4-2.6-.4"/>
    <path class="st3" d="M68.8,12v7h.3c.9,0,1.6-.3,2.1-1,.4-.7.7-1.7.8-3h.4v9h-.4c0-1-.3-1.8-.6-2.4-.3-.6-.6-1-1-1.3-.4-.2-.9-.3-1.6-.3v4.8c0,.9,0,1.5.1,1.7,0,.2.2.4.4.5.2.1.5.2.9.2h.9c1.4,0,2.5-.4,3.3-1.1.8-.7,1.4-1.9,1.8-3.4h.4l-.7,5.5h-12.7v-.4h.5c.4,0,.8,0,1-.3.2-.1.3-.3.4-.6,0-.2.1-.7.1-1.6v-11.3c0-.8,0-1.3,0-1.5,0-.3-.2-.5-.4-.7-.3-.2-.7-.4-1.1-.4h-.5v-.4h12.3v5.1h-.4c-.2-1.2-.5-2.1-.9-2.7-.4-.5-.9-.9-1.6-1.2-.4-.2-1.2-.2-2.3-.2h-1.5"/>
    <path class="st3" d="M342.4,12v7h.3c.9,0,1.6-.3,2.1-1,.4-.7.7-1.7.8-3h.4v9h-.4c0-1-.3-1.8-.6-2.4-.3-.6-.6-1-1-1.3-.4-.2-.9-.3-1.6-.3v4.8c0,.9,0,1.5.1,1.7,0,.2.2.4.4.5.2.1.5.2.9.2h.9c1.4,0,2.5-.4,3.3-1.1.8-.7,1.4-1.9,1.8-3.4h.4l-.7,5.5h-12.7v-.4h.5c.4,0,.8,0,1-.3.2-.1.3-.3.4-.6,0-.2.1-.7.1-1.6v-11.3c0-.8,0-1.3,0-1.5,0-.3-.2-.5-.4-.7-.3-.2-.7-.4-1.1-.4h-.5v-.4h12.3v5.1h-.4c-.2-1.2-.5-2.1-.9-2.7-.4-.5-.9-.9-1.6-1.2-.4-.2-1.2-.2-2.3-.2h-1.5"/>
    <path class="st3" d="M90.1,11l-8.7,16.2h2.8c1.3,0,2.2,0,2.8-.3.9-.3,1.6-.9,2.2-1.7.6-.8,1.1-1.9,1.3-3.3h.4l-.6,6.2h-13.4l8.7-16.3h-2.2c-.8,0-1.4,0-1.7,0-.5.1-1,.3-1.4.7-.4.3-.8.8-1.1,1.3-.3.5-.5,1.2-.7,2.1h-.4l.4-5h11.6"/>
    <path class="st3" d="M100.2,23.2h-5.1l-.6,1.7c-.2.6-.3,1-.3,1.4s.2.9.5,1.1c.2.1.7.2,1.4.3v.4h-4.9v-.4c.5,0,1-.4,1.3-.8.3-.4.8-1.3,1.3-2.6l5.2-13.7h.2l5.3,14.1c.5,1.4.9,2.2,1.2,2.6.2.3.6.4,1,.5v.4h-7.1v-.4h.3c.6,0,1,0,1.2-.3.2-.1.2-.3.2-.6s0-.3,0-.5c0,0-.1-.4-.3-1l-.8-2.2M99.9,22.3l-2.2-5.9-2.3,5.9h4.4"/>
    <path class="st3" d="M112.5,11l7.2,10.6v-7.3c0-1-.1-1.7-.4-2.1-.3-.5-.9-.7-1.7-.7v-.4h4.8v.4c-.6,0-1,.2-1.2.4-.2.2-.4.4-.5.7-.1.3-.2.9-.2,1.7v14.3h-.4l-9.9-14.3v10.9c0,1,.2,1.7.6,2,.4.3.8.5,1.3.5h.4v.4h-5.2v-.4c.8,0,1.4-.2,1.7-.6.3-.4.5-1,.5-1.9v-12.1l-.3-.5c-.3-.5-.6-.8-.8-1-.2-.2-.6-.2-1-.3v-.4h5.2"/>
    <path class="st3" d="M140.9,10.6v5.7c.1,0-.3,0-.3,0-.2-1.4-.7-2.6-1.6-3.5-.8-.9-1.7-1.3-2.7-1.3s-1.3.2-1.8.7c-.4.5-.6,1-.6,1.6s0,.7.2,1c.2.4.5.8,1,1.2.3.3,1.1.8,2.3,1.5,1.7,1,2.9,1.9,3.5,2.8.6.9.9,1.9.9,3s-.5,2.7-1.4,3.7c-1,1-2.2,1.5-3.7,1.5s-.9,0-1.3-.2c-.4-.1-.9-.3-1.6-.6-.3-.2-.6-.3-.9-.3s-.4,0-.6.3c-.2.2-.4.4-.5.8h-.4v-6.5h.4c.3,1.8.9,3.2,1.9,4.2.9,1,1.9,1.4,2.9,1.4s1.5-.3,1.9-.8c.5-.5.7-1.1.7-1.8s0-.8-.3-1.2c-.2-.4-.5-.7-.8-1.1-.4-.3-1-.8-2-1.3-1.3-.8-2.3-1.4-2.9-2-.6-.5-1-1.1-1.3-1.8-.3-.7-.5-1.4-.5-2.2,0-1.4.4-2.5,1.3-3.5.9-1,1.9-1.4,3.3-1.4s.9,0,1.4.2c.3.1.8.3,1.2.6.5.3.8.4,1,.4s.3,0,.4-.2c.1-.1.2-.5.3-1h.3"/>
    <path class="st3" d="M255.1,10.6v5.7c.1,0-.3,0-.3,0-.2-1.4-.7-2.6-1.6-3.5-.8-.9-1.7-1.3-2.7-1.3s-1.3.2-1.8.7c-.4.5-.7,1-.7,1.6s0,.7.2,1c.2.4.5.8,1,1.2.3.3,1.1.8,2.3,1.5,1.7,1,2.9,1.9,3.5,2.8.6.9.9,1.9.9,3s-.5,2.7-1.4,3.7c-1,1-2.2,1.5-3.7,1.5s-.9,0-1.3-.2c-.4-.1-.9-.3-1.6-.6-.3-.2-.6-.3-.9-.3s-.4,0-.6.3c-.2.2-.4.4-.5.8h-.4v-6.5h.4c.3,1.8.9,3.2,1.9,4.2.9,1,1.9,1.4,2.9,1.4s1.5-.3,1.9-.8c.5-.5.7-1.1.7-1.8s0-.8-.3-1.2c-.2-.4-.5-.7-.8-1.1-.4-.3-1-.8-2-1.3-1.3-.8-2.3-1.4-2.9-2-.6-.5-1-1.1-1.4-1.8-.3-.7-.5-1.4-.5-2.2,0-1.4.4-2.5,1.3-3.5.9-1,1.9-1.4,3.3-1.4s.9,0,1.4.2c.3.1.8.3,1.2.6.5.3.8.4,1,.4s.3,0,.4-.2c.1-.1.2-.5.3-1h.3"/>
    <path class="st3" d="M266.8,10.6v5.7c.1,0-.3,0-.3,0-.2-1.4-.7-2.6-1.6-3.5-.8-.9-1.7-1.3-2.7-1.3s-1.3.2-1.8.7c-.4.5-.6,1-.6,1.6s0,.7.2,1c.2.4.5.8,1,1.2.3.3,1.1.8,2.3,1.5,1.7,1,2.9,1.9,3.5,2.8.6.9.9,1.9.9,3s-.5,2.7-1.4,3.7c-1,1-2.2,1.5-3.7,1.5s-.9,0-1.3-.2c-.4-.1-.9-.3-1.6-.6-.3-.2-.6-.3-.9-.3s-.4,0-.6.3c-.2.2-.4.4-.5.8h-.4v-6.5h.4c.3,1.8.9,3.2,1.9,4.2.9,1,1.9,1.4,2.9,1.4s1.5-.3,1.9-.8c.5-.5.7-1.1.7-1.8s0-.8-.3-1.2c-.2-.4-.5-.7-.8-1.1-.4-.3-1-.8-2-1.3-1.3-.8-2.3-1.4-2.9-2-.6-.5-1-1.1-1.3-1.8-.3-.7-.5-1.4-.5-2.2,0-1.4.4-2.5,1.3-3.5.9-1,1.9-1.4,3.3-1.4s.9,0,1.4.2c.3.1.8.3,1.2.6.5.3.8.4,1,.4s.3,0,.4-.2c.1-.1.2-.5.3-1h.3"/>
    <path class="st3" d="M360.6,10.6v5.7c.1,0-.3,0-.3,0-.2-1.4-.7-2.6-1.6-3.5-.8-.9-1.7-1.3-2.7-1.3s-1.3.2-1.8.7c-.4.5-.7,1-.7,1.6s0,.7.2,1c.2.4.5.8,1,1.2.3.3,1.1.8,2.3,1.5,1.7,1,2.9,1.9,3.5,2.8.6.9.9,1.9.9,3s-.5,2.7-1.4,3.7c-1,1-2.2,1.5-3.7,1.5s-.9,0-1.3-.2c-.4-.1-.9-.3-1.6-.6-.3-.2-.6-.3-.9-.3s-.4,0-.6.3c-.2.2-.4.4-.5.8h-.4v-6.5h.4c.3,1.8.9,3.2,1.9,4.2.9,1,1.9,1.4,2.9,1.4s1.5-.3,1.9-.8c.5-.5.7-1.1.7-1.8s0-.8-.3-1.2c-.2-.4-.5-.7-.8-1.1-.4-.3-1-.8-2-1.3-1.3-.8-2.3-1.4-2.9-2-.6-.5-1-1.1-1.3-1.8-.3-.7-.5-1.4-.5-2.2,0-1.4.4-2.5,1.3-3.5.9-1,1.9-1.4,3.3-1.4s.9,0,1.4.2c.3.1.8.3,1.2.6.5.3.8.4,1,.4s.3,0,.4-.2c.1-.1.2-.5.3-1h.3"/>
    <path class="st3" d="M148.1,19.9v5.3c0,.9,0,1.5.1,1.7,0,.2.2.4.5.6.2.2.6.3,1,.3h.5v.4h-7.7v-.4h.5c.4,0,.8,0,1-.3.2-.1.3-.3.4-.6,0-.2.1-.7.1-1.6v-11.3c0-.9,0-1.4-.1-1.7,0-.2-.2-.4-.5-.6-.2-.2-.6-.3-1-.3h-.5v-.4h7.7v.4h-.5c-.4,0-.8,0-1,.3-.2.1-.3.3-.4.6,0,.2-.1.8-.1,1.6v4.9h5.2v-4.9c0-.9,0-1.4-.1-1.7,0-.2-.2-.4-.5-.6-.2-.2-.6-.3-1-.3h-.5v-.4h7.7v.4h-.5c-.4,0-.8,0-1,.3-.2.1-.3.3-.4.6,0,.2-.1.8-.1,1.6v11.3c0,.9,0,1.5.1,1.7,0,.2.2.4.5.6.2.2.6.3,1,.3h.5v.4h-7.7v-.4h.5c.4,0,.8,0,1-.3.2-.1.3-.3.4-.6,0-.2.1-.7.1-1.6v-5.3h-5.2"/>
    <path class="st3" d="M167.5,27.7v.4h-7.7v-.4h.5c.4,0,.8,0,1-.3.2-.1.3-.3.4-.6,0-.2.1-.7.1-1.6v-11.3c0-.9,0-1.4-.1-1.7,0-.2-.2-.4-.5-.6-.2-.2-.6-.3-1-.3h-.5v-.4h7.7v.4h-.5c-.4,0-.8,0-1,.3-.2.1-.3.3-.4.6,0,.2-.1.8-.1,1.6v11.3c0,.9,0,1.5.1,1.7,0,.2.2.4.5.6.2.2.6.3,1,.3h.5"/>
    <path class="st3" d="M308.1,27.7v.4h-7.7v-.4h.5c.4,0,.8,0,1-.3.2-.1.3-.3.4-.6,0-.2.1-.7.1-1.6v-11.3c0-.9,0-1.4-.1-1.7,0-.2-.2-.4-.5-.6-.2-.2-.6-.3-1-.3h-.5v-.4h7.7v.4h-.5c-.4,0-.8,0-1,.3-.2.1-.3.3-.4.6,0,.2-.1.8-.1,1.6v11.3c0,.9,0,1.5.1,1.7,0,.2.2.4.5.6.2.2.6.3,1,.3h.5"/>
    <path class="st3" d="M173.8,20.3v4.9c0,.9,0,1.5.1,1.8,0,.2.3.4.5.6.2.1.7.2,1.4.2v.4h-7.6v-.4c.7,0,1.2,0,1.4-.2.2-.2.4-.3.5-.6,0-.2.1-.8.1-1.7v-11.2c0-.9,0-1.5-.1-1.8,0-.2-.3-.4-.5-.6-.3-.1-.7-.2-1.4-.2v-.4h6.8c1.8,0,3.1.1,3.9.4.8.3,1.5.8,2,1.6.5.8.8,1.7.8,2.7s-.4,2.3-1.2,3.1c-.5.5-1.2.9-2.1,1.2l3.5,5.8c.5.8.8,1.2,1,1.4.3.3.6.4,1,.4v.5h-4.6l-4.7-7.8h-1M173.8,12v7.4h.6c1,0,1.8-.1,2.3-.3.5-.2.9-.6,1.2-1.1.3-.5.4-1.3.4-2.2,0-1.3-.3-2.2-.8-2.9-.5-.6-1.4-.9-2.5-.9h-1.2"/>
    <path class="st3" d="M193.3,23.2h-5.1l-.6,1.7c-.2.6-.3,1-.3,1.4s.2.9.5,1.1c.2.1.7.2,1.4.3v.4h-4.9v-.4c.5,0,1-.4,1.3-.8.3-.4.8-1.3,1.3-2.6l5.2-13.7h.2l5.3,14.1c.5,1.4.9,2.2,1.2,2.6.2.3.6.4,1,.5v.4h-7.1v-.4h.3c.6,0,1,0,1.2-.3.2-.1.2-.3.2-.6s0-.3,0-.5c0,0-.1-.4-.3-1l-.8-2.2M193,22.3l-2.2-5.9-2.3,5.9h4.4"/>
    <path class="st3" d="M238.3,23.2h-5.1l-.6,1.7c-.2.6-.3,1-.3,1.4s.2.9.5,1.1c.2.1.7.2,1.4.3v.4h-4.9v-.4c.5,0,1-.4,1.3-.8.3-.4.8-1.3,1.3-2.6l5.2-13.7h.2l5.3,14.1c.5,1.4.9,2.2,1.2,2.6.2.3.6.4,1,.5v.4h-7.1v-.4h.3c.6,0,1,0,1.2-.3.2-.1.2-.3.2-.6s0-.3,0-.5c0,0-.1-.4-.3-1l-.8-2.2M238,22.3l-2.2-5.9-2.3,5.9h4.4"/>
    <path class="st3" d="M318,23.2h-5.1l-.6,1.7c-.2.6-.3,1-.3,1.4s.2.9.5,1.1c.2.1.7.2,1.4.3v.4h-4.9v-.4c.5,0,1-.4,1.3-.8.3-.4.8-1.3,1.3-2.6l5.2-13.7h.2l5.3,14.1c.5,1.4.9,2.2,1.2,2.6.2.3.6.4,1,.5v.4h-7.1v-.4h.3c.6,0,1,0,1.2-.3.2-.1.2-.3.2-.6s0-.3,0-.5c0,0-.1-.4-.3-1l-.8-2.2M317.7,22.3l-2.2-5.9-2.3,5.9h4.4"/>
    <path class="st3" d="M217.9,18.2h4.3v.5c-.5,0-.9.3-1.1.5-.3.3-.6.9-1.1,1.8-.4.9-1.1,2-1.9,3.2.7.7,1.3,1.3,1.7,1.5.3.2.6.3.9.3.5,0,1-.4,1.4-1.2l.4.3c-.6,1.3-1.2,2.3-1.8,2.8-.5.4-1,.6-1.7.6s-1.1-.1-1.5-.4c-.5-.3-1.1-.8-1.8-1.5-.9.7-1.7,1.2-2.4,1.5-.8.3-1.6.5-2.4.5-1.3,0-2.4-.4-3.1-1.3-.8-.8-1.2-1.8-1.2-3s.4-2.3,1.1-3.2c.7-.9,1.8-1.7,3.2-2.4-.2-.5-.3-1.1-.4-1.6,0-.5-.1-1-.1-1.5,0-1.3.4-2.4,1.2-3.3.8-.9,1.8-1.3,3-1.3s1.8.3,2.3.9c.6.6.9,1.2.9,2s-.3,1.7-.9,2.4c-.6.7-1.5,1.3-2.8,1.8.8,1.6,1.9,3.4,3.4,5.3,1-1.4,1.5-2.5,1.5-3.5s0-.6-.3-.9c-.2-.2-.5-.4-.9-.4v-.5M211.3,19.5c-.6.3-1,.6-1.2.9-.3.5-.5,1-.5,1.5s.2,1.5.6,2.3c.4.8.8,1.3,1.4,1.8.5.4,1.1.6,1.6.6s.6,0,.9-.2c.3-.1.7-.3,1.1-.6-1.7-2-2.9-4.1-3.8-6.3M213.8,17.5c.7-.3,1.2-.7,1.5-1,.2-.4.4-.8.4-1.3,0-.9-.2-1.7-.6-2.3-.3-.4-.6-.6-1-.6s-.6.2-.8.5c-.2.3-.3.7-.3,1.2s0,.8.2,1.3c.1.5.4,1.2.8,2.3"/>
    <path class="st3" d="M276.6,10.7c2.3-.1,4.2.7,5.6,2.4,1.5,1.7,2.2,3.8,2.2,6.4s-.5,4.1-1.6,5.8c-1.4,2.2-3.5,3.3-6.1,3.3s-4.6-1-6.1-3.1c-1.1-1.7-1.7-3.6-1.7-5.9s.7-4.7,2.2-6.4c1.5-1.7,3.3-2.5,5.4-2.4M276.7,11.5c-1.3,0-2.3.8-3,2.4-.6,1.3-.8,3.2-.8,5.7s.4,5.1,1.3,6.5c.6,1,1.5,1.5,2.5,1.5s1.4-.2,1.8-.6c.6-.5,1.1-1.4,1.5-2.6.3-1.2.5-2.7.5-4.6s-.2-4-.5-5.1c-.4-1.1-.8-1.9-1.4-2.4-.6-.5-1.2-.7-1.9-.7"/>
    <path class="st3" d="M299.3,10.6v6h-.4c-.3-1.6-.9-2.8-1.8-3.6-.9-.8-1.8-1.3-2.9-1.3s-1.7.3-2.5.9c-.8.6-1.3,1.4-1.7,2.4-.5,1.3-.7,2.7-.7,4.3s.2,2.9.5,4.2c.3,1.3.8,2.2,1.5,2.9.7.6,1.6,1,2.7,1s1.8-.2,2.5-.7c.8-.5,1.6-1.3,2.4-2.4v1.5c-.8,1-1.7,1.7-2.6,2.2-.9.4-1.9.7-3.1.7s-2.9-.4-4.1-1.1c-1.2-.7-2.1-1.8-2.8-3.2-.7-1.4-1-2.9-1-4.4s.4-3.2,1.1-4.7c.7-1.5,1.7-2.6,3-3.4,1.2-.8,2.5-1.2,3.9-1.2s2.1.3,3.2.8c.7.3,1.1.5,1.3.5s.4,0,.6-.3c.2-.2.3-.5.3-.9h.4"/>
    <path class="st3" d="M335.9,11v4.6h-.4c-.2-1.1-.5-1.8-.8-2.3-.3-.5-.7-.8-1.1-1.1-.3-.2-.7-.2-1.4-.2h-1.1v13.3c0,.9,0,1.4.1,1.7,0,.2.2.4.5.6.2.2.6.2,1,.2h.5v.4h-7.6v-.4h.5c.4,0,.8,0,1-.3.2-.1.3-.3.4-.6,0-.2.1-.7.1-1.6v-13.3h-1.1c-1,0-1.7.2-2.1.7-.6.7-1,1.6-1.2,2.9h-.4v-4.6h13.1"/>
  </g>
  <g>
    <rect class="st1" x="-1.9" y="9.4" width="26.2" height="3.7" transform="translate(-4.7 11.3) rotate(-45)"/>
    <rect class="st2" x="3.4" y="14.7" width="26.2" height="3.7" transform="translate(-6.9 16.6) rotate(-45)"/>
    <rect class="st0" x="8.7" y="20" width="26.2" height="3.7" transform="translate(-9.1 21.8) rotate(-45)"/>
    <rect class="st5" x="14" y="25.3" width="26.2" height="3.7" transform="translate(-11.3 27.1) rotate(-45)"/>
  </g>
  <path class="st3" d="M122.5,37.7h-2v1.1h0c0,0,.8,0,.8,0v.8h1.2v-2Z"/>
  <path class="st3" d="M54.7,46.8h-4.3l-.8,2.2h-1.4l3.6-9.6h1.5l3.6,9.6h-1.4l-.8-2.2ZM54.4,45.8l-1.8-4.9-1.8,4.9h3.6Z"/>
  <path class="st3" d="M64.6,42.1c.6.6.9,1.4.9,2.4v4.5h-1.3v-4.3c0-.8-.2-1.3-.6-1.7-.4-.4-.9-.6-1.6-.6s-1.2.2-1.6.6c-.4.4-.6,1-.6,1.8v4.2h-1.3v-7.6h1.3v1.1c.3-.4.6-.7,1-.9.4-.2.9-.3,1.5-.3,1,0,1.7.3,2.3.8Z"/>
  <path class="st3" d="M151.6,41.6c.4-.8,1-1.3,1.8-1.8.8-.4,1.6-.6,2.5-.6s2,.3,2.8.8c.8.5,1.4,1.2,1.8,2.2h-1.6c-.3-.6-.7-1-1.2-1.3-.5-.3-1.1-.5-1.9-.5s-1.3.2-1.9.5-1,.8-1.3,1.3-.5,1.3-.5,2,.2,1.4.5,2c.3.6.7,1,1.3,1.3s1.2.5,1.9.5,1.3-.2,1.9-.5c.5-.3.9-.8,1.2-1.3h1.6c-.4.9-1,1.6-1.8,2.1-.8.5-1.8.8-2.8.8s-1.8-.2-2.5-.6c-.8-.4-1.4-1-1.8-1.8-.4-.8-.7-1.6-.7-2.5s.2-1.8.7-2.6Z"/>
  <path class="st3" d="M163.9,48.6c-.6-.3-1.1-.8-1.4-1.4-.3-.6-.5-1.3-.5-2.1s.2-1.5.5-2.1c.3-.6.8-1.1,1.4-1.4.6-.3,1.3-.5,2-.5s1.4.2,2,.5c.6.3,1.1.8,1.4,1.4.3.6.5,1.3.5,2.1s-.2,1.5-.5,2.1c-.4.6-.8,1.1-1.4,1.4-.6.3-1.3.5-2,.5s-1.4-.2-2-.5ZM167.2,47.7c.4-.2.7-.5,1-1,.3-.4.4-.9.4-1.6s-.1-1.1-.4-1.6c-.2-.4-.6-.7-1-1-.4-.2-.8-.3-1.3-.3s-.9.1-1.3.3c-.4.2-.7.5-.9,1-.2.4-.4.9-.4,1.6s.1,1.1.3,1.6c.2.4.5.7.9,1,.4.2.8.3,1.3.3s.9-.1,1.3-.3Z"/>
  <path class="st3" d="M182.6,41.6c.5.2.9.6,1.1,1.1.3.5.4,1.1.4,1.8v4.5h-1.3v-4.3c0-.8-.2-1.3-.6-1.7-.4-.4-.9-.6-1.6-.6s-1.2.2-1.6.6c-.4.4-.6,1-.6,1.8v4.2h-1.3v-4.3c0-.8-.2-1.3-.6-1.7-.4-.4-.9-.6-1.6-.6s-1.2.2-1.6.6c-.4.4-.6,1-.6,1.8v4.2h-1.3v-7.6h1.3v1.1c.3-.4.6-.7,1-.9.4-.2.9-.3,1.4-.3s1.2.1,1.7.4c.5.3.9.7,1.1,1.3.2-.5.6-1,1.1-1.3.5-.3,1.1-.4,1.7-.4s1.2.1,1.6.4Z"/>
  <path class="st3" d="M188.7,41.7c.5-.3,1.1-.4,1.8-.4s1.3.2,1.9.5c.6.3,1,.8,1.3,1.4.3.6.5,1.3.5,2.1s-.2,1.5-.5,2.1c-.3.6-.8,1.1-1.3,1.4s-1.2.5-1.9.5-1.3-.1-1.8-.4-.9-.7-1.2-1.1v5h-1.3v-11.2h1.3v1.4c.3-.4.6-.8,1.1-1.1ZM192.5,43.7c-.2-.4-.6-.8-1-1-.4-.2-.8-.3-1.3-.3s-.9.1-1.3.3c-.4.2-.7.6-1,1s-.4.9-.4,1.5.1,1.1.4,1.5.6.8,1,1c.4.2.8.3,1.3.3s.9-.1,1.3-.3c.4-.2.7-.6,1-1s.4-.9.4-1.5-.1-1.1-.4-1.5Z"/>
  <path class="st3" d="M195.9,43.1c.3-.6.8-1,1.3-1.4.6-.3,1.2-.5,1.9-.5s1.3.1,1.8.4.9.6,1.1,1.1v-1.4h1.3v7.6h-1.3v-1.4c-.3.4-.6.8-1.1,1.1s-1.1.4-1.8.4-1.3-.2-1.9-.5c-.6-.3-1-.8-1.3-1.4s-.5-1.3-.5-2.1.2-1.5.5-2.1ZM201.7,43.7c-.2-.4-.6-.8-1-1-.4-.2-.8-.3-1.3-.3s-.9.1-1.3.3c-.4.2-.7.5-1,1-.2.4-.4.9-.4,1.5s.1,1.1.4,1.5c.2.4.6.8,1,1,.4.2.8.3,1.3.3s.9-.1,1.3-.3c.4-.2.7-.6,1-1,.2-.4.4-.9.4-1.5s-.1-1.1-.4-1.5Z"/>
  <path class="st3" d="M211.7,42.1c.6.6.9,1.4.9,2.4v4.5h-1.3v-4.3c0-.8-.2-1.3-.6-1.7-.4-.4-.9-.6-1.6-.6s-1.2.2-1.6.6c-.4.4-.6,1-.6,1.8v4.2h-1.3v-7.6h1.3v1.1c.3-.4.6-.7,1-.9.4-.2.9-.3,1.5-.3,1,0,1.7.3,2.3.8Z"/>
  <path class="st3" d="M221.4,41.4l-4.7,11.2h-1.3l1.5-3.7-3.2-7.5h1.4l2.5,6.2,2.4-6.2h1.3Z"/>
  <path class="st3" d="M83,43c0,.2.1.4.4.5.3.1.6.3,1,.4.4.1.8.2,1.2.4.4.2.8.4,1,.8.3.4.4.8.4,1.4,0,.8-.3,1.5-.9,1.9-.6.4-1.4.7-2.3.7-1.7,0-2.8-.6-3.4-1.9l1.8-1c.2.7.8,1,1.6,1s1.1-.2,1.1-.7-.1-.4-.4-.5c-.3-.1-.6-.3-1-.4-.4-.1-.8-.2-1.2-.4-.4-.2-.8-.4-1-.8-.3-.3-.4-.8-.4-1.3,0-.8.3-1.4.9-1.9.6-.5,1.3-.7,2.2-.7s1.3.1,1.8.4c.5.3,1,.7,1.3,1.3l-1.8,1c-.3-.5-.7-.8-1.3-.8s-.5,0-.7.2-.3.3-.3.5h0s0,0,0,0Z"/>
  <path class="st3" d="M92.1,49c-1.2,0-2.2-.4-3-1.2-.8-.8-1.2-1.8-1.2-3s.4-2.2,1.2-3c.8-.8,1.8-1.2,3-1.2s1.5.2,2.1.6,1.1.9,1.5,1.5l-1.8,1c-.2-.3-.4-.6-.7-.8-.3-.2-.7-.3-1.1-.3-.6,0-1.1.2-1.5.6-.4.4-.6.9-.6,1.6s.2,1.1.6,1.6c.4.4.9.6,1.5.6s.8,0,1.1-.3.6-.4.7-.8l1.8,1c-.4.6-.9,1.1-1.5,1.5-.6.4-1.4.6-2.1.6h0s0,0,0,0Z"/>
  <path class="st3" d="M98.4,45.6c.3,1,1,1.5,2.3,1.5s1.4-.3,1.8-.8l1.7,1c-.8,1.1-2,1.7-3.5,1.7s-2.4-.4-3.2-1.2-1.2-1.8-1.2-3,.4-2.2,1.2-3c.8-.8,1.8-1.2,3.1-1.2s2.2.4,2.9,1.2c.8.8,1.1,1.8,1.1,3s0,.6,0,.8h-6.1,0s0,0,0,0ZM98.4,44h4.1c-.1-.5-.4-1-.7-1.2-.4-.3-.8-.4-1.3-.4s-1,.1-1.4.4c-.4.3-.6.7-.7,1.2h0s0,0,0,0Z"/>
  <path class="st3" d="M110.5,40.5c.9,0,1.6.3,2.2.9.6.6.9,1.4.9,2.5v5h-2.1v-4.8c0-.6-.1-1-.4-1.3-.3-.3-.7-.4-1.2-.4s-1,.2-1.3.5c-.3.3-.5.8-.5,1.5v4.4h-2.1v-8.2h2.1v.9c.5-.8,1.3-1.1,2.5-1.1h0Z"/>
  <path class="st3" d="M119,42.6v-2.1h-1.9v-2.2l-2.1.7v7.1c0,1.1.3,1.9.9,2.4.6.4,1.6.6,3.1.4v-1.9c-.4,0-.8,0-1,0-.3,0-.5,0-.6-.2-.1-.1-.2-.3-.2-.6v-3.6h1.9,0Z"/>
  <path class="st3" d="M129.6,40.5h2.1v8.5h-2.1v-1.2c-.5.8-1.3,1.2-2.5,1.2s-1.7-.3-2.2-.9c-.6-.6-.9-1.4-.9-2.5v-5.1h2.1v4.8c0,.6.1,1,.4,1.3.3.3.7.4,1.2.4s1-.2,1.3-.5c.3-.3.5-.8.5-1.5v-4.4h0Z"/>
  <path class="st3" d="M142.4,40.5c.9,0,1.7.3,2.3.9.6.6.8,1.4.8,2.5v5.1h-2.1v-4.9c0-.5-.1-.9-.4-1.1-.2-.3-.6-.4-1-.4s-.9.2-1.1.5c-.3.3-.4.8-.4,1.4v4.6h-2.1v-4.9c0-.5-.1-.9-.4-1.1-.2-.3-.6-.4-1-.4s-.8.2-1.1.5c-.3.3-.4.8-.4,1.4v4.6h-2.1v-8.2h2.1v.9c.5-.7,1.3-1.1,2.3-1.1s1.8.4,2.2,1.2c.5-.8,1.4-1.2,2.5-1.2h0Z"/>
  <path class="st3" d="M120.4,49v-8.5h2.1v8.5h-2.1Z"/>
  <polygon class="st4" points="75.9 40.5 75.9 42.6 77.3 42.6 77.3 44 79.4 44 79.4 40.5 75.9 40.5"/>
  <path class="st3" d="M77.2,45.6c-.1.3-.3.5-.5.8-.4.4-1,.6-1.6.6s-1.2-.2-1.6-.6-.6-1-.6-1.6.2-1.2.6-1.6c.2-.2.5-.4.8-.5v-2.1h-.1c-.9.1-1.6.5-2.3,1.2-.8.8-1.1,1.8-1.1,3s.4,2.2,1.1,3c.8.8,1.7,1.2,2.8,1.2s2-.4,2.6-1.2v1.2h2.1v-3.4h-2.2Z"/>
</svg>