<?xml version="1.0" encoding="UTF-8"?>
<svg id="Layer_1" xmlns="http://www.w3.org/2000/svg" version="1.1" viewBox="0 0 362 53">
  <!-- Generator: Adobe Illustrator 29.5.1, SVG Export Plug-In . SVG Version: 2.1.0 Build 141)  -->
  <defs>
    <style>
      .st0 {
        fill: #656fab;
      }

      .st1 {
        fill: #101514;
      }

      .st2 {
        fill: #f57f3b;
      }

      .st3 {
        fill: #1a171b;
      }

      .st4 {
        fill: #fccc1a;
      }

      .st5 {
        fill: #0f8a44;
      }

      .st6 {
        fill: #df1f26;
      }
    </style>
  </defs>
  <g>
    <path class="st3" d="M48.4,23.6v-.4h.5c.4,0,.8,0,1-.2.2-.2.4-.4.5-.7,0-.2,0-.7,0-1.6v-11.3c0-.9,0-1.4-.1-1.7,0-.2-.2-.4-.5-.6-.2-.2-.6-.3-1-.3h-.5v-.4h6.6c1.7,0,3.2.3,4.2.8,1.3.7,2.3,1.7,3,3.1.7,1.4,1,2.9,1,4.7s-.2,2.3-.5,3.3c-.3,1-.8,1.9-1.3,2.5-.5.7-1.1,1.2-1.8,1.6-.7.4-1.5.7-2.5.9-.4,0-1.1.1-2.1.1h-6.6M53.9,7.4v13.4c0,.7,0,1.1,0,1.3,0,.2.2.3.3.4.2.1.5.2.8.2,1.2,0,2.1-.5,2.7-1.4.9-1.3,1.3-3.3,1.3-6s-.3-4-.9-5.3c-.5-1-1.1-1.7-1.8-2.1-.5-.3-1.4-.4-2.6-.4"/>
    <path class="st3" d="M69,7.5v7h.3c.9,0,1.6-.3,2-1,.4-.7.7-1.7.8-3h.4v9h-.4c0-1-.3-1.8-.6-2.4-.3-.6-.6-1-1-1.3-.4-.2-.9-.3-1.6-.3v4.8c0,.9,0,1.5.1,1.7,0,.2.2.4.4.5.2.1.5.2.9.2h.9c1.4,0,2.5-.4,3.3-1.1.8-.7,1.4-1.9,1.8-3.4h.4l-.7,5.4h-12.7v-.4h.5c.4,0,.8,0,1-.3.2-.1.3-.3.4-.6,0-.2.1-.7.1-1.6v-11.3c0-.8,0-1.3,0-1.5,0-.3-.2-.5-.4-.7-.3-.2-.7-.4-1.1-.4h-.5v-.4h12.3v5.1h-.4c-.2-1.2-.5-2.1-.9-2.7-.4-.5-.9-.9-1.6-1.2-.4-.2-1.2-.2-2.3-.2h-1.5"/>
    <path class="st3" d="M341.9,7.5v7h.3c.9,0,1.6-.3,2-1,.4-.7.7-1.7.8-3h.4v9h-.4c0-1-.3-1.8-.6-2.4-.3-.6-.6-1-1-1.3-.4-.2-.9-.3-1.6-.3v4.8c0,.9,0,1.5.1,1.7,0,.2.2.4.4.5.2.1.5.2.9.2h.9c1.4,0,2.5-.4,3.3-1.1.8-.7,1.4-1.9,1.8-3.4h.4l-.7,5.4h-12.7v-.4h.5c.4,0,.8,0,1-.3.2-.1.3-.3.4-.6,0-.2.1-.7.1-1.6v-11.3c0-.8,0-1.3,0-1.5,0-.3-.2-.5-.4-.7-.3-.2-.7-.4-1.1-.4h-.5v-.4h12.3v5.1h-.4c-.2-1.2-.5-2.1-.9-2.7-.4-.5-.9-.9-1.6-1.2-.4-.2-1.2-.2-2.3-.2h-1.5"/>
    <path class="st3" d="M90.2,6.4l-8.6,16.2h2.8c1.3,0,2.2,0,2.8-.3.9-.3,1.6-.9,2.2-1.7.6-.8,1-1.9,1.3-3.3h.4l-.6,6.2h-13.4l8.7-16.2h-2.2c-.8,0-1.4,0-1.7,0-.5.1-1,.3-1.4.6-.4.3-.8.8-1.1,1.3-.3.5-.5,1.2-.7,2h-.4l.4-5h11.6"/>
    <path class="st3" d="M100.3,18.7h-5.1l-.6,1.7c-.2.6-.3,1-.3,1.4s.2.9.5,1.1c.2.1.7.2,1.4.3v.4h-4.9v-.4c.5,0,1-.4,1.3-.8.3-.4.8-1.3,1.3-2.6l5.2-13.7h.2l5.2,14.1c.5,1.4.9,2.2,1.2,2.6.2.3.6.4,1,.5v.4h-7v-.4h.3c.6,0,1,0,1.2-.3.2-.1.2-.3.2-.6s0-.3,0-.5c0,0-.1-.4-.3-1l-.8-2.2M100,17.7l-2.2-5.9-2.3,5.9h4.4"/>
    <path class="st3" d="M112.6,6.4l7.2,10.5v-7.3c0-1-.1-1.7-.4-2.1-.3-.5-.9-.7-1.7-.7v-.4h4.8v.4c-.6,0-1,.2-1.2.4-.2.2-.4.4-.5.7-.1.3-.2.9-.2,1.7v14.3h-.4l-9.9-14.2v10.9c0,1,.2,1.7.6,2,.4.3.8.5,1.3.5h.4v.4h-5.2v-.4c.8,0,1.4-.2,1.7-.6.3-.4.5-1,.5-1.9v-12.1l-.3-.5c-.3-.5-.6-.8-.8-1-.2-.2-.6-.2-1-.3v-.4h5.2"/>
    <path class="st3" d="M140.9,6.1v5.7c.1,0-.3,0-.3,0-.2-1.4-.7-2.6-1.6-3.5-.8-.9-1.7-1.3-2.7-1.3s-1.3.2-1.8.7c-.4.5-.6,1-.6,1.6s0,.7.2,1c.2.4.5.8,1,1.2.3.3,1.1.8,2.3,1.5,1.7,1,2.9,1.9,3.5,2.8.6.9.9,1.9.9,3s-.5,2.7-1.4,3.7c-1,1-2.2,1.5-3.7,1.5s-.9,0-1.3-.2c-.4-.1-.9-.3-1.6-.6-.3-.2-.6-.3-.9-.3s-.4,0-.6.3c-.2.2-.4.4-.5.8h-.4v-6.5h.4c.3,1.8.9,3.2,1.8,4.1.9,1,1.9,1.4,2.9,1.4s1.5-.3,1.9-.8c.5-.5.7-1.1.7-1.8s0-.8-.3-1.2c-.2-.4-.5-.7-.8-1.1-.4-.3-1-.8-2-1.3-1.3-.8-2.3-1.4-2.9-2-.6-.5-1-1.1-1.3-1.8-.3-.7-.5-1.4-.5-2.2,0-1.4.4-2.5,1.3-3.5.9-1,1.9-1.4,3.2-1.4s.9,0,1.4.2c.3.1.8.3,1.2.6.5.3.8.4,1,.4s.3,0,.4-.2c.1-.1.2-.5.3-1h.3"/>
    <path class="st3" d="M254.8,6.1v5.7c.1,0-.3,0-.3,0-.2-1.4-.7-2.6-1.5-3.5-.8-.9-1.7-1.3-2.7-1.3s-1.3.2-1.8.7c-.4.5-.6,1-.6,1.6s0,.7.2,1c.2.4.5.8,1,1.2.3.3,1.1.8,2.3,1.5,1.7,1,2.9,1.9,3.5,2.8.6.9.9,1.9.9,3s-.5,2.7-1.4,3.7c-1,1-2.2,1.5-3.7,1.5s-.9,0-1.3-.2c-.4-.1-.9-.3-1.6-.6-.3-.2-.6-.3-.9-.3s-.4,0-.6.3c-.2.2-.4.4-.5.8h-.4v-6.5h.4c.3,1.8.9,3.2,1.8,4.1.9,1,1.9,1.4,2.9,1.4s1.5-.3,1.9-.8c.5-.5.7-1.1.7-1.8s0-.8-.3-1.2c-.2-.4-.5-.7-.8-1.1-.4-.3-1-.8-2-1.3-1.3-.8-2.3-1.4-2.9-2-.6-.5-1-1.1-1.3-1.8-.3-.7-.5-1.4-.5-2.2,0-1.4.4-2.5,1.3-3.5.9-1,1.9-1.4,3.2-1.4s.9,0,1.4.2c.3.1.8.3,1.2.6.5.3.8.4,1,.4s.3,0,.4-.2c.1-.1.2-.5.3-1h.3"/>
    <path class="st3" d="M266.5,6.1v5.7c.1,0-.3,0-.3,0-.2-1.4-.7-2.6-1.6-3.5-.8-.9-1.7-1.3-2.7-1.3s-1.3.2-1.8.7c-.4.5-.6,1-.6,1.6s0,.7.2,1c.2.4.5.8,1,1.2.3.3,1.1.8,2.3,1.5,1.7,1,2.9,1.9,3.5,2.8.6.9.9,1.9.9,3s-.5,2.7-1.4,3.7c-1,1-2.2,1.5-3.7,1.5s-.9,0-1.3-.2c-.4-.1-.9-.3-1.6-.6-.3-.2-.6-.3-.9-.3s-.4,0-.6.3c-.2.2-.4.4-.5.8h-.4v-6.5h.4c.3,1.8.9,3.2,1.8,4.1.9,1,1.9,1.4,2.9,1.4s1.5-.3,1.9-.8c.5-.5.7-1.1.7-1.8s0-.8-.3-1.2c-.2-.4-.5-.7-.8-1.1-.4-.3-1-.8-2-1.3-1.3-.8-2.3-1.4-2.9-2-.6-.5-1-1.1-1.3-1.8-.3-.7-.5-1.4-.5-2.2,0-1.4.4-2.5,1.3-3.5.9-1,1.9-1.4,3.2-1.4s.9,0,1.4.2c.3.1.8.3,1.2.6.5.3.8.4,1,.4s.3,0,.4-.2c.1-.1.2-.5.3-1h.3"/>
    <path class="st3" d="M360,6.1v5.7c.1,0-.3,0-.3,0-.2-1.4-.7-2.6-1.6-3.5-.8-.9-1.7-1.3-2.7-1.3s-1.3.2-1.8.7c-.4.5-.6,1-.6,1.6s0,.7.2,1c.2.4.5.8,1,1.2.3.3,1.1.8,2.3,1.5,1.7,1,2.9,1.9,3.5,2.8.6.9.9,1.9.9,3s-.5,2.7-1.4,3.7c-1,1-2.2,1.5-3.7,1.5s-.9,0-1.3-.2c-.4-.1-.9-.3-1.6-.6-.3-.2-.6-.3-.9-.3s-.4,0-.6.3c-.2.2-.4.4-.5.8h-.4v-6.5h.4c.3,1.8.9,3.2,1.8,4.1.9,1,1.9,1.4,2.9,1.4s1.5-.3,1.9-.8c.5-.5.7-1.1.7-1.8s0-.8-.3-1.2c-.2-.4-.5-.7-.8-1.1-.4-.3-1-.8-2-1.3-1.3-.8-2.3-1.4-2.9-2-.6-.5-1-1.1-1.3-1.8-.3-.7-.5-1.4-.5-2.2,0-1.4.4-2.5,1.3-3.5.9-1,1.9-1.4,3.2-1.4s.9,0,1.4.2c.3.1.8.3,1.2.6.5.3.8.4,1,.4s.3,0,.4-.2c.1-.1.2-.5.3-1h.3"/>
    <path class="st3" d="M148,15.4v5.3c0,.9,0,1.5.1,1.7,0,.2.2.4.5.6.2.2.6.3,1,.3h.5v.4h-7.6v-.4h.5c.4,0,.8,0,1-.3.2-.1.3-.3.4-.6,0-.2.1-.7.1-1.6v-11.3c0-.9,0-1.4-.1-1.7,0-.2-.2-.4-.5-.6-.2-.2-.6-.3-1-.3h-.5v-.4h7.6v.4h-.5c-.4,0-.8,0-1,.3-.2.1-.3.3-.4.6,0,.2-.1.7-.1,1.6v4.8h5.2v-4.8c0-.9,0-1.4-.1-1.7,0-.2-.2-.4-.5-.6-.2-.2-.6-.3-1-.3h-.5v-.4h7.6v.4h-.5c-.4,0-.8,0-1,.3-.2.1-.3.3-.4.6,0,.2-.1.7-.1,1.6v11.3c0,.9,0,1.5.1,1.7,0,.2.2.4.5.6.2.2.6.3,1,.3h.5v.4h-7.6v-.4h.5c.4,0,.8,0,1-.3.2-.1.3-.3.4-.6,0-.2.1-.7.1-1.6v-5.3h-5.2"/>
    <path class="st3" d="M167.4,23.2v.4h-7.6v-.4h.5c.4,0,.8,0,1-.3.2-.1.3-.3.4-.6,0-.2.1-.7.1-1.6v-11.3c0-.9,0-1.4-.1-1.7,0-.2-.2-.4-.5-.6-.2-.2-.6-.3-1-.3h-.5v-.4h7.6v.4h-.5c-.4,0-.8,0-1,.3-.2.1-.3.3-.4.6,0,.2-.1.7-.1,1.6v11.3c0,.9,0,1.5.1,1.7,0,.2.2.4.5.6.2.2.6.3,1,.3h.5"/>
    <path class="st3" d="M307.6,23.2v.4h-7.6v-.4h.5c.4,0,.8,0,1-.3.2-.1.3-.3.4-.6,0-.2.1-.7.1-1.6v-11.3c0-.9,0-1.4-.1-1.7,0-.2-.2-.4-.5-.6-.2-.2-.6-.3-1-.3h-.5v-.4h7.6v.4h-.5c-.4,0-.8,0-1,.3-.2.1-.3.3-.4.6,0,.2-.1.7-.1,1.6v11.3c0,.9,0,1.5.1,1.7,0,.2.2.4.5.6.2.2.6.3,1,.3h.5"/>
    <path class="st3" d="M173.7,15.8v4.8c0,.9,0,1.5.1,1.7,0,.2.3.4.5.6.2.1.7.2,1.4.2v.4h-7.6v-.4c.7,0,1.2,0,1.4-.2.2-.2.4-.3.5-.6,0-.2.1-.8.1-1.7v-11.2c0-.9,0-1.5-.1-1.8,0-.2-.3-.4-.5-.6-.2-.1-.7-.2-1.4-.2v-.4h6.8c1.8,0,3.1.1,3.9.4.8.3,1.5.8,2,1.6.5.8.8,1.7.8,2.7s-.4,2.3-1.2,3.1c-.5.5-1.2.9-2.1,1.2l3.5,5.8c.5.8.8,1.2,1,1.4.3.3.6.4,1,.4v.5h-4.6l-4.7-7.8h-1M173.7,7.4v7.4h.6c1,0,1.8-.1,2.3-.3.5-.2.9-.6,1.2-1.1.3-.5.4-1.3.4-2.2,0-1.3-.3-2.2-.8-2.8-.5-.6-1.4-.9-2.5-.9h-1.2"/>
    <path class="st3" d="M193.2,18.7h-5.1l-.6,1.7c-.2.6-.3,1-.3,1.4s.2.9.5,1.1c.2.1.7.2,1.4.3v.4h-4.9v-.4c.5,0,1-.4,1.3-.8.3-.4.8-1.3,1.3-2.6l5.2-13.7h.2l5.2,14.1c.5,1.4.9,2.2,1.2,2.6.2.3.6.4,1,.5v.4h-7v-.4h.3c.6,0,1,0,1.2-.3.2-.1.2-.3.2-.6s0-.3,0-.5c0,0-.1-.4-.3-1l-.8-2.2M192.8,17.7l-2.2-5.9-2.3,5.9h4.4"/>
    <path class="st3" d="M238,18.7h-5.1l-.6,1.7c-.2.6-.3,1-.3,1.4s.2.9.5,1.1c.2.1.7.2,1.4.3v.4h-4.9v-.4c.5,0,1-.4,1.3-.8.3-.4.8-1.3,1.3-2.6l5.2-13.7h.2l5.2,14.1c.5,1.4.9,2.2,1.2,2.6.2.3.6.4,1,.5v.4h-7v-.4h.3c.6,0,1,0,1.2-.3.2-.1.2-.3.2-.6s0-.3,0-.5c0,0-.1-.4-.3-1l-.8-2.2M237.7,17.7l-2.2-5.9-2.3,5.9h4.4"/>
    <path class="st3" d="M317.5,18.7h-5.1l-.6,1.7c-.2.6-.3,1-.3,1.4s.2.9.5,1.1c.2.1.7.2,1.4.3v.4h-4.9v-.4c.5,0,1-.4,1.3-.8.3-.4.8-1.3,1.3-2.6l5.2-13.7h.2l5.2,14.1c.5,1.4.9,2.2,1.2,2.6.2.3.6.4,1,.5v.4h-7v-.4h.3c.6,0,1,0,1.2-.3.2-.1.2-.3.2-.6s0-.3,0-.5c0,0-.1-.4-.3-1l-.8-2.2M317.2,17.7l-2.2-5.9-2.3,5.9h4.4"/>
    <path class="st3" d="M217.7,13.6h4.3v.5c-.5,0-.9.3-1.1.5-.3.3-.6.9-1.1,1.8-.4.9-1.1,2-1.9,3.2.7.7,1.3,1.2,1.7,1.5.3.2.6.3.9.3.5,0,1-.4,1.4-1.2l.4.3c-.6,1.3-1.2,2.3-1.8,2.8-.5.4-1,.6-1.7.6s-1.1-.1-1.5-.4c-.5-.3-1.1-.8-1.8-1.5-.9.7-1.7,1.2-2.4,1.5-.8.3-1.6.5-2.4.5-1.3,0-2.3-.4-3.1-1.3-.8-.8-1.2-1.8-1.2-3s.4-2.3,1.1-3.2c.7-.9,1.8-1.7,3.2-2.3-.2-.5-.3-1-.4-1.6,0-.5-.1-1-.1-1.5,0-1.3.4-2.4,1.2-3.3.8-.9,1.8-1.3,3-1.3s1.8.3,2.3.9c.6.6.9,1.2.9,2s-.3,1.7-.9,2.4c-.6.7-1.5,1.3-2.8,1.8.8,1.6,1.9,3.4,3.4,5.3,1-1.4,1.5-2.5,1.5-3.5s0-.6-.3-.9c-.2-.2-.5-.4-.9-.4v-.5M211.1,15c-.6.3-1,.6-1.2.9-.3.5-.5,1-.5,1.5s.2,1.5.6,2.3c.4.8.8,1.3,1.4,1.8.5.4,1.1.6,1.6.6s.6,0,.9-.2c.3-.1.7-.3,1.1-.6-1.7-2-2.9-4.1-3.8-6.3M213.6,12.9c.7-.3,1.2-.7,1.5-1,.2-.4.4-.8.4-1.3,0-.9-.2-1.7-.6-2.3-.3-.4-.6-.6-1-.6s-.6.1-.8.4c-.2.3-.3.7-.3,1.2s0,.8.2,1.3c.1.5.4,1.2.8,2.3"/>
    <path class="st3" d="M276.2,6.2c2.3-.1,4.2.7,5.6,2.4,1.4,1.7,2.2,3.8,2.2,6.4s-.5,4.1-1.6,5.7c-1.4,2.2-3.4,3.3-6,3.3s-4.6-1-6-3.1c-1.1-1.6-1.7-3.6-1.7-5.9s.7-4.7,2.2-6.4c1.5-1.7,3.3-2.5,5.4-2.4M276.3,7c-1.3,0-2.3.8-3,2.4-.6,1.3-.8,3.2-.8,5.7s.4,5.1,1.3,6.5c.6,1,1.5,1.5,2.5,1.5s1.4-.2,1.8-.6c.6-.5,1.1-1.4,1.5-2.6.3-1.2.5-2.7.5-4.6s-.2-4-.5-5.1c-.4-1.1-.8-1.9-1.4-2.4-.6-.5-1.2-.7-1.9-.7"/>
    <path class="st3" d="M298.8,6.1v6h-.4c-.3-1.6-.9-2.8-1.8-3.6-.9-.8-1.8-1.2-2.9-1.2s-1.7.3-2.5.9c-.8.6-1.3,1.4-1.7,2.4-.4,1.3-.7,2.7-.7,4.3s.2,2.9.5,4.2c.3,1.3.8,2.2,1.5,2.9.7.6,1.6,1,2.7,1s1.7-.2,2.5-.7c.8-.5,1.6-1.3,2.4-2.4v1.5c-.8,1-1.7,1.7-2.5,2.2-.9.4-1.9.7-3.1.7s-2.9-.4-4.1-1.1c-1.2-.7-2.1-1.8-2.8-3.2-.7-1.4-1-2.8-1-4.4s.4-3.2,1.1-4.7c.7-1.5,1.7-2.6,2.9-3.4,1.2-.8,2.5-1.2,3.9-1.2s2.1.3,3.2.8c.7.3,1.1.5,1.3.5s.4,0,.6-.3c.2-.2.3-.5.3-.9h.4"/>
    <path class="st3" d="M335.3,6.4v4.6h-.4c-.2-1.1-.5-1.8-.8-2.3-.3-.5-.7-.8-1.1-1.1-.3-.2-.7-.2-1.4-.2h-1.1v13.2c0,.9,0,1.4.1,1.6,0,.2.2.4.5.6.2.2.6.2,1,.2h.5v.4h-7.6v-.4h.5c.4,0,.8,0,1-.3.2-.1.3-.3.4-.6,0-.2.1-.7.1-1.6V7.4h-1.1c-1,0-1.7.2-2.1.7-.6.7-1,1.6-1.2,2.9h-.4v-4.6h13.1"/>
  </g>
  <g>
    <rect class="st4" x="-1.5" y="14.7" width="26.2" height="3.7" transform="translate(-8.3 13) rotate(-45)"/>
    <rect class="st6" x="3.8" y="20" width="26.2" height="3.7" transform="translate(-10.5 18.3) rotate(-45)"/>
    <rect class="st5" x="9.1" y="25.3" width="26.2" height="3.7" transform="translate(-12.7 23.6) rotate(-45)"/>
    <rect class="st0" x="14.3" y="30.6" width="26.2" height="3.7" transform="translate(-14.9 28.9) rotate(-45)"/>
  </g>
  <g>
    <path class="st1" d="M122.4,32.2h-2v1.1h0c0,0,.8,0,.8,0v.8h1.2v-2Z"/>
    <path class="st1" d="M54.9,41.2h-4.3l-.8,2.1h-1.4l3.6-9.6h1.5l3.6,9.6h-1.4l-.8-2.1ZM54.6,40.2l-1.8-4.9-1.8,4.9h3.6Z"/>
    <path class="st1" d="M64.8,36.5c.6.6.9,1.4.9,2.4v4.5h-1.3v-4.3c0-.8-.2-1.3-.6-1.7-.4-.4-.9-.6-1.6-.6s-1.2.2-1.6.6c-.4.4-.6,1-.6,1.8v4.2h-1.3v-7.6h1.3v1.1c.3-.4.6-.7,1-.9.4-.2.9-.3,1.5-.3.9,0,1.7.3,2.3.8Z"/>
    <path class="st1" d="M151.5,36c.4-.8,1-1.3,1.8-1.8.8-.4,1.6-.6,2.5-.6s2,.3,2.8.8c.8.5,1.4,1.2,1.8,2.2h-1.5c-.3-.6-.7-1-1.2-1.3-.5-.3-1.1-.5-1.9-.5s-1.3.2-1.9.5-1,.8-1.3,1.3-.5,1.3-.5,2,.2,1.4.5,2c.3.6.7,1,1.3,1.3s1.2.5,1.9.5,1.3-.2,1.9-.5c.5-.3.9-.8,1.2-1.3h1.5c-.4.9-1,1.6-1.8,2.1-.8.5-1.7.8-2.8.8s-1.8-.2-2.5-.6c-.8-.4-1.3-1-1.8-1.8-.4-.7-.7-1.6-.7-2.5s.2-1.8.7-2.5Z"/>
    <path class="st1" d="M163.7,43c-.6-.3-1.1-.8-1.4-1.4-.3-.6-.5-1.3-.5-2.1s.2-1.5.5-2.1c.3-.6.8-1.1,1.4-1.4.6-.3,1.3-.5,2-.5s1.4.2,2,.5c.6.3,1.1.8,1.4,1.4.3.6.5,1.3.5,2.1s-.2,1.5-.5,2.1c-.4.6-.8,1.1-1.4,1.4-.6.3-1.3.5-2,.5s-1.4-.2-2-.5ZM167,42.1c.4-.2.7-.5,1-1,.3-.4.4-.9.4-1.6s-.1-1.1-.4-1.6c-.2-.4-.6-.7-1-.9-.4-.2-.8-.3-1.3-.3s-.9.1-1.3.3c-.4.2-.7.5-.9.9-.2.4-.4.9-.4,1.6s.1,1.1.3,1.6c.2.4.5.7.9.9.4.2.8.3,1.3.3s.9-.1,1.3-.3Z"/>
    <path class="st1" d="M182.4,36c.5.2.8.6,1.1,1.1.3.5.4,1.1.4,1.8v4.5h-1.3v-4.3c0-.8-.2-1.3-.6-1.7-.4-.4-.9-.6-1.6-.6s-1.2.2-1.6.6c-.4.4-.6,1-.6,1.8v4.2h-1.3v-4.3c0-.8-.2-1.3-.6-1.7-.4-.4-.9-.6-1.6-.6s-1.2.2-1.6.6c-.4.4-.6,1-.6,1.8v4.2h-1.3v-7.6h1.3v1.1c.3-.4.6-.7,1-.9.4-.2.9-.3,1.4-.3s1.2.1,1.7.4c.5.3.9.7,1.1,1.3.2-.5.6-1,1.1-1.2.5-.3,1.1-.4,1.7-.4s1.1.1,1.6.4Z"/>
    <path class="st1" d="M188.4,36.1c.5-.3,1.1-.4,1.8-.4s1.3.2,1.9.5c.6.3,1,.8,1.3,1.4.3.6.5,1.3.5,2s-.2,1.4-.5,2.1c-.3.6-.8,1.1-1.3,1.4s-1.2.5-1.9.5-1.2-.1-1.8-.4-.9-.7-1.2-1.1v5h-1.3v-11.2h1.3v1.4c.3-.4.6-.8,1.1-1.1ZM192.2,38.1c-.2-.4-.6-.7-1-1-.4-.2-.8-.3-1.3-.3s-.9.1-1.3.3c-.4.2-.7.6-1,1s-.4.9-.4,1.5.1,1.1.4,1.5.6.8,1,1c.4.2.8.3,1.3.3s.9-.1,1.3-.3c.4-.2.7-.6,1-1s.4-.9.4-1.5-.1-1.1-.4-1.5Z"/>
    <path class="st1" d="M195.6,37.5c.3-.6.8-1,1.3-1.4.6-.3,1.2-.5,1.9-.5s1.3.1,1.8.4.9.6,1.1,1.1v-1.4h1.3v7.6h-1.3v-1.4c-.3.4-.6.8-1.1,1.1s-1.1.4-1.8.4-1.3-.2-1.9-.5c-.6-.3-1-.8-1.3-1.4s-.5-1.3-.5-2.1.2-1.5.5-2ZM201.4,38.1c-.2-.4-.6-.7-1-1-.4-.2-.8-.3-1.3-.3s-.9.1-1.3.3c-.4.2-.7.5-1,1-.2.4-.4.9-.4,1.5s.1,1.1.4,1.5c.2.4.6.8,1,1,.4.2.8.3,1.3.3s.9-.1,1.3-.3c.4-.2.7-.6,1-1,.2-.4.4-.9.4-1.5s-.1-1.1-.4-1.5Z"/>
    <path class="st1" d="M211.3,36.5c.6.6.9,1.4.9,2.4v4.5h-1.3v-4.3c0-.8-.2-1.3-.6-1.7-.4-.4-.9-.6-1.6-.6s-1.2.2-1.6.6c-.4.4-.6,1-.6,1.8v4.2h-1.3v-7.6h1.3v1.1c.3-.4.6-.7,1-.9.4-.2.9-.3,1.5-.3.9,0,1.7.3,2.3.8Z"/>
    <path class="st1" d="M221,35.8l-4.7,11.2h-1.3l1.5-3.7-3.1-7.5h1.4l2.4,6.1,2.4-6.1h1.3Z"/>
    <path class="st1" d="M83.1,37.4c0,.2.1.4.4.5.3.1.6.3,1,.4.4.1.8.2,1.2.4.4.2.7.4,1,.8.3.4.4.8.4,1.4,0,.8-.3,1.5-.9,1.9-.6.4-1.4.7-2.3.7-1.6,0-2.8-.6-3.4-1.9l1.8-1c.2.7.8,1,1.6,1s1.1-.2,1.1-.7-.1-.4-.4-.5c-.3-.1-.6-.3-1-.4-.4-.1-.8-.2-1.2-.4-.4-.2-.7-.4-1-.8-.3-.3-.4-.8-.4-1.3,0-.8.3-1.4.9-1.9.6-.5,1.3-.7,2.2-.7s1.2.1,1.8.4c.5.3,1,.7,1.3,1.3l-1.8,1c-.3-.5-.7-.8-1.3-.8s-.5,0-.7.2-.3.3-.3.5h0s0,0,0,0Z"/>
    <path class="st1" d="M92.2,43.3c-1.2,0-2.2-.4-3-1.2-.8-.8-1.2-1.8-1.2-3s.4-2.2,1.2-3c.8-.8,1.8-1.2,3-1.2s1.5.2,2.1.6,1.1.9,1.5,1.5l-1.8,1c-.2-.3-.4-.6-.7-.8-.3-.2-.7-.3-1.1-.3-.6,0-1.1.2-1.5.6-.4.4-.6.9-.6,1.6s.2,1.1.6,1.6c.4.4.9.6,1.5.6s.8,0,1.1-.3.6-.4.7-.8l1.8,1c-.4.6-.9,1.1-1.5,1.5-.6.4-1.4.6-2.1.6h0s0,0,0,0Z"/>
    <path class="st1" d="M98.5,40c.3,1,1,1.5,2.3,1.5s1.4-.3,1.8-.8l1.7,1c-.8,1.1-2,1.7-3.5,1.7s-2.4-.4-3.2-1.2-1.2-1.8-1.2-3,.4-2.2,1.2-3c.8-.8,1.8-1.2,3-1.2s2.1.4,2.9,1.2c.8.8,1.1,1.8,1.1,3s0,.5,0,.8h-6,0s0,0,0,0ZM98.4,38.4h4.1c-.1-.5-.4-.9-.7-1.2-.4-.3-.8-.4-1.3-.4s-1,.1-1.4.4c-.4.3-.6.7-.7,1.2h0s0,0,0,0Z"/>
    <path class="st1" d="M110.5,34.9c.9,0,1.6.3,2.2.9.6.6.9,1.4.9,2.5v5h-2.1v-4.8c0-.5-.1-1-.4-1.3-.3-.3-.7-.4-1.2-.4s-1,.2-1.3.5c-.3.3-.5.8-.5,1.5v4.4h-2.1v-8.2h2.1v.9c.5-.8,1.3-1.1,2.5-1.1h0Z"/>
    <path class="st1" d="M119,37v-2h-1.9v-2.2l-2.1.7v7.1c0,1.1.3,1.9.9,2.4.6.4,1.6.6,3.1.4v-1.9c-.4,0-.7,0-1,0-.3,0-.5,0-.6-.2-.1-.1-.2-.3-.2-.6v-3.6h1.9,0Z"/>
    <path class="st1" d="M129.5,34.9h2.1v8.4h-2.1v-1.2c-.5.8-1.3,1.2-2.5,1.2s-1.6-.3-2.2-.9c-.6-.6-.9-1.4-.9-2.5v-5h2.1v4.8c0,.5.1,1,.4,1.3.3.3.7.4,1.2.4s1-.2,1.3-.5c.3-.3.5-.8.5-1.5v-4.4h0Z"/>
    <path class="st1" d="M142.3,34.9c.9,0,1.7.3,2.3.9.6.6.8,1.4.8,2.5v5h-2.1v-4.9c0-.5-.1-.9-.4-1.1-.2-.3-.6-.4-1-.4s-.9.2-1.1.5c-.3.3-.4.8-.4,1.4v4.6h-2.1v-4.9c0-.5-.1-.9-.4-1.1-.2-.3-.6-.4-1-.4s-.8.2-1.1.5c-.3.3-.4.8-.4,1.4v4.6h-2.1v-8.2h2.1v.9c.5-.7,1.3-1.1,2.3-1.1s1.7.4,2.2,1.2c.5-.8,1.4-1.2,2.4-1.2h0Z"/>
    <path class="st1" d="M120.3,43.4v-8.4h2.1v8.4h-2.1Z"/>
    <polygon class="st2" points="76.1 34.9 76.1 37 77.4 37 77.4 38.4 79.5 38.4 79.5 34.9 76.1 34.9"/>
    <path class="st1" d="M77.3,40c-.1.3-.3.5-.5.8-.4.4-1,.6-1.6.6s-1.2-.2-1.6-.6-.6-1-.6-1.6.2-1.2.6-1.6c.2-.2.5-.4.8-.5v-2.1h-.1c-.9.1-1.6.5-2.3,1.2-.8.8-1.1,1.8-1.1,3s.4,2.2,1.1,3c.8.8,1.7,1.2,2.8,1.2s2-.4,2.6-1.2v1.2h2.1v-3.4h-2.2Z"/>
  </g>
</svg>