<?xml version="1.0" encoding="UTF-8"?>
<svg id="Layer_1" xmlns="http://www.w3.org/2000/svg" version="1.1" viewBox="0 0 362 63">
  <!-- Generator: Adobe Illustrator 29.5.1, SVG Export Plug-In . SVG Version: 2.1.0 Build 141)  -->
  <defs>
    <style>
      .st0 {
        fill: #088a30;
      }

      .st1 {
        fill: #1a171b;
      }

      .st2 {
        fill: #fdcc19;
      }

      .st3 {
        fill: #e1001a;
      }

      .st4 {
        fill: #0f1514;
      }

      .st5 {
        fill: #f61;
      }

      .st6 {
        fill: #646eac;
      }
    </style>
  </defs>
  <g>
    <g>
      <path class="st1" d="M48.2,28.2v-.4h.5c.4,0,.8,0,1-.2.2-.2.4-.4.5-.7,0-.2,0-.7,0-1.6v-11.3c0-.9,0-1.4-.1-1.7,0-.2-.2-.4-.5-.6-.2-.2-.6-.3-1-.3h-.5v-.4h6.6c1.7,0,3.2.3,4.2.8,1.3.7,2.3,1.7,3,3.1.7,1.4,1,2.9,1,4.7s-.2,2.3-.5,3.3c-.3,1-.8,1.9-1.3,2.5-.5.7-1.1,1.2-1.8,1.6-.7.4-1.5.7-2.5.9-.4,0-1.1.1-2.1.1h-6.6M53.8,12v13.4c0,.7,0,1.1,0,1.3,0,.2.2.3.3.4.2.1.5.2.8.2,1.2,0,2.1-.5,2.7-1.4.9-1.3,1.3-3.3,1.3-6s-.3-4-.9-5.3c-.5-1-1.1-1.7-1.8-2.1-.5-.3-1.4-.4-2.6-.4"/>
      <path class="st1" d="M68.9,12v7h.3c.9,0,1.6-.3,2-1,.4-.7.7-1.7.8-3h.4v9h-.4c0-1-.3-1.8-.6-2.4-.3-.6-.6-1-1-1.3-.4-.2-.9-.3-1.6-.3v4.8c0,.9,0,1.5.1,1.7,0,.2.2.4.4.5.2.1.5.2.9.2h.9c1.4,0,2.5-.4,3.3-1.1.8-.7,1.4-1.9,1.8-3.4h.4l-.7,5.5h-12.7v-.4h.5c.4,0,.8,0,1-.3.2-.1.3-.3.4-.6,0-.2.1-.7.1-1.6v-11.3c0-.8,0-1.3,0-1.5,0-.3-.2-.5-.4-.7-.3-.2-.7-.4-1.1-.4h-.5v-.4h12.3v5.1h-.4c-.2-1.2-.5-2.1-.9-2.7-.4-.5-.9-.9-1.6-1.2-.4-.2-1.2-.2-2.3-.2h-1.5"/>
      <path class="st1" d="M342.1,12v7h.3c.9,0,1.6-.3,2-1,.4-.7.7-1.7.8-3h.4v9h-.4c0-1-.3-1.8-.6-2.4-.3-.6-.6-1-1-1.3-.4-.2-.9-.3-1.6-.3v4.8c0,.9,0,1.5.1,1.7,0,.2.2.4.4.5.2.1.5.2.9.2h.9c1.4,0,2.5-.4,3.3-1.1.8-.7,1.4-1.9,1.8-3.4h.4l-.7,5.5h-12.7v-.4h.5c.4,0,.8,0,1-.3.2-.1.3-.3.4-.6,0-.2.1-.7.1-1.6v-11.3c0-.8,0-1.3,0-1.5,0-.3-.2-.5-.4-.7-.3-.2-.7-.4-1.1-.4h-.5v-.4h12.3v5.1h-.4c-.2-1.2-.5-2.1-.9-2.7-.4-.5-.9-.9-1.6-1.2-.4-.2-1.2-.2-2.3-.2h-1.5"/>
      <path class="st1" d="M90.1,11l-8.6,16.2h2.8c1.3,0,2.2,0,2.8-.3.9-.3,1.6-.9,2.2-1.7.6-.8,1.1-1.9,1.3-3.3h.4l-.6,6.2h-13.4l8.7-16.2h-2.2c-.8,0-1.4,0-1.7,0-.5.1-1,.3-1.4.7-.4.3-.8.8-1.1,1.3-.3.5-.5,1.2-.7,2h-.4l.4-5h11.6"/>
      <path class="st1" d="M100.3,23.2h-5.1l-.6,1.7c-.2.6-.3,1-.3,1.4s.2.9.5,1.1c.2.1.7.2,1.4.3v.4h-4.9v-.4c.5,0,1-.4,1.3-.8.3-.4.8-1.3,1.3-2.6l5.2-13.7h.2l5.3,14.1c.5,1.4.9,2.2,1.2,2.6.2.3.6.4,1,.5v.4h-7.1v-.4h.3c.6,0,1,0,1.2-.3.2-.1.2-.3.2-.6s0-.3,0-.5c0,0-.1-.4-.3-1l-.8-2.2M99.9,22.3l-2.2-5.9-2.3,5.9h4.4"/>
      <path class="st1" d="M112.5,11l7.2,10.5v-7.3c0-1-.1-1.7-.4-2.1-.3-.5-.9-.7-1.7-.7v-.4h4.8v.4c-.6,0-1,.2-1.2.4-.2.2-.4.4-.5.7-.1.3-.2.9-.2,1.7v14.3h-.4l-9.9-14.3v10.9c0,1,.2,1.7.6,2,.4.3.8.5,1.3.5h.4v.4h-5.2v-.4c.8,0,1.4-.2,1.7-.6.3-.4.5-1,.5-1.9v-12.1l-.3-.5c-.3-.5-.6-.8-.8-1-.2-.2-.6-.2-1-.3v-.4h5.2"/>
      <path class="st1" d="M140.9,10.6v5.7c.1,0-.3,0-.3,0-.2-1.4-.7-2.6-1.6-3.5-.8-.9-1.7-1.3-2.7-1.3s-1.3.2-1.8.7c-.4.5-.6,1-.6,1.6s0,.7.2,1c.2.4.5.8,1,1.2.3.3,1.1.8,2.3,1.5,1.7,1,2.9,1.9,3.5,2.8.6.9.9,1.9.9,3s-.5,2.7-1.4,3.7c-1,1-2.2,1.5-3.7,1.5s-.9,0-1.3-.2c-.4-.1-.9-.3-1.6-.6-.3-.2-.6-.3-.9-.3s-.4,0-.6.3c-.2.2-.4.4-.5.8h-.4v-6.5h.4c.3,1.8.9,3.2,1.8,4.1.9,1,1.9,1.4,2.9,1.4s1.5-.3,1.9-.8c.5-.5.7-1.1.7-1.8s0-.8-.3-1.2c-.2-.4-.5-.7-.8-1.1-.4-.3-1-.8-2-1.3-1.3-.8-2.3-1.4-2.9-2-.6-.5-1-1.1-1.3-1.8-.3-.7-.5-1.4-.5-2.2,0-1.4.4-2.5,1.3-3.5.9-1,1.9-1.4,3.2-1.4s.9,0,1.4.2c.3.1.8.3,1.2.6.5.3.8.4,1,.4s.3,0,.4-.2c.1-.1.2-.5.3-1h.3"/>
      <path class="st1" d="M255,10.6v5.7c.1,0-.3,0-.3,0-.2-1.4-.7-2.6-1.6-3.5-.8-.9-1.7-1.3-2.7-1.3s-1.3.2-1.8.7c-.4.5-.6,1-.6,1.6s0,.7.2,1c.2.4.5.8,1,1.2.3.3,1.1.8,2.3,1.5,1.7,1,2.9,1.9,3.5,2.8.6.9.9,1.9.9,3s-.5,2.7-1.4,3.7c-1,1-2.2,1.5-3.7,1.5s-.9,0-1.3-.2c-.4-.1-.9-.3-1.6-.6-.3-.2-.6-.3-.9-.3s-.4,0-.6.3c-.2.2-.4.4-.5.8h-.4v-6.5h.4c.3,1.8.9,3.2,1.8,4.1.9,1,1.9,1.4,2.9,1.4s1.5-.3,1.9-.8c.5-.5.7-1.1.7-1.8s0-.8-.3-1.2c-.2-.4-.5-.7-.8-1.1-.4-.3-1-.8-2-1.3-1.3-.8-2.3-1.4-2.9-2-.6-.5-1-1.1-1.3-1.8-.3-.7-.5-1.4-.5-2.2,0-1.4.4-2.5,1.3-3.5.9-1,1.9-1.4,3.2-1.4s.9,0,1.4.2c.3.1.8.3,1.2.6.5.3.8.4,1,.4s.3,0,.4-.2c.1-.1.2-.5.3-1h.3"/>
      <path class="st1" d="M266.6,10.6v5.7c.1,0-.3,0-.3,0-.2-1.4-.7-2.6-1.6-3.5-.8-.9-1.7-1.3-2.7-1.3s-1.3.2-1.8.7c-.4.5-.6,1-.6,1.6s0,.7.2,1c.2.4.5.8,1,1.2.3.3,1.1.8,2.3,1.5,1.7,1,2.9,1.9,3.5,2.8.6.9.9,1.9.9,3s-.5,2.7-1.4,3.7c-1,1-2.2,1.5-3.7,1.5s-.9,0-1.3-.2c-.4-.1-.9-.3-1.6-.6-.3-.2-.6-.3-.9-.3s-.4,0-.6.3c-.2.2-.4.4-.5.8h-.4v-6.5h.4c.3,1.8.9,3.2,1.8,4.1.9,1,1.9,1.4,2.9,1.4s1.5-.3,1.9-.8c.5-.5.7-1.1.7-1.8s0-.8-.3-1.2c-.2-.4-.5-.7-.8-1.1-.4-.3-1-.8-2-1.3-1.3-.8-2.3-1.4-2.9-2-.6-.5-1-1.1-1.3-1.8-.3-.7-.5-1.4-.5-2.2,0-1.4.4-2.5,1.3-3.5.9-1,1.9-1.4,3.2-1.4s.9,0,1.4.2c.3.1.8.3,1.2.6.5.3.8.4,1,.4s.3,0,.4-.2c.1-.1.2-.5.3-1h.3"/>
      <path class="st1" d="M360.3,10.6v5.7c.1,0-.3,0-.3,0-.2-1.4-.7-2.6-1.6-3.5-.8-.9-1.7-1.3-2.7-1.3s-1.3.2-1.8.7c-.4.5-.6,1-.6,1.6s0,.7.2,1c.2.4.5.8,1,1.2.3.3,1.1.8,2.3,1.5,1.7,1,2.9,1.9,3.5,2.8.6.9.9,1.9.9,3s-.5,2.7-1.4,3.7c-1,1-2.2,1.5-3.7,1.5s-.9,0-1.3-.2c-.4-.1-.9-.3-1.6-.6-.3-.2-.6-.3-.9-.3s-.4,0-.6.3c-.2.2-.4.4-.5.8h-.4v-6.5h.4c.3,1.8.9,3.2,1.8,4.1.9,1,1.9,1.4,2.9,1.4s1.5-.3,1.9-.8c.5-.5.7-1.1.7-1.8s0-.8-.3-1.2c-.2-.4-.5-.7-.8-1.1-.4-.3-1-.8-2-1.3-1.3-.8-2.3-1.4-2.9-2-.6-.5-1-1.1-1.3-1.8-.3-.7-.5-1.4-.5-2.2,0-1.4.4-2.5,1.3-3.5.9-1,1.9-1.4,3.2-1.4s.9,0,1.4.2c.3.1.8.3,1.2.6.5.3.8.4,1,.4s.3,0,.4-.2c.1-.1.2-.5.3-1h.3"/>
      <path class="st1" d="M148,19.9v5.3c0,.9,0,1.5.1,1.7,0,.2.2.4.5.6.2.2.6.3,1,.3h.5v.4h-7.7v-.4h.5c.4,0,.8,0,1-.3.2-.1.3-.3.4-.6,0-.2.1-.7.1-1.6v-11.3c0-.9,0-1.4-.1-1.7,0-.2-.2-.4-.5-.6-.2-.2-.6-.3-1-.3h-.5v-.4h7.7v.4h-.5c-.4,0-.8,0-1,.3-.2.1-.3.3-.4.6,0,.2-.1.7-.1,1.6v4.8h5.2v-4.8c0-.9,0-1.4-.1-1.7,0-.2-.2-.4-.5-.6-.2-.2-.6-.3-1-.3h-.5v-.4h7.7v.4h-.5c-.4,0-.8,0-1,.3-.2.1-.3.3-.4.6,0,.2-.1.7-.1,1.6v11.3c0,.9,0,1.5.1,1.7,0,.2.2.4.5.6.2.2.6.3,1,.3h.5v.4h-7.7v-.4h.5c.4,0,.8,0,1-.3.2-.1.3-.3.4-.6,0-.2.1-.7.1-1.6v-5.3h-5.2"/>
      <path class="st1" d="M167.5,27.7v.4h-7.7v-.4h.5c.4,0,.8,0,1-.3.2-.1.3-.3.4-.6,0-.2.1-.7.1-1.6v-11.3c0-.9,0-1.4-.1-1.7,0-.2-.2-.4-.5-.6-.2-.2-.6-.3-1-.3h-.5v-.4h7.7v.4h-.5c-.4,0-.8,0-1,.3-.2.1-.3.3-.4.6,0,.2-.1.7-.1,1.6v11.3c0,.9,0,1.5.1,1.7,0,.2.2.4.5.6.2.2.6.3,1,.3h.5"/>
      <path class="st1" d="M307.9,27.7v.4h-7.7v-.4h.5c.4,0,.8,0,1-.3.2-.1.3-.3.4-.6,0-.2.1-.7.1-1.6v-11.3c0-.9,0-1.4-.1-1.7,0-.2-.2-.4-.5-.6-.2-.2-.6-.3-1-.3h-.5v-.4h7.7v.4h-.5c-.4,0-.8,0-1,.3-.2.1-.3.3-.4.6,0,.2-.1.7-.1,1.6v11.3c0,.9,0,1.5.1,1.7,0,.2.2.4.5.6.2.2.6.3,1,.3h.5"/>
      <path class="st1" d="M173.7,20.3v4.8c0,.9,0,1.5.1,1.8,0,.2.3.4.5.6.2.1.7.2,1.4.2v.4h-7.6v-.4c.7,0,1.2,0,1.4-.2.2-.2.4-.3.5-.6,0-.2.1-.8.1-1.7v-11.2c0-.9,0-1.5-.1-1.8,0-.2-.3-.4-.5-.6-.3-.1-.7-.2-1.4-.2v-.4h6.8c1.8,0,3.1.1,3.9.4.8.3,1.5.8,2,1.6.5.8.8,1.7.8,2.7s-.4,2.3-1.2,3.1c-.5.5-1.2.9-2.1,1.2l3.5,5.8c.5.8.8,1.2,1,1.4.3.3.6.4,1,.4v.5h-4.6l-4.7-7.8h-1M173.7,12v7.4h.6c1,0,1.8-.1,2.3-.3.5-.2.9-.6,1.2-1.1.3-.5.4-1.3.4-2.2,0-1.3-.3-2.2-.8-2.8-.5-.6-1.4-.9-2.5-.9h-1.2"/>
      <path class="st1" d="M193.2,23.2h-5.1l-.6,1.7c-.2.6-.3,1-.3,1.4s.2.9.5,1.1c.2.1.7.2,1.4.3v.4h-4.9v-.4c.5,0,1-.4,1.3-.8.3-.4.8-1.3,1.3-2.6l5.2-13.7h.2l5.3,14.1c.5,1.4.9,2.2,1.2,2.6.2.3.6.4,1,.5v.4h-7.1v-.4h.3c.6,0,1,0,1.2-.3.2-.1.2-.3.2-.6s0-.3,0-.5c0,0-.1-.4-.3-1l-.8-2.2M192.9,22.3l-2.2-5.9-2.3,5.9h4.4"/>
      <path class="st1" d="M238.2,23.2h-5.1l-.6,1.7c-.2.6-.3,1-.3,1.4s.2.9.5,1.1c.2.1.7.2,1.4.3v.4h-4.9v-.4c.5,0,1-.4,1.3-.8.3-.4.8-1.3,1.3-2.6l5.2-13.7h.2l5.3,14.1c.5,1.4.9,2.2,1.2,2.6.2.3.6.4,1,.5v.4h-7.1v-.4h.3c.6,0,1,0,1.2-.3.2-.1.2-.3.2-.6s0-.3,0-.5c0,0-.1-.4-.3-1l-.8-2.2M237.8,22.3l-2.2-5.9-2.3,5.9h4.4"/>
      <path class="st1" d="M317.8,23.2h-5.1l-.6,1.7c-.2.6-.3,1-.3,1.4s.2.9.5,1.1c.2.1.7.2,1.4.3v.4h-4.9v-.4c.5,0,1-.4,1.3-.8.3-.4.8-1.3,1.3-2.6l5.2-13.7h.2l5.3,14.1c.5,1.4.9,2.2,1.2,2.6.2.3.6.4,1,.5v.4h-7.1v-.4h.3c.6,0,1,0,1.2-.3.2-.1.2-.3.2-.6s0-.3,0-.5c0,0-.1-.4-.3-1l-.8-2.2M317.4,22.3l-2.2-5.9-2.3,5.9h4.4"/>
      <path class="st1" d="M217.8,18.2h4.3v.5c-.5,0-.9.3-1.1.5-.3.3-.6.9-1.1,1.8-.4.9-1.1,2-1.9,3.2.7.7,1.3,1.2,1.7,1.5.3.2.6.3.9.3.5,0,1-.4,1.4-1.2l.4.3c-.6,1.3-1.2,2.3-1.8,2.8-.5.4-1,.6-1.7.6s-1.1-.1-1.5-.4c-.5-.3-1.1-.8-1.8-1.5-.9.7-1.7,1.2-2.4,1.5-.8.3-1.6.5-2.4.5-1.3,0-2.4-.4-3.1-1.3-.8-.8-1.2-1.8-1.2-3s.4-2.3,1.1-3.2c.7-.9,1.8-1.7,3.2-2.4-.2-.5-.3-1-.4-1.6,0-.5-.1-1-.1-1.5,0-1.3.4-2.4,1.2-3.3.8-.9,1.8-1.3,3-1.3s1.8.3,2.3.9c.6.6.9,1.2.9,2s-.3,1.7-.9,2.4c-.6.7-1.5,1.3-2.8,1.8.8,1.6,1.9,3.4,3.4,5.3,1-1.4,1.5-2.5,1.5-3.5s0-.6-.3-.9c-.2-.2-.5-.4-.9-.4v-.5M211.2,19.5c-.6.3-1,.6-1.2.9-.3.5-.5,1-.5,1.5s.2,1.5.6,2.3c.4.8.8,1.3,1.4,1.8.5.4,1.1.6,1.6.6s.6,0,.9-.2c.3-.1.7-.3,1.1-.6-1.7-2-2.9-4.1-3.8-6.3M213.7,17.5c.7-.3,1.2-.7,1.5-1,.2-.4.4-.8.4-1.3,0-.9-.2-1.7-.6-2.3-.3-.4-.6-.6-1-.6s-.6.2-.8.5c-.2.3-.3.7-.3,1.2s0,.8.2,1.3c.1.5.4,1.2.8,2.3"/>
      <path class="st1" d="M276.3,10.8c2.3-.1,4.2.7,5.6,2.4,1.4,1.7,2.2,3.8,2.2,6.4s-.5,4.1-1.6,5.8c-1.4,2.2-3.4,3.3-6.1,3.3s-4.6-1-6.1-3.1c-1.1-1.7-1.7-3.6-1.7-5.9s.7-4.7,2.2-6.4c1.5-1.7,3.3-2.5,5.4-2.4M276.5,11.6c-1.3,0-2.3.8-3,2.4-.6,1.3-.8,3.2-.8,5.7s.4,5.1,1.3,6.5c.6,1,1.5,1.5,2.5,1.5s1.4-.2,1.8-.6c.6-.5,1.1-1.4,1.5-2.6.3-1.2.5-2.7.5-4.6s-.2-4-.5-5.1c-.4-1.1-.8-1.9-1.4-2.4-.6-.5-1.2-.7-1.9-.7"/>
      <path class="st1" d="M299.1,10.6v6h-.4c-.3-1.6-.9-2.8-1.8-3.6-.9-.8-1.8-1.3-2.9-1.3s-1.7.3-2.5.9c-.8.6-1.3,1.4-1.7,2.4-.5,1.3-.7,2.7-.7,4.3s.2,2.9.5,4.2c.3,1.3.8,2.2,1.5,2.9.7.6,1.6,1,2.7,1s1.8-.2,2.5-.7c.8-.5,1.6-1.3,2.4-2.4v1.5c-.8,1-1.7,1.7-2.5,2.2-.9.4-1.9.7-3.1.7s-2.9-.4-4.1-1.1c-1.2-.7-2.1-1.8-2.8-3.2-.7-1.4-1-2.8-1-4.4s.4-3.2,1.1-4.7c.7-1.5,1.7-2.6,2.9-3.4,1.2-.8,2.5-1.2,3.9-1.2s2.1.3,3.2.8c.7.3,1.1.5,1.3.5s.4,0,.6-.3c.2-.2.3-.5.3-.9h.4"/>
      <path class="st1" d="M335.6,11v4.6h-.4c-.2-1.1-.5-1.8-.8-2.3-.3-.5-.7-.8-1.1-1.1-.3-.2-.7-.2-1.4-.2h-1.1v13.2c0,.9,0,1.4.1,1.7,0,.2.2.4.5.6.2.2.6.2,1,.2h.5v.4h-7.6v-.4h.5c.4,0,.8,0,1-.3.2-.1.3-.3.4-.6,0-.2.1-.7.1-1.6v-13.2h-1.1c-1,0-1.7.2-2.1.7-.6.7-1,1.6-1.2,2.9h-.4v-4.6h13.1"/>
    </g>
    <g>
      <rect class="st2" x="-1.7" y="9.4" width="26.2" height="3.7" transform="translate(-4.7 11.4) rotate(-45)"/>
      <rect class="st3" x="3.6" y="14.7" width="26.2" height="3.7" transform="translate(-6.9 16.6) rotate(-45)"/>
      <rect class="st0" x="8.9" y="20" width="26.2" height="3.7" transform="translate(-9.1 21.9) rotate(-45)"/>
      <rect class="st6" x="14.1" y="25.3" width="26.2" height="3.7" transform="translate(-11.3 27.2) rotate(-45)"/>
    </g>
  </g>
  <path class="st4" d="M151.7,41.4h-2.8v1.6h0c0,0,1.1,0,1.1,0v1.1h1.7v-2.8Z"/>
  <g>
    <path class="st4" d="M55.5,54.4h-6.2l-1.1,3.1h-1.9l5.1-13.7h2.1l5.1,13.7h-1.9l-1.1-3.1ZM55,52.9l-2.6-6.9-2.6,6.9h5.1Z"/>
    <path class="st4" d="M69.5,47.6c.8.8,1.3,1.9,1.3,3.4v6.4h-1.8v-6.1c0-1.1-.3-1.9-.8-2.5-.6-.6-1.3-.9-2.3-.9s-1.7.3-2.3.9c-.6.6-.9,1.5-.9,2.6v6h-1.8v-10.8h1.8v1.5c.4-.6.9-1,1.5-1.3.6-.3,1.3-.5,2.1-.5,1.3,0,2.4.4,3.3,1.2Z"/>
    <path class="st4" d="M193.1,46.9c.6-1.1,1.5-1.9,2.5-2.5,1.1-.6,2.3-.9,3.6-.9s2.9.4,4,1.1c1.1.7,2,1.7,2.5,3.1h-2.2c-.4-.8-1-1.5-1.7-1.9-.7-.4-1.6-.7-2.6-.7s-1.9.2-2.7.7-1.4,1.1-1.8,1.9-.7,1.8-.7,2.9.2,2,.7,2.9c.4.8,1.1,1.5,1.8,1.9s1.7.7,2.7.7,1.9-.2,2.6-.7c.7-.4,1.3-1.1,1.7-1.9h2.2c-.5,1.3-1.4,2.3-2.5,3-1.1.7-2.5,1.1-4,1.1s-2.5-.3-3.6-.9c-1.1-.6-1.9-1.4-2.5-2.5-.6-1.1-.9-2.3-.9-3.6s.3-2.5.9-3.6Z"/>
    <path class="st4" d="M210.5,56.9c-.8-.5-1.5-1.1-2-2-.5-.8-.7-1.8-.7-2.9s.2-2.1.7-2.9c.5-.8,1.2-1.5,2-2,.9-.5,1.8-.7,2.9-.7s2,.2,2.9.7c.9.5,1.5,1.1,2,1.9.5.8.7,1.8.7,2.9s-.3,2.1-.8,2.9c-.5.8-1.2,1.5-2.1,2-.9.5-1.8.7-2.9.7s-2-.2-2.8-.7ZM215.2,55.6c.6-.3,1-.8,1.4-1.4.4-.6.5-1.3.5-2.2s-.2-1.6-.5-2.2c-.4-.6-.8-1.1-1.4-1.4-.6-.3-1.2-.4-1.8-.4s-1.3.1-1.9.4c-.6.3-1,.7-1.3,1.4-.3.6-.5,1.3-.5,2.2s.2,1.6.5,2.2c.3.6.8,1.1,1.3,1.4.6.3,1.2.4,1.8.4s1.3-.2,1.9-.5Z"/>
    <path class="st4" d="M237.1,46.9c.7.3,1.2.9,1.6,1.6.4.7.6,1.5.6,2.5v6.4h-1.8v-6.1c0-1.1-.3-1.9-.8-2.5-.5-.6-1.3-.9-2.2-.9s-1.7.3-2.3.9c-.6.6-.9,1.5-.9,2.6v6h-1.8v-6.1c0-1.1-.3-1.9-.8-2.5-.5-.6-1.3-.9-2.2-.9s-1.7.3-2.3.9c-.6.6-.9,1.5-.9,2.6v6h-1.8v-10.8h1.8v1.6c.4-.6.9-1,1.5-1.3.6-.3,1.3-.5,2-.5s1.8.2,2.5.6c.7.4,1.2,1,1.6,1.8.3-.8.8-1.4,1.5-1.8.7-.4,1.5-.6,2.4-.6s1.6.2,2.3.5Z"/>
    <path class="st4" d="M245.7,47c.7-.4,1.6-.6,2.5-.6s1.9.2,2.7.7c.8.5,1.4,1.1,1.9,1.9.5.8.7,1.8.7,2.9s-.2,2.1-.7,2.9c-.5.9-1.1,1.5-1.9,2s-1.7.7-2.7.7-1.8-.2-2.5-.6-1.3-.9-1.7-1.5v7.1h-1.8v-15.9h1.8v2c.4-.6.9-1.1,1.6-1.5ZM251.1,49.8c-.3-.6-.8-1.1-1.4-1.4-.6-.3-1.2-.5-1.9-.5s-1.3.2-1.9.5c-.6.3-1,.8-1.4,1.4s-.5,1.3-.5,2.1.2,1.5.5,2.1.8,1.1,1.4,1.4c.6.3,1.2.5,1.9.5s1.3-.2,1.9-.5c.6-.3,1-.8,1.4-1.4s.5-1.3.5-2.2-.2-1.5-.5-2.1Z"/>
    <path class="st4" d="M256,49.1c.5-.8,1.1-1.5,1.9-1.9.8-.5,1.7-.7,2.7-.7s1.8.2,2.5.6,1.2.9,1.6,1.5v-2h1.9v10.8h-1.9v-2c-.4.6-.9,1.2-1.6,1.6s-1.6.6-2.5.6-1.9-.2-2.7-.7c-.8-.5-1.4-1.1-1.9-2-.5-.9-.7-1.8-.7-2.9s.2-2.1.7-2.9ZM264.2,49.9c-.3-.6-.8-1.1-1.4-1.4-.6-.3-1.2-.5-1.9-.5s-1.3.2-1.9.5c-.6.3-1,.8-1.4,1.4-.3.6-.5,1.3-.5,2.1s.2,1.5.5,2.2c.3.6.8,1.1,1.4,1.4.6.3,1.2.5,1.9.5s1.3-.2,1.9-.5c.6-.3,1-.8,1.4-1.4.3-.6.5-1.3.5-2.1s-.2-1.5-.5-2.1Z"/>
    <path class="st4" d="M278.3,47.6c.8.8,1.3,1.9,1.3,3.4v6.4h-1.8v-6.1c0-1.1-.3-1.9-.8-2.5-.6-.6-1.3-.9-2.3-.9s-1.7.3-2.3.9c-.6.6-.9,1.5-.9,2.6v6h-1.8v-10.8h1.8v1.5c.4-.6.9-1,1.5-1.3.6-.3,1.3-.5,2.1-.5,1.3,0,2.4.4,3.3,1.2Z"/>
    <path class="st4" d="M292.2,46.6l-6.7,15.9h-1.9l2.2-5.2-4.5-10.7h2l3.5,8.8,3.4-8.8h1.9Z"/>
    <path class="st4" d="M95.6,48.9c0,.3.2.6.6.7.4.2.9.4,1.5.5.6.1,1.2.3,1.7.5.6.2,1.1.6,1.5,1.1.4.5.6,1.2.6,1.9,0,1.2-.4,2.1-1.3,2.7-.9.6-2,.9-3.3.9-2.3,0-3.9-.9-4.8-2.7l2.6-1.4c.3,1,1.1,1.5,2.2,1.5s1.6-.3,1.6-1-.2-.6-.6-.7c-.4-.2-.9-.4-1.5-.5-.6-.2-1.2-.3-1.7-.6-.6-.2-1.1-.6-1.5-1.1-.4-.5-.6-1.1-.6-1.9,0-1.1.4-2,1.2-2.6.8-.6,1.9-1,3.1-1s1.8.2,2.5.6c.8.4,1.4,1,1.8,1.8l-2.5,1.4c-.4-.8-1-1.2-1.8-1.2s-.7,0-1,.3-.4.4-.4.7h0s0,0,0,0Z"/>
    <path class="st4" d="M108.6,57.4c-1.7,0-3.2-.6-4.3-1.7-1.2-1.1-1.7-2.6-1.7-4.3s.6-3.1,1.7-4.3c1.2-1.1,2.6-1.7,4.3-1.7s2.1.3,3,.8,1.6,1.2,2.1,2.1l-2.5,1.5c-.2-.5-.6-.8-1-1.1-.5-.3-1-.4-1.6-.4-.9,0-1.6.3-2.2.9-.6.6-.9,1.3-.9,2.2s.3,1.6.9,2.2c.6.6,1.3.9,2.2.9s1.1-.1,1.6-.4.8-.6,1-1.1l2.6,1.5c-.5.9-1.2,1.6-2.1,2.2-.9.5-1.9.8-3,.8h0s0,0,0,0Z"/>
    <path class="st4" d="M117.6,52.6c.4,1.4,1.5,2.1,3.2,2.1s2-.4,2.6-1.1l2.4,1.4c-1.1,1.6-2.8,2.4-5,2.4s-3.4-.6-4.5-1.7c-1.1-1.1-1.7-2.6-1.7-4.3s.6-3.1,1.7-4.3c1.1-1.1,2.6-1.7,4.3-1.7s3.1.6,4.2,1.7c1.1,1.1,1.6,2.6,1.6,4.3s0,.8-.1,1.2h-8.6,0s0,0,0,0ZM117.5,50.3h5.8c-.2-.8-.5-1.4-1-1.7-.5-.4-1.1-.6-1.8-.6s-1.4.2-2,.6c-.5.4-.9,1-1,1.7h0s0,0,0,0Z"/>
    <path class="st4" d="M134.7,45.4c1.3,0,2.3.4,3.2,1.3.8.9,1.2,2,1.2,3.5v7.2h-3v-6.8c0-.8-.2-1.4-.6-1.8-.4-.4-1-.6-1.7-.6s-1.4.2-1.9.7c-.5.5-.7,1.2-.7,2.2v6.3h-3v-11.7h3v1.3c.7-1.1,1.9-1.6,3.5-1.6h0Z"/>
    <path class="st4" d="M146.7,48.3v-2.9h-2.7v-3.1l-3,1v10.1c0,1.6.4,2.7,1.3,3.4.9.6,2.3.8,4.4.6v-2.8c-.6,0-1.1,0-1.5,0-.4,0-.7-.1-.9-.3-.2-.2-.3-.5-.3-.9v-5.1h2.7,0Z"/>
    <path class="st4" d="M161.8,45.4h3v12h-3v-1.6c-.7,1.1-1.9,1.6-3.5,1.6s-2.3-.4-3.2-1.3c-.8-.9-1.3-2-1.3-3.6v-7.2h3v6.8c0,.8.2,1.4.6,1.8.4.4,1,.6,1.7.6s1.4-.2,1.9-.7c.5-.5.7-1.2.7-2.2v-6.3h0Z"/>
    <path class="st4" d="M180,45.4c1.3,0,2.4.4,3.2,1.3.8.9,1.2,2,1.2,3.5v7.2h-3v-7c0-.7-.2-1.2-.5-1.6-.3-.4-.8-.6-1.5-.6s-1.2.2-1.6.7c-.4.5-.6,1.1-.6,2v6.5h-3v-7c0-.7-.2-1.2-.5-1.6-.3-.4-.8-.6-1.5-.6s-1.2.2-1.6.7c-.4.5-.6,1.1-.6,2v6.5h-3v-11.7h3v1.2c.7-1,1.8-1.6,3.2-1.6s2.5.6,3.2,1.7c.8-1.1,1.9-1.7,3.5-1.7h0Z"/>
    <path class="st4" d="M148.7,57.4v-12h3v12h-3Z"/>
    <polygon class="st5" points="85.6 45.4 85.6 48.3 87.6 48.3 87.6 50.3 90.5 50.3 90.5 45.4 85.6 45.4"/>
    <path class="st4" d="M87.4,52.6c-.1.4-.4.8-.7,1.1-.6.6-1.4.9-2.3.9s-1.7-.3-2.3-.9-.9-1.4-.9-2.3.3-1.7.9-2.3c.3-.3.7-.6,1.2-.7v-2.9h-.2c-1.2.2-2.3.7-3.2,1.7-1.1,1.2-1.6,2.6-1.6,4.3s.5,3.1,1.6,4.3c1.1,1.2,2.4,1.7,3.9,1.7s2.8-.6,3.7-1.7v1.7h2.9v-4.8h-3.2Z"/>
  </g>
</svg>