<?xml version="1.0" encoding="UTF-8"?>
<svg id="Layer_1" xmlns="http://www.w3.org/2000/svg" version="1.1" viewBox="0 0 300 44">
  <!-- Generator: Adobe Illustrator 29.5.1, SVG Export Plug-In . SVG Version: 2.1.0 Build 141)  -->
  <defs>
    <style>
      .st0 {
        fill: #088a30;
      }

      .st1 {
        fill: #1a171b;
      }

      .st2 {
        fill: #fdcc19;
      }

      .st3 {
        fill: #e1001a;
      }

      .st4 {
        fill: #0f1514;
      }

      .st5 {
        fill: #f61;
      }

      .st6 {
        fill: #646eac;
      }
    </style>
  </defs>
  <g>
    <g>
      <path class="st1" d="M39.8,23.2v-.3h.4c.3,0,.7,0,.8-.2s.3-.3.4-.6v-10.7c0-.7,0-1.2,0-1.4,0-.2-.2-.3-.4-.5-.2-.2-.5-.2-.8-.2h-.4v-.3h5.5c1.5,0,2.7.2,3.5.7,1.1.6,1.9,1.4,2.5,2.6.6,1.2.8,2.4.8,3.9s-.2,1.9-.4,2.7-.7,1.6-1.1,2.1c-.4.6-.9,1-1.5,1.3s-1.2.6-2.1.7c-.3,0-.9,0-1.7,0h-5.5M44.5,9.7v12.2c0,.2.2.2.2.3.2,0,.4.2.7.2,1,0,1.7-.4,2.3-1.2.7-1.1,1.1-2.7,1.1-5s-.2-3.3-.7-4.4c-.4-.8-.9-1.4-1.5-1.7-.4-.2-1.2-.3-2.2-.3"/>
      <path class="st1" d="M57,9.7v5.8h.2c.7,0,1.3-.2,1.7-.8.3-.6.6-1.4.7-2.5h.3v7.5h-.3c0-.8-.2-1.5-.5-2-.2-.5-.5-.8-.8-1.1-.3-.2-.7-.2-1.3-.2v4c0,.7,0,1.2,0,1.4,0,.2.2.3.3.4.2,0,.4.2.7.2h.7c1.2,0,2.1-.3,2.7-.9s1.2-1.6,1.5-2.8h.3l-.6,4.6h-10.5v-.3h.4c.3,0,.7,0,.8-.2.2,0,.2-.2.3-.5,0-.2,0-.6,0-1.3v-10.6c0-.2-.2-.4-.3-.6-.2-.2-.6-.3-.9-.3h-.4v-.3h10.2v4.2h-.3c-.2-1-.4-1.7-.7-2.2-.3-.4-.7-.7-1.3-1-.3-.2-1-.2-1.9-.2h-1.2"/>
      <path class="st1" d="M283.8,9.7v5.8h.2c.7,0,1.3-.2,1.7-.8.3-.6.6-1.4.7-2.5h.3v7.5h-.3c0-.8-.2-1.5-.5-2-.2-.5-.5-.8-.8-1.1-.3-.2-.7-.2-1.3-.2v4c0,.7,0,1.2,0,1.4,0,.2.2.3.3.4.2,0,.4.2.7.2h.7c1.2,0,2.1-.3,2.7-.9s1.2-1.6,1.5-2.8h.3l-.6,4.6h-10.5v-.3h.4c.3,0,.7,0,.8-.2.2,0,.2-.2.3-.5,0-.2,0-.6,0-1.3v-10.6c0-.2-.2-.4-.3-.6-.2-.2-.6-.3-.9-.3h-.4v-.3h10.2v4.2h-.3c-.2-1-.4-1.7-.7-2.2-.3-.4-.7-.7-1.3-1-.3-.2-1-.2-1.9-.2h-1.2"/>
      <path class="st1" d="M74.6,8.9l-7.2,13.4h2.3c1.1,0,1.8,0,2.3-.2.7-.2,1.3-.7,1.8-1.4.5-.7.9-1.6,1.1-2.7h.3l-.5,5.1h-11.1l7.2-13.5h-3.2c-.4,0-.8.2-1.2.6-.3.2-.7.7-.9,1.1-.2.4-.4,1-.6,1.7h-.3l.3-4.1h9.6"/>
      <path class="st1" d="M83,19h-4.2l-.5,1.4c-.2.5-.2.8-.2,1.2s.2.7.4.9c.2,0,.6.2,1.2.2v.3h-4.1v-.3c.4,0,.8-.3,1.1-.7s.7-1.1,1.1-2.2l4.3-11.4h.2l4.4,11.7c.4,1.2.7,1.8,1,2.2.2.2.5.3.8.4v.3h-5.9v-.3h.2c.5,0,.8,0,1-.2.2,0,.2-.2.2-.5v-.4s0-.3-.2-.8l-.7-1.8M82.8,18.3l-1.8-4.9-1.9,4.9h3.6"/>
      <path class="st1" d="M93.2,8.9l6,8.8v-6.1c0-.8,0-1.4-.3-1.7-.2-.4-.7-.6-1.4-.6v-.3h4v.3c-.5,0-.8.2-1,.3s-.3.3-.4.6-.2.7-.2,1.4v11.9h-.3l-8.2-11.9v9c0,.8.2,1.4.5,1.7s.7.4,1.1.4h.3v.3h-4.3v-.3c.7,0,1.2-.2,1.4-.5.2-.3.4-.8.4-1.6v-10l-.2-.4c-.2-.4-.5-.7-.7-.8-.2-.2-.5-.2-.8-.2v-.3h4.3"/>
      <path class="st1" d="M116.8,8.6v4.7c0,0-.2,0-.2,0-.2-1.2-.6-2.2-1.3-2.9-.7-.7-1.4-1.1-2.2-1.1s-1.1.2-1.5.6c-.3.4-.5.8-.5,1.3s0,.6.2.8c.2.3.4.7.8,1,.2.2.9.7,1.9,1.2,1.4.8,2.4,1.6,2.9,2.3s.7,1.6.7,2.5-.4,2.2-1.2,3.1c-.8.8-1.8,1.2-3.1,1.2s-.7,0-1.1-.2c-.3,0-.7-.2-1.3-.5-.2-.2-.5-.2-.7-.2s-.3,0-.5.2c-.2.2-.3.3-.4.7h-.3v-5.4h.3c.2,1.5.7,2.7,1.6,3.5.7.8,1.6,1.2,2.4,1.2s1.2-.2,1.6-.7c.4-.4.6-.9.6-1.5s0-.7-.2-1c-.2-.3-.4-.6-.7-.9-.3-.2-.8-.7-1.7-1.1-1.1-.7-1.9-1.2-2.4-1.7-.5-.4-.8-.9-1.1-1.5-.2-.6-.4-1.2-.4-1.8,0-1.2.3-2.1,1.1-2.9.7-.8,1.6-1.2,2.7-1.2s.7,0,1.2.2c.2,0,.7.2,1,.5.4.2.7.3.8.3s.2,0,.3-.2c0,0,.2-.4.2-.8h.2"/>
      <path class="st1" d="M211.4,8.6v4.7c0,0-.2,0-.2,0-.2-1.2-.6-2.2-1.3-2.9-.7-.7-1.4-1.1-2.2-1.1s-1.1.2-1.5.6c-.3.4-.6.8-.6,1.3s0,.6.2.8c.2.3.4.7.8,1,.2.2.9.7,1.9,1.2,1.4.8,2.4,1.6,2.9,2.3s.7,1.6.7,2.5-.4,2.2-1.2,3.1c-.8.8-1.8,1.2-3.1,1.2s-.7,0-1.1-.2c-.3,0-.7-.2-1.3-.5-.2-.2-.5-.2-.7-.2s-.3,0-.5.2c-.2.2-.3.3-.4.7h-.3v-5.4h.3c.2,1.5.7,2.7,1.6,3.5.7.8,1.6,1.2,2.4,1.2s1.2-.2,1.6-.7c.4-.4.6-.9.6-1.5s0-.7-.2-1c-.2-.3-.4-.6-.7-.9-.3-.2-.8-.7-1.7-1.1-1.1-.7-1.9-1.2-2.4-1.7-.5-.4-.8-.9-1.2-1.5-.2-.6-.4-1.2-.4-1.8,0-1.2.3-2.1,1.1-2.9.7-.8,1.6-1.2,2.7-1.2s.7,0,1.2.2c.2,0,.7.2,1,.5.4.2.7.3.8.3s.2,0,.3-.2c0,0,.2-.4.2-.8h.2"/>
      <path class="st1" d="M221.1,8.6v4.7c0,0-.2,0-.2,0-.2-1.2-.6-2.2-1.3-2.9-.7-.7-1.4-1.1-2.2-1.1s-1.1.2-1.5.6c-.3.4-.5.8-.5,1.3s0,.6.2.8c.2.3.4.7.8,1,.2.2.9.7,1.9,1.2,1.4.8,2.4,1.6,2.9,2.3s.7,1.6.7,2.5-.4,2.2-1.2,3.1c-.8.8-1.8,1.2-3.1,1.2s-.7,0-1.1-.2c-.3,0-.7-.2-1.3-.5-.2-.2-.5-.2-.7-.2s-.3,0-.5.2c-.2.2-.3.3-.4.7h-.3v-5.4h.3c.2,1.5.7,2.7,1.6,3.5.7.8,1.6,1.2,2.4,1.2s1.2-.2,1.6-.7c.4-.4.6-.9.6-1.5s0-.7-.2-1c-.2-.3-.4-.6-.7-.9-.3-.2-.8-.7-1.7-1.1-1.1-.7-1.9-1.2-2.4-1.7-.5-.4-.8-.9-1.1-1.5-.2-.6-.4-1.2-.4-1.8,0-1.2.3-2.1,1.1-2.9s1.6-1.2,2.7-1.2.7,0,1.2.2c.2,0,.7.2,1,.5.4.2.7.3.8.3s.2,0,.3-.2c0,0,.2-.4.2-.8h.2"/>
      <path class="st1" d="M298.9,8.6v4.7c0,0-.2,0-.2,0-.2-1.2-.6-2.2-1.3-2.9-.7-.7-1.4-1.1-2.2-1.1s-1.1.2-1.5.6c-.3.4-.6.8-.6,1.3s0,.6.2.8c.2.3.4.7.8,1,.2.2.9.7,1.9,1.2,1.4.8,2.4,1.6,2.9,2.3s.7,1.6.7,2.5-.4,2.2-1.2,3.1c-.8.8-1.8,1.2-3.1,1.2s-.7,0-1.1-.2c-.3,0-.7-.2-1.3-.5-.2-.2-.5-.2-.7-.2s-.3,0-.5.2c-.2.2-.3.3-.4.7h-.3v-5.4h.3c.2,1.5.7,2.7,1.6,3.5.7.8,1.6,1.2,2.4,1.2s1.2-.2,1.6-.7c.4-.4.6-.9.6-1.5s0-.7-.2-1c-.2-.3-.4-.6-.7-.9-.3-.2-.8-.7-1.7-1.1-1.1-.7-1.9-1.2-2.4-1.7-.5-.4-.8-.9-1.1-1.5-.2-.6-.4-1.2-.4-1.8,0-1.2.3-2.1,1.1-2.9s1.6-1.2,2.7-1.2.7,0,1.2.2c.2,0,.7.2,1,.5.4.2.7.3.8.3s.2,0,.3-.2c0,0,.2-.4.2-.8h.2"/>
      <path class="st1" d="M122.7,16.3v4.4c0,.7,0,1.2,0,1.4,0,.2.2.3.4.5.2.2.5.2.8.2h.4v.3h-6.4v-.3h.4c.3,0,.7,0,.8-.2.2,0,.2-.2.3-.5,0-.2,0-.6,0-1.3v-9.4c0-.7,0-1.2,0-1.4,0-.2-.2-.3-.4-.5-.2-.2-.5-.2-.8-.2h-.4v-.3h6.4v.3h-.4c-.3,0-.7,0-.8.2-.2,0-.2.2-.3.5,0,.2,0,.7,0,1.3v4.1h4.3v-4.1c0-.7,0-1.2,0-1.4,0-.2-.2-.3-.4-.5-.2-.2-.5-.2-.8-.2h-.4v-.3h6.4v.3h-.4c-.3,0-.7,0-.8.2-.2,0-.2.2-.3.5,0,.2,0,.7,0,1.3v9.4c0,.7,0,1.2,0,1.4,0,.2.2.3.4.5.2.2.5.2.8.2h.4v.3h-6.4v-.3h.4c.3,0,.7,0,.8-.2.2,0,.2-.2.3-.5,0-.2,0-.6,0-1.3v-4.4h-4.3"/>
      <path class="st1" d="M138.8,22.8v.3h-6.4v-.3h.4c.3,0,.7,0,.8-.2.2,0,.2-.2.3-.5,0-.2,0-.6,0-1.3v-9.4c0-.7,0-1.2,0-1.4,0-.2-.2-.3-.4-.5-.2-.2-.5-.2-.8-.2h-.4v-.3h6.4v.3h-.4c-.3,0-.7,0-.8.2-.2,0-.2.2-.3.5,0,.2,0,.7,0,1.3v9.4c0,.7,0,1.2,0,1.4,0,.2.2.3.4.5.2.2.5.2.8.2h.4"/>
      <path class="st1" d="M255.4,22.8v.3h-6.4v-.3h.4c.3,0,.7,0,.8-.2.2,0,.2-.2.3-.5,0-.2,0-.6,0-1.3v-9.4c0-.7,0-1.2,0-1.4,0-.2-.2-.3-.4-.5-.2-.2-.5-.2-.8-.2h-.4v-.3h6.4v.3h-.4c-.3,0-.7,0-.8.2-.2,0-.2.2-.3.5,0,.2,0,.7,0,1.3v9.4c0,.7,0,1.2,0,1.4,0,.2.2.3.4.5.2.2.5.2.8.2h.4"/>
      <path class="st1" d="M144,16.6v4.1c0,.7,0,1.2,0,1.5,0,.2.2.3.4.5.2,0,.6.2,1.2.2v.3h-6.3v-.3c.6,0,1,0,1.2-.2s.3-.2.4-.5c0-.2,0-.7,0-1.4v-9.3c0-.7,0-1.2,0-1.5,0-.2-.2-.3-.4-.5-.2,0-.6-.2-1.2-.2v-.3h5.6c1.5,0,2.6,0,3.2.3.7.2,1.2.7,1.7,1.3s.7,1.4.7,2.2-.3,1.9-1,2.6c-.4.4-1,.7-1.7,1l2.9,4.8c.4.7.7,1,.8,1.2.2.2.5.3.8.3v.4h-3.8l-3.9-6.5h-.8M144,9.7v6.1h.5c.8,0,1.5,0,1.9-.2.4-.2.7-.5,1-.9s.3-1.1.3-1.8c0-1.1-.2-1.8-.7-2.4-.4-.5-1.2-.7-2.1-.7h-1"/>
      <path class="st1" d="M160.2,19h-4.2l-.5,1.4c-.2.5-.2.8-.2,1.2s.2.7.4.9c.2,0,.6.2,1.2.2v.3h-4.1v-.3c.4,0,.8-.3,1.1-.7s.7-1.1,1.1-2.2l4.3-11.4h.2l4.4,11.7c.4,1.2.7,1.8,1,2.2.2.2.5.3.8.4v.3h-5.9v-.3h.2c.5,0,.8,0,1-.2.2,0,.2-.2.2-.5v-.4s0-.3-.2-.8l-.7-1.8M159.9,18.3l-1.8-4.9-1.9,4.9h3.6"/>
      <path class="st1" d="M197.5,19h-4.2l-.5,1.4c-.2.5-.2.8-.2,1.2s.2.7.4.9c.2,0,.6.2,1.2.2v.3h-4.1v-.3c.4,0,.8-.3,1.1-.7s.7-1.1,1.1-2.2l4.3-11.4h.2l4.4,11.7c.4,1.2.7,1.8,1,2.2.2.2.5.3.8.4v.3h-5.9v-.3h.2c.5,0,.8,0,1-.2.2,0,.2-.2.2-.5v-.4s0-.3-.2-.8l-.7-1.8M197.2,18.3l-1.8-4.9-1.9,4.9h3.6"/>
      <path class="st1" d="M263.6,19h-4.2l-.5,1.4c-.2.5-.2.8-.2,1.2s.2.7.4.9c.2,0,.6.2,1.2.2v.3h-4.1v-.3c.4,0,.8-.3,1.1-.7s.7-1.1,1.1-2.2l4.3-11.4h.2l4.4,11.7c.4,1.2.7,1.8,1,2.2.2.2.5.3.8.4v.3h-5.9v-.3h.2c.5,0,.8,0,1-.2.2,0,.2-.2.2-.5v-.4s0-.3-.2-.8l-.7-1.8M263.3,18.3l-1.8-4.9-1.9,4.9h3.6"/>
      <path class="st1" d="M180.6,14.9h3.6v.4c-.4,0-.7.2-.9.4-.2.2-.5.7-.9,1.5-.3.7-.9,1.7-1.6,2.7.6.6,1.1,1.1,1.4,1.2.2.2.5.2.7.2.4,0,.8-.3,1.2-1l.3.2c-.5,1.1-1,1.9-1.5,2.3-.4.3-.8.5-1.4.5s-.9,0-1.2-.3c-.4-.2-.9-.7-1.5-1.2-.7.6-1.4,1-2,1.2-.7.2-1.3.4-2,.4-1.1,0-2-.3-2.6-1.1-.7-.7-1-1.5-1-2.5s.3-1.9.9-2.7c.6-.7,1.5-1.4,2.7-2-.2-.4-.2-.9-.3-1.3,0-.4,0-.8,0-1.2,0-1.1.3-2,1-2.7.7-.7,1.5-1.1,2.5-1.1s1.5.2,1.9.7c.5.5.7,1,.7,1.7s-.2,1.4-.7,2c-.5.6-1.2,1.1-2.3,1.5.7,1.3,1.6,2.8,2.8,4.4.8-1.2,1.2-2.1,1.2-2.9s0-.5-.2-.7c-.2-.2-.4-.3-.7-.3v-.4M175.1,16c-.5.2-.8.5-1,.7-.2.4-.4.8-.4,1.2s.2,1.2.5,1.9c.3.7.7,1.1,1.2,1.5.4.3.9.5,1.3.5s.5,0,.7-.2c.2,0,.6-.2.9-.5-1.4-1.7-2.4-3.4-3.2-5.2M177.2,14.3c.6-.2,1-.6,1.2-.8.2-.3.3-.7.3-1.1,0-.7-.2-1.4-.5-1.9-.2-.3-.5-.5-.8-.5s-.5.2-.7.4-.2.6-.2,1,0,.7.2,1.1c0,.4.3,1,.7,1.9"/>
      <path class="st1" d="M229.2,8.7c1.9,0,3.5.6,4.6,2,1.2,1.4,1.8,3.2,1.8,5.3s-.4,3.4-1.3,4.8c-1.2,1.8-2.9,2.7-5.1,2.7s-3.8-.8-5.1-2.6c-.9-1.4-1.4-3-1.4-4.9s.6-3.9,1.8-5.3,2.7-2.1,4.5-2M229.3,9.3c-1.1,0-1.9.7-2.5,2-.5,1.1-.7,2.7-.7,4.7s.3,4.2,1.1,5.4c.5.8,1.2,1.2,2.1,1.2s1.2-.2,1.5-.5c.5-.4.9-1.2,1.2-2.2.2-1,.4-2.2.4-3.8s-.2-3.3-.4-4.2c-.3-.9-.7-1.6-1.2-2s-1-.6-1.6-.6"/>
      <path class="st1" d="M248.1,8.6v5h-.3c-.2-1.3-.7-2.3-1.5-3s-1.5-1.1-2.4-1.1-1.4.2-2.1.7c-.7.5-1.1,1.2-1.4,2-.4,1.1-.6,2.2-.6,3.6s.2,2.4.4,3.5c.2,1.1.7,1.8,1.2,2.4.6.5,1.3.8,2.2.8s1.5-.2,2.1-.6c.7-.4,1.3-1.1,2-2v1.2c-.7.8-1.4,1.4-2.2,1.8-.7.3-1.6.6-2.6.6s-2.4-.3-3.4-.9-1.7-1.5-2.3-2.7c-.6-1.2-.8-2.4-.8-3.6s.3-2.7.9-3.9c.6-1.2,1.4-2.2,2.5-2.8,1-.7,2.1-1,3.2-1s1.7.2,2.7.7c.6.2.9.4,1.1.4s.3,0,.5-.2c.2-.2.2-.4.2-.7h.3"/>
      <path class="st1" d="M278.4,8.9v3.8h-.3c-.2-.9-.4-1.5-.7-1.9s-.6-.7-.9-.9c-.2-.2-.6-.2-1.2-.2h-.9v11c0,.7,0,1.2,0,1.4,0,.2.2.3.4.5.2.2.5.2.8.2h.4v.3h-6.3v-.3h.4c.3,0,.7,0,.8-.2.2,0,.2-.2.3-.5,0-.2,0-.6,0-1.3v-11h-.9c-.8,0-1.4.2-1.7.6-.5.6-.8,1.3-1,2.4h-.3v-3.8h10.9"/>
    </g>
    <g>
      <rect class="st2" x="-1.6" y="7.7" width="21.7" height="3.1" transform="translate(-3.8 9.2) rotate(-45)"/>
      <rect class="st3" x="2.8" y="12.1" width="21.7" height="3.1" transform="translate(-5.6 13.6) rotate(-45)"/>
      <rect class="st0" x="7.1" y="16.4" width="21.7" height="3.1" transform="translate(-7.4 18) rotate(-45)"/>
      <rect class="st6" x="11.5" y="20.8" width="21.7" height="3.1" transform="translate(-9.2 22.4) rotate(-45)"/>
    </g>
  </g>
  <g>
    <path class="st4" d="M139.8,31.1h-1.7v.9h.7v.7h1v-1.7h0Z"/>
    <g>
      <path class="st4" d="M83.6,38.6h-3.6l-.7,1.8h-1.2l3-8h1.2l3,8h-1.2s-.7-1.8-.7-1.8ZM83.4,37.8l-1.5-4.1-1.5,4.1h3Z"/>
      <path class="st4" d="M91.8,34.7c.5.5.7,1.2.7,2v3.7h-1.1v-3.6c0-.7-.2-1.1-.5-1.4-.3-.3-.7-.5-1.3-.5s-1,.2-1.3.5-.5.8-.5,1.5v3.5h-1.1v-6.3h1.1v.9c.2-.3.5-.6.8-.7s.7-.2,1.2-.2c.8,0,1.4.2,1.9.7Z"/>
      <path class="st4" d="M163.9,34.3c.3-.7.8-1.1,1.5-1.5.7-.3,1.3-.5,2.1-.5s1.7.2,2.3.7,1.2,1,1.5,1.8h-1.3c-.2-.5-.6-.8-1-1.1s-.9-.4-1.6-.4-1.1.2-1.6.4-.8.7-1.1,1.1-.4,1.1-.4,1.7.2,1.2.4,1.7.6.8,1.1,1.1,1,.4,1.6.4,1.1-.2,1.6-.4c.4-.2.7-.7,1-1.1h1.3c-.3.7-.8,1.3-1.5,1.7s-1.5.7-2.3.7-1.5-.2-2.1-.5c-.7-.3-1.2-.8-1.5-1.5-.3-.7-.6-1.3-.6-2.1s.2-1.5.6-2.2Z"/>
      <path class="st4" d="M174.1,40.1c-.5-.2-.9-.7-1.2-1.2-.2-.5-.4-1.1-.4-1.7s.2-1.2.4-1.7.7-.9,1.2-1.2c.5-.2,1.1-.4,1.7-.4s1.2.2,1.7.4.9.7,1.2,1.2c.2.5.4,1.1.4,1.7s-.2,1.2-.4,1.7c-.3.5-.7.9-1.2,1.2-.5.2-1.1.4-1.7.4s-1.2-.2-1.7-.4ZM176.9,39.3c.3-.2.6-.4.8-.8.2-.3.3-.7.3-1.3s0-.9-.3-1.3c-.2-.3-.5-.6-.8-.8-.3-.2-.7-.2-1.1-.2s-.7,0-1.1.2c-.3.2-.6.4-.7.8-.2.3-.3.7-.3,1.3s0,.9.2,1.3c.2.3.4.6.7.8.3.2.7.2,1.1.2s.7,0,1.1-.2h0Z"/>
      <path class="st4" d="M189.6,34.3c.4.2.7.5.9.9.2.4.3.9.3,1.5v3.7h-1.1v-3.6c0-.7-.2-1.1-.5-1.4-.3-.3-.7-.5-1.3-.5s-1,.2-1.3.5c-.3.3-.5.8-.5,1.5v3.5h-1.1v-3.6c0-.7-.2-1.1-.5-1.4-.3-.3-.7-.5-1.3-.5s-1,.2-1.3.5c-.3.3-.5.8-.5,1.5v3.5h-1.1v-6.3h1.1v.9c.2-.3.5-.6.8-.7s.7-.2,1.2-.2,1,0,1.4.3c.4.2.7.6.9,1.1.2-.4.5-.8.9-1.1s.9-.3,1.4-.3,1,0,1.3.3h.2Z"/>
      <path class="st4" d="M194.7,34.4c.4-.2.9-.3,1.5-.3s1.1.2,1.6.4c.5.2.8.7,1.1,1.2.2.5.4,1.1.4,1.7s-.2,1.2-.4,1.7-.7.9-1.1,1.2-1,.4-1.6.4-1.1,0-1.5-.3-.7-.6-1-.9v4.1h-1.1v-9.3h1.1v1.2c.2-.3.5-.7.9-.9v-.2ZM197.8,36c-.2-.3-.5-.7-.8-.8s-.7-.2-1.1-.2-.7,0-1.1.2c-.3.2-.6.5-.8.8s-.3.7-.3,1.2,0,.9.3,1.2.5.7.8.8.7.2,1.1.2.7,0,1.1-.2c.3-.2.6-.5.8-.8s.3-.7.3-1.2,0-.9-.3-1.2Z"/>
      <path class="st4" d="M200.6,35.5c.2-.5.7-.8,1.1-1.2.5-.2,1-.4,1.6-.4s1.1,0,1.5.3.7.5.9.9v-1.2h1.1v6.3h-1.1v-1.2c-.2.3-.5.7-.9.9s-.9.3-1.5.3-1.1-.2-1.6-.4c-.5-.2-.8-.7-1.1-1.2s-.4-1.1-.4-1.7.2-1.2.4-1.7v.2ZM205.5,36c-.2-.3-.5-.7-.8-.8s-.7-.2-1.1-.2-.7,0-1.1.2c-.3.2-.6.4-.8.8-.2.3-.3.7-.3,1.2s0,.9.3,1.2c.2.3.5.7.8.8s.7.2,1.1.2.7,0,1.1-.2c.3-.2.6-.5.8-.8.2-.3.3-.7.3-1.2s0-.9-.3-1.2Z"/>
      <path class="st4" d="M213.7,34.7c.5.5.7,1.2.7,2v3.7h-1.1v-3.6c0-.7-.2-1.1-.5-1.4-.3-.3-.7-.5-1.3-.5s-1,.2-1.3.5c-.3.3-.5.8-.5,1.5v3.5h-1.1v-6.3h1.1v.9c.2-.3.5-.6.8-.7s.7-.2,1.2-.2c.8,0,1.4.2,1.9.7h0Z"/>
      <path class="st4" d="M221.8,34.1l-3.9,9.3h-1.1l1.2-3.1-2.7-6.2h1.2l2.1,5.1,2-5.1h1.2Z"/>
      <path class="st4" d="M107.1,35.4c0,.2,0,.3.3.4s.5.2.8.3c.3,0,.7.2,1,.3.3.2.7.3.8.7.2.3.3.7.3,1.2s-.2,1.2-.7,1.6-1.2.6-1.9.6c-1.4,0-2.3-.5-2.8-1.6l1.5-.8c.2.6.7.8,1.3.8s.9-.2.9-.6,0-.3-.3-.4-.5-.2-.8-.3c-.3,0-.7-.2-1-.3-.3-.2-.7-.3-.8-.7-.2-.2-.3-.7-.3-1.1,0-.7.2-1.2.7-1.6s1.1-.6,1.8-.6,1.1,0,1.5.3c.4.2.8.6,1.1,1.1l-1.5.8c-.2-.4-.6-.7-1.1-.7s-.4,0-.6.2-.2.2-.2.4h0Z"/>
      <path class="st4" d="M114.6,40.4c-1,0-1.8-.3-2.5-1s-1-1.5-1-2.5.3-1.8,1-2.5c.7-.7,1.5-1,2.5-1s1.2.2,1.7.5.9.7,1.2,1.2l-1.5.8c-.2-.2-.3-.5-.6-.7-.2-.2-.6-.2-.9-.2-.5,0-.9.2-1.2.5-.3.3-.5.7-.5,1.3s.2.9.5,1.3c.3.3.7.5,1.2.5s.7,0,.9-.2.5-.3.6-.7l1.5.8c-.3.5-.7.9-1.2,1.2s-1.2.5-1.7.5h0Z"/>
      <path class="st4" d="M119.8,37.6c.2.8.8,1.2,1.9,1.2s1.2-.2,1.5-.7l1.4.8c-.7.9-1.7,1.4-2.9,1.4s-2-.3-2.7-1-1-1.5-1-2.5.3-1.8,1-2.5c.7-.7,1.5-1,2.6-1s1.8.3,2.4,1c.7.7.9,1.5.9,2.5s0,.5,0,.7h-5.1ZM119.8,36.3h3.4c0-.4-.3-.8-.6-1-.3-.2-.7-.3-1.1-.3s-.8,0-1.2.3c-.3.2-.5.6-.6,1h0Z"/>
      <path class="st4" d="M129.9,33.4c.7,0,1.3.2,1.8.7.5.5.7,1.2.7,2.1v4.1h-1.7v-4c0-.5,0-.8-.3-1.1s-.6-.3-1-.3-.8.2-1.1.4-.4.7-.4,1.2v3.6h-1.7v-6.8h1.7v.7c.4-.7,1.1-.9,2.1-.9h0Z"/>
      <path class="st4" d="M136.9,35.1v-1.7h-1.6v-1.8l-1.7.6v5.9c0,.9.2,1.6.7,2,.5.3,1.3.5,2.6.3v-1.6h-.8c-.2,0-.4,0-.5-.2,0,0-.2-.2-.2-.5v-3h1.6,0Z"/>
      <path class="st4" d="M145.7,33.4h1.7v7h-1.7v-1c-.4.7-1.1,1-2.1,1s-1.4-.2-1.8-.7c-.5-.5-.7-1.2-.7-2.1v-4.2h1.7v4c0,.5,0,.8.3,1.1s.6.3,1,.3.8-.2,1.1-.4c.2-.2.4-.7.4-1.2v-3.6h0Z"/>
      <path class="st4" d="M156.3,33.4c.7,0,1.4.2,1.9.7.5.5.7,1.2.7,2.1v4.2h-1.7v-4.1c0-.4,0-.7-.3-.9-.2-.2-.5-.3-.8-.3s-.7.2-.9.4c-.2.2-.3.7-.3,1.2v3.8h-1.7v-4.1c0-.4,0-.7-.3-.9-.2-.2-.5-.3-.8-.3s-.7.2-.9.4-.3.7-.3,1.2v3.8h-1.7v-6.8h1.7v.7c.4-.6,1.1-.9,1.9-.9s1.5.3,1.8,1c.4-.7,1.2-1,2.1-1h0v-.2Z"/>
      <path class="st4" d="M138.1,40.4v-7h1.7v7h-1.7Z"/>
      <polygon class="st5" points="101.2 33.4 101.2 35.1 102.3 35.1 102.3 36.3 104.1 36.3 104.1 33.4 101.2 33.4"/>
      <path class="st4" d="M102.3,37.6c0,.2-.2.4-.4.7-.3.3-.8.5-1.3.5s-1-.2-1.3-.5-.5-.8-.5-1.3.2-1,.5-1.3c.2-.2.4-.3.7-.4v-1.7h0c-.7,0-1.3.4-1.9,1-.7.7-.9,1.5-.9,2.5s.3,1.8.9,2.5c.7.7,1.4,1,2.3,1s1.7-.3,2.2-1v1h1.7v-2.8s-1.8,0-1.8,0Z"/>
    </g>
  </g>
</svg>