<svg width="326" height="34" viewBox="0 0 326 34" fill="none" xmlns="http://www.w3.org/2000/svg">
<g clip-path="url(#clip0_637_308)">
<path d="M42.8906 16.1096V15.7245H43.3316C43.7114 15.7245 44.0099 15.6489 44.2202 15.5045C44.4237 15.36 44.5797 15.1537 44.6747 14.9061C44.7358 14.7411 44.7629 14.246 44.7629 13.4138V3.07079C44.7629 2.25243 44.7222 1.74353 44.6544 1.53722C44.5797 1.33091 44.4373 1.1521 44.2202 0.993932C44.0031 0.842638 43.7047 0.76699 43.3316 0.76699H42.8906V0.375H48.8195C50.4001 0.375 51.6754 0.62945 52.6387 1.14523C53.819 1.77791 54.7145 2.72694 55.3182 3.99231C55.9287 5.25769 56.234 6.69498 56.234 8.29733C56.234 9.39765 56.0847 10.4223 55.7863 11.3507C55.4878 12.286 55.1011 13.0562 54.6263 13.6614C54.1514 14.2735 53.6019 14.7549 52.9779 15.1262C52.3605 15.4976 51.594 15.7795 50.6986 15.9858C50.2983 16.0684 49.6742 16.1165 48.8263 16.1165H42.8974M47.9444 1.26214V13.5239C47.9444 14.1634 47.9716 14.5623 48.019 14.7067C48.0665 14.858 48.1615 14.968 48.2836 15.0506C48.46 15.1606 48.711 15.2225 49.0434 15.2225C50.1287 15.2225 50.9563 14.7824 51.5329 13.8952C52.3131 12.7055 52.7065 10.8625 52.7065 8.3661C52.7065 6.34426 52.4419 4.73503 51.9128 3.53155C51.4855 2.59628 50.9428 1.95672 50.2848 1.61286C49.8167 1.37217 49.0366 1.25526 47.9512 1.26214" fill="white"/>
<path d="M61.5684 1.29652V7.69215H61.8329C62.6809 7.69215 63.305 7.37581 63.6849 6.75C64.0715 6.11731 64.309 5.19579 64.4175 3.96481H64.777V12.2447H64.4175C64.3361 11.3507 64.1665 10.6149 63.9155 10.0441C63.6577 9.46642 63.366 9.08131 63.0269 8.88875C62.6877 8.68932 62.206 8.58617 61.5616 8.58617V12.9943C61.5616 13.854 61.5887 14.3766 61.6566 14.5692C61.7176 14.7617 61.8329 14.9199 62.0025 15.0437C62.1721 15.1675 62.4435 15.2294 62.8301 15.2294H63.6238C64.8652 15.2294 65.8624 14.8924 66.6086 14.2184C67.3548 13.5445 67.8907 12.5129 68.2231 11.1169H68.5826L67.9857 16.1165H56.5078V15.7314H56.9487C57.3354 15.7314 57.6475 15.6489 57.8849 15.4769C58.0545 15.3669 58.1834 15.1744 58.2783 14.9061C58.3462 14.7136 58.3869 14.2184 58.3869 13.4138V3.07767C58.3869 2.35558 58.3733 1.91545 58.3394 1.74353C58.2715 1.46845 58.1494 1.24838 57.9731 1.10396C57.7289 0.877023 57.3829 0.76699 56.9555 0.76699H56.5146V0.375H67.6329V5.03074H67.2734C67.0835 3.89604 66.8189 3.08455 66.4797 2.59628C66.1338 2.10801 65.6521 1.74353 65.028 1.50971C64.6617 1.36529 63.9766 1.29652 62.9658 1.29652H61.5684Z" fill="white"/>
<path d="M308.662 1.29652V7.69215H308.927C309.775 7.69215 310.399 7.37581 310.779 6.75C311.165 6.11731 311.403 5.19579 311.511 3.96481H311.871V12.2447H311.511C311.43 11.3507 311.26 10.6149 311.009 10.0441C310.751 9.46642 310.46 9.08131 310.121 8.88875C309.781 8.68932 309.293 8.58617 308.655 8.58617V12.9943C308.655 13.854 308.683 14.3766 308.75 14.5692C308.811 14.7617 308.927 14.9199 309.096 15.0437C309.266 15.1675 309.537 15.2294 309.924 15.2294H310.718C311.959 15.2294 312.956 14.8924 313.702 14.2184C314.449 13.5445 314.984 12.5129 315.317 11.1169H315.676L315.079 16.1165H303.602V15.7314H304.043C304.429 15.7314 304.741 15.6489 304.972 15.4769C305.141 15.3669 305.27 15.1744 305.365 14.9061C305.433 14.7136 305.474 14.2184 305.474 13.4138V3.07767C305.474 2.35558 305.46 1.91545 305.426 1.74353C305.359 1.46845 305.236 1.24838 305.067 1.10396C304.816 0.877023 304.477 0.76699 304.049 0.76699H303.608V0.375H314.727V5.03074H314.367C314.177 3.89604 313.913 3.08455 313.573 2.59628C313.228 2.10801 312.746 1.74353 312.122 1.50971C311.755 1.36529 311.07 1.29652 310.06 1.29652H308.662Z" fill="white"/>
<path d="M80.7521 0.375L72.9374 15.2225H75.4676C76.6616 15.2225 77.5027 15.14 77.9708 14.9543C78.7509 14.6723 79.4225 14.1634 79.9855 13.4207C80.5486 12.678 80.9352 11.6739 81.1523 10.4292H81.5322L80.9963 16.1096H68.8672L76.6955 1.23463H74.7214C73.9549 1.23463 73.4529 1.26214 73.2087 1.31715C72.7474 1.42031 72.32 1.61974 71.913 1.91545C71.5128 2.21116 71.1804 2.61003 70.9158 3.10518C70.6513 3.60032 70.441 4.23301 70.2917 4.9826H69.9322L70.2917 0.381877H80.7589" fill="white"/>
<path d="M89.943 11.6043H85.303L84.7196 13.1517C84.5364 13.6675 84.4482 14.0938 84.4482 14.4377C84.4482 14.8847 84.5975 15.2217 84.896 15.4348C85.0723 15.5655 85.5065 15.6549 86.1916 15.7237V16.1088H81.7891V15.7237C82.2639 15.6343 82.6506 15.3936 82.9626 15.0016C83.2679 14.6096 83.6478 13.805 84.0955 12.5878L88.8304 0.0234375H89.0136L93.7621 12.9385C94.2166 14.1832 94.5965 14.9672 94.8882 15.2904C95.1053 15.538 95.4241 15.6755 95.8244 15.7237V16.1088H89.441V15.7237H89.7055C90.2211 15.7237 90.5806 15.6343 90.7909 15.4555C90.9334 15.3317 91.0012 15.146 91.0012 14.9053C91.0012 14.7609 90.9809 14.6165 90.9402 14.4652C90.9334 14.3964 90.8316 14.1007 90.6485 13.578L89.9294 11.5975M89.6241 10.7447L87.6569 5.33938L85.615 10.7447H89.6241Z" fill="white"/>
<path d="M101.056 0.375L107.589 10.0372V3.36651C107.589 2.4106 107.474 1.77104 107.25 1.43406C106.938 0.980178 106.415 0.760113 105.683 0.773867V0.381877H110.024V0.773867C109.468 0.863269 109.095 0.966424 108.905 1.11084C108.715 1.24838 108.566 1.47532 108.457 1.78479C108.355 2.09426 108.301 2.62379 108.301 3.37338V16.481H107.976L99.0212 3.40089V13.4276C99.0212 14.3285 99.1976 14.9405 99.5503 15.2638C99.9031 15.5801 100.303 15.7451 100.758 15.7451H101.077V16.1303H96.3485V15.7451C97.0811 15.7314 97.5967 15.5595 97.8816 15.2087C98.1665 14.858 98.3157 14.2735 98.3157 13.4345V2.34183L98.0037 1.88795C97.7255 1.44094 97.4746 1.14523 97.2575 1.00769C97.0404 0.870146 96.7351 0.787621 96.3281 0.773867V0.381877H101.056" fill="white"/>
<path d="M126.688 0.0234375L126.803 5.28436H126.416C126.227 3.97085 125.758 2.91179 125.012 2.11405C124.266 1.31632 123.459 0.910574 122.59 0.910574C121.919 0.910574 121.39 1.12376 120.996 1.54326C120.603 1.96964 120.413 2.45103 120.413 2.99431C120.413 3.34504 120.481 3.65451 120.623 3.92271C120.813 4.28719 121.112 4.6448 121.532 4.99553C121.838 5.24998 122.543 5.71074 123.656 6.35718C125.202 7.25119 126.247 8.11082 126.783 8.91543C127.312 9.72004 127.583 10.6347 127.583 11.6594C127.583 12.9797 127.149 14.1145 126.281 15.0566C125.412 15.9988 124.314 16.4733 122.97 16.4733C122.55 16.4733 122.156 16.4251 121.783 16.3151C121.41 16.2119 120.942 16.0263 120.379 15.7512C120.067 15.593 119.802 15.5174 119.599 15.5174C119.429 15.5174 119.246 15.593 119.063 15.7581C118.873 15.9162 118.717 16.1569 118.602 16.4733H118.242V10.5453H118.602C118.887 12.2026 119.443 13.4749 120.277 14.3483C121.098 15.2217 121.987 15.6618 122.936 15.6618C123.669 15.6618 124.259 15.428 124.693 14.9466C125.128 14.4789 125.351 13.9288 125.351 13.3098C125.351 12.9385 125.27 12.5809 125.1 12.2302C124.931 11.8863 124.68 11.5562 124.341 11.2399C124.001 10.9304 123.405 10.5247 122.543 10.0226C121.336 9.32805 120.474 8.72975 119.945 8.2346C119.416 7.73946 119.009 7.18242 118.724 6.57724C118.439 5.96519 118.296 5.29811 118.296 4.56915C118.296 3.31065 118.683 2.23784 119.463 1.35758C120.237 0.477321 121.22 0.0371915 122.401 0.0371915C122.835 0.0371915 123.248 0.0990847 123.656 0.215994C123.968 0.312272 124.334 0.477321 124.775 0.724894C125.216 0.972467 125.528 1.09625 125.704 1.09625C125.881 1.09625 126.009 1.03436 126.104 0.910574C126.199 0.786787 126.294 0.497952 126.376 0.0303145H126.674" fill="white"/>
<path d="M229.835 0.0234375L229.951 5.28436H229.564C229.374 3.97085 228.906 2.91179 228.16 2.11405C227.413 1.31632 226.606 0.910574 225.738 0.910574C225.066 0.910574 224.537 1.12376 224.144 1.54326C223.75 1.96964 223.554 2.45103 223.554 2.99431C223.554 3.34504 223.621 3.65451 223.757 3.92271C223.947 4.28719 224.252 4.6448 224.666 4.99553C224.971 5.24998 225.677 5.71074 226.789 6.35718C228.336 7.25119 229.381 8.11082 229.917 8.91543C230.446 9.72004 230.717 10.6347 230.717 11.6594C230.717 12.9797 230.283 14.1145 229.415 15.0566C228.546 15.9988 227.447 16.4733 226.104 16.4733C225.684 16.4733 225.29 16.4251 224.917 16.3151C224.544 16.2119 224.076 16.0263 223.513 15.7512C223.201 15.593 222.936 15.5174 222.74 15.5174C222.57 15.5174 222.387 15.593 222.204 15.7581C222.014 15.9162 221.858 16.1569 221.742 16.4733H221.383V10.5453H221.742C222.027 12.2026 222.584 13.4749 223.411 14.3483C224.232 15.2217 225.121 15.6618 226.07 15.6618C226.803 15.6618 227.393 15.428 227.827 14.9466C228.261 14.4789 228.478 13.9288 228.478 13.3098C228.478 12.9385 228.397 12.5809 228.234 12.2302C228.065 11.8863 227.814 11.5562 227.474 11.2399C227.135 10.9304 226.538 10.5247 225.677 10.0226C224.469 9.32805 223.608 8.72975 223.079 8.2346C222.55 7.73946 222.143 7.18242 221.858 6.57724C221.573 5.96519 221.43 5.29811 221.43 4.56915C221.43 3.31065 221.824 2.23784 222.597 1.35758C223.37 0.477321 224.354 0.0371915 225.534 0.0371915C225.962 0.0371915 226.382 0.0990847 226.789 0.215994C227.095 0.312272 227.468 0.477321 227.909 0.724894C228.35 0.972467 228.662 1.09625 228.838 1.09625C229.014 1.09625 229.143 1.03436 229.238 0.910574C229.333 0.786787 229.428 0.497952 229.51 0.0303145H229.808" fill="white"/>
<path d="M240.394 0.0234375L240.516 5.28436H240.129C239.939 3.97085 239.471 2.91179 238.725 2.11405C237.979 1.31632 237.172 0.910574 236.303 0.910574C235.632 0.910574 235.096 1.12376 234.709 1.54326C234.323 1.96964 234.126 2.45103 234.126 2.99431C234.126 3.34504 234.194 3.65451 234.336 3.92271C234.526 4.28719 234.825 4.6448 235.245 4.99553C235.55 5.24998 236.256 5.71074 237.368 6.35718C238.915 7.25119 239.96 8.11082 240.496 8.91543C241.025 9.72004 241.296 10.6347 241.296 11.6594C241.296 12.9797 240.862 14.1145 239.994 15.0566C239.125 15.9988 238.027 16.4733 236.69 16.4733C236.27 16.4733 235.876 16.4251 235.503 16.3151C235.13 16.2119 234.662 16.0263 234.099 15.7512C233.78 15.593 233.522 15.5174 233.319 15.5174C233.149 15.5174 232.966 15.593 232.783 15.7581C232.593 15.9162 232.437 16.1569 232.321 16.4733H231.969V10.5453H232.321C232.606 12.2026 233.169 13.4749 233.997 14.3483C234.818 15.2217 235.707 15.6618 236.656 15.6618C237.389 15.6618 237.979 15.428 238.413 14.9466C238.847 14.4789 239.071 13.9288 239.071 13.3098C239.071 12.9385 238.99 12.5809 238.82 12.2302C238.651 11.8863 238.4 11.5562 238.06 11.2399C237.721 10.9304 237.124 10.5247 236.263 10.0226C235.055 9.32805 234.194 8.72975 233.665 8.2346C233.136 7.73946 232.729 7.18242 232.444 6.57724C232.159 5.96519 232.016 5.29811 232.016 4.56915C232.016 3.31065 232.403 2.23784 233.183 1.35758C233.956 0.477321 234.94 0.0371915 236.12 0.0371915C236.548 0.0371915 236.968 0.0990847 237.375 0.215994C237.681 0.312272 238.054 0.477321 238.495 0.724894C238.936 0.972467 239.248 1.09625 239.424 1.09625C239.6 1.09625 239.729 1.03436 239.831 0.910574C239.926 0.786787 240.021 0.497952 240.102 0.0303145H240.401" fill="white"/>
<path d="M325.111 0.0234375L325.233 5.28436H324.846C324.656 3.97085 324.188 2.91179 323.442 2.11405C322.696 1.31632 321.888 0.910574 321.02 0.910574C320.349 0.910574 319.819 1.12376 319.426 1.54326C319.033 1.96964 318.836 2.45103 318.836 2.99431C318.836 3.34504 318.904 3.65451 319.046 3.92271C319.236 4.28719 319.535 4.6448 319.955 4.99553C320.26 5.24998 320.966 5.71074 322.072 6.35718C323.618 7.25119 324.663 8.11082 325.206 8.91543C325.735 9.72004 326.006 10.6347 326.006 11.6594C326.006 12.9797 325.572 14.1145 324.704 15.0566C323.835 15.9988 322.736 16.4733 321.393 16.4733C320.973 16.4733 320.579 16.4251 320.206 16.3151C319.833 16.2119 319.365 16.0263 318.802 15.7512C318.49 15.593 318.225 15.5174 318.029 15.5174C317.859 15.5174 317.676 15.593 317.493 15.7581C317.303 15.9162 317.147 16.1569 317.031 16.4733H316.672V10.5453H317.031C317.316 12.2026 317.873 13.4749 318.707 14.3483C319.528 15.2217 320.416 15.6618 321.366 15.6618C322.099 15.6618 322.689 15.428 323.123 14.9466C323.557 14.4789 323.781 13.9288 323.781 13.3098C323.781 12.9385 323.7 12.5809 323.53 12.2302C323.367 11.8863 323.11 11.5562 322.77 11.2399C322.431 10.9304 321.834 10.5247 320.973 10.0226C319.765 9.32805 318.904 8.72975 318.375 8.2346C317.845 7.73946 317.438 7.18242 317.154 6.57724C316.869 5.96519 316.726 5.29811 316.726 4.56915C316.726 3.31065 317.12 2.23784 317.893 1.35758C318.666 0.477321 319.65 0.0371915 320.83 0.0371915C321.264 0.0371915 321.685 0.0990847 322.085 0.215994C322.397 0.312272 322.77 0.477321 323.204 0.724894C323.645 0.972467 323.957 1.09625 324.134 1.09625C324.31 1.09625 324.439 1.03436 324.534 0.910574C324.629 0.786787 324.724 0.497952 324.805 0.0303145H325.097" fill="white"/>
<path d="M133.154 8.5449V13.407C133.154 14.2253 133.195 14.7411 133.27 14.9405C133.344 15.1468 133.494 15.3325 133.711 15.4838C133.928 15.6351 134.219 15.7176 134.592 15.7176H135.027V16.1028H128.101V15.7176H128.541C128.928 15.7176 129.24 15.6351 129.471 15.4632C129.64 15.3532 129.776 15.1606 129.864 14.8924C129.939 14.6998 129.973 14.2047 129.973 13.4001V3.07079C129.973 2.25243 129.939 1.74353 129.864 1.53722C129.79 1.33091 129.647 1.1521 129.423 0.993932C129.206 0.842638 128.908 0.76699 128.535 0.76699H128.094V0.375H135.02V0.76699H134.586C134.199 0.76699 133.887 0.849515 133.656 1.01456C133.487 1.1246 133.358 1.31715 133.256 1.58536C133.188 1.77791 133.148 2.27306 133.148 3.07079V7.51335H137.815V3.07079C137.815 2.25243 137.781 1.74353 137.706 1.53722C137.632 1.33091 137.489 1.1521 137.265 0.993932C137.041 0.842638 136.743 0.76699 136.377 0.76699H135.942V0.375H142.868V0.76699H142.434C142.041 0.76699 141.736 0.849515 141.505 1.01456C141.335 1.1246 141.2 1.31715 141.098 1.58536C141.03 1.77791 140.989 2.27306 140.989 3.07079V13.407C140.989 14.2253 141.023 14.7411 141.098 14.9405C141.173 15.1468 141.315 15.3325 141.539 15.4838C141.763 15.6351 142.061 15.7176 142.434 15.7176H142.868V16.1028H135.942V15.7176H136.377C136.77 15.7176 137.075 15.6351 137.306 15.4632C137.475 15.3532 137.611 15.1606 137.706 14.8924C137.781 14.6998 137.815 14.2047 137.815 13.4001V8.53803H133.148" fill="white"/>
<path d="M150.715 15.7176V16.1028H143.789V15.7176H144.23C144.617 15.7176 144.929 15.6351 145.159 15.4632C145.329 15.3532 145.458 15.1606 145.553 14.8924C145.621 14.6998 145.661 14.2047 145.661 13.4001V3.07079C145.661 2.25243 145.627 1.74353 145.553 1.53722C145.478 1.33091 145.336 1.1521 145.119 0.993932C144.895 0.842638 144.603 0.76699 144.23 0.76699H143.789V0.375H150.715V0.76699H150.274C149.888 0.76699 149.582 0.849515 149.345 1.01456C149.175 1.1246 149.04 1.31715 148.945 1.58536C148.87 1.77791 148.836 2.27306 148.836 3.07079V13.407C148.836 14.2253 148.877 14.7411 148.951 14.9405C149.026 15.1468 149.175 15.3325 149.392 15.4838C149.609 15.6351 149.901 15.7176 150.274 15.7176H150.715Z" fill="white"/>
<path d="M277.676 15.7176V16.1028H270.75V15.7176H271.191C271.578 15.7176 271.89 15.6351 272.12 15.4632C272.29 15.3532 272.419 15.1606 272.514 14.8924C272.588 14.6998 272.622 14.2047 272.622 13.4001V3.07079C272.622 2.25243 272.588 1.74353 272.514 1.53722C272.439 1.33091 272.297 1.1521 272.08 0.993932C271.856 0.842638 271.564 0.76699 271.191 0.76699H270.75V0.375H277.676V0.76699H277.235C276.848 0.76699 276.543 0.849515 276.306 1.01456C276.136 1.1246 276.001 1.31715 275.906 1.58536C275.831 1.77791 275.797 2.27306 275.797 3.07079V13.407C275.797 14.2253 275.838 14.7411 275.912 14.9405C275.987 15.1468 276.136 15.3325 276.353 15.4838C276.57 15.6351 276.862 15.7176 277.235 15.7176H277.676Z" fill="white"/>
<path d="M156.375 8.93689V13.3794C156.375 14.2322 156.415 14.7617 156.51 14.9818C156.598 15.2087 156.761 15.3875 156.985 15.5251C157.209 15.6557 157.629 15.7245 158.247 15.7245V16.1096H151.375V15.7245C151.999 15.7245 152.426 15.6557 152.65 15.5182C152.874 15.3738 153.03 15.2019 153.118 14.9818C153.207 14.7686 153.254 14.2322 153.254 13.3794V3.11205C153.254 2.2593 153.207 1.7229 153.118 1.50283C153.03 1.27589 152.874 1.10396 152.644 0.966424C152.42 0.83576 151.999 0.76699 151.375 0.76699V0.375H157.548C159.156 0.375 160.329 0.505663 161.069 0.773867C161.815 1.03519 162.419 1.52346 162.894 2.22492C163.362 2.92638 163.599 3.7585 163.599 4.70752C163.599 5.86974 163.246 6.83252 162.548 7.57524C162.1 8.06351 161.476 8.42112 160.675 8.66181L163.843 13.9915C164.264 14.6792 164.562 15.1193 164.739 15.2844C165.01 15.5182 165.315 15.6626 165.675 15.6833V16.1096H161.503L157.243 8.93689H156.368M156.375 1.26901V8.05663H156.931C157.84 8.05663 158.518 7.96036 158.973 7.76092C159.42 7.56837 159.773 7.21764 160.031 6.71561C160.289 6.21359 160.418 5.5534 160.418 4.72816C160.418 3.55218 160.187 2.6788 159.712 2.11489C159.237 1.55097 158.477 1.26901 157.426 1.26901H156.381" fill="white"/>
<path d="M174.02 11.6043H169.38L168.797 13.1517C168.614 13.6675 168.519 14.0938 168.519 14.4377C168.519 14.8847 168.668 15.2217 168.966 15.4348C169.143 15.5655 169.577 15.6549 170.262 15.7237V16.1088H165.859V15.7237C166.334 15.6343 166.728 15.3936 167.033 15.0016C167.338 14.6096 167.718 13.805 168.166 12.5878L172.908 0.0234375H173.091L177.839 12.9385C178.301 14.1832 178.667 14.9672 178.965 15.2904C179.182 15.538 179.494 15.6755 179.901 15.7237V16.1088H173.525V15.7237H173.789C174.305 15.7237 174.664 15.6343 174.875 15.4555C175.017 15.3317 175.092 15.146 175.092 14.9053C175.092 14.7609 175.072 14.6165 175.031 14.4652C175.017 14.3964 174.915 14.1007 174.732 13.578L174.013 11.5975M173.708 10.7447L171.741 5.33938L169.699 10.7447H173.708Z" fill="white"/>
<path d="M214.654 11.6043H210.014L209.431 13.1517C209.247 13.6675 209.159 14.0938 209.159 14.4377C209.159 14.8847 209.308 15.2217 209.607 15.4348C209.783 15.5655 210.217 15.6549 210.903 15.7237V16.1088H206.5V15.7237C206.975 15.6343 207.368 15.3936 207.674 15.0016C207.979 14.6096 208.359 13.805 208.806 12.5878L213.541 0.0234375H213.725L218.473 12.9385C218.934 14.1832 219.301 14.9672 219.599 15.2904C219.816 15.538 220.128 15.6755 220.535 15.7237V16.1088H214.159V15.7237H214.416C214.932 15.7237 215.292 15.6343 215.502 15.4555C215.644 15.3317 215.719 15.146 215.719 14.9053C215.719 14.7609 215.699 14.6165 215.658 14.4652C215.644 14.3964 215.543 14.1007 215.359 13.578L214.64 11.5975M214.342 10.7447L212.375 5.33938L210.34 10.7447H214.342Z" fill="white"/>
<path d="M286.623 11.6043H281.983L281.399 13.1517C281.216 13.6675 281.128 14.0938 281.128 14.4377C281.128 14.8847 281.277 15.2217 281.576 15.4348C281.752 15.5655 282.186 15.6549 282.871 15.7237V16.1088H278.469V15.7237C278.944 15.6343 279.337 15.3936 279.642 15.0016C279.948 14.6096 280.327 13.805 280.775 12.5878L285.517 0.0234375H285.7L290.449 12.9385C290.91 14.1832 291.276 14.9672 291.575 15.2904C291.792 15.538 292.104 15.6755 292.511 15.7237V16.1088H286.134V15.7237H286.399C286.914 15.7237 287.274 15.6343 287.484 15.4555C287.627 15.3317 287.701 15.146 287.701 14.9053C287.701 14.7609 287.681 14.6165 287.64 14.4652C287.627 14.3964 287.525 14.1007 287.342 13.578L286.623 11.5975M286.311 10.7447L284.343 5.33938L282.301 10.7447H286.311Z" fill="white"/>
<path d="M196.216 6.98003H200.109V7.4064C199.675 7.48205 199.329 7.63334 199.085 7.87404C198.834 8.11473 198.508 8.6649 198.115 9.5314C197.721 10.391 197.158 11.3676 196.439 12.4335C197.077 13.1075 197.599 13.582 198 13.8433C198.278 14.0221 198.549 14.1115 198.82 14.1115C199.282 14.1115 199.709 13.7539 200.082 13.0249L200.442 13.2725C199.926 14.4829 199.377 15.3425 198.8 15.8514C198.359 16.2365 197.857 16.4222 197.287 16.4222C196.799 16.4222 196.331 16.2984 195.89 16.0508C195.449 15.8032 194.906 15.3287 194.289 14.641C193.502 15.2668 192.769 15.7207 192.084 16.0027C191.399 16.2846 190.68 16.4222 189.934 16.4222C188.747 16.4222 187.804 16.0371 187.098 15.2668C186.4 14.4966 186.047 13.5888 186.047 12.5573C186.047 11.4295 186.386 10.4529 187.058 9.62768C187.729 8.79556 188.706 8.08035 189.981 7.47517C189.825 6.9869 189.703 6.51239 189.622 6.05163C189.54 5.58399 189.5 5.13698 189.5 4.70373C189.5 3.50713 189.852 2.50996 190.565 1.71223C191.27 0.914492 192.166 0.515625 193.258 0.515625C194.147 0.515625 194.845 0.776952 195.361 1.30648C195.876 1.82914 196.134 2.44807 196.134 3.14952C196.134 3.9954 195.87 4.71749 195.34 5.32266C194.811 5.92096 193.977 6.478 192.83 6.97315C193.543 8.46546 194.567 10.0816 195.931 11.8077C196.84 10.563 197.294 9.49702 197.294 8.60988C197.294 8.29354 197.206 8.01846 197.016 7.80527C196.833 7.57833 196.568 7.44766 196.222 7.4064V6.98003M190.246 8.19038C189.737 8.44483 189.378 8.71304 189.174 8.99499C188.876 9.41449 188.726 9.88213 188.726 10.3979C188.726 11.1062 188.903 11.8008 189.242 12.4954C189.581 13.19 190.002 13.7264 190.477 14.1115C190.958 14.4966 191.44 14.6892 191.915 14.6892C192.159 14.6892 192.423 14.6273 192.722 14.5035C193.02 14.3797 193.346 14.194 193.692 13.9465C192.193 12.1034 191.046 10.1778 190.246 8.19038ZM192.512 6.30608C193.17 6.02412 193.611 5.7009 193.834 5.37768C194.058 5.04071 194.167 4.64184 194.167 4.1742C194.167 3.3352 193.984 2.62687 193.611 2.05608C193.366 1.67096 193.061 1.47841 192.708 1.47841C192.41 1.47841 192.166 1.61595 191.949 1.89103C191.745 2.16611 191.637 2.54435 191.637 3.01886C191.637 3.38334 191.684 3.77533 191.786 4.19483C191.881 4.61433 192.125 5.32266 192.505 6.31295" fill="white"/>
<path d="M249.169 0.149048C251.258 0.0527697 252.954 0.781734 254.263 2.34282C255.572 3.89703 256.224 5.84322 256.224 8.18141C256.224 10.1757 255.742 11.9363 254.772 13.4561C253.483 15.4642 251.658 16.4751 249.304 16.4751C246.95 16.4751 245.112 15.5123 243.83 13.5936C242.799 12.0807 242.297 10.2789 242.297 8.20204C242.297 5.86385 242.962 3.91766 244.284 2.35657C245.614 0.795488 247.242 0.0596467 249.182 0.155925M249.291 0.878012C248.09 0.878012 247.188 1.61385 246.557 3.08554C246.048 4.29589 245.797 6.0289 245.797 8.28457C245.797 10.9666 246.191 12.9541 246.978 14.2401C247.527 15.141 248.294 15.588 249.27 15.588C249.935 15.588 250.491 15.3954 250.939 15.0034C251.502 14.5083 251.943 13.7243 252.262 12.6308C252.574 11.5443 252.737 10.1207 252.737 8.37397C252.737 6.29023 252.574 4.72915 252.248 3.69759C251.923 2.66604 251.516 1.93707 251.021 1.5107C250.525 1.08432 249.949 0.871135 249.298 0.871135" fill="white"/>
<path d="M269.702 0.0078125V5.47505H269.362C269.078 4.03775 268.542 2.9443 267.762 2.18095C266.988 1.4176 266.1 1.03249 265.116 1.03249C264.288 1.03249 263.542 1.31445 262.85 1.88524C262.165 2.44916 261.663 3.19187 261.344 4.09964C260.937 5.26874 260.734 6.56849 260.734 8.00579C260.734 9.44309 260.883 10.6947 261.175 11.8569C261.473 13.0123 261.934 13.8925 262.572 14.4839C263.203 15.0754 264.024 15.3711 265.035 15.3711C265.862 15.3711 266.615 15.1579 267.307 14.7178C267.992 14.2845 268.718 13.5349 269.478 12.4759V13.8306C268.738 14.759 267.972 15.4261 267.171 15.8456C266.378 16.2582 265.442 16.4714 264.37 16.4714C262.972 16.4714 261.731 16.1344 260.639 15.4605C259.547 14.7865 258.705 13.8238 258.115 12.5653C257.525 11.2999 257.227 9.95887 257.227 8.52844C257.227 7.02925 257.559 5.59883 258.217 4.25781C258.875 2.91679 259.764 1.87149 260.883 1.12189C262.002 0.379172 263.183 0.0078125 264.444 0.0078125C265.374 0.0078125 266.357 0.248508 267.382 0.7299C267.979 1.00498 268.365 1.1494 268.521 1.1494C268.732 1.1494 268.915 1.06 269.064 0.874317C269.213 0.695515 269.315 0.40668 269.362 0.0146895H269.702" fill="white"/>
<path d="M302.737 0.375V4.625H302.398C302.187 3.64846 301.957 2.94701 301.706 2.52063C301.455 2.09426 301.102 1.7504 300.668 1.49595C300.424 1.35841 299.996 1.28964 299.386 1.28964H298.402V13.4345C298.402 14.2391 298.443 14.748 298.511 14.9474C298.585 15.1468 298.728 15.3256 298.938 15.4769C299.155 15.6282 299.44 15.7039 299.813 15.7039H300.241V16.1165H293.389V15.7039H293.816C294.196 15.7039 294.495 15.6282 294.732 15.4632C294.895 15.3532 295.024 15.1675 295.126 14.9061C295.193 14.7205 295.227 14.2253 295.227 13.4345V1.29652H294.244C293.355 1.29652 292.711 1.51659 292.31 1.97047C291.747 2.5894 291.388 3.48341 291.239 4.63188H290.906V0.375H302.723" fill="white"/>
<path d="M16.7502 -0.00429756L0 16.9766L2.39357 19.4031L19.1438 2.42223L16.7502 -0.00429756Z" fill="#FECD1A"/>
<path d="M21.5315 4.84726L4.78125 21.8281L7.17482 24.2547L23.925 7.2738L21.5315 4.84726Z" fill="#E2001A"/>
<path d="M26.3234 9.70179L9.57031 26.6797L11.9635 29.1066L28.7166 12.1287L26.3234 9.70179Z" fill="#0A8B30"/>
<path d="M16.7462 33.9548L14.3516 31.5272L31.1003 14.5547L33.4949 16.9754L16.7462 33.9548Z" fill="#656EAD"/>
<path d="M105.428 31.5243C105.428 33.0304 105.51 33.2504 106.263 33.3123L106.792 33.3536C106.873 33.4361 106.846 33.6631 106.765 33.7043C105.903 33.6768 105.435 33.6631 104.879 33.6631C104.296 33.6631 103.8 33.6768 103.061 33.7043C102.98 33.6631 102.952 33.4361 103.034 33.3536L103.461 33.3123C104.268 33.2298 104.296 33.0304 104.296 31.5243V30.8091C104.296 30.0389 104.255 29.8532 103.855 29.0692L102.22 25.837C101.752 24.9086 101.541 24.8398 101.128 24.7711L100.741 24.7023C100.66 24.606 100.673 24.4066 100.768 24.3516C101.209 24.3791 101.711 24.3928 102.376 24.3928C103.041 24.3928 103.515 24.3791 103.861 24.3516C103.984 24.3928 103.984 24.6198 103.902 24.7023L103.719 24.7298C103.237 24.7986 103.136 24.8742 103.136 24.9842C103.136 25.1287 103.495 25.9264 103.563 26.0639C104.078 27.1024 104.587 28.2164 105.13 29.1861C105.557 28.4434 106.019 27.625 106.432 26.8135C106.819 26.0846 107.335 25.1287 107.335 24.9567C107.335 24.8742 107.084 24.7711 106.751 24.7298L106.5 24.7023C106.405 24.606 106.419 24.4066 106.527 24.3516C107.023 24.3791 107.43 24.3928 107.857 24.3928C108.284 24.3928 108.678 24.3791 109.146 24.3516C109.254 24.4203 109.275 24.6198 109.173 24.7023L108.786 24.7711C108.067 24.8948 107.653 25.782 106.955 26.9923L106.08 28.5259C105.469 29.5919 105.428 29.7225 105.428 30.8022V31.5312V31.5243Z" fill="#EEEEEE"/>
<path d="M113.532 30.8309C113.532 32.5845 112.338 33.8499 110.608 33.8499C109.014 33.8499 107.766 32.7083 107.766 30.9546C107.766 29.201 109.082 27.9219 110.717 27.9219C112.351 27.9219 113.532 29.1047 113.532 30.8309ZM110.554 28.3414C109.638 28.3414 108.96 29.2285 108.96 30.7758C108.96 32.055 109.529 33.4304 110.75 33.4304C111.971 33.4304 112.345 32.1375 112.345 31.0578C112.345 29.8612 111.876 28.3482 110.554 28.3482V28.3414Z" fill="#EEEEEE"/>
<path d="M116.082 31.5873C116.082 32.557 116.319 33.2034 117.371 33.2034C117.744 33.2034 118.192 33.0521 118.497 32.7839C118.68 32.612 118.775 32.4057 118.775 31.9724V29.6686C118.775 28.754 118.68 28.7265 118.26 28.5546L118.076 28.4858C117.981 28.4308 117.981 28.2313 118.09 28.1763C118.646 28.1626 119.406 28.0663 119.711 27.9219C119.779 27.9356 119.82 27.9631 119.833 28.0182C119.806 28.2864 119.793 28.7196 119.793 29.2423V31.6011C119.793 32.7083 119.833 33.1347 120.22 33.1347C120.383 33.1347 120.566 33.1071 120.763 33.0659C120.844 33.1347 120.858 33.4166 120.749 33.4716C120.206 33.5817 119.406 33.7261 118.931 33.9943C118.863 33.9943 118.789 33.953 118.762 33.898V33.3203C118.762 33.1965 118.721 33.1209 118.639 33.1209C118.226 33.3891 117.54 33.8499 116.726 33.8499C115.505 33.8499 115.051 33.2309 115.051 32.0962V29.7512C115.051 28.864 115.051 28.7402 114.637 28.5546L114.468 28.4858C114.386 28.417 114.4 28.2176 114.495 28.1763C115.132 28.1626 115.675 28.0319 115.98 27.9219C116.062 27.9356 116.102 27.9631 116.116 28.0182C116.089 28.2588 116.075 28.5546 116.075 29.2423V31.5873H116.082Z" fill="#EEEEEE"/>
<path d="M122.199 29.6324C122.199 29.0823 122.199 29.0135 121.826 28.7591L121.704 28.6765C121.65 28.6215 121.65 28.4633 121.718 28.4221C122.037 28.312 122.769 27.9476 123.115 27.7344C123.183 27.7481 123.224 27.7756 123.224 27.8307V28.649C123.224 28.7178 123.237 28.7591 123.264 28.7728C123.753 28.3671 124.275 27.9269 124.791 27.9269C125.137 27.9269 125.415 28.1539 125.415 28.4908C125.415 28.9516 125.042 29.1373 124.818 29.1373C124.675 29.1373 124.608 29.096 124.513 29.041C124.302 28.8966 124.099 28.8141 123.902 28.8141C123.678 28.8141 123.515 28.9379 123.4 29.096C123.258 29.2955 123.217 29.7012 123.217 30.1757V32.0875C123.217 33.0985 123.244 33.2704 123.773 33.3116L124.275 33.3529C124.37 33.4217 124.343 33.6624 124.248 33.7036C123.597 33.6761 123.197 33.6624 122.708 33.6624C122.22 33.6624 121.792 33.6761 121.433 33.7036C121.338 33.6624 121.304 33.4217 121.406 33.3529L121.67 33.3116C122.186 33.2291 122.199 33.0985 122.199 32.0875V29.6256V29.6324Z" fill="#EEEEEE"/>
<path d="M131.537 31.5509C131.537 33.0294 131.564 33.2082 132.453 33.3114L132.826 33.3526C132.907 33.4214 132.88 33.6621 132.799 33.7034C132.005 33.6759 131.551 33.6621 130.994 33.6621C130.411 33.6621 129.916 33.6759 129.305 33.7034C129.224 33.6621 129.197 33.4352 129.278 33.3526L129.57 33.3114C130.377 33.2014 130.404 33.0294 130.404 31.5509V26.3656C130.404 25.169 130.377 24.9283 129.753 24.8595L129.251 24.8045C129.156 24.722 129.17 24.5088 129.278 24.4538C130.011 24.3575 130.872 24.3438 132.026 24.3438C133.179 24.3438 134.033 24.495 134.685 24.9077C135.322 25.3134 135.797 26.0493 135.797 27.0189C135.797 28.3118 135.004 28.9582 134.413 29.2539C133.803 29.5497 133.07 29.6734 132.5 29.6734C132.405 29.6322 132.405 29.419 132.487 29.3915C133.986 29.1095 134.522 28.2499 134.522 27.0327C134.522 25.671 133.735 24.7839 132.29 24.7839C131.557 24.7839 131.544 24.8389 131.544 25.2859V31.5509H131.537Z" fill="#EEEEEE"/>
<path d="M138.802 30.7483C139.012 30.6796 139.039 30.5489 139.039 30.3426L139.053 29.6961C139.066 29.1804 138.897 28.472 138.042 28.472C137.655 28.472 137.18 28.6715 137.153 29.1047C137.14 29.3317 137.126 29.4967 137.018 29.5792C136.807 29.7512 136.434 29.8474 136.224 29.8474C136.102 29.8474 136.027 29.7787 136.027 29.648C136.027 28.919 137.594 27.9219 138.605 27.9219C139.616 27.9219 140.091 28.5133 140.05 29.5655L139.968 32.0137C139.941 32.6601 140.063 33.2378 140.606 33.2378C140.749 33.2378 140.871 33.1966 140.952 33.1553C141.02 33.114 141.094 33.059 141.135 33.059C141.189 33.059 141.23 33.1415 141.23 33.2447C141.23 33.3135 140.749 33.8636 140.063 33.8636C139.731 33.8636 139.399 33.7398 139.161 33.4304C139.107 33.3478 139.025 33.2309 138.937 33.2309C138.842 33.2309 138.673 33.3547 138.395 33.5129C138.089 33.6848 137.784 33.8636 137.397 33.8636C137.011 33.8636 136.665 33.7536 136.427 33.5404C136.163 33.2997 136 32.949 136 32.557C136 32.0068 136.265 31.6836 137.153 31.3604L138.802 30.7552V30.7483ZM137.94 33.2241C138.218 33.2241 138.646 33.0109 138.788 32.8733C138.958 32.7014 138.958 32.5088 138.971 32.2131L138.998 31.381C138.998 31.2297 138.944 31.2022 138.863 31.2022C138.781 31.2022 138.544 31.2572 138.293 31.3466C137.472 31.6286 137.072 31.8349 137.072 32.3851C137.072 32.6258 137.241 33.2309 137.947 33.2309L137.94 33.2241Z" fill="#EEEEEE"/>
<path d="M142.34 29.6324C142.34 29.0823 142.34 29.0135 141.967 28.7591L141.845 28.6765C141.791 28.6215 141.791 28.4633 141.858 28.4221C142.177 28.312 142.91 27.9476 143.256 27.7344C143.324 27.7481 143.364 27.7756 143.364 27.8307V28.649C143.364 28.7178 143.378 28.7591 143.405 28.7728C143.893 28.3671 144.416 27.9269 144.931 27.9269C145.277 27.9269 145.555 28.1539 145.555 28.4908C145.555 28.9516 145.182 29.1373 144.958 29.1373C144.816 29.1373 144.748 29.096 144.653 29.041C144.443 28.8966 144.239 28.8141 144.043 28.8141C143.819 28.8141 143.656 28.9379 143.541 29.096C143.398 29.2955 143.358 29.7012 143.358 30.1757V32.0875C143.358 33.0985 143.385 33.2704 143.914 33.3116L144.416 33.3529C144.511 33.4217 144.484 33.6624 144.389 33.7036C143.737 33.6761 143.337 33.6624 142.849 33.6624C142.36 33.6624 141.933 33.6761 141.573 33.7036C141.478 33.6624 141.445 33.4217 141.546 33.3529L141.811 33.3116C142.326 33.2291 142.34 33.0985 142.34 32.0875V29.6256V29.6324Z" fill="#EEEEEE"/>
<path d="M148.048 28.7175C147.811 28.7175 147.797 28.7588 147.797 29.0545V31.6815C147.797 32.4999 147.892 33.2426 148.808 33.2426C148.944 33.2426 149.073 33.2151 149.181 33.1738C149.303 33.1326 149.486 32.9744 149.527 32.9744C149.636 32.9744 149.697 33.1257 149.663 33.2151C149.412 33.5108 148.917 33.8615 148.204 33.8615C147.01 33.8615 146.759 33.1876 146.759 32.3417V29.1233C146.759 28.745 146.746 28.7175 146.468 28.7175H146.081C146 28.6625 145.986 28.5043 146.04 28.4218C146.441 28.298 146.787 28.1124 146.929 27.9886C147.112 27.8166 147.37 27.4384 147.512 27.1565C147.58 27.1289 147.75 27.1289 147.804 27.2252V27.8579C147.804 28.1124 147.818 28.1261 148.055 28.1261H149.595C149.765 28.2499 149.731 28.635 149.609 28.7175H148.042H148.048Z" fill="#EEEEEE"/>
<path d="M151.031 29.6324C151.031 29.0823 151.031 29.0135 150.658 28.7591L150.536 28.6765C150.482 28.6215 150.482 28.4633 150.55 28.4221C150.869 28.312 151.656 27.9476 151.934 27.7344C151.988 27.7344 152.063 27.7619 152.09 27.8307C152.063 28.1539 152.063 28.3671 152.063 28.4908C152.063 28.5734 152.117 28.649 152.219 28.649C152.802 28.2845 153.453 27.9338 154.159 27.9338C155.312 27.9338 155.78 28.7384 155.78 29.6737V32.0875C155.78 33.0985 155.807 33.2429 156.309 33.3116L156.614 33.3529C156.709 33.4217 156.682 33.6624 156.587 33.7036C156.173 33.6761 155.766 33.6624 155.285 33.6624C154.803 33.6624 154.369 33.6761 153.996 33.7036C153.901 33.6624 153.867 33.4217 153.969 33.3529L154.233 33.3116C154.749 33.2291 154.762 33.0985 154.762 32.0875V29.99C154.762 29.1854 154.403 28.6009 153.46 28.6009C152.931 28.6009 152.476 28.8278 152.28 29.0891C152.096 29.3298 152.069 29.5224 152.069 29.935V32.0875C152.069 33.0985 152.096 33.2291 152.598 33.3116L152.849 33.3529C152.944 33.4217 152.917 33.6624 152.822 33.7036C152.449 33.6761 152.049 33.6624 151.561 33.6624C151.072 33.6624 150.645 33.6761 150.258 33.7036C150.163 33.6624 150.136 33.4217 150.231 33.3529L150.523 33.3116C151.038 33.2429 151.052 33.0985 151.052 32.0875V29.6256L151.031 29.6324Z" fill="#EEEEEE"/>
<path d="M158.605 30.0606C158.246 30.0606 158.232 30.0881 158.232 30.4389C158.232 31.8555 159.053 33.0659 160.532 33.0659C160.986 33.0659 161.38 32.9215 161.807 32.3782C161.949 32.3369 162.044 32.4194 162.058 32.5501C161.603 33.506 160.599 33.8567 159.88 33.8567C158.978 33.8567 158.273 33.4648 157.872 32.9283C157.459 32.3782 157.289 31.718 157.289 31.0991C157.289 29.3729 158.415 27.9219 160.077 27.9219C161.271 27.9219 162.044 28.754 162.044 29.593C162.044 29.7924 162.017 29.9025 161.99 29.9575C161.949 30.04 161.753 30.0538 161.169 30.0538H158.605V30.0606ZM159.467 29.6343C160.491 29.6343 160.796 29.5792 160.912 29.4898C160.952 29.4623 160.993 29.4073 160.993 29.2216C160.993 28.8296 160.728 28.3345 159.928 28.3345C159.127 28.3345 158.402 29.091 158.388 29.5586C158.388 29.5861 158.388 29.6274 158.483 29.6274H159.467V29.6343Z" fill="#EEEEEE"/>
<path d="M163.521 29.6324C163.521 29.0823 163.521 29.0135 163.148 28.7591L163.026 28.6765C162.971 28.6215 162.971 28.4633 163.039 28.4221C163.358 28.312 164.091 27.9476 164.437 27.7344C164.504 27.7481 164.545 27.7756 164.545 27.8307V28.649C164.545 28.7178 164.559 28.7591 164.586 28.7728C165.074 28.3671 165.597 27.9269 166.112 27.9269C166.458 27.9269 166.736 28.1539 166.736 28.4908C166.736 28.9516 166.363 29.1373 166.139 29.1373C165.997 29.1373 165.929 29.096 165.834 29.041C165.624 28.8966 165.42 28.8141 165.223 28.8141C165 28.8141 164.837 28.9379 164.721 29.096C164.579 29.2955 164.545 29.7012 164.545 30.1757V32.0875C164.545 33.0985 164.572 33.2704 165.101 33.3116L165.603 33.3529C165.698 33.4217 165.671 33.6624 165.576 33.7036C164.925 33.6761 164.525 33.6624 164.036 33.6624C163.548 33.6624 163.12 33.6761 162.761 33.7036C162.666 33.6624 162.632 33.4217 162.734 33.3529L162.998 33.3116C163.514 33.2291 163.528 33.0985 163.528 32.0875V29.6256L163.521 29.6324Z" fill="#EEEEEE"/>
<path d="M172.521 28.7199C172.284 28.7199 172.284 28.7474 172.284 29.1257V32.0897C172.284 33.1006 172.311 33.2725 172.813 33.3138L173.315 33.3551C173.41 33.4238 173.383 33.6645 173.288 33.7058C172.664 33.6783 172.264 33.6645 171.775 33.6645C171.287 33.6645 170.859 33.6783 170.446 33.7058C170.351 33.6645 170.323 33.4238 170.418 33.3551L170.737 33.3138C171.253 33.245 171.266 33.1006 171.266 32.0897V29.1257C171.266 28.7474 171.266 28.7199 170.988 28.7199H170.5C170.418 28.6649 170.405 28.5343 170.459 28.4517L171.056 28.156C171.165 28.101 171.266 28.0185 171.266 27.8741C171.266 27.0557 171.361 26.1892 171.694 25.3983C172.04 24.5937 172.82 23.6172 174.19 23.6172C174.923 23.6172 175.547 23.9542 175.547 24.4562C175.547 24.7381 175.282 24.9651 175.018 24.9651C174.862 24.9651 174.78 24.9101 174.685 24.7932C174.421 24.4837 174.034 24.1742 173.58 24.1742C173.152 24.1742 172.8 24.4424 172.596 24.9445C172.345 25.5909 172.291 26.6156 172.291 27.317V27.7228C172.291 28.101 172.291 28.1148 172.528 28.1148H174.109C174.265 28.2592 174.163 28.6512 174.014 28.7062H172.528L172.521 28.7199Z" fill="#EEEEEE"/>
<path d="M180.079 30.8309C180.079 32.5845 178.885 33.8499 177.155 33.8499C175.561 33.8499 174.312 32.7083 174.312 30.9546C174.312 29.201 175.629 27.9219 177.263 27.9219C178.898 27.9219 180.079 29.1047 180.079 30.8309ZM177.094 28.3414C176.178 28.3414 175.5 29.2285 175.5 30.7758C175.5 32.055 176.069 33.4304 177.29 33.4304C178.512 33.4304 178.885 32.1375 178.885 31.0578C178.885 29.8612 178.41 28.3482 177.094 28.3482V28.3414Z" fill="#EEEEEE"/>
<path d="M181.785 29.6324C181.785 29.0823 181.785 29.0135 181.412 28.7591L181.283 28.6765C181.229 28.6215 181.229 28.4633 181.297 28.4221C181.616 28.312 182.348 27.9476 182.694 27.7344C182.762 27.7481 182.803 27.7756 182.803 27.8307V28.649C182.803 28.7178 182.816 28.7591 182.844 28.7728C183.325 28.3671 183.854 27.9269 184.37 27.9269C184.716 27.9269 184.994 28.1539 184.994 28.4908C184.994 28.9516 184.621 29.1373 184.397 29.1373C184.255 29.1373 184.187 29.096 184.092 29.041C183.881 28.8966 183.678 28.8141 183.481 28.8141C183.257 28.8141 183.095 28.9379 182.986 29.096C182.844 29.2955 182.803 29.7012 182.803 30.1757V32.0875C182.803 33.0985 182.83 33.2704 183.359 33.3116L183.861 33.3529C183.956 33.4217 183.929 33.6624 183.834 33.7036C183.183 33.6761 182.783 33.6624 182.294 33.6624C181.806 33.6624 181.378 33.6761 181.019 33.7036C180.924 33.6624 180.89 33.4217 180.992 33.3529L181.256 33.3116C181.765 33.2291 181.785 33.0985 181.785 32.0875V29.6256V29.6324Z" fill="#EEEEEE"/>
<path d="M197.195 32.223C197.195 32.7869 197.277 33.1239 197.528 33.2202C197.569 33.2614 197.569 33.344 197.514 33.3921C197.345 33.3921 197.1 33.4471 196.836 33.5159C196.103 33.7153 195.106 33.8804 194.353 33.8804C192.705 33.8804 191.192 33.4196 190.127 32.3193C189.293 31.4734 188.852 30.3662 188.852 29.1283C188.852 27.8905 189.238 26.7283 190.1 25.7999C191.029 24.8164 192.399 24.1562 194.496 24.1562C195.289 24.1562 196.022 24.3144 196.259 24.3694C196.524 24.4245 196.951 24.5207 197.121 24.4932C197.121 24.954 197.202 25.6898 197.331 26.5288C197.29 26.6389 197.039 26.6526 196.958 26.5701C196.571 25.0503 195.527 24.5757 194.116 24.5757C191.429 24.5757 190.249 26.5151 190.249 28.6263C190.249 31.3221 191.619 33.4471 194.407 33.4471C195.269 33.4471 195.778 33.2683 195.934 33.0276C196.001 32.9313 196.069 32.6769 196.069 32.223V31.6591C196.069 30.4762 196.029 30.3937 195.167 30.2974L194.557 30.2287C194.448 30.1736 194.462 29.9192 194.557 29.8779C194.957 29.9054 195.723 29.9192 196.537 29.9192C197.08 29.9192 197.548 29.9054 198.009 29.8779C198.104 29.9329 198.118 30.1461 198.023 30.2287L197.799 30.2562C197.216 30.3249 197.202 30.7169 197.202 31.439V32.223H197.195Z" fill="#EEEEEE"/>
<path d="M199.456 29.6324C199.456 29.0823 199.456 29.0135 199.083 28.7591L198.961 28.6765C198.907 28.6215 198.907 28.4633 198.975 28.4221C199.293 28.312 200.026 27.9476 200.372 27.7344C200.44 27.7481 200.48 27.7756 200.48 27.8307V28.649C200.48 28.7178 200.494 28.7591 200.521 28.7728C201.003 28.3671 201.532 27.9269 202.048 27.9269C202.393 27.9269 202.672 28.1539 202.672 28.4908C202.672 28.9516 202.299 29.1373 202.075 29.1373C201.932 29.1373 201.864 29.096 201.769 29.041C201.559 28.8966 201.356 28.8141 201.159 28.8141C200.935 28.8141 200.772 28.9379 200.657 29.096C200.514 29.2955 200.474 29.7012 200.474 30.1757V32.0875C200.474 33.0985 200.501 33.2704 201.03 33.3116L201.525 33.3529C201.62 33.4217 201.593 33.6624 201.498 33.7036C200.847 33.6761 200.447 33.6624 199.958 33.6624C199.47 33.6624 199.042 33.6761 198.683 33.7036C198.588 33.6624 198.554 33.4217 198.656 33.3529L198.92 33.3116C199.429 33.2291 199.449 33.0985 199.449 32.0875V29.6256L199.456 29.6324Z" fill="#EEEEEE"/>
<path d="M208.727 30.8309C208.727 32.5845 207.533 33.8499 205.803 33.8499C204.209 33.8499 202.961 32.7083 202.961 30.9546C202.961 29.201 204.277 27.9219 205.912 27.9219C207.547 27.9219 208.727 29.1047 208.727 30.8309ZM205.749 28.3414C204.833 28.3414 204.155 29.2285 204.155 30.7758C204.155 32.055 204.725 33.4304 205.946 33.4304C207.167 33.4304 207.54 32.1375 207.54 31.0578C207.54 29.8612 207.065 28.3482 205.749 28.3482V28.3414Z" fill="#EEEEEE"/>
<path d="M209.953 29.4889C209.634 28.7049 209.465 28.5605 209.119 28.4779L208.895 28.4229C208.827 28.3541 208.814 28.141 208.936 28.0859C209.363 28.1134 209.757 28.1272 210.17 28.1272C210.584 28.1272 211.005 28.1134 211.378 28.0859C211.486 28.141 211.5 28.3541 211.405 28.4229L211.086 28.4779C210.889 28.5054 210.781 28.588 210.781 28.6774C210.781 28.7668 210.849 29.0281 211.005 29.4063L211.866 31.5588C211.988 31.8821 212.117 32.1365 212.117 32.164C212.158 32.1365 212.266 31.8958 212.436 31.4901L213.114 29.7914C213.291 29.3444 213.311 29.1588 213.237 28.9799C213.114 28.6705 212.904 28.5605 212.599 28.4917L212.375 28.4367C212.28 28.3541 212.307 28.141 212.416 28.0997C212.762 28.1272 213.209 28.141 213.569 28.141C213.996 28.141 214.417 28.1272 214.885 28.0997C215.007 28.141 215.007 28.3679 214.926 28.4367L214.634 28.4917C214.078 28.6017 214.105 28.643 214.274 29.1381C214.424 29.5989 215.177 31.3869 215.326 31.7651C215.407 31.9783 215.468 32.1296 215.502 32.1571C215.529 32.1296 215.597 31.9852 215.699 31.7651C215.875 31.3594 216.432 29.8671 216.642 29.2757C216.75 28.9524 216.784 28.7668 216.784 28.6705C216.784 28.588 216.703 28.5192 216.533 28.4917L216.187 28.4367C216.079 28.3679 216.106 28.141 216.201 28.0997C216.601 28.1272 216.947 28.141 217.3 28.141C217.564 28.141 217.897 28.1272 218.202 28.0997C218.311 28.1547 218.324 28.3679 218.243 28.4367L217.965 28.4917C217.632 28.5605 217.503 28.7599 217.218 29.3788C216.845 30.1628 216.181 31.8545 215.916 32.5698C215.719 33.0787 215.556 33.4844 215.441 33.8489C215.387 33.8901 215.333 33.9039 215.265 33.9039C215.211 33.9039 215.156 33.8901 215.109 33.8489C215.027 33.5944 214.776 32.8655 214.539 32.3016L213.874 30.6855C213.779 30.431 213.569 29.9702 213.555 29.9702C213.542 29.9702 213.345 30.4035 213.25 30.6579L212.531 32.4116C212.28 33.0168 212.09 33.5257 211.975 33.8489C211.934 33.8901 211.88 33.9039 211.805 33.9039C211.751 33.9039 211.683 33.8901 211.636 33.8489C211.554 33.5532 211.33 32.9755 211.222 32.6798L209.946 29.5026L209.953 29.4889Z" fill="#EEEEEE"/>
<path d="M220.409 28.7175C220.171 28.7175 220.158 28.7588 220.158 29.0545V31.6815C220.158 32.4999 220.253 33.2426 221.168 33.2426C221.311 33.2426 221.433 33.2151 221.542 33.1738C221.664 33.1326 221.847 32.9744 221.888 32.9744C221.996 32.9744 222.057 33.1257 222.03 33.2151C221.779 33.5108 221.284 33.8615 220.572 33.8615C219.378 33.8615 219.127 33.1876 219.127 32.3417V29.1233C219.127 28.745 219.113 28.7175 218.835 28.7175H218.448C218.367 28.6625 218.353 28.5043 218.408 28.4218C218.808 28.298 219.154 28.1124 219.296 27.9886C219.479 27.8166 219.737 27.4384 219.88 27.1565C219.947 27.1289 220.117 27.1289 220.171 27.2252V27.8579C220.171 28.1124 220.185 28.1261 220.422 28.1261H221.962C222.132 28.2499 222.098 28.635 221.976 28.7175H220.409Z" fill="#EEEEEE"/>
<path d="M223.25 25.7344C223.25 24.9023 223.236 24.8197 222.822 24.5653L222.68 24.4828C222.612 24.4415 222.612 24.2421 222.68 24.2008C223.026 24.0908 223.677 23.8776 224.179 23.6094C224.233 23.6094 224.288 23.6369 224.322 23.6919C224.308 24.1114 224.281 24.8129 224.281 25.4318V28.382C224.281 28.5058 224.294 28.6227 224.335 28.6502C224.837 28.2582 225.502 27.9213 226.207 27.9213C227.523 27.9213 227.992 28.7534 227.992 29.7368V32.0819C227.992 33.0928 228.019 33.251 228.521 33.306L228.894 33.3472C228.989 33.416 228.962 33.6567 228.867 33.698C228.365 33.6705 227.964 33.6567 227.483 33.6567C227.001 33.6567 226.567 33.6705 226.194 33.698C226.099 33.6567 226.072 33.416 226.167 33.3472L226.445 33.306C226.96 33.2235 226.974 33.0928 226.974 32.0819V30.0738C226.974 29.1729 226.547 28.5677 225.658 28.5677C225.19 28.5677 224.83 28.7396 224.579 28.9459C224.328 29.1591 224.288 29.2279 224.288 29.7162V32.075C224.288 33.0859 224.315 33.2303 224.817 33.2991L225.108 33.3404C225.203 33.3954 225.176 33.6498 225.081 33.6911C224.668 33.6636 224.261 33.6498 223.779 33.6498C223.297 33.6498 222.863 33.6636 222.422 33.6911C222.327 33.6498 222.3 33.4091 222.395 33.3404L222.741 33.2991C223.257 33.2441 223.27 33.0859 223.27 32.075V25.7206L223.25 25.7344Z" fill="#EEEEEE"/>
<path d="M233.719 29.622C233.719 29.0719 233.719 29.0031 233.346 28.7486L233.224 28.6661C233.169 28.6111 233.169 28.4529 233.237 28.4117C233.556 28.3016 234.35 27.9371 234.669 27.724C234.736 27.724 234.791 27.7515 234.811 27.8065C234.784 28.3016 234.757 28.9756 234.757 29.5464V32.0771C234.757 33.088 234.784 33.2325 235.286 33.3012L235.578 33.3425C235.673 33.4113 235.645 33.652 235.551 33.6932C235.137 33.6657 234.73 33.6519 234.248 33.6519C233.766 33.6519 233.332 33.6657 232.946 33.6932C232.851 33.652 232.823 33.4113 232.918 33.3425L233.21 33.3012C233.719 33.2325 233.739 33.088 233.739 32.0771V29.6151L233.719 29.622ZM234.872 25.6196C234.872 26.1285 234.526 26.3486 234.14 26.3486C233.712 26.3486 233.434 26.0253 233.434 25.6471C233.434 25.1863 233.766 24.8906 234.18 24.8906C234.594 24.8906 234.872 25.2276 234.872 25.6196Z" fill="#EEEEEE"/>
<path d="M237.149 29.6324C237.149 29.0823 237.149 29.0135 236.776 28.7591L236.653 28.6765C236.599 28.6215 236.599 28.4633 236.667 28.4221C236.986 28.312 237.78 27.9476 238.051 27.7344C238.105 27.7344 238.173 27.7619 238.207 27.8307C238.18 28.1539 238.18 28.3671 238.18 28.4908C238.18 28.5734 238.234 28.649 238.336 28.649C238.919 28.2845 239.57 27.9338 240.276 27.9338C241.429 27.9338 241.897 28.7384 241.897 29.6737V32.0875C241.897 33.0985 241.924 33.2429 242.426 33.3116L242.732 33.3529C242.827 33.4217 242.799 33.6624 242.704 33.7036C242.291 33.6761 241.884 33.6624 241.402 33.6624C240.92 33.6624 240.486 33.6761 240.113 33.7036C240.018 33.6624 239.991 33.4217 240.086 33.3529L240.35 33.3116C240.859 33.2291 240.88 33.0985 240.88 32.0875V29.99C240.88 29.1854 240.52 28.6009 239.577 28.6009C239.048 28.6009 238.594 28.8278 238.397 29.0891C238.22 29.3298 238.187 29.5224 238.187 29.935V32.0875C238.187 33.0985 238.214 33.2291 238.716 33.3116L238.967 33.3529C239.062 33.4217 239.034 33.6624 238.939 33.7036C238.566 33.6761 238.159 33.6624 237.678 33.6624C237.196 33.6624 236.762 33.6761 236.375 33.7036C236.28 33.6624 236.253 33.4217 236.348 33.3529L236.64 33.3116C237.149 33.2429 237.169 33.0985 237.169 32.0875V29.6256L237.149 29.6324Z" fill="#EEEEEE"/>
<path d="M251.896 30.4015C251.801 30.0921 251.747 30.0508 251.326 30.0508H249.23C248.884 30.0508 248.802 30.0921 248.701 30.3878L248.219 31.8663C248.009 32.499 247.914 32.8773 247.914 33.0354C247.914 33.2073 247.982 33.2899 248.314 33.3174L248.769 33.3586C248.864 33.4274 248.864 33.6544 248.741 33.7094C248.382 33.6819 247.948 33.6819 247.296 33.6681C246.842 33.6681 246.34 33.6956 245.967 33.7094C245.886 33.6544 245.858 33.4274 245.94 33.3586L246.394 33.3174C246.727 33.2899 247.032 33.1317 247.229 32.6297C247.48 31.9832 247.866 31.0686 248.45 29.4938L249.867 25.6976C250.064 25.1887 250.146 24.9274 250.105 24.7005C250.437 24.6042 250.675 24.3497 250.824 24.1641C250.905 24.1641 251 24.1916 251.034 24.2878C251.217 24.9068 251.435 25.5532 251.645 26.1722L253.544 31.8182C253.944 33.0285 254.128 33.2349 254.725 33.3105L255.098 33.3518C255.193 33.4205 255.165 33.6475 255.098 33.7025C254.528 33.675 254.046 33.6612 253.422 33.6612C252.757 33.6612 252.228 33.6887 251.828 33.7025C251.719 33.6475 251.706 33.4205 251.801 33.3518L252.201 33.3105C252.493 33.283 252.683 33.2005 252.683 33.0561C252.683 32.9048 252.615 32.6503 252.506 32.3133L251.896 30.4015ZM249.148 29.1499C249.04 29.4731 249.053 29.4869 249.44 29.4869H251.143C251.543 29.4869 251.57 29.4319 251.448 29.0536L250.702 26.7636C250.593 26.4266 250.464 26.0484 250.383 25.8764H250.356C250.315 25.9452 250.18 26.2822 250.024 26.7086L249.148 29.1568V29.1499Z" fill="#EEEEEE"/>
<path d="M258.546 28.1851C258.675 28.4945 258.77 28.9415 258.77 29.3198C258.716 29.4161 258.506 29.4504 258.438 29.361C258.2 28.7421 257.786 28.3364 257.217 28.3364C256.647 28.3364 256.328 28.6871 256.328 29.196C256.328 29.7737 256.911 30.0831 257.393 30.3651C258.126 30.7846 258.811 31.266 258.811 32.2631C258.811 33.3291 257.841 33.8655 256.816 33.8655C256.165 33.8655 255.684 33.7211 255.331 33.446C255.222 33.1778 255.134 32.4901 255.161 32.0293C255.229 31.9468 255.412 31.9331 255.48 32.0156C255.717 32.7858 256.158 33.4598 256.952 33.4598C257.454 33.4598 257.881 33.164 257.881 32.5589C257.881 31.9124 257.325 31.5617 256.816 31.266C256.016 30.8052 255.446 30.3101 255.446 29.5398C255.446 28.5152 256.28 27.9375 257.332 27.9375C257.915 27.9375 258.424 28.0819 258.553 28.192L258.546 28.1851Z" fill="#EEEEEE"/>
<path d="M260.441 29.622C260.441 29.0719 260.441 29.0031 260.067 28.7486L259.945 28.6661C259.891 28.6111 259.891 28.4529 259.959 28.4117C260.278 28.3016 261.071 27.9371 261.39 27.724C261.458 27.724 261.512 27.7515 261.533 27.8065C261.506 28.3016 261.478 28.9756 261.478 29.5464V32.0771C261.478 33.088 261.506 33.2325 262.008 33.3012L262.299 33.3425C262.394 33.4113 262.367 33.652 262.272 33.6932C261.858 33.6657 261.451 33.6519 260.97 33.6519C260.488 33.6519 260.054 33.6657 259.667 33.6932C259.572 33.652 259.538 33.4113 259.64 33.3425L259.932 33.3012C260.441 33.2325 260.461 33.088 260.461 32.0771V29.6151L260.441 29.622ZM261.594 25.6196C261.594 26.1285 261.248 26.3486 260.861 26.3486C260.434 26.3486 260.156 26.0253 260.156 25.6471C260.156 25.1863 260.488 24.8906 260.902 24.8906C261.316 24.8906 261.594 25.2276 261.594 25.6196Z" fill="#EEEEEE"/>
<path d="M265.792 30.7483C266.002 30.6796 266.029 30.5489 266.029 30.3426L266.043 29.6961C266.056 29.1804 265.894 28.472 265.032 28.472C264.645 28.472 264.17 28.6715 264.143 29.1047C264.13 29.3317 264.116 29.4967 264.001 29.5792C263.791 29.7512 263.417 29.8474 263.207 29.8474C263.085 29.8474 263.01 29.7787 263.01 29.648C263.01 28.919 264.577 27.9219 265.588 27.9219C266.599 27.9219 267.074 28.5133 267.033 29.5655L266.952 32.0137C266.925 32.6601 267.047 33.2378 267.589 33.2378C267.732 33.2378 267.854 33.1966 267.935 33.1553C268.003 33.114 268.071 33.059 268.112 33.059C268.166 33.059 268.207 33.1415 268.207 33.2447C268.207 33.3135 267.725 33.8636 267.04 33.8636C266.708 33.8636 266.375 33.7398 266.138 33.4304C266.083 33.3478 265.995 33.2309 265.914 33.2309C265.819 33.2309 265.649 33.3547 265.371 33.5129C265.066 33.6848 264.761 33.8636 264.374 33.8636C263.987 33.8636 263.641 33.7536 263.404 33.5404C263.139 33.2997 262.977 32.949 262.977 32.557C262.977 32.0068 263.241 31.6836 264.13 31.3604L265.778 30.7552L265.792 30.7483ZM264.93 33.2241C265.208 33.2241 265.636 33.0109 265.778 32.8733C265.948 32.7014 265.948 32.5088 265.961 32.2131L265.988 31.381C265.988 31.2297 265.934 31.2022 265.846 31.2022C265.758 31.2022 265.527 31.2572 265.276 31.3466C264.455 31.6286 264.055 31.8349 264.055 32.3851C264.055 32.6258 264.225 33.2309 264.93 33.2309V33.2241Z" fill="#EEEEEE"/>
</g>
<defs>
<clipPath id="clip0_637_308">
<rect width="326" height="34" fill="white"/>
</clipPath>
</defs>
</svg>
