<?xml version="1.0" encoding="UTF-8"?>
<svg id="Layer_1" xmlns="http://www.w3.org/2000/svg" version="1.1" viewBox="0 0 60 60">
  <!-- Generator: Adobe Illustrator 29.5.1, SVG Export Plug-In . SVG Version: 2.1.0 Build 141)  -->
  <defs>
    <style>
      .st0 {
        fill: #3471b7;
      }
    </style>
  </defs>
  <path class="st0" d="M58.8,11.5c0,.1-.1.2-.2.3l-20.1,22.8c-2.2,2.4-5.3,3.8-8.5,3.8-3.3,0-6.4-1.4-8.5-3.8L1.1,11.6c-.4.8-.6,1.8-.6,2.7v26.1c0,6.7,5.5,12.2,12.2,12.2h34.4c6.7,0,12.2-5.5,12.2-12.2V14.3c0-1-.2-1.9-.6-2.8Z"/>
  <path class="st0" d="M26,30.6c1,1.1,2.4,1.8,3.9,1.8s2.9-.6,3.9-1.8L54,7.8c0,0,.2-.1.2-.2-.6-.2-1.2-.2-1.8-.2H7.5c-.6,0-1.2,0-1.8.2l20.3,23Z"/>
</svg>