<svg width="23" height="16" viewBox="0 0 23 16" fill="none" xmlns="http://www.w3.org/2000/svg">
<g clip-path="url(#clip0_4926_2443)">
<path d="M11.4991 8.96546C10.5466 8.96546 9.64019 8.7006 8.87816 8.19934L1.50853 3.35247C1.15408 3.11919 1.08205 2.67828 1.34806 2.36746C1.61408 2.05663 2.11687 1.99346 2.47132 2.22674L9.84095 7.07361C10.3231 7.39069 10.8965 7.5583 11.4991 7.5583C12.1017 7.5583 12.6751 7.39069 13.1572 7.07361L20.5269 2.22674C20.8813 1.99346 21.3841 2.05663 21.6501 2.36746C21.9161 2.67828 21.8441 3.11919 21.4896 3.35247L14.12 8.19934C13.358 8.7006 12.4515 8.96546 11.4991 8.96546Z" fill="#367DBF"/>
<path d="M19.8203 16H3.1797C1.42636 16 0 14.7492 0 13.2116V2.78836C0 1.25081 1.42636 0 3.1797 0H19.8207C21.574 0 23.0004 1.25081 23.0004 2.78836V13.2116C23.0004 14.7492 21.574 16 19.8207 16H19.8203ZM3.1797 1.40716C2.31141 1.40716 1.60465 2.02662 1.60465 2.78836V13.2116C1.60465 13.9731 2.31105 14.5928 3.1797 14.5928H19.8207C20.6889 14.5928 21.3957 13.9734 21.3957 13.2116V2.78836C21.3957 2.02693 20.6893 1.40716 19.8207 1.40716H3.1797Z" fill="#367DBF"/>
</g>
<defs>
<clipPath id="clip0_4926_2443">
<rect width="23" height="16" fill="white"/>
</clipPath>
</defs>
</svg>
