<svg width="12" height="21" viewBox="0 0 12 21" fill="none" xmlns="http://www.w3.org/2000/svg">
<path d="M11.7702 9.09646L11.4878 11.1938C11.44 11.5442 11.1191 11.8077 10.7385 11.8077H7.06453V20.5767C6.67709 20.6091 6.28452 20.6256 5.88768 20.6256C5.00013 20.6256 4.13392 20.5436 3.29673 20.3873V11.8077H0.471082C0.211646 11.8077 0 11.6112 0 11.3706V8.74611C0 8.50545 0.211646 8.30897 0.471082 8.30897H3.29673V4.37306C3.29673 1.9577 5.4055 0 8.00755 0H11.3043C11.5637 0 11.7754 0.196479 11.7754 0.437147V3.06161C11.7754 3.30228 11.5637 3.49876 11.3043 3.49876H8.94886C7.90856 3.49876 7.06539 4.28152 7.06539 5.24814V8.30975H11.0218C11.4758 8.30975 11.8266 8.67904 11.7711 9.09725L11.7702 9.09646Z" fill="white"/>
</svg>
