<svg width="34" height="34" viewBox="0 0 34 34" fill="none" xmlns="http://www.w3.org/2000/svg">
<path d="M14.1235 0C6.91793 1.2225 1.2225 6.91793 0 14.1235H2.90525C4.04146 8.47123 8.47123 4.04146 14.1235 2.90525V0ZM19.8765 0V2.90525C25.5288 4.04146 29.9585 8.47123 31.0948 14.1235H34C32.7775 6.91793 27.0821 1.2225 19.8765 0ZM0 19.8765C1.2225 27.0821 6.91793 32.7775 14.1235 34V31.0948C8.47123 29.9585 4.04146 25.5288 2.90525 19.8765H0ZM31.0948 19.8765C29.9585 25.5288 25.5288 29.9585 19.8765 31.0948V34C27.0821 32.7775 32.7775 27.0821 34 19.8765H31.0948Z" fill="white"/>
</svg>
