<svg width="24" height="24" viewBox="0 0 24 24" fill="none" xmlns="http://www.w3.org/2000/svg">
<g clip-path="url(#clip0_4741_694)">
<path fill-rule="evenodd" clip-rule="evenodd" d="M12.02 0C18.634 0.011 24 5.383 24 12C24 18.623 18.624 24 12 24C5.377 24 0 18.623 0 12C0 5.383 5.367 0.011 11.981 0H12.02ZM15.714 16H8.287C8.926 20.266 10.529 23 12 23C13.472 23 15.075 20.266 15.714 16ZM22.249 16H16.726C16.3 18.985 15.405 21.402 14.241 22.771C17.91 22.011 20.912 19.421 22.249 16ZM7.275 16H1.751C3.089 19.421 6.091 22.011 9.76 22.771C8.596 21.402 7.701 18.985 7.275 16ZM7.152 9H1.416C1.085 10.166 0.675 12.389 1.416 15H7.152C6.964 13.186 6.937 11.075 7.152 9ZM15.843 9H8.158C7.963 10.8 7.933 12.927 8.158 15H15.843C16.039 13.189 16.067 11.07 15.843 9ZM22.585 9H16.849C16.911 9.592 17.157 12.019 16.849 15H22.585C23.326 12.388 22.916 10.165 22.585 9ZM9.76 1.229C6.091 1.989 3.089 4.579 1.751 8H7.275C7.701 5.015 8.596 2.597 9.76 1.229ZM15.714 8C15.075 3.734 13.472 1 12 1C10.529 1 8.926 3.734 8.287 8H15.714ZM14.241 1.229C15.405 2.597 16.3 5.015 16.726 8H22.249C20.912 4.579 17.91 1.989 14.241 1.229Z" fill="white"/>
</g>
<defs>
<clipPath id="clip0_4741_694">
<rect width="24" height="24" fill="white"/>
</clipPath>
</defs>
</svg>
