<svg viewBox="0 0 22 24" fill="none" xmlns="http://www.w3.org/2000/svg"><path d="M17.188 7.5H9.313c-.376 0-.563-.188-.563-.563v-.375c0-.375.188-.562.563-.562h7.874c.375 0 .563.188.563.563v.375c0 .375-.188.562-.563.562zm.562 2.438c0 .374-.188.562-.563.562H9.313c-.374 0-.562-.188-.562-.563v-.374c0-.376.188-.563.563-.563h7.874c.375 0 .563.188.563.563v.374zM20.797 22.5h.14c.375 0 .563.188.563.563v.375c0 .375-.188.562-.563.562H4.25c-1.031 0-1.922-.375-2.672-1.125C.86 22.156.5 21.281.5 20.25V3.75c0-1.031.36-1.906 1.078-2.625C2.328.375 3.218 0 4.25 0h16.125c.313 0 .578.11.797.328.219.219.328.484.328.797v17.25c0 .5-.234.844-.703 1.031a7.371 7.371 0 000 3.094zM6.5 18H20V1.5H6.5V18zm-4.5.75c.656-.5 1.406-.75 2.25-.75H5V1.5h-.75a2.17 2.17 0 00-1.594.656A2.17 2.17 0 002 3.75v15zm17.438 3.75c-.157-1-.157-2 0-3H4.25c-.938 0-1.61.25-2.016.75-.375.5-.375 1 0 1.5.407.5 1.079.75 2.016.75h15.188z" fill="#FDCA33"/></svg>