<svg width="65" height="65" viewBox="0 0 65 65" fill="none" xmlns="http://www.w3.org/2000/svg">
<path d="M18.9609 27.0833H10.8359V24.375H18.9609V27.0833ZM35.2109 32.5H43.3359V29.7917H35.2109V32.5ZM43.3359 18.9583H10.8359V21.6667H43.3359V18.9583ZM43.3359 35.2083H10.8359V37.9167H43.3359V35.2083ZM43.3359 40.625H10.8359V43.3333H43.3359V40.625ZM43.3359 24.375H35.2109V27.0833H43.3359V24.375ZM32.5026 32.5V24.375H21.6693V32.5H32.5026ZM29.6453 12.6967L30.2899 16.1742H31.6441L33.0009 10.9173H31.6955L31.0211 14.4923L30.3766 10.9173H29.0441L28.3128 14.56L27.6628 10.9173H26.2951L27.5409 16.1742H28.9114L29.6453 12.6967ZM10.8359 32.5H18.9609V29.7917H10.8359V32.5ZM60.7776 44.0835C61.2732 37.8165 59.6049 37.2044 51.8726 29.6698C52.3357 32.9821 53.3026 38.87 54.3399 43.2142C54.5809 44.2487 53.2132 44.896 52.7528 43.7965C52.2003 42.4558 51.3039 36.7494 50.532 31.0131C50.1149 27.9419 46.0334 28.3183 46.0443 31.4925C46.0578 36.4271 46.0524 40.541 46.0443 47.8535C46.0361 54.0908 48.8772 54.2127 50.9707 61.2083C51.3282 62.4108 51.637 63.719 51.8889 64.9973L62.2943 61.3708C58.6678 54.2723 60.4174 48.6715 60.7776 44.0835ZM43.3684 48.75H8.1276V5.41667H46.0443V26.7962C47.7939 25.87 49.6951 26.0542 51.1278 27.0698L51.4609 27.021V4.0625C51.4609 1.82 49.6409 0 47.3984 0H6.77344C4.53094 0 2.71094 1.81729 2.71094 4.0625V50.1042C2.71094 52.3494 4.53094 54.1667 6.77344 54.1667H44.6197C43.9561 52.7719 43.4686 51.1225 43.3684 48.75ZM34.7939 15.1775C34.3903 15.1775 33.9164 15.061 33.5318 14.8633L33.4668 14.8281L33.2014 15.906L33.242 15.9277C33.5182 16.0848 34.1032 16.25 34.7234 16.25C36.297 16.25 36.8576 15.3617 36.8576 14.5979C36.8576 13.8612 36.4216 13.3575 35.4845 13.0108C34.7966 12.7508 34.5691 12.6181 34.5691 12.3419C34.5691 12.0765 34.8399 11.9058 35.257 11.9058C35.6253 11.9058 35.9774 11.9871 36.3078 12.1442L36.3701 12.174L36.6599 11.1177L36.6193 11.0987C36.2266 10.9227 35.777 10.8333 35.2786 10.8333C34.0816 10.8333 33.2772 11.4806 33.2772 12.4394C33.2772 13.149 33.7674 13.6798 34.7261 14.0129C35.3409 14.2323 35.5495 14.4029 35.5495 14.6819C35.5495 14.9987 35.2732 15.1775 34.7939 15.1775ZM20.372 16.1742H21.6855V10.9173H20.4993V14.1375L18.7659 10.9173H17.3143V16.1742H18.5005V12.5802L20.372 16.1742ZM25.8645 11.9898V10.9173H22.5739V16.1742H25.9728V15.1017H23.8603V14.0021H25.7507V12.9377H23.8603V11.9898H25.8645Z" fill="#FDCA33"/>
</svg>
