<svg fill="none" height="13" width="14" xmlns="http://www.w3.org/2000/svg"><path d="M3.61 13H1.065V4.824H3.61zM2.351 3.703a1.42 1.42 0 01-1.04-.437c-.291-.292-.437-.638-.437-1.04s.146-.747.438-1.038A1.42 1.42 0 012.351.75c.255 0 .492.064.71.191.237.128.42.31.547.547.146.219.22.465.22.739 0 .255-.074.5-.22.738a1.57 1.57 0 01-.547.547 1.387 1.387 0 01-.71.191zM13.125 13h-2.543V9.008c0-.31-.01-.556-.027-.738a3.23 3.23 0 00-.137-.657.965.965 0 00-.41-.574c-.182-.128-.429-.191-.738-.191-.602 0-1.012.191-1.23.574-.201.383-.302.893-.302 1.531V13H5.195V4.824h2.461v1.121h.028c.182-.364.483-.674.902-.93.42-.273.92-.41 1.504-.41.62 0 1.13.1 1.531.301.42.183.73.465.93.848.219.364.364.766.437 1.203.091.438.137.957.137 1.559z" fill="#217fd4"/></svg>