<svg viewBox="0 0 22 24" fill="none" xmlns="http://www.w3.org/2000/svg"><path d="M15.781 14.672a10.8 10.8 0 00-.515-.75c-.094-.094-.094-.203 0-.328a5.278 5.278 0 00.984-3.094c0-1.5-.547-2.766-1.64-3.797-1.063-1.031-2.329-1.516-3.797-1.453-1.376.063-2.547.578-3.516 1.547-.969.937-1.484 2.094-1.547 3.469a5.102 5.102 0 00.984 3.328c.094.125.094.234 0 .328-.187.25-.359.5-.515.75a.452.452 0 01-.235.187c-.093 0-.171-.046-.234-.14-1-1.219-1.5-2.625-1.5-4.219 0-1.875.656-3.469 1.969-4.781C7.562 4.406 9.172 3.75 11.047 3.75c1.812 0 3.375.656 4.687 1.969C17.047 7 17.72 8.547 17.75 10.359c.031 1.625-.469 3.079-1.5 4.36-.063.094-.14.14-.234.14a.453.453 0 01-.235-.187zM3.547 3.094C5.609 1.03 8.094 0 11 0c2.906 0 5.375 1.031 7.406 3.094C20.47 5.125 21.5 7.594 21.5 10.5c0 1.906-.469 3.656-1.406 5.25a10.135 10.135 0 01-3.657 3.703.234.234 0 01-.28 0c-.095-.062-.141-.14-.141-.234.062-.469.109-.875.14-1.219a.589.589 0 01.14-.234 9.052 9.052 0 002.72-3.141A8.919 8.919 0 0020 10.5c0-2.5-.906-4.64-2.719-6.422-1.781-1.781-3.937-2.64-6.468-2.578-2.438.063-4.516.969-6.235 2.719C2.86 5.937 2 8.016 2 10.453a8.92 8.92 0 00.984 4.125 8.93 8.93 0 002.72 3.188c.062.062.109.14.14.234.031.344.078.75.14 1.219 0 .093-.046.172-.14.234a.234.234 0 01-.282 0c-1.53-.906-2.765-2.156-3.703-3.75C.953 14.11.5 12.375.5 10.5c0-2.906 1.016-5.375 3.047-7.406zM14 16.688c0 .718-.11 1.75-.328 3.093-.219 1.313-.438 2.36-.656 3.14-.188.72-.86 1.079-2.016 1.079-1.156 0-1.828-.36-2.016-1.078-.218-.781-.437-1.828-.656-3.14C8.11 18.436 8 17.405 8 16.686c0-1.375 1-2.062 3-2.062s3 .688 3 2.063zm-1.5 0c0-.375-.5-.563-1.5-.563s-1.5.188-1.5.563c0 .593.094 1.515.281 2.765.219 1.25.422 2.235.61 2.953.156.063.359.094.609.094s.453-.031.61-.094c.187-.718.374-1.703.562-2.953.219-1.25.328-2.172.328-2.765zm.61-8.297c.593.562.89 1.265.89 2.109 0 .844-.297 1.563-.89 2.156-.563.563-1.266.844-2.11.844-.844 0-1.563-.281-2.156-.844C8.28 12.062 8 11.344 8 10.5c0-.844.281-1.547.844-2.11A2.937 2.937 0 0111 7.5c.844 0 1.547.297 2.11.89zm-1.079 3.187c.313-.312.469-.672.469-1.078s-.156-.75-.469-1.031A1.335 1.335 0 0011 9c-.406 0-.766.156-1.078.469A1.403 1.403 0 009.5 10.5c0 .406.14.766.422 1.078.312.281.672.422 1.078.422s.75-.14 1.031-.422z" fill="#FDCA33"/></svg>