<svg viewBox="0 0 22 24" fill="none" xmlns="http://www.w3.org/2000/svg"><path d="M15.5 16.5c1.656 0 3.063.594 4.219 1.781 1.187 1.157 1.781 2.563 1.781 4.219 0 .406-.156.75-.469 1.031A1.335 1.335 0 0120 24H2c-.406 0-.766-.156-1.078-.469A1.403 1.403 0 01.5 22.5c0-1.656.578-3.063 1.734-4.219C3.422 17.094 4.844 16.5 6.5 16.5h.234c.47 0 1.016.11 1.641.328A8.245 8.245 0 0011 17.25c.906 0 1.781-.14 2.625-.422.625-.219 1.172-.328 1.64-.328h.235zM2 22.5h18c0-1.25-.438-2.313-1.313-3.188S16.75 18 15.5 18h-.234c-.313 0-.704.078-1.172.234-1 .344-2.031.516-3.094.516a9.453 9.453 0 01-3.094-.516c-.468-.156-.86-.234-1.172-.234H6.5c-1.25 0-2.313.438-3.188 1.313C2.438 20.188 2 21.25 2 22.5zm1.266-12.188c-.125.126-.297.188-.516.188a.872.872 0 01-.563-.188A.873.873 0 012 9.75V9c0-2.469.875-4.578 2.625-6.328C6.406.89 8.531 0 11 0s4.578.89 6.328 2.672C19.11 4.422 20 6.532 20 9v.75c0 1.438-.516 2.672-1.547 3.703C17.422 14.484 16.188 15 14.75 15h-4.5a1.56 1.56 0 01-1.078-.422A1.564 1.564 0 018.75 13.5c0-.406.14-.75.422-1.031.312-.313.672-.469 1.078-.469h1.5c.406 0 .75.156 1.031.469.313.281.469.625.469 1.031h1.5c1.031 0 1.906-.36 2.625-1.078.75-.75 1.125-1.64 1.125-2.672V9c0-2.063-.734-3.828-2.203-5.297C14.828 2.234 13.062 1.5 11 1.5c-2.063 0-3.828.734-5.297 2.203C4.234 5.172 3.5 6.938 3.5 9v.75a.767.767 0 01-.234.563zM11 4.5c-1.25 0-2.313.438-3.188 1.313S6.5 7.75 6.5 9c0 .313.047.656.14 1.031.126.375.266.75.423 1.125.187.344.39.625.609.844a2.867 2.867 0 00-.422 1.5v.141C5.75 12.453 5 10.906 5 9c0-1.656.578-3.063 1.734-4.219C7.922 3.594 9.344 3 11 3c1.656 0 3.063.594 4.219 1.781C16.406 5.938 17 7.344 17 9a6.06 6.06 0 01-.328 1.922c-.188.312-.469.578-.844.797-.375.187-.734.281-1.078.281h-.422c.313-.375.578-.844.797-1.406.25-.594.375-1.125.375-1.594a4.02 4.02 0 00-.375-1.734 4.16 4.16 0 00-.938-1.454 4.16 4.16 0 00-1.453-.937A4.022 4.022 0 0011 4.5z" fill="#FDCA33"/></svg>