<svg viewBox="0 0 28 18" fill="none" xmlns="http://www.w3.org/2000/svg"><path d="M26.375 0c.313 0 .578.11.797.328.219.219.328.484.328.797v15.75c0 .313-.11.578-.328.797a1.085 1.085 0 01-.797.328H2.75a2.17 2.17 0 01-1.594-.656A2.17 2.17 0 01.5 15.75V2.625c0-.313.11-.578.328-.797.219-.219.485-.328.797-.328H3.5v-.375c0-.313.11-.578.328-.797A1.09 1.09 0 014.625 0h21.75zM2 15.75c0 .219.063.406.188.563a.872.872 0 00.562.187c.219 0 .39-.063.516-.188a.767.767 0 00.234-.562V3H2v12.75zm24 .75v-15H5v14.25c0 .25-.047.5-.14.75H26zM7.062 12c-.375 0-.562-.188-.562-.563V3.564c0-.376.188-.563.563-.563h7.875c.374 0 .562.188.562.563v7.874c0 .376-.188.563-.563.563H7.064zM8 4.5v6h6v-6H8zm-1.5 9.938v-.376c0-.374.188-.562.563-.562h7.875c.374 0 .562.188.562.563v.374c0 .376-.188.563-.563.563H7.064c-.375 0-.563-.188-.563-.563zm10.5 0v-.376c0-.374.188-.562.563-.562h6.375c.375 0 .562.188.562.563v.374c0 .376-.188.563-.563.563h-6.375c-.375 0-.562-.188-.562-.563zm0-3v-.376c0-.374.188-.562.563-.562h6.375c.375 0 .562.188.562.563v.374c0 .376-.188.563-.563.563h-6.375c-.375 0-.562-.188-.562-.563zm0-6v-.375c0-.375.188-.563.563-.563h6.375c.375 0 .562.188.562.563v.375c0 .375-.188.562-.563.562h-6.375C17.188 6 17 5.812 17 5.437zm0 3v-.376c0-.374.188-.562.563-.562h6.375c.375 0 .562.188.562.563v.374c0 .376-.188.563-.563.563h-6.375C17.188 9 17 8.812 17 8.437z" fill="#FDCA33"/></svg>