<svg fill="none" height="11" width="14" xmlns="http://www.w3.org/2000/svg"><path d="M13.727 3.973c.054-.055.109-.064.164-.028.072.037.109.091.109.164v5.579c0 .364-.128.674-.383.93s-.565.382-.93.382H1.313c-.365 0-.675-.128-.93-.383A1.266 1.266 0 010 9.687V4.11c0-.073.027-.118.082-.136.073-.037.137-.037.191 0a362.18 362.18 0 004.211 3.09c.037.036.155.136.356.3.219.164.392.292.52.383.127.073.291.173.492.3.2.11.391.192.574.247a2.167 2.167 0 001.066.027c.164-.054.32-.11.465-.164.146-.073.3-.164.465-.273l.41-.274c.11-.09.237-.191.383-.3.146-.11.246-.192.3-.247 2.152-1.549 3.555-2.579 4.212-3.09zM7 7.5c-.146 0-.328-.046-.547-.137-.2-.11-.364-.2-.492-.273l-.574-.41c-.237-.2-.365-.301-.383-.301A269.696 269.696 0 01.246 2.852.623.623 0 010 2.332v-.52c0-.364.128-.674.383-.93C.638.629.948.5 1.313.5h11.374c.365 0 .675.128.93.383s.383.565.383.93v.519a.623.623 0 01-.246.52c-.893.692-2.48 1.868-4.758 3.527-.018 0-.155.1-.41.3-.237.183-.42.32-.547.41a9.51 9.51 0 01-.52.274c-.2.091-.373.137-.519.137z" fill="#217fd4"/></svg>