<svg width="18" height="18" fill="none" xmlns="http://www.w3.org/2000/svg"><path d="M2.813 3.098C4.522 1.387 6.585.53 9 .53s4.465.856 6.152 2.567c1.711 1.687 2.567 3.738 2.567 6.152s-.856 4.477-2.567 6.188c-1.687 1.687-3.738 2.53-6.152 2.53s-4.477-.843-6.188-2.53C1.125 13.726.283 11.663.283 9.25c0-2.414.843-4.465 2.53-6.152zm1.195 11.144c1.383 1.36 3.047 2.04 4.992 2.04 1.945 0 3.598-.68 4.957-2.04 1.383-1.383 2.074-3.047 2.074-4.992 0-1.945-.691-3.598-2.074-4.957C12.597 2.91 10.945 2.219 9 2.219c-1.945 0-3.61.691-4.992 2.074-1.36 1.36-2.04 3.012-2.04 4.957 0 1.945.68 3.61 2.04 4.992z" fill="#E0E0E0"/></svg>