<svg width="17" height="16" viewBox="0 0 17 16" fill="none" xmlns="http://www.w3.org/2000/svg">
<path d="M2.18389 4.03849C3.39001 4.03849 4.36776 3.13444 4.36776 2.01924C4.36776 0.904044 3.39001 0 2.18389 0C0.977763 0 0 0.904044 0 2.01924C0 3.13444 0.977763 4.03849 2.18389 4.03849Z" fill="white"/>
<path d="M3.84398 5.38281H0.530192C0.440169 5.38281 0.367188 5.45029 0.367188 5.53352V15.3275C0.367188 15.4108 0.440169 15.4782 0.530192 15.4782H3.84398C3.93401 15.4782 4.00699 15.4108 4.00699 15.3275V5.53352C4.00699 5.45029 3.93401 5.38281 3.84398 5.38281Z" fill="white"/>
<path d="M16.3795 9.08536V14.8062C16.3795 15.1762 16.0518 15.4792 15.6515 15.4792H13.4676C13.0674 15.4792 12.7397 15.1762 12.7397 14.8062V10.0946C12.7397 9.16585 11.9247 8.41228 10.9202 8.41228C9.91574 8.41228 9.10073 9.16585 9.10073 10.0946V14.8062C9.10073 15.1762 8.77302 15.4792 8.37277 15.4792H6.18889C5.78864 15.4792 5.46094 15.1762 5.46094 14.8062V6.05611C5.46094 5.68603 5.78864 5.38302 6.18889 5.38302H8.37277C8.77302 5.38302 9.10073 5.68603 9.10073 6.05611V6.48694C9.82869 5.61501 11.0337 5.04688 12.3761 5.04688C14.385 5.04688 16.3795 6.39304 16.3795 9.08536Z" fill="white"/>
</svg>
