<svg width="14" height="16" viewBox="0 0 14 16" fill="none" xmlns="http://www.w3.org/2000/svg">
<path fill-rule="evenodd" clip-rule="evenodd" d="M6.58333 1.16667C5.14674 1.16667 3.76899 1.73735 2.75317 2.75317C1.73735 3.76899 1.16667 5.14674 1.16667 6.58333C1.16667 8.6822 2.53001 10.7066 4.00681 12.2655C4.73327 13.0323 5.46172 13.6598 6.00921 14.0958C6.23731 14.2774 6.43318 14.4251 6.58333 14.5352C6.73348 14.4251 6.92935 14.2774 7.15746 14.0958C7.70494 13.6598 8.43339 13.0323 9.15986 12.2655C10.6367 10.7066 12 8.6822 12 6.58333C12 5.14674 11.4293 3.76899 10.4135 2.75317C9.39767 1.73735 8.01992 1.16667 6.58333 1.16667ZM6.58333 15.25C6.25976 15.7354 6.25943 15.7351 6.25943 15.7351L6.25764 15.7339L6.25334 15.7311L6.23837 15.7209C6.22559 15.7123 6.20728 15.6997 6.18382 15.6835C6.13689 15.651 6.0693 15.6035 5.98398 15.5419C5.81342 15.4187 5.57168 15.2387 5.28246 15.0084C4.70494 14.5485 3.93339 13.8844 3.15986 13.0679C1.63665 11.46 0 9.15113 0 6.58333C3.97364e-08 4.83733 0.693599 3.16283 1.92821 1.92821C3.16283 0.693599 4.83732 0 6.58333 0C8.32934 0 10.0038 0.693599 11.2385 1.92821C12.4731 3.16283 13.1667 4.83733 13.1667 6.58333C13.1667 9.15113 11.53 11.46 10.0068 13.0679C9.23327 13.8844 8.46172 14.5485 7.88421 15.0084C7.59499 15.2387 7.35325 15.4187 7.18268 15.5419C7.09737 15.6035 7.02977 15.651 6.98285 15.6835C6.95938 15.6997 6.94108 15.7123 6.9283 15.7209L6.91332 15.7311L6.90903 15.7339L6.90769 15.7348C6.90769 15.7348 6.90691 15.7354 6.58333 15.25ZM6.58333 15.25L6.90691 15.7354C6.71097 15.866 6.45537 15.8658 6.25943 15.7351L6.58333 15.25Z" fill="#344C71"/>
<path fill-rule="evenodd" clip-rule="evenodd" d="M6.58333 5.16667C5.80093 5.16667 5.16667 5.80093 5.16667 6.58333C5.16667 7.36574 5.80093 8 6.58333 8C7.36574 8 8 7.36574 8 6.58333C8 5.80093 7.36574 5.16667 6.58333 5.16667ZM4 6.58333C4 5.1566 5.1566 4 6.58333 4C8.01007 4 9.16667 5.1566 9.16667 6.58333C9.16667 8.01007 8.01007 9.16667 6.58333 9.16667C5.1566 9.16667 4 8.01007 4 6.58333Z" fill="#344C71"/>
</svg>
