<svg width="49" height="46" viewBox="0 0 49 46" fill="none" xmlns="http://www.w3.org/2000/svg">
<path d="M46.8487 18.0285C45.1077 15.4525 42.3995 13.6125 39.1109 13.0605V11.9565C39.1109 10.8525 39.1109 9.7485 39.1109 8.6445C39.1109 8.0925 39.1109 7.7245 38.5306 7.3565C36.0158 5.1485 33.6944 2.7565 31.1796 0.3645C30.7928 -0.00349998 30.4059 -0.1875 29.8255 -0.1875H7.57934C6.61212 -0.1875 6.22523 0.1805 6.22523 1.2845V5.3325H2.16288C0.808765 5.3325 0.421875 5.7005 0.421875 6.9885V44.3405C0.421875 45.6285 0.808765 45.9965 2.16288 45.9965H33.8879C34.8551 45.9965 35.242 45.6285 35.242 44.7085V40.6605H36.7896C39.1109 40.6605 39.1109 40.6605 39.1109 38.4525V34.9565C44.5274 33.8525 48.3963 29.6205 48.5897 24.4685C48.5897 22.0765 48.0094 20.0525 46.8487 18.0285ZM31.5665 4.0445L35.0485 7.3565H31.5665V4.0445ZM32.9207 43.7885H2.93666V7.7245H6.22523V38.8205C6.22523 40.1085 6.61212 40.4765 7.96624 40.4765H33.1141V43.6045L32.9207 43.7885ZM36.7896 38.2685H8.54657V2.2045H29.2452V8.0925C29.2452 9.0125 29.6321 9.3805 30.5993 9.3805H36.7896V12.5085C32.7272 12.6925 29.4386 14.3485 27.1173 17.6605C25.7632 19.6845 25.1828 22.0765 25.3763 24.6525C25.7632 31.0925 31.5665 34.7725 36.7896 34.9565V38.0845V38.2685ZM37.1764 32.7485C34.6617 32.7485 32.1469 31.8285 30.4059 29.9885C28.6649 28.3325 27.6976 26.1245 27.6976 23.9165C27.6976 21.3405 28.6649 19.1325 30.5993 17.4765C32.3403 15.8205 34.6617 14.9005 37.1764 14.9005C42.206 14.9005 46.4618 19.1325 46.2684 23.9165C46.2684 28.7005 42.0126 32.5645 36.983 32.5645L37.1764 32.7485Z" fill="#367DBD"/>
<path d="M25.7659 6.62394C25.7659 7.17594 25.379 7.54394 24.9921 7.54394C24.7986 7.54394 24.4117 7.54394 24.2183 7.54394H13.5788C13.3854 7.54394 13.1919 7.54394 12.9985 7.54394C12.4181 7.54394 12.0312 6.99194 12.0312 6.43994C12.0312 5.88794 12.4181 5.51994 12.9985 5.33594C12.9985 5.33594 13.3854 5.33594 13.5788 5.33594C17.2543 5.33594 20.9297 5.33594 24.6052 5.33594C24.9921 5.33594 25.1855 5.33594 25.379 5.33594C25.7659 5.33594 26.1527 5.88794 26.1527 6.43994L25.7659 6.62394Z" fill="#367DBD"/>
<path d="M25.7659 12.1466C25.7659 12.6986 25.379 13.2506 24.6052 13.2506H13.3854H12.9985C12.4181 13.2506 12.0312 12.8826 12.0312 12.3306C12.0312 11.7786 12.2247 11.4106 12.805 11.2266C12.805 11.2266 13.1919 11.2266 13.5788 11.2266H24.7986C25.5724 11.2266 25.9593 11.7786 25.9593 12.3306L25.7659 12.1466Z" fill="#367DBD"/>
<path d="M19.3792 23.7367C18.2185 25.0247 16.8644 26.1287 15.7037 27.2327C15.5103 27.4167 15.1234 27.6007 14.93 27.6007C14.7365 27.6007 14.3496 27.6007 14.1562 27.2327C13.5758 26.6807 12.9955 26.1287 12.4152 25.5767C12.0283 25.0247 12.0283 24.4727 12.4152 23.9207C12.8021 23.5527 13.5758 23.5527 14.1562 23.9207C14.3496 24.1047 14.7365 24.4727 14.93 24.6567C14.93 24.6567 14.93 24.6567 14.93 24.8407L17.4447 22.4487C17.4447 22.4487 17.6382 22.2647 17.8316 22.0807C18.412 21.7127 18.9923 21.7127 19.3792 22.0807C19.7661 22.4487 19.7661 23.1847 19.3792 23.5527V23.7367Z" fill="#367DBD"/>
<path d="M19.3758 31.0961C18.9889 31.4641 18.7955 31.6481 18.4086 32.0161L17.2479 33.1201C16.8611 33.4881 16.2807 34.0401 15.8938 34.4081C15.5069 34.7761 15.3135 34.7761 14.9266 34.7761C14.5397 34.7761 14.3463 34.7761 13.9594 34.4081C13.379 33.8561 12.7987 33.3041 12.4118 32.9361C11.8315 32.3841 11.8315 31.8321 12.4118 31.2801C12.9921 30.9121 13.5725 30.9121 14.1528 31.2801C14.3463 31.4641 14.5397 31.6481 14.7332 32.0161L17.2479 29.8081C17.2479 29.8081 17.4414 29.8081 17.6348 29.4401C18.2152 29.0721 18.7955 29.0721 19.3758 29.4401C19.7627 29.8081 19.7627 30.5441 19.3758 31.0961Z" fill="#367DBD"/>
<path d="M19.9606 17.479C19.9606 18.215 19.3803 18.583 18.6065 18.583H13.1901C12.4163 18.583 11.8359 18.215 11.8359 17.479C11.8359 16.927 12.4163 16.375 13.1901 16.375H18.6065C18.9934 16.375 19.3803 16.375 19.5737 16.743C19.7672 16.927 19.9606 17.111 19.9606 17.479Z" fill="#367DBD"/>
<path d="M42.783 20.9669C42.783 21.3349 42.5896 21.7029 42.2027 22.0709L36.7862 27.2229C36.3993 27.5909 36.0124 27.7749 35.6256 27.7749C35.2387 27.7749 35.0452 27.5909 34.4649 27.2229L31.9501 24.8309C31.3698 24.2789 31.1763 23.5429 31.7567 22.9909C31.9501 22.8069 32.337 22.6229 32.5304 22.6229C32.7239 22.6229 33.3042 22.6229 33.6911 23.1749L35.6256 25.0149L40.4617 20.4149C40.6551 20.2309 41.6224 19.3109 42.3961 20.0469C42.5896 20.2309 42.783 20.4149 42.783 20.7829V20.9669Z" fill="#367DBD"/>
</svg>
