<svg width="24" height="24" viewBox="0 0 24 24" fill="none" xmlns="http://www.w3.org/2000/svg">
<g clip-path="url(#clip0_4926_2435)">
<path d="M18.5083 24C17.7409 24 16.9872 23.821 16.2886 23.4733C16.2886 23.4733 16.2817 23.4733 16.2783 23.4699C12.9161 21.7384 9.85329 19.5043 7.17936 16.8296C4.50543 14.1549 2.26855 11.0947 0.534107 7.7315C0.534107 7.72805 0.530666 7.72461 0.527224 7.72117C0.0523175 6.77108 -0.105985 5.72117 0.0695243 4.6747C0.245033 3.63167 0.733706 2.69191 1.48736 1.95181L2.35458 1.07057L2.36147 1.06368C3.04974 0.378657 3.96514 0 4.93904 0C5.91294 0 6.8249 0.378657 7.51661 1.06368L9.45065 2.99828C10.1389 3.69019 10.514 4.60585 10.514 5.57659C10.514 6.54733 10.1355 7.463 9.45065 8.15491L8.38039 9.22547C9.30268 10.4165 10.3076 11.5594 11.3709 12.6265C12.4377 13.6971 13.5837 14.7022 14.7848 15.6248L15.8516 14.5577C16.1888 14.2169 16.588 13.9484 17.032 13.7625C17.4793 13.5766 17.9474 13.4836 18.4326 13.4836C18.9178 13.4836 19.3858 13.5766 19.8332 13.7625C20.2772 13.9484 20.6729 14.2169 21.0136 14.5577L22.9304 16.475C23.2746 16.8158 23.543 17.2117 23.7288 17.6592C23.9147 18.1033 24.011 18.5749 24.011 19.0602C24.011 19.5456 23.9181 20.0138 23.7288 20.4613C23.543 20.9053 23.2746 21.3012 22.9339 21.642L22.0632 22.5232C21.3164 23.2771 20.3735 23.7625 19.3308 23.9346C19.0589 23.9793 18.7836 24.0034 18.5117 24.0034L18.5083 24ZM17.1145 21.821C17.7099 22.117 18.3672 22.2169 19.0245 22.1067C19.6818 22 20.2772 21.6902 20.7452 21.2186L21.6193 20.3339L21.6262 20.327C21.7948 20.1583 21.9256 19.9656 22.0185 19.7453C22.1114 19.525 22.1561 19.2943 22.1561 19.0568C22.1561 18.8193 22.1114 18.5886 22.0185 18.3683C21.9256 18.148 21.7948 17.9552 21.6262 17.7866H21.6227L19.7024 15.8623C19.7024 15.8623 19.7024 15.8623 19.699 15.8589C19.5304 15.6902 19.3377 15.5559 19.1174 15.4664C18.8972 15.3735 18.6666 15.3287 18.4291 15.3287C18.1917 15.3287 17.9611 15.3735 17.7409 15.4664C17.5206 15.5594 17.3279 15.6902 17.1593 15.8589C17.1593 15.8589 17.1593 15.8589 17.1558 15.8623L15.5178 17.5009C15.3457 17.673 15.1082 17.7728 14.8639 17.7728C14.6196 17.7728 14.3959 17.6799 14.2238 17.5146C12.7544 16.4303 11.3537 15.2255 10.0632 13.9312C8.74862 12.6127 7.5235 11.1876 6.41882 9.69019C6.14695 9.32186 6.18481 8.81239 6.5083 8.48881L8.14638 6.85026C8.48363 6.50947 8.66947 6.05852 8.66947 5.57659C8.66947 5.09466 8.48363 4.64372 8.14294 4.29948L6.21234 2.36833C5.87165 2.03098 5.42083 1.84509 4.93904 1.84509C4.45725 1.84509 4.00643 2.03098 3.66574 2.36833L2.79508 3.24957C2.79508 3.24957 2.78819 3.25645 2.78475 3.2599C2.30985 3.72461 2.00012 4.32014 1.89 4.97762C1.77988 5.63167 1.87968 6.2926 2.17563 6.88812C3.8206 10.0792 5.94391 12.9811 8.48019 15.5181C11.0199 18.0551 13.9244 20.1756 17.1145 21.8176V21.821Z" fill="#367DBF"/>
</g>
<defs>
<clipPath id="clip0_4926_2435">
<rect width="24" height="24" fill="white"/>
</clipPath>
</defs>
</svg>
