<svg width="87" height="66" viewBox="0 0 87 66" fill="none" xmlns="http://www.w3.org/2000/svg">
<path d="M72.5 50.1322C72.5073 43.6072 72.5109 39.9387 72.5 35.5343C72.4964 34.0227 73.5295 33.2216 74.5554 33.2216C75.4471 33.2216 76.3316 33.8306 76.5056 35.1066C77.1944 40.2251 77.9955 45.3146 78.4885 46.5108C78.6408 46.8697 78.8981 47.0219 79.1591 47.0219C79.605 47.0219 80.0436 46.5761 79.9059 45.9924C78.9815 42.1173 78.1188 36.8611 77.7055 33.9067C84.6075 40.6274 86.0938 41.1748 85.6515 46.7682C85.3289 50.8608 83.7665 55.8597 87.0036 62.1926L77.7127 65.4297C77.488 64.2914 77.2125 63.1206 76.8935 62.0476C75.0266 55.8089 72.4927 55.6966 72.5 50.1322ZM12.4446 33.2216C11.5529 33.2216 10.6684 33.8306 10.4944 35.1066C9.80562 40.2251 9.0045 45.3146 8.5115 46.5108C8.35925 46.8697 8.10188 47.0219 7.84088 47.0219C7.395 47.0219 6.95638 46.5761 7.09413 45.9924C8.0185 42.1173 8.88125 36.8611 9.2945 33.9067C2.3925 40.6274 0.90625 41.1748 1.3485 46.7682C1.67475 50.8572 3.23713 55.8561 0 62.1889L9.28725 65.4297C9.512 64.2914 9.7875 63.1206 10.1065 62.0476C11.9734 55.8089 14.5073 55.6966 14.5 50.1322C14.4927 43.6072 14.4891 39.9387 14.5 35.5343C14.5036 34.0191 13.4669 33.2216 12.4446 33.2216ZM68.8786 45.1079C60.3454 45.8112 53.1099 47.3554 47.125 49.6211V13.8206L47.3316 13.6901C52.084 10.7321 59.45 8.75644 68.875 7.87919V35.5488C68.8677 33.8849 69.4731 32.3552 70.5751 31.2496C71.9417 29.8793 74.008 29.2123 76.125 29.8322V0.179688C63.6623 0.560312 51.4895 2.56494 43.5 7.53844C35.5105 2.56494 23.3377 0.560312 10.875 0.179688V29.8322C12.9884 29.2159 15.0546 29.8757 16.4249 31.2496C17.5269 32.3552 18.1323 33.8813 18.125 35.5416V7.87919C27.55 8.75644 34.916 10.7357 39.6684 13.6937L39.875 13.8206V49.6211C33.8901 47.3518 26.6619 45.8076 18.125 45.1043V50.1249C18.125 50.9732 18.0489 51.6873 17.9582 52.3797C26.1109 53.0793 33.8067 54.6091 39.875 57.3858C42.1878 58.4443 44.8122 58.4407 47.125 57.3858C53.1969 54.6091 60.8927 53.0793 69.0417 52.3797C68.9511 51.6873 68.875 50.9804 68.875 50.1286L68.8786 45.1079ZM25.375 36.3137C29.319 37.3976 33.0672 38.6337 36.25 39.8227V43.6797C33.2666 42.4291 29.4386 41.1241 25.375 40.0003V36.3137ZM25.375 32.6379C29.4386 33.7617 33.2666 35.0667 36.25 36.3173V32.4603C33.0672 31.2713 29.319 30.0352 25.375 28.9513V32.6379ZM25.375 14.1867V17.8733C29.4386 19.0007 33.2666 20.3021 36.25 21.5527V17.6957C33.0672 16.5067 29.319 15.2706 25.375 14.1867ZM25.375 25.2719C29.4386 26.3957 33.2666 27.7007 36.25 28.9513V25.0979C33.0672 23.9089 29.319 22.6728 25.375 21.5889V25.2719ZM61.625 40.0003C57.5614 41.1241 53.7334 42.4291 50.75 43.6797V39.8227C53.9328 38.6337 57.681 37.3976 61.625 36.3137V40.0003ZM61.625 28.9513C57.681 30.0352 53.9328 31.2713 50.75 32.4603V36.3173C53.7334 35.0667 57.5614 33.7617 61.625 32.6379V28.9513ZM50.75 17.6957V21.5527C53.7334 20.3021 57.5614 18.9971 61.625 17.8733V14.1867C57.681 15.2706 53.9328 16.5067 50.75 17.6957ZM61.625 21.5889C57.681 22.6728 53.9328 23.9089 50.75 25.0979V28.9549C53.7334 27.7043 57.5614 26.3993 61.625 25.2756V21.5889Z" fill="#FDCA33"/>
</svg>
