<svg width="38" height="38" viewBox="0 0 38 38" fill="none" xmlns="http://www.w3.org/2000/svg">
<path d="M18.9953 22.0901C18.2615 22.0901 17.6719 21.4939 17.6719 20.7666V10.1594C17.6719 9.42559 18.2681 8.83594 18.9953 8.83594C19.7226 8.83594 20.3188 9.43214 20.3188 10.1594V20.7666C20.3188 21.5004 19.7226 22.0901 18.9953 22.0901Z" fill="white"/>
<path d="M19.0033 27.8348C19.9803 27.8348 20.7723 27.0428 20.7723 26.0658C20.7723 25.0889 19.9803 24.2969 19.0033 24.2969C18.0264 24.2969 17.2344 25.0889 17.2344 26.0658C17.2344 27.0428 18.0264 27.8348 19.0033 27.8348Z" fill="white"/>
<path d="M19 38C16.4383 38 13.9486 37.4955 11.6031 36.5062C9.34276 35.5497 7.31172 34.1803 5.56241 32.4376C3.81965 30.6948 2.45034 28.6638 1.49379 26.3969C0.504483 24.0514 0 21.5683 0 19C0 15.6586 0.877931 12.3762 2.54207 9.5C2.90897 8.86448 3.72138 8.64828 4.35034 9.01517C4.98586 9.38207 5.20207 10.1945 4.83517 10.8234C3.4069 13.2934 2.6469 16.1238 2.6469 19C2.6469 23.37 4.35035 27.4714 7.43621 30.5572C10.5221 33.6431 14.63 35.3465 18.9934 35.3465C23.3569 35.3465 27.4648 33.6431 30.5507 30.5572C33.6366 27.4714 35.34 23.3634 35.34 19C35.34 14.6366 33.6366 10.5286 30.5507 7.44276C27.4648 4.3569 23.3569 2.65345 18.9934 2.65345C16.1172 2.65345 13.2934 3.4069 10.8169 4.84172C10.1814 5.20862 9.36897 4.99241 9.00862 4.3569C8.64172 3.72138 8.85793 2.91552 9.49345 2.54862C12.3762 0.877931 15.6586 0 19 0C21.5617 0 24.0514 0.504483 26.3969 1.49379C28.6572 2.45034 30.6883 3.81965 32.4376 5.56241C34.1803 7.30517 35.5497 9.33621 36.5062 11.6031C37.4955 13.9486 38 16.4317 38 19C38 21.5683 37.4955 24.0514 36.5062 26.3969C35.5497 28.6572 34.1803 30.6883 32.4376 32.4376C30.6948 34.1803 28.6638 35.5497 26.3969 36.5062C24.0514 37.4955 21.5683 38 19 38Z" fill="white"/>
</svg>
