<svg width="17" height="17" viewBox="0 0 17 17" fill="none" xmlns="http://www.w3.org/2000/svg">
<path d="M16.0776 14.97L13.1838 12.0996C14.3071 10.699 14.8511 8.92133 14.7039 7.13201C14.5567 5.3427 13.7295 3.67777 12.3925 2.47958C11.0555 1.2814 9.31017 0.64102 7.51548 0.690129C5.72079 0.739238 4.01312 1.4741 2.74361 2.74361C1.4741 4.01312 0.739238 5.72079 0.690129 7.51548C0.64102 9.31017 1.2814 11.0555 2.47958 12.3925C3.67777 13.7295 5.3427 14.5567 7.13201 14.7039C8.92133 14.8511 10.699 14.3071 12.0996 13.1838L14.97 16.0542C15.0425 16.1273 15.1288 16.1853 15.2238 16.2249C15.3189 16.2645 15.4208 16.2849 15.5238 16.2849C15.6268 16.2849 15.7287 16.2645 15.8238 16.2249C15.9188 16.1853 16.0051 16.1273 16.0776 16.0542C16.2182 15.9088 16.2968 15.7144 16.2968 15.5121C16.2968 15.3098 16.2182 15.1154 16.0776 14.97ZM7.7238 13.1838C6.64392 13.1838 5.58828 12.8636 4.69039 12.2636C3.7925 11.6637 3.09267 10.8109 2.67942 9.81325C2.26617 8.81557 2.15804 7.71774 2.36871 6.65861C2.57939 5.59947 3.0994 4.62659 3.863 3.863C4.62659 3.0994 5.59947 2.57939 6.65861 2.36871C7.71774 2.15804 8.81557 2.26617 9.81325 2.67942C10.8109 3.09267 11.6637 3.7925 12.2636 4.69039C12.8636 5.58828 13.1838 6.64392 13.1838 7.7238C13.1838 9.17188 12.6086 10.5607 11.5846 11.5846C10.5607 12.6086 9.17188 13.1838 7.7238 13.1838Z" fill="white"/>
</svg>
