<?xml version="1.0" encoding="UTF-8"?>
<svg id="Layer_1" xmlns="http://www.w3.org/2000/svg" version="1.1" viewBox="0 0 60 60">
  <!-- Generator: Adobe Illustrator 29.5.1, SVG Export Plug-In . SVG Version: 2.1.0 Build 141)  -->
  <defs>
    <style>
      .st0 {
        fill: #808285;
        fill-rule: evenodd;
      }
    </style>
  </defs>
  <g id="Page-1">
    <g id="Icon-Set">
      <path id="share" class="st0" d="M45.9,55c-3.8,0-6.8-3.1-6.8-6.8s3.1-6.8,6.8-6.8,6.8,3.1,6.8,6.8-3.1,6.8-6.8,6.8h0ZM14.1,36.8c-3.8,0-6.8-3.1-6.8-6.8s3.1-6.8,6.8-6.8,6.8,3.1,6.8,6.8-3.1,6.8-6.8,6.8h0ZM45.9,5c3.8,0,6.8,3.1,6.8,6.8s-3.1,6.8-6.8,6.8-6.8-3.1-6.8-6.8,3.1-6.8,6.8-6.8h0ZM45.9,36.8c-4,0-7.5,2.1-9.6,5.3l-12.2-7c.8-1.5,1.3-3.3,1.3-5.1s-.2-2.2-.5-3.3l12.7-7.2c2.1,2.3,5,3.7,8.3,3.7,6.3,0,11.4-5.1,11.4-11.4S52.2.4,45.9.4s-11.4,5.1-11.4,11.4.2,2.2.5,3.3l-12.7,7.2c-2.1-2.2-5-3.7-8.3-3.7-6.3,0-11.4,5.1-11.4,11.4s5.1,11.4,11.4,11.4,5-.9,6.9-2.4h0c0,0,13.8,8,13.8,8,0,.4-.1.8-.1,1.2,0,6.3,5.1,11.4,11.4,11.4s11.4-5.1,11.4-11.4-5.1-11.4-11.4-11.4h0Z"/>
    </g>
  </g>
</svg>