<svg width="42" height="42" viewBox="0 0 42 42" fill="none" xmlns="http://www.w3.org/2000/svg">
<path fill-rule="evenodd" clip-rule="evenodd" d="M27.1875 24.375C27.9609 24.375 28.623 24.6504 29.1738 25.2012C29.7246 25.752 30 26.4141 30 27.1875C30 27.9609 29.7246 28.623 29.1738 29.1738C28.623 29.7246 27.9609 30 27.1875 30C26.4141 30 25.752 29.7246 25.2012 29.1738C24.6504 28.623 24.375 27.9609 24.375 27.1875C24.375 27.0703 24.3809 26.959 24.3926 26.8535C24.4043 26.748 24.4277 26.6426 24.4629 26.5371L17.0098 22.7402C16.752 23.0684 16.4326 23.3291 16.0518 23.5225C15.6709 23.7158 15.2578 23.8125 14.8125 23.8125C14.0391 23.8125 13.377 23.5371 12.8262 22.9863C12.2754 22.4355 12 21.7734 12 21C12 20.2266 12.2754 19.5645 12.8262 19.0137C13.377 18.4629 14.0391 18.1875 14.8125 18.1875C15.2227 18.1875 15.6064 18.2695 15.9639 18.4336C16.3213 18.5977 16.6289 18.8262 16.8867 19.1191L24.4453 15.4453C24.4219 15.3398 24.4043 15.2344 24.3926 15.1289C24.3809 15.0234 24.375 14.918 24.375 14.8125C24.375 14.0391 24.6504 13.377 25.2012 12.8262C25.752 12.2754 26.4141 12 27.1875 12C27.9609 12 28.623 12.2754 29.1738 12.8262C29.7246 13.377 30 14.0391 30 14.8125C30 15.5859 29.7246 16.248 29.1738 16.7988C28.623 17.3496 27.9609 17.625 27.1875 17.625C26.7187 17.625 26.2881 17.5195 25.8955 17.3086C25.5029 17.0977 25.1777 16.8164 24.9199 16.4648L17.4668 20.0859C17.5137 20.2266 17.5518 20.373 17.5811 20.5254C17.6104 20.6777 17.625 20.8359 17.625 21C17.625 21.1289 17.6162 21.2549 17.5986 21.3779C17.5811 21.501 17.5547 21.6211 17.5195 21.7383L24.9375 25.5176C25.1836 25.166 25.5029 24.8877 25.8955 24.6826C26.2881 24.4775 26.7187 24.375 27.1875 24.375ZM27.1875 13.125C26.7187 13.125 26.3203 13.2891 25.9922 13.6172C25.6641 13.9453 25.5 14.3437 25.5 14.8125C25.5 15.2813 25.6641 15.6797 25.9922 16.0078C26.3203 16.3359 26.7187 16.5 27.1875 16.5C27.6563 16.5 28.0547 16.3359 28.3828 16.0078C28.7109 15.6797 28.875 15.2813 28.875 14.8125C28.875 14.3437 28.7109 13.9453 28.3828 13.6172C28.0547 13.2891 27.6563 13.125 27.1875 13.125ZM14.8125 22.6875C15.2813 22.6875 15.6797 22.5234 16.0078 22.1953C16.3359 21.8672 16.5 21.4688 16.5 21C16.5 20.5312 16.3359 20.1328 16.0078 19.8047C15.6797 19.4766 15.2813 19.3125 14.8125 19.3125C14.3437 19.3125 13.9453 19.4766 13.6172 19.8047C13.2891 20.1328 13.125 20.5312 13.125 21C13.125 21.4688 13.2891 21.8672 13.6172 22.1953C13.9453 22.5234 14.3437 22.6875 14.8125 22.6875ZM27.1875 28.875C27.6563 28.875 28.0547 28.7109 28.3828 28.3828C28.7109 28.0547 28.875 27.6563 28.875 27.1875C28.875 26.7187 28.7109 26.3203 28.3828 25.9922C28.0547 25.6641 27.6563 25.5 27.1875 25.5C26.7187 25.5 26.3203 25.6641 25.9922 25.9922C25.6641 26.3203 25.5 26.7187 25.5 27.1875C25.5 27.6563 25.6641 28.0547 25.9922 28.3828C26.3203 28.7109 26.7187 28.875 27.1875 28.875Z" fill="#535353"/>
<circle cx="21" cy="21" r="20.75" stroke="#535353" stroke-width="0.5"/>
</svg>
