<svg width="30" height="30" viewBox="0 0 30 30" fill="none" xmlns="http://www.w3.org/2000/svg">
<g filter="url(#filter0_d_1215_5155)">
<path d="M14.2787 3.45649C14.5092 2.98955 14.6245 2.75608 14.7809 2.68149C14.917 2.61659 15.0752 2.61659 15.2113 2.68149C15.3677 2.75608 15.483 2.98955 15.7135 3.45649L17.9002 7.88646C17.9682 8.02431 18.0022 8.09323 18.0519 8.14675C18.096 8.19413 18.1488 8.23252 18.2074 8.2598C18.2736 8.2906 18.3497 8.30171 18.5018 8.32395L23.3931 9.03888C23.9082 9.11416 24.1657 9.15181 24.2849 9.27761C24.3886 9.38707 24.4373 9.53747 24.4176 9.68695C24.3949 9.85875 24.2085 10.0404 23.8356 10.4036L20.2975 13.8496C20.1873 13.957 20.1321 14.0107 20.0965 14.0746C20.065 14.1312 20.0448 14.1934 20.037 14.2577C20.0282 14.3303 20.0412 14.4062 20.0672 14.5579L20.9021 19.4253C20.9901 19.9387 21.0341 20.1953 20.9514 20.3477C20.8794 20.4802 20.7514 20.5732 20.6032 20.6006C20.4327 20.6322 20.2022 20.511 19.7412 20.2686L15.3685 17.969C15.2322 17.8974 15.1641 17.8615 15.0923 17.8475C15.0288 17.835 14.9634 17.835 14.8999 17.8475C14.8281 17.8615 14.76 17.8974 14.6237 17.969L10.251 20.2686C9.79001 20.511 9.55951 20.6322 9.38907 20.6006C9.24078 20.5732 9.11282 20.4802 9.04083 20.3477C8.95809 20.1953 9.00212 19.9387 9.09017 19.4253L9.92498 14.5579C9.95101 14.4062 9.96402 14.3303 9.95521 14.2577C9.94742 14.1934 9.92721 14.1312 9.8957 14.0746C9.86012 14.0107 9.80497 13.957 9.69468 13.8496L6.15665 10.4036C5.78376 10.0404 5.59731 9.85875 5.57462 9.68695C5.55488 9.53747 5.60365 9.38707 5.70734 9.27761C5.82653 9.15181 6.08407 9.11416 6.59914 9.03888L11.4904 8.32395C11.6425 8.30171 11.7186 8.2906 11.7848 8.2598C11.8435 8.23252 11.8963 8.19413 11.9403 8.14675C11.99 8.09323 12.024 8.02431 12.0921 7.88646L14.2787 3.45649Z" stroke="#217FD4" stroke-width="2" stroke-linecap="round" stroke-linejoin="round"/>
</g>
<defs>
<filter id="filter0_d_1215_5155" x="-1" y="0" width="32" height="32" filterUnits="userSpaceOnUse" color-interpolation-filters="sRGB">
<feFlood flood-opacity="0" result="BackgroundImageFix"/>
<feColorMatrix in="SourceAlpha" type="matrix" values="0 0 0 0 0 0 0 0 0 0 0 0 0 0 0 0 0 0 127 0" result="hardAlpha"/>
<feOffset dy="4"/>
<feGaussianBlur stdDeviation="2"/>
<feComposite in2="hardAlpha" operator="out"/>
<feColorMatrix type="matrix" values="0 0 0 0 0 0 0 0 0 0 0 0 0 0 0 0 0 0 0.25 0"/>
<feBlend mode="normal" in2="BackgroundImageFix" result="effect1_dropShadow_1215_5155"/>
<feBlend mode="normal" in="SourceGraphic" in2="effect1_dropShadow_1215_5155" result="shape"/>
</filter>
</defs>
</svg>
