<svg width="22" height="21" viewBox="0 0 22 21" fill="none" xmlns="http://www.w3.org/2000/svg">
<path d="M10.2787 2.45649C10.5092 1.98955 10.6245 1.75608 10.7809 1.68149C10.917 1.61659 11.0752 1.61659 11.2113 1.68149C11.3677 1.75608 11.483 1.98955 11.7135 2.45649L13.9002 6.88646C13.9682 7.02431 14.0022 7.09323 14.0519 7.14675C14.096 7.19413 14.1488 7.23252 14.2074 7.2598C14.2736 7.2906 14.3497 7.30171 14.5018 7.32395L19.3931 8.03888C19.9082 8.11416 20.1657 8.15181 20.2849 8.27761C20.3886 8.38707 20.4373 8.53747 20.4176 8.68695C20.3949 8.85875 20.2085 9.04035 19.8356 9.40355L16.2975 12.8496C16.1873 12.957 16.1321 13.0107 16.0965 13.0746C16.065 13.1312 16.0448 13.1934 16.037 13.2577C16.0282 13.3303 16.0412 13.4062 16.0672 13.5579L16.9021 18.4253C16.9901 18.9387 17.0341 19.1953 16.9514 19.3477C16.8794 19.4802 16.7514 19.5732 16.6032 19.6006C16.4327 19.6322 16.2022 19.511 15.7412 19.2686L11.3685 16.969C11.2322 16.8974 11.1641 16.8615 11.0923 16.8475C11.0288 16.835 10.9634 16.835 10.8999 16.8475C10.8281 16.8615 10.76 16.8974 10.6237 16.969L6.25102 19.2686C5.79001 19.511 5.55951 19.6322 5.38907 19.6006C5.24078 19.5732 5.11282 19.4802 5.04083 19.3477C4.95809 19.1953 5.00212 18.9387 5.09017 18.4253L5.92498 13.5579C5.95101 13.4062 5.96402 13.3303 5.95521 13.2577C5.94742 13.1934 5.92721 13.1312 5.8957 13.0746C5.86012 13.0107 5.80497 12.957 5.69468 12.8496L2.15665 9.40355C1.78376 9.04035 1.59731 8.85875 1.57462 8.68695C1.55488 8.53747 1.60365 8.38707 1.70734 8.27761C1.82653 8.15181 2.08407 8.11416 2.59914 8.03888L7.4904 7.32395C7.64252 7.30171 7.71857 7.2906 7.78481 7.2598C7.84346 7.23252 7.89626 7.19413 7.94028 7.14675C7.99 7.09323 8.02402 7.02431 8.09207 6.88646L10.2787 2.45649Z" stroke="#217FD4" stroke-width="2" stroke-linecap="round" stroke-linejoin="round"/>
</svg>
