<svg width="28" height="31" viewBox="0 0 28 31" fill="none" xmlns="http://www.w3.org/2000/svg">
<g clip-path="url(#clip0_1182_456)">
<path d="M18.3125 15.4832C18.3125 16.0953 18.7945 16.5915 19.3889 16.5915H21.5417C22.1361 16.5915 22.6181 16.0953 22.6181 15.4832C22.6181 14.8712 22.1361 14.375 21.5417 14.375H19.3889C18.7945 14.375 18.3125 14.8712 18.3125 15.4832Z" fill="white"/>
<path d="M3.23438 15.4832C3.23438 16.0953 3.71634 16.5915 4.31077 16.5915H6.46356C7.05798 16.5915 7.53995 16.0953 7.53995 15.4832C7.53995 14.8712 7.05798 14.375 6.46356 14.375H4.31077C3.71634 14.375 3.23438 14.8712 3.23438 15.4832Z" fill="white"/>
<path d="M8.61719 16.5903C8.61719 17.7907 9.48932 19.4448 10.2329 20.3521V21.5809C10.2329 23.1097 11.4401 24.3527 12.9251 24.3527C14.41 24.3527 15.6172 23.1097 15.6172 21.5809V20.3521C16.3608 19.4448 17.2329 17.793 17.2329 16.5903C17.2329 14.1399 15.3418 12.2188 12.9251 12.2188C10.5083 12.2188 8.61719 14.1399 8.61719 16.5903ZM13.4644 21.5809C13.4644 21.8857 13.2234 22.1362 12.9251 22.1362C12.6267 22.1362 12.3857 21.8857 12.3857 21.5809V21.0256H13.4621V21.5809H13.4644ZM12.9251 14.4376C14.1323 14.4376 15.0778 15.3828 15.0778 16.5903C15.0778 17.07 14.5523 18.1829 14.0703 18.8068H11.7798C11.2955 18.1829 10.77 17.0676 10.77 16.5903C10.77 15.3828 11.7155 14.4376 12.9228 14.4376H12.9251Z" fill="white"/>
<path d="M13.9965 9.9341V7.71762C13.9965 7.1056 13.5146 6.60938 12.9201 6.60938C12.3257 6.60938 11.8438 7.1056 11.8438 7.71762V9.9341C11.8438 10.5461 12.3257 11.0423 12.9201 11.0423C13.5146 11.0423 13.9965 10.5461 13.9965 9.9341Z" fill="white"/>
<path d="M18.253 9.15333L16.7291 10.7224C16.3091 11.1548 16.3091 11.8566 16.7291 12.2914C16.9402 12.5088 17.2156 12.6151 17.491 12.6151C17.7664 12.6151 18.0418 12.5064 18.253 12.2914L19.7769 10.7224C20.1969 10.2899 20.1969 9.58812 19.7769 9.15333C19.3569 8.71854 18.673 8.72091 18.253 9.15333Z" fill="white"/>
<path d="M7.5898 9.15244C7.1698 8.72002 6.48816 8.72002 6.06586 9.15244C5.64357 9.58487 5.64586 10.2867 6.06586 10.7215L7.5898 12.2905C7.80094 12.5079 8.07635 12.6142 8.35176 12.6142C8.62717 12.6142 8.90258 12.5055 9.11373 12.2905C9.53373 11.8581 9.53373 11.1563 9.11373 10.7215L7.5898 9.15244Z" fill="white"/>
<path d="M25.8472 6.60868H26.9236C27.3023 6.60868 27.6534 6.4031 27.8485 6.06992C28.0436 5.73437 28.0528 5.32085 27.8738 4.97586L25.5626 0.540533C25.1862 -0.180178 24.0387 -0.180178 23.6646 0.540533L21.3534 4.97586C21.1744 5.31849 21.1836 5.73437 21.3787 6.06992C21.5738 6.4031 21.9249 6.60868 22.3036 6.60868H23.6944V17.6958C23.6944 23.8088 18.8633 28.7829 12.9259 28.7829C6.98852 28.7829 2.15279 23.8112 2.15279 17.6982V5.50044C2.15279 4.88842 1.67082 4.3922 1.07639 4.3922C0.481967 4.3922 0 4.88842 0 5.50044V17.6982C0 25.0352 5.79738 31.0041 12.9236 31.0041C20.0498 31.0041 25.8472 25.0352 25.8472 17.6982V6.60868ZM24.6125 3.4092L25.1243 4.38983H24.1029L24.6125 3.4092Z" fill="white"/>
</g>
<defs>
<clipPath id="clip0_1182_456">
<rect width="28" height="31" fill="white"/>
</clipPath>
</defs>
</svg>
