<svg width="27" height="23" viewBox="0 0 27 23" fill="none" xmlns="http://www.w3.org/2000/svg">
<g clip-path="url(#clip0_1042_383)">
<path d="M26.2527 14.5376C26.2527 10.9699 22.5784 8.07812 18.0482 8.07812C13.5181 8.07812 9.84375 10.9699 9.84375 14.5376C9.84375 18.1054 13.5181 20.9972 18.0482 20.9972C18.7931 20.9972 19.5017 20.8942 20.1899 20.7465L24.6137 22.6109L23.0832 19.6028C25.0008 18.421 26.2527 16.6013 26.2527 14.5376ZM15.5873 14.1348C14.9082 14.1348 14.3558 13.5931 14.3558 12.9239C14.3558 12.2547 14.9059 11.713 15.5873 11.713C16.2688 11.713 16.8189 12.2547 16.8189 12.9239C16.8189 13.5931 16.2688 14.1348 15.5873 14.1348ZM20.5091 14.1348C19.83 14.1348 19.2776 13.5931 19.2776 12.9239C19.2776 12.2547 19.8277 11.713 20.5091 11.713C21.1906 11.713 21.7407 12.2547 21.7407 12.9239C21.7407 13.5931 21.1906 14.1348 20.5091 14.1348Z" fill="white"/>
<path d="M18.0503 6.45952C18.5484 6.45952 19.0329 6.49981 19.5128 6.55801C18.6458 2.82464 14.6499 0 9.84585 0C4.40788 0 0 3.61474 0 8.07329C0 10.645 1.47382 12.9235 3.76039 14.4008L2.46316 16.9546L5.99942 15.4639C6.75784 15.728 7.54569 15.9474 8.38787 16.0481C8.27241 15.5557 8.20676 15.0498 8.20676 14.5306C8.20676 10.0787 12.6214 6.45729 18.0526 6.45729L18.0503 6.45952ZM13.1286 3.63264C13.8077 3.63264 14.3601 4.17429 14.3601 4.84352C14.3601 5.51275 13.81 6.05441 13.1286 6.05441C12.4471 6.05441 11.897 5.51275 11.897 4.84352C11.897 4.17429 12.4471 3.63264 13.1286 3.63264ZM6.56314 6.05441C5.88396 6.05441 5.33156 5.51275 5.33156 4.84352C5.33156 4.17429 5.88396 3.63264 6.56314 3.63264C7.24232 3.63264 7.79472 4.17429 7.79472 4.84352C7.79472 5.51275 7.24232 6.05441 6.56314 6.05441Z" fill="white"/>
</g>
<defs>
<clipPath id="clip0_1042_383">
<rect width="26.2548" height="22.6083" fill="white"/>
</clipPath>
</defs>
</svg>
