<?xml version="1.0" encoding="UTF-8"?>
<svg id="Layer_1" xmlns="http://www.w3.org/2000/svg" version="1.1" viewBox="0 0 60 60">
  <!-- Generator: Adobe Illustrator 29.5.1, SVG Export Plug-In . SVG Version: 2.1.0 Build 141)  -->
  <defs>
    <style>
      .st0 {
        fill: #3471b7;
      }

      .st1 {
        fill: #fff;
      }
    </style>
  </defs>
  <path class="st0" d="M30.1.4C13.8.4.6,13.6.6,29.9s13.2,29.5,29.5,29.5,29.5-13.2,29.5-29.5S46.4.4,30.1.4Z"/>
  <path class="st1" d="M33,27.5l11.6-13.5h-2.7l-10,11.7-8-11.7h-9.3l12.1,17.7-12.1,14.1h2.7l10.6-12.3,8.5,12.3h9.3l-12.6-18.3h0ZM29.3,31.9l-1.2-1.8-9.8-14h4.2l7.9,11.3,1.2,1.8,10.3,14.7h-4.2l-8.4-12h0Z"/>
</svg>