<svg width="38" height="38" viewBox="0 0 38 38" fill="none" xmlns="http://www.w3.org/2000/svg">
<g clip-path="url(#clip0_2093_864)">
<path d="M19.1526 0C20.6328 0.87045 22.0142 2.03105 23.0997 3.38508C24.8758 5.70629 25.7639 8.41435 25.7639 11.4126C25.7639 15.7648 24.0864 19.4401 20.4354 22.1481C20.1394 22.3416 19.8434 22.535 19.5473 22.7284C19.1526 23.0186 18.7579 23.0186 18.3632 22.7284C16.8831 21.858 15.699 20.7941 14.7122 19.4401C12.4427 16.3451 11.752 12.8633 12.344 9.18809C12.9361 5.803 14.6136 3.09493 17.3765 0.967167C17.7712 0.677017 18.2646 0.386867 18.7579 0.0967167C18.8566 0 19.054 0 19.1526 0ZM19.7447 13.8305C21.1262 12.4765 22.4089 11.2191 23.6917 9.96182C23.9877 9.67167 24.0864 9.38152 23.9877 8.89794C23.297 5.89972 21.7182 3.4818 19.1526 1.64418C18.9553 1.54747 18.8566 1.54747 18.6593 1.64418C18.1659 2.03105 17.6725 2.3212 17.2778 2.70807C16.291 3.57852 15.5016 4.6424 14.9096 5.70629C15.995 6.77017 17.0805 7.83405 18.1659 8.89794V7.25375C18.1659 6.77017 18.4619 6.3833 18.9553 6.48002C19.4487 6.48002 19.646 6.86689 19.646 7.35047V12.283C19.7447 12.7666 19.7447 13.2502 19.7447 13.8305ZM14.3175 7.35047C13.4295 9.47824 13.3308 12.96 14.4162 15.7648C15.2056 17.6992 16.3897 19.3433 18.1659 20.6974V11.4126C18.1659 11.2191 18.0672 11.1224 17.9685 10.929C17.1791 10.0585 16.291 9.2848 15.5016 8.41435C15.1069 8.1242 14.7122 7.73734 14.3175 7.35047ZM24.2838 11.5093C24.218 11.5738 24.1522 11.606 24.0864 11.606C22.705 12.96 21.2248 14.4108 19.8434 15.7648C19.7447 15.8615 19.7447 16.055 19.7447 16.1517V20.6974C22.8036 18.3762 24.1851 15.2812 24.2838 11.5093Z" fill="white"/>
<path d="M18.9558 28.8212C19.3505 28.0475 19.6465 27.177 20.1399 26.5C22.2121 23.0182 25.0737 20.6003 29.0207 19.343C31.4876 18.5692 34.0532 18.4725 36.7174 19.0528C37.2108 19.1495 37.5068 19.4397 37.6055 19.9233C38.4936 23.6952 37.9015 27.2738 35.8293 30.5621C34.0532 33.3669 31.5863 35.5914 28.5273 36.8487C25.9618 37.9126 23.3962 38.2027 20.6333 37.8159C20.1399 37.7192 19.6465 37.6224 19.1531 37.429H18.9558C15.6995 38.3962 12.4432 38.106 9.28557 36.752C5.73325 35.2045 3.16768 32.5932 1.4902 29.2081C0.108737 26.5967 -0.285965 23.7919 0.207413 20.9872C0.306089 20.6003 0.404764 20.2134 0.50344 19.8266C0.602116 19.4397 0.799467 19.2463 1.19417 19.1495C3.16768 18.5692 5.23987 18.4725 7.31206 18.9561C12.8379 20.1167 16.5876 23.4051 18.7584 28.5311C18.8571 28.5311 18.8571 28.6278 18.9558 28.8212C18.9558 28.7245 18.8571 28.7245 18.9558 28.8212ZM19.8439 35.2045C19.9097 35.14 19.9754 35.0756 20.0412 35.0111L27.4419 27.7573C27.5406 27.6606 27.6393 27.4672 27.6393 27.2738V21.4707C22.2121 23.9854 18.9558 29.7884 19.8439 35.2045ZM18.0677 35.2045C18.4624 32.303 17.969 29.595 16.4889 27.0803C15.0088 24.5657 12.9366 22.6313 10.2723 21.2773V27.0803C10.2723 27.3705 10.371 27.4672 10.5684 27.6606C13.0353 29.9818 15.4035 32.3997 17.7717 34.7209C17.8704 35.0111 17.969 35.1078 18.0677 35.2045ZM1.68755 21.374C1.68755 21.4707 1.68755 21.5675 1.58887 21.6642C1.19417 24.9525 1.98358 27.9508 4.05576 30.6588C4.15444 30.7556 4.35179 30.8523 4.45047 30.8523H11.2591C8.10147 27.7573 4.94385 24.5657 1.68755 21.374ZM26.5538 30.8523H33.5598C33.6585 30.8523 33.8558 30.7556 33.8558 30.6588C35.8293 27.9508 36.6187 24.9525 36.3227 21.6642C36.3227 21.5675 36.3227 21.4707 36.224 21.374C32.9677 24.5657 29.8101 27.7573 26.5538 30.8523ZM20.9293 36.2684C24.383 37.1389 30.4022 35.0111 32.277 32.3997H25.1724C25.0737 32.3997 24.8763 32.4965 24.7777 32.5932C23.9883 33.2702 23.2975 34.0439 22.5081 34.7209C22.0147 35.3012 21.5214 35.7848 20.9293 36.2684ZM16.9823 36.3651C16.8836 36.2684 16.8836 36.1717 16.8836 36.1717C15.6995 35.0111 14.4167 33.7538 13.2326 32.5932C13.1339 32.4965 12.9366 32.3997 12.7392 32.3997H5.63458C8.69352 35.4947 12.4432 36.8487 16.9823 36.3651ZM2.87166 20.3101C4.84517 22.2445 6.72001 24.0821 8.69352 26.0164V21.0839C8.69352 20.9872 8.59484 20.7937 8.49617 20.7937C7.90411 20.6003 7.41074 20.5036 6.81868 20.4069C5.5359 20.1167 4.15444 20.1167 2.87166 20.3101ZM29.2181 25.9197C31.1916 23.9854 33.0664 22.1478 35.0399 20.2134C33.1651 19.9233 31.2903 20.1167 29.4154 20.697C29.3167 20.697 29.2181 20.8904 29.2181 20.9872C29.2181 22.6313 29.2181 24.2755 29.2181 25.9197Z" fill="white"/>
<path d="M18.9554 3.48242C19.3501 3.48242 19.7448 3.86929 19.7448 4.25616C19.7448 4.64302 19.3501 5.02989 18.9554 4.93317C18.5607 4.93317 18.166 4.54631 18.166 4.15944C18.166 3.77257 18.5607 3.48242 18.9554 3.48242Z" fill="white"/>
</g>
<defs>
<clipPath id="clip0_2093_864">
<rect width="38" height="38" fill="white"/>
</clipPath>
</defs>
</svg>
