<svg width="62" height="62" viewBox="0 0 62 62" fill="none" xmlns="http://www.w3.org/2000/svg">
<circle cx="31" cy="31" r="31" fill="#4C8FD5"/>
<g clip-path="url(#clip0_1182_444)">
<path d="M28.1235 15C20.9179 16.2225 15.2225 21.9179 14 29.1235H16.9052C18.0415 23.4712 22.4712 19.0415 28.1235 17.9052V15ZM33.8765 15V17.9052C39.5288 19.0415 43.9585 23.4712 45.0948 29.1235H48C46.7775 21.9179 41.0821 16.2225 33.8765 15ZM14 34.8765C15.2225 42.0821 20.9179 47.7775 28.1235 49V46.0948C22.4712 44.9585 18.0415 40.5288 16.9052 34.8765H14ZM45.0948 34.8765C43.9585 40.5288 39.5288 44.9585 33.8765 46.0948V49C41.0821 47.7775 46.7775 42.0821 48 34.8765H45.0948Z" fill="white"/>
</g>
<defs>
<clipPath id="clip0_1182_444">
<rect width="34" height="34" fill="white" transform="translate(14 15)"/>
</clipPath>
</defs>
</svg>
