<svg width="62" height="62" viewBox="0 0 62 62" fill="none" xmlns="http://www.w3.org/2000/svg">
<circle cx="31" cy="31" r="31" fill="#4C8FD5"/>
<g clip-path="url(#clip0_1253_333)">
<path d="M37.3125 31.4832C37.3125 32.0953 37.7945 32.5915 38.3889 32.5915H40.5417C41.1361 32.5915 41.6181 32.0953 41.6181 31.4832C41.6181 30.8712 41.1361 30.375 40.5417 30.375H38.3889C37.7945 30.375 37.3125 30.8712 37.3125 31.4832Z" fill="white"/>
<path d="M22.2344 31.4832C22.2344 32.0953 22.7163 32.5915 23.3108 32.5915H25.4636C26.058 32.5915 26.5399 32.0953 26.5399 31.4832C26.5399 30.8712 26.058 30.375 25.4636 30.375H23.3108C22.7163 30.375 22.2344 30.8712 22.2344 31.4832Z" fill="white"/>
<path d="M27.6172 32.5903C27.6172 33.7907 28.4893 35.4448 29.2329 36.3521V37.5809C29.2329 39.1097 30.4401 40.3527 31.9251 40.3527C33.41 40.3527 34.6172 39.1097 34.6172 37.5809V36.3521C35.3608 35.4448 36.2329 33.793 36.2329 32.5903C36.2329 30.1399 34.3418 28.2188 31.9251 28.2188C29.5083 28.2188 27.6172 30.1399 27.6172 32.5903ZM32.4644 37.5809C32.4644 37.8857 32.2234 38.1362 31.9251 38.1362C31.6267 38.1362 31.3857 37.8857 31.3857 37.5809V37.0256H32.4621V37.5809H32.4644ZM31.9251 30.4376C33.1323 30.4376 34.0778 31.3828 34.0778 32.5903C34.0778 33.07 33.5523 34.1829 33.0703 34.8068H30.7798C30.2955 34.1829 29.77 33.0676 29.77 32.5903C29.77 31.3828 30.7155 30.4376 31.9228 30.4376H31.9251Z" fill="white"/>
<path d="M32.9965 25.9341V23.7176C32.9965 23.1056 32.5146 22.6094 31.9201 22.6094C31.3257 22.6094 30.8438 23.1056 30.8438 23.7176V25.9341C30.8438 26.5461 31.3257 27.0423 31.9201 27.0423C32.5146 27.0423 32.9965 26.5461 32.9965 25.9341Z" fill="white"/>
<path d="M37.253 25.1533L35.7291 26.7224C35.3091 27.1548 35.3091 27.8566 35.7291 28.2914C35.9402 28.5088 36.2156 28.6151 36.491 28.6151C36.7664 28.6151 37.0418 28.5064 37.253 28.2914L38.7769 26.7224C39.1969 26.2899 39.1969 25.5881 38.7769 25.1533C38.3569 24.7185 37.673 24.7209 37.253 25.1533Z" fill="white"/>
<path d="M26.5898 25.1524C26.1698 24.72 25.4882 24.72 25.0659 25.1524C24.6436 25.5849 24.6459 26.2867 25.0659 26.7215L26.5898 28.2905C26.8009 28.5079 27.0764 28.6142 27.3518 28.6142C27.6272 28.6142 27.9026 28.5055 28.1137 28.2905C28.5337 27.8581 28.5337 27.1563 28.1137 26.7215L26.5898 25.1524Z" fill="white"/>
<path d="M44.8472 22.6087H45.9236C46.3023 22.6087 46.6534 22.4031 46.8485 22.0699C47.0436 21.7344 47.0528 21.3209 46.8738 20.9759L44.5626 16.5405C44.1862 15.8198 43.0387 15.8198 42.6646 16.5405L40.3534 20.9759C40.1744 21.3185 40.1836 21.7344 40.3787 22.0699C40.5738 22.4031 40.9249 22.6087 41.3036 22.6087H42.6944V33.6958C42.6944 39.8088 37.8633 44.7829 31.9259 44.7829C25.9885 44.7829 21.1528 39.8112 21.1528 33.6982V21.5004C21.1528 20.8884 20.6708 20.3922 20.0764 20.3922C19.482 20.3922 19 20.8884 19 21.5004V33.6982C19 41.0352 24.7974 47.0041 31.9236 47.0041C39.0498 47.0041 44.8472 41.0352 44.8472 33.6982V22.6087ZM43.6125 19.4092L44.1243 20.3898H43.1029L43.6125 19.4092Z" fill="white"/>
</g>
<defs>
<clipPath id="clip0_1253_333">
<rect width="28" height="31" fill="white" transform="translate(19 16)"/>
</clipPath>
</defs>
</svg>
