<svg width="62" height="62" viewBox="0 0 62 62" fill="none" xmlns="http://www.w3.org/2000/svg">
<circle cx="31" cy="31" r="31" fill="#4C8FD5"/>
<path d="M31.9953 34.0901C31.2615 34.0901 30.6719 33.4939 30.6719 32.7666V22.1594C30.6719 21.4256 31.2681 20.8359 31.9953 20.8359C32.7226 20.8359 33.3188 21.4321 33.3188 22.1594V32.7666C33.3188 33.5004 32.7226 34.0901 31.9953 34.0901Z" fill="white"/>
<path d="M32.0033 39.8348C32.9803 39.8348 33.7723 39.0428 33.7723 38.0658C33.7723 37.0889 32.9803 36.2969 32.0033 36.2969C31.0264 36.2969 30.2344 37.0889 30.2344 38.0658C30.2344 39.0428 31.0264 39.8348 32.0033 39.8348Z" fill="white"/>
<path d="M32 50C29.4383 50 26.9486 49.4955 24.6031 48.5062C22.3428 47.5497 20.3117 46.1803 18.5624 44.4376C16.8197 42.6948 15.4503 40.6638 14.4938 38.3969C13.5045 36.0514 13 33.5683 13 31C13 27.6586 13.8779 24.3762 15.5421 21.5C15.909 20.8645 16.7214 20.6483 17.3503 21.0152C17.9859 21.3821 18.2021 22.1945 17.8352 22.8234C16.4069 25.2934 15.6469 28.1238 15.6469 31C15.6469 35.37 17.3503 39.4714 20.4362 42.5572C23.5221 45.6431 27.63 47.3465 31.9934 47.3465C36.3569 47.3465 40.4648 45.6431 43.5507 42.5572C46.6366 39.4714 48.34 35.3634 48.34 31C48.34 26.6366 46.6366 22.5286 43.5507 19.4428C40.4648 16.3569 36.3569 14.6534 31.9934 14.6534C29.1172 14.6534 26.2934 15.4069 23.8169 16.8417C23.1814 17.2086 22.369 16.9924 22.0086 16.3569C21.6417 15.7214 21.8579 14.9155 22.4934 14.5486C25.3762 12.8779 28.6586 12 32 12C34.5617 12 37.0514 12.5045 39.3969 13.4938C41.6572 14.4503 43.6883 15.8197 45.4376 17.5624C47.1803 19.3052 48.5497 21.3362 49.5062 23.6031C50.4955 25.9486 51 28.4317 51 31C51 33.5683 50.4955 36.0514 49.5062 38.3969C48.5497 40.6572 47.1803 42.6883 45.4376 44.4376C43.6948 46.1803 41.6638 47.5497 39.3969 48.5062C37.0514 49.4955 34.5683 50 32 50Z" fill="white"/>
</svg>
