<svg width="40" height="40" viewBox="0 0 40 40" fill="none" xmlns="http://www.w3.org/2000/svg">
<g clip-path="url(#clip0_2093_840)">
<path d="M30.6 24.2206H34.4V28.0206H37.5C38.6 28.0206 39.4 28.8206 39.4 29.9206V34.9206C39.4 36.0206 38.6 36.8206 37.5 36.8206H36.3V38.1206H37.5V39.4206H29.9V38.2206H31.1V36.9206H30C28.8 36.9206 28 36.1206 28 34.9206V31.9206H25.5V35.0206C25.5 35.4206 25.3 35.9206 25.1 36.3206C24.8 36.8206 24.2 37.0206 23.6 37.1206H22.3V38.4206H23.5V39.7206H15.9V38.5206H17.1V37.2206H16C14.8 37.2206 14 36.4206 14 35.2206V32.2206H11.5V34.5206C11.6 36.5206 10.7 37.4206 8.8 37.2206H8.3V38.5206H9.5V39.8206H1.9V38.6206H3.1V37.3206H2C0.8 37.3206 0 36.5206 0 35.3206V30.4206C0 29.2206 0.8 28.4206 2 28.4206H5.1V24.6206H8.9V22.0206H7C4.4 22.0206 2.5 19.9206 2.6 17.3206C2.7 15.3206 4.2 13.5206 6.2 13.2206C6.4 13.2206 6.5 13.1206 6.6 12.8206C7.7 7.62058 13.5 5.12058 18 7.82058C18.1 7.92058 18.2 7.92058 18.3 8.02058C18.3 7.92058 18.4 7.82058 18.4 7.72058C20.1 2.72058 24.6 -0.279422 29.4 0.0205783C34.4 0.420578 38.4 3.92058 39.3 8.82058C40.4 14.5206 36.7 20.1206 31 21.3206C30.7 21.4206 30.6 21.5206 30.6 21.8206C30.6 22.6206 30.6 23.3206 30.6 24.2206ZM20.5 14.4206C20.6 10.7206 17.8 7.92058 14.6 7.72058C13.2 7.62058 11.8 7.92058 10.6 8.72058C8.7 10.0206 7.8 11.8206 7.7 14.0206H7.1C5.3 14.0206 3.9 15.4206 3.9 17.2206C3.9 19.0206 5.3 20.4206 7.1 20.4206H22.5C24.3 20.3206 25.7 18.7206 25.5 16.9206C25.3 15.0206 23.6 13.8206 21.7 14.1206C21.3 14.2206 20.9 14.3206 20.5 14.4206ZM29.3 21.6206H29.2C27.8 21.7206 26.4 21.4206 25 20.9206H24.7C23.8 21.5206 22.8 21.7206 21.8 21.6206H20.4V28.0206H23.5C24.6 28.0206 25.4 28.8206 25.4 29.9206V30.5206H27.9V29.9206C27.9 28.8206 28.7 28.0206 29.8 28.0206H32.9V25.4206H29.1C29.3 24.1206 29.3 22.9206 29.3 21.6206ZM10.3 21.6206V25.4206H6.5V27.9206H9.7C10.8 27.9206 11.6 28.7206 11.6 29.8206V30.4206H14.1V29.9206C14.1 28.6206 14.9 27.9206 16.2 27.9206H19.2V21.6206C16.2 21.6206 13.3 21.6206 10.3 21.6206ZM1.4 33.0206H10.3V30.0206C10.3 29.4206 10.1 29.2206 9.5 29.2206H2.1C1.6 29.2206 1.4 29.4206 1.3 29.8206C1.4 30.9206 1.4 32.0206 1.4 33.0206ZM24.2 33.0206V29.8206C24.2 29.4206 23.9 29.2206 23.5 29.2206H16.1C15.7 29.2206 15.4 29.4206 15.4 29.7206V33.0206H24.2ZM29.3 33.0206H38.2V30.0206C38.2 29.4206 38 29.2206 37.4 29.2206H30C29.5 29.2206 29.3 29.4206 29.2 29.8206C29.3 30.9206 29.3 32.0206 29.3 33.0206ZM33.2 10.2206C33 9.02058 32.8 7.82058 32.6 6.72058C32.6 6.62058 32.4 6.52058 32.3 6.52058H25.1C25 6.52058 24.7 6.62058 24.7 6.72058C24.5 7.92058 24.3 9.12058 24.1 10.3206C27.2 10.2206 30.2 10.2206 33.2 10.2206ZM32.7 15.3206C32.9 14.0206 33 12.8206 33.2 11.5206H24.3C24.3 12.0206 24.4 12.6206 24.4 13.1206C24.4 13.2206 24.5 13.3206 24.6 13.4206C25.3 13.8206 25.9 14.4206 26.3 15.1206C26.4 15.2206 26.5 15.3206 26.6 15.3206H32.7ZM25.2 5.12058H32.2C31.7 3.92058 31.2 2.72058 30.2 1.92058C29.2 1.12058 28.2 1.12058 27.2 1.92058C26.2 2.72058 25.6 3.82058 25.2 5.12058ZM26.7 16.6206C26.9 17.9206 26.5 19.0206 25.7 20.1206C26.6 20.2206 27.5 20.3206 28.3 20.4206C29 20.5206 29.7 20.2206 30.2 19.7206C31 19.0206 31.4 18.2206 31.8 17.2206C31.9 17.0206 32 16.8206 32 16.6206C30.4 16.6206 28.6 16.6206 26.7 16.6206ZM34 6.42058C34.2 7.72058 34.3 8.92058 34.5 10.2206H38.2C38.2 9.12058 37.8 7.62058 37.3 6.62058C37.2 6.52058 37.1 6.42058 37 6.42058C35.9 6.42058 35 6.42058 34 6.42058ZM34 15.3206H36.3C36.9 15.3206 37.3 15.0539 37.5 14.5206C37.9 13.5206 38.1 12.6206 38.2 11.5206H34.5C34.3 12.7206 34.1 14.0206 34 15.3206ZM22.9 10.2206C23.1 8.92058 23.2 7.72058 23.4 6.42058H20.5C20.4 6.42058 20.2 6.52058 20.2 6.62058C20 7.22058 19.7 7.82058 19.5 8.32058C19.5 8.42058 19.5 8.62058 19.6 8.72058C19.9 9.12058 20.2 9.52058 20.5 9.92058C20.6 10.0206 20.7 10.1206 20.8 10.1206C21.5 10.2206 22.2 10.2206 22.9 10.2206ZM38.2 34.4206H29.3V34.7206C29.3 35.5206 29.5 35.6206 30.3 35.6206H37.5C38 35.6206 38.3 35.4206 38.3 34.9206C38.2 34.7206 38.2 34.5206 38.2 34.4206ZM24.2 34.4206H15.3V35.0206C15.3 35.4206 15.6 35.7206 16 35.7206H23.5C23.9 35.7206 24.2 35.5206 24.2 35.0206C24.3 34.8206 24.2 34.6206 24.2 34.4206ZM10.3 34.4206H1.4V34.7206C1.4 35.5206 1.6 35.6206 2.4 35.6206H9.6C10.1 35.6206 10.4 35.4206 10.4 34.9206C10.3 34.7206 10.3 34.5206 10.3 34.4206ZM25.3 1.92058C23.6 2.52058 22.3 3.62058 21.1 5.12058H23.7C24.3 4.02058 24.8 3.02058 25.3 1.92058ZM36.3 5.12058C35.1 3.62058 33.8 2.62058 32.1 1.92058C32.6 2.92058 33.1 4.02058 33.6 5.12058H36.3ZM32.1 19.7206C33.8 19.1206 35.1 18.0206 36.3 16.5206H33.7C33.1 17.6206 32.6 18.7206 32.1 19.7206ZM35 36.9206H32.5V38.1206H35V36.9206ZM4.6 36.9206V38.1206H7.1V36.9206H4.6ZM21 36.9206H18.5V38.1206H21V36.9206ZM21.6 12.7206H23.1C23.1 12.3206 23 11.9206 23 11.4206H21.3C21.4 11.9206 21.5 12.3206 21.6 12.7206Z" fill="white"/>
</g>
<defs>
<clipPath id="clip0_2093_840">
<rect width="39.49" height="39.82" fill="white"/>
</clipPath>
</defs>
</svg>
