<svg width="28" height="28" viewBox="0 0 28 28" fill="none" xmlns="http://www.w3.org/2000/svg">
<g clip-path="url(#clip0_2642_943)">
<path d="M14.0002 28.0005C12.1202 28.0005 10.2902 27.6305 8.56024 26.8905C6.89023 26.1805 5.40023 25.1705 4.11023 23.8805C2.82023 22.5905 1.81023 21.1005 1.10023 19.4305C0.370234 17.7005 -0.00976562 15.8705 -0.00976562 13.9905C-0.00976562 12.1105 0.360234 10.2805 1.10023 8.55047C1.81023 6.88047 2.82023 5.39047 4.11023 4.10047C5.40023 2.81047 6.89023 1.80047 8.56024 1.09047C10.2902 0.360469 12.1202 -0.0195312 14.0002 -0.0195312C15.8802 -0.0195312 17.7102 0.350469 19.4402 1.09047C21.1102 1.80047 22.6002 2.81047 23.8902 4.10047C25.1802 5.39047 26.1902 6.88047 26.9002 8.55047C27.6302 10.2805 28.0102 12.1105 28.0102 13.9905C28.0102 15.8705 27.6402 17.7005 26.9002 19.4305C26.1902 21.1005 25.1802 22.5905 23.8902 23.8805C22.6002 25.1705 21.1102 26.1805 19.4402 26.8905C17.7102 27.6205 15.8802 28.0005 14.0002 28.0005ZM14.0002 1.95047C10.8002 1.95047 7.78023 3.21047 5.49023 5.49047C3.20023 7.77047 1.95023 10.8005 1.95023 14.0005C1.95023 17.2005 3.21023 20.2205 5.49023 22.5105C7.77023 24.7905 10.7902 26.0505 14.0002 26.0505C17.2102 26.0505 20.2202 24.7905 22.5102 22.5105C24.7902 20.2305 26.0502 17.2105 26.0502 14.0005C26.0502 10.7905 24.7902 7.78047 22.5102 5.49047C20.2302 3.21047 17.2102 1.95047 14.0002 1.95047Z" fill="#54997A"/>
<path d="M12.1504 18.6609C11.9004 18.6609 11.6504 18.5609 11.4604 18.3709L7.77035 14.6809C7.39035 14.3009 7.39035 13.6809 7.77035 13.3009C8.15035 12.9209 8.77035 12.9209 9.15035 13.3009L12.1504 16.3009L18.8404 9.62094C19.2204 9.24094 19.8404 9.24094 20.2204 9.62094C20.6004 10.0009 20.6004 10.6209 20.2204 11.0009L12.8404 18.3709C12.6504 18.5609 12.4004 18.6609 12.1504 18.6609Z" fill="#54997A"/>
</g>
<defs>
<clipPath id="clip0_2642_943">
<rect width="28" height="28" fill="white"/>
</clipPath>
</defs>
</svg>
