<svg width="50" height="49" viewBox="0 0 50 49" fill="none" xmlns="http://www.w3.org/2000/svg">
<g clip-path="url(#clip0_2642_807)">
<path d="M11.1107 37.9227L9.38632 32.4215C8.56193 29.7987 11.3149 27.4764 13.7881 28.7164L18.2957 30.971C20.1109 31.8804 20.5873 34.2402 19.2714 35.7733L16.4881 39.02C14.8847 40.8838 11.8443 40.2675 11.1107 37.9227Z" fill="#A6C498"/>
<path d="M44.1764 21.4785H32.8468C29.6098 21.4785 26.9854 22.6284 26.9854 25.8449C26.9854 26.8745 26.9854 28.3024 28.8005 29.2494C28.982 29.3471 29.1862 29.3847 29.3753 29.4673L35.1309 31.9699L39.7217 40.2518C40.0772 41.3866 42.5503 43.0626 43.3823 42.2509C47.1109 38.4256 49.5538 33.3452 50 27.7087C50 27.7087 49.3798 21.4785 44.1764 21.4785Z" fill="#A6C498"/>
<path d="M48.3287 16.9544C46.5135 12.5279 43.3824 8.77023 39.4193 6.16992H39.2C33.7318 6.16992 29.2998 10.5739 29.2998 16.0075C29.2998 17.4354 30.4645 18.5853 31.894 18.5853H45.916C47.0127 18.5853 47.9505 17.9089 48.3287 16.9544Z" fill="#A6C498"/>
<path d="M21.026 2.87076C20.6781 3.47199 20.4814 4.17091 20.4814 4.91493V6.35036C20.4814 8.06386 21.5252 9.52935 23.0151 10.1531C23.0151 10.1531 24.5958 6.59837 28.7858 6.35036V4.91493C28.7858 3.93042 28.4379 3.0361 27.8631 2.32214C27.3639 2.29208 26.8572 2.26953 26.3505 2.26953C24.5202 2.26953 22.7353 2.47245 21.026 2.86324V2.87076Z" fill="#A6C498"/>
<path d="M2.62402 25.8452C2.62402 26.2886 2.63915 26.7245 2.66184 27.1604L11.0342 23.3351C12.9477 22.4633 14.3545 20.7723 14.8612 18.7432L17.3192 8.853C17.7049 7.29732 17.531 5.66649 16.8428 4.24609C8.47034 7.89103 2.62402 16.188 2.62402 25.8452Z" fill="#A6C498"/>
<path d="M24.6559 49C11.0573 49 0 38.0126 0 24.5C0 10.9874 11.0573 0 24.6559 0C38.2544 0 49.3117 10.9874 49.3117 24.5C49.3117 38.0126 38.2544 49 24.6559 49ZM24.6559 1.84877C12.0859 1.84877 1.86054 12.0095 1.86054 24.5C1.86054 36.9905 12.0859 47.1437 24.6483 47.1437C37.2107 47.1437 47.4361 36.983 47.4361 24.5C47.4361 12.017 37.2258 1.84877 24.6559 1.84877Z" fill="#414042"/>
<path d="M11.8364 41.1302C11.6549 41.1302 11.4734 41.1152 11.2843 41.0776C10.3238 40.8822 9.56744 40.2058 9.28004 39.2739L5.81612 28.2189C5.4909 27.1893 5.80855 26.1146 6.63294 25.4156C7.46488 24.7167 8.57667 24.5814 9.55231 25.0699L18.613 29.6017C19.3466 29.9699 19.8609 30.6388 20.0273 31.4429C20.1937 32.2471 19.9743 33.0587 19.4449 33.6825L13.8482 40.2058C13.3339 40.807 12.6078 41.1377 11.8364 41.1377V41.1302ZM11.0649 38.7178C11.1935 39.1236 11.5263 39.2288 11.6624 39.2589C11.7986 39.289 12.154 39.319 12.4263 38.9959L18.023 32.4725C18.1819 32.2847 18.2499 32.0442 18.197 31.8037C18.1516 31.5632 17.9928 31.3603 17.7735 31.2551L8.7128 26.7233C8.27414 26.5054 7.9338 26.7459 7.83548 26.8285C7.73716 26.9112 7.44219 27.2043 7.59346 27.6702L11.0574 38.7253L11.0649 38.7178Z" fill="#414042"/>
<path d="M41.0835 42.0484C40.8868 42.0484 40.6675 42.0258 40.433 41.9657C39.2305 41.6651 37.612 40.4702 37.1733 39.2903L32.7791 31.3541L27.311 28.9792C27.258 28.9567 27.1975 28.9416 27.1446 28.9191C27.016 28.874 26.8496 28.8214 26.6757 28.7312C24.3613 27.5212 24.3613 25.5597 24.3613 24.5076C24.3613 21.1407 26.8345 19.2168 31.153 19.2168H42.4826C47.2701 19.2168 48.9945 23.8387 49.2365 26.2887C49.2365 26.3413 49.2365 26.3939 49.2365 26.4541C48.7903 32.1131 46.3474 37.4791 42.3616 41.5674C42.1423 41.7778 41.7339 42.0634 41.0835 42.0634V42.0484ZM31.1455 21.0581C27.8782 21.0581 26.2219 22.2154 26.2219 24.5001C26.2219 25.4771 26.2219 26.3939 27.5379 27.0854C27.5757 27.1004 27.6513 27.1304 27.7194 27.153C27.8328 27.1906 27.9463 27.2281 28.0521 27.2732L33.8077 29.7758C33.9968 29.8585 34.148 30.0013 34.2539 30.1742L38.8448 38.4561C38.875 38.5087 38.8977 38.5688 38.9204 38.6289C39.1095 39.2377 40.5389 40.1921 41.0608 40.1921C41.0683 40.1921 41.0759 40.1921 41.091 40.1921C44.7138 36.457 46.9525 31.5495 47.376 26.3789C47.2928 25.7025 46.5516 21.0581 42.4826 21.0581H31.153H31.1455Z" fill="#414042"/>
<path d="M44.2142 18.1642H30.1921C28.2484 18.1642 26.6602 16.5935 26.6602 14.6545C26.6602 8.71742 31.5233 3.89258 37.4906 3.89258H37.7099C37.8914 3.89258 38.073 3.94519 38.2242 4.04289C42.3991 6.78598 45.5983 10.6639 47.4815 15.2558C47.5723 15.4737 47.5723 15.7217 47.4815 15.9472C46.9445 17.2924 45.6588 18.1642 44.1991 18.1642H44.2142ZM37.4376 5.74887C32.5216 5.77893 28.5283 9.76957 28.5283 14.6621C28.5283 15.5714 29.277 16.3154 30.1921 16.3154H44.2142C44.7815 16.3154 45.3033 16.0298 45.6059 15.5714C43.8815 11.5808 41.068 8.19887 37.4376 5.74887Z" fill="#414042"/>
<path d="M21.3201 9.73207C21.1991 9.73207 21.0781 9.70952 20.9571 9.65691C19.0739 8.86029 17.8486 7.03406 17.8486 4.9974V3.56197C17.8486 2.69019 18.0831 1.82593 18.5218 1.05937C18.6503 0.833905 18.8697 0.676083 19.1192 0.61596C20.9268 0.202617 22.7874 -0.0078125 24.6555 -0.0078125C25.1622 -0.0078125 25.6765 0.00721817 26.2286 0.0447949C26.4858 0.0598255 26.7278 0.187586 26.8942 0.3905C27.6202 1.28483 28.0211 2.41213 28.0211 3.56197V4.9974C28.0211 5.4859 27.6354 5.89173 27.1437 5.92179C23.5966 6.13222 22.2201 9.05569 22.1672 9.17593C22.0084 9.52164 21.668 9.72455 21.3126 9.72455L21.3201 9.73207ZM19.9663 2.32946C19.7999 2.72025 19.7167 3.14111 19.7167 3.56197V4.9974C19.7167 6.01197 20.1932 6.94387 20.9798 7.5451C21.7285 6.44035 23.347 4.64418 26.1605 4.17823V3.56949C26.1605 2.96075 25.9941 2.38206 25.6765 1.87854C25.3286 1.86351 24.9882 1.85599 24.6555 1.85599C23.0748 1.85599 21.5016 2.01381 19.9663 2.33697V2.32946Z" fill="#414042"/>
<path d="M0.968084 26.7393C0.801694 26.7393 0.635305 26.6942 0.484042 26.604C0.219331 26.4462 0.0529421 26.1681 0.0378158 25.86C0.0151263 25.3941 0 24.9356 0 24.4922C0 14.7674 5.80094 5.95939 14.7708 2.05141C15.2322 1.8485 15.7692 2.05141 15.9885 2.50233C16.7675 4.12565 16.9642 5.98945 16.5255 7.73301L14.0675 17.6232C13.4927 19.9379 11.912 21.8393 9.72621 22.8388L1.3538 26.6641C1.23279 26.7243 1.09666 26.7468 0.96052 26.7468L0.968084 26.7393ZM14.6347 4.15571C6.88247 7.92841 1.90591 15.7594 1.86054 24.387L8.94721 21.1479C10.6111 20.3888 11.8136 18.9384 12.2523 17.1723L14.7103 7.28209C14.9675 6.25249 14.9372 5.16276 14.6271 4.14819L14.6347 4.15571Z" fill="#414042"/>
</g>
<defs>
<clipPath id="clip0_2642_807">
<rect width="50" height="49" fill="white"/>
</clipPath>
</defs>
</svg>
