<svg width="25" height="19" viewBox="0 0 25 19" fill="none" xmlns="http://www.w3.org/2000/svg">
<g clip-path="url(#clip0_2642_765)">
<path d="M2.12531 13.3841V2.00897C2.12531 1.2569 2.39533 0.880859 3.11537 0.880859H21.5666C22.2866 0.880859 22.5566 1.2569 22.5566 1.91496V4.3592C22.7366 4.3592 22.9166 4.45321 23.0967 4.45321C23.8167 4.64123 24.2667 5.39331 24.2667 6.14538V16.9565C24.2667 17.9906 23.4567 18.7426 22.4666 18.7426H3.02537C1.40526 18.7426 0.325195 17.6145 0.325195 15.9224V14.9823C0.595213 14.0422 1.13525 13.4781 2.12531 13.3841ZM3.83542 13.3841H8.33571C9.05575 13.3841 9.59579 13.4781 9.95581 14.1362C10.0458 14.3242 10.2258 14.3242 10.4058 14.3242H14.3661C14.7261 14.3242 14.9961 14.0422 14.9961 13.6661V6.42741C14.9961 5.20529 15.7162 4.45321 16.8863 4.45321H20.9365V2.66704H3.83542V13.3841ZM22.6466 6.23939H16.7062V16.9565H22.6466V6.23939ZM14.9061 16.0164H10.4058C9.6858 16.0164 9.14576 15.9224 8.78574 15.2643C8.69573 15.0763 8.51572 15.0763 8.33571 15.0763H2.12531V15.8283C2.12531 16.4864 2.48533 16.8624 3.11537 16.8624H14.9061V16.0164Z" fill="#367DBF" stroke="white" stroke-width="0.28" stroke-miterlimit="10"/>
<path d="M19.6761 16.0164H19.2261C18.776 16.0164 18.416 15.5463 18.416 15.1703C18.416 14.7003 18.776 14.3242 19.2261 14.3242H20.2161C20.6662 14.3242 21.0262 14.7003 21.0262 15.1703C21.0262 15.6404 20.6662 16.0164 20.2161 16.1104C19.9461 16.1104 19.8561 16.0164 19.6761 16.0164Z" fill="#367DBF" stroke="#367DBF" stroke-width="0.28" stroke-miterlimit="10"/>
</g>
<defs>
<clipPath id="clip0_2642_765">
<rect width="24.1936" height="18.125" fill="white" transform="translate(0.199219 0.75)"/>
</clipPath>
</defs>
</svg>
