<svg width="26" height="20" viewBox="0 0 26 20" fill="none" xmlns="http://www.w3.org/2000/svg">
<g clip-path="url(#clip0_2642_874)">
<path d="M25.4062 16.0134C25.4062 16.207 25.3108 16.4007 25.3108 16.5943C24.8337 18.3372 23.307 19.4991 21.494 19.4991H9.94823C9.66197 19.4991 9.2803 19.4991 8.99404 19.4023C7.75358 19.1118 6.8948 18.3372 6.32228 17.1753C6.22686 16.9816 6.03602 16.8848 5.84518 16.8848C4.60472 16.788 3.36427 16.4975 2.21923 15.9165C1.74213 15.7229 1.36045 15.3356 0.978769 15.0451C0.59709 14.6578 0.40625 14.1737 0.40625 13.6895V3.61956C0.40625 2.84495 0.692509 2.26399 1.26503 1.77985C2.02839 1.1989 2.88717 0.811589 3.74594 0.617936C6.60854 -0.0598505 9.47114 -0.0598505 12.3337 0.714762C13.0017 0.908415 13.6696 1.1989 14.3375 1.68303C15.0055 2.16716 15.3872 2.84495 15.3872 3.71639V7.7831C15.4508 7.7831 15.5144 7.75083 15.578 7.68628C18.7269 6.23388 22.2574 8.17041 22.9253 11.6562C23.0208 11.9466 23.1162 12.1403 23.4024 12.2371C24.5475 12.8181 25.2154 13.7864 25.4062 15.1419V16.0134ZM15.6734 17.9499H21.8757C23.0208 17.7562 23.7841 16.788 23.8795 15.7229C23.975 14.561 23.2116 13.5927 22.162 13.2054C21.6849 13.1086 21.494 12.8181 21.494 12.334C21.494 10.5911 20.2536 9.04185 18.6314 8.65454C16.9139 8.26724 15.2917 9.04185 14.433 10.5911C14.1467 11.172 13.6696 11.2689 13.1925 10.8816C12.7154 10.4942 12.1429 10.3974 11.5704 10.4942C10.7116 10.6879 10.1391 11.3657 10.0437 12.334C10.0437 12.6244 9.94823 12.9149 9.66197 13.1086C9.56656 13.2054 9.37572 13.2054 9.18488 13.2054C7.94442 13.5927 7.18106 14.8514 7.46732 16.1102C7.75358 17.1753 8.70778 17.9499 9.85281 17.9499H15.6734ZM1.93297 5.36244V8.26724C1.93297 8.55772 2.02839 8.75137 2.21923 8.8482C2.31465 8.94502 2.50549 9.04185 2.60091 9.13868C3.17343 9.52598 3.84136 9.71964 4.41388 9.81646C6.03602 10.2038 7.65816 10.3006 9.2803 10.2038C9.47114 10.2038 9.56656 10.1069 9.66197 10.0101C10.5208 9.13868 11.5704 8.94502 12.8108 9.2355C13.0971 9.33233 13.1925 9.2355 13.3833 9.13868C13.4788 9.04185 13.6696 8.94502 13.765 8.8482C13.8604 8.75137 13.8604 8.65454 13.8604 8.46089V5.45927C11.9521 6.42753 9.94823 6.62118 7.849 6.62118C5.84518 6.52436 3.84136 6.3307 1.93297 5.36244ZM7.94442 5.07196C9.08946 5.07196 10.2345 4.97513 11.3795 4.68465C12.1429 4.491 12.9062 4.29735 13.5742 3.81321C14.0513 3.42591 14.0513 3.13543 13.5742 2.84495C13.0971 2.55447 12.62 2.26399 12.1429 2.16716C9.37572 1.39255 6.60854 1.39255 3.93678 2.16716C3.36427 2.36081 2.79175 2.55447 2.31465 2.94177C1.93297 3.23225 1.93297 3.52273 2.31465 3.81321C2.69633 4.10369 3.17343 4.29735 3.5551 4.491C4.89098 4.97513 6.4177 5.07196 7.94442 5.07196ZM5.9406 15.3356C6.13144 14.8514 6.22686 14.3673 6.4177 13.8832C6.79938 12.9149 7.56274 12.2371 8.51694 11.8498C8.64416 11.7853 8.70778 11.6884 8.70778 11.5593C6.4177 11.5593 4.12762 11.3657 1.93297 10.3006V13.2054C1.93297 13.6895 2.12381 13.8832 2.41007 14.1737C3.45968 14.9483 4.70014 15.1419 5.9406 15.3356Z" fill="#367DBF"/>
</g>
<defs>
<clipPath id="clip0_2642_874">
<rect width="25" height="19.375" fill="white" transform="translate(0.40625 0.125)"/>
</clipPath>
</defs>
</svg>
