<svg width="26" height="25" viewBox="0 0 26 25" fill="none" xmlns="http://www.w3.org/2000/svg">
<g clip-path="url(#clip0_2642_865)">
<path d="M1.3562 25C1.0384 24.6822 0.614672 24.3644 0.296875 24.0466C1.3562 22.9873 2.30959 22.0339 3.26298 21.0805C2.73332 20.4449 2.30959 19.8093 2.20365 18.9618C1.88586 17.3728 2.20365 15.9957 3.26298 14.8305C4.53416 13.4534 5.91128 12.1822 7.2884 10.8051L8.77145 12.2881L10.7842 10.2754L11.8435 11.3347L9.93671 13.2415L12.1613 15.4661L14.0681 13.5593L15.1274 14.6186L13.2206 16.5254L14.8096 18.1144L14.5977 18.3262L11.102 21.822C9.19518 23.7288 6.65281 23.8347 4.6401 22.1398H4.53416L4.42823 22.2457C3.58077 23.0932 2.62738 24.0466 1.77993 24.894C1.46213 24.894 1.46213 25 1.3562 25ZM7.18247 12.9237C6.22908 13.8771 5.27569 14.8305 4.3223 15.6779C3.15704 16.9491 3.15704 18.8559 4.3223 20.0212C4.53416 20.233 4.85196 20.5508 5.06382 20.7627C6.44094 22.1398 8.34772 22.1398 9.72484 20.7627L12.2672 18.2203C12.3378 18.1497 12.3731 18.0791 12.3731 18.0084C10.6782 16.4195 8.87738 14.7245 7.18247 12.9237Z" fill="#367DBF"/>
<path d="M25.2965 1.05932C25.1905 1.05932 25.1905 1.16525 25.0846 1.16525C24.1312 2.11864 23.2838 2.9661 22.3304 3.91949C22.4363 4.02542 22.5422 4.13136 22.5422 4.23729C23.9194 6.03814 23.8134 8.58051 22.2244 10.2754L18.4109 14.089L11.1016 6.77966C11.1016 6.77966 11.2075 6.67373 11.2075 6.5678C12.3727 5.40254 13.538 4.34322 14.5973 3.17797C16.3982 1.27119 19.2583 1.16525 21.1651 2.86017H21.2711C22.2244 1.90678 23.1778 0.95339 24.1312 0C24.6609 0.317797 24.9787 0.741525 25.2965 1.05932ZM18.5168 12.0763L21.377 9.2161C22.5422 8.05085 22.5422 6.14407 21.377 4.87288C21.1651 4.55508 20.8473 4.34322 20.6355 4.02542C19.3643 2.75424 17.3516 2.75424 16.0804 4.02542C15.2329 4.87288 14.3855 5.72034 13.538 6.5678L13.4321 6.67373C15.0211 8.58051 16.716 10.2754 18.5168 12.0763Z" fill="#367DBF"/>
</g>
<defs>
<clipPath id="clip0_2642_865">
<rect width="25" height="25" fill="white" transform="translate(0.296875)"/>
</clipPath>
</defs>
</svg>
