<svg width="26" height="25" viewBox="0 0 26 25" fill="none" xmlns="http://www.w3.org/2000/svg">
<g clip-path="url(#clip0_2642_858)">
<path d="M25.0476 18.4831C24.8705 18.7047 24.6934 18.8156 24.5163 18.8156H21.4167V20.367C21.4167 20.8102 21.4167 21.1427 21.771 21.3643C22.2138 21.6968 22.3909 22.3617 22.2138 23.0266C22.0367 23.5806 21.6824 24.1347 21.1511 24.1347C20.6197 24.2455 20.1769 24.0239 19.9113 23.359C19.8227 23.1374 19.7341 23.1374 19.557 23.1374H10.7012C10.5241 23.1374 10.4355 23.2482 10.347 23.359C9.99273 24.2455 9.46138 24.6888 8.66435 24.6888C7.95589 24.6888 7.33598 24.2455 6.98174 23.359C6.89319 23.1374 6.80463 23.1374 6.62751 23.1374C5.83049 23.1374 5.03346 23.1374 4.23644 22.6941C2.55383 21.6968 1.49113 19.2588 1.75681 17.0425C2.02248 14.6046 3.52797 12.7207 5.47625 12.3883C6.09616 12.2774 6.71607 12.3883 7.42454 12.2774H9.46138C9.54993 12.2774 9.63849 12.2774 9.72705 12.0558C9.90417 10.8368 10.7012 10.1719 11.5868 10.1719C12.4724 10.1719 13.1808 10.9477 13.3579 12.1666V12.2774H18.5829C20.354 12.2774 21.8595 10.6152 22.1252 8.28808C22.3023 6.07177 21.1511 4.07709 19.4685 3.52301C19.2028 3.41219 18.8486 3.41219 18.5829 3.41219H16.3689C16.1918 3.41219 16.1918 3.52301 16.1032 3.63382C15.749 4.52035 15.2177 4.96361 14.4206 4.96361C13.6236 4.96361 13.0923 4.52035 12.738 3.63382C12.6495 3.41219 12.5609 3.41219 12.4724 3.41219H4.76779C4.64971 3.41219 4.56115 3.48607 4.50211 3.63382C4.05932 4.74198 3.17374 5.18524 2.28816 4.8528C1.40257 4.52035 0.871225 3.52301 0.959783 2.41485C1.04834 1.3067 1.75681 0.420172 2.73095 0.309356C3.61653 0.198541 4.41355 0.97425 4.67923 2.08241C4.67923 2.19322 4.67923 2.30404 4.76779 2.41485H12.6495C12.6495 2.30404 12.6495 2.19322 12.738 2.08241C12.9151 0.97425 13.7122 0.309356 14.5092 0.309356C15.3948 0.309356 16.1032 1.08507 16.2804 2.19322C16.2804 2.41485 16.3689 2.41485 16.546 2.41485H19.1142C21.0625 2.52567 22.7451 4.63117 23.0108 7.06911C23.2765 10.0611 21.8595 12.6099 19.4685 13.2748C19.2028 13.3856 18.9371 13.3856 18.6714 13.3856H13.7122C13.5351 13.3856 13.4465 13.3856 13.3579 13.6072C13.0037 14.4938 12.4724 14.937 11.6753 14.937C10.8783 14.937 10.347 14.4938 9.99273 13.6072C9.90417 13.3856 9.81561 13.3856 9.63849 13.3856H6.09616C4.41356 13.3856 2.99662 14.937 2.73095 16.9317C2.28816 19.5913 3.88221 22.0292 6.09616 22.2508H6.71607C6.89319 22.2508 6.98174 22.14 6.98174 21.9184C7.24742 20.5886 8.39868 19.8129 9.46138 20.2562C10.0813 20.5886 10.4355 21.1427 10.6126 21.9184C10.6126 22.14 10.7012 22.2508 10.8783 22.2508H19.6456C19.8227 22.2508 19.8227 22.14 19.9998 22.0292C20.1769 21.6968 20.354 21.4751 20.6197 21.2535C20.7083 21.1427 20.7968 21.1427 20.7968 20.9211V14.4938C20.7968 14.2721 20.974 14.0505 21.1511 14.0505C21.3282 14.0505 21.5053 14.1613 21.5939 14.4938C21.5939 14.7154 21.6824 14.7154 21.8595 14.7154H24.782C25.0476 14.7154 25.2247 14.8262 25.3133 15.0478C25.0476 15.0478 25.0476 18.3723 25.0476 18.4831ZM24.5163 17.8182C24.4277 17.5966 24.4277 15.9344 24.5163 15.7127H21.4167V17.8182H24.5163ZM3.70509 2.7473C3.70509 1.97159 3.2623 1.41751 2.64239 1.41751C2.11104 1.41751 1.57969 1.97159 1.57969 2.7473C1.57969 3.52301 2.02248 4.07709 2.64239 4.07709C3.2623 4.07709 3.70509 3.52301 3.70509 2.7473ZM9.63849 22.5833C9.63849 21.8076 9.1957 21.2535 8.57579 21.2535C7.95589 21.2535 7.51309 21.8076 7.51309 22.5833C7.51309 23.359 7.95589 23.9131 8.57579 23.9131C9.10714 23.9131 9.63849 23.2482 9.63849 22.5833ZM11.4097 11.3909C10.7898 11.3909 10.347 11.945 10.347 12.7207C10.347 13.3856 10.7898 14.0505 11.4097 14.0505C12.0296 14.0505 12.4724 13.4964 12.4724 12.7207C12.4724 11.945 11.941 11.3909 11.4097 11.3909ZM15.3062 2.7473C15.3062 2.08241 14.7749 1.41751 14.2435 1.41751C13.6236 1.41751 13.1808 2.08241 13.1808 2.7473C13.1808 3.41219 13.6236 4.07709 14.2435 4.07709C14.8634 4.07709 15.3062 3.52301 15.3062 2.7473ZM20.974 23.359C21.2396 23.359 21.4167 23.1374 21.4167 22.8049C21.4167 22.4725 21.2396 22.2508 20.974 22.2508C20.7083 22.2508 20.5312 22.4725 20.5312 22.8049C20.4426 23.1374 20.7083 23.359 20.974 23.359Z" fill="#367DBF" stroke="#367DBF" stroke-width="0.55" stroke-miterlimit="10"/>
</g>
<defs>
<clipPath id="clip0_2642_858">
<rect width="25" height="25" fill="white" transform="translate(0.703125)"/>
</clipPath>
</defs>
</svg>
