<svg width="26" height="25" viewBox="0 0 26 25" fill="none" xmlns="http://www.w3.org/2000/svg">
<g clip-path="url(#clip0_2642_753)">
<path d="M0.40332 11.8711C1.25366 10.5901 2.104 9.4159 2.84805 8.13494C3.37951 7.28097 4.01727 6.85398 4.9739 6.85398C7.09975 6.96073 8.69414 6.21351 10.1822 4.61231C13.6899 0.982933 18.2605 -0.191278 23.1499 0.0222152C24.5317 0.0222152 25.1695 0.76944 25.2758 2.15714C25.4884 7.8147 23.6814 12.725 19.3234 16.4612C18.8982 16.8881 18.6856 17.3151 18.5793 17.9556C18.1542 22.2255 19.0045 21.158 15.0717 23.8267C14.5402 24.1469 14.0088 24.5739 13.5836 25.0009H12.627C11.9892 24.6806 11.6703 24.0402 11.6703 23.2929C11.564 22.439 11.4577 21.6917 11.2452 20.8378C9.33189 20.6243 4.86761 16.2477 4.44244 14.006C3.69839 13.8992 2.84805 13.6858 2.104 13.579C1.35995 13.4723 0.82849 13.2588 0.40332 12.6183C0.40332 12.4048 0.40332 12.1913 0.40332 11.8711ZM14.5402 18.0624C20.3863 15.3937 24.2128 8.88216 23.894 2.37064C23.894 1.62341 23.5751 1.40992 22.9373 1.40992C21.6618 1.51666 20.3863 1.51666 19.1108 1.73016C13.5836 2.69087 9.96965 6.10676 7.41863 10.6969C9.75706 13.2588 12.0955 15.7139 14.5402 18.0624ZM6.56829 12.6183C5.82424 13.8992 5.82424 15.0735 7.20604 16.0342C8.05638 16.6747 8.80043 17.5286 9.54448 18.3826C10.7137 19.5568 11.2452 19.6636 12.7333 18.8096C10.7137 16.6747 8.58784 14.6465 6.56829 12.6183ZM4.86761 12.6183C5.61165 11.1238 6.24941 9.62939 6.99346 8.02819C6.03682 8.24169 4.9739 8.13494 4.44244 8.66867C3.4858 9.62939 2.84805 10.9103 1.99771 12.1913C3.06063 12.4048 3.91097 12.5115 4.86761 12.6183ZM13.1584 23.3997C14.1151 22.7592 14.8591 22.2255 15.7094 21.6917C17.0912 20.8378 17.3038 20.0905 16.985 18.3826C16.3472 18.7028 15.6032 19.1298 14.9654 19.4501C14.2213 19.7703 13.4773 20.0905 12.7333 20.4108C12.8395 21.4782 12.9458 22.3322 13.1584 23.3997Z" fill="#367DBF"/>
<path d="M0.403168 23.8257C1.78497 22.5448 3.16677 21.1571 4.44228 19.8761C4.65487 19.6626 4.86745 19.3424 5.08004 19.2357C5.39892 19.1289 5.82409 19.1289 6.14296 19.1289C6.14296 19.4491 6.24926 19.9829 6.03667 20.1964C4.86745 21.4773 3.59194 22.6515 2.42273 23.8257C2.10385 24.146 1.78497 24.573 1.46609 24.8932H0.296875C0.403168 24.573 0.403168 24.2527 0.403168 23.8257Z" fill="#367DBF"/>
<path d="M0.40332 19.5569C1.25366 18.8097 1.99771 17.9557 2.84805 17.2085C3.27322 16.7815 3.69839 16.568 4.01727 17.1018C4.12356 17.3153 4.01727 17.9557 3.80468 18.276C3.16693 19.0232 2.52917 19.6637 1.89142 20.3042C1.35995 20.8379 0.934783 20.8379 0.40332 20.1974C0.40332 19.8772 0.40332 19.7704 0.40332 19.5569Z" fill="#367DBF"/>
<path d="M5.29262 25.0017C4.76115 24.5748 4.65486 24.041 5.18632 23.5073C5.93037 22.8668 6.56813 22.1196 7.20588 21.4791C7.41847 21.2656 7.94993 21.3724 8.26881 21.2656C8.26881 21.6926 8.3751 22.2263 8.16252 22.4398C7.41847 23.2938 6.56813 24.1478 5.71779 24.895C5.61149 25.0017 5.5052 25.0017 5.29262 25.0017Z" fill="#367DBF"/>
<path d="M17.4098 11.5517C15.3903 11.5517 13.7959 9.95053 13.7959 7.92235C13.7959 5.89416 15.3903 4.29297 17.4098 4.29297C19.4294 4.29297 21.0238 5.89416 21.0238 7.92235C21.0238 9.95053 19.4294 11.5517 17.4098 11.5517ZM19.642 7.92235C19.642 6.74814 18.6854 5.78742 17.5161 5.68067C16.3469 5.68067 15.284 6.64139 15.284 7.92235C15.284 9.09656 16.2406 10.0573 17.5161 10.0573C18.6854 10.0573 19.642 9.09656 19.642 7.92235Z" fill="#367DBF"/>
</g>
<defs>
<clipPath id="clip0_2642_753">
<rect width="25" height="25" fill="white" transform="translate(0.296875)"/>
</clipPath>
</defs>
</svg>
