<svg width="38" height="34" viewBox="0 0 38 34" fill="none" xmlns="http://www.w3.org/2000/svg">
<g clip-path="url(#clip0_2642_787)">
<path fill-rule="evenodd" clip-rule="evenodd" d="M13.5986 0H24.4014C26.8171 0 28.7714 0 30.305 0.200787C31.8929 0.414961 33.2364 0.856693 34.295 1.91417C35.3536 2.95827 35.815 4.28346 36.0321 5.84961C36.2357 7.36221 36.2357 9.27638 36.2357 11.6724V20.574C36.2357 22.1402 36.2357 23.452 36.1 24.4827C35.9507 25.5803 35.625 26.5709 34.8243 27.3606C34.0236 28.1504 33.0193 28.485 31.9064 28.6189C30.8614 28.7528 29.5314 28.7528 27.9436 28.7528H10.07C8.48214 28.7528 7.15214 28.7528 6.10714 28.6189C4.99429 28.4717 3.99 28.1504 3.18929 27.3606C2.38857 26.5709 2.06286 25.5803 1.91357 24.4827C1.77786 23.452 1.77786 22.1402 1.77786 20.574V11.6724C1.77786 9.28977 1.77786 7.36221 1.98143 5.84961C2.19857 4.28346 2.64643 2.95827 3.71857 1.91417C4.77714 0.870079 6.12071 0.414961 7.70857 0.200787C9.22857 0 11.1829 0 13.5986 0ZM8.06143 2.79764C6.75857 2.97165 6.08 3.27953 5.59143 3.76142C5.10286 4.24331 4.77714 4.92598 4.61429 6.19764C4.43786 7.50945 4.43786 9.26299 4.43786 11.7661V20.4803C4.43786 22.1669 4.43786 23.2913 4.56 24.1346C4.66857 24.9378 4.85857 25.2858 5.08929 25.5134C5.32 25.7409 5.67286 25.9283 6.48714 26.0354C7.34214 26.1425 8.48214 26.1559 10.1921 26.1559H27.8621C29.5721 26.1559 30.7121 26.1559 31.5671 26.0354C32.3814 25.9283 32.7343 25.7409 32.965 25.5134C33.1957 25.2858 33.3857 24.9378 33.4943 24.1346C33.6029 23.2913 33.6164 22.1669 33.6164 20.4803V11.7661C33.6164 9.26299 33.6164 7.52284 33.44 6.19764C33.2636 4.9126 32.9514 4.24331 32.4629 3.76142C31.9743 3.27953 31.2821 2.95827 29.9929 2.79764C28.6629 2.62362 26.885 2.62362 24.3471 2.62362H13.7479C11.21 2.62362 9.44571 2.62362 8.10214 2.79764H8.06143ZM12.3771 22.2205C12.3771 21.4976 12.9743 20.9087 13.7071 20.9087H24.3064C25.0393 20.9087 25.6364 21.4976 25.6364 22.2205C25.6364 22.9433 25.0393 23.5323 24.3064 23.5323H13.7071C12.9743 23.5323 12.3771 22.9433 12.3771 22.2205ZM0 32.6882C0 31.9654 0.597143 31.3764 1.33 31.3764H36.6836C37.4164 31.3764 38.0136 31.9654 38.0136 32.6882C38.0136 33.411 37.4164 34 36.6836 34H1.33C0.597143 34 0 33.411 0 32.6882Z" fill="#414042"/>
<g style="mix-blend-mode:darken">
<rect x="6" y="4" width="26" height="20" rx="4" fill="#A6C498"/>
</g>
</g>
<defs>
<clipPath id="clip0_2642_787">
<rect width="38" height="34" fill="white"/>
</clipPath>
</defs>
</svg>
