<svg width="57" height="57" viewBox="0 0 57 57" fill="none" xmlns="http://www.w3.org/2000/svg">
<g filter="url(#filter0_d_2701_711)">
<circle cx="28.5" cy="26.5" r="22.5" fill="#A6C498" fill-opacity="0.42"/>
</g>
<g clip-path="url(#clip0_2701_711)">
<path d="M22.1404 29.6238C22.6423 25.1071 25.5108 21.3739 29.3974 19.5754C28.4831 18.0848 27.2426 16.8736 25.809 16C20.439 18.56 17.9053 24.8833 20.141 30.4888C20.69 31.8664 21.4837 33.0717 22.4455 34.0875C22.0799 32.6375 21.9733 31.1274 22.1404 29.6238Z" fill="#54997A"/>
<path d="M35.167 19.6426C29.2239 19.3734 24.0124 23.7595 23.3458 29.7576C23.1032 31.9421 23.4974 34.0501 24.3772 35.8988C24.4606 35.9101 24.5423 35.9234 24.6253 35.9327C30.5796 36.5941 35.9426 32.3036 36.604 26.3496C36.8735 23.9232 36.3204 21.5948 35.167 19.6426ZM29.365 29.4874C27.4681 32.4256 25.7042 34.6614 25.4254 34.4816C25.1473 34.3016 26.4599 31.7744 28.3581 28.8365C30.2557 25.8983 32.0196 23.6625 32.2981 23.8422C32.5769 24.0223 31.2636 26.5495 29.365 29.4874Z" fill="#54997A"/>
</g>
<defs>
<filter id="filter0_d_2701_711" x="0" y="0" width="57" height="57" filterUnits="userSpaceOnUse" color-interpolation-filters="sRGB">
<feFlood flood-opacity="0" result="BackgroundImageFix"/>
<feColorMatrix in="SourceAlpha" type="matrix" values="0 0 0 0 0 0 0 0 0 0 0 0 0 0 0 0 0 0 127 0" result="hardAlpha"/>
<feOffset dy="2"/>
<feGaussianBlur stdDeviation="3"/>
<feComposite in2="hardAlpha" operator="out"/>
<feColorMatrix type="matrix" values="0 0 0 0 0 0 0 0 0 0 0 0 0 0 0 0 0 0 0.07 0"/>
<feBlend mode="normal" in2="BackgroundImageFix" result="effect1_dropShadow_2701_711"/>
<feBlend mode="normal" in="SourceGraphic" in2="effect1_dropShadow_2701_711" result="shape"/>
</filter>
<clipPath id="clip0_2701_711">
<rect width="20" height="20" fill="white" transform="translate(18 16)"/>
</clipPath>
</defs>
</svg>
