<svg width="36" height="40" viewBox="0 0 36 40" fill="none" xmlns="http://www.w3.org/2000/svg">
<g clip-path="url(#clip0_2093_843)">
<path d="M31.8992 4.8H28.6992C28.4992 3.1 27.3992 2.4 25.8992 2.4H15.9992C15.6992 2.3 15.4992 2.2 15.2992 2C14.8992 1.6 14.4992 1.2 14.0992 0.8C13.5992 0.3 12.8992 0 12.1992 0H7.19922C5.79922 0 4.69922 1.1 4.69922 2.5V17.8C4.69922 19.3 5.69922 20.3 7.19922 20.3H26.5992C27.6992 20.3 28.6992 19.6 29.0992 18.5C30.3992 14.5 31.7992 10.4 33.0992 6.4C33.4992 5.5 32.8992 4.8 31.8992 4.8ZM25.9992 3.6H26.4992C27.0992 3.7 27.4992 4.2 27.4992 4.8H17.2992V3.5H25.9992V3.6ZM5.89922 16.2C5.79922 16.2 5.79922 16.1 5.89922 16.2L5.79922 2.7C5.79922 1.7 6.29922 1.2 7.29922 1.2H11.9992C12.5992 1.2 12.9992 1.4 13.3992 1.8C13.6992 2.2 14.0992 2.5 14.4992 2.9C14.8992 3.3 15.2992 3.6 15.8992 3.7C15.9992 3.7 16.0992 3.9 16.0992 4C16.1659 4.66667 15.8659 5 15.1992 5H11.5992C10.2992 5 9.49922 5.6 9.09922 6.8C8.09922 9.8 7.09922 12.9 6.09922 15.9C5.99922 15.9 5.89922 16 5.89922 16.2ZM31.9992 6.4C30.6992 10.3 29.3992 14.3 28.0992 18.2C27.7992 19 27.4992 19.3 26.5992 19.3H6.89922C6.29922 19.2 6.19922 19 6.39922 18.4C7.69922 14.6 8.89922 10.8 10.1992 7.1C10.4992 6.2 10.7992 6 11.6992 6H32.1992C32.0992 6.1 31.9992 6.3 31.9992 6.4Z" fill="white"/>
<path d="M27.4991 14.4008C27.4991 14.7008 27.1991 15.0008 26.7991 15.0008H22.7991C22.3991 15.0008 22.0991 14.8008 22.1991 14.4008C22.1991 14.1008 22.3991 13.8008 22.8991 13.8008H26.8991C27.1991 13.9008 27.4991 14.1008 27.4991 14.4008Z" fill="white"/>
<path d="M26.3004 16.8008C26.3004 17.1008 26.0004 17.3008 25.6004 17.4008H21.6004C21.2004 17.4008 20.9004 17.2008 20.9004 16.8008C20.9004 16.5008 21.1004 16.3008 21.6004 16.3008H25.6004C26.0004 16.3008 26.3004 16.5008 26.3004 16.8008Z" fill="white"/>
<path d="M20.5008 30.6004L19.8008 29.9004C20.0008 30.1004 20.3008 30.3004 20.5008 30.6004Z" fill="white"/>
<path d="M6.59961 34.7016C6.59961 35.0016 6.39961 35.3016 5.99961 35.3016H3.19961C2.79961 35.3016 2.59961 35.1016 2.59961 34.7016C2.59961 34.4016 2.79961 34.1016 3.19961 34.1016H6.09961C6.29961 34.2016 6.59961 34.4016 6.59961 34.7016Z" fill="white"/>
<path d="M6.59961 37.2016C6.59961 37.5016 6.39961 37.7016 5.99961 37.7016H3.19961C2.79961 37.7016 2.59961 37.5016 2.59961 37.2016C2.59961 36.9016 2.79961 36.6016 3.19961 36.6016H5.99961C6.29961 36.6016 6.59961 36.8016 6.59961 37.2016Z" fill="white"/>
<path d="M14.9004 39.8003H17.0004C16.3004 39.8003 15.6004 39.7003 14.9004 39.8003Z" fill="white"/>
<path d="M19.8008 37.2016C19.8008 37.5016 19.6008 37.7016 19.2008 37.7016H16.4008C16.0008 37.7016 15.8008 37.5016 15.8008 37.2016C15.8008 36.9016 16.0008 36.6016 16.4008 36.6016H19.2008C19.6008 36.6016 19.8008 36.8016 19.8008 37.2016Z" fill="white"/>
<path d="M19.7992 34.7016C19.7992 35.0016 19.5992 35.2016 19.1992 35.3016H16.2992C15.8992 35.3016 15.6992 35.1016 15.6992 34.7016C15.6992 34.4016 15.8992 34.1016 16.2992 34.1016H19.1992C19.5992 34.2016 19.7992 34.4016 19.7992 34.7016Z" fill="white"/>
<path d="M33.0004 34.8012C33.0004 35.1012 32.7004 35.3012 32.4004 35.3012H29.5004C29.1004 35.3012 28.9004 35.1012 28.9004 34.8012C28.9004 34.5012 29.1004 34.2012 29.5004 34.2012H32.3004C32.8004 34.2012 33.1004 34.4012 33.0004 34.8012Z" fill="white"/>
<path d="M33.0004 37.2016C33.0004 37.5016 32.8004 37.7016 32.4004 37.7016H29.5004C29.1004 37.7016 28.9004 37.5016 28.9004 37.2016C28.9004 36.9016 29.1004 36.6016 29.5004 36.6016H32.5004C32.8004 36.6016 33.0004 36.8016 33.0004 37.2016Z" fill="white"/>
<path d="M36.0004 31.5008C36.0004 31.3008 35.9004 31.1008 35.8004 31.0008C34.7004 29.9008 33.7004 28.9008 32.6004 27.8008H27.3004C26.6004 28.1008 26.4004 28.6008 26.4004 29.3008V38.3008C26.4004 39.3008 26.8004 39.7008 27.8004 39.7008H34.7004C35.4004 39.7008 35.9004 39.2008 35.9004 38.5008C36.0004 36.2008 36.0004 33.9008 36.0004 31.5008ZM33.0004 29.9008C33.3004 30.2008 33.6004 30.5008 33.9004 30.8008H33.0004V29.9008ZM34.9004 39.6008H27.7004V38.7008V29.1008H32.0004V29.9008V31.0008C32.1004 31.6008 32.6004 31.9008 33.3004 31.9008H35.0004V32.9008V39.6008H34.9004Z" fill="white"/>
<path d="M9.5 31.5008C9.5 31.3008 9.4 31.1008 9.3 30.9008C8.3 29.9008 7.4 28.9008 6.4 28.0008C6.3 27.9008 6.2 27.9008 6.1 27.8008H0.9C0.4 28.1008 0 28.4008 0 29.1008V38.6008C0 39.3008 0.5 39.8008 1.2 39.8008H8.3C9.1 39.8008 9.5 39.3008 9.5 38.6008V31.5008ZM6.6 30.0008C6.66667 30.0674 6.73333 30.1341 6.8 30.2008C6.86667 30.2674 6.93333 30.3341 7 30.4008C7.06667 30.4674 7.13333 30.5341 7.2 30.6008L7.4 30.8008H6.6V30.0008ZM8.4 39.6008H1.2V38.7008V29.1008H5.5V29.9008V31.0008C5.6 31.6008 6.1 31.9008 6.8 31.9008H8.4V32.9008V39.6008Z" fill="white"/>
<path d="M31.8008 26.0008C31.8008 25.2008 31.3008 24.5008 30.5008 24.3008C30.3008 24.2008 30.0008 24.2008 29.8008 24.2008H20.1008C19.8008 24.2008 19.7008 24.1008 19.5008 23.9008C19.3008 23.6008 19.1008 23.4008 18.8008 23.2008C18.6008 23.1008 18.6008 23.0008 18.6008 22.8008V19.3008H17.4008V22.9008C17.4008 23.0008 17.3008 23.1008 17.2008 23.2008C17.0008 23.4008 16.7008 23.6008 16.5008 23.9008C16.3008 24.2008 16.2008 24.2008 15.9008 24.2008H6.30078C6.10078 24.2008 5.80078 24.2008 5.60078 24.3008C4.80078 24.5008 4.30078 25.2008 4.30078 26.0008V27.8008H5.40078V25.8008C5.40078 25.5008 5.60078 25.3008 6.00078 25.3008H16.0008C16.3008 25.3008 16.4008 25.4008 16.6008 25.6008C16.8008 25.9008 17.0008 26.1008 17.3008 26.3008C17.5008 26.4008 17.5008 26.5008 17.5008 26.7008V27.8008H18.6008V26.6008C18.6008 26.5008 18.7008 26.5008 18.8008 26.4008L19.7008 25.5008C19.8008 25.4008 19.9008 25.3008 20.0008 25.3008H30.0008C30.5008 25.3008 30.7008 25.5008 30.7008 26.0008V27.7008H31.8008C31.8008 27.2008 31.8008 26.6008 31.8008 26.0008ZM18.0008 25.4008C17.7008 25.4008 17.4008 25.1008 17.4008 24.8008C17.4008 24.5008 17.7008 24.2008 18.0008 24.2008C18.4008 24.2008 18.7008 24.4008 18.7008 24.8008C18.6008 25.1008 18.4008 25.4008 18.0008 25.4008Z" fill="white"/>
<path d="M22.8008 31.6008C22.8008 31.3008 22.7008 31.0008 22.5008 30.8008L19.5008 27.8008H14.2008C13.5008 28.1008 13.3008 28.6008 13.3008 29.3008V38.3008C13.3008 39.1008 13.7008 39.7008 14.5008 39.8008H21.6008C22.4008 39.8008 22.8008 39.3008 22.9008 38.5008V35.2008C22.8008 34.0008 22.8008 32.8008 22.8008 31.6008ZM19.8008 29.8008L20.5008 30.5008L20.7008 30.7008H19.7008V29.8008H19.8008ZM21.7008 39.6008H14.5008V38.7008V29.1008H18.8008V30.0008V31.1008C18.9008 31.8008 19.3008 32.1008 20.2008 32.1008H21.8008V32.9008V39.6008H21.7008Z" fill="white"/>
<path d="M18.7 29.9004V31.0004V30.5004C18.6 30.3004 18.6 30.1004 18.7 29.9004Z" fill="white"/>
<path d="M21.7004 32.9004V39.6004H14.4004V38.6004H21.6004V32.9004H21.7004Z" fill="white"/>
<path d="M8.39922 32.9004V39.6004H1.19922V38.6004H8.39922V32.9004Z" fill="white"/>
<path d="M34.8992 32.9004V39.6004H27.6992V38.6004H34.8992V32.9004Z" fill="white"/>
</g>
<defs>
<clipPath id="clip0_2093_843">
<rect width="36" height="39.8" fill="white"/>
</clipPath>
</defs>
</svg>
