<svg width="47" height="44" viewBox="0 0 47 44" fill="none" xmlns="http://www.w3.org/2000/svg">
<g clip-path="url(#clip0_2642_790)">
<path d="M42.3946 3.20848C42.3946 3.20848 22.2038 0.0613256 25.391 19.8628C45.6275 22.9799 42.3946 3.22354 42.3946 3.22354V3.20848Z" fill="#A6C498"/>
<path d="M7.21293 0.181352C7.21293 0.181352 27.4037 -2.96581 24.2165 16.8206C3.99521 19.9527 7.21293 0.181352 7.21293 0.181352Z" fill="#A6C498"/>
<path d="M28.0909 19.8766C26.7185 19.8766 25.2697 19.7562 23.7295 19.5152C23.3787 19.455 23.089 19.184 23.0433 18.8376C22.0215 12.4379 23.15 7.57411 26.3982 4.36672C28.6857 2.12305 32.0559 0.72264 36.1429 0.346185C39.1928 0.0600797 41.5718 0.421476 41.6633 0.436534C42.014 0.496767 42.3038 0.767814 42.3495 1.11415C42.3648 1.21956 42.7308 3.55358 42.441 6.56521C42.0598 10.6159 40.6416 13.9437 38.3693 16.1874C35.8989 18.6268 32.4524 19.8616 28.0757 19.8616L28.0909 19.8766ZM24.5835 17.9793C30.2107 18.7473 34.4501 17.7534 37.1951 15.043C41.3126 10.9773 40.9923 4.06556 40.7788 1.98753C38.6743 1.77671 31.6747 1.46049 27.5572 5.5262C24.8122 8.23667 23.821 12.4228 24.5835 17.9793Z" fill="#414042"/>
<path d="M23.8515 19.5304C23.638 19.5304 23.4245 19.4551 23.2568 19.2895C22.9365 18.9732 22.9365 18.4462 23.2568 18.13L35.4414 6.09849C35.7617 5.78227 36.2954 5.78227 36.6156 6.09849C36.9359 6.41472 36.9359 6.94175 36.6156 7.25797L24.431 19.2895C24.2633 19.4551 24.0498 19.5304 23.8363 19.5304H23.8515Z" fill="#414042"/>
<path d="M18.9102 19.8772C14.5335 19.8772 11.087 18.6424 8.61656 16.203C6.34433 13.9443 4.92609 10.6164 4.54485 6.58084C4.2551 3.5692 4.6211 1.22013 4.63635 1.12978C4.69735 0.783439 4.97184 0.497334 5.32259 0.452159C5.42934 0.437101 7.79306 0.0757048 10.843 0.36181C14.9452 0.738265 18.3155 2.13868 20.5877 4.38234C23.8359 7.57468 24.9644 12.4535 23.9426 18.8533C23.8816 19.1996 23.6071 19.4857 23.2564 19.5309C21.7162 19.7718 20.2522 19.8923 18.8949 19.8923L18.9102 19.8772ZM6.22233 1.98809C6.00883 4.06612 5.68859 10.9778 9.80604 15.0435C12.551 17.754 16.7905 18.7478 22.4177 17.9799C23.1954 12.4234 22.1889 8.23724 19.4439 5.52677C15.3265 1.46106 8.32681 1.79234 6.22233 1.98809Z" fill="#414042"/>
<path d="M23.1501 19.5311C22.9366 19.5311 22.7231 19.4558 22.5553 19.2901L11.0722 7.95133C10.752 7.63511 10.752 7.10808 11.0722 6.79185C11.3925 6.47563 11.9262 6.47563 12.2465 6.79185L23.7296 18.1307C24.0498 18.4469 24.0498 18.9739 23.7296 19.2901C23.5618 19.4558 23.3483 19.5311 23.1348 19.5311H23.1501Z" fill="#414042"/>
<path d="M21.9752 29.4233C21.777 29.4233 21.5635 29.348 21.411 29.2125C21.1975 29.0167 21.106 28.7156 21.167 28.4445C21.5482 26.6978 22.021 23.5356 22.1887 18.3254C22.1887 17.8887 22.57 17.5273 23.0122 17.5273H23.973C24.4152 17.5273 24.7965 17.8737 24.7965 18.3254C24.9032 21.9243 25.1777 24.9811 25.6199 27.3905C25.6809 27.7368 25.4979 28.0982 25.1777 28.2638C24.0035 28.8662 22.2802 29.3781 22.204 29.4082C22.1277 29.4384 22.0515 29.4384 21.96 29.4384L21.9752 29.4233ZM23.5002 23.9722C23.363 25.3425 23.2105 26.4568 23.058 27.3603C23.3325 27.2549 23.6222 27.1495 23.8967 27.0291C23.7442 26.0954 23.6222 25.0715 23.5155 23.9722H23.5002Z" fill="#414042"/>
<path d="M25.5284 43.9997C21.6702 43.9997 17.812 43.036 14.6857 41.1236L1.60138 33.1578C0.838885 32.691 0.305141 31.9682 0.0916429 31.1099C-0.121855 30.2516 0.0306436 29.3631 0.503389 28.6102C1.23538 27.4357 2.39437 26.6075 3.76685 26.2913C5.12409 25.975 6.54232 26.2009 7.73181 26.9237L13.786 30.5527C14.335 29.9353 15.067 29.4083 15.9362 29.0319C16.775 28.6705 17.7357 28.5651 18.6507 28.4596C19.0777 28.4145 19.4894 28.3693 19.8554 28.294C23.0121 27.7067 25.2386 26.5473 27.7853 24.8909C28.3038 24.5144 35.5628 19.3946 41.5102 22.6773L46.5579 25.4329C46.8171 25.5835 46.9849 25.8546 46.9849 26.1557V39.2564C46.9849 39.4973 46.8781 39.7232 46.6951 39.8737C46.5121 40.0243 46.2682 40.0996 46.0394 40.0695C39.7717 39.2413 34.7088 41.9668 34.6478 41.9969C31.9028 43.3522 28.7156 44.0298 25.5131 44.0298L25.5284 43.9997ZM4.97159 27.767C4.69709 27.767 4.40735 27.7971 4.13285 27.8573C3.20261 28.0832 2.40962 28.6403 1.90637 29.4535C1.66238 29.8299 1.60138 30.2817 1.70813 30.7184C1.81487 31.1551 2.07412 31.5165 2.47062 31.7574L15.555 39.7232C20.8162 42.9155 28.3496 43.2468 33.8853 40.5212C34.2665 40.3104 39.0855 37.7807 45.3379 38.3077V26.6075L40.7172 24.0777C35.6238 21.2618 28.8528 26.1407 28.7766 26.2009C28.7766 26.2009 28.7461 26.216 28.7308 26.231C26.0774 27.9627 23.5916 29.2427 20.1757 29.8902C19.7487 29.9655 19.2912 30.0257 18.8489 30.0709C18.056 30.1612 17.2172 30.2516 16.6225 30.5226C15.738 30.9141 14.6247 31.652 14.3045 33.0223C14.1367 33.7451 14.4875 34.6787 15.067 35.0551C15.9515 35.6424 17.4612 35.4617 18.6659 35.2961L18.8794 35.2659C21.9904 34.8744 25.1929 34.0312 28.3953 32.7813L28.5173 32.7362C28.9443 32.5705 29.4323 32.7663 29.6001 33.1879C29.7678 33.6095 29.5696 34.0914 29.1426 34.257L29.0358 34.3022C25.6809 35.6273 22.3412 36.4857 19.0929 36.9073L18.8947 36.9374C17.4917 37.1181 15.555 37.3741 14.1367 36.4254C12.993 35.6575 12.3678 34.0462 12.688 32.6609C12.749 32.4199 12.8253 32.179 12.9168 31.9531L6.86257 28.3392C6.28308 27.9928 5.64258 27.8121 4.98684 27.8121L4.97159 27.767Z" fill="#414042"/>
<path d="M16.5766 30.4618C16.4394 30.4618 16.2869 30.4316 16.1496 30.3563L8.89072 26.1551C8.17398 25.7184 7.35049 25.5829 6.54225 25.7787C5.76451 25.9594 5.09351 26.4262 4.65127 27.1038L4.46827 27.4802C4.27002 27.8868 3.78203 28.0675 3.37028 27.8717C2.95854 27.676 2.77554 27.1941 2.97379 26.7876L3.17203 26.3659C3.17203 26.3659 3.20253 26.3057 3.21778 26.2756C3.88878 25.2064 4.92576 24.4686 6.161 24.1825C7.39624 23.8964 8.66197 24.0921 9.74471 24.7547L16.9884 28.9409C17.3849 29.1667 17.5221 29.6787 17.2781 30.0702C17.1256 30.3262 16.8511 30.4768 16.5614 30.4768L16.5766 30.4618Z" fill="#414042"/>
<path d="M20.7703 29.7543C20.6331 29.7543 20.4806 29.7242 20.3433 29.6338L12.0322 24.8002C10.7359 24.0171 9.0432 24.2731 8.06721 25.4025C7.76221 25.7488 7.24372 25.794 6.89297 25.4928C6.54223 25.1917 6.49648 24.6797 6.80147 24.3334C8.32646 22.5715 10.8884 22.165 12.8862 23.3847L21.1821 28.2184C21.5786 28.4442 21.7158 28.9562 21.4718 29.3477C21.3193 29.6037 21.0448 29.7543 20.7551 29.7543H20.7703Z" fill="#414042"/>
</g>
<defs>
<clipPath id="clip0_2642_790">
<rect width="47" height="44" fill="white"/>
</clipPath>
</defs>
</svg>
