<svg width="1440" height="274" viewBox="0 0 1440 274" fill="none" xmlns="http://www.w3.org/2000/svg">
<g clip-path="url(#clip0_349_896)">
<rect width="1440" height="274" fill="#E91E1E"/>
<path d="M0 0H1440V274H0V0Z" fill="#F6F6F6"/>
<g clip-path="url(#clip1_349_896)">
<path d="M-175 -68.268C-175 -68.268 -124 -164.73 -73.1128 -123.945C-22.2377 -83.1476 -25.0066 92.5639 60.7288 80.2661C146.464 67.9683 200.295 55.6081 229.007 106.595C257.718 157.583 174.677 150.274 210.323 212.736C245.982 275.198 365.942 261.228 313.121 347.363C260.3 433.498 -110.992 437.002 -110.992 437.002L-175 -68.268Z" fill="url(#paint0_linear_349_896)"/>
<path d="M239.097 129.004C239.534 128.667 245.046 127.657 245.633 127.557L248.202 132.009C247.828 132.458 244.198 136.724 243.687 136.949L245.383 142.436C245.932 142.324 251.332 143.808 251.894 143.971L252.28 149.109C251.744 149.359 246.63 151.629 246.069 151.591L245.208 157.266C245.745 157.403 249.973 161.083 250.409 161.469L248.526 166.259C247.94 166.259 242.34 166.072 241.853 165.81L238.623 170.549C239.047 170.911 241.267 176.05 241.479 176.598L237.7 180.103C237.176 179.841 232.212 177.247 231.888 176.798L226.911 179.667C227.148 180.178 226.911 185.766 226.862 186.352L221.947 187.873C221.586 187.412 218.231 182.922 218.143 182.373L212.418 182.797C212.418 183.358 209.762 188.297 209.475 188.809L204.386 188.036C204.261 187.462 203.189 181.962 203.339 181.425L197.988 179.33C197.738 179.829 193.211 183.134 192.724 183.471L188.471 180.565C188.609 179.991 190.03 174.578 190.405 174.154L186.501 169.938C186.064 170.275 180.551 171.285 179.965 171.385L177.396 166.932C177.77 166.483 181.4 162.218 181.911 161.993L180.215 156.505C179.666 156.618 174.265 155.133 173.704 154.971L173.317 149.833C173.854 149.583 178.967 147.313 179.529 147.351L180.389 141.676C179.853 141.538 175.625 137.859 175.188 137.472L177.072 132.683C177.658 132.683 183.258 132.87 183.744 133.132L186.975 128.392C186.551 128.031 184.331 122.892 184.119 122.343L187.898 118.839C188.421 119.1 193.386 121.695 193.71 122.144L198.686 119.275C198.449 118.764 198.686 113.176 198.736 112.59L203.65 111.068C204.012 111.53 207.367 116.02 207.454 116.569L213.179 116.145C213.179 115.583 215.836 110.644 216.123 110.133L221.212 110.906C221.336 111.48 222.409 116.98 222.259 117.516L227.61 119.612C227.859 119.113 232.387 115.808 232.873 115.471L237.126 118.377C236.989 118.951 235.567 124.364 235.193 124.788L239.097 129.004ZM200.857 129.702C189.432 136.3 185.515 150.905 192.113 162.33C198.711 173.755 213.316 177.671 224.741 171.073C236.166 164.475 240.082 149.87 233.484 138.445C226.886 127.02 212.281 123.104 200.857 129.702Z" fill="#D8E1E6"/>
<path d="M258.33 62.1881C258.954 61.7142 266.724 60.2923 267.547 60.1551L271.177 66.4412C270.653 67.0773 265.527 73.1015 264.803 73.4008L267.185 81.1462C267.959 80.9841 275.579 83.0794 276.365 83.3039L276.914 90.5504C276.166 90.8996 268.944 94.105 268.158 94.0552L266.948 102.062C267.709 102.25 273.671 107.438 274.282 107.999L271.626 114.759C270.802 114.759 262.895 114.497 262.209 114.123L257.644 120.821C258.243 121.32 261.373 128.591 261.685 129.352L256.359 134.291C255.623 133.917 248.614 130.275 248.152 129.627L241.131 133.68C241.455 134.391 241.118 142.298 241.068 143.122L234.133 145.267C233.635 144.618 228.895 138.282 228.77 137.509L220.688 138.12C220.676 138.906 216.934 145.878 216.535 146.589L209.351 145.504C209.176 144.693 207.667 136.935 207.879 136.187L200.333 133.231C199.984 133.929 193.586 138.594 192.912 139.068L186.913 134.977C187.112 134.179 189.108 126.533 189.632 125.947L184.119 120.01C183.495 120.484 175.725 121.906 174.902 122.043L171.272 115.757C171.796 115.121 176.922 109.097 177.646 108.798L175.264 101.052C174.49 101.214 166.87 99.119 166.084 98.8945L165.535 91.648C166.284 91.2988 173.505 88.0933 174.291 88.1432L175.501 80.1359C174.74 79.9488 168.778 74.7603 168.167 74.1991L170.823 67.439C171.647 67.439 179.554 67.7009 180.24 68.0751L184.805 61.3774C184.206 60.8785 181.076 53.6071 180.764 52.8463L186.09 47.9072C186.826 48.2814 193.835 51.9233 194.297 52.5719L201.319 48.5183C200.994 47.8074 201.331 39.8999 201.381 39.0767L208.316 36.9314C208.814 37.58 213.554 43.916 213.679 44.6893L221.761 44.0782C221.773 43.2924 225.515 36.3203 225.914 35.6094L233.098 36.6945C233.273 37.5052 234.782 45.263 234.57 46.0114L242.116 48.9673C242.465 48.2689 248.863 43.6042 249.537 43.1302L255.536 47.2212C255.337 48.0194 253.341 55.665 252.817 56.2512L258.33 62.1881ZM204.387 63.1734C188.272 72.4779 182.747 93.0948 192.052 109.209C201.356 125.324 221.973 130.849 238.087 121.544C254.202 112.24 259.727 91.623 250.422 75.5087C241.118 59.3943 220.501 53.869 204.387 63.1734Z" stroke="#89A6B9" stroke-width="0.798235" stroke-linecap="round" stroke-linejoin="round"/>
<path d="M206.558 19.4375H104.583V102.741H206.558V19.4375Z" fill="white" stroke="#0C2648" stroke-width="0.798235" stroke-miterlimit="10"/>
<path d="M150.255 46.4157C150.255 56.93 141.737 65.4487 131.222 65.4487C120.708 65.4487 112.189 56.93 112.189 46.4157C112.189 35.9015 120.708 27.3828 131.222 27.3828C132.37 27.3828 133.492 27.4826 134.59 27.6822C141.325 28.8795 146.838 33.619 149.12 39.9176C149.856 41.9506 150.255 44.1333 150.255 46.4157Z" fill="#C35445"/>
<path d="M149.123 39.9183L131.225 48.4868C131.225 48.4868 133.095 36.8625 134.592 27.6953C141.327 28.8927 146.84 33.6322 149.123 39.9308V39.9183Z" fill="#0C2648"/>
<path d="M200.632 76.7965C200.632 85.4773 193.597 92.5118 184.916 92.5118C184.068 92.5118 183.233 92.4494 182.422 92.3122C176.385 91.3518 171.484 86.9366 169.825 81.1494C169.426 79.765 169.201 78.3057 169.201 76.7965C169.201 68.1157 176.236 61.0938 184.904 61.0938C193.572 61.0938 200.619 68.1157 200.619 76.7965H200.632Z" fill="#D8E1E6"/>
<path d="M115.334 72.4609V94.8489H162.542" stroke="#0C2648" stroke-width="0.798235" stroke-miterlimit="10" stroke-linecap="round"/>
<path d="M115.334 94.8467L123.416 85.8166L127.931 90.3316C127.931 90.3316 137.522 73.5936 137.522 74.1549C137.522 74.7162 144.482 89.7704 144.482 89.7704L161.033 66.4844" stroke="#0C2648" stroke-width="0.798235" stroke-miterlimit="10" stroke-linecap="round"/>
<path d="M197.725 30.3203H165.559V32.3907H197.725V30.3203Z" fill="#89A6B9"/>
<path d="M197.725 35.7812H165.559V37.8517H197.725V35.7812Z" fill="#89A6B9"/>
<path d="M197.725 41.2344H165.559V43.3048H197.725V41.2344Z" fill="#89A6B9"/>
<path d="M197.725 46.4219H165.559V48.4923H197.725V46.4219Z" fill="#89A6B9"/>
<path d="M184.917 76.8047L182.422 92.3204C176.386 91.36 171.484 86.9448 169.825 81.1576C175.538 79.5736 184.917 76.8047 184.917 76.8047Z" fill="#C35445"/>
<path d="M168.143 126.586H112.466V164.39H168.143V126.586Z" stroke="#89A6B9" stroke-width="0.798235" stroke-miterlimit="10"/>
<path d="M143.359 135.617H117.729V138.062H143.359V135.617Z" fill="#89A6B9"/>
<path d="M143.359 141.07H117.729V143.515H143.359V141.07Z" fill="#89A6B9"/>
<path d="M143.359 146.523H117.729V148.968H143.359V146.523Z" fill="#89A6B9"/>
<path d="M143.359 151.984H117.729V154.429H143.359V151.984Z" fill="#89A6B9"/>
<path d="M162.392 135.617H148.386V155.361H162.392V135.617Z" fill="#89A6B9"/>
<path d="M168.143 168.922H112.466V206.726H168.143V168.922Z" stroke="#89A6B9" stroke-width="0.798235" stroke-miterlimit="10"/>
<path d="M140.304 187.819C140.304 194.055 135.252 199.106 129.016 199.106C122.78 199.106 117.729 194.055 117.729 187.819C117.729 181.583 122.78 176.531 129.016 176.531C129.315 176.531 129.615 176.531 129.902 176.569C135.726 177.018 140.304 181.882 140.304 187.819Z" fill="#89A6B9"/>
<path d="M140.303 187.813H129.016C129.016 187.813 129.402 180.803 129.901 176.562C135.726 177.012 140.303 181.876 140.303 187.813Z" fill="#0C2648"/>
<path d="M163.191 178.445H144.158V180.441H163.191V178.445Z" fill="#89A6B9"/>
<path d="M163.191 182.812H144.158V184.808H163.191V182.812Z" fill="#89A6B9"/>
<path d="M163.191 187.18H144.158V189.175H163.191V187.18Z" fill="#89A6B9"/>
<path d="M163.191 191.555H144.158V193.55H163.191V191.555Z" fill="#89A6B9"/>
<path d="M163.191 195.914H144.158V197.91H163.191V195.914Z" fill="#89A6B9"/>
<path d="M112.466 213.305V272.736H198.613" stroke="#D8E1E6" stroke-width="0.798235" stroke-linecap="round" stroke-linejoin="round"/>
<path d="M126.759 254.312H117.729V272.747H126.759V254.312Z" fill="#D8E1E6"/>
<path d="M140.266 247.148H131.236V272.742H140.266V247.148Z" fill="#D8E1E6"/>
<path d="M153.774 243.031H144.744V272.753H153.774V243.031Z" fill="#D8E1E6"/>
<path d="M167.294 238.32H158.264V272.744H167.294V238.32Z" fill="#D8E1E6"/>
<path d="M180.802 221.562H171.771V272.749H180.802V221.562Z" fill="#D8E1E6"/>
<path d="M194.321 210.172H185.291V272.734H194.321V210.172Z" fill="#D8E1E6"/>
<path d="M121.208 263.904C121.208 263.904 162.068 274.855 189.931 229.805" stroke="#C35445" stroke-width="1.584" stroke-linecap="round" stroke-linejoin="round"/>
<path d="M205.085 205.4L224.642 194.188L220.289 202.606L248.314 217.112L239.609 233.925L211.583 219.432L207.23 227.838L205.085 205.4Z" fill="#D8E1E6"/>
<path d="M198.374 221.854L203.313 233.79L198.96 229.973L189.232 241.074L180.514 233.453L190.242 222.34L185.889 218.523L198.374 221.854Z" fill="#C35445"/>
</g>
</g>
<defs>
<linearGradient id="paint0_linear_349_896" x1="-165.192" y1="180.537" x2="279.84" y2="86.5108" gradientUnits="userSpaceOnUse">
<stop stop-color="#E1E4E6"/>
<stop offset="1" stop-color="white"/>
</linearGradient>
<clipPath id="clip0_349_896">
<rect width="1440" height="274" fill="white"/>
</clipPath>
<clipPath id="clip1_349_896">
<rect width="860.872" height="571" fill="white" transform="translate(-175 -134)"/>
</clipPath>
</defs>
</svg>
