<svg width="23" height="19" viewBox="0 0 23 19" fill="none" xmlns="http://www.w3.org/2000/svg">
<path d="M1.08594 4.28906L9.59106 10.2426C10.2798 10.7248 10.6241 10.9658 10.9987 11.0592C11.3296 11.1416 11.6756 11.1416 12.0065 11.0592C12.3811 10.9658 12.7254 10.7248 13.4141 10.2427L21.9193 4.28906M6.08594 17.8307H16.9193C18.6694 17.8307 19.5445 17.8307 20.213 17.4901C20.801 17.1905 21.2791 16.7125 21.5787 16.1245C21.9193 15.456 21.9193 14.5809 21.9193 12.8307V6.16406C21.9193 4.4139 21.9193 3.53882 21.5787 2.87034C21.2791 2.28234 20.801 1.80427 20.213 1.50467C19.5445 1.16406 18.6694 1.16406 16.9193 1.16406H6.08594C4.33577 1.16406 3.46069 1.16406 2.79222 1.50467C2.20421 1.80427 1.72615 2.28234 1.42654 2.87034C1.08594 3.53882 1.08594 4.4139 1.08594 6.16406V12.8307C1.08594 14.5809 1.08594 15.456 1.42654 16.1245C1.72615 16.7125 2.20421 17.1905 2.79222 17.4901C3.46069 17.8307 4.33577 17.8307 6.08594 17.8307Z" stroke="black" stroke-width="1.5" stroke-linecap="round" stroke-linejoin="round"/>
</svg>
