<svg width="1030" height="111" viewBox="0 0 1030 111" fill="none" xmlns="http://www.w3.org/2000/svg">
<g clip-path="url(#clip0_4859_8969)">
<path d="M741.863 33.7675C741.773 32.8724 742.221 32.6038 743.027 32.6038H745.157C745.694 32.6038 745.945 33.0514 746.034 33.5885L751.907 84.2725H752.068L773.373 32.5322C773.641 31.9951 773.82 31.7266 774.358 31.7266H774.895C775.432 31.7266 775.682 32.013 775.79 32.5322L782.88 84.183H783.059L803.021 33.5885C803.164 33.0514 803.63 32.6575 804.185 32.6038H806.494C807.282 32.6038 807.658 32.8724 807.389 33.7675L782.88 95.0861C782.754 95.4262 782.45 95.659 782.092 95.6948H781.465C780.928 95.6948 780.767 95.5158 780.677 95.0861L773.409 42.2H773.23L751.567 95.0145C751.405 95.4441 751.226 95.6232 750.779 95.6232H750.17C749.615 95.6232 749.364 95.3546 749.364 95.0145L741.899 33.7675H741.863Z" fill="#EC1C24"/>
<path d="M817.489 33.7653C817.597 33.1387 818.098 32.6732 818.724 32.6016H850.7C851.237 32.6016 851.685 33.0312 851.685 33.5862C851.685 33.64 851.685 33.7116 851.685 33.7653L851.523 35.2691C851.398 35.9137 850.843 36.3791 850.181 36.415H821.464L818.008 60.9245H842.876C843.431 60.9245 843.861 61.372 843.861 61.927C843.861 61.9808 843.861 62.0166 843.861 62.0703L843.682 63.5741C843.574 64.2187 843.019 64.702 842.357 64.7379H817.543L813.819 91.0198H842.679C843.234 91.0198 843.664 91.4674 843.664 92.0224C843.664 92.0761 843.664 92.1119 843.664 92.1656L843.395 93.5979C843.306 94.2245 842.787 94.7079 842.16 94.7616H810.149C809.594 94.7616 809.164 94.314 809.164 93.759C809.164 93.7053 809.164 93.6516 809.164 93.5979L817.561 33.7653H817.489Z" fill="#EC1C24"/>
<path d="M864.108 33.7653C864.215 33.1387 864.716 32.6732 865.343 32.6016H897.318C897.873 32.6016 898.303 33.0491 898.303 33.6041C898.303 33.6579 898.303 33.7116 898.303 33.7653L898.124 35.2691C897.999 35.9137 897.444 36.3791 896.799 36.415H868.028L864.573 60.9245H889.441C889.996 60.9245 890.426 61.372 890.426 61.927C890.426 61.9808 890.426 62.0166 890.426 62.0703L890.247 63.5741C890.139 64.2187 889.584 64.702 888.922 64.7379H864.054L860.33 91.0198H889.19C889.745 91.0198 890.175 91.4674 890.175 92.0224C890.175 92.0761 890.175 92.1119 890.175 92.1656L889.906 93.5979C889.817 94.2245 889.298 94.7079 888.671 94.7616H856.696C856.159 94.7616 855.711 94.3319 855.711 93.7769C855.711 93.7232 855.711 93.6516 855.711 93.5979L864.126 33.7653H864.108Z" fill="#EC1C24"/>
<path d="M910.745 33.9264C910.799 33.1923 911.407 32.6015 912.159 32.6015H913.824C914.433 32.5478 914.952 32.9954 915.006 33.6041C915.006 33.7115 915.006 33.8189 914.988 33.9264L911.085 61.372L941.718 33.1923C942.183 32.7089 942.828 32.4762 943.49 32.5657H946.158C947.143 32.5657 947.143 33.5504 946.498 34.0696L914.934 63.1623L939.176 93.2398C939.605 93.6873 939.265 94.7615 938.012 94.7615H935.881C935.165 94.7973 934.503 94.4572 934.109 93.8664L910.673 64.3798L906.591 93.5799C906.502 94.3139 905.857 94.8331 905.123 94.7436C905.123 94.7436 905.105 94.7436 905.088 94.7436H903.315C902.814 94.7973 902.366 94.4393 902.312 93.938C902.312 93.8127 902.313 93.7052 902.348 93.5799L910.781 33.9085L910.745 33.9264Z" fill="#EC1C24"/>
<path d="M956.898 33.7653C957.005 33.1387 957.507 32.6732 958.133 32.6016H960.174C960.711 32.6374 961.123 33.1029 961.087 33.64C961.087 33.6758 961.087 33.7116 961.087 33.7653L952.995 91.0198H978.114C979.17 91.0198 979.17 91.5569 979.098 92.1656L978.83 93.8306C978.722 94.4214 978.185 94.8511 977.594 94.8153H949.414C948.859 94.8153 948.43 94.3677 948.43 93.8127C948.43 93.759 948.43 93.7053 948.43 93.6516L956.898 33.7653Z" fill="#EC1C24"/>
<path d="M1000.47 64.5627L984.397 33.7692C984.057 33.053 984.397 32.6054 985.202 32.6054H987.691C988.085 32.5696 988.461 32.7845 988.658 33.1425L1002.87 60.4092L1024.88 33.1425C1025.2 32.8024 1025.65 32.6233 1026.11 32.6054H1029.05C1029.93 32.6054 1030.28 33.2321 1029.66 33.9303L1004.63 64.4732L1000.53 93.5838C1000.4 94.2284 999.865 94.7117 999.203 94.7475H997.43C996.929 94.8012 996.482 94.4432 996.428 93.9419C996.428 93.8166 996.428 93.7092 996.464 93.5838L1000.46 64.5448L1000.47 64.5627Z" fill="#EC1C24"/>
<path d="M36.6222 39.6305L32.7344 43.5156L46.769 57.5599L50.6568 53.6748L36.6222 39.6305Z" fill="#EC1C24"/>
<path d="M59.5972 39.9765L45.8438 54.6172L49.8498 58.3804L63.6032 43.7397L59.5972 39.9765Z" fill="#EC1C24"/>
<path d="M108.87 111.001H108.834C96.2302 111.001 36.2181 110.912 33.1208 110.912H32.8522C31.3841 110.751 30.2383 109.981 29.7012 108.781C28.8061 106.794 30.0235 104.753 30.5964 103.983L30.7933 103.733L70.2345 61.0156L111.699 104.467C112.093 105.058 113.292 107.134 112.29 109.086C112.003 109.641 111.09 110.966 108.942 111.019H108.906L108.87 111.001ZM36.7014 105.416C49.1801 105.416 89.7134 105.469 105.128 105.487L70.2882 69.0184L36.7014 105.398V105.416Z" fill="#EC1C24"/>
<path d="M95.2617 101.534H47.1016L67.2071 80.6411L61.9077 75.2164L65.8464 71.3672L95.2617 101.516V101.534ZM60.0278 96.0378H82.2101L71.0384 84.5798L60.0278 96.0378Z" fill="#EC1C24"/>
<path d="M18.7459 106.632L16.9376 105.754C6.96542 100.885 1.34376 94.5648 0.215846 86.9381C-1.73562 73.7971 10.6714 62.16 11.1906 61.6587L69.4303 0L128.637 61.4618C138.896 71.9531 143.049 81.5492 140.99 89.9816C138.197 101.404 125.038 105.844 124.483 106.023L122.872 106.56L69.5736 52.9935L18.7459 106.632ZM69.4841 45.0982L124.304 100.186C127.366 98.8258 134.079 95.1556 135.655 88.6389C137.213 82.1937 133.524 74.3342 124.68 65.2931L69.4662 7.96693L15.0578 65.5616C14.825 65.7944 4.11879 75.8918 5.65848 86.1503C6.44623 91.4318 10.4566 96.0508 17.5642 99.8821L69.502 45.0982H69.4841Z" fill="#EC1C24"/>
<path d="M62.7206 11.8387L58.875 15.7656L72.9073 29.5069L76.7528 25.58L62.7206 11.8387Z" fill="#EC1C24"/>
<path d="M81.2016 17.0094L66.9141 32.5469L70.9599 36.2672L85.2475 20.7297L81.2016 17.0094Z" fill="#EC1C24"/>
<path d="M67.2142 19.9736L46.9844 41.1797L50.9614 44.9735L71.1911 23.7674L67.2142 19.9736Z" fill="#EC1C24"/>
<path d="M42.8635 33.2177L39.0703 37.1953L53.2577 50.7245L57.0509 46.7469L42.8635 33.2177Z" fill="#EC1C24"/>
<path d="M88.783 23.875L73.9141 39.7031L77.9201 43.4663L92.789 27.6382L88.783 23.875Z" fill="#EC1C24"/>
<path d="M65.5246 27.0646L61.6797 30.9922L79.0791 48.0248L82.924 44.0972L65.5246 27.0646Z" fill="#EC1C24"/>
<path d="M85.271 33.0533L81.3359 36.8906L108.535 64.7817L112.47 60.9443L85.271 33.0533Z" fill="#EC1C24"/>
<path d="M85.4626 38.7596L72.3438 52.2734L76.2875 56.1018L89.4064 42.5879L85.4626 38.7596Z" fill="#EC1C24"/>
<path d="M92.134 44.8068L78.9219 59.2656L82.9794 62.9732L96.1915 48.5143L92.134 44.8068Z" fill="#EC1C24"/>
<path d="M58.495 34.2077L54.6797 38.1641L72.6446 55.4882L76.4599 51.5318L58.495 34.2077Z" fill="#EC1C24"/>
<path d="M16.5968 93.2011L14.6095 91.4287C12.3716 89.4235 11.172 86.8992 11.172 84.1242C11.1362 78.0013 16.7579 72.684 17.4024 72.0932L40.5694 48.0312L44.5261 51.8446L21.2338 76.0319C19.8731 77.303 16.6505 80.9553 16.6684 84.0883C16.6684 84.4106 16.7042 84.715 16.7758 85.0014L46.4417 53.7066L50.4342 57.4842L16.6147 93.1832L16.5968 93.2011Z" fill="#EC1C24"/>
<path d="M124.179 93.2431L86.0625 55.7896L89.9117 51.8688L124 85.3478C124.036 85.2046 124.054 85.0435 124.071 84.8823C124.215 83.271 123.606 80.4423 119.9 76.253L98.5949 54.6796L102.516 50.8125L123.928 72.4933C128.153 77.2556 129.997 81.6419 129.55 85.6164C129.084 89.6625 126.399 91.6856 126.094 91.9004L124.215 93.2252L124.179 93.2431Z" fill="#EC1C24"/>
<path d="M205.225 77.0764H183.705L181.145 83.0024C180.304 84.9717 179.892 86.6188 179.892 87.89C179.892 89.5908 180.572 90.8619 181.951 91.6675C182.757 92.1509 184.744 92.509 187.931 92.7417V94.4067H167.664V92.7417C169.848 92.4195 171.657 91.5064 173.053 90.0205C174.467 88.5345 176.204 85.473 178.263 80.8361L200.051 32.2109H200.911L222.878 82.1788C224.973 86.9053 226.692 89.8951 228.052 91.1126C229.073 92.0435 230.505 92.5806 232.367 92.7238V94.3888H202.898V92.7238H204.115C206.479 92.7238 208.144 92.4016 209.11 91.7392C209.773 91.2558 210.095 90.5754 210.095 89.6803C210.095 89.1432 210.006 88.5882 209.827 88.0153C209.773 87.7467 209.325 86.6188 208.484 84.6495L205.243 77.0585L205.225 77.0764ZM203.704 73.7464L194.627 52.7638L185.281 73.7464H203.704Z" fill="#231F20"/>
<path d="M264.376 44.4531L264.769 60.7451H263.283C262.585 56.6631 260.866 53.3689 258.145 50.8983C255.424 48.4097 252.47 47.1744 249.301 47.1744C246.848 47.1744 244.915 47.8368 243.482 49.1438C242.05 50.4507 241.334 51.9546 241.334 53.6733C241.334 54.7475 241.585 55.7143 242.086 56.5557C242.784 57.6836 243.894 58.7936 245.434 59.9036C246.562 60.6914 249.176 62.1057 253.258 64.1109C258.969 66.9217 262.836 69.5713 264.823 72.0778C266.792 74.5663 267.777 77.4309 267.777 80.6534C267.777 84.7354 266.184 88.2444 262.997 91.1984C259.81 94.1346 255.764 95.6026 250.876 95.6026C249.337 95.6026 247.887 95.4415 246.508 95.1372C245.147 94.8328 243.429 94.242 241.352 93.3647C240.206 92.8814 239.257 92.6486 238.505 92.6486C237.879 92.6486 237.216 92.8814 236.518 93.3647C235.82 93.8481 235.265 94.5822 234.817 95.5668H233.492V77.1265H234.817C235.873 82.3185 237.914 86.2751 240.922 88.9964C243.93 91.7176 247.188 93.0783 250.662 93.0783C253.347 93.0783 255.495 92.3443 257.089 90.8762C258.682 89.4081 259.488 87.7073 259.488 85.7559C259.488 84.6101 259.184 83.4822 258.575 82.408C257.966 81.3338 257.035 80.2954 255.782 79.3286C254.529 78.3618 252.327 77.0907 249.158 75.5331C244.718 73.3489 241.513 71.487 239.579 69.9473C237.628 68.4076 236.142 66.6889 235.086 64.7912C234.047 62.8934 233.51 60.7988 233.51 58.5251C233.51 54.6401 234.942 51.328 237.807 48.5888C240.671 45.8496 244.27 44.4889 248.621 44.4889C250.196 44.4889 251.736 44.6859 253.24 45.0618C254.368 45.3483 255.746 45.8854 257.357 46.6731C258.987 47.4609 260.115 47.8368 260.759 47.8368C261.404 47.8368 261.869 47.6399 262.227 47.2639C262.585 46.888 262.925 45.957 263.23 44.4889H264.304L264.376 44.4531Z" fill="#231F20"/>
<path d="M294.832 93.0799V94.4227H269.284V93.0799H270.913C272.327 93.0799 273.473 92.8293 274.332 92.328C274.959 91.9878 275.442 91.4149 275.765 90.5914C276.033 90.0185 276.158 88.4967 276.158 86.044V53.9077C276.158 51.4191 276.033 49.8436 275.765 49.217C275.496 48.5904 274.959 48.0533 274.153 47.5699C273.348 47.1045 272.255 46.8717 270.895 46.8717H269.266V45.5469H294.814V46.8717H293.185C291.77 46.8717 290.624 47.1224 289.765 47.6236C289.138 47.9638 288.655 48.5367 288.279 49.3603C288.01 49.9332 287.885 51.4549 287.885 53.9077V86.044C287.885 88.5325 288.028 90.108 288.297 90.7346C288.583 91.3612 289.121 91.8983 289.926 92.3817C290.732 92.8472 291.824 93.0799 293.185 93.0799H294.814H294.832Z" fill="#231F20"/>
<path d="M324.278 80.5066H307.019L304.96 85.2689C304.279 86.8623 303.957 88.1692 303.957 89.1897C303.957 90.5504 304.512 91.5708 305.622 92.2154C306.267 92.6092 307.86 92.8957 310.42 93.0747V94.4175H294.164V93.0747C295.919 92.8062 297.369 92.09 298.497 90.8905C299.625 89.7089 301.021 87.2383 302.668 83.5144L320.142 44.5391H320.822L338.439 84.6065C340.122 88.402 341.501 90.801 342.575 91.7857C343.398 92.5376 344.544 92.9673 346.03 93.0747V94.4175H322.398V93.0747H323.364C325.262 93.0747 326.587 92.8062 327.357 92.287C327.894 91.911 328.145 91.356 328.145 90.622C328.145 90.1923 328.073 89.7447 327.93 89.2792C327.876 89.0644 327.518 88.1692 326.856 86.5758L324.26 80.4887L324.278 80.5066ZM323.042 77.8391L315.756 61.01L308.254 77.8391H323.024H323.042Z" fill="#231F20"/>
<path d="M404.027 62.1061C409.81 63.4488 413.874 65.0959 416.201 66.9937C419.549 69.715 421.232 73.2598 421.232 77.5924C421.232 82.1756 419.388 85.9711 415.7 88.9609C411.171 92.5774 404.6 94.4035 395.971 94.4035H365.016V92.7385C367.826 92.7385 369.742 92.47 370.745 91.9508C371.747 91.4316 372.446 90.7513 372.857 89.9098C373.251 89.0684 373.466 87.0095 373.466 83.7153V44.1671C373.466 40.8729 373.269 38.7961 372.857 37.9367C372.446 37.0774 371.747 36.3971 370.727 35.8958C369.706 35.3945 367.809 35.1259 365.016 35.1259V33.4609H394.216C401.198 33.4609 406.14 34.0875 409.04 35.3229C411.94 36.5582 414.232 38.4201 415.915 40.8908C417.598 43.3614 418.439 45.9932 418.439 48.7682C418.439 51.7043 417.383 54.3182 415.253 56.6098C413.122 58.9014 409.38 60.7275 404.027 62.0703V62.1061ZM387.663 64.3977V83.948L387.628 86.1859C387.628 87.7972 388.039 89.0325 388.863 89.8561C389.686 90.6796 390.904 91.0914 392.533 91.0914C394.932 91.0914 397.134 90.5543 399.157 89.498C401.18 88.4417 402.72 86.8842 403.812 84.879C404.886 82.8559 405.441 80.6001 405.441 78.1116C405.441 75.265 404.779 72.7048 403.454 70.449C402.129 68.1932 400.321 66.5998 398.012 65.7046C395.702 64.8095 392.265 64.3798 387.681 64.3977H387.663ZM387.663 60.9066C391.924 60.9066 395.057 60.4232 397.081 59.4743C399.104 58.5076 400.643 57.1648 401.735 55.4282C402.81 53.6916 403.365 51.4716 403.365 48.7861C403.365 46.1006 402.828 43.8806 401.771 42.1619C400.715 40.4432 399.193 39.1363 397.206 38.2232C395.237 37.328 392.05 36.8984 387.681 36.9163V60.9066H387.663Z" fill="#231F20"/>
<path d="M440.39 72.1488V85.8448C440.39 88.4944 440.551 90.1594 440.873 90.8398C441.195 91.5201 441.768 92.0751 442.592 92.4869C443.415 92.8986 444.937 93.0956 447.175 93.0956V94.4383H422.164V93.0956C424.42 93.0956 425.96 92.8807 426.765 92.469C427.571 92.0572 428.126 91.5022 428.448 90.8219C428.77 90.1594 428.932 88.4944 428.932 85.8448V54.1381C428.932 51.4885 428.77 49.8235 428.448 49.1431C428.126 48.4628 427.553 47.9078 426.747 47.496C425.924 47.0843 424.402 46.8873 422.164 46.8873V45.5625H444.866C450.774 45.5625 455.106 45.9743 457.846 46.7799C460.585 47.6035 462.823 49.1073 464.541 51.3094C466.278 53.5115 467.137 56.0896 467.137 59.0436C467.137 62.6422 465.83 65.632 463.252 67.9773C461.587 69.4633 459.278 70.5733 456.306 71.3252L468.05 87.8678C469.59 90.0162 470.682 91.341 471.327 91.8602C472.311 92.6122 473.457 93.006 474.746 93.0777V94.4204H459.367L443.63 72.1488H440.426H440.39ZM440.39 48.1943V69.5886H442.449C445.797 69.5886 448.285 69.2843 449.95 68.6756C451.615 68.0669 452.904 66.9568 453.853 65.3635C454.802 63.7701 455.285 61.6754 455.285 59.1152C455.285 55.3914 454.408 52.6343 452.671 50.8619C450.935 49.0894 448.124 48.1943 444.257 48.1943H440.408H440.39Z" fill="#231F20"/>
<path d="M498.15 93.0799V94.4227H472.602V93.0799H474.231C475.645 93.0799 476.791 92.8293 477.65 92.328C478.277 91.9878 478.76 91.4149 479.083 90.5914C479.351 90.0185 479.476 88.4967 479.476 86.044V53.9077C479.476 51.4191 479.351 49.8436 479.083 49.217C478.814 48.5904 478.277 48.0533 477.489 47.5699C476.684 47.1045 475.591 46.8717 474.231 46.8717H472.602V45.5469H498.15V46.8717H496.52C495.106 46.8717 493.96 47.1224 493.101 47.6236C492.474 47.9638 491.991 48.5367 491.633 49.3603C491.364 49.9332 491.239 51.4549 491.239 53.9077V86.044C491.239 88.5325 491.382 90.108 491.651 90.7346C491.919 91.3612 492.474 91.8983 493.28 92.3817C494.086 92.8472 495.178 93.0799 496.538 93.0799H498.168H498.15Z" fill="#231F20"/>
<path d="M517.001 48.3788V68.2693H517.968C521.065 68.2693 523.303 67.3026 524.7 65.3511C526.096 63.3996 526.974 60.5351 527.367 56.7397H528.728V82.3234H527.367C527.081 79.5305 526.472 77.2567 525.541 75.4843C524.61 73.7119 523.536 72.5124 522.319 71.9037C521.101 71.295 519.311 70.9906 516.983 70.9906V84.7582C516.983 87.4437 517.091 89.0908 517.324 89.6995C517.556 90.3082 517.986 90.7916 518.613 91.1676C519.239 91.5614 520.242 91.7405 521.638 91.7405H524.557C529.122 91.7405 532.774 90.6842 535.531 88.5716C538.288 86.459 540.258 83.2364 541.457 78.9038H542.782L540.58 94.4438H498.346V93.1011H499.975C501.39 93.1011 502.535 92.8505 503.395 92.3492C504.021 92.009 504.505 91.4361 504.827 90.6126C505.096 90.0397 505.221 88.5179 505.221 86.0651V53.9288C505.221 51.7267 505.167 50.3661 505.042 49.8648C504.809 49.0234 504.362 48.3788 503.699 47.9134C502.786 47.233 501.533 46.9108 499.957 46.9108H498.328V45.5859H539.219V60.0338H537.859C537.161 56.5069 536.176 53.9647 534.923 52.4429C533.652 50.9032 531.879 49.7753 529.57 49.0592C528.227 48.6295 525.702 48.4147 521.996 48.4147H516.948L517.001 48.3788Z" fill="#231F20"/>
<path d="M563.44 48.3788V68.4484H564.836C567.003 68.4484 568.757 68.1261 570.136 67.4816C571.496 66.8371 572.66 65.745 573.609 64.2053C574.558 62.6656 575.184 60.5888 575.471 57.975H576.724V82.5203H575.471C575.005 77.8834 573.77 74.8219 571.747 73.3538C569.724 71.8679 567.414 71.1338 564.836 71.1338H563.44V86.083C563.44 88.5716 563.583 90.1471 563.852 90.7737C564.138 91.4003 564.675 91.9374 565.481 92.4208C566.286 92.8863 567.379 93.119 568.739 93.119H570.368V94.4617H544.82V93.119H546.45C547.864 93.119 549.01 92.8684 549.869 92.3671C550.496 92.0269 550.979 91.454 551.319 90.6305C551.588 90.0575 551.713 88.5358 551.713 86.083V53.9467C551.713 51.4582 551.57 49.8827 551.319 49.2561C551.051 48.6295 550.514 48.0924 549.708 47.609C548.902 47.1435 547.81 46.9108 546.45 46.9108H544.82V45.5859H586.034V59.6042H584.566C584.226 56.31 583.366 53.8751 581.988 52.2817C580.609 50.7063 578.604 49.5784 575.99 48.9338C574.54 48.5758 571.89 48.3967 567.987 48.3967H563.44V48.3788Z" fill="#231F20"/>
<path d="M612.3 93.0799V94.4227H586.752V93.0799H588.382C589.796 93.0799 590.942 92.8293 591.801 92.328C592.428 91.9878 592.893 91.4149 593.233 90.5914C593.502 90.0185 593.627 88.4967 593.627 86.044V53.9077C593.627 51.4191 593.502 49.8436 593.233 49.217C592.965 48.5904 592.428 48.0533 591.622 47.5699C590.816 47.1045 589.724 46.8717 588.364 46.8717H586.734V45.5469H612.282V46.8717H610.653C609.239 46.8717 608.093 47.1224 607.234 47.6236C606.607 47.9638 606.124 48.5367 605.748 49.3603C605.479 49.9332 605.354 51.4549 605.354 53.9077V86.044C605.354 88.5325 605.497 90.108 605.766 90.7346C606.052 91.3612 606.589 91.8983 607.395 92.3817C608.201 92.8472 609.293 93.0799 610.653 93.0799H612.282H612.3Z" fill="#231F20"/>
<path d="M629.414 45.5625L653.512 75.8548V54.8543C653.512 51.9181 653.1 49.9488 652.241 48.9104C651.095 47.5139 649.162 46.8515 646.44 46.8873V45.5625H662.589V46.8873C660.53 47.1559 659.134 47.496 658.435 47.9078C657.719 48.3375 657.182 49.0178 656.77 49.9667C656.377 50.9156 656.18 52.5448 656.18 54.8543V95.5304H654.962L621.931 54.8543V85.9164C621.931 88.7272 622.575 90.6249 623.864 91.6096C625.153 92.5943 626.621 93.0956 628.286 93.0956H629.432V94.4383H612.102V93.0956C614.787 93.0777 616.667 92.5227 617.723 91.4306C618.779 90.3564 619.299 88.5123 619.299 85.9164V51.4348L618.26 50.1457C617.222 48.8567 616.309 47.9973 615.521 47.5856C614.733 47.1738 613.588 46.941 612.102 46.9052V45.5804H629.432L629.414 45.5625Z" fill="#231F20"/>
<path d="M712.287 44.4554V61.6783H710.944C709.333 56.9698 706.916 53.3891 703.693 50.9364C700.471 48.4836 696.961 47.2662 693.13 47.2662C689.299 47.2662 686.434 48.2867 684.017 50.3456C681.582 52.4044 679.864 55.2689 678.861 58.9391C677.859 62.6093 677.339 66.3869 677.339 70.254C677.339 74.9446 677.894 79.0444 679.004 82.5714C680.114 86.0983 681.887 88.6943 684.357 90.3593C686.81 92.0243 689.746 92.8478 693.13 92.8478C694.312 92.8478 695.511 92.7225 696.747 92.4719C697.982 92.2212 699.253 91.8452 700.542 91.3798V81.2107C700.542 79.2951 700.417 78.0419 700.148 77.4869C699.88 76.9319 699.343 76.4127 698.519 75.9651C697.696 75.5175 696.693 75.2848 695.511 75.2848H694.258V73.942H717.998V75.2848C716.19 75.4101 714.936 75.6428 714.238 76.0188C713.522 76.3948 712.985 77.0035 712.609 77.8807C712.394 78.3283 712.287 79.4562 712.287 81.2286V91.3977C709.154 92.7941 705.913 93.8325 702.547 94.5486C699.164 95.2648 695.672 95.6049 692.038 95.6049C687.401 95.6049 683.552 94.9783 680.49 93.7072C677.429 92.454 674.725 90.789 672.38 88.7301C670.035 86.6712 668.209 84.3617 666.884 81.8015C665.201 78.4894 664.359 74.7835 664.359 70.6657C664.359 63.3254 666.937 57.113 672.112 52.0464C677.268 46.9798 683.767 44.4375 691.608 44.4375C694.043 44.4375 696.227 44.6344 698.161 45.0104C699.217 45.2073 700.936 45.7444 703.299 46.6575C705.662 47.5527 707.059 48.0002 707.507 48.0002C708.169 48.0002 708.796 47.7496 709.386 47.2662C709.959 46.7828 710.496 45.8519 710.962 44.4733H712.305L712.287 44.4554Z" fill="#231F20"/>
</g>
<defs>
<clipPath id="clip0_4859_8969">
<rect width="1030" height="111" fill="white"/>
</clipPath>
</defs>
</svg>
