<?xml version="1.0" encoding="UTF-8"?>
<svg id="Layer_1" xmlns="http://www.w3.org/2000/svg" version="1.1" viewBox="0 0 27 20">
  <!-- Generator: Adobe Illustrator 29.5.1, SVG Export Plug-In . SVG Version: 2.1.0 Build 141)  -->
  <defs>
    <style>
      .st0 {
        fill: none;
        stroke: #ec1c24;
        stroke-width: .5px;
      }

      .st1 {
        fill: #ec1c24;
      }
    </style>
  </defs>
  <path class="st0" d="M9.5,10.2"/>
  <rect class="st1" x="7.8" y="7" width="1" height="3.6" transform="translate(-3.8 8.4) rotate(-45)"/>
  <rect class="st1" x="8.8" y="8.4" width="3.6" height="1" transform="translate(-3.1 10.5) rotate(-46.8)"/>
  <g>
    <g>
      <path class="st1" d="M20.3,20h0c-2.3,0-13,0-13.6,0h0c-.3,0-.5-.2-.6-.4-.2-.4,0-.7.2-.9h0s7.1-7.7,7.1-7.7l7.4,7.8c0,.1.3.5.1.8,0,.1-.2.3-.6.3h0ZM7.4,18.9c2.2,0,9.5,0,12.3,0l-6.2-6.5-6,6.5Z"/>
      <path class="st1" d="M17.9,18.3h-8.6l3.6-3.7-.9-1,.7-.7,5.3,5.4ZM11.6,17.3h4l-2-2.1-2,2.1Z"/>
    </g>
    <path class="st1" d="M4.2,19.2l-.3-.2c-1.8-.9-2.8-2-3-3.4-.3-2.4,1.9-4.4,2-4.5L13.3,0l10.6,11c1.8,1.9,2.6,3.6,2.2,5.1-.5,2-2.9,2.8-3,2.9h-.3c0,0-9.6-9.5-9.6-9.5l-9.1,9.6ZM13.3,8.1l9.8,9.9c.5-.2,1.8-.9,2-2.1.3-1.2-.4-2.6-2-4.2L13.3,1.5,3.5,11.8s-2,1.9-1.7,3.7c.1.9.9,1.8,2.1,2.5l9.3-9.8Z"/>
    <rect class="st1" x="12.5" y="2" width="1" height="3.5" transform="translate(1.2 10.4) rotate(-45.6)"/>
    <rect class="st1" x="12.6" y="4.3" width="3.8" height="1" transform="translate(1.1 12.2) rotate(-47.4)"/>
    <rect class="st1" x="8.8" y="5.4" width="5.3" height="1" transform="translate(-.7 10.1) rotate(-46.4)"/>
    <rect class="st1" x="8.9" y="5.8" width="1" height="3.5" transform="translate(-2.6 9.2) rotate(-46.4)"/>
    <rect class="st1" x="13.8" y="5.6" width="3.9" height="1" transform="translate(.5 13.4) rotate(-46.8)"/>
    <rect class="st1" x="13.3" y="4.6" width="1" height="4.4" transform="translate(-.7 11.9) rotate(-45.6)"/>
    <rect class="st1" x="17.7" y="5.3" width="1" height="7" transform="translate(-1 15.2) rotate(-44.3)"/>
    <rect class="st1" x="13.6" y="8.1" width="3.4" height="1" transform="translate(-1.5 13.6) rotate(-45.9)"/>
    <rect class="st1" x="14.8" y="9.2" width="3.5" height="1" transform="translate(-1.8 15.4) rotate(-47.6)"/>
    <rect class="st1" x="12.1" y="5.9" width="1" height="4.5" transform="translate(-2 11.5) rotate(-46)"/>
    <path class="st1" d="M3.8,16.8l-.4-.3c-.4-.4-.6-.8-.6-1.3,0-1.1,1-2.1,1.1-2.2l4.2-4.3.7.7-4.2,4.3c-.2.2-.8.9-.8,1.4,0,0,0,.1,0,.2l5.3-5.6.7.7-6.1,6.4Z"/>
    <path class="st1" d="M23.1,16.8l-6.8-6.7.7-.7,6.1,6s0,0,0,0c0-.3,0-.8-.7-1.5l-3.8-3.9.7-.7,3.8,3.9c.8.9,1.1,1.6,1,2.4,0,.7-.6,1.1-.6,1.1l-.3.2Z"/>
  </g>
</svg>