<?xml version="1.0" encoding="UTF-8"?>
<svg id="Layer_1" xmlns="http://www.w3.org/2000/svg" version="1.1" viewBox="0 0 270 70">
  <!-- Generator: Adobe Illustrator 29.5.1, SVG Export Plug-In . SVG Version: 2.1.0 Build 141)  -->
  <defs>
    <style>
      .st0 {
        fill: none;
        stroke: #e2e2e2;
        stroke-miterlimit: 10;
        stroke-width: .8px;
      }

      .st1 {
        fill: #231f20;
      }

      .st2 {
        fill: #999a9c;
      }

      .st3 {
        fill: #ec1c24;
      }
    </style>
  </defs>
  <path class="st2" d="M61.8,41.2l.7,2.7c.2.6.3,1.1.4,1.7h0c0-.5.3-1.1.5-1.7l.9-2.7h.7l.8,2.6c.2.6.3,1.2.5,1.7h0c0-.6.2-1.1.4-1.7l.8-2.6h.9l-1.7,5.3h-.9l-.8-2.5c-.2-.6-.3-1.1-.5-1.7h0c0,.6-.3,1.2-.5,1.7l-.8,2.5h-.9l-1.6-5.3h1.1Z"/>
  <path class="st2" d="M69.9,41.2l.7,2.7c.2.6.3,1.1.4,1.7h0c0-.5.3-1.1.5-1.7l.8-2.7h.8l.8,2.6c.2.6.3,1.2.5,1.7h0c0-.5.2-1.1.4-1.7l.8-2.6h.9l-1.7,5.3h-.8l-.8-2.5c-.2-.6-.3-1.1-.5-1.7h0c0,.6-.3,1.2-.5,1.7l-.8,2.5h-.9l-1.6-5.3h1Z"/>
  <path class="st2" d="M78,41.2l.7,2.7c.2.6.3,1.1.4,1.7h0c0-.5.3-1.1.5-1.7l.9-2.7h.8l.8,2.6c.2.6.3,1.2.5,1.7h0c0-.5.2-1.1.4-1.7l.8-2.6h.9l-1.7,5.3h-1l-.7-2.5c-.2-.6-.3-1.1-.5-1.7h0c0,.6-.3,1.2-.5,1.7l-.8,2.5h-.9l-1.6-5.3h1Z"/>
  <path class="st2" d="M84.9,45.9c0-.4.2-.7.6-.7h0c.4,0,.7.3.7.6s-.3.7-.6.7c-.4,0-.7-.2-.8-.6h0Z"/>
  <path class="st2" d="M90.3,46.5v-.7h0c-.4.5-1,.8-1.6.8-.8,0-1.5-.5-1.6-1.4v-.2c0-1.3,1.1-2,3.2-2h0c0-.6-.4-1.1-1-1.2h-.2c-.5,0-1,0-1.4.4l-.2-.6c.5-.3,1.1-.5,1.7-.5,1.6,0,2,1.1,2,2.2v2c0,.4,0,.8,0,1.3h-.9ZM90.2,43.8c-1,0-2.2.2-2.2,1.2s.3.9.8.9h0c.6,0,1.1-.3,1.3-.9,0,0,0-.2,0-.3v-.9h-.1Z"/>
  <path class="st2" d="M92.5,45.5c.4.2.8.4,1.3.4s1-.3,1-.8-.3-.7-1-1c-.9-.3-1.4-.9-1.4-1.5,0-.9.8-1.6,1.7-1.6h0c.5,0,.9,0,1.3.3l-.2.7c-.3-.2-.7-.3-1.1-.3-.6,0-.9.3-.9.7s.3.6,1,.9c.9.3,1.4.8,1.4,1.6s-.7,1.6-2,1.6-1,0-1.5-.4l.3-.6Z"/>
  <path class="st2" d="M98,39.7c0,.3-.3.6-.7.5-.3,0-.5-.2-.5-.5s.2-.6.6-.6h0c.3,0,.6.3.6.6h0ZM96.9,46.5v-5.3h1v5.3h-1Z"/>
  <path class="st2" d="M102.4,46.5v-.7h0c-.4.5-1,.8-1.6.8-.8,0-1.5-.6-1.6-1.4h0c0-1.4,1.1-2.1,3.2-2.1h0c0-.7-.4-1.2-1-1.3h-.3c-.5,0-1,0-1.4.4l-.2-.6c.5-.3,1.1-.5,1.7-.5,1.6,0,2,1.1,2,2.2v2c0,.4,0,.8,0,1.3h-.8ZM102.2,43.8c-1,0-2.2.2-2.2,1.2s.3.9.8.9h0c.6,0,1.1-.3,1.3-.9,0,0,0-.2,0-.3v-.9Z"/>
  <path class="st2" d="M104.7,46.5v-7.7h.9v3.3h0c.4-.6,1.1-1,1.8-1,1.3,0,2.2,1.1,2.2,2.7s-1.2,2.8-2.4,2.8-1.4-.4-1.8-1h0v.9h-.7ZM105.7,44.4c0,0,0,.2,0,.3.2.7.8,1.1,1.4,1.1,1,0,1.6-.8,1.6-2s-.5-2-1.6-2-1.3.5-1.5,1.2c0,0,0,.3,0,.4v1Z"/>
  <path class="st2" d="M110.9,42.9v-1.6h.8v1h0c.2-.7.8-1.1,1.4-1.2h.3v.9h-.3c-.7,0-1.2.6-1.3,1.2v3.2h-.9v-3.5Z"/>
  <path class="st2" d="M115.5,39.7c0,.3-.3.6-.6.6s-.6-.3-.6-.6h0c0-.3.2-.6.6-.6h0c.3,0,.6.3.6.6h0ZM114.5,46.5v-5.3h1v5.3h-1Z"/>
  <path class="st2" d="M117.5,44c0,.9.6,1.7,1.5,1.8h.3c.5,0,1,0,1.4-.3l.2.7c-.6.2-1.2.3-1.8.3-1.3,0-2.5-.9-2.6-2.3v-.4c-.2-1.4.9-2.7,2.3-2.8h.2c1.2,0,2.2,1,2.2,2.3v.7h-3.7ZM120.3,43.3c0-.7-.4-1.4-1.2-1.5h0c-.8,0-1.4.7-1.5,1.5h2.8Z"/>
  <path class="st2" d="M122.5,46.5v-4.5h-.7v-.7h.7v-.3c0-1.2.7-2.2,1.9-2.3h.4c.5,0,.9,0,1.3.3l-.3.7c-.3-.2-.7-.3-1.1-.3-1,0-1.3.7-1.3,1.5v.3h3.1v5.3h-.9v-4.5h-2.1v4.5h-1Z"/>
  <path class="st2" d="M128.1,42.6v-1.4h.9v.9h0c.3-.6,1-1,1.7-1s1.9.4,1.9,2.2v3.1h-.9v-3c0-.8-.3-1.5-1.2-1.5s-1.1.4-1.3,1c0,0-.1.3-.1.4v3.2h-1v-3.9Z"/>
  <path class="st2" d="M138.6,41.2v4.4c.1.9-.2,1.7-.8,2.4-.5.4-1.2.7-1.9.6-.6,0-1.2,0-1.7-.4l.2-.7c.5.3,1,.4,1.5.4,1,0,1.7-.5,1.7-1.8v-.6h0c-.4.6-1,.9-1.7.9-1.3,0-2.3-1.2-2.2-2.4h0c-.2-1.5.8-2.7,2.2-2.9h.1c.7,0,1.3.3,1.6.9h0v-.8h1ZM137.6,43.3c0,0,0-.3-.1-.4-.2-.6-.7-1-1.3-1-.9,0-1.6.8-1.6,2s.5,1.9,1.6,1.9,1.1-.4,1.3-1c.1-.2.1-.3.1-.5v-1Z"/>
  <path class="st2" d="M139.8,45.9c0-.4.3-.6.7-.6s.6.3.6.7-.3.6-.7.6c-.3,0-.6-.3-.6-.7h0Z"/>
  <path class="st2" d="M146,46.3c-.5.2-1,.3-1.5.3-1.4,0-2.5-1-2.6-2.4v-.3c-.1-1.5,1.1-2.7,2.5-2.8h.3c.5,0,.9,0,1.3.3l-.2.7c-.3-.2-.7-.3-1.1-.3-1.1,0-2,.9-2,2s.9,2,2,2,.8,0,1.2-.3v.8Z"/>
  <path class="st2" d="M151.8,43.8c.1,1.4-.9,2.7-2.3,2.8h-.3c-1.4,0-2.5-1.1-2.5-2.5v-.2c-.1-1.4.9-2.7,2.3-2.8h.3c1.4,0,2.5,1.1,2.5,2.4v.3ZM147.6,43.8c0,1.2.7,2,1.6,2s1.6-.8,1.6-2-.4-2-1.6-2-1.6,1.1-1.6,2Z"/>
  <path class="st2" d="M153,42.6v-1.4h.8v.8h0c.3-.6,1-1,1.6-1s1.3.4,1.5,1h0c.1-.3.3-.5.6-.7.3-.3.7-.4,1.2-.4s1.7.5,1.7,2.3v3.1h-.9v-3c0-1-.4-1.6-1.1-1.6s-1,.4-1.1.9c0,.2-.1.3-.1.5v3.2h-.9v-3c0-.8-.4-1.4-1.1-1.4s-1,.4-1.2,1c0,.2-.1.3-.1.5v3.2h-.9v-4Z"/>
  <circle class="st0" cx="31.3" cy="33.7" r="19.4"/>
  <g>
    <rect class="st3" x="25.3" y="30" width="1" height="3.7" transform="translate(-14.9 27.6) rotate(-45)"/>
    <rect class="st3" x="26.4" y="31.4" width="3.7" height="1" transform="translate(-14.4 30.6) rotate(-46.8)"/>
    <g>
      <g>
        <path class="st3" d="M38.2,43.3h0c-2.3,0-13.4,0-13.9,0h0c-.3,0-.5-.2-.6-.4-.2-.4,0-.7.2-.9h0s7.3-7.9,7.3-7.9l7.6,8c0,.1.3.5.1.8,0,.1-.2.3-.6.4h0ZM24.9,42.3c2.3,0,9.8,0,12.6,0l-6.4-6.7-6.2,6.7Z"/>
        <path class="st3" d="M35.7,41.6h-8.9l3.7-3.8-1-1,.7-.7,5.4,5.6ZM29.2,40.6h4.1l-2.1-2.1-2,2.1Z"/>
      </g>
      <path class="st3" d="M21.6,42.5l-.3-.2c-1.8-.9-2.9-2.1-3.1-3.5-.4-2.4,1.9-4.6,2-4.7l10.7-11.4,10.9,11.3c1.9,1.9,2.7,3.7,2.3,5.2-.5,2.1-2.9,2.9-3,3h-.3c0,0-9.8-9.8-9.8-9.8l-9.4,9.9ZM30.9,31.2l10.1,10.1c.6-.3,1.8-.9,2.1-2.1.3-1.2-.4-2.6-2-4.3l-10.2-10.6-10,10.6s-2,1.9-1.7,3.8c.1,1,.9,1.8,2.2,2.5l9.6-10.1Z"/>
      <rect class="st3" x="30.1" y="24.9" width="1" height="3.6" transform="translate(-9.9 29.9) rotate(-45.6)"/>
      <rect class="st3" x="30.2" y="27.3" width="3.9" height="1" transform="translate(-10.1 32.7) rotate(-47.4)"/>
      <rect class="st3" x="26.3" y="28.4" width="5.4" height="1" transform="translate(-11.9 30) rotate(-46.4)"/>
      <rect class="st3" x="26.5" y="28.8" width="1" height="3.6" transform="translate(-13.8 29) rotate(-46.4)"/>
      <rect class="st3" x="31.5" y="28.6" width="4" height="1" transform="translate(-10.6 33.6) rotate(-46.8)"/>
      <rect class="st3" x="31" y="27.6" width="1" height="4.5" transform="translate(-11.8 31.4) rotate(-45.6)"/>
      <rect class="st3" x="35.5" y="28.3" width="1" height="7.2" transform="translate(-12 34.2) rotate(-44.3)"/>
      <rect class="st3" x="31.3" y="31.1" width="3.5" height="1" transform="translate(-12.7 33.3) rotate(-45.9)"/>
      <rect class="st3" x="32.5" y="32.3" width="3.6" height="1" transform="translate(-13.1 36) rotate(-47.6)"/>
      <rect class="st3" x="29.7" y="28.9" width="1" height="4.6" transform="translate(-13.2 31.3) rotate(-46)"/>
      <path class="st3" d="M21.2,40.1l-.4-.3c-.4-.4-.6-.8-.6-1.3,0-1.1,1-2.1,1.1-2.2l4.3-4.4.7.7-4.3,4.5c-.3.2-.8.9-.8,1.5,0,0,0,.1,0,.2l5.5-5.8.7.7-6.2,6.6Z"/>
      <path class="st3" d="M41,40.1l-7-6.9.7-.7,6.3,6.2s0,0,0,0c0-.3,0-.8-.8-1.6l-3.9-4,.7-.7,3.9,4c.8.9,1.1,1.7,1,2.4,0,.7-.6,1.1-.6,1.2l-.3.2Z"/>
    </g>
  </g>
  <g>
    <path class="st1" d="M70.5,30h-5.6l-.7,1.6c-.2.5-.3.9-.3,1.3s.2.8.5,1c.2.1.7.2,1.6.3v.4h-5.3v-.4c.6,0,1-.3,1.4-.7.4-.4.8-1.2,1.4-2.4l5.7-12.7h.2l5.8,13.1c.5,1.2,1,2,1.4,2.3.3.2.6.4,1.1.4v.4h-7.7v-.4h.3c.6,0,1.1,0,1.3-.3.2-.1.3-.3.3-.5s0-.3,0-.4c0,0-.1-.4-.4-.9l-.8-2ZM70.1,29.1l-2.4-5.5-2.4,5.5h4.8Z"/>
    <g>
      <path class="st1" d="M86,21.4v4.3c.1,0-.3,0-.3,0-.2-1.1-.6-1.9-1.3-2.6-.7-.7-1.5-1-2.3-1s-1.2.2-1.5.5c-.4.3-.6.7-.6,1.2s0,.5.2.8c.2.3.5.6.9.9.3.2,1,.6,2,1.1,1.5.7,2.5,1.4,3,2.1.5.7.8,1.4.8,2.2s-.4,2-1.3,2.8c-.8.8-1.9,1.2-3.2,1.2s-.8,0-1.1-.1c-.4,0-.8-.2-1.4-.5-.3-.1-.6-.2-.7-.2s-.3,0-.5.2c-.2.1-.3.3-.4.6h-.3v-4.8h.3c.3,1.4.8,2.4,1.6,3.1.8.7,1.6,1.1,2.6,1.1s1.3-.2,1.7-.6c.4-.4.6-.8.6-1.3s0-.6-.2-.9c-.2-.3-.4-.6-.7-.8-.3-.3-.9-.6-1.7-1-1.2-.6-2-1.1-2.5-1.5-.5-.4-.9-.9-1.2-1.4-.3-.5-.4-1-.4-1.6,0-1,.4-1.9,1.1-2.6.7-.7,1.7-1.1,2.8-1.1s.8,0,1.2.2c.3,0,.7.2,1.1.4.4.2.7.3.9.3s.3,0,.4-.2c0-.1.2-.3.3-.7h.3Z"/>
      <path class="st1" d="M93.9,34.2v.3h-6.7v-.3h.4c.4,0,.7,0,.9-.2.2,0,.3-.2.4-.5,0-.2.1-.5.1-1.2v-8.4c0-.7,0-1.1-.1-1.2,0-.2-.2-.3-.4-.4-.2-.1-.5-.2-.9-.2h-.4v-.3h6.7v.3h-.4c-.4,0-.7,0-.9.2-.2,0-.3.2-.4.5,0,.2-.1.5-.1,1.2v8.4c0,.7,0,1.1.1,1.2,0,.2.2.3.4.4.2.1.5.2.9.2h.4Z"/>
      <path class="st1" d="M101.7,30.9h-4.5l-.5,1.2c-.2.4-.3.8-.3,1s.1.6.4.8c.2.1.6.2,1.3.2v.3h-4.3v-.3c.5,0,.8-.3,1.1-.6.3-.3.7-1,1.1-1.9l4.6-10.2h.2l4.6,10.5c.4,1,.8,1.6,1.1,1.9.2.2.5.3.9.3v.3h-6.2v-.3h.3c.5,0,.8,0,1-.2.1-.1.2-.2.2-.4s0-.2,0-.3c0,0-.1-.3-.3-.7l-.7-1.6ZM101.3,30.2l-1.9-4.4-2,4.4h3.9Z"/>
    </g>
    <path class="st1" d="M122.6,26.1c1.5.4,2.6.8,3.2,1.3.9.7,1.3,1.6,1.3,2.8s-.5,2.2-1.4,3c-1.2.9-2.9,1.4-5.2,1.4h-8.1v-.4c.7,0,1.2,0,1.5-.2.3-.1.4-.3.6-.5.1-.2.2-.8.2-1.6v-10.4c0-.9,0-1.4-.2-1.6-.1-.2-.3-.4-.6-.5-.3-.1-.8-.2-1.5-.2v-.4h7.7c1.8,0,3.1.2,3.9.5.8.3,1.4.8,1.8,1.5.4.6.7,1.3.7,2.1s-.3,1.5-.8,2.1c-.6.6-1.5,1.1-2.9,1.4ZM118.3,26.7v5.7c0,.4,0,.7.3,1,.2.2.5.3,1,.3.6,0,1.2-.1,1.7-.4.5-.3.9-.7,1.2-1.2.3-.5.4-1.1.4-1.8s-.2-1.4-.5-2c-.3-.6-.8-1-1.4-1.2-.6-.2-1.5-.3-2.7-.3ZM118.3,25.7c1.1,0,1.9-.1,2.5-.4.5-.3.9-.6,1.2-1.1.3-.5.4-1,.4-1.7s-.1-1.3-.4-1.7c-.3-.5-.7-.8-1.2-1-.5-.2-1.4-.3-2.5-.3v6.3Z"/>
    <g>
      <path class="st1" d="M132.1,28.7v3.6c0,.7,0,1.1.1,1.3,0,.2.2.3.4.4.2.1.6.2,1.2.2v.3h-6.6v-.3c.6,0,1,0,1.2-.2.2-.1.4-.3.4-.4,0-.2.1-.6.1-1.3v-8.3c0-.7,0-1.1-.1-1.3,0-.2-.2-.3-.4-.4-.2-.1-.6-.2-1.2-.2v-.3h5.9c1.5,0,2.7.1,3.4.3.7.2,1.3.6,1.8,1.2.5.6.7,1.3.7,2s-.3,1.7-1,2.3c-.4.4-1,.7-1.8.9l3.1,4.3c.4.6.7.9.9,1,.3.2.6.3.9.3v.3h-4l-4.1-5.8h-.8ZM132.1,22.4v5.6h.5c.9,0,1.5,0,2-.2.4-.2.8-.5,1-.9.2-.4.4-1,.4-1.6,0-1-.2-1.7-.7-2.2-.5-.5-1.2-.7-2.2-.7h-1Z"/>
      <path class="st1" d="M147.2,34.2v.3h-6.7v-.3h.4c.4,0,.7,0,.9-.2.2,0,.3-.2.4-.5,0-.2.1-.5.1-1.2v-8.4c0-.7,0-1.1-.1-1.2,0-.2-.2-.3-.4-.4-.2-.1-.5-.2-.9-.2h-.4v-.3h6.7v.3h-.4c-.4,0-.7,0-.9.2-.2,0-.3.2-.4.5,0,.2-.1.5-.1,1.2v8.4c0,.7,0,1.1.1,1.2,0,.2.2.3.4.4.2.1.5.2.9.2h.4Z"/>
      <path class="st1" d="M152.2,22.5v5.2h.3c.8,0,1.4-.3,1.8-.8.4-.5.6-1.3.7-2.3h.4v6.7h-.4c0-.7-.2-1.3-.5-1.8-.2-.5-.5-.8-.8-.9-.3-.2-.8-.2-1.4-.2v3.6c0,.7,0,1.1,0,1.3,0,.2.2.3.3.4.2.1.4.2.8.2h.8c1.2,0,2.2-.3,2.9-.8.7-.6,1.2-1.4,1.6-2.5h.3l-.6,4.1h-11.1v-.3h.4c.4,0,.7,0,.9-.2.2,0,.3-.2.4-.5,0-.2.1-.5.1-1.2v-8.4c0-.6,0-.9,0-1.1,0-.2-.2-.4-.4-.5-.2-.2-.6-.3-1-.3h-.4v-.3h10.7v3.8h-.4c-.2-.9-.4-1.6-.8-2-.3-.4-.8-.7-1.4-.9-.4-.1-1-.2-2-.2h-1.3Z"/>
      <path class="st1" d="M164.4,22.5v5.3h.4c.6,0,1,0,1.4-.3.4-.2.7-.5.9-.9.2-.4.4-.9.5-1.6h.3v6.4h-.3c-.1-1.2-.4-2-1-2.4-.5-.4-1.1-.6-1.8-.6h-.4v3.9c0,.7,0,1.1.1,1.2,0,.2.2.3.4.4.2.1.5.2.9.2h.4v.3h-6.7v-.3h.4c.4,0,.7,0,.9-.2.2,0,.3-.2.4-.5,0-.2.1-.5.1-1.2v-8.4c0-.7,0-1.1-.1-1.2,0-.2-.2-.3-.4-.4-.2-.1-.5-.2-.9-.2h-.4v-.3h10.8v3.7h-.4c0-.9-.3-1.5-.7-1.9-.4-.4-.9-.7-1.6-.9-.4,0-1.1-.1-2.1-.1h-1.2Z"/>
      <path class="st1" d="M177.2,34.2v.3h-6.7v-.3h.4c.4,0,.7,0,.9-.2.2,0,.3-.2.4-.5,0-.2.1-.5.1-1.2v-8.4c0-.7,0-1.1-.1-1.2,0-.2-.2-.3-.4-.4-.2-.1-.5-.2-.9-.2h-.4v-.3h6.7v.3h-.4c-.4,0-.7,0-.9.2-.2,0-.3.2-.4.5,0,.2-.1.5-.1,1.2v8.4c0,.7,0,1.1.1,1.2,0,.2.2.3.4.4.2.1.5.2.9.2h.4Z"/>
      <path class="st1" d="M181.6,21.7l6.3,7.9v-5.5c0-.8-.1-1.3-.3-1.6-.3-.4-.8-.5-1.5-.5v-.3h4.2v.3c-.5,0-.9.2-1.1.3-.2.1-.3.3-.4.5-.1.2-.2.7-.2,1.3v10.7h-.3l-8.7-10.7v8.1c0,.7.2,1.2.5,1.5.3.3.7.4,1.2.4h.3v.3h-4.5v-.3c.7,0,1.2-.2,1.5-.4.3-.3.4-.8.4-1.4v-9l-.3-.3c-.3-.3-.5-.6-.7-.7-.2-.1-.5-.2-.9-.2v-.3h4.5Z"/>
      <path class="st1" d="M203.4,21.4v4.5h-.4c-.4-1.2-1.1-2.2-1.9-2.8-.8-.6-1.8-1-2.8-1s-1.8.3-2.4.8c-.6.5-1.1,1.3-1.4,2.3-.3,1-.4,2-.4,3s.1,2.3.4,3.2c.3.9.8,1.6,1.4,2,.6.4,1.4.7,2.3.7s.6,0,.9,0c.3,0,.7-.2,1-.3v-2.7c0-.5,0-.8-.1-1,0-.1-.2-.3-.4-.4-.2-.1-.5-.2-.8-.2h-.3v-.3h6.2v.3c-.5,0-.8,0-1,.2-.2,0-.3.3-.4.5,0,.1,0,.4,0,.9v2.7c-.8.4-1.7.6-2.6.8-.9.2-1.8.3-2.8.3s-2.2-.2-3-.5c-.8-.3-1.5-.8-2.1-1.3-.6-.5-1.1-1.1-1.4-1.8-.4-.9-.7-1.8-.7-2.9,0-1.9.7-3.6,2-4.9,1.4-1.3,3.1-2,5.1-2s1.2,0,1.7.2c.3,0,.7.2,1.3.4.6.2,1,.4,1.1.4.2,0,.3,0,.5-.2.2-.1.3-.4.4-.7h.4Z"/>
    </g>
  </g>
</svg>