<svg width="20" height="20" viewBox="0 0 20 20" fill="none" xmlns="http://www.w3.org/2000/svg">
<g clip-path="url(#clip0_4895_11256)">
<path d="M20 17.0682V18.0015C20 19.1015 19.1 20.0015 18 20.0015H2C0.9 20.0015 0 19.1015 0 18.0015V17.0682C0 14.6348 2.83333 13.1682 5.5 12.0015C5.6 11.9682 5.66667 11.9348 5.76667 11.8682C5.96667 11.7682 6.2 11.7682 6.4 11.9015C7.46667 12.6015 8.7 13.0015 10 13.0015C11.3 13.0015 12.5333 12.6015 13.6 11.9348C13.8 11.8015 14.0333 11.8015 14.2333 11.9015C14.3333 11.9348 14.4 11.9682 14.5 12.0348C17.1667 13.1682 20 14.6348 20 17.0682Z" fill="white"/>
<path d="M9.99792 11C12.7409 11 14.9646 8.53757 14.9646 5.5C14.9646 2.46243 12.7409 0 9.99792 0C7.2549 0 5.03125 2.46243 5.03125 5.5C5.03125 8.53757 7.2549 11 9.99792 11Z" fill="white"/>
</g>
<defs>
<clipPath id="clip0_4895_11256">
<rect width="20" height="20" fill="white"/>
</clipPath>
</defs>
</svg>
