<svg width="20" height="20" viewBox="0 0 20 20" fill="none" xmlns="http://www.w3.org/2000/svg">
<g clip-path="url(#clip0_4895_11267)">
<path fill-rule="evenodd" clip-rule="evenodd" d="M0 0H20V20H0V0ZM4.74372 6C4.33166 6 4 6.33501 4 6.74707C4 7.15913 4.33166 7.49414 4.74372 7.49414C5.15578 7.49414 5.49079 7.15913 5.49079 6.74707C5.49079 6.33501 5.15243 6 4.74372 6ZM7.03853 6H16V7.49414H7.03853V6ZM7.03853 8.98827H16V10.4824H7.03853V8.98827ZM16 11.9732H7.03853V13.4673H16V11.9732ZM4 9.73534C4 9.32328 4.33166 8.98827 4.74372 8.98827C5.15578 8.98827 5.49079 9.32328 5.49079 9.73534C5.49079 10.1474 5.15243 10.4824 4.74372 10.4824C4.33501 10.4824 4 10.1474 4 9.73534ZM4.74372 11.9732C4.33166 11.9732 4 12.3082 4 12.7203C4 13.1323 4.33166 13.4673 4.74372 13.4673C5.15578 13.4673 5.49079 13.1323 5.49079 12.7203C5.49079 12.3082 5.15243 11.9732 4.74372 11.9732Z" fill="white"/>
</g>
<defs>
<clipPath id="clip0_4895_11267">
<rect width="20" height="20" fill="white"/>
</clipPath>
</defs>
</svg>
