<svg width="35" height="30" viewBox="0 0 35 30" fill="none" xmlns="http://www.w3.org/2000/svg">
<g clip-path="url(#clip0_4895_11451)">
<mask id="mask0_4895_11451" style="mask-type:luminance" maskUnits="userSpaceOnUse" x="0" y="0" width="35" height="30">
<path d="M35 0H0V30H35V0Z" fill="white"/>
</mask>
<g mask="url(#mask0_4895_11451)">
<path d="M-0.000450884 20.6024C0.0995491 18.4024 -0.200451 15.6024 0.199549 12.9024C0.999549 6.60236 6.59955 0.902363 12.9995 0.00236289C14.3995 -0.197637 15.1995 0.502363 15.1995 1.90236C15.1995 2.40236 15.1995 2.90236 15.1995 3.30236C15.1995 4.80236 14.8995 5.20236 13.3995 5.50236C11.3995 5.90236 9.49955 7.00236 8.09955 8.50236C6.69955 10.0024 5.79955 12.0024 5.59955 14.0024C5.49955 14.7024 5.59955 14.9024 6.39955 14.9024C8.69955 14.8024 10.9995 14.9024 13.2995 14.9024C14.5995 14.9024 15.1995 15.4024 15.1995 16.8024C15.1995 20.6024 15.1995 24.3024 15.1995 28.1024C15.1995 29.5024 14.5995 30.0024 13.1995 30.0024H1.99955C0.599549 30.0024 -0.000450884 29.5024 -0.000450884 28.1024C-0.000450884 25.7024 -0.000450884 23.4024 -0.000450884 20.6024Z" fill="#CCE7FF"/>
<path d="M19.7964 20.5998C19.8964 18.2998 19.5964 15.4998 19.9964 12.7998C20.4964 9.5998 21.9964 6.6998 24.2964 4.3998C26.5964 2.0998 29.5964 0.599798 32.7964 0.0997983C34.1964 -0.200202 34.9964 0.499798 34.9964 1.8998C34.9964 4.2998 35.5964 4.9998 32.1964 5.7998C28.3964 6.6998 25.6964 10.2998 25.3964 14.1998C25.2964 14.8998 25.4964 14.9998 25.9964 14.9998C28.2964 14.9998 30.6964 14.9998 32.9964 14.9998C34.3964 14.9998 34.9964 15.4998 34.9964 16.8998C34.9964 20.5998 34.9964 24.3998 34.9964 28.1998C34.9964 29.4998 34.3964 30.0998 33.0964 30.0998C29.2964 30.0998 25.4964 30.0998 21.6964 30.0998C20.3964 30.0998 19.7964 29.4998 19.7964 28.1998C19.7964 25.7998 19.7964 23.3998 19.7964 20.5998Z" fill="#CCE7FF"/>
</g>
</g>
<defs>
<clipPath id="clip0_4895_11451">
<rect width="35" height="30" fill="white"/>
</clipPath>
</defs>
</svg>
