<svg width="22" height="16" viewBox="0 0 22 16" fill="none" xmlns="http://www.w3.org/2000/svg">
<g clip-path="url(#clip0_4895_11260)">
<path d="M6.05032 4.17215H17.3786V3.42954C17.3786 2.81519 16.9023 2.31561 16.3166 2.31561H11.6437V1.66751C11.6437 0.742616 10.9292 0 10.0538 0H7.33762C6.91281 0 6.51375 0.175527 6.21123 0.492827C5.90872 0.810127 5.74137 1.22869 5.74137 1.67426V2.32236H1.06202C0.476302 2.32236 0 2.82194 0 3.43629V13.3873L3.57226 5.79916C4.00351 4.87426 5.07197 4.1789 6.05676 4.1789L6.05032 4.17215ZM6.79696 1.66751C6.79696 1.51899 6.85489 1.37722 6.95143 1.27595C7.04798 1.16793 7.18315 1.11392 7.32475 1.11392H10.041C10.337 1.11392 10.5688 1.36371 10.5688 1.67426V2.32236H6.79052V1.67426L6.79696 1.66751Z" fill="white"/>
<path d="M21.3054 5.28906H6.05086C5.46513 5.28906 4.77643 5.74138 4.51897 6.28822L0.418907 15.0038C0.161447 15.5507 0.425344 16.003 1.01107 16.003H16.2656C16.8513 16.003 17.54 15.5574 17.7975 15.0038L21.8976 6.28822C22.155 5.74138 21.8911 5.28906 21.3054 5.28906Z" fill="white"/>
</g>
<defs>
<clipPath id="clip0_4895_11260">
<rect width="22" height="16" fill="white"/>
</clipPath>
</defs>
</svg>
