<svg width="286" height="26" viewBox="0 0 286 26" fill="none" xmlns="http://www.w3.org/2000/svg">
<g clip-path="url(#clip0_3654_2658)">
<path d="M9.35516 19.6172L17.7198 19.7023L17.473 25.832L5.00977 25.6646L9.35516 19.6172Z" fill="#BB101F"/>
<path d="M28.4965 19.6172L20.1348 19.7023L20.3786 25.832L32.8448 25.6646L28.4965 19.6172Z" fill="#BB101F"/>
<path d="M32.6748 25.6827L18.4486 12.0045L4.92767 25.7452C4.92767 25.7452 -3.40174 24.6498 1.5959 17.595L18.5045 0.199219L35.2397 16.9763C35.2397 16.9763 42.0325 22.3426 32.6748 25.6856" fill="#9B151E"/>
<path d="M41.8083 24.7003L53.4342 0.397293C53.5459 0.18162 53.7339 0 54.0688 0H54.442C54.8151 0 54.965 0.18162 55.0766 0.397293L66.5909 24.7003C66.8142 25.1685 66.5174 25.6396 65.9563 25.6396H62.7038C62.1426 25.6396 61.8812 25.4239 61.6197 24.916L59.7863 21.0168H48.607L46.7736 24.916C46.6238 25.2764 46.2888 25.6396 45.6895 25.6396H42.437C41.8759 25.6396 41.5762 25.1714 41.8024 24.7003H41.8083ZM57.9588 17.0098L54.2187 9.0668H54.107L50.4433 17.0098H57.9588Z" fill="#1A171B"/>
<path d="M67.3399 22.1008L68.6855 19.8618C68.9852 19.3567 69.6198 19.3567 69.9577 19.6093C70.1457 19.7171 73.1719 21.8483 75.6047 21.8483C77.5497 21.8483 79.0069 20.6195 79.0069 19.0672C79.0069 17.2255 77.3998 15.9627 74.259 14.7339C70.7451 13.3604 67.2312 11.1952 67.2312 6.93277C67.2312 3.71753 69.6991 0 75.6428 0C79.4565 0 82.371 1.87863 83.1202 2.42065C83.4934 2.63632 83.605 3.25213 83.3435 3.61253L81.9215 5.66994C81.6218 6.10413 81.0606 6.39358 80.6141 6.10413C80.3144 5.92251 77.4733 4.11766 75.4166 4.11766C73.36 4.11766 72.126 5.49116 72.126 6.64615C72.126 8.34316 73.5098 9.49814 76.539 10.69C80.1645 12.0976 84.3542 14.1919 84.3542 18.8516C84.3542 22.5719 81.0254 26.0028 75.7545 26.0028C71.0448 26.0028 68.2771 23.8716 67.5309 23.1849C67.193 22.8614 67.0079 22.6798 67.3428 22.1008H67.3399Z" fill="#1A171B"/>
<path d="M88.0156 1.04612C88.0156 0.685723 88.3506 0.359375 88.7266 0.359375H92.2024C92.5755 0.359375 92.9134 0.682885 92.9134 1.04612V24.9518C92.9134 25.3122 92.5784 25.6386 92.2024 25.6386H88.7266C88.3535 25.6386 88.0156 25.3151 88.0156 24.9518V1.04612Z" fill="#1A171B"/>
<path d="M95.1901 24.7003L106.819 0.397293C106.931 0.18162 107.119 0 107.454 0H107.827C108.2 0 108.35 0.18162 108.461 0.397293L119.976 24.7003C120.199 25.1685 119.902 25.6396 119.341 25.6396H116.089C115.527 25.6396 115.266 25.4239 115.004 24.916L113.171 21.0168H101.992L100.158 24.916C100.009 25.2764 99.6736 25.6396 99.0742 25.6396H95.8218C95.2606 25.6396 94.961 25.1714 95.1872 24.7003H95.1901ZM111.344 17.0098L107.603 9.0668H107.492L103.828 17.0098H111.344Z" fill="#1A171B"/>
<path d="M129.397 1.04612C129.397 0.685723 129.697 0.359375 130.108 0.359375H138.67C143.118 0.359375 146.559 3.24826 146.559 7.03958C146.559 9.82063 144.202 11.9859 142.445 12.7805C144.426 13.3934 147.305 15.3458 147.305 18.6661C147.305 22.71 143.715 25.6357 139.155 25.6357H130.106C129.694 25.6357 129.395 25.3122 129.395 24.949V1.04612H129.397ZM138.22 10.9756C140.127 10.9756 141.435 9.53117 141.435 7.72632C141.435 5.92148 140.127 4.65582 138.22 4.65582H134.219V10.9756H138.22ZM138.743 21.3762C140.612 21.3762 142.108 19.9686 142.108 18.09C142.108 16.2114 140.239 14.9485 138.294 14.9485H134.219V21.3762H138.743Z" fill="#1A171B"/>
<path d="M151.342 1.04612C151.342 0.685723 151.642 0.359375 152.053 0.359375H162.744C167.231 0.359375 170.895 3.82718 170.895 8.12362C170.895 11.4467 168.615 14.154 165.362 15.4168L170.483 24.5886C170.745 25.0568 170.483 25.6357 169.849 25.6357H165.923C165.586 25.6357 165.4 25.4541 165.324 25.3122L160.35 15.7431H156.201V24.9518C156.201 25.3122 155.866 25.6386 155.49 25.6386H152.05C151.639 25.6386 151.339 25.3151 151.339 24.9518V1.04612H151.342ZM162.333 11.8809C164.313 11.8809 166.035 10.2208 166.035 8.1974C166.035 6.28472 164.316 4.69555 162.333 4.69555H156.24V11.8809H162.333Z" fill="#1A171B"/>
<path d="M175.117 1.04612C175.117 0.685723 175.452 0.359375 175.828 0.359375H179.304C179.677 0.359375 180.015 0.682885 180.015 1.04612V24.9518C180.015 25.3122 179.677 25.6386 179.304 25.6386H175.828C175.455 25.6386 175.117 25.3151 175.117 24.9518V1.04612Z" fill="#1A171B"/>
<path d="M185.697 1.04612C185.697 0.685723 185.997 0.359375 186.408 0.359375H201.625C202.036 0.359375 202.336 0.682885 202.336 1.04612V4.00596C202.336 4.36636 202.036 4.69271 201.625 4.69271H190.557V10.6152H199.791C200.164 10.6152 200.502 10.9387 200.502 11.302V14.2987C200.502 14.696 200.167 14.9854 199.791 14.9854H190.557V21.3052H201.625C202.036 21.3052 202.336 21.6287 202.336 21.992V24.9518C202.336 25.3122 202.036 25.6386 201.625 25.6386H186.408C185.997 25.6386 185.697 25.3151 185.697 24.9518V1.04612Z" fill="#1A171B"/>
<path d="M206.558 1.04612C206.558 0.685723 206.857 0.359375 207.269 0.359375H222.485C222.896 0.359375 223.196 0.682885 223.196 1.04612V4.00596C223.196 4.36636 222.896 4.69271 222.485 4.69271H211.417V11.4807H220.652C221.025 11.4807 221.363 11.8043 221.363 12.1675V15.1273C221.363 15.4877 221.028 15.8141 220.652 15.8141H211.417V24.949C211.417 25.3094 211.082 25.6357 210.706 25.6357H207.266C206.854 25.6357 206.555 25.3122 206.555 24.949V1.04612H206.558Z" fill="#1A171B"/>
<path d="M226.521 1.04612C226.521 0.685723 226.856 0.359375 227.232 0.359375H230.708C231.081 0.359375 231.419 0.682885 231.419 1.04612V24.9518C231.419 25.3122 231.081 25.6386 230.708 25.6386H227.232C226.859 25.6386 226.521 25.3151 226.521 24.9518V1.04612Z" fill="#1A171B"/>
<path d="M237.102 0.649858C237.102 0.289456 237.436 0 237.813 0H238.747L254.301 15.9627H254.339V1.04715C254.339 0.68675 254.639 0.360402 255.05 0.360402H258.491C258.864 0.360402 259.202 0.683912 259.202 1.04715V25.3501C259.202 25.7105 258.867 26 258.491 26H257.595L241.967 9.42436H241.929V24.9528C241.929 25.3132 241.629 25.6396 241.218 25.6396H237.816C237.442 25.6396 237.105 25.3161 237.105 24.9528V0.649858H237.102Z" fill="#1A171B"/>
<path d="M276.43 0C279.794 0 283.011 1.26282 285.553 3.35713C285.852 3.64658 285.888 4.08077 285.591 4.36739L283.273 6.71425C282.973 7.00371 282.638 7.00371 282.3 6.71425C280.693 5.34075 278.71 4.61995 276.653 4.61995C271.979 4.61995 268.28 8.48505 268.28 12.9972C268.28 17.5093 271.982 21.2665 276.691 21.2665C278.786 21.2665 280.393 20.6536 281.14 20.3641V17.2936H278.149C277.737 17.2936 277.438 17.0041 277.438 16.6437V13.7917C277.438 13.3945 277.737 13.105 278.149 13.105H285.326C285.699 13.105 285.999 13.4285 285.999 13.7917V23.0373C285.999 23.3268 285.849 23.5056 285.699 23.6162C285.699 23.6162 281.848 25.9631 276.427 25.9631C268.988 25.9631 263.006 20.2591 263.006 13.0341C263.006 5.80899 268.988 0 276.43 0Z" fill="#1A171B"/>
</g>
<defs>
<clipPath id="clip0_3654_2658">
<rect width="286" height="26" fill="white"/>
</clipPath>
</defs>
</svg>
