<svg width="269" height="36" viewBox="0 0 269 36" fill="none" xmlns="http://www.w3.org/2000/svg">
<g clip-path="url(#clip0_3654_2595)">
<path d="M12.2808 25.3867L23.2619 25.4969L22.9379 33.43L6.57617 33.2133L12.2808 25.3867Z" fill="#BB101F"/>
<path d="M37.4098 25.3867L26.4326 25.4969L26.7528 33.43L43.1183 33.2133L37.4098 25.3867Z" fill="#BB101F"/>
<path d="M42.8945 33.2388L24.2186 15.5363L6.46834 33.3196C6.46834 33.3196 -4.46646 31.902 2.09442 22.7716L24.2919 0.257812L46.2618 21.9709C46.2618 21.9709 55.1793 28.916 42.8945 33.2425" fill="#9B151E"/>
<path d="M55.094 21.3312L65.2806 0.341563C65.377 0.154254 65.5428 0 65.836 0H66.1638C66.4917 0 66.6228 0.157927 66.7193 0.341563L76.8055 21.3275C77.0022 21.7315 76.7399 22.1392 76.2501 22.1392H73.3997C72.9099 22.1392 72.6784 21.9518 72.4509 21.5148L70.8463 18.1469H61.0532L59.4487 21.5148C59.3175 21.827 59.0244 22.1392 58.4998 22.1392H55.6495C55.1596 22.1392 54.8973 21.7352 55.094 21.3275V21.3312ZM69.2418 14.6872L65.9671 7.82657H65.8707L62.6616 14.6872H69.2456H69.2418Z" fill="#1A171B"/>
<path d="M77.4614 19.0835L78.6416 17.1516C78.9039 16.7145 79.4593 16.7145 79.7563 16.9349C79.9183 17.0267 82.572 18.8668 84.7011 18.8668C86.4059 18.8668 87.6826 17.8053 87.6826 16.4648C87.6826 14.8745 86.2748 13.7837 83.5247 12.7223C80.4467 11.536 77.3688 9.6666 77.3688 5.98653C77.3688 3.20996 79.5287 0 84.7358 0C88.076 0 90.6294 1.62334 91.2851 2.08978C91.613 2.27709 91.7094 2.80596 91.4818 3.11814L90.236 4.89574C89.9737 5.27035 89.4838 5.5201 89.0904 5.27035C88.8281 5.1161 86.3403 3.55519 84.5391 3.55519C82.7378 3.55519 81.6579 4.74148 81.6579 5.73679C81.6579 7.2022 82.869 8.20118 85.5226 9.22954C88.7009 10.4452 92.3689 12.2559 92.3689 16.2775C92.3689 19.4911 89.453 22.4513 84.8361 22.4513C80.709 22.4513 78.2868 20.6113 77.6311 20.02C77.3379 19.7409 77.1721 19.5829 77.4691 19.0835H77.4614Z" fill="#1A171B"/>
<path d="M95.5703 0.903808C95.5703 0.591627 95.8635 0.3125 96.1913 0.3125H99.2384C99.5662 0.3125 99.8594 0.591627 99.8594 0.903808V21.5482C99.8594 21.8603 99.5662 22.1395 99.2384 22.1395H96.1913C95.8635 22.1395 95.5703 21.8603 95.5703 21.5482V0.903808Z" fill="#1A171B"/>
<path d="M101.858 21.3312L112.04 0.341563C112.137 0.154254 112.303 0 112.596 0H112.924C113.251 0 113.383 0.157927 113.479 0.341563L123.565 21.3275C123.762 21.7315 123.5 22.1392 123.01 22.1392H120.159C119.67 22.1392 119.438 21.9518 119.211 21.5148L117.606 18.1469H107.813L106.208 21.5148C106.077 21.827 105.784 22.1392 105.26 22.1392H102.409C101.919 22.1392 101.657 21.7352 101.854 21.3275L101.858 21.3312ZM116.005 14.6872L112.731 7.82657H112.634L109.425 14.6872H116.009H116.005Z" fill="#1A171B"/>
<path d="M131.819 0.903808C131.819 0.591627 132.082 0.3125 132.44 0.3125H139.938C143.834 0.3125 146.85 2.80628 146.85 6.08234C146.85 8.4843 144.787 10.3537 143.248 11.0405C144.984 11.5694 147.506 13.2552 147.506 16.1236C147.506 19.6163 144.363 22.1431 140.367 22.1431H132.44C132.082 22.1431 131.819 21.864 131.819 21.5518V0.903808ZM139.549 9.47961C141.219 9.47961 142.365 8.23088 142.365 6.67365C142.365 5.11642 141.219 4.02195 139.549 4.02195H136.043V9.47961H139.549ZM140.008 18.4631C141.647 18.4631 142.955 17.2474 142.955 15.6241C142.955 14.0007 141.315 12.9099 139.614 12.9099H136.043V18.4594H140.004L140.008 18.4631Z" fill="#1A171B"/>
<path d="M151.043 0.903808C151.043 0.591627 151.305 0.3125 151.664 0.3125H161.029C164.959 0.3125 168.168 3.30577 168.168 7.01889C168.168 9.88728 166.17 12.2268 163.32 13.3176L167.806 21.2397C168.033 21.6437 167.806 22.1431 167.25 22.1431H163.81C163.513 22.1431 163.351 21.9889 163.285 21.864L158.931 13.6004H155.297V21.5518C155.297 21.864 155.004 22.1431 154.676 22.1431H151.664C151.305 22.1431 151.043 21.864 151.043 21.5518V0.903808ZM160.67 10.2582C162.406 10.2582 163.914 8.82219 163.914 7.07765C163.914 5.42493 162.406 4.05133 160.67 4.05133H155.332V10.2582H160.67Z" fill="#1A171B"/>
<path d="M171.871 0.903808C171.871 0.591627 172.164 0.3125 172.492 0.3125H175.539C175.867 0.3125 176.16 0.591627 176.16 0.903808V21.5482C176.16 21.8603 175.863 22.1395 175.539 22.1395H172.492C172.164 22.1395 171.871 21.8603 171.871 21.5482V0.903808Z" fill="#1A171B"/>
<path d="M181.136 0.903808C181.136 0.591627 181.398 0.3125 181.757 0.3125H195.087C195.445 0.3125 195.708 0.591627 195.708 0.903808V3.46002C195.708 3.7722 195.445 4.05133 195.087 4.05133H185.394V9.16743H193.482C193.81 9.16743 194.103 9.44656 194.103 9.75874V12.348C194.103 12.6896 193.81 12.9393 193.482 12.9393H185.394V18.397H195.087C195.445 18.397 195.708 18.6761 195.708 18.9883V21.5445C195.708 21.8567 195.445 22.1358 195.087 22.1358H181.757C181.398 22.1358 181.136 21.8567 181.136 21.5445V0.903808Z" fill="#1A171B"/>
<path d="M199.41 0.903808C199.41 0.591627 199.672 0.3125 200.031 0.3125H213.361C213.72 0.3125 213.982 0.591627 213.982 0.903808V3.46002C213.982 3.7722 213.72 4.05133 213.361 4.05133H203.668V9.91299H211.757C212.085 9.91299 212.378 10.1921 212.378 10.5043V13.0605C212.378 13.3727 212.085 13.6518 211.757 13.6518H203.668V21.5408C203.668 21.853 203.375 22.1321 203.047 22.1321H200.035C199.676 22.1321 199.414 21.853 199.414 21.5408V0.903808H199.41Z" fill="#1A171B"/>
<path d="M216.898 0.903808C216.898 0.591627 217.192 0.3125 217.519 0.3125H220.566C220.894 0.3125 221.188 0.591627 221.188 0.903808V21.5482C221.188 21.8603 220.89 22.1395 220.566 22.1395H217.519C217.192 22.1395 216.898 21.8603 216.898 21.5482V0.903808Z" fill="#1A171B"/>
<path d="M226.163 0.561926C226.163 0.249745 226.456 0 226.784 0H227.602L241.225 13.7837H241.26V0.903489C241.26 0.591308 241.522 0.312181 241.881 0.312181H244.893C245.221 0.312181 245.514 0.591308 245.514 0.903489V21.8894C245.514 22.2016 245.221 22.4513 244.893 22.4513H244.106L230.417 8.13875H230.383V21.5478C230.383 21.86 230.12 22.1392 229.762 22.1392H226.78C226.452 22.1392 226.159 21.86 226.159 21.5478V0.561926H226.163Z" fill="#1A171B"/>
<path d="M260.615 0C263.562 0 266.377 1.0908 268.607 2.90145C268.869 3.15119 268.9 3.52581 268.637 3.77556L266.609 5.8029C266.346 6.05264 266.053 6.05264 265.756 5.8029C264.348 4.61661 262.613 3.99592 260.811 3.99592C256.719 3.99592 253.475 7.33442 253.475 11.2312C253.475 15.1279 256.719 18.3709 260.842 18.3709C262.674 18.3709 264.086 17.8421 264.738 17.5923V14.9406H262.119C261.76 14.9406 261.498 14.6909 261.498 14.3787V11.9143C261.498 11.5727 261.76 11.323 262.119 11.323H268.406C268.734 11.323 268.996 11.6021 268.996 11.9143V19.8988C268.996 20.1485 268.865 20.3028 268.734 20.3983C268.734 20.3983 265.363 22.4256 260.611 22.4256C254.092 22.4256 248.854 17.5005 248.854 11.2606C248.854 5.02061 254.096 0.00367272 260.611 0.00367272L260.615 0Z" fill="#1A171B"/>
<path d="M54.7393 27.436C55.125 27.3478 55.746 27.2891 56.3592 27.2891C57.2425 27.2891 57.8133 27.436 58.2299 27.7628C58.5848 28.0163 58.8085 28.4019 58.8085 28.9161C58.8085 29.5551 58.3611 30.1097 57.6475 30.3484V30.3778C58.2993 30.5247 59.063 31.0352 59.063 32.0048C59.063 32.5668 58.8278 33.0038 58.4729 33.3123C58.0062 33.7273 57.2309 33.922 56.1124 33.922C55.503 33.922 55.0324 33.8816 54.7393 33.8449V27.4286V27.436ZM55.6264 30.1097H56.4287C57.3544 30.1097 57.9059 29.6359 57.9059 29.0042C57.9059 28.2476 57.3042 27.9391 56.4094 27.9391C56.0005 27.9391 55.7691 27.9685 55.6264 27.9979V30.1097ZM55.6264 33.2278C55.8077 33.2572 56.0545 33.2682 56.3708 33.2682C57.2849 33.2682 58.1296 32.9487 58.1296 31.9975C58.1296 31.116 57.3274 30.7377 56.3592 30.7377H55.6264V33.2278Z" fill="#707173"/>
<path d="M64.4979 32.5765C64.4979 33.0723 64.5094 33.4983 64.5403 33.8656H63.7457L63.6956 33.1017H63.6763C63.4526 33.48 62.9242 33.9721 62.0486 33.9721C61.2772 33.9721 60.3477 33.5571 60.3477 31.9191V29.1755H61.2425V31.7611C61.2425 32.6536 61.5395 33.2633 62.3418 33.2633C62.9435 33.2633 63.36 32.8666 63.522 32.4773C63.5722 32.3598 63.603 32.2055 63.603 32.0403V29.1719H64.4979V32.5728V32.5765Z" fill="#707173"/>
<path d="M66.0178 33.0084C66.2917 33.1627 66.7622 33.3389 67.2096 33.3389C67.8499 33.3389 68.1546 33.0378 68.1546 32.6411C68.1546 32.2445 67.9001 32.0204 67.2482 31.7891C66.3534 31.4806 65.9368 31.0251 65.9368 30.4632C65.9368 29.7066 66.5886 29.0859 67.6378 29.0859C68.1353 29.0859 68.575 29.2108 68.8373 29.3761L68.6252 29.9968C68.4323 29.8792 68.0775 29.714 67.6185 29.714C67.0901 29.714 66.8046 30.0041 66.8046 30.353C66.8046 30.7423 67.0901 30.915 67.7303 31.1574C68.575 31.4585 69.0225 31.8662 69.0225 32.564C69.0225 33.3977 68.3398 33.978 67.1904 33.978C66.6504 33.978 66.1528 33.8421 65.8057 33.6475L66.0178 33.0084Z" fill="#707173"/>
<path d="M71.3208 27.8607C71.3208 28.1508 71.1087 28.3822 70.7499 28.3822C70.426 28.3822 70.21 28.1508 70.21 27.8607C70.21 27.5705 70.4337 27.3281 70.7692 27.3281C71.1048 27.3281 71.3169 27.5595 71.3169 27.8607H71.3208ZM70.3218 33.8656V29.1755H71.2167V33.8656H70.3218Z" fill="#707173"/>
<path d="M72.8559 30.4481C72.8559 29.9559 72.8443 29.5666 72.8135 29.1773H73.608L73.6582 29.9522H73.6775C73.9205 29.5152 74.4913 29.0781 75.3051 29.0781C75.9879 29.0781 77.0447 29.4674 77.0447 31.0724V33.8637H76.1498V31.1606C76.1498 30.404 75.8567 29.7759 75.012 29.7759C74.4334 29.7759 73.9745 30.1726 73.8125 30.65C73.77 30.7566 73.7507 30.9035 73.7507 31.0467V33.8674H72.8559V30.4481Z" fill="#707173"/>
<path d="M79.1581 31.6786C79.1774 32.8319 79.9411 33.3057 80.8475 33.3057C81.4877 33.3057 81.885 33.1991 82.2129 33.0633L82.3749 33.6729C82.0586 33.8088 81.5109 33.9741 80.7279 33.9741C79.2121 33.9741 78.3057 33.0155 78.3057 31.6015C78.3057 30.1875 79.1812 29.082 80.616 29.082C82.2322 29.082 82.6526 30.4189 82.6526 31.282C82.6526 31.4546 82.641 31.5832 82.6217 31.6786H79.1619H79.1581ZM81.7809 31.069C81.7925 30.5364 81.5456 29.6917 80.5389 29.6917C79.6209 29.6917 79.2352 30.4777 79.1658 31.069H81.7809Z" fill="#707173"/>
<path d="M83.7873 33.0084C84.0612 33.1627 84.5318 33.3389 84.9792 33.3389C85.6194 33.3389 85.9242 33.0378 85.9242 32.6411C85.9242 32.2445 85.6696 32.0204 85.0177 31.7891C84.1229 31.4806 83.7063 31.0251 83.7063 30.4632C83.7063 29.7066 84.3582 29.0859 85.4073 29.0859C85.9049 29.0859 86.3446 29.2108 86.6069 29.3761L86.3947 29.9968C86.2019 29.8792 85.847 29.714 85.388 29.714C84.8596 29.714 84.5742 30.0041 84.5742 30.353C84.5742 30.7423 84.8596 30.915 85.4999 31.1574C86.3446 31.4585 86.792 31.8662 86.792 32.564C86.792 33.3977 86.1093 33.978 84.9599 33.978C84.4199 33.978 83.9223 33.8421 83.5752 33.6475L83.7873 33.0084Z" fill="#707173"/>
<path d="M87.9719 33.0084C88.2458 33.1627 88.7163 33.3389 89.1637 33.3389C89.804 33.3389 90.1087 33.0378 90.1087 32.6411C90.1087 32.2445 89.8542 32.0204 89.2023 31.7891C88.3075 31.4806 87.8909 31.0251 87.8909 30.4632C87.8909 29.7066 88.5428 29.0859 89.5919 29.0859C90.0894 29.0859 90.5291 29.2108 90.7914 29.3761L90.5793 29.9968C90.3864 29.8792 90.0316 29.714 89.5726 29.714C89.0442 29.714 88.7587 30.0041 88.7587 30.353C88.7587 30.7423 89.0442 30.915 89.6844 31.1574C90.5291 31.4585 90.9766 31.8662 90.9766 32.564C90.9766 33.3977 90.2939 33.978 89.1445 33.978C88.6045 33.978 88.1069 33.8421 87.7598 33.6475L87.9719 33.0084Z" fill="#707173"/>
<path d="M95.5042 27.3359V33.866H94.6094V27.3359H95.5042Z" fill="#707173"/>
<path d="M97.2748 30.4481C97.2748 29.9559 97.2633 29.5666 97.2324 29.1773H98.027L98.0771 29.9522H98.0964C98.3394 29.5152 98.9102 29.0781 99.7241 29.0781C100.407 29.0781 101.464 29.4674 101.464 31.0724V33.8637H100.569V31.1606C100.569 30.404 100.276 29.7759 99.431 29.7759C98.8524 29.7759 98.3934 30.1726 98.2314 30.65C98.189 30.7566 98.1697 30.9035 98.1697 31.0467V33.8674H97.2748V30.4481Z" fill="#707173"/>
<path d="M104.114 28.0547V29.1785H105.394V29.8286H104.114V32.3591C104.114 32.9394 104.287 33.27 104.785 33.27C105.028 33.27 105.171 33.2516 105.306 33.2112L105.348 33.8613C105.175 33.92 104.901 33.9788 104.554 33.9788C104.137 33.9788 103.801 33.8429 103.585 33.6189C103.342 33.3581 103.238 32.9394 103.238 32.3885V29.8286H102.475V29.1785H103.238V28.3081L104.114 28.0547Z" fill="#707173"/>
<path d="M106.995 31.6786C107.014 32.8319 107.778 33.3057 108.684 33.3057C109.325 33.3057 109.722 33.1991 110.05 33.0633L110.212 33.6729C109.896 33.8088 109.348 33.9741 108.565 33.9741C107.049 33.9741 106.143 33.0155 106.143 31.6015C106.143 30.1875 107.018 29.082 108.453 29.082C110.069 29.082 110.489 30.4189 110.489 31.282C110.489 31.4546 110.478 31.5832 110.459 31.6786H106.999H106.995ZM109.622 31.069C109.633 30.5364 109.386 29.6917 108.38 29.6917C107.462 29.6917 107.076 30.4777 107.007 31.069H109.622Z" fill="#707173"/>
<path d="M111.747 26.9883H112.642V33.8673H111.747V26.9883Z" fill="#707173"/>
<path d="M114.304 26.9883H115.199V33.8673H114.304V26.9883Z" fill="#707173"/>
<path d="M117.856 27.8607C117.856 28.1508 117.644 28.3822 117.285 28.3822C116.961 28.3822 116.745 28.1508 116.745 27.8607C116.745 27.5705 116.969 27.3281 117.304 27.3281C117.64 27.3281 117.852 27.5595 117.852 27.8607H117.856ZM116.857 33.8656V29.1755H117.752V33.8656H116.857Z" fill="#707173"/>
<path d="M123.604 33.1813C123.604 34.2684 123.369 34.9148 122.902 35.3335C122.412 35.7485 121.722 35.8954 121.101 35.8954C120.48 35.8954 119.859 35.7595 119.461 35.5098L119.685 34.8523C120.009 35.0543 120.518 35.2306 121.131 35.2306C122.046 35.2306 122.721 34.7752 122.721 33.5853V33.0711H122.701C122.435 33.5081 121.899 33.857 121.135 33.857C119.913 33.857 119.037 32.8691 119.037 31.5689C119.037 29.9786 120.125 29.0898 121.266 29.0898C122.123 29.0898 122.578 29.5049 122.802 29.8942H122.821L122.852 29.1853H123.646C123.615 29.5159 123.604 29.9015 123.604 30.4634V33.1849V33.1813ZM122.709 31.029C122.709 30.8821 122.697 30.7573 122.659 30.6507C122.497 30.1476 122.069 29.7399 121.405 29.7399C120.549 29.7399 119.94 30.4267 119.94 31.5138C119.94 32.4357 120.437 33.1996 121.394 33.1996C121.953 33.1996 122.451 32.8691 122.636 32.3292C122.686 32.1823 122.705 32.0207 122.705 31.8738V31.029H122.709Z" fill="#707173"/>
<path d="M125.732 31.6786C125.752 32.8319 126.515 33.3057 127.422 33.3057C128.062 33.3057 128.459 33.1991 128.787 33.0633L128.949 33.6729C128.633 33.8088 128.085 33.9741 127.302 33.9741C125.786 33.9741 124.88 33.0155 124.88 31.6015C124.88 30.1875 125.755 29.082 127.19 29.082C128.81 29.082 129.227 30.4189 129.227 31.282C129.227 31.4546 129.215 31.5832 129.196 31.6786H125.736H125.732ZM128.359 31.069C128.371 30.5364 128.124 29.6917 127.117 29.6917C126.203 29.6917 125.813 30.4777 125.744 31.069H128.359Z" fill="#707173"/>
<path d="M130.489 30.4481C130.489 29.9559 130.477 29.5666 130.446 29.1773H131.241L131.291 29.9522H131.31C131.553 29.5152 132.124 29.0781 132.938 29.0781C133.621 29.0781 134.677 29.4674 134.677 31.0724V33.8637H133.783V31.1606C133.783 30.404 133.486 29.7759 132.641 29.7759C132.062 29.7759 131.603 30.1726 131.441 30.65C131.399 30.7566 131.38 30.9035 131.38 31.0467V33.8674H130.485V30.4481H130.489Z" fill="#707173"/>
<path d="M139.799 33.706C139.564 33.8125 139.047 33.9778 138.384 33.9778C136.899 33.9778 135.931 33.0192 135.931 31.5832C135.931 30.1471 136.968 29.082 138.577 29.082C139.105 29.082 139.576 29.2069 139.819 29.3354L139.614 29.9855C139.402 29.879 139.066 29.7615 138.577 29.7615C137.446 29.7615 136.837 30.5658 136.837 31.5354C136.837 32.6225 137.57 33.291 138.546 33.291C139.055 33.291 139.39 33.1734 139.645 33.0669L139.799 33.706Z" fill="#707173"/>
<path d="M141.438 31.6786C141.458 32.8319 142.221 33.3057 143.128 33.3057C143.768 33.3057 144.165 33.1991 144.493 33.0633L144.655 33.6729C144.339 33.8088 143.791 33.9741 143.008 33.9741C141.492 33.9741 140.586 33.0155 140.586 31.6015C140.586 30.1875 141.462 29.082 142.896 29.082C144.512 29.082 144.933 30.4189 144.933 31.282C144.933 31.4546 144.921 31.5832 144.902 31.6786H141.442H141.438ZM144.065 31.069C144.077 30.5364 143.83 29.6917 142.823 29.6917C141.905 29.6917 141.519 30.4777 141.45 31.069H144.065Z" fill="#707173"/>
<path d="M148.5 26.9883H149.388V29.9338H149.407C149.723 29.4123 150.29 29.0817 151.085 29.0817C152.315 29.0817 153.171 30.0513 153.171 31.4653C153.171 33.1401 152.053 33.9738 150.954 33.9738C150.24 33.9738 149.673 33.713 149.295 33.1034H149.276L149.226 33.8673H148.462C148.481 33.5478 148.504 33.074 148.504 32.6553V26.9883H148.5ZM149.388 31.9905C149.388 32.097 149.399 32.2035 149.43 32.299C149.592 32.8903 150.12 33.298 150.772 33.298C151.717 33.298 152.269 32.5708 152.269 31.4947C152.269 30.5545 151.76 29.7502 150.792 29.7502C150.19 29.7502 149.623 30.1578 149.438 30.7969C149.407 30.9034 149.388 31.0209 149.388 31.1568V31.9905Z" fill="#707173"/>
<path d="M154.703 29.1758L155.772 31.9487C155.895 32.2572 156.015 32.6281 156.096 32.9073H156.115C156.208 32.6281 156.308 32.2682 156.431 31.9303L157.407 29.1795H158.352L157.01 32.5216C156.37 34.1303 155.93 34.9456 155.32 35.4561C154.873 35.8161 154.445 35.9593 154.221 35.9997L153.997 35.2909C154.221 35.2247 154.518 35.0889 154.78 34.8758C155.023 34.6922 155.32 34.3617 155.533 33.9246C155.575 33.8365 155.602 33.7704 155.602 33.7226C155.602 33.6749 155.583 33.6051 155.533 33.4986L153.72 29.1758H154.696H154.703Z" fill="#707173"/>
<path d="M161.665 27.436C162.205 27.3478 162.845 27.2891 163.547 27.2891C164.82 27.2891 165.726 27.5792 166.324 28.1044C166.945 28.6369 167.3 29.3935 167.3 30.4476C167.3 31.5017 166.945 32.3868 166.313 32.9854C165.661 33.5951 164.604 33.9257 163.27 33.9257C162.629 33.9257 162.109 33.8963 161.661 33.8485V27.4323L161.665 27.436ZM162.548 33.2095C162.772 33.2389 163.096 33.2499 163.443 33.2499C165.345 33.2499 166.363 32.2436 166.363 30.4807C166.374 28.9381 165.456 27.9612 163.586 27.9612C163.127 27.9612 162.784 28.0016 162.548 28.0493V33.2132V33.2095Z" fill="#707173"/>
<path d="M169.105 31.6786C169.125 32.8319 169.888 33.3057 170.795 33.3057C171.435 33.3057 171.832 33.1991 172.16 33.0633L172.322 33.6729C172.006 33.8088 171.458 33.9741 170.675 33.9741C169.159 33.9741 168.253 33.0155 168.253 31.6015C168.253 30.1875 169.128 29.082 170.563 29.082C172.183 29.082 172.6 30.4189 172.6 31.282C172.6 31.4546 172.588 31.5832 172.569 31.6786H169.109H169.105ZM171.728 31.069C171.74 30.5364 171.493 29.6917 170.486 29.6917C169.572 29.6917 169.182 30.4777 169.113 31.069H171.728Z" fill="#707173"/>
<path d="M173.298 33.3739L175.516 30.612C175.739 30.3513 175.944 30.1272 176.168 29.8775V29.8591H173.502V29.1797H177.248V29.7122L175.049 32.4337C174.837 32.6945 174.64 32.9369 174.416 33.1683V33.1866H177.286V33.8661H173.298V33.3703V33.3739Z" fill="#707173"/>
<path d="M181.826 32.7435C181.826 33.1512 181.845 33.5478 181.895 33.8674H181.093L181.02 33.276H180.989C180.715 33.6433 180.187 33.9739 179.485 33.9739C178.49 33.9739 177.98 33.3054 177.98 32.626C177.98 31.4911 179.037 30.8704 180.943 30.8814V30.7859C180.943 30.4077 180.831 29.6988 179.824 29.7098C179.357 29.7098 178.879 29.8347 178.532 30.0587L178.328 29.4858C178.736 29.2434 179.334 29.0781 179.955 29.0781C181.46 29.0781 181.826 30.0587 181.826 30.9879V32.7435ZM180.962 31.4764C179.986 31.458 178.875 31.6233 178.875 32.5342C178.875 33.0961 179.261 33.3495 179.708 33.3495C180.36 33.3495 180.777 32.9639 180.92 32.5635C180.95 32.468 180.962 32.3689 180.962 32.2918V31.4764Z" fill="#707173"/>
<path d="M183.426 30.4481C183.426 29.9559 183.415 29.5666 183.384 29.1773H184.178L184.228 29.9522H184.248C184.491 29.5152 185.062 29.0781 185.875 29.0781C186.558 29.0781 187.615 29.4674 187.615 31.0724V33.8637H186.72V31.1606C186.72 30.404 186.423 29.7759 185.578 29.7759C185 29.7759 184.541 30.1726 184.379 30.65C184.336 30.7566 184.317 30.9035 184.317 31.0467V33.8674H183.422V30.4481H183.426Z" fill="#707173"/>
<path d="M191.457 32.8424C191.854 33.0848 192.425 33.2684 193.035 33.2684C193.941 33.2684 194.469 32.813 194.469 32.1556C194.469 31.5533 194.103 31.197 193.177 30.8665C192.059 30.4808 191.364 29.9189 191.364 29.0044C191.364 27.987 192.248 27.2305 193.582 27.2305C194.273 27.2305 194.793 27.3847 195.09 27.55L194.847 28.2368C194.635 28.1119 194.176 27.9283 193.555 27.9283C192.618 27.9283 192.263 28.4608 192.263 28.9089C192.263 29.5186 192.68 29.8197 193.629 30.1686C194.79 30.5947 195.368 31.1272 195.368 32.0858C195.368 33.0921 194.597 33.9736 192.977 33.9736C192.317 33.9736 191.592 33.7789 191.226 33.5475L191.461 32.8387L191.457 32.8424Z" fill="#707173"/>
<path d="M196.707 26.9883H197.602V29.9228H197.621C197.764 29.6804 197.988 29.4563 198.261 29.3131C198.528 29.1662 198.84 29.0817 199.176 29.0817C199.835 29.0817 200.896 29.471 200.896 31.076V33.8673H200.001V31.1752C200.001 30.4186 199.708 29.7906 198.859 29.7906C198.281 29.7906 197.833 30.1799 197.66 30.6353C197.61 30.7602 197.598 30.8887 197.598 31.043V33.871H196.703V26.992L196.707 26.9883Z" fill="#707173"/>
<path d="M203.506 27.8607C203.506 28.1508 203.294 28.3822 202.936 28.3822C202.612 28.3822 202.396 28.1508 202.396 27.8607C202.396 27.5705 202.619 27.3281 202.955 27.3281C203.29 27.3281 203.502 27.5595 203.502 27.8607H203.506ZM202.507 33.8656V29.1755H203.402V33.8656H202.507Z" fill="#707173"/>
<path d="M205.045 30.6429C205.045 30.092 205.034 29.6146 205.003 29.1812H205.786L205.828 30.1104H205.859C206.083 29.4824 206.634 29.082 207.232 29.082C207.325 29.082 207.394 29.0931 207.475 29.1004V29.9047C207.383 29.8864 207.294 29.8864 207.171 29.8864C206.538 29.8864 206.091 30.3308 205.971 30.9698C205.952 31.0873 205.94 31.2306 205.94 31.3665V33.8676H205.045V30.6393V30.6429Z" fill="#707173"/>
<path d="M211.934 32.7435C211.934 33.1512 211.954 33.5478 212.008 33.8674H211.205L211.136 33.276H211.105C210.831 33.6433 210.303 33.9739 209.601 33.9739C208.602 33.9739 208.097 33.3054 208.097 32.626C208.097 31.4911 209.154 30.8704 211.059 30.8814V30.7859C211.059 30.4077 210.947 29.6988 209.94 29.7098C209.474 29.7098 208.995 29.8347 208.648 30.0587L208.444 29.4858C208.853 29.2434 209.451 29.0781 210.071 29.0781C211.576 29.0781 211.942 30.0587 211.942 30.9879V32.7435H211.934ZM211.07 31.4764C210.095 31.458 208.984 31.6233 208.984 32.5342C208.984 33.0961 209.369 33.3495 209.817 33.3495C210.469 33.3495 210.885 32.9639 211.028 32.5635C211.059 32.468 211.07 32.3689 211.07 32.2918V31.4764Z" fill="#707173"/>
<path d="M220.169 33.8661C219.976 33.6825 219.791 33.4878 219.529 33.2381C218.938 33.7523 218.287 33.9726 217.523 33.9726C216.188 33.9726 215.417 33.1206 215.417 32.14C215.417 31.2475 215.976 30.6378 216.759 30.2301V30.2008C216.404 29.7747 216.188 29.2899 216.188 28.8345C216.188 28.0302 216.79 27.2148 217.928 27.2148C218.784 27.2148 219.444 27.7474 219.444 28.5995C219.444 29.2863 219.027 29.8298 217.936 30.344V30.3844C218.514 31.0235 219.166 31.7323 219.606 32.1951C219.922 31.7396 220.134 31.1116 220.265 30.2852H221.079C220.898 31.3136 220.601 32.1253 220.092 32.6982C220.458 33.0765 220.813 33.4438 221.222 33.8625H220.165L220.169 33.8661ZM219.089 32.7423C218.684 32.3163 217.92 31.5229 217.157 30.6782C216.779 30.9096 216.273 31.3173 216.273 32.0151C216.273 32.7607 216.852 33.3336 217.689 33.3336C218.267 33.3336 218.769 33.0802 219.093 32.7423H219.089ZM217.002 28.75C217.002 29.2238 217.238 29.5837 217.523 29.9327C218.213 29.5544 218.661 29.2055 218.661 28.6435C218.661 28.2469 218.426 27.7988 217.859 27.7988C217.292 27.7988 217.002 28.2432 217.002 28.75Z" fill="#707173"/>
<path d="M225.604 31.813L224.891 33.866H223.973L226.314 27.3359H227.371L229.712 33.866H228.767L228.034 31.813H225.6H225.604ZM227.864 31.1556L227.182 29.2751C227.027 28.8491 226.927 28.4598 226.827 28.0815H226.808C226.707 28.4598 226.603 28.8675 226.46 29.2641L225.789 31.1519H227.864V31.1556Z" fill="#707173"/>
<path d="M230.664 33.0084C230.938 33.1627 231.409 33.3389 231.856 33.3389C232.496 33.3389 232.801 33.0378 232.801 32.6411C232.801 32.2445 232.547 32.0204 231.895 31.7891C231 31.4806 230.583 31.0251 230.583 30.4632C230.583 29.7066 231.235 29.0859 232.284 29.0859C232.782 29.0859 233.222 29.2108 233.484 29.3761L233.272 29.9968C233.079 29.8792 232.724 29.714 232.265 29.714C231.737 29.714 231.451 30.0041 231.451 30.353C231.451 30.7423 231.737 30.915 232.377 31.1574C233.222 31.4585 233.669 31.8662 233.669 32.564C233.669 33.3977 232.986 33.978 231.837 33.978C231.297 33.978 230.799 33.8421 230.452 33.6475L230.664 33.0084Z" fill="#707173"/>
<path d="M234.845 33.0084C235.119 33.1627 235.589 33.3389 236.037 33.3389C236.677 33.3389 236.982 33.0378 236.982 32.6411C236.982 32.2445 236.727 32.0204 236.075 31.7891C235.181 31.4806 234.764 31.0251 234.764 30.4632C234.764 29.7066 235.416 29.0859 236.465 29.0859C236.962 29.0859 237.402 29.2108 237.664 29.3761L237.452 29.9968C237.259 29.8792 236.905 29.714 236.446 29.714C235.917 29.714 235.632 30.0041 235.632 30.353C235.632 30.7423 235.917 30.915 236.557 31.1574C237.402 31.4585 237.85 31.8662 237.85 32.564C237.85 33.3977 237.167 33.978 236.017 33.978C235.477 33.978 234.98 33.8421 234.633 33.6475L234.845 33.0084Z" fill="#707173"/>
<path d="M243.609 31.484C243.609 33.2175 242.336 33.9741 241.155 33.9741C239.832 33.9741 238.795 33.0449 238.795 31.5611C238.795 30.0002 239.883 29.082 241.236 29.082C242.59 29.082 243.609 30.0626 243.609 31.484ZM239.713 31.5354C239.713 32.5638 240.322 33.3387 241.198 33.3387C242.073 33.3387 242.694 32.5748 242.694 31.517C242.694 30.7237 242.278 29.7248 241.217 29.7248C240.156 29.7248 239.713 30.654 239.713 31.5354Z" fill="#707173"/>
<path d="M248.403 33.706C248.168 33.8125 247.651 33.9778 246.987 33.9778C245.502 33.9778 244.534 33.0192 244.534 31.5832C244.534 30.1471 245.572 29.082 247.18 29.082C247.709 29.082 248.175 29.2069 248.422 29.3354L248.218 29.9855C248.006 29.879 247.67 29.7615 247.18 29.7615C246.05 29.7615 245.441 30.5658 245.441 31.5354C245.441 32.6225 246.173 33.291 247.149 33.291C247.658 33.291 247.994 33.1734 248.249 33.0669L248.403 33.706Z" fill="#707173"/>
<path d="M250.601 27.8607C250.601 28.1508 250.389 28.3822 250.03 28.3822C249.706 28.3822 249.49 28.1508 249.49 27.8607C249.49 27.5705 249.714 27.3281 250.049 27.3281C250.385 27.3281 250.597 27.5595 250.597 27.8607H250.601ZM249.606 33.8656V29.1755H250.501V33.8656H249.606Z" fill="#707173"/>
<path d="M255.6 32.7435C255.6 33.1512 255.62 33.5478 255.674 33.8674H254.871L254.802 33.276H254.771C254.497 33.6433 253.969 33.9739 253.267 33.9739C252.268 33.9739 251.763 33.3054 251.763 32.626C251.763 31.4911 252.82 30.8704 254.725 30.8814V30.7859C254.725 30.4077 254.613 29.6988 253.606 29.7098C253.14 29.7098 252.661 29.8347 252.314 30.0587L252.11 29.4858C252.519 29.2434 253.117 29.0781 253.738 29.0781C255.242 29.0781 255.608 30.0587 255.608 30.9879V32.7435H255.6ZM254.733 31.4764C253.757 31.458 252.646 31.6233 252.646 32.5342C252.646 33.0961 253.032 33.3495 253.479 33.3495C254.131 33.3495 254.548 32.9639 254.69 32.5635C254.721 32.468 254.733 32.3689 254.733 32.2918V31.4764Z" fill="#707173"/>
<path d="M258.235 28.0547V29.1785H259.516V29.8286H258.235V32.3591C258.235 32.9394 258.409 33.27 258.906 33.27C259.149 33.27 259.292 33.2516 259.427 33.2112L259.469 33.8613C259.296 33.92 259.022 33.9788 258.675 33.9788C258.258 33.9788 257.923 33.8429 257.707 33.6189C257.464 33.3581 257.359 32.9394 257.359 32.3885V29.8286H256.596V29.1785H257.359V28.3081L258.235 28.0547Z" fill="#707173"/>
<path d="M261.116 31.6786C261.135 32.8319 261.899 33.3057 262.805 33.3057C263.446 33.3057 263.843 33.1991 264.171 33.0633L264.333 33.6729C264.017 33.8088 263.469 33.9741 262.686 33.9741C261.17 33.9741 260.264 33.0155 260.264 31.6015C260.264 30.1875 261.139 29.082 262.574 29.082C264.194 29.082 264.611 30.4189 264.611 31.282C264.611 31.4546 264.599 31.5832 264.58 31.6786H261.12H261.116ZM263.743 31.069C263.754 30.5364 263.507 29.6917 262.501 29.6917C261.587 29.6917 261.197 30.4777 261.128 31.069H263.743Z" fill="#707173"/>
<path d="M265.748 33.0084C266.022 33.1627 266.493 33.3389 266.94 33.3389C267.58 33.3389 267.885 33.0378 267.885 32.6411C267.885 32.2445 267.631 32.0204 266.979 31.7891C266.084 31.4806 265.667 31.0251 265.667 30.4632C265.667 29.7066 266.319 29.0859 267.368 29.0859C267.866 29.0859 268.306 29.2108 268.568 29.3761L268.356 29.9968C268.163 29.8792 267.808 29.714 267.349 29.714C266.821 29.714 266.535 30.0041 266.535 30.353C266.535 30.7423 266.821 30.915 267.461 31.1574C268.306 31.4585 268.753 31.8662 268.753 32.564C268.753 33.3977 268.07 33.978 266.921 33.978C266.381 33.978 265.883 33.8421 265.536 33.6475L265.748 33.0084Z" fill="#707173"/>
</g>
<defs>
<clipPath id="clip0_3654_2595">
<rect width="269" height="36" fill="white"/>
</clipPath>
</defs>
</svg>
