<svg width="310" height="54" viewBox="0 0 310 54" fill="none" xmlns="http://www.w3.org/2000/svg">
<g clip-path="url(#clip0_3654_2892)">
<path d="M60.0029 39.1562H65.1461V40.1837H61.251V43.3396H64.8475V44.3538H61.251V48.6505H60.0063V39.1562H60.0029Z" fill="#9C9B99"/>
<path d="M66.3637 43.9593C66.3637 43.1553 66.3503 42.4648 66.3066 41.8309H67.397L67.454 43.182H67.4976C67.8097 42.268 68.5746 41.6875 69.41 41.6875C69.5375 41.6875 69.6381 41.7008 69.7488 41.7142V42.8818C69.6213 42.8551 69.4938 42.8551 69.3227 42.8551C68.4437 42.8551 67.8197 43.5023 67.652 44.433C67.6251 44.6032 67.6084 44.8133 67.6084 45.0102V48.6431H66.3603V43.9526L66.3637 43.9593Z" fill="#9C9B99"/>
<path d="M76.9186 45.1842C76.9186 47.7062 75.1472 48.8038 73.5032 48.8038C71.6614 48.8038 70.2188 47.4527 70.2188 45.2976C70.2188 43.0291 71.7352 41.6914 73.6173 41.6914C75.4994 41.6914 76.9186 43.1125 76.9186 45.1842ZM71.4936 45.2543C71.4936 46.7455 72.3424 47.873 73.5603 47.873C74.7781 47.873 75.6437 46.7621 75.6437 45.2242C75.6437 44.07 75.0633 42.6188 73.5905 42.6188C72.1176 42.6188 71.4936 43.9699 71.4936 45.2543Z" fill="#9C9B99"/>
<path d="M78.351 43.6758C78.351 42.9585 78.3241 42.3947 78.2939 41.8309H79.3843L79.4413 42.9418H79.485C79.8674 42.2947 80.5049 41.6875 81.6522 41.6875C82.5715 41.6875 83.2827 42.2513 83.578 43.0553H83.6048C83.8162 42.6616 84.1014 42.3781 84.3832 42.1679C84.7925 41.8576 85.232 41.6875 85.8862 41.6875C86.8054 41.6875 88.1508 42.278 88.1508 44.6465V48.6464H86.9329V44.8C86.9329 43.4756 86.4364 42.7016 85.4467 42.7016C84.7254 42.7016 84.1852 43.2221 83.9604 43.8159C83.9034 43.9994 83.8598 44.2095 83.8598 44.4364V48.6464H82.642V44.5631C82.642 43.4789 82.1588 42.705 81.2127 42.705C80.4478 42.705 79.8674 43.3255 79.6695 43.946C79.599 44.1161 79.5688 44.3396 79.5688 44.5531V48.6531H78.351V43.6824V43.6758Z" fill="#9C9B99"/>
<path d="M92.9287 39.2961C93.6802 39.1693 94.5726 39.0859 95.5489 39.0859C97.3203 39.0859 98.5818 39.5096 99.4172 40.2702C100.283 41.0442 100.776 42.1451 100.776 43.6796C100.776 45.2142 100.279 46.4952 99.4004 47.3693C98.4946 48.2566 97.0217 48.7337 95.1665 48.7337C94.274 48.7337 93.5527 48.6903 92.9287 48.6203V39.2961ZM94.16 47.6895C94.472 47.7329 94.9249 47.7462 95.408 47.7462C98.0584 47.7462 99.4742 46.2817 99.4742 43.7163C99.4876 41.4779 98.2127 40.0534 95.606 40.0534C94.9685 40.0534 94.4888 40.1101 94.16 40.1801V47.6862V47.6895Z" fill="#9C9B99"/>
<path d="M102.93 45.4644C102.957 47.1391 104.02 47.8297 105.282 47.8297C106.174 47.8297 106.728 47.6762 107.181 47.4794L107.409 48.3668C106.969 48.5636 106.204 48.8038 105.114 48.8038C103.004 48.8038 101.742 47.4093 101.742 45.3543C101.742 43.2994 102.96 41.6914 104.956 41.6914C107.207 41.6914 107.788 43.6363 107.788 44.8873C107.788 45.1408 107.774 45.3243 107.744 45.4644H102.93ZM106.583 44.5771C106.597 43.8031 106.258 42.5754 104.856 42.5754C103.581 42.5754 103.044 43.7164 102.943 44.5771H106.583Z" fill="#9C9B99"/>
<path d="M108.411 47.9303L111.498 43.917C111.81 43.5367 112.092 43.2131 112.404 42.8462V42.8195H108.693V41.832H113.907V42.606L110.847 46.5625C110.548 46.9428 110.28 47.2964 109.968 47.6334V47.66H113.964V48.6475H108.411V47.9303Z" fill="#9C9B99"/>
<path d="M119.929 47.0157C119.929 47.6062 119.956 48.1833 120.026 48.6503H118.909L118.809 47.7896H118.765C118.383 48.3234 117.644 48.8038 116.668 48.8038C115.279 48.8038 114.571 47.833 114.571 46.8455C114.571 45.1975 116.044 44.2968 118.695 44.3102V44.1701C118.695 43.6196 118.54 42.5921 117.138 42.6055C116.487 42.6055 115.819 42.789 115.34 43.1125L115.058 42.2819C115.625 41.9283 116.46 41.6914 117.326 41.6914C119.423 41.6914 119.932 43.1125 119.932 44.467V47.0157H119.929ZM118.725 45.1709C117.366 45.1442 115.819 45.381 115.819 46.7054C115.819 47.5227 116.356 47.8897 116.98 47.8897C117.886 47.8897 118.466 47.3259 118.664 46.7488C118.708 46.6087 118.721 46.4686 118.721 46.3552V45.1709H118.725Z" fill="#9C9B99"/>
<path d="M121.797 43.6763C121.797 42.9591 121.784 42.3953 121.74 41.8315H122.844L122.914 42.9591H122.941C123.28 42.3252 124.075 41.6914 125.209 41.6914C126.159 41.6914 127.632 42.2552 127.632 44.5937V48.6503H126.383V44.7205C126.383 43.623 125.974 42.7056 124.797 42.7056C123.988 42.7056 123.351 43.2827 123.126 43.9732C123.069 44.1267 123.042 44.3402 123.042 44.5504V48.6503H121.794V43.6797L121.797 43.6763Z" fill="#9C9B99"/>
<path d="M132.269 47.1565C132.822 47.5102 133.614 47.777 134.463 47.777C135.724 47.777 136.459 47.1165 136.459 46.1591C136.459 45.285 135.949 44.7646 134.661 44.2842C133.104 43.7205 132.138 42.9031 132.138 41.5787C132.138 40.1009 133.369 39 135.224 39C136.187 39 136.909 39.2268 137.321 39.4637L136.982 40.4645C136.684 40.281 136.046 40.0141 135.184 40.0141C133.883 40.0141 133.386 40.7881 133.386 41.4353C133.386 42.3227 133.966 42.7597 135.285 43.2668C136.899 43.8873 137.707 44.6612 137.707 46.0557C137.707 47.5202 136.63 48.8012 134.379 48.8012C133.46 48.8012 132.453 48.521 131.943 48.1807L132.269 47.1532V47.1565Z" fill="#9C9B99"/>
<path d="M139.224 38.6479H140.472V42.9146H140.499C140.696 42.561 141.008 42.2374 141.391 42.0272C141.76 41.8171 142.199 41.6903 142.666 41.6903C143.585 41.6903 145.061 42.2541 145.061 44.5926V48.6492H143.813V44.7328C143.813 43.6352 143.404 42.7178 142.226 42.7178C141.418 42.7178 140.797 43.2816 140.556 43.9421C140.485 44.1256 140.472 44.3091 140.472 44.5326V48.6459H139.224V38.6445V38.6479Z" fill="#9C9B99"/>
<path d="M148.331 39.9146C148.331 40.3383 148.033 40.6752 147.54 40.6752C147.087 40.6752 146.788 40.3383 146.788 39.9146C146.788 39.4909 147.1 39.1406 147.566 39.1406C148.033 39.1406 148.331 39.4776 148.331 39.9146ZM146.942 48.6449V41.8295H148.19V48.6449H146.942Z" fill="#9C9B99"/>
<path d="M150.117 43.9593C150.117 43.1553 150.103 42.4648 150.06 41.8309H151.15L151.207 43.182H151.251C151.563 42.268 152.328 41.6875 153.163 41.6875C153.29 41.6875 153.391 41.7008 153.502 41.7142V42.8818C153.374 42.8551 153.247 42.8551 153.076 42.8551C152.197 42.8551 151.573 43.5023 151.405 44.433C151.378 44.6032 151.361 44.8133 151.361 45.0102V48.6431H150.113V43.9526L150.117 43.9593Z" fill="#9C9B99"/>
<path d="M159.353 47.0157C159.353 47.6062 159.38 48.1833 159.45 48.6503H158.333L158.232 47.7896H158.189C157.806 48.3234 157.068 48.8038 156.092 48.8038C154.703 48.8038 153.995 47.833 153.995 46.8455C153.995 45.1975 155.468 44.2968 158.118 44.3102V44.1701C158.118 43.6196 157.964 42.5921 156.562 42.6055C155.911 42.6055 155.243 42.789 154.763 43.1125L154.482 42.2819C155.049 41.9283 155.884 41.6914 156.75 41.6914C158.846 41.6914 159.356 43.1125 159.356 44.467V47.0157H159.353ZM158.149 45.1709C156.79 45.1442 155.243 45.381 155.243 46.7054C155.243 47.5227 155.78 47.8897 156.404 47.8897C157.31 47.8897 157.89 47.3259 158.088 46.7488C158.132 46.6087 158.145 46.4686 158.145 46.3552V45.1709H158.149Z" fill="#9C9B99"/>
<path d="M170.105 48.6455C169.837 48.3786 169.582 48.095 169.213 47.7314C168.391 48.4787 167.485 48.8023 166.421 48.8023C164.566 48.8023 163.489 47.5613 163.489 46.1401C163.489 44.8457 164.268 43.9584 165.358 43.3646V43.3212C164.861 42.7007 164.566 41.9968 164.566 41.3363C164.566 40.1687 165.402 38.9844 166.988 38.9844C168.179 38.9844 169.099 39.7583 169.099 40.9993C169.099 42.0001 168.518 42.7874 167.002 43.5347V43.5914C167.81 44.5221 168.716 45.5496 169.324 46.2269C169.763 45.5663 170.062 44.6489 170.243 43.4513H171.377C171.122 44.9425 170.712 46.1268 170.001 46.9574C170.511 47.5079 171.008 48.0416 171.575 48.6488H170.102L170.105 48.6455ZM168.606 47.0142C168.039 46.3937 166.975 45.2394 165.915 44.0151C165.392 44.352 164.684 44.9458 164.684 45.96C164.684 47.0442 165.492 47.8748 166.653 47.8748C167.462 47.8748 168.153 47.5079 168.609 47.0142H168.606ZM165.7 41.2095C165.7 41.9 166.026 42.4205 166.421 42.9275C167.384 42.3771 168.008 41.87 168.008 41.0527C168.008 40.4756 167.683 39.8284 166.891 39.8284C166.099 39.8284 165.7 40.4756 165.7 41.2095Z" fill="#9C9B99"/>
<path d="M176.963 45.6609L175.97 48.6466H174.695L177.953 39.1523H179.426L182.683 48.6466H181.365L180.345 45.6609H176.96H176.963ZM180.107 44.7035L179.157 41.9713C178.946 41.3508 178.802 40.787 178.661 40.2399H178.634C178.493 40.7903 178.352 41.3808 178.151 41.9579L177.215 44.7035H180.103H180.107Z" fill="#9C9B99"/>
<path d="M183.65 47.396C184.032 47.6228 184.683 47.8764 185.307 47.8764C186.199 47.8764 186.625 47.4394 186.625 46.8622C186.625 46.2851 186.27 45.9615 185.364 45.6246C184.116 45.1742 183.536 44.5103 183.536 43.693C183.536 42.5955 184.441 41.6914 185.901 41.6914C186.595 41.6914 187.202 41.8749 187.572 42.1151L187.273 43.0158C187.005 42.8457 186.508 42.6088 185.871 42.6088C185.132 42.6088 184.737 43.0325 184.737 43.5396C184.737 44.1033 185.132 44.3569 186.025 44.7072C187.199 45.1442 187.823 45.7346 187.823 46.7488C187.823 47.9598 186.874 48.8071 185.273 48.8071C184.522 48.8071 183.827 48.6103 183.348 48.3267L183.646 47.396H183.65Z" fill="#9C9B99"/>
<path d="M189.118 47.396C189.501 47.6228 190.152 47.8764 190.776 47.8764C191.668 47.8764 192.094 47.4394 192.094 46.8622C192.094 46.2851 191.739 45.9615 190.833 45.6246C189.585 45.1742 189.004 44.5103 189.004 43.693C189.004 42.5955 189.91 41.6914 191.37 41.6914C192.064 41.6914 192.671 41.8749 193.04 42.1151L192.742 43.0158C192.473 42.8457 191.977 42.6088 191.339 42.6088C190.601 42.6088 190.205 43.0325 190.205 43.5396C190.205 44.1033 190.601 44.3569 191.494 44.7072C192.668 45.1442 193.292 45.7346 193.292 46.7488C193.292 47.9598 192.342 48.8071 190.742 48.8071C189.991 48.8071 189.296 48.6103 188.816 48.3267L189.115 47.396H189.118Z" fill="#9C9B99"/>
<path d="M200.961 45.1842C200.961 47.7062 199.189 48.8038 197.545 48.8038C195.703 48.8038 194.261 47.4527 194.261 45.2976C194.261 43.0291 195.777 41.6914 197.659 41.6914C199.541 41.6914 200.961 43.1125 200.961 45.1842ZM195.536 45.2543C195.536 46.7455 196.384 47.873 197.602 47.873C198.82 47.873 199.686 46.7621 199.686 45.2242C199.686 44.07 199.105 42.6188 197.632 42.6188C196.16 42.6188 195.536 43.9699 195.536 45.2543Z" fill="#9C9B99"/>
<path d="M207.278 48.4101C206.952 48.5636 206.231 48.8038 205.308 48.8038C203.242 48.8038 201.896 47.4093 201.896 45.3243C201.896 43.2393 203.342 41.6914 205.58 41.6914C206.318 41.6914 206.969 41.8749 207.308 42.0584L207.026 43.0025C206.728 42.849 206.261 42.6789 205.58 42.6789C204.007 42.6789 203.158 43.8465 203.158 45.2576C203.158 46.8355 204.178 47.8063 205.537 47.8063C206.245 47.8063 206.711 47.6362 207.066 47.4827L207.278 48.4135V48.4101Z" fill="#9C9B99"/>
<path d="M209.986 39.9146C209.986 40.3383 209.687 40.6752 209.194 40.6752C208.741 40.6752 208.442 40.3383 208.442 39.9146C208.442 39.4909 208.754 39.1406 209.221 39.1406C209.687 39.1406 209.986 39.4776 209.986 39.9146ZM208.597 48.6449V41.8295H209.845V48.6449H208.597Z" fill="#9C9B99"/>
<path d="M216.588 47.0157C216.588 47.6062 216.615 48.1833 216.686 48.6503H215.568L215.468 47.7896H215.424C215.042 48.3234 214.304 48.8038 213.327 48.8038C211.938 48.8038 211.23 47.833 211.23 46.8455C211.23 45.1975 212.703 44.2968 215.354 44.3102V44.1701C215.354 43.6196 215.199 42.5921 213.797 42.6055C213.146 42.6055 212.479 42.789 211.999 43.1125L211.717 42.2819C212.284 41.9283 213.119 41.6914 213.985 41.6914C216.082 41.6914 216.592 43.1125 216.592 44.467V47.0157H216.588ZM215.384 45.1709C214.025 45.1442 212.479 45.381 212.479 46.7054C212.479 47.5227 213.015 47.8897 213.639 47.8897C214.545 47.8897 215.126 47.3259 215.324 46.7488C215.367 46.6087 215.381 46.4686 215.381 46.3552V45.1709H215.384Z" fill="#9C9B99"/>
<path d="M219.902 40.1953V41.83H221.687V42.774H219.902V46.4503C219.902 47.2943 220.144 47.7747 220.838 47.7747C221.177 47.7747 221.375 47.748 221.56 47.6913L221.617 48.6354C221.375 48.7188 220.993 48.8056 220.513 48.8056C219.933 48.8056 219.466 48.6087 219.168 48.2851C218.829 47.9048 218.685 47.2977 218.685 46.497V42.7774H217.621V41.8333H218.685V40.5656L219.902 40.1986V40.1953Z" fill="#9C9B99"/>
<path d="M223.557 45.4644C223.584 47.1391 224.647 47.8297 225.909 47.8297C226.801 47.8297 227.355 47.6762 227.808 47.4794L228.036 48.3668C227.596 48.5636 226.831 48.8038 225.741 48.8038C223.631 48.8038 222.369 47.4093 222.369 45.3543C222.369 43.2994 223.587 41.6914 225.583 41.6914C227.834 41.6914 228.415 43.6363 228.415 44.8873C228.415 45.1408 228.401 45.3243 228.371 45.4644H223.557ZM227.214 44.5771C227.227 43.8031 226.888 42.5754 225.486 42.5754C224.211 42.5754 223.674 43.7164 223.574 44.5771H227.214Z" fill="#9C9B99"/>
<path d="M229.649 47.396C230.031 47.6228 230.682 47.8764 231.306 47.8764C232.198 47.8764 232.624 47.4394 232.624 46.8622C232.624 46.2851 232.269 45.9615 231.363 45.6246C230.115 45.1742 229.535 44.5103 229.535 43.693C229.535 42.5955 230.44 41.6914 231.9 41.6914C232.594 41.6914 233.202 41.8749 233.571 42.1151L233.272 43.0158C233.004 42.8457 232.507 42.6088 231.87 42.6088C231.132 42.6088 230.736 43.0325 230.736 43.5396C230.736 44.1033 231.132 44.3569 232.024 44.7072C233.198 45.1442 233.822 45.7346 233.822 46.7488C233.822 47.9598 232.873 48.8071 231.272 48.8071C230.521 48.8071 229.826 48.6103 229.347 48.3267L229.645 47.396H229.649Z" fill="#9C9B99"/>
<path d="M184.918 18.7779V26.9311C184.918 27.5382 185.069 27.9919 185.374 28.3022C185.679 28.6091 186.129 28.7625 186.726 28.7625C187.612 28.7625 188.427 28.5624 189.175 28.1654C189.923 27.7684 190.494 27.1913 190.893 26.434C191.292 25.6767 191.49 24.8327 191.49 23.902C191.49 22.8378 191.262 21.8803 190.809 21.033C190.356 20.1857 189.692 19.5952 188.819 19.2616C187.947 18.928 186.645 18.7645 184.918 18.7779ZM184.918 17.4468C186.525 17.4468 187.709 17.2666 188.474 16.9064C189.239 16.5461 189.823 16.039 190.232 15.3851C190.641 14.7313 190.843 13.9006 190.843 12.8865C190.843 11.8723 190.641 11.045 190.239 10.3978C189.836 9.75061 189.262 9.25688 188.514 8.91994C187.769 8.58301 186.568 8.41954 184.918 8.42955V17.4468ZM191.054 17.9072C193.251 18.4142 194.795 19.0247 195.684 19.742C196.959 20.7628 197.596 22.0905 197.596 23.7185C197.596 25.4365 196.902 26.8577 195.516 27.9819C193.812 29.343 191.336 30.0202 188.088 30.0202H176.43V29.4464C177.49 29.4464 178.208 29.3463 178.587 29.1462C178.966 28.946 179.231 28.6858 179.382 28.3655C179.533 28.0453 179.61 27.258 179.61 25.997V11.1951C179.61 9.93743 179.533 9.14679 179.382 8.81986C179.231 8.49294 178.963 8.23273 178.58 8.03924C178.198 7.84575 177.48 7.74567 176.433 7.74567V7.17188H187.434C190.061 7.17188 191.923 7.4054 193.02 7.87244C194.114 8.33948 194.976 9.03671 195.61 9.96078C196.241 10.8882 196.559 11.8723 196.559 12.9165C196.559 14.0174 196.153 14.9982 195.345 15.8588C194.533 16.7195 193.107 17.4001 191.064 17.9072H191.054Z" fill="#1A171B"/>
<path d="M204.5 12.7424V20.7188H205.279C206.543 20.7188 207.49 20.6054 208.117 20.3752C208.744 20.1484 209.237 19.7347 209.596 19.1409C209.955 18.5471 210.137 17.7698 210.137 16.8124C210.137 15.4246 209.808 14.4004 209.147 13.7366C208.486 13.0727 207.426 12.7424 205.96 12.7424H204.5ZM204.5 21.6863V26.8237C204.5 27.8212 204.564 28.4484 204.688 28.7052C204.812 28.9621 205.03 29.1689 205.346 29.3224C205.661 29.4758 206.245 29.5526 207.104 29.5526V30.0196H197.603V29.5526C198.468 29.5526 199.059 29.4725 199.367 29.3157C199.676 29.1589 199.894 28.9521 200.018 28.6986C200.142 28.445 200.206 27.8212 200.206 26.8237V14.9342C200.206 13.9367 200.142 13.3129 200.018 13.0527C199.894 12.7958 199.676 12.589 199.361 12.4355C199.045 12.2821 198.461 12.2053 197.603 12.2053V11.7383H206.174C208.405 11.7383 210.036 11.8917 211.073 12.1953C212.106 12.5022 212.951 13.066 213.602 13.8867C214.256 14.7107 214.582 15.6748 214.582 16.779C214.582 18.1267 214.092 19.2443 213.116 20.125C212.492 20.6821 211.616 21.1025 210.496 21.3793L214.914 27.571C215.491 28.3683 215.904 28.8654 216.149 29.0622C216.521 29.3391 216.95 29.4925 217.437 29.5192V30.023H211.666L205.718 21.6896H204.504L204.5 21.6863Z" fill="#1A171B"/>
<path d="M227.173 29.552V30.019H217.564V29.552H218.178C218.715 29.552 219.145 29.4586 219.473 29.2651C219.708 29.1383 219.889 28.9215 220.017 28.6112C220.118 28.3944 220.168 27.8206 220.168 26.8932V14.8602C220.168 13.9161 220.118 13.3257 220.017 13.0888C219.916 12.8519 219.715 12.6451 219.41 12.4683C219.104 12.2915 218.695 12.2014 218.178 12.2014H217.564V11.7344H227.173V12.2014H226.562C226.029 12.2014 225.6 12.2982 225.274 12.4883C225.039 12.6151 224.855 12.8319 224.721 13.1422C224.62 13.359 224.573 13.9328 224.573 14.8602V26.8932C224.573 27.8373 224.623 28.4311 224.727 28.6646C224.831 28.9015 225.033 29.1083 225.338 29.2851C225.64 29.4619 226.049 29.552 226.566 29.552H227.176H227.173Z" fill="#1A171B"/>
<path d="M234.983 12.7758V20.2484H235.352C236.53 20.2484 237.379 19.8848 237.909 19.1576C238.439 18.4303 238.774 17.3561 238.922 15.9383H239.391V25.4927H238.922C238.811 24.4518 238.583 23.6011 238.231 22.9373C237.878 22.2734 237.472 21.8264 237.006 21.5995C236.54 21.3693 235.865 21.2559 234.983 21.2559V26.4034C234.983 27.4075 235.027 28.0247 235.111 28.2482C235.198 28.4717 235.355 28.6585 235.59 28.802C235.825 28.9454 236.204 29.0188 236.728 29.0188H237.821C239.532 29.0188 240.905 28.6218 241.938 27.8312C242.968 27.0406 243.709 25.8363 244.162 24.2183H244.665L243.84 30.023H227.975V29.5559H228.589C229.122 29.5559 229.555 29.4625 229.884 29.269C230.118 29.1422 230.3 28.9254 230.427 28.6152C230.528 28.3983 230.578 27.8245 230.578 26.8971V14.8641C230.578 14.0268 230.555 13.5164 230.511 13.3229C230.42 13.0026 230.253 12.7591 230.008 12.5856C229.662 12.3321 229.189 12.2053 228.592 12.2053H227.978V11.7383H243.33V17.0926H242.86C242.595 15.7849 242.226 14.8474 241.75 14.277C241.274 13.7065 240.599 13.2895 239.727 13.0226C239.217 12.8625 238.264 12.7825 236.865 12.7825H234.986L234.983 12.7758Z" fill="#1A171B"/>
<path d="M251.822 12.7758V20.2851H252.328C253.143 20.2851 253.811 20.165 254.328 19.9215C254.844 19.678 255.28 19.271 255.639 18.6972C255.998 18.1234 256.23 17.3461 256.341 16.3687H256.81V25.566H256.341C256.17 23.8246 255.7 22.6771 254.932 22.1233C254.167 21.5695 253.298 21.2926 252.328 21.2926H251.822V26.8971C251.822 27.8412 251.872 28.435 251.976 28.6685C252.08 28.9054 252.285 29.1122 252.586 29.289C252.888 29.4658 253.298 29.5559 253.814 29.5559H254.425V30.023H244.816V29.5559H245.43C245.964 29.5559 246.397 29.4625 246.725 29.269C246.96 29.1422 247.141 28.9254 247.269 28.6152C247.37 28.3983 247.42 27.8245 247.42 26.8971V14.8641C247.42 13.92 247.37 13.3296 247.269 13.0927C247.168 12.8558 246.967 12.649 246.662 12.4722C246.356 12.2954 245.947 12.2053 245.43 12.2053H244.816V11.7383H260.316V16.9825H259.773C259.645 15.7482 259.323 14.8341 258.803 14.2403C258.283 13.6465 257.528 13.2261 256.542 12.9826C255.998 12.8492 254.992 12.7791 253.526 12.7791H251.828L251.822 12.7758Z" fill="#1A171B"/>
<path d="M270.546 29.552V30.019H260.938V29.552H261.551C262.085 29.552 262.518 29.4586 262.846 29.2651C263.081 29.1383 263.262 28.9215 263.39 28.6112C263.491 28.3944 263.541 27.8206 263.541 26.8932V14.8602C263.541 13.9161 263.491 13.3257 263.39 13.0888C263.289 12.8519 263.088 12.6451 262.783 12.4683C262.477 12.2915 262.068 12.2014 261.551 12.2014H260.938V11.7344H270.546V12.2014H269.935C269.402 12.2014 268.973 12.2982 268.647 12.4883C268.412 12.6151 268.228 12.8319 268.09 13.1422C267.99 13.359 267.943 13.9328 267.943 14.8602V26.8932C267.943 27.8373 267.993 28.4311 268.097 28.6646C268.201 28.9015 268.406 29.1083 268.708 29.2851C269.009 29.4619 269.419 29.552 269.935 29.552H270.546Z" fill="#1A171B"/>
<path d="M277.981 11.7344L287.019 22.9901V15.2205C287.019 14.1096 286.861 13.359 286.543 12.9687C286.106 12.4416 285.375 12.1847 284.348 12.2048V11.7377H290.454V12.2048C289.673 12.3048 289.149 12.4349 288.884 12.5951C288.616 12.7552 288.408 13.0121 288.26 13.3724C288.109 13.7326 288.035 14.3498 288.035 15.2238V30.4194H287.569L275.173 15.2739V26.8265C275.173 27.8973 275.418 28.6179 275.907 28.9949C276.397 29.3685 276.957 29.5553 277.588 29.5553H278.028V30.0224H271.489V29.5553C272.502 29.5453 273.207 29.3352 273.603 28.9248C273.998 28.5145 274.2 27.8139 274.2 26.8265V14.0195L273.764 13.4858C273.374 12.9754 273.032 12.6384 272.734 12.4783C272.435 12.3182 272.006 12.2281 271.445 12.2081V11.741H277.984L277.981 11.7344Z" fill="#1A171B"/>
<path d="M307.833 11.3398V17.7717H307.363C306.756 16.0236 305.847 14.6925 304.635 13.7851C303.424 12.8744 302.099 12.4207 300.66 12.4207C299.221 12.4207 298.14 12.8044 297.224 13.5683C296.312 14.3322 295.664 15.4031 295.285 16.7709C294.906 18.142 294.715 19.5464 294.715 20.9876C294.715 22.7323 294.923 24.2635 295.336 25.5813C295.752 26.899 296.419 27.8664 297.345 28.4836C298.268 29.1008 299.368 29.411 300.64 29.411C301.083 29.411 301.535 29.3643 301.998 29.2709C302.461 29.1775 302.938 29.0374 303.424 28.8572V25.0642C303.424 24.3336 303.374 23.8599 303.273 23.643C303.173 23.4295 302.968 23.2361 302.653 23.0592C302.341 22.8858 301.958 22.799 301.515 22.799H301.039V22.332H309.997V22.799C309.316 22.8457 308.839 22.9392 308.571 23.0793C308.302 23.2194 308.094 23.4562 307.95 23.7865C307.87 23.96 307.826 24.387 307.826 25.0642V28.8572C306.652 29.371 305.434 29.7613 304.166 30.0248C302.898 30.285 301.582 30.4185 300.22 30.4185C298.479 30.4185 297.033 30.185 295.882 29.7146C294.732 29.2442 293.718 28.627 292.839 27.8598C291.96 27.0925 291.273 26.2318 290.776 25.2744C290.145 24.04 289.83 22.6556 289.83 21.1244C289.83 18.3855 290.8 16.067 292.746 14.1788C294.688 12.2906 297.134 11.3432 300.079 11.3432C300.992 11.3432 301.814 11.4132 302.545 11.5567C302.941 11.6301 303.585 11.8302 304.478 12.1672C305.367 12.5041 305.894 12.6709 306.058 12.6709C306.31 12.6709 306.544 12.5775 306.762 12.394C306.981 12.2105 307.178 11.8569 307.36 11.3432H307.829L307.833 11.3398Z" fill="#1A171B"/>
<path d="M73.1007 23.5172H64.9884L64.0222 25.739C63.7068 26.4796 63.5491 27.0934 63.5491 27.5738C63.5491 28.2143 63.8075 28.6847 64.3275 28.9882C64.6328 29.1684 65.3843 29.3018 66.5787 29.3919V30.0157H58.9395V29.3919C59.7648 29.2685 60.4425 28.9282 60.9726 28.3744C61.5026 27.8173 62.1568 26.6697 62.9385 24.9317L71.1548 6.70703H71.4769L79.7602 25.4354C80.552 27.2101 81.1995 28.3277 81.7094 28.7881C82.0919 29.1384 82.6354 29.3385 83.3366 29.3952V30.0191H72.225V29.3952H72.6813C73.5737 29.3952 74.2011 29.2718 74.5601 29.0249C74.8083 28.8448 74.9325 28.5879 74.9325 28.251C74.9325 28.0475 74.8989 27.8407 74.8318 27.6272C74.8083 27.5271 74.6406 27.1034 74.3252 26.3628L73.104 23.5172H73.1007ZM72.527 22.2729L69.1049 14.4065L65.5822 22.2729H72.527Z" fill="#1A171B"/>
<path d="M99.1482 6.66016L99.3361 14.2729H98.6416C98.3128 12.3647 97.5076 10.8302 96.2294 9.6659C94.9478 8.50497 93.5622 7.9245 92.0726 7.9245C90.9219 7.9245 90.0093 8.23142 89.3384 8.84191C88.6674 9.45573 88.3319 10.1596 88.3319 10.9569C88.3319 11.464 88.4493 11.911 88.6875 12.3047C89.0163 12.8318 89.5396 13.3555 90.2643 13.8693C90.7944 14.2396 92.0189 14.8968 93.9413 15.8409C96.6286 17.1552 98.4403 18.3962 99.3797 19.5638C100.306 20.7314 100.769 22.0692 100.769 23.5737C100.769 25.4819 100.02 27.1232 98.5242 28.501C97.0279 29.8788 95.129 30.566 92.8241 30.566C92.1028 30.566 91.4184 30.4926 90.7743 30.3458C90.1301 30.199 89.3216 29.9255 88.352 29.5218C87.8085 29.2983 87.3623 29.1849 87.0134 29.1849C86.7181 29.1849 86.4095 29.2983 86.0807 29.5218C85.7519 29.7453 85.4869 30.089 85.2856 30.5493H84.6582V21.9257H85.2856C85.7821 24.351 86.7383 26.2025 88.1574 27.4769C89.5732 28.7512 91.103 29.3884 92.7403 29.3884C94.0051 29.3884 95.0116 29.0448 95.7631 28.3609C96.5146 27.677 96.8903 26.8797 96.8903 25.969C96.8903 25.4286 96.7461 24.9081 96.4575 24.4044C96.169 23.8973 95.7329 23.4203 95.1458 22.9632C94.5586 22.5095 93.5186 21.9157 92.029 21.1851C89.9389 20.1643 88.4392 19.2936 87.5233 18.573C86.6074 17.8558 85.9062 17.0518 85.4131 16.1645C84.9232 15.2771 84.675 14.2996 84.675 13.2354C84.675 11.4173 85.346 9.86606 86.6913 8.58837C88.0366 7.30734 89.7275 6.67016 91.774 6.67016C92.5188 6.67016 93.2401 6.76024 93.9413 6.94038C94.4714 7.07382 95.1189 7.32402 95.8805 7.69098C96.6421 8.05461 97.1755 8.23809 97.4808 8.23809C97.7861 8.23809 98.0075 8.14802 98.1753 7.96787C98.343 7.78773 98.5041 7.35405 98.6483 6.67016H99.1549L99.1482 6.66016Z" fill="#1A171B"/>
<path d="M110.729 8.49579V17.7932H111.186C112.642 17.7932 113.699 17.3396 114.353 16.4288C115.007 15.5181 115.426 14.177 115.608 12.4023H116.252V24.3619H115.608C115.473 23.0575 115.188 21.9933 114.752 21.1626C114.316 20.332 113.813 19.7715 113.236 19.4879C112.659 19.201 111.823 19.0576 110.729 19.0576V25.4928C110.729 26.7504 110.783 27.5211 110.891 27.8013C110.998 28.0815 111.199 28.3117 111.491 28.4918C111.786 28.672 112.259 28.7621 112.914 28.7621H114.286C116.43 28.7621 118.151 28.2683 119.442 27.2809C120.734 26.2934 121.663 24.7889 122.227 22.7672H122.854L121.821 30.0264H101.97V29.4026H102.731C103.399 29.4026 103.932 29.2858 104.342 29.0489C104.637 28.8922 104.862 28.6219 105.019 28.2416C105.144 27.9714 105.207 27.2642 105.207 26.1199V11.0979C105.207 10.0637 105.18 9.42987 105.123 9.19635C105.009 8.8027 104.801 8.49912 104.496 8.28562C104.067 7.97203 103.479 7.81524 102.735 7.81524H101.973V7.19141H121.197V13.9468H120.553C120.224 12.2955 119.764 11.1112 119.174 10.394C118.58 9.67673 117.741 9.14631 116.658 8.80937C116.024 8.60587 114.839 8.50579 113.101 8.50579H110.729V8.49579Z" fill="#1A171B"/>
<path d="M137.982 23.5172H129.869L128.903 25.739C128.588 26.4796 128.43 27.0934 128.43 27.5738C128.43 28.2143 128.688 28.6847 129.208 28.9882C129.514 29.1684 130.265 29.3018 131.46 29.3919V30.0157H123.82V29.3919C124.646 29.2685 125.323 28.9282 125.853 28.3744C126.383 27.8173 127.038 26.6697 127.819 24.9317L136.036 6.70703H136.358L144.641 25.4354C145.433 27.2101 146.08 28.3277 146.59 28.7881C146.973 29.1384 147.516 29.3385 148.217 29.3952V30.0191H137.106V29.3952H137.562C138.455 29.3952 139.082 29.2718 139.441 29.0249C139.689 28.8448 139.813 28.5879 139.813 28.251C139.813 28.0475 139.78 27.8407 139.713 27.6272C139.689 27.5271 139.521 27.1034 139.206 26.3628L137.988 23.5172H137.982ZM137.404 22.2729L133.982 14.4065L130.46 22.2729H137.404Z" fill="#1A171B"/>
<path d="M156.373 7.17969L167.706 21.3444V11.5265C167.706 10.1554 167.508 9.23133 167.113 8.74761C166.569 8.09709 165.663 7.78017 164.385 7.80352V7.17969H171.974V7.80352C171.001 7.92695 170.35 8.08708 170.018 8.28391C169.686 8.48073 169.424 8.80099 169.24 9.24468C169.052 9.68837 168.961 10.449 168.961 11.5265V30.5418H168.384L152.851 11.5265V26.0448C152.851 27.3592 153.153 28.2466 153.756 28.707C154.36 29.1673 155.051 29.3975 155.83 29.3975H156.373V30.0214H148.228V29.3975C149.492 29.3875 150.371 29.1273 150.871 28.6236C151.368 28.1198 151.616 27.2591 151.616 26.0482V9.92522L151.126 9.31807C150.64 8.71092 150.21 8.31393 149.838 8.12378C149.466 7.93363 148.929 7.82687 148.228 7.80352V7.17969H156.373Z" fill="#1A171B"/>
<path d="M23.3739 2.64062C10.4641 2.64062 0 13.0456 0 25.8826C0 38.7196 10.4641 49.1213 23.3739 49.1213C36.2837 49.1213 46.7444 38.7162 46.7444 25.8826C46.7444 13.049 36.2803 2.64062 23.3739 2.64062Z" fill="url(#paint0_linear_3654_2892)"/>
<path d="M21.9081 25.8543C21.9081 25.8543 23.7231 20.2531 22.6864 15.8763C21.6498 11.4961 21.1566 10.7021 21.6498 7.38281C20.8848 9.40777 19.8414 15.1057 20.905 17.8979C21.9685 20.6902 21.9081 25.8543 21.9081 25.8543Z" fill="#F5E71D"/>
<path d="M20.9117 26.4835C20.9117 26.4835 21.8846 20.8256 20.187 16.5689C18.4894 12.3088 17.8755 11.5548 17.8688 8.24219C17.4091 10.2938 17.2213 15.9951 18.7075 18.6839C20.1937 21.3727 20.9117 26.4835 20.9117 26.4835Z" fill="#F5E71D"/>
<path d="M19.9918 26.2995C19.9918 26.2995 19.8878 20.6283 17.3883 16.5717C14.8889 12.5151 14.134 11.8279 13.4999 8.55859C13.4295 10.6236 14.3253 16.2714 16.3181 18.7935C18.3076 21.3155 19.9918 26.2962 19.9918 26.2962V26.2995Z" fill="#F5E71D"/>
<path d="M19.3614 26.4226C19.3614 26.4226 17.9657 20.8414 14.5772 17.1318C11.1854 13.4188 10.2829 12.8283 8.91406 9.67578C9.31666 11.7208 11.4839 17.1851 14.0236 19.4436C16.5633 21.7021 19.3614 26.4226 19.3614 26.4226Z" fill="#F5E71D"/>
<path d="M18.8849 26.6582C18.8849 26.6582 16.2882 21.3339 12.1314 18.1046C7.97126 14.8754 6.95136 14.405 4.9082 11.4727C5.75365 13.4376 9.08846 18.5483 12.0911 20.4532C15.0905 22.3581 18.8849 26.6582 18.8849 26.6582Z" fill="#F5E71D"/>
<path d="M24.5685 25.9096C24.5685 25.9096 22.7333 20.3151 23.7566 15.9349C24.7765 11.5514 25.2697 10.7541 24.7664 7.44141C25.5381 9.46303 26.6016 15.1576 25.5481 17.9498C24.4947 20.7454 24.5718 25.9096 24.5718 25.9096H24.5685Z" fill="#F5E71D"/>
<path d="M25.5342 26.2882C25.5342 26.2882 24.558 20.6303 26.2556 16.3736C27.9498 12.1135 28.5671 11.3595 28.5705 8.04688C29.0301 10.0985 29.2213 15.7998 27.7351 18.4886C26.2488 21.1774 25.5342 26.2882 25.5342 26.2882Z" fill="#F5E71D"/>
<path d="M26.1387 26.5242C26.1387 26.5242 26.35 20.853 28.9199 16.8398C31.4932 12.8232 32.2614 12.146 32.9559 8.88672C32.9861 10.955 31.9863 16.5862 29.9499 19.0782C27.9134 21.5669 26.1387 26.5242 26.1387 26.5242Z" fill="#F5E71D"/>
<path d="M26.9199 26.309C26.9199 26.309 28.4531 20.7612 31.9356 17.1216C35.418 13.482 36.3339 12.9082 37.7832 9.78906C37.3303 11.824 35.0255 17.2417 32.4287 19.4468C29.832 21.6519 26.9199 26.309 26.9199 26.309Z" fill="#F5E71D"/>
<path d="M27.2959 26.5997C27.2959 26.5997 30.0973 21.3688 34.3815 18.2797C38.6624 15.1905 39.7025 14.7568 41.8563 11.8945C40.9371 13.8294 37.401 18.8268 34.3279 20.6282C31.2547 22.4297 27.2959 26.5963 27.2959 26.5963V26.5997Z" fill="#F5E71D"/>
<path d="M21.8475 25.9102C21.8475 25.9102 23.6626 31.508 22.6259 35.8882C21.5892 40.2683 21.096 41.0656 21.5892 44.3816C20.8243 42.36 19.7809 36.6621 20.8444 33.8699C21.9079 31.0776 21.8475 25.9135 21.8475 25.9135V25.9102Z" fill="#F5E71D"/>
<path d="M20.8541 25.2768C20.8541 25.2768 21.827 30.9346 20.1294 35.1914C18.4318 39.4515 17.8178 40.2054 17.8111 43.5147C17.3515 41.4631 17.1636 35.7619 18.6499 33.073C20.1361 30.3842 20.8541 25.2734 20.8541 25.2734V25.2768Z" fill="#F5E71D"/>
<path d="M19.9312 25.4643C19.9312 25.4643 19.8272 31.1388 17.3278 35.1921C14.8317 39.2487 14.0735 39.9359 13.4394 43.2052C13.3689 41.1402 14.2681 35.489 16.2575 32.967C18.247 30.4449 19.9312 25.4609 19.9312 25.4609V25.4643Z" fill="#F5E71D"/>
<path d="M19.3008 25.3438C19.3008 25.3438 17.9085 30.9216 14.5167 34.6345C11.1248 38.3475 10.2223 38.938 8.85352 42.0905C9.25275 40.0455 11.4234 34.5812 13.9631 32.3193C16.5028 30.0609 19.3008 25.3438 19.3008 25.3438Z" fill="#F5E71D"/>
<path d="M18.8849 25.1055C18.8849 25.1055 16.2345 30.4064 12.0442 33.599C7.85387 36.7948 6.82726 37.2552 4.75391 40.1709C5.61948 38.2127 9.00797 33.1319 12.0274 31.2504C15.0469 29.3689 18.8849 25.1055 18.8849 25.1055Z" fill="#F5E71D"/>
<path d="M24.5109 25.8549C24.5109 25.8549 22.6757 31.4494 23.699 35.8296C24.7189 40.2131 25.2121 41.0104 24.7088 44.3231C25.4805 42.3014 26.544 36.6069 25.4905 33.8113C24.4371 31.0157 24.5142 25.8516 24.5142 25.8516L24.5109 25.8549Z" fill="#F5E71D"/>
<path d="M25.4776 25.476C25.4776 25.476 24.5013 31.1339 26.1989 35.3906C27.8932 39.6507 28.5105 40.4046 28.5138 43.7173C28.9735 41.6657 29.1647 35.9611 27.6784 33.2722C26.1922 30.5834 25.4776 25.4727 25.4776 25.4727V25.476Z" fill="#F5E71D"/>
<path d="M26.0811 25.2422C26.0811 25.2422 26.2924 30.9134 28.8623 34.9266C31.4355 38.9432 32.2038 39.6204 32.8983 42.8797C32.9285 40.8113 31.9287 35.1802 29.8956 32.6882C27.8592 30.1962 26.0844 25.2422 26.0844 25.2422H26.0811Z" fill="#F5E71D"/>
<path d="M26.8594 25.457C26.8594 25.457 28.3926 31.0048 31.875 34.6444C35.3574 38.284 36.2767 38.8545 37.726 41.977C37.2731 39.942 34.9683 34.5243 32.3715 32.3192C29.7782 30.1174 26.8627 25.457 26.8627 25.457H26.8594Z" fill="#F5E71D"/>
<path d="M27.1582 25.1602C27.1582 25.1602 30.0602 30.3477 34.3982 33.3701C38.7361 36.3925 39.7829 36.8128 41.9938 39.6418C41.0376 37.7202 37.4109 32.7796 34.3042 31.0249C31.1976 29.2668 27.1616 25.1635 27.1616 25.1635L27.1582 25.1602Z" fill="#F5E71D"/>
<path d="M28.6544 25.1602H17.5361V26.658H28.6544V25.1602Z" fill="#F5E71D"/>
</g>
<defs>
<linearGradient id="paint0_linear_3654_2892" x1="23.3739" y1="2.64062" x2="23.3739" y2="49.1213" gradientUnits="userSpaceOnUse">
<stop stop-color="#E5352E"/>
<stop offset="0.12" stop-color="#D33435"/>
<stop offset="0.36" stop-color="#A53347"/>
<stop offset="0.7" stop-color="#5B3165"/>
<stop offset="1" stop-color="#162F82"/>
</linearGradient>
<clipPath id="clip0_3654_2892">
<rect width="310" height="54" fill="white"/>
</clipPath>
</defs>
</svg>
