<svg width="26" height="26" viewBox="0 0 26 26" fill="none" xmlns="http://www.w3.org/2000/svg">
<g clip-path="url(#clip0_3600_851)">
<path d="M25.28 12.65C25.28 19.63 19.61 25.29 12.63 25.28C5.65 25.27 0 19.61 0 12.63C0 5.65 5.67 0 12.65 0C19.63 0 25.29 5.67 25.28 12.65Z" fill="url(#paint0_linear_3600_851)"/>
<path d="M11.8716 12.6516C12.4116 10.9016 12.5516 9.04156 12.2816 7.23156C11.7216 4.85156 11.4616 4.42156 11.7216 2.60156C11.3116 3.71156 10.7216 6.79156 11.3116 8.31156C11.7116 9.72156 11.9016 11.1816 11.8716 12.6516Z" fill="#F2EA39"/>
<path d="M11.3323 12.9603C11.6223 11.1603 11.4823 9.33031 10.9423 7.59031C10.0323 5.27031 9.69226 4.86031 9.69226 3.07031C9.43226 4.19031 9.34226 7.28031 10.1423 8.75031C10.7323 10.0903 11.1323 11.5103 11.3323 12.9603Z" fill="#F2EA39"/>
<path d="M10.8294 12.8787C10.7794 11.0387 10.3094 9.22875 9.45937 7.58875C8.11937 5.37875 7.70937 5.00875 7.35938 3.21875C7.35938 4.34875 7.81937 7.40875 8.86937 8.76875C9.70937 10.0487 10.3894 11.4288 10.8694 12.8787" fill="#F2EA39"/>
<path d="M10.4569 12.9381C9.95687 11.0881 9.06687 9.36812 7.85687 7.88812C6.02687 5.88812 5.54688 5.54813 4.79688 3.82812C5.26687 5.79813 6.21687 7.61813 7.55687 9.13813C8.67687 10.2881 9.64687 11.5581 10.4569 12.9381Z" fill="#F2EA39"/>
<path d="M10.2475 13.0703C9.3475 11.3003 8.1075 9.72031 6.5975 8.43031C4.3475 6.68031 3.7875 6.43031 2.6875 4.82031C3.5975 6.72031 4.9275 8.39031 6.5775 9.70031C7.9175 10.6903 9.1475 11.8203 10.2475 13.0703Z" fill="#F2EA39"/>
<path d="M13.3205 12.6494C12.7605 10.8994 12.6105 9.04938 12.8805 7.22937C13.4505 4.84937 13.7005 4.41937 13.4205 2.60938C13.8305 3.70938 14.4205 6.79938 13.8605 8.30938C13.4705 9.71938 13.2905 11.1794 13.3205 12.6494Z" fill="#F2EA39"/>
<path d="M13.8309 12.8609C13.5509 11.0609 13.6809 9.22094 14.2209 7.48094C15.1309 5.17094 15.4809 4.76094 15.4809 2.96094C15.7409 4.09094 15.8209 7.17094 15.0209 8.64094C14.4309 9.98094 14.0309 11.4009 13.8309 12.8609Z" fill="#F2EA39"/>
<path d="M14.1562 12.9906C14.2463 11.1406 14.7663 9.33062 15.6663 7.71062C17.0463 5.53062 17.4763 5.17062 17.8463 3.39062C17.8463 4.52062 17.3262 7.59062 16.2262 8.92062C15.3562 10.1806 14.6662 11.5506 14.1562 12.9906Z" fill="#F2EA39"/>
<path d="M14.5869 12.8828C15.1169 11.0428 16.0369 9.33281 17.2869 7.88281C19.1669 5.88281 19.6669 5.59281 20.4369 3.88281C19.9169 5.84281 18.9269 7.64281 17.5469 9.13281C16.3969 10.2428 15.3869 11.4928 14.5469 12.8528" fill="#F2EA39"/>
<path d="M14.7822 13.0291C15.7522 11.2891 17.0522 9.74906 18.6122 8.50906C20.9222 6.82906 21.4822 6.58906 22.6122 5.03906C21.6222 6.89906 20.2422 8.52906 18.5522 9.78906C17.1622 10.7191 15.8922 11.8091 14.7422 13.0291" fill="#F2EA39"/>
<path d="M11.8482 12.6484C12.3882 14.3984 12.5282 16.2584 12.2582 18.0684C11.6982 20.4484 11.4382 20.8784 11.6982 22.6884C11.2882 21.5884 10.6982 18.4984 11.2882 16.9884C11.6782 15.5784 11.8682 14.1184 11.8482 12.6484Z" fill="#F2EA39"/>
<path d="M11.3088 12.3212C11.5888 14.1012 11.4588 15.9312 10.9188 17.6512C10.0088 19.9612 9.66882 20.3813 9.66882 22.1713C9.40882 21.0413 9.31882 17.9613 10.1188 16.4913C10.7088 15.1512 11.1088 13.7313 11.3088 12.2812" fill="#F2EA39"/>
<path d="M10.8125 12.4219C10.7525 14.2719 10.2725 16.0819 9.4125 17.7219C8.0725 19.9219 7.6625 20.2919 7.3125 22.0819C7.3125 20.9619 7.7625 17.8919 8.8225 16.5319C9.6625 15.2519 10.3325 13.8719 10.8225 12.4219" fill="#F2EA39"/>
<path d="M10.4625 12.3594C9.9625 14.1894 9.0825 15.8994 7.8725 17.3594C6.0425 19.3594 5.5625 19.6994 4.8125 21.4194C5.2825 19.4494 6.2325 17.6294 7.5725 16.1094C8.6825 14.9794 9.6425 13.7194 10.4625 12.3594Z" fill="#F2EA39"/>
<path d="M10.2472 12.2266C9.32719 13.9966 8.07719 15.5566 6.55719 16.8466C4.28719 18.5766 3.74719 18.8466 2.61719 20.4166C3.54719 18.5266 4.89719 16.8666 6.55719 15.5766C7.89719 14.5866 9.13719 13.4666 10.2472 12.2266Z" fill="#F2EA39"/>
<path d="M13.2661 12.6484C12.7061 14.3984 12.5661 16.2484 12.8361 18.0684C13.3961 20.4484 13.6561 20.8784 13.3761 22.6884C13.7861 21.5884 14.3761 18.4984 13.8061 16.9884C13.4161 15.5784 13.2361 14.1184 13.2661 12.6484Z" fill="#F2EA39"/>
<path d="M13.7885 12.4219C13.4985 14.2219 13.6385 16.0619 14.1785 17.8019C15.0885 20.1119 15.4285 20.5219 15.4285 22.3219C15.6885 21.1919 15.7785 18.1019 14.9785 16.6419C14.3885 15.3019 13.9885 13.8819 13.7885 12.4219Z" fill="#F2EA39"/>
<path d="M14.1406 12.2891C14.2306 14.1391 14.7406 15.9391 15.6506 17.5591C17.0306 19.7491 17.4606 20.1091 17.8306 21.8791C17.8306 20.7591 17.3106 17.6891 16.2106 16.3491C15.3406 15.0991 14.6406 13.7291 14.1406 12.2891Z" fill="#F2EA39"/>
<path d="M14.5478 12.3984C15.0778 14.2384 15.9978 15.9484 17.2478 17.3984C19.1278 19.3984 19.6178 19.6884 20.3978 21.3984C19.8778 19.4384 18.8878 17.6384 17.5078 16.1484C16.3578 15.0384 15.3478 13.7884 14.5078 12.4284" fill="#F2EA39"/>
<path d="M14.7031 12.25C15.7031 13.97 17.0331 15.49 18.6131 16.7C20.9631 18.34 21.5231 18.58 22.7131 20.11C21.6931 18.26 20.2731 16.67 18.5631 15.43C17.1631 14.51 15.8731 13.45 14.7031 12.25Z" fill="#F2EA39"/>
<path d="M15.5078 12.25H9.50781V13.07H15.5078V12.25Z" fill="#F2EA39"/>
</g>
<defs>
<linearGradient id="paint0_linear_3600_851" x1="12.64" y1="0" x2="12.64" y2="25.28" gradientUnits="userSpaceOnUse">
<stop stop-color="#EF4136"/>
<stop offset="0.1" stop-color="#E13F40"/>
<stop offset="0.3" stop-color="#C13B54"/>
<stop offset="0.48" stop-color="#A03864"/>
<stop offset="0.72" stop-color="#753479"/>
<stop offset="1" stop-color="#2E3192"/>
</linearGradient>
<clipPath id="clip0_3600_851">
<rect width="25.28" height="25.28" fill="white"/>
</clipPath>
</defs>
</svg>
