<svg width="331" height="52" viewBox="0 0 331 52" fill="none" xmlns="http://www.w3.org/2000/svg">
<g clip-path="url(#clip0_3654_2854)">
<path d="M51.4627 26C51.4627 40.3588 39.9418 52 25.7313 52C11.5209 52 0 40.3588 0 26C0 11.6412 11.5209 0 25.7313 0C39.9418 0 51.4627 11.6412 51.4627 26Z" fill="url(#paint0_linear_3654_2854)"/>
<path d="M71.8706 27.8769L68.1089 19.0837L64.233 27.8769H71.8743H71.8706ZM72.5043 29.2692H63.5809L62.5198 31.7523C62.1698 32.5825 61.9966 33.2638 61.9966 33.8036C61.9966 34.5184 62.2803 35.047 62.8551 35.3858C63.1903 35.5868 64.0156 35.7357 65.3346 35.8362V36.5324H56.9307V35.8362C57.837 35.6985 58.5812 35.3188 59.167 34.6971C59.7492 34.0754 60.4713 32.791 61.3298 30.8477L70.3674 10.4766H70.7211L79.8324 31.4136C80.7019 33.3978 81.4167 34.6449 81.9767 35.1624C82.4004 35.5496 82.9936 35.7767 83.7636 35.84V36.5361H71.5427V35.84H72.0438C73.0238 35.84 73.7128 35.7022 74.1144 35.4267C74.387 35.2257 74.5233 34.939 74.5233 34.563C74.5233 34.336 74.4865 34.1051 74.4128 33.8669C74.387 33.7552 74.2028 33.2824 73.8528 32.4559L72.5117 29.273L72.5043 29.2692Z" fill="#1A171B"/>
<path d="M100.586 10.4258L100.793 18.9361H100.03C99.669 16.8029 98.7848 15.0867 97.3737 13.7875C95.9626 12.4882 94.4409 11.8367 92.8014 11.8367C91.534 11.8367 90.5319 12.1792 89.7913 12.8642C89.0508 13.5492 88.6823 14.3347 88.6823 15.2282C88.6823 15.7941 88.8113 16.2966 89.0729 16.7359C89.4339 17.3278 90.0124 17.9086 90.8045 18.4856C91.3903 18.8989 92.7351 19.6323 94.8499 20.6895C97.8047 22.1563 99.798 23.5449 100.83 24.8516C101.846 26.1583 102.359 27.6512 102.359 29.3339C102.359 31.467 101.533 33.3024 99.8901 34.8399C98.2432 36.3774 96.1542 37.1443 93.6193 37.1443C92.8235 37.1443 92.0719 37.0624 91.3645 36.8986C90.6571 36.7348 89.7692 36.4295 88.7008 35.9753C88.1039 35.7259 87.6139 35.5993 87.2307 35.5993C86.9065 35.5993 86.5675 35.7259 86.2065 35.9753C85.8454 36.2285 85.5543 36.6082 85.3296 37.1219H84.6406V27.4836H85.3296C85.8749 30.1938 86.9286 32.2637 88.4871 33.6858C90.0455 35.1116 91.7256 35.8227 93.5272 35.8227C94.9199 35.8227 96.0289 35.4392 96.8542 34.6761C97.6795 33.9092 98.0921 33.0194 98.0921 32.0031C98.0921 31.4 97.9337 30.8155 97.6168 30.2534C97.3 29.6875 96.8173 29.1514 96.1726 28.6451C95.5278 28.1388 94.382 27.4762 92.7461 26.6609C90.4471 25.518 88.7965 24.5463 87.7907 23.7422C86.7849 22.9381 86.0112 22.0409 85.4696 21.0506C84.928 20.0604 84.659 18.9659 84.659 17.7746C84.659 15.7419 85.3996 14.0108 86.877 12.5776C88.3544 11.148 90.2187 10.4332 92.4661 10.4332C93.2841 10.4332 94.0799 10.5337 94.8499 10.7348C95.432 10.8837 96.1431 11.1666 96.9831 11.5724C97.8232 11.9819 98.409 12.1829 98.7442 12.1829C99.0795 12.1829 99.3227 12.0824 99.5069 11.8814C99.6948 11.6804 99.868 11.1964 100.03 10.4332H100.59L100.586 10.4258Z" fill="#1A171B"/>
<path d="M112.221 12.4785V22.8725H112.726C114.329 22.8725 115.489 22.3625 116.211 21.3462C116.93 20.3299 117.39 18.8296 117.589 16.8453H118.297V30.2139H117.589C117.442 28.7583 117.125 27.567 116.65 26.6363C116.171 25.7093 115.614 25.0839 114.984 24.7637C114.351 24.4436 113.43 24.2835 112.225 24.2835V31.4759C112.225 32.8831 112.284 33.7431 112.402 34.0558C112.52 34.3685 112.741 34.6254 113.065 34.8264C113.389 35.0275 113.909 35.128 114.631 35.128H116.141C118.499 35.128 120.393 34.577 121.815 33.4713C123.237 32.3657 124.258 30.683 124.88 28.427H125.569L124.435 36.5426H102.598V35.8465H103.438C104.171 35.8465 104.76 35.7162 105.21 35.4519C105.534 35.2769 105.781 34.9754 105.954 34.5472C106.09 34.2457 106.16 33.4565 106.16 32.1758V15.3823C106.16 14.2282 106.131 13.5172 106.068 13.2528C105.943 12.8136 105.715 12.4748 105.379 12.2365C104.908 11.8866 104.263 11.7079 103.441 11.7079H102.601V11.0117H123.749V18.5615H123.042C122.681 16.715 122.176 15.3934 121.524 14.5893C120.872 13.7852 119.951 13.197 118.757 12.821C118.061 12.5939 116.757 12.4822 114.844 12.4822H112.236L112.221 12.4785Z" fill="#1A171B"/>
<path d="M140.989 27.8769L137.223 19.0837L133.347 27.8769H140.989ZM141.622 29.2692H132.699L131.638 31.7523C131.288 32.5825 131.115 33.2638 131.115 33.8036C131.115 34.5184 131.398 35.047 131.973 35.3858C132.309 35.5868 133.134 35.7357 134.453 35.8362V36.5324H126.049V35.8362C126.955 35.6985 127.699 35.3188 128.285 34.6971C128.867 34.0754 129.589 32.791 130.448 30.8477L139.486 10.4766H139.839L148.951 31.4136C149.82 33.3978 150.535 34.6449 151.095 35.1624C151.519 35.5496 152.112 35.7767 152.882 35.84V36.5361H140.661V35.84H141.162C142.142 35.84 142.831 35.7022 143.233 35.4267C143.505 35.2257 143.641 34.939 143.641 34.563C143.641 34.336 143.605 34.1051 143.531 33.8669C143.505 33.7552 143.321 33.2824 142.971 32.4559L141.63 29.273L141.622 29.2692Z" fill="#1A171B"/>
<path d="M161.282 11.0115L173.746 26.8446V15.8698C173.746 14.3397 173.528 13.3048 173.094 12.765C172.497 12.0353 171.498 11.6854 170.094 11.7114V11.0153H178.443V11.7114C177.375 11.8492 176.656 12.0279 176.292 12.2475C175.923 12.4671 175.639 12.8245 175.433 13.3197C175.227 13.8148 175.127 14.6673 175.127 15.8698V37.1269H174.494L157.406 15.8698V32.0974C157.406 33.568 157.737 34.5582 158.404 35.072C159.067 35.5857 159.83 35.8426 160.688 35.8426H161.285V36.5387H152.321V35.8426C153.714 35.8314 154.679 35.541 155.228 34.9752C155.774 34.4093 156.046 33.4488 156.046 32.0937V14.0754L155.505 13.3978C154.97 12.7203 154.499 12.2736 154.09 12.0614C153.681 11.8492 153.091 11.73 152.321 11.704V11.0078H161.285L161.282 11.0115Z" fill="#1A171B"/>
<path d="M194.017 22.4965C195.782 22.4965 197.083 22.2955 197.919 21.8934C198.759 21.4914 199.4 20.9255 199.85 20.1996C200.295 19.4736 200.52 18.5429 200.52 17.4112C200.52 16.2795 200.299 15.3562 199.861 14.634C199.419 13.9118 198.789 13.3608 197.971 12.9848C197.149 12.6088 195.834 12.4264 194.021 12.4375V22.4928L194.017 22.4965ZM194.017 23.9633V32.1535L193.999 33.0953C193.999 33.7729 194.168 34.2829 194.511 34.6291C194.854 34.9753 195.358 35.1466 196.029 35.1466C197.024 35.1466 197.937 34.9232 198.777 34.4765C199.618 34.0298 200.259 33.3857 200.704 32.5369C201.15 31.6881 201.375 30.7463 201.375 29.7039C201.375 28.5126 201.102 27.4404 200.553 26.4948C200.008 25.5455 199.256 24.8866 198.299 24.5069C197.341 24.1308 195.915 23.9484 194.014 23.9596M200.796 23.0028C203.195 23.5687 204.879 24.25 205.844 25.0541C207.237 26.197 207.933 27.6787 207.933 29.4954C207.933 31.4164 207.17 33.0023 205.641 34.2606C203.766 35.7795 201.04 36.5389 197.462 36.5389H184.626V35.8428C185.794 35.8428 186.586 35.7348 187.002 35.5114C187.419 35.2918 187.71 35.0051 187.879 34.6552C188.045 34.3052 188.13 33.4378 188.13 32.0567V15.4902C188.13 14.1091 188.045 13.2417 187.879 12.8843C187.71 12.5269 187.415 12.2402 186.995 12.028C186.571 11.8158 185.783 11.7079 184.63 11.7079V11.0117H196.74C199.636 11.0117 201.684 11.2723 202.889 11.7935C204.094 12.3147 205.045 13.0928 205.741 14.1277C206.437 15.1626 206.784 16.2646 206.784 17.4335C206.784 18.6621 206.341 19.7603 205.461 20.7208C204.58 21.6812 203.026 22.4444 200.804 23.0066" fill="#1A171B"/>
<path d="M215.876 17.1719V26.1401H216.727C218.112 26.1401 219.148 26.0135 219.833 25.7567C220.518 25.4998 221.06 25.0382 221.454 24.3681C221.848 23.698 222.043 22.8268 222.043 21.7472C222.043 20.1874 221.682 19.037 220.96 18.2887C220.238 17.5442 219.074 17.1719 217.471 17.1719H215.872H215.876ZM215.876 27.2085V32.9454C215.876 34.051 215.942 34.7509 216.079 35.0376C216.215 35.3242 216.451 35.5551 216.79 35.7226C217.129 35.8938 217.762 35.9795 218.687 35.9795V36.5379H208.319V35.9795C209.255 35.9795 209.893 35.8901 210.224 35.7151C210.559 35.5402 210.792 35.3094 210.928 35.0301C211.06 34.7472 211.13 34.0548 211.13 32.9454V19.6587C211.13 18.5531 211.064 17.8569 210.928 17.5665C210.795 17.2799 210.556 17.049 210.217 16.8778C209.878 16.7065 209.244 16.6209 208.319 16.6209V16.0625H217.733C220.183 16.0625 221.977 16.2337 223.112 16.5762C224.247 16.9187 225.175 17.5516 225.89 18.4711C226.608 19.3907 226.966 20.4703 226.966 21.71C226.966 23.2214 226.428 24.4686 225.352 25.4551C224.663 26.0805 223.701 26.5459 222.467 26.8586L227.338 33.7867C227.975 34.6839 228.428 35.2423 228.697 35.462C229.106 35.7747 229.578 35.9459 230.116 35.9757V36.5342H223.738L217.21 27.2048H215.88L215.876 27.2085Z" fill="#1A171B"/>
<path d="M239.828 35.9798V36.5382H229.235V35.9798H229.906C230.495 35.9798 230.967 35.8756 231.324 35.6634C231.582 35.5219 231.781 35.2799 231.921 34.9374C232.032 34.6955 232.087 34.0626 232.087 33.0351V19.5697C232.087 18.5236 232.032 17.8684 231.921 17.6078C231.81 17.3472 231.589 17.1164 231.254 16.9228C230.923 16.7255 230.469 16.6287 229.902 16.6287H229.231V16.0703H239.824V16.6287H239.153C238.564 16.6287 238.092 16.733 237.735 16.9452C237.477 17.0866 237.271 17.3286 237.123 17.6711C237.013 17.9131 236.957 18.546 236.957 19.5735V33.0388C236.957 34.0849 237.016 34.7401 237.131 35.0007C237.245 35.2613 237.47 35.4921 237.801 35.6857C238.136 35.883 238.586 35.9798 239.153 35.9798H239.824H239.828Z" fill="#1A171B"/>
<path d="M247.643 17.2467V25.5783H248.044C249.33 25.5783 250.259 25.1688 250.837 24.3573C251.416 23.542 251.784 22.3395 251.942 20.7499H252.51V31.4678H251.942C251.825 30.2988 251.57 29.3458 251.187 28.6012C250.804 27.8567 250.358 27.3541 249.85 27.0972C249.341 26.8404 248.604 26.7138 247.639 26.7138V32.4804C247.639 33.6084 247.687 34.2971 247.779 34.5503C247.875 34.8034 248.052 35.0082 248.31 35.1683C248.568 35.3283 248.988 35.4102 249.566 35.4102H250.774C252.668 35.4102 254.182 34.9672 255.325 34.0812C256.463 33.1952 257.285 31.8475 257.782 30.0345H258.335L257.425 36.542H239.913V35.9835H240.584C241.169 35.9835 241.645 35.8793 242.002 35.6671C242.26 35.5256 242.459 35.2837 242.599 34.9412C242.71 34.6992 242.765 34.0663 242.765 33.0388V19.5735C242.765 18.6465 242.739 18.0806 242.691 17.8684C242.592 17.5148 242.407 17.243 242.138 17.0531C241.759 16.7702 241.243 16.6287 240.584 16.6287H239.913V16.0703H256.872V22.1236H256.305C256.014 20.6456 255.608 19.5809 255.085 18.9369C254.562 18.2928 253.821 17.82 252.867 17.5185C252.311 17.3361 251.265 17.2467 249.728 17.2467H247.635H247.643Z" fill="#1A171B"/>
<path d="M266.904 17.2469V25.6567H267.486C268.381 25.6567 269.114 25.5189 269.682 25.2472C270.249 24.9754 270.728 24.5175 271.122 23.8735C271.517 23.2294 271.771 22.3583 271.892 21.2638H272.416V31.5462H271.892C271.704 29.6029 271.189 28.3222 270.345 27.7042C269.501 27.0862 268.551 26.7773 267.482 26.7773H266.9V33.0427C266.9 34.0888 266.959 34.744 267.073 35.0046C267.187 35.2652 267.412 35.496 267.744 35.6896C268.075 35.8832 268.529 35.9837 269.096 35.9837H269.77V36.5421H259.178V35.9837H259.848C260.434 35.9837 260.909 35.8795 261.267 35.6673C261.525 35.5258 261.724 35.2838 261.864 34.9413C261.974 34.6994 262.029 34.0665 262.029 33.039V19.5736C262.029 18.5275 261.974 17.8723 261.864 17.6117C261.753 17.3511 261.532 17.1203 261.2 16.9267C260.865 16.7294 260.416 16.6326 259.848 16.6326H259.178V16.0742H276.269V21.9451H275.658C275.518 20.5676 275.16 19.5439 274.589 18.8812C274.018 18.2148 273.189 17.7495 272.102 17.4777C271.505 17.3288 270.4 17.2506 268.786 17.2506H266.904V17.2469Z" fill="#1A171B"/>
<path d="M287.164 35.9798V36.5382H276.572V35.9798H277.243C277.832 35.9798 278.304 35.8756 278.661 35.6634C278.919 35.5219 279.118 35.2799 279.258 34.9374C279.368 34.6955 279.424 34.0626 279.424 33.0351V19.5697C279.424 18.5236 279.368 17.8684 279.258 17.6078C279.147 17.3472 278.926 17.1164 278.591 16.9228C278.259 16.7255 277.806 16.6287 277.239 16.6287H276.568V16.0703H287.161V16.6287H286.49C285.901 16.6287 285.429 16.733 285.072 16.9452C284.814 17.0866 284.608 17.3286 284.46 17.6711C284.35 17.9131 284.294 18.546 284.294 19.5735V33.0388C284.294 34.0849 284.353 34.7401 284.468 35.0007C284.582 35.2613 284.807 35.4921 285.138 35.6857C285.473 35.883 285.923 35.9798 286.49 35.9798H287.161H287.164Z" fill="#1A171B"/>
<path d="M294.26 16.0703L304.256 28.765V19.9644C304.256 18.7358 304.083 17.9057 303.733 17.4738C303.254 16.8893 302.454 16.6101 301.327 16.6287V16.0703H308.021V16.6287C307.163 16.7404 306.588 16.8819 306.297 17.0606C306.002 17.2355 305.774 17.5222 305.608 17.9205C305.442 18.3189 305.361 19.0002 305.361 19.9644V37.0073H304.853L291.151 19.9644V32.9792C291.151 34.1557 291.416 34.9523 291.95 35.3656C292.485 35.7788 293.092 35.9835 293.781 35.9835H294.26V36.542H287.072V35.9835C288.189 35.9724 288.966 35.7416 289.404 35.2874C289.843 34.8332 290.064 34.0626 290.064 32.9792V18.5311L289.629 17.9876C289.202 17.444 288.822 17.0866 288.494 16.9154C288.167 16.7441 287.691 16.6473 287.076 16.6287V16.0703H294.264H294.26Z" fill="#1A171B"/>
<path d="M328.624 15.6006V22.8154H328.071C327.405 20.8423 326.402 19.3421 325.069 18.3183C323.735 17.2908 322.276 16.777 320.692 16.777C319.107 16.777 317.917 17.2089 316.912 18.0689C315.906 18.9288 315.195 20.1313 314.775 21.6688C314.358 23.21 314.148 24.7885 314.148 26.4079C314.148 28.3698 314.377 30.0898 314.834 31.5714C315.29 33.0494 316.031 34.1364 317.052 34.8326C318.072 35.5288 319.284 35.875 320.688 35.875C321.174 35.875 321.675 35.8229 322.191 35.7149C322.703 35.6107 323.23 35.4543 323.768 35.2533V30.9944C323.768 30.1903 323.713 29.6691 323.602 29.4308C323.492 29.1963 323.267 28.9804 322.924 28.7905C322.582 28.6006 322.165 28.5039 321.675 28.5039H321.152V27.9454H330.997V28.5039C330.249 28.5522 329.729 28.6565 329.435 28.8128C329.14 28.9692 328.915 29.2261 328.753 29.5909C328.665 29.7845 328.617 30.2498 328.617 30.9944V35.2533C327.323 35.8378 325.975 36.2771 324.575 36.5749C323.175 36.8727 321.723 37.0216 320.22 37.0216C318.297 37.0216 316.702 36.7573 315.43 36.2287C314.159 35.7 313.039 35.0076 312.07 34.1439C311.098 33.2839 310.339 32.316 309.793 31.2364C309.097 29.8478 308.747 28.2917 308.747 26.5717C308.747 23.493 309.819 20.8907 311.96 18.7687C314.1 16.6467 316.797 15.582 320.043 15.582C321.049 15.582 321.955 15.6639 322.762 15.824C323.201 15.9059 323.912 16.133 324.892 16.509C325.872 16.885 326.454 17.0749 326.631 17.0749C326.911 17.0749 327.169 16.9706 327.408 16.7659C327.648 16.5611 327.865 16.1702 328.068 15.5969H328.62L328.624 15.6006Z" fill="#1A171B"/>
<path d="M24.1179 25.9699C24.1179 25.9699 26.1148 19.7045 24.9726 14.8053C23.8342 9.90606 23.2889 9.01631 23.8305 5.30469C22.9905 7.56815 21.841 13.9453 23.0126 17.065C24.1842 20.1884 24.1179 25.9662 24.1179 25.9662" fill="#F6E71C"/>
<path d="M23.0233 26.674C23.0233 26.674 24.0954 20.3452 22.2275 15.5801C20.3595 10.8149 19.6816 9.96981 19.6742 6.26562C19.1658 8.56259 18.9595 14.9397 20.599 17.9478C22.2349 20.9558 23.027 26.6703 23.027 26.6703" fill="#F6E71C"/>
<path d="M22.0102 26.4673C22.0102 26.4673 21.896 20.1199 19.1438 15.5856C16.3953 11.0475 15.5626 10.2806 14.8626 6.62109C14.7852 8.93295 15.7726 15.2505 17.9648 18.0724C20.1533 20.8943 22.0102 26.4673 22.0102 26.4673Z" fill="#F6E71C"/>
<path d="M21.3142 26.6042C21.3142 26.6042 19.7779 20.3611 16.0493 16.2102C12.3171 12.0555 11.3223 11.3966 9.81543 7.87109C10.2575 10.1569 12.645 16.2734 15.4414 18.7975C18.2378 21.3253 21.3179 26.6042 21.3179 26.6042" fill="#F6E71C"/>
<path d="M20.791 26.866C20.791 26.866 17.932 20.9095 13.3561 17.2984C8.77643 13.6836 7.65271 13.1587 5.40527 9.87891C6.33372 12.0791 10.007 17.7973 13.3118 19.9267C16.613 22.0599 20.791 26.866 20.791 26.866Z" fill="#F6E71C"/>
<path d="M27.0501 26.0285C27.0501 26.0285 25.0311 19.7705 26.1548 14.8676C27.2785 9.96466 27.8201 9.07491 27.2638 5.36328C28.1148 7.62302 29.2828 13.9964 28.1222 17.1199C26.9616 20.247 27.0464 26.0248 27.0464 26.0248" fill="#F6E71C"/>
<path d="M28.1115 26.4554C28.1115 26.4554 27.0393 20.1267 28.9036 15.3652C30.7716 10.5963 31.4458 9.75496 31.4532 6.05078C31.9616 8.34402 32.1679 14.7249 30.5358 17.7329C28.8999 20.7409 28.1115 26.4591 28.1115 26.4591" fill="#F6E71C"/>
<path d="M28.7783 26.7191C28.7783 26.7191 29.0104 20.3755 31.84 15.8858C34.6732 11.3923 35.517 10.6366 36.2833 6.98828C36.3165 9.30014 35.2148 15.6028 32.9748 18.3875C30.7347 21.1759 28.7783 26.7191 28.7783 26.7191Z" fill="#F6E71C"/>
<path d="M29.6367 26.476C29.6367 26.476 31.3241 20.2664 35.1558 16.2011C38.9912 12.1284 40.0007 11.4881 41.596 7.99609C41.0987 10.2744 38.5602 16.3352 35.7011 18.7996C32.8458 21.2641 29.6367 26.476 29.6367 26.476Z" fill="#F6E71C"/>
<path d="M30.0488 26.8026C30.0488 26.8026 33.1326 20.9504 37.8486 17.4956C42.5608 14.0409 43.7066 13.5532 46.0793 10.3516C45.0661 12.5145 41.1755 18.1061 37.7896 20.1239C34.4074 22.1417 30.0488 26.8026 30.0488 26.8026Z" fill="#F6E71C"/>
<path d="M24.0514 26.0312C24.0514 26.0312 26.0483 32.2967 24.9098 37.1922C23.7677 42.0914 23.2261 42.9811 23.7677 46.6928C22.924 44.4293 21.7744 38.0559 22.9461 34.9325C24.1177 31.809 24.0514 26.0312 24.0514 26.0312Z" fill="#F6E71C"/>
<path d="M22.9571 25.3242C22.9571 25.3242 24.0293 31.653 22.1576 36.4181C20.2897 41.1871 19.6118 42.0284 19.6081 45.7326C19.0997 43.4393 18.8933 37.0585 20.5292 34.0505C22.165 31.0424 22.9571 25.3242 22.9571 25.3242Z" fill="#F6E71C"/>
<path d="M21.9438 25.5312C21.9438 25.5312 21.8296 31.8786 19.0774 36.413C16.3289 40.9511 15.4962 41.718 14.7962 45.3775C14.7188 43.0656 15.7062 36.748 17.8984 33.9262C20.0906 31.1043 21.9438 25.5312 21.9438 25.5312Z" fill="#F6E71C"/>
<path d="M21.2478 25.3984C21.2478 25.3984 19.7151 31.6416 15.9829 35.7925C12.2507 39.9471 11.2559 40.6098 9.74902 44.1353C10.1911 41.8457 12.5786 35.7329 15.375 33.2051C18.1714 30.6774 21.2515 25.3984 21.2515 25.3984" fill="#F6E71C"/>
<path d="M20.7906 25.1289C20.7906 25.1289 17.8726 31.0593 13.2598 34.6332C8.64704 38.2071 7.51595 38.7208 5.23535 41.9857C6.18591 39.7967 9.91813 34.1083 13.2451 32.0049C16.5683 29.9015 20.7943 25.1289 20.7943 25.1289" fill="#F6E71C"/>
<path d="M26.9837 25.9648C26.9837 25.9648 24.9647 32.2229 26.0884 37.1258C27.2121 42.0287 27.7537 42.9222 27.1974 46.6301C28.0484 44.3703 29.2164 37.9969 28.0558 34.8735C26.8952 31.7463 26.98 25.9686 26.98 25.9686" fill="#F6E71C"/>
<path d="M28.049 25.5469C28.049 25.5469 26.9768 31.8756 28.8411 36.6408C30.7091 41.406 31.3833 42.2511 31.3907 45.9552C31.8991 43.662 32.1054 37.2811 30.4733 34.2731C28.8374 31.2651 28.049 25.5469 28.049 25.5469Z" fill="#F6E71C"/>
<path d="M28.7119 25.2812C28.7119 25.2812 28.944 31.6249 31.7736 36.1146C34.6068 40.608 35.4505 41.3637 36.2169 45.0121C36.25 42.7002 35.1521 36.3975 32.9084 33.6129C30.6683 30.8245 28.7119 25.2812 28.7119 25.2812Z" fill="#F6E71C"/>
<path d="M29.5703 25.5234C29.5703 25.5234 31.2577 31.7293 35.0894 35.7984C38.9248 39.8711 39.9343 40.5114 41.5296 44.0034C41.0323 41.725 38.4938 35.6643 35.6347 33.1998C32.7794 30.7354 29.5703 25.5234 29.5703 25.5234Z" fill="#F6E71C"/>
<path d="M29.8984 25.1914C29.8984 25.1914 33.0927 30.9952 37.8676 34.3755C42.6462 37.7558 43.7957 38.2249 46.2274 41.3893C45.1737 39.2412 41.1798 33.7129 37.7608 31.7472C34.3417 29.7816 29.8984 25.1914 29.8984 25.1914Z" fill="#F6E71C"/>
<path d="M31.545 25.1914H19.3057V26.8667H31.545V25.1914Z" fill="#F6E71C"/>
</g>
<defs>
<linearGradient id="paint0_linear_3654_2854" x1="25.7313" y1="0" x2="25.7313" y2="52" gradientUnits="userSpaceOnUse">
<stop stop-color="#E5352D"/>
<stop offset="0.15" stop-color="#D33237"/>
<stop offset="0.45" stop-color="#A52C53"/>
<stop offset="0.48" stop-color="#A02C57"/>
<stop offset="0.73" stop-color="#602A6B"/>
<stop offset="1" stop-color="#172983"/>
</linearGradient>
<clipPath id="clip0_3654_2854">
<rect width="331" height="52" fill="white"/>
</clipPath>
</defs>
</svg>
