<svg width="224" height="62" viewBox="0 0 224 62" fill="none" xmlns="http://www.w3.org/2000/svg">
<g clip-path="url(#clip0_3654_2410)">
<path d="M224 17.2734H0V62.0006H224V17.2734Z" fill="white"/>
<path d="M30.8154 44.3332C31.3447 44.2065 32.0142 44.1211 32.713 44.1211C33.8855 44.1211 34.6516 44.3745 35.1662 44.9077C35.558 45.2877 35.751 45.7915 35.751 46.4514C35.751 47.4207 35.0668 48.2368 34.1341 48.5579V48.5991C34.9294 48.7818 36.1282 49.4712 36.1282 51.0149C36.1282 51.7868 35.8504 52.3789 35.4323 52.8267C34.8036 53.4601 33.7861 53.7253 32.447 53.7253C31.7365 53.7253 31.1926 53.6693 30.8154 53.6398V44.3244V44.3332ZM31.485 48.3516H32.8505C34.2159 48.3516 35.0668 47.5356 35.0668 46.4986C35.0668 45.164 34.0639 44.6867 32.6692 44.6867C32.0552 44.6867 31.6926 44.728 31.485 44.784V48.3516ZM31.485 53.0978C31.7628 53.1537 32.14 53.1685 32.6429 53.1685C34.0785 53.1685 35.4323 52.65 35.4323 51.0326C35.4323 49.5419 34.1633 48.8967 32.6721 48.8967H31.4879V53.0978H31.485Z" fill="#595A5C"/>
<path d="M37.8677 46.916L39.625 51.3263C39.8063 51.8036 39.9876 52.3515 40.1133 52.7728H40.1425C40.2829 52.3663 40.4495 51.8301 40.6571 51.2821L42.2887 46.9131H42.9992L40.9905 51.942C40.1805 54.0367 39.6104 55.2858 38.7303 56.0577C38.2011 56.5084 37.7274 56.7029 37.5578 56.7589L37.3502 56.1962C37.6835 56.0695 38.1309 55.8309 38.5227 55.4508C38.856 55.115 39.3034 54.5523 39.6396 53.7509C39.6952 53.6095 39.7244 53.527 39.7244 53.4563C39.7244 53.4003 39.6952 53.3002 39.6396 53.1617L37.1572 46.9102H37.8677V46.916Z" fill="#595A5C"/>
<path d="M47.5986 44.3332C48.3238 44.2065 49.1191 44.1211 50.0109 44.1211C51.7272 44.1211 53.0225 44.5836 53.8031 45.4144C54.5575 46.201 54.9756 47.2675 54.9756 48.7022C54.9756 50.137 54.5985 51.3449 53.7476 52.2846C52.926 53.1979 51.502 53.7312 49.6892 53.7312C48.9641 53.7312 48.2799 53.7164 47.5986 53.6457V44.3303V44.3332ZM48.2682 53.0978C48.6454 53.1537 49.1892 53.1685 49.7886 53.1685C52.8003 53.1685 54.2914 51.4686 54.2914 48.7287C54.3207 46.3277 52.9932 44.6838 49.9699 44.6838C49.2448 44.6838 48.6717 44.7545 48.2682 44.837V53.0978Z" fill="#595A5C"/>
<path d="M56.9401 50.2165C56.9401 52.3671 58.098 53.2215 59.4927 53.2215C60.4693 53.2215 60.9722 53.0241 61.3464 52.8414L61.5131 53.36C61.2616 53.5014 60.5774 53.796 59.4079 53.796C57.484 53.796 56.2852 52.3907 56.2852 50.4109C56.2852 48.1631 57.5687 46.7578 59.2968 46.7578C61.4868 46.7578 61.9049 48.8377 61.9049 49.807C61.9049 49.9897 61.9049 50.0869 61.8757 50.2135H56.9401V50.2165ZM61.2061 49.6833C61.2207 48.7435 60.8289 47.3235 59.212 47.3235C57.7354 47.3235 57.0922 48.6433 56.9664 49.6833H61.2061Z" fill="#595A5C"/>
<path d="M62.835 53.2511L66.446 48.4607C66.6974 48.1367 66.9489 47.8273 67.212 47.4915V47.462H63.1274V46.9141H68.022L68.0073 47.3648L64.3963 52.1551C64.1595 52.4645 63.9373 52.7738 63.6858 53.0831V53.1126H68.0366V53.6606H62.835V53.254V53.2511Z" fill="#595A5C"/>
<path d="M73.6683 52.0568C73.6683 52.59 73.6829 53.138 73.7648 53.6594H73.1508L73.0543 52.6902H73.0251C72.6917 53.2116 71.952 53.8156 70.8789 53.8156C69.5252 53.8156 68.9141 52.861 68.9141 51.9625C68.9141 50.404 70.2678 49.4613 72.9988 49.4907V49.3081C72.9988 48.6482 72.873 47.3136 71.2824 47.3283C70.6976 47.3283 70.0836 47.4845 69.5953 47.835L69.3848 47.3431C69.9988 46.9365 70.7503 46.7656 71.3497 46.7656C73.2882 46.7656 73.6654 48.2269 73.6654 49.42V52.0627L73.6683 52.0568ZM72.9988 50.0475C71.5339 50.0063 69.61 50.2302 69.61 51.8446C69.61 52.8139 70.2503 53.2499 70.9491 53.2499C72.0631 53.2499 72.7064 52.5605 72.9286 51.9006C72.9841 51.7592 72.9988 51.606 72.9988 51.4941V50.0475Z" fill="#595A5C"/>
<path d="M75.9696 48.5323C75.9696 47.9136 75.955 47.4511 75.9141 46.9149H76.5427L76.5836 48.1375H76.6129C76.9754 47.3804 77.8263 46.7617 78.914 46.7617C79.5543 46.7617 81.256 47.0858 81.256 49.6135V53.6585H80.5864V49.6695C80.5864 48.4469 80.1128 47.3362 78.7327 47.3362C77.797 47.3362 76.9901 48.0109 76.724 48.8829C76.683 49.0508 76.6392 49.2747 76.6392 49.4868V53.6585H75.9696V48.5294V48.5323Z" fill="#595A5C"/>
<path d="M86.4809 52.621C87.0102 52.9863 87.7499 53.2396 88.5306 53.2396C89.9399 53.2396 90.8025 52.4383 90.8025 51.2717C90.8025 50.2052 90.2586 49.5865 88.8932 49.0533C87.3874 48.52 86.4809 47.7334 86.4809 46.4401C86.4809 45.0496 87.6096 44.0391 89.2148 44.0391C90.092 44.0391 90.7615 44.263 91.0832 44.4898L90.8317 45.0525C90.5803 44.8699 89.9809 44.6018 89.1709 44.6018C87.6505 44.6018 87.1359 45.5857 87.1359 46.3311C87.1359 47.3858 87.7353 47.919 89.0891 48.4523C90.6358 49.0857 91.4603 49.7868 91.4603 51.2068C91.4603 52.6269 90.4838 53.82 88.475 53.82C87.6651 53.82 86.7178 53.5519 86.2295 53.1748L86.4809 52.6269V52.621Z" fill="#595A5C"/>
<path d="M93.3809 43.6836H94.0504V48.1233H94.0797C94.2756 47.7433 94.5943 47.378 94.9861 47.1541C95.3779 46.9007 95.8369 46.7622 96.3398 46.7622C96.9685 46.7622 98.6673 47.0863 98.6673 49.5993V53.659H97.9977V49.67C97.9977 48.4474 97.524 47.3514 96.1586 47.3514C95.2112 47.3514 94.4305 48.0408 94.1352 48.8687C94.0651 49.0808 94.0504 49.2634 94.0504 49.5433V53.659H93.3809V43.6836Z" fill="#595A5C"/>
<path d="M101.857 44.9916C101.857 45.3009 101.65 45.569 101.299 45.569C100.992 45.569 100.784 45.3009 100.784 44.9916C100.784 44.6822 101.021 44.4023 101.328 44.4023C101.635 44.4023 101.857 44.6704 101.857 44.9916ZM100.992 53.6589V46.9153H101.661V53.6589H100.992Z" fill="#595A5C"/>
<path d="M104.033 48.9389C104.033 48.2642 104.018 47.5748 103.978 46.9149H104.592L104.621 48.2789H104.662C104.954 47.4364 105.653 46.7617 106.559 46.7617C106.656 46.7617 106.755 46.7765 106.837 46.7912V47.4364C106.741 47.4069 106.641 47.4069 106.515 47.4069C105.594 47.4069 104.94 48.2082 104.758 49.2894C104.717 49.4868 104.703 49.7107 104.703 49.9346V53.6585H104.033V48.9389Z" fill="#595A5C"/>
<path d="M112.468 52.0568C112.468 52.59 112.483 53.138 112.565 53.6594H111.951L111.854 52.6902H111.825C111.492 53.2116 110.752 53.8156 109.679 53.8156C108.325 53.8156 107.714 52.861 107.714 51.9625C107.714 50.404 109.068 49.4613 111.799 49.4907V49.3081C111.799 48.6482 111.673 47.3136 110.082 47.3283C109.497 47.3283 108.883 47.4845 108.395 47.835L108.185 47.3431C108.799 46.9365 109.55 46.7656 110.149 46.7656C112.088 46.7656 112.465 48.2269 112.465 49.42V52.0627L112.468 52.0568ZM111.799 50.0475C110.334 50.0063 108.41 50.2302 108.41 51.8446C108.41 52.8139 109.05 53.2499 109.749 53.2499C110.863 53.2499 111.506 52.5605 111.728 51.9006C111.784 51.7592 111.799 51.606 111.799 51.4941V50.0475Z" fill="#595A5C"/>
<path d="M123.802 53.66C123.494 53.3507 123.217 53.0414 122.769 52.5788C121.822 53.5068 120.901 53.8162 119.91 53.8162C118.363 53.8162 117.261 52.6495 117.261 51.1735C117.261 49.8537 118.071 48.9817 119.114 48.3777V48.3365C118.597 47.6206 118.305 46.9312 118.305 46.2566C118.305 45.1194 119.056 44.0234 120.424 44.0234C121.427 44.0234 122.223 44.7541 122.223 45.906C122.223 46.9165 121.638 47.6913 120.018 48.4897V48.5309C120.98 49.6681 122.053 50.9055 122.766 51.7068C123.225 51.0056 123.521 50.0629 123.728 48.6576H124.357C124.106 50.1748 123.758 51.3267 123.129 52.0868C123.617 52.5936 124.065 53.0708 124.62 53.66H123.799H123.802ZM122.392 52.184C121.863 51.5389 120.635 50.2043 119.421 48.7843C118.837 49.1349 117.916 49.8508 117.916 51.0881C117.916 52.3255 118.822 53.2653 120.076 53.2653C121.038 53.2653 121.848 52.8145 122.392 52.184ZM118.936 46.1859C118.936 46.9872 119.313 47.5764 119.702 48.1096C120.831 47.5057 121.6 46.9283 121.6 45.959C121.6 45.2844 121.237 44.5537 120.316 44.5537C119.395 44.5537 118.936 45.3256 118.936 46.1829V46.1859Z" fill="#595A5C"/>
<path d="M130.228 50.3457L129.07 53.6601H128.386L131.789 44.1914H132.43L135.804 53.6601H135.119L133.935 50.3457H130.228ZM133.739 49.783L132.596 46.6219C132.359 45.962 132.234 45.4847 132.108 44.9485H132.067C131.941 45.4965 131.789 45.9885 131.579 46.5924L130.435 49.783H133.739Z" fill="#595A5C"/>
<path d="M137.002 52.7737C137.365 52.9976 137.909 53.2362 138.508 53.2362C139.567 53.2362 140.07 52.6588 140.07 51.9576C140.07 51.2123 139.622 50.8204 138.66 50.4257C137.558 50.0044 136.959 49.4004 136.959 48.5844C136.959 47.6151 137.725 46.7578 139.023 46.7578C139.637 46.7578 140.166 46.9405 140.502 47.1791L140.251 47.7271C140.014 47.5591 139.581 47.3205 138.912 47.3205C138.061 47.3205 137.614 47.8685 137.614 48.4872C137.614 49.1883 138.087 49.4977 138.994 49.8777C140.081 50.299 140.722 50.847 140.722 51.8722C140.722 53.0241 139.83 53.796 138.464 53.796C137.824 53.796 137.21 53.6133 136.763 53.3334L137 52.7707L137.002 52.7737Z" fill="#595A5C"/>
<path d="M142.341 52.7737C142.704 52.9976 143.248 53.2362 143.847 53.2362C144.906 53.2362 145.408 52.6588 145.408 51.9576C145.408 51.2123 144.961 50.8204 143.999 50.4257C142.897 50.0044 142.297 49.4004 142.297 48.5844C142.297 47.6151 143.064 46.7578 144.362 46.7578C144.976 46.7578 145.505 46.9405 145.841 47.1791L145.59 47.7271C145.353 47.5591 144.92 47.3205 144.251 47.3205C143.4 47.3205 142.952 47.8685 142.952 48.4872C142.952 49.1883 143.426 49.4977 144.332 49.8777C145.42 50.299 146.061 50.847 146.061 51.8722C146.061 53.0241 145.169 53.796 143.803 53.796C143.163 53.796 142.549 53.6133 142.102 53.3334L142.338 52.7707L142.341 52.7737Z" fill="#595A5C"/>
<path d="M153.675 50.2175C153.675 52.7334 151.959 53.8146 150.468 53.8146C148.74 53.8146 147.4 52.4506 147.4 50.3441C147.4 48.0403 148.906 46.7617 150.567 46.7617C152.421 46.7617 153.675 48.167 153.675 50.2175ZM148.07 50.2999C148.07 51.9851 149.143 53.249 150.511 53.249C151.88 53.249 153.008 51.9851 153.008 50.2558C153.008 49.0184 152.324 47.3185 150.555 47.3185C148.786 47.3185 148.073 48.8505 148.073 50.297L148.07 50.2999Z" fill="#595A5C"/>
<path d="M160.13 53.3639C159.838 53.5053 159.139 53.7999 158.166 53.7999C156.242 53.7999 154.958 52.3799 154.958 50.3589C154.958 48.223 156.408 46.7617 158.402 46.7617C159.224 46.7617 159.908 47.0004 160.16 47.183L159.923 47.731C159.601 47.5483 159.087 47.3392 158.347 47.3392C156.549 47.3392 155.628 48.7297 155.628 50.3029C155.628 52.0735 156.73 53.2254 158.277 53.2254C159.072 53.2254 159.587 53.0015 159.949 52.8336L160.13 53.3668V53.3639Z" fill="#595A5C"/>
<path d="M162.736 44.9916C162.736 45.3009 162.526 45.569 162.178 45.569C161.871 45.569 161.663 45.3009 161.663 44.9916C161.663 44.6822 161.9 44.4023 162.207 44.4023C162.514 44.4023 162.736 44.6704 162.736 44.9916ZM161.874 53.6589V46.9153H162.543V53.6589H161.874Z" fill="#595A5C"/>
<path d="M169.095 52.0568C169.095 52.59 169.11 53.138 169.192 53.6594H168.578L168.481 52.6902H168.452C168.118 53.2116 167.379 53.8156 166.306 53.8156C164.952 53.8156 164.341 52.861 164.341 51.9625C164.341 50.404 165.695 49.4613 168.426 49.4907V49.3081C168.426 48.6482 168.3 47.3136 166.709 47.3283C166.124 47.3283 165.51 47.4845 165.022 47.835L164.814 47.3431C165.429 46.9365 166.18 46.7656 166.779 46.7656C168.718 46.7656 169.095 48.2269 169.095 49.42V52.0627V52.0568ZM168.426 50.0475C166.961 50.0063 165.037 50.2302 165.037 51.8446C165.037 52.8139 165.677 53.2499 166.376 53.2499C167.493 53.2499 168.133 52.5605 168.355 51.9006C168.411 51.7592 168.426 51.606 168.426 51.4941V50.0475Z" fill="#595A5C"/>
<path d="M172.315 45.4258V46.9135H174.224V47.4615H172.315V51.8453C172.315 52.7026 172.581 53.2358 173.291 53.2358C173.639 53.2358 173.891 53.1946 174.057 53.1386L174.142 53.6453C173.92 53.7425 173.613 53.8132 173.21 53.8132C172.721 53.8132 172.318 53.6571 172.066 53.336C171.759 52.9854 171.648 52.408 171.648 51.7215V47.4645H170.52V46.9165H171.648V45.6791L172.318 45.4258H172.315Z" fill="#595A5C"/>
<path d="M175.855 50.2165C175.855 52.3671 177.013 53.2215 178.408 53.2215C179.384 53.2215 179.884 53.0241 180.261 52.8414L180.428 53.36C180.177 53.5014 179.495 53.796 178.323 53.796C176.399 53.796 175.2 52.3907 175.2 50.4109C175.2 48.1631 176.484 46.7578 178.212 46.7578C180.402 46.7578 180.82 48.8377 180.82 49.807C180.82 49.9897 180.82 50.0869 180.791 50.2135H175.855V50.2165ZM180.121 49.6833C180.136 48.7435 179.744 47.3235 178.127 47.3235C176.65 47.3235 176.007 48.6433 175.881 49.6833H180.121Z" fill="#595A5C"/>
<path d="M182.378 52.7737C182.741 52.9976 183.285 53.2362 183.884 53.2362C184.943 53.2362 185.446 52.6588 185.446 51.9576C185.446 51.2123 184.998 50.8204 184.036 50.4257C182.934 50.0044 182.335 49.4004 182.335 48.5844C182.335 47.6151 183.101 46.7578 184.399 46.7578C185.013 46.7578 185.542 46.9405 185.878 47.1791L185.627 47.7271C185.39 47.5591 184.957 47.3205 184.288 47.3205C183.437 47.3205 182.99 47.8685 182.99 48.4872C182.99 49.1883 183.463 49.4977 184.37 49.8777C185.457 50.299 186.098 50.847 186.098 51.8722C186.098 53.0241 185.206 53.796 183.84 53.796C183.2 53.796 182.586 53.6133 182.139 53.3334L182.376 52.7707L182.378 52.7737Z" fill="#595A5C"/>
<path d="M49.9866 23.2944L49.7615 19.3231H40.0921L36.8086 24.1665C36.4402 24.7056 36.1419 25.286 35.9987 25.7809C35.6273 26.9387 36.1799 27.4779 37.9518 27.4779L37.6945 28.2615H30.3877L30.645 27.4779C32.4549 27.3541 33.1186 26.7325 37.4372 20.6901L51.6825 0.371094H52.4222L54.0099 23.8719C54.3052 26.9358 54.5245 27.3512 56.1473 27.4749L55.89 28.2586H46.4779L46.7381 27.4749C49.5597 27.4749 50.1884 26.4615 49.9866 23.2944ZM49.2118 6.2485L41.2763 17.6262H49.8024L49.2118 6.2485Z" fill="#1A2940"/>
<path d="M73.8224 9.64464H74.2288L72.5329 15.2716H71.9774C72.3487 11.5478 71.6821 10.1808 69.5798 10.1808C67.8839 10.1808 66.3664 11.3003 65.8167 12.9943C65.4454 14.1138 65.7027 15.145 66.5185 15.8049L69.6178 18.4534C71.3897 19.9441 71.7961 21.3111 71.1324 23.3822C70.2084 26.2752 67.0331 28.6792 64.229 28.6792C63.4542 28.6792 62.6034 28.5113 61.6414 28.2638C60.8315 28.0163 60.4601 27.9338 60.0537 27.9338C59.6122 27.9338 59.4631 28.0163 59.0567 28.4317H58.5771L60.6443 21.9739H61.235C60.7204 26.1957 61.4952 27.7689 64.0419 27.7689C65.9249 27.7689 67.5097 26.611 68.1003 24.7904C68.5067 23.5088 68.2114 22.516 67.1793 21.6882L65.4805 20.3212C63.0069 18.2943 62.3431 16.6799 63.0829 14.3642C64.0799 11.3445 66.8109 9.27344 69.8371 9.27344C70.726 9.27344 71.5359 9.43547 72.1996 9.77132C72.5329 9.97755 72.8663 10.06 73.0885 10.06C73.1996 10.06 73.454 9.9363 73.8253 9.64759L73.8224 9.64464Z" fill="#1A2940"/>
<path d="M80.041 11.7535C80.079 11.4648 79.7457 11.1318 79.4503 11.1318C79.0849 11.1318 78.3802 11.5472 77.7896 12.2514L76.0557 14.3637L75.5762 13.907C78.0498 10.4307 79.5614 9.19039 81.3713 9.19039C83.5496 9.19039 83.2894 11.5914 82.2573 14.7349L79.4152 23.467C79.155 24.2507 78.7486 25.7414 78.6404 26.1568C78.6053 26.4455 78.9006 26.7755 79.196 26.7755C79.5614 26.7755 80.3012 26.363 80.8918 25.6619L82.6286 23.5495L83.1052 24.0032C80.6345 27.4825 79.1199 28.7199 77.313 28.7199C75.1317 28.7199 75.392 26.3188 76.4241 23.1754L79.2661 14.4462C79.5264 13.6566 79.9328 12.1718 80.041 11.7564V11.7535ZM83.2865 6.74515C82.2544 6.74515 81.6988 5.83187 82.1052 4.63282C82.4766 3.47502 83.6198 2.52344 84.652 2.52344C85.6841 2.52344 86.2396 3.47502 85.8683 4.63282C85.4619 5.83187 84.3566 6.74515 83.2865 6.74515Z" fill="#1A2940"/>
<path d="M98.1404 26.1517C98.1053 26.4404 98.3977 26.7704 98.6959 26.7704C99.0614 26.7704 99.8012 26.3579 100.392 25.6568L102.126 23.5445L102.605 23.9981C100.132 27.4775 98.6199 28.7148 96.81 28.7148C95.3335 28.7148 94.7838 27.6012 95.0381 25.9043C93.1552 27.8457 91.4593 28.6765 89.3921 28.6765C85.3337 28.6765 83.746 25.0735 85.4799 19.7764C87.4009 13.902 92.3102 9.22656 96.5557 9.22656C98.0322 9.22656 98.9182 9.68026 99.8772 11.006L99.9123 10.9235L103.421 9.64196L98.9182 23.462C98.6579 24.2456 98.2515 25.7363 98.1433 26.1517H98.1404ZM98.731 14.5206C99.4328 12.3258 98.2515 10.3814 96.2954 10.3814C93.4914 10.3814 90.6845 13.4453 89.1728 18.1207C87.512 23.2115 88.4711 26.52 91.5353 26.52C92.6055 26.52 93.6727 26.1075 94.5996 25.2826C95.1171 24.8289 95.5206 24.3311 95.6317 24.0394L98.734 14.5206H98.731Z" fill="#1A2940"/>
<path d="M109.824 28.6796C108.274 28.6796 107.537 28.2642 106.686 26.8973C105.704 29.9199 104.736 32.9573 103.733 35.9594L100.225 37.2409L107.645 14.4442C107.903 13.6547 108.312 12.1699 108.42 11.7545C108.455 11.4658 108.125 11.1329 107.83 11.1329C107.461 11.1329 106.76 11.5483 106.169 12.2524L104.432 14.3647L103.953 13.9081C106.429 10.4317 107.941 9.19141 109.748 9.19141C111.373 9.19141 111.745 10.5142 111.373 12.5028C113.736 10.2697 115.654 9.23265 117.721 9.23265C121.303 9.23265 122.706 12.9182 121.043 18.0473C119.087 24.0455 114.177 28.6826 109.821 28.6826L109.824 28.6796ZM115.4 11.7132C113.698 11.7132 111.154 13.201 110.748 14.4442L107.429 24.6229C107.023 25.8661 108.645 27.3569 110.382 27.3569C113.04 27.3569 115.882 24.2517 117.356 19.6617C118.905 14.8596 118.131 11.7162 115.403 11.7162L115.4 11.7132Z" fill="#1A2940"/>
<path d="M126.713 28.6765C122.47 28.6765 120.994 25.1147 122.839 19.4082C124.795 13.3658 129.259 9.22656 133.835 9.22656C135.756 9.22656 137.198 10.0957 137.824 11.5864C138.303 12.9121 138.303 14.1111 137.712 16.798H126.341C125.567 19.4465 125.382 20.893 125.605 22.5104C125.935 24.7435 127.116 25.8188 129.148 25.8188C131.511 25.8188 133.502 24.6198 136.306 21.4734L136.786 21.765C133.797 26.2342 130.254 28.6765 126.71 28.6765H126.713ZM132.289 10.7173C130.037 10.7173 128.3 12.205 126.824 15.4752H134.356C135.058 11.8751 134.537 10.7173 132.289 10.7173Z" fill="#1A2940"/>
<path d="M152.829 23.4634C152.569 24.2471 152.163 25.7378 152.054 26.1532C152.016 26.4419 152.315 26.7719 152.607 26.7719C152.978 26.7719 153.718 26.3594 154.309 25.6583L156.043 23.5459L156.522 23.9996C154.049 27.4789 152.537 28.7163 150.727 28.7163C149.25 28.7163 148.701 27.6027 148.955 25.9057C147.072 27.8472 145.376 28.678 143.309 28.678C139.251 28.678 137.663 25.0749 139.397 19.7779C141.318 13.9035 146.227 9.22805 150.473 9.22805C151.949 9.22805 152.835 9.68174 153.791 11.0075L155.896 4.55264C156.452 2.8557 156.227 2.4403 154.861 2.4403C154.566 2.4403 154.347 2.4403 154.049 2.4845L154.268 1.82458C156.856 1.12341 158.291 0.708017 160.285 0.00390625L160.434 0.0863962L152.832 23.4664L152.829 23.4634ZM152.642 14.5221C153.344 12.3273 152.163 10.3829 150.207 10.3829C147.403 10.3829 144.596 13.4468 143.084 18.1222C141.423 23.213 142.382 26.5215 145.446 26.5215C146.517 26.5215 147.59 26.109 148.511 25.2841C149.028 24.8304 149.432 24.3325 149.543 24.0409L152.645 14.5221H152.642Z" fill="#1A2940"/>
<path d="M163.071 11.7535C163.109 11.4648 162.776 11.1318 162.481 11.1318C162.109 11.1318 161.41 11.5472 160.82 12.2514L159.086 14.3637L158.606 13.907C161.077 10.4307 162.592 9.19039 164.402 9.19039C166.577 9.19039 166.323 11.5914 165.285 14.7349L162.446 23.467C162.185 24.2507 161.779 25.7414 161.671 26.1568C161.636 26.4455 161.931 26.7755 162.226 26.7755C162.592 26.7755 163.331 26.363 163.922 25.6619L165.656 23.5495L166.135 24.0032C163.662 27.4825 162.15 28.7199 160.34 28.7199C158.162 28.7199 158.422 26.3188 159.457 23.1754L162.296 14.4462C162.557 13.6566 162.963 12.1718 163.071 11.7564V11.7535ZM166.323 6.74515C165.285 6.74515 164.732 5.83187 165.141 4.63282C165.51 3.47502 166.653 2.52344 167.685 2.52344C168.717 2.52344 169.276 3.47502 168.904 4.63282C168.495 5.83187 167.393 6.74515 166.323 6.74515Z" fill="#1A2940"/>
<path d="M181.171 26.1517C181.133 26.4404 181.431 26.7704 181.723 26.7704C182.092 26.7704 182.834 26.3579 183.422 25.6568L185.156 23.5445L185.635 23.9981C183.165 27.4775 181.65 28.7148 179.84 28.7148C178.367 28.7148 177.808 27.6012 178.068 25.9043C176.185 27.8457 174.492 28.6765 172.422 28.6765C168.358 28.6765 166.776 25.0735 168.51 19.7764C170.431 13.902 175.337 9.22656 179.58 9.22656C181.06 9.22656 181.943 9.68026 182.902 11.006L182.94 10.9235L186.442 9.64196L181.94 23.462C181.685 24.2456 181.279 25.7363 181.168 26.1517H181.171ZM181.761 14.5206C182.463 12.3258 181.282 10.3814 179.329 10.3814C176.519 10.3814 173.715 13.4453 172.203 18.1207C170.542 23.2115 171.501 26.52 174.566 26.52C175.636 26.52 176.709 26.1075 177.63 25.2826C178.15 24.8289 178.551 24.3311 178.662 24.0394L181.764 14.5206H181.761Z" fill="#1A2940"/>
<path d="M30.04 36.7031H69.0566" stroke="#FFCF34" stroke-width="3" stroke-miterlimit="10"/>
<path d="M69.0566 36.7031H108.07" stroke="#EA272A" stroke-width="3" stroke-miterlimit="10"/>
<path d="M108.07 36.7031H147.087" stroke="#1F9549" stroke-width="3" stroke-miterlimit="10"/>
<path d="M147.087 36.7031H186.101" stroke="#6771AC" stroke-width="3" stroke-miterlimit="10"/>
</g>
<defs>
<clipPath id="clip0_3654_2410">
<rect width="224" height="62" fill="white"/>
</clipPath>
</defs>
</svg>
