<svg width="182" height="42" viewBox="0 0 182 42" fill="none" xmlns="http://www.w3.org/2000/svg">
<g clip-path="url(#clip0_3654_2520)">
<path d="M22.8566 26.2726L22.594 21.7934H11.3175L7.48814 27.2561C7.05849 27.8642 6.71068 28.5188 6.5436 29.077C6.11054 30.3828 6.75501 30.9909 8.82141 30.9909L8.52134 31.8748H0L0.300071 30.9909C2.4108 30.8514 3.18485 30.1502 8.22127 23.3352L24.8343 0.417969H25.697L27.5486 26.9238C27.893 30.3795 28.1487 30.848 30.0412 30.9876L29.7411 31.8714H18.7647L19.0682 30.9876C22.3587 30.9876 23.0918 29.8445 22.8566 26.2726ZM21.9529 7.04692L12.6985 19.8795H22.6417L21.9529 7.04692Z" fill="#1A2940"/>
<path d="M50.6542 10.8757H51.1282L49.1505 17.2222H48.5026C48.9356 13.0222 48.1582 11.4804 45.7065 11.4804C43.7287 11.4804 41.959 12.7431 41.3179 14.6537C40.8849 15.9164 41.1849 17.0793 42.1363 17.8236L45.7508 20.8108C47.8172 22.4922 48.2912 24.0339 47.5171 26.3698C46.4396 29.6328 42.7364 32.3442 39.4663 32.3442C38.5627 32.3442 37.5704 32.1548 36.4486 31.8757C35.504 31.5966 35.071 31.5035 34.597 31.5035C34.0821 31.5035 33.9082 31.5966 33.4342 32.0651H32.875L35.2858 24.7816H35.9746C35.3745 29.5431 36.2781 31.3175 39.2481 31.3175C41.4441 31.3175 43.2922 30.0116 43.981 27.9581C44.455 26.5127 44.1106 25.3929 42.9069 24.4592L40.9258 22.9175C38.041 20.6314 37.267 18.8105 38.1297 16.1988C39.2924 12.7929 42.4773 10.457 46.0065 10.457C47.0431 10.457 47.9877 10.6398 48.7617 11.0186C49.1505 11.2512 49.5392 11.3442 49.7983 11.3442C49.9279 11.3442 50.2246 11.2047 50.6576 10.879L50.6542 10.8757Z" fill="#1A2940"/>
<path d="M57.9071 13.254C57.9514 12.9284 57.5627 12.5529 57.2183 12.5529C56.7921 12.5529 55.9703 13.0214 55.2815 13.8156L53.2594 16.198L52.7002 15.683C55.585 11.7621 57.3479 10.3632 59.4586 10.3632C61.999 10.3632 61.6955 13.0713 60.4918 16.6167L57.1774 26.4654C56.8739 27.3493 56.3999 29.0306 56.2738 29.4991C56.2329 29.8248 56.5772 30.1969 56.9216 30.1969C57.3479 30.1969 58.2106 29.7317 58.8994 28.9409L60.9249 26.5585L61.4807 27.0702C58.5993 30.9944 56.833 32.39 54.7257 32.39C52.1819 32.39 52.4854 29.6819 53.6891 26.1365L57.0035 16.2911C57.307 15.4006 57.7809 13.7259 57.9071 13.2574V13.254ZM61.6955 7.6053C60.4918 7.6053 59.8439 6.57524 60.3179 5.22286C60.751 3.91701 62.0842 2.84375 63.2879 2.84375C64.4916 2.84375 65.1395 3.91701 64.7065 5.22286C64.2325 6.57524 62.9435 7.6053 61.6955 7.6053Z" fill="#1A2940"/>
<path d="M79.0146 29.4956C78.9736 29.8213 79.3146 30.1934 79.6624 30.1934C80.0887 30.1934 80.9514 29.7282 81.6402 28.9374L83.6623 26.555L84.2215 27.0667C81.3367 30.9909 79.5738 32.3865 77.4631 32.3865C75.7411 32.3865 75.1 31.1305 75.3967 29.2165C73.2007 31.4062 71.2229 32.3433 68.8121 32.3433C64.0792 32.3433 62.2276 28.2795 64.2497 22.3051C66.49 15.6795 72.2152 10.4062 77.1664 10.4062C78.8884 10.4062 79.9216 10.918 81.04 12.4132L81.081 12.3202L85.1728 10.8748L79.9216 26.4619C79.6181 27.3458 79.1441 29.0271 79.018 29.4956H79.0146ZM79.7034 16.3773C80.5217 13.9018 79.1441 11.7088 76.8629 11.7088C73.5928 11.7088 70.3193 15.1645 68.5564 20.4377C66.6196 26.1795 67.738 29.911 71.3116 29.911C72.5596 29.911 73.8042 29.4458 74.8852 28.5154C75.4887 28.0037 75.9593 27.4422 76.0889 27.1132L79.7068 16.3773H79.7034Z" fill="#1A2940"/>
<path d="M92.64 32.3435C90.8328 32.3435 89.9735 31.875 88.9812 30.3332C87.8355 33.7424 86.7068 37.1682 85.5372 40.5541L81.4453 41.9995L90.0996 16.2878C90.3997 15.3973 90.8771 13.7226 91.0033 13.2541C91.0442 12.9285 90.6589 12.553 90.3145 12.553C89.8848 12.553 89.0664 13.0215 88.3776 13.8157L86.3522 16.1981L85.7929 15.6831C88.6811 11.7622 90.444 10.3633 92.5514 10.3633C94.4473 10.3633 94.8803 11.8552 94.4473 14.0981C97.2025 11.5794 99.4394 10.4098 101.85 10.4098C106.027 10.4098 107.664 14.5666 105.724 20.3516C103.443 27.1168 97.7174 32.3468 92.6366 32.3468L92.64 32.3435ZM99.1427 13.2076C97.1581 13.2076 94.1915 14.8856 93.7175 16.2878L89.8473 27.768C89.3733 29.1702 91.2658 30.8516 93.2913 30.8516C96.3909 30.8516 99.7053 27.3494 101.424 22.1725C103.231 16.7563 102.328 13.2109 99.1461 13.2109L99.1427 13.2076Z" fill="#1A2940"/>
<path d="M112.336 32.3433C107.388 32.3433 105.666 28.326 107.818 21.8898C110.099 15.0748 115.306 10.4062 120.643 10.4062C122.883 10.4062 124.564 11.3865 125.294 13.0678C125.853 14.5631 125.853 15.9154 125.164 18.9458H111.903C110.999 21.933 110.785 23.5645 111.044 25.3887C111.429 27.9074 112.807 29.1202 115.177 29.1202C117.932 29.1202 120.254 27.7678 123.524 24.2191L124.083 24.548C120.598 29.5887 116.465 32.3433 112.333 32.3433H112.336ZM118.839 12.0876C116.213 12.0876 114.188 13.7656 112.466 17.4539H121.25C122.068 13.3934 121.461 12.0876 118.839 12.0876Z" fill="#1A2940"/>
<path d="M142.793 26.4632C142.489 27.3471 142.015 29.0284 141.889 29.4969C141.845 29.8226 142.193 30.1947 142.534 30.1947C142.967 30.1947 143.829 29.7295 144.518 28.9387L146.54 26.5563L147.099 27.068C144.215 30.9922 142.452 32.3878 140.341 32.3878C138.619 32.3878 137.978 31.1318 138.275 29.2178C136.079 31.4075 134.101 32.3446 131.69 32.3446C126.957 32.3446 125.106 28.2808 127.128 22.3064C129.368 15.6808 135.093 10.4075 140.044 10.4075C141.766 10.4075 142.8 10.9193 143.915 12.4145L146.37 5.13429C147.018 3.22036 146.755 2.75185 145.163 2.75185C144.818 2.75185 144.562 2.75185 144.215 2.80169L144.47 2.05739C147.488 1.26656 149.162 0.798052 151.488 0.00390625L151.662 0.0969442L142.796 26.4666L142.793 26.4632ZM142.574 16.3786C143.393 13.9031 142.015 11.7101 139.734 11.7101C136.464 11.7101 133.19 15.1658 131.428 20.439C129.491 26.1808 130.609 29.9123 134.183 29.9123C135.431 29.9123 136.682 29.4471 137.756 28.5167C138.36 28.005 138.83 27.4435 138.96 27.1145L142.578 16.3786H142.574Z" fill="#1A2940"/>
<path d="M154.738 13.254C154.783 12.9284 154.394 12.5529 154.049 12.5529C153.616 12.5529 152.801 13.0214 152.113 13.8156L150.09 16.198L149.531 15.683C152.413 11.7621 154.179 10.3632 156.29 10.3632C158.827 10.3632 158.53 13.0713 157.319 16.6167L154.008 26.4654C153.705 27.3493 153.231 29.0306 153.105 29.4991C153.064 29.8248 153.408 30.1969 153.753 30.1969C154.179 30.1969 155.042 29.7317 155.73 28.9409L157.753 26.5585L158.312 27.0702C155.427 30.9944 153.664 32.39 151.553 32.39C149.013 32.39 149.316 29.6819 150.524 26.1365L153.835 16.2911C154.138 15.4006 154.612 13.7259 154.738 13.2574V13.254ZM158.53 7.6053C157.319 7.6053 156.675 6.57524 157.152 5.22286C157.582 3.91701 158.915 2.84375 160.119 2.84375C161.323 2.84375 161.974 3.91701 161.541 5.22286C161.064 6.57524 159.778 7.6053 158.53 7.6053Z" fill="#1A2940"/>
<path d="M175.849 29.4956C175.804 29.8213 176.152 30.1934 176.493 30.1934C176.923 30.1934 177.789 29.7282 178.474 28.9374L180.496 26.555L181.056 27.0667C178.174 30.9909 176.408 32.3865 174.297 32.3865C172.579 32.3865 171.927 31.1305 172.231 29.2165C170.035 31.4062 168.06 32.3433 165.646 32.3433C160.906 32.3433 159.062 28.2795 161.084 22.3051C163.324 15.6795 169.046 10.4062 173.994 10.4062C175.719 10.4062 176.749 10.918 177.867 12.4132L177.912 12.3202L181.997 10.8748L176.745 26.4619C176.449 27.3458 175.975 29.0271 175.845 29.4956H175.849ZM176.534 16.3773C177.352 13.9018 175.975 11.7088 173.697 11.7088C170.42 11.7088 167.15 15.1645 165.387 20.4377C163.45 26.1795 164.569 29.911 168.142 29.911C169.39 29.911 170.642 29.4458 171.716 28.5154C172.323 28.0037 172.79 27.4422 172.92 27.1132L176.537 16.3773H176.534Z" fill="#1A2940"/>
</g>
<defs>
<clipPath id="clip0_3654_2520">
<rect width="182" height="42" fill="white"/>
</clipPath>
</defs>
</svg>
