<svg width="207" height="46" viewBox="0 0 207 46" fill="none" xmlns="http://www.w3.org/2000/svg">
<g clip-path="url(#clip0_3574_4823)">
<path d="M24.5833 28.7911L24.3333 23.9098H12.1667L8.08333 29.8666C7.58333 30.5285 7.25 31.2731 7.08333 31.8522C6.58333 33.2587 7.33333 33.9206 9.5 33.9206L9.16667 34.9134H0L0.333333 33.9206C2.58333 33.7551 3.41667 33.0105 8.83333 25.5644L26.6667 0.496094H27.5833L29.5833 29.5357C29.9167 33.3414 30.25 33.8378 32.25 34.0033L31.9167 34.9961H20.0833L20.4167 34.0033C23.9167 34.0033 24.75 32.7623 24.5 28.8738L24.5833 28.7911ZM23.5833 7.69394L13.6667 21.7587H24.3333L23.5833 7.69394Z" fill="#FFCD33"/>
<path d="M54.5003 11.9123H55.0003L52.8337 18.8619H52.167C52.667 14.2288 51.8337 12.5741 49.167 12.5741C47.0003 12.5741 45.167 13.9806 44.417 16.049C43.917 17.4554 44.2503 18.6964 45.3337 19.5238L49.2503 22.8331C51.5003 24.6533 52.0003 26.3907 51.167 28.9554C50.0003 32.513 46.0003 35.4914 42.5003 35.4914C41.5003 35.4914 40.5003 35.3259 39.2503 34.995C38.2503 34.6641 37.7503 34.5813 37.2503 34.5813C36.667 34.5813 36.5003 34.6641 36.0003 35.1605H35.417L38.0003 27.218H38.7503C38.0837 32.4303 39.0837 34.4159 42.2503 34.4159C44.5837 34.4159 46.5837 33.0094 47.3337 30.7756C47.8337 29.2036 47.5003 27.9626 46.167 26.9698L44.0003 25.3151C40.917 22.8331 40.0837 20.8475 41.0003 17.9518C42.2503 14.2288 45.667 11.6641 49.5003 11.6641C50.5837 11.6641 51.667 11.8295 52.5003 12.2432C52.917 12.4914 53.3337 12.5741 53.5837 12.5741C53.7503 12.5741 54.0837 12.4087 54.5003 12.0777V11.9123Z" fill="#EC2227"/>
<path d="M62.2501 14.4752C62.2501 14.4752 61.9168 13.7306 61.5001 13.7306C61.0001 13.7306 60.1668 14.227 59.4168 15.137L57.2501 17.7845L56.6668 17.2054C59.7501 12.9032 61.6668 11.414 63.9168 11.414C66.6668 11.414 66.3334 14.3924 65.0001 18.2809L61.4168 29.0363C61.0834 30.0291 60.5834 31.8493 60.4168 32.3457C60.4168 32.6766 60.7501 33.0903 61.0834 33.0903C61.5834 33.0903 62.5001 32.5939 63.2501 31.6838L65.4168 29.0363L66.0001 29.6154C62.9168 33.9176 61.0001 35.4068 58.7501 35.4068C56.0001 35.4068 56.3334 32.4284 57.6668 28.5399L61.2501 17.7845C61.5834 16.7917 62.0834 14.9716 62.2501 14.4752ZM66.3334 8.35286C65.0001 8.35286 64.3334 7.19458 64.8334 5.70537C65.3334 4.2989 66.7501 3.14062 68.0001 3.14062C69.2501 3.14062 70.0001 4.2989 69.5001 5.70537C69.0001 7.19458 67.5834 8.35286 66.2501 8.35286H66.3334Z" fill="#1C954A"/>
<path d="M84.9995 32.3471C84.9995 32.3471 85.3328 33.0917 85.6662 33.0917C86.1662 33.0917 87.0828 32.5953 87.8328 31.6853L89.9995 29.0378L90.5828 29.6169C87.4995 33.9191 85.5828 35.4083 83.3329 35.4083C81.4995 35.4083 80.7495 34.0018 81.0828 31.9335C78.7495 34.3327 76.5829 35.3255 73.9995 35.3255C68.9162 35.3255 66.9162 30.8579 69.0829 24.3219C71.4995 17.0414 77.6662 11.25 82.9995 11.25C84.8328 11.25 85.9995 11.8291 87.1662 13.4838L91.5828 11.8291L85.9162 28.8723C85.5829 29.8651 85.0828 31.6853 84.9162 32.1817L84.9995 32.3471ZM85.6662 17.9514C86.5828 15.2212 85.0828 12.8219 82.5828 12.8219C79.0828 12.8219 75.5829 16.6277 73.6662 22.4191C71.5829 28.7068 72.7495 32.7608 76.6662 32.7608C77.9995 32.7608 79.3328 32.2644 80.4995 31.2716C81.1662 30.6924 81.6662 30.1133 81.8328 29.6996L85.7495 17.9514H85.6662Z" fill="#6770AB"/>
<path d="M99.583 35.4069C97.6663 35.4069 96.7497 34.9105 95.6663 33.1731C94.4163 36.8961 93.2497 40.7018 91.9997 44.3421L87.583 45.9141L96.9163 17.7846C97.2497 16.7918 97.7497 14.9716 97.9163 14.4752C97.9163 14.1443 97.583 13.7306 97.1663 13.7306C96.6663 13.7306 95.833 14.227 95.083 15.1371L92.9163 17.7846L92.333 17.2054C95.4163 12.9033 97.333 11.4141 99.583 11.4141C101.583 11.4141 102.083 13.0687 101.583 15.468C104.583 12.7378 106.916 11.4141 109.583 11.4141C114.083 11.4141 115.833 15.9644 113.75 22.3349C111.333 29.781 105.166 35.4896 99.6663 35.4896L99.583 35.4069ZM106.583 14.4752C104.416 14.4752 101.25 16.2954 100.75 17.8673L96.583 30.4428C96.083 32.0148 98.083 33.8349 100.25 33.8349C103.583 33.8349 107.166 30.0292 109 24.3205C110.916 18.3637 110 14.4752 106.583 14.4752Z" fill="#1A2940"/>
<path d="M120.833 35.4069C115.5 35.4069 113.667 31.022 116 23.9896C118.417 16.5436 124.083 11.4141 129.75 11.4141C132.167 11.4141 134 12.4896 134.75 14.3097C135.333 15.9644 135.333 17.4536 134.583 20.763H120.333C119.333 24.0723 119.167 25.8097 119.417 27.7954C119.833 30.5256 121.333 31.8493 123.833 31.8493C126.833 31.8493 129.333 30.3601 132.833 26.4716L133.417 26.8026C129.667 32.3457 125.25 35.3241 120.75 35.3241L120.833 35.4069ZM127.75 13.2342C124.917 13.2342 122.75 15.0543 120.917 19.1083H130.333C131.25 14.6407 130.583 13.2342 127.75 13.2342Z" fill="#1A2940"/>
<path d="M153.5 28.955C153.166 29.9478 152.666 31.768 152.5 32.2644C152.5 32.5953 152.833 33.009 153.166 33.009C153.666 33.009 154.583 32.5126 155.333 31.6025L157.5 28.955L158.083 29.5342C155 33.8363 153.083 35.3255 150.833 35.3255C149 35.3255 148.25 33.9191 148.583 31.8507C146.25 34.25 144.083 35.2428 141.5 35.2428C136.416 35.2428 134.416 30.7752 136.583 24.2392C139 16.9586 145.166 11.1673 150.5 11.1673C152.333 11.1673 153.5 11.7464 154.666 13.4011L157.333 5.45863C158 3.39029 157.75 2.81115 156 2.81115C155.666 2.81115 155.333 2.81115 155 2.81115L155.25 1.98381C158.5 1.15647 160.333 0.577338 162.833 -0.25H163L153.5 28.7068V28.955ZM153.333 17.9514C154.25 15.2212 152.75 12.8219 150.25 12.8219C146.75 12.8219 143.25 16.6277 141.333 22.4191C139.25 28.7068 140.416 32.7608 144.333 32.7608C145.666 32.7608 147 32.2644 148.166 31.2716C148.833 30.6924 149.333 30.1133 149.5 29.6996L153.416 17.9514H153.333Z" fill="#1A2940"/>
<path d="M166.417 14.4752C166.417 14.4752 166.084 13.7306 165.667 13.7306C165.167 13.7306 164.334 14.227 163.584 15.137L161.417 17.7845L160.834 17.2054C163.917 12.9032 165.834 11.414 168.084 11.414C170.834 11.414 170.5 14.3924 169.167 18.2809L165.584 29.0363C165.25 30.0291 164.75 31.8493 164.584 32.3457C164.584 32.6766 164.917 33.0903 165.25 33.0903C165.75 33.0903 166.667 32.5939 167.417 31.6838L169.584 29.0363L170.167 29.6154C167.084 33.9176 165.167 35.4068 162.917 35.4068C160.167 35.4068 160.5 32.4284 161.834 28.5399L165.417 17.7845C165.75 16.7917 166.25 14.9716 166.417 14.4752ZM170.5 8.35286C169.167 8.35286 168.5 7.19458 169 5.70537C169.5 4.2989 170.917 3.14062 172.167 3.14062C173.417 3.14062 174.167 4.2989 173.667 5.70537C173.167 7.19458 171.75 8.35286 170.417 8.35286H170.5Z" fill="#1A2940"/>
<path d="M189.083 32.3471C189.083 32.3471 189.417 33.0917 189.75 33.0917C190.25 33.0917 191.167 32.5953 191.917 31.6853L194.084 29.0378L194.667 29.6169C191.583 33.9191 189.667 35.4083 187.417 35.4083C185.583 35.4083 184.833 34.0018 185.167 31.9335C182.833 34.3327 180.667 35.3255 178.084 35.3255C173 35.3255 171 30.8579 173.167 24.3219C175.584 17.0414 181.75 11.25 187.084 11.25C188.917 11.25 190.083 11.8291 191.25 13.4838L195.667 11.8291L190 28.8723C189.667 29.8651 189.167 31.6853 189 32.1817L189.083 32.3471ZM189.833 17.9514C190.75 15.2212 189.25 12.8219 186.75 12.8219C183.25 12.8219 179.75 16.6277 177.833 22.4191C175.75 28.7068 176.917 32.7608 180.834 32.7608C182.167 32.7608 183.5 32.2644 184.667 31.2716C185.333 30.6924 185.833 30.1133 186 29.6996L189.917 17.9514H189.833Z" fill="#1A2940"/>
<path d="M199.25 35.5744V30.6931H197.583V30.0312H201.583V30.6931H199.916V35.5744H199.25Z" fill="#1A2940"/>
<path d="M202.25 35.5744V30.0312H203.25L204.417 33.9197C204.417 33.9197 204.583 34.5816 204.667 34.7471C204.667 34.5816 204.833 34.2507 204.917 33.837L206.083 30.0312H207V35.5744H206.333V30.9413L204.917 35.5744H204.333L202.917 30.8586V35.5744H202.25Z" fill="#1A2940"/>
</g>
<defs>
<clipPath id="clip0_3574_4823">
<rect width="207" height="46" fill="white"/>
</clipPath>
</defs>
</svg>
