<svg width="239" height="40" viewBox="0 0 239 40" fill="none" xmlns="http://www.w3.org/2000/svg">
<g clip-path="url(#clip0_3654_3473)">
<path d="M60.4923 15.3786L65.5143 15.3896L65.4588 36.7736L60.4368 36.7626V34.5284C58.2337 37.0597 55.5201 37.4119 53.983 37.4064C47.3239 37.3899 43.5504 31.8926 43.5615 25.9991C43.5782 19.038 48.406 14.7843 54.0884 14.8008C55.6755 14.8008 58.439 15.219 60.4867 17.8659V15.3786H60.4923ZM48.6779 26.1146C48.6668 29.8235 51.0142 32.9271 54.6545 32.9381C57.8286 32.9436 60.7531 30.671 60.7697 26.1972C60.7808 21.5253 57.8675 19.2801 54.6933 19.2746C51.053 19.2636 48.6946 22.3067 48.6835 26.1146H48.6779Z" fill="#494545"/>
<path d="M80.0976 21.065C79.587 20.2506 78.6159 19.2325 77.0288 19.227C76.313 19.227 75.7969 19.4802 75.4917 19.7828C75.2364 20.036 75.0311 20.4432 75.0256 20.8999C75.0256 21.4612 75.2808 21.8134 75.7414 22.1215C76.0466 22.3251 76.3574 22.4297 77.4284 22.991L79.9866 24.2676C81.1131 24.8289 82.1841 25.3902 83.0054 26.2541C84.1818 27.4262 84.5869 28.7469 84.5813 30.2217C84.5758 32.1532 83.8544 33.826 82.6724 35.0917C80.9799 36.9186 78.8767 37.4689 76.6237 37.4634C75.242 37.4634 73.4995 37.2543 71.9679 36.0822C70.7416 35.1632 69.7205 33.6885 69.21 32.1642L73.3108 30.2437C73.5661 30.9535 74.0211 31.8725 74.4817 32.2797C74.7869 32.5879 75.5028 33.0941 76.6848 33.0996C77.4506 33.0996 78.2719 32.8465 78.738 32.3953C79.1486 31.9881 79.4594 31.3332 79.4594 30.7224C79.4594 30.1116 79.2541 29.6054 78.799 29.0936C78.1831 28.4828 77.4672 28.1251 76.6515 27.7674L74.8091 26.898C73.838 26.4412 72.6616 25.8744 71.8403 25.06C70.7138 23.9925 70.3087 22.8204 70.3143 21.4502C70.3143 19.7223 70.9913 18.0494 72.1178 16.8828C73.0944 15.8703 74.737 14.8578 77.4006 14.8633C78.9378 14.8633 80.1641 15.177 81.3961 15.9914C82.1119 16.4481 83.0831 17.268 83.8488 18.6382L80.1031 21.065H80.0976Z" fill="#494545"/>
<path d="M90.4911 3.41799C92.3334 3.41799 93.7152 4.79919 93.7096 6.62613C93.7041 8.45307 92.3168 9.82327 90.4744 9.81776C88.6321 9.81776 87.2503 8.43656 87.2559 6.60962C87.2559 4.78268 88.6487 3.41248 90.4911 3.41799ZM92.966 15.4637L92.9105 36.8476L87.8885 36.8366L87.944 15.4527L92.966 15.4637Z" fill="#494545"/>
<path d="M113.765 15.5114L118.787 15.5224L118.731 36.9064L113.709 36.8954V34.6613C111.506 37.1926 108.793 37.5447 107.255 37.5392C100.596 37.5227 96.8229 32.0254 96.834 26.1319C96.8507 19.1708 101.678 14.9171 107.361 14.9336C108.948 14.9336 111.712 15.3519 113.759 17.9987V15.5114H113.765ZM101.956 26.2529C101.945 29.9618 104.292 33.0654 107.932 33.0764C111.107 33.0874 114.031 30.8093 114.048 26.3355C114.059 21.6636 111.145 19.4184 107.971 19.4129C104.331 19.4019 101.973 22.445 101.962 26.2529H101.956Z" fill="#494545"/>
<path d="M139.636 15.5778L144.658 15.5888L144.602 36.9728L139.58 36.9618V34.7277C137.377 37.259 134.664 37.6111 133.127 37.6056C126.468 37.5891 122.688 32.0918 122.705 26.1983C122.722 19.2372 127.55 14.9835 133.238 15C134.825 15 137.588 15.4183 139.636 18.0651V15.5778ZM127.827 26.3194C127.816 30.0283 130.163 33.1318 133.804 33.1428C136.978 33.1483 139.902 30.8702 139.913 26.4019C139.924 21.73 137.011 19.4848 133.837 19.4793C130.202 19.4683 127.838 22.5114 127.827 26.3194Z" fill="#494545"/>
<path d="M165.65 0L170.672 0.0110056L170.578 37.0395L165.556 37.0285V34.7943C163.353 37.3256 160.639 37.6778 159.102 37.6723C152.443 37.6558 148.664 32.1585 148.681 26.2705C148.697 19.3094 153.525 15.0557 159.208 15.0722C160.795 15.0722 163.558 15.4904 165.606 18.1373L165.65 0.00550282V0ZM153.803 26.386C153.792 30.0949 156.139 33.1985 159.779 33.2095C162.953 33.2205 165.883 30.9424 165.894 26.4686C165.906 21.7967 162.992 19.5515 159.818 19.546C156.183 19.535 153.819 22.5781 153.808 26.386H153.803Z" fill="#494545"/>
<path d="M175.7 15.6705L180.722 15.6815V17.6626C182.415 15.632 184.412 15.1313 186.049 15.1368C188.302 15.1423 190.4 16.2153 191.626 18.3009C193.424 15.7641 196.143 15.1643 198.036 15.1698C200.649 15.1753 202.952 16.4024 204.173 18.5375C204.578 19.2474 205.294 20.8267 205.289 23.9248L205.255 37.1315L200.233 37.1205L200.261 25.3335C200.266 22.9453 200.017 21.9823 199.811 21.52C199.506 20.7056 198.74 19.6381 196.948 19.6326C195.716 19.6326 194.64 20.2874 193.974 21.2009C193.102 22.417 192.991 24.2439 192.986 26.0764L192.958 37.0985L187.936 37.0875L187.969 25.3005C187.975 22.9122 187.72 21.9493 187.52 21.487C187.215 20.6726 186.449 19.6051 184.656 19.5995C183.425 19.5995 182.348 20.2544 181.682 21.1679C180.811 22.384 180.7 24.2109 180.694 26.0434L180.667 37.0655L175.645 37.0545L175.7 15.6705Z" fill="#494545"/>
<path d="M212.924 3.72658C214.766 3.72658 216.148 5.10779 216.142 6.93472C216.142 8.76166 214.749 10.1319 212.907 10.1264C211.065 10.1209 209.683 8.74515 209.688 6.91821C209.694 5.09128 211.081 3.72108 212.924 3.72658ZM215.404 15.7723L215.349 37.1562L210.327 37.1452L210.382 15.7612L215.404 15.7723Z" fill="#494545"/>
<path d="M220.476 15.7877L225.498 15.7987V17.7797C227.652 15.397 230.11 15.2539 231.342 15.2539C235.337 15.2649 237.024 17.2514 237.685 18.1649C238.5 19.337 239.011 20.8118 239 24.1079L238.966 37.2157L233.944 37.2047L233.978 25.3186C233.994 19.8818 231.941 19.7277 230.049 19.7222C227.796 19.7167 225.487 20.0138 225.471 26.9254L225.443 37.1881L220.421 37.1771L220.476 15.7932V15.7877Z" fill="#494545"/>
<path d="M30.2271 28.5309C30.1161 28.5309 36.076 25.0586 36.0205 25.0861L0.216797 25.6804L30.2215 28.5309H30.2271Z" fill="#0F8E3B"/>
<path d="M13.6955 39.9854L13.7233 39.8919L13.751 39.7818C13.9785 40.2661 23.2513 33.0519 23.2513 33.1619L0 25.6836L13.6955 39.9854Z" fill="#6A6FAB"/>
<path d="M36.0253 25.2646L24.4219 1.07422L30.2264 28.6433L36.0253 25.2646Z" fill="#FFD023"/>
<path d="M23.3232 33.3948L24.3276 1.05469C17.6797 25.4047 20.0714 16.6387 13.6953 39.9981L23.3565 33.4773L23.3232 33.3948Z" fill="#E1191D"/>
</g>
<defs>
<clipPath id="clip0_3654_3473">
<rect width="239" height="40" fill="white"/>
</clipPath>
</defs>
</svg>
