<svg width="268" height="51" viewBox="0 0 268 51" fill="none" xmlns="http://www.w3.org/2000/svg">
<g clip-path="url(#clip0_3654_2309)">
<path d="M69.886 11.8066L74.8865 11.82L74.8317 32.925L69.8312 32.9116L69.8367 30.706C67.6353 33.2078 64.9294 33.5525 63.3996 33.5471C56.7652 33.531 53.0039 28.1073 53.0176 22.2904C53.0368 15.4232 57.8426 11.2222 63.5093 11.2383C65.0911 11.241 67.8463 11.6504 69.8805 14.2626L69.886 11.8066ZM58.1195 22.4062C58.1086 26.066 60.4498 29.1306 64.0741 29.1387C67.2377 29.1468 70.1519 26.8981 70.1656 22.487C70.1766 17.8739 67.2734 15.6629 64.1097 15.6548C60.4854 15.6468 58.1305 18.6468 58.1223 22.4089L58.1195 22.4062Z" fill="#454241"/>
<path d="M89.3151 17.4223C88.8079 16.6197 87.8401 15.6126 86.2583 15.6099C85.5428 15.6099 85.0329 15.8576 84.7258 16.1565C84.4708 16.407 84.2652 16.8083 84.2625 17.258C84.2625 17.81 84.5147 18.1601 84.9753 18.4618C85.2796 18.6637 85.5866 18.7634 86.6586 19.3181L89.2081 20.5784C90.3294 21.1332 91.3986 21.688 92.2156 22.5416C93.3862 23.6969 93.7919 25.003 93.7864 26.4546C93.781 28.3585 93.0627 30.012 91.8866 31.2616C90.1978 33.0632 88.1033 33.6072 85.858 33.6018C84.4791 33.5991 82.7465 33.3944 81.2167 32.2364C79.994 31.3316 78.9769 29.8747 78.4697 28.3693L82.5573 26.4734C82.8095 27.1763 83.2673 28.0784 83.7252 28.4824C84.0295 28.784 84.745 29.2876 85.9184 29.2903C86.6832 29.2903 87.5002 29.0425 87.9608 28.5928C88.3693 28.1916 88.679 27.5425 88.679 26.9393C88.679 26.3388 88.4789 25.8352 88.0183 25.3343C87.407 24.7311 86.6942 24.3783 85.8772 24.0255L84.0432 23.1691C83.0754 22.7167 81.9021 22.1619 81.0878 21.3567C79.9666 20.3011 79.5636 19.1458 79.5663 17.7939C79.5718 16.0892 80.238 14.4357 81.3647 13.2858C82.338 12.2867 83.9719 11.2876 86.6257 11.293C88.1554 11.2957 89.3809 11.6 90.6036 12.4052C91.3164 12.8576 92.2841 13.6628 93.0462 15.0174L89.3151 17.4142V17.4223Z" fill="#454241"/>
<path d="M99.5678 1.60368e-05C101.405 0.00540203 102.781 1.36267 102.775 3.16698C102.77 4.97129 101.388 6.32317 99.5513 6.31779C97.7145 6.3124 96.3383 4.95513 96.3438 3.15082C96.3492 1.34651 97.731 -0.00536996 99.5678 1.60368e-05ZM102.038 11.8869L101.983 32.9919L96.9825 32.9785L97.0374 11.8734L102.038 11.8869Z" fill="#454241"/>
<path d="M122.808 11.9394L127.808 11.9528L127.754 33.0579L122.753 33.0444L122.759 30.8388C120.557 33.3406 117.851 33.6853 116.322 33.6799C109.687 33.6638 105.926 28.2401 105.939 22.4232C105.959 15.5561 110.765 11.355 116.431 11.3711C118.013 11.3738 120.768 11.7832 122.802 14.3954L122.808 11.9394ZM111.041 22.5363C111.03 26.1961 113.372 29.2607 116.996 29.2688C120.16 29.2769 123.074 27.0282 123.088 22.6171C123.098 18.004 120.195 15.793 117.032 15.785C113.407 15.7769 111.052 18.7769 111.044 22.539L111.041 22.5363Z" fill="#454241"/>
<path d="M132.861 11.9666L137.861 11.98L137.856 13.9351C139.544 11.9342 141.537 11.4387 143.169 11.4414C145.414 11.4468 147.503 12.5052 148.723 14.5626C150.516 12.0608 153.222 11.4657 155.111 11.471C157.712 11.4764 160.007 12.6856 161.227 14.7942C161.633 15.4971 162.343 17.0536 162.334 20.1102L162.302 33.1443L157.301 33.1308L157.331 21.4998C157.337 19.1434 157.085 18.1901 156.882 17.7376C156.577 16.9351 155.815 15.8795 154.028 15.8768C152.802 15.8741 151.73 16.5231 151.064 17.4226C150.192 18.6236 150.085 20.428 150.083 22.2323L150.055 33.112L145.055 33.0985L145.085 21.4674C145.09 19.1111 144.838 18.1578 144.635 17.7053C144.331 16.9028 143.569 15.8472 141.781 15.8445C140.556 15.8418 139.484 16.4908 138.818 17.3902C137.946 18.5913 137.839 20.3956 137.836 22.1999L137.809 33.0797L132.809 33.0662L132.863 11.9612L132.861 11.9666Z" fill="#454241"/>
<path d="M186.611 28.3936C185.687 29.996 184.357 31.3963 182.978 32.2446C181.24 33.3434 178.943 33.8389 176.646 33.8335C173.789 33.8254 171.442 33.1198 169.405 31.1082C167.368 29.0965 166.253 26.1881 166.261 23.0292C166.269 19.7707 167.451 16.6145 169.701 14.3658C171.492 12.6154 173.844 11.5193 176.906 11.5274C180.325 11.5355 182.515 12.9951 183.787 14.3012C186.537 17.1154 186.781 21.0256 186.775 23.2312V23.8317L171.36 23.794C171.459 25.2994 172.117 27.004 173.186 28.0597C174.356 29.215 175.785 29.4197 177.01 29.4224C178.389 29.4251 179.409 29.1288 180.432 28.3775C181.301 27.7285 181.967 26.8775 182.427 26.0777L186.605 28.3936H186.611ZM181.682 19.811C181.482 18.6584 180.922 17.654 180.157 16.9484C179.497 16.3452 178.425 15.7419 176.791 15.7365C175.055 15.7312 173.931 16.4313 173.265 17.0803C172.55 17.7294 171.985 18.7312 171.727 19.7841L181.679 19.8084L181.682 19.811Z" fill="#454241"/>
<path d="M190.736 12.1099L195.737 12.1234L195.731 14.0273C196.293 13.3783 197.113 12.6781 197.829 12.2769C198.799 11.7275 199.77 11.5794 200.894 11.5821C202.119 11.5848 203.446 11.7894 204.82 12.5946L202.766 17.0515C201.645 16.346 200.726 16.2948 200.217 16.2921C199.145 16.2894 198.073 16.4375 197.099 17.4366C195.718 18.8882 195.712 20.8918 195.71 22.2948L195.682 33.223L190.682 33.2095L190.736 12.1045V12.1099Z" fill="#454241"/>
<path d="M220.539 12.1842L225.54 12.1977L225.49 31.598C225.477 36.5612 224.907 40.1187 221.94 42.5693C220.559 43.6681 218.311 44.8153 214.79 44.8072C212.29 44.8018 209.79 44.1932 207.756 42.1815C206.177 40.6223 204.959 38.1636 204.609 35.6052L209.455 35.6187C209.656 36.7713 210.264 38.1286 211.029 38.9311C211.64 39.5855 212.863 40.3907 214.903 40.3934C216.995 40.3988 218.223 39.5989 218.837 38.9984C220.474 37.4472 220.479 35.2417 220.485 33.6878L220.493 30.9302C218.19 33.7821 215.383 33.9248 213.952 33.9221C211.196 33.914 208.902 33.1573 206.865 31.046C204.929 29.037 203.663 26.1743 203.671 22.6654C203.682 18.8063 205.168 16.151 206.857 14.5029C209.006 12.3539 211.558 11.6079 214.163 11.6133C216.306 11.6187 218.703 12.327 220.534 14.4867L220.539 12.1815V12.1842ZM210.983 17.4248C209.702 18.5747 208.781 20.5271 208.773 22.7839C208.767 24.8898 209.579 26.9472 210.903 28.1025C211.819 28.9077 213.195 29.511 214.727 29.5164C216.309 29.5191 217.688 29.072 218.916 27.8225C220.4 26.2713 220.813 24.4697 220.819 22.8647C220.824 20.5083 220.065 18.7524 218.79 17.546C217.568 16.3395 216.191 16.0352 214.763 16.0325C213.384 16.0298 212.109 16.3772 210.983 17.4275V17.4248Z" fill="#454241"/>
<path d="M249.791 28.5499C248.867 30.1522 247.537 31.5526 246.158 32.4009C244.42 33.4996 242.123 33.9951 239.825 33.9897C236.969 33.9817 234.622 33.2761 232.585 31.2644C230.548 29.2528 229.432 26.3443 229.44 23.1854C229.449 19.9269 230.63 16.7707 232.881 14.5221C234.671 12.7716 237.023 11.6756 240.086 11.6836C243.504 11.6917 245.695 13.1513 246.967 14.4574C249.717 17.2716 249.961 21.1818 249.955 23.3874V23.9879L234.54 23.9502C234.638 25.4556 235.296 27.1603 236.365 28.216C237.536 29.3712 238.964 29.5759 240.19 29.5786C241.569 29.5813 242.589 29.2851 243.611 28.5337C244.48 27.8847 245.146 27.0337 245.607 26.2339L249.785 28.5499H249.791ZM244.864 19.9673C244.664 18.8147 244.105 17.8102 243.34 17.1046C242.679 16.5014 241.607 15.8982 239.973 15.8928C238.238 15.8874 237.114 16.5876 236.448 17.2366C235.732 17.8856 235.167 18.8874 234.91 19.9404L244.861 19.9646L244.864 19.9673Z" fill="#454241"/>
<path d="M253.917 12.2701L258.918 12.2835L258.912 14.1875C259.474 13.5385 260.294 12.8383 261.009 12.437C261.98 11.8876 262.95 11.7395 264.074 11.7422C265.3 11.7449 266.627 11.9496 268 12.7548L265.947 17.2117C264.826 16.5061 263.907 16.455 263.397 16.4523C262.325 16.4523 261.253 16.5977 260.28 17.5968C258.898 19.0483 258.893 21.0519 258.89 22.455L258.863 33.3832L253.862 33.3697L253.917 12.2647V12.2701Z" fill="#454241"/>
<path d="M15.6543 7.30742L19.3443 3.68265L28.8875 13.057L38.4416 3.67188L42.1316 7.29665L28.8875 20.3065L15.6543 7.30742Z" fill="#E10B20"/>
<path d="M42.1316 37.9952L38.4416 41.62L28.8984 32.2456L19.3443 41.6307L15.6543 38.006L28.8984 24.9961L42.1316 37.9952Z" fill="#0F8C33"/>
<path d="M44.5193 9.63672L48.2066 13.2615L38.6635 22.6358L48.2176 32.0209L44.5303 35.6457L31.2861 22.6358L44.5193 9.63672Z" fill="#686FA6"/>
<path d="M13.2772 35.6457L9.58714 32.0209L19.1303 22.6466L9.57617 13.2615L13.2662 9.63672L26.5076 22.6466L13.2772 35.6457Z" fill="#FFD01E"/>
</g>
<defs>
<clipPath id="clip0_3654_2309">
<rect width="268" height="51" fill="white"/>
</clipPath>
</defs>
</svg>
