<svg width="148" height="82" viewBox="0 0 148 82" fill="none" xmlns="http://www.w3.org/2000/svg">
<g clip-path="url(#clip0_3654_2820)">
<path d="M83.8199 19.488L83.2344 19.0547C83.3243 19.1419 83.3936 19.2623 83.4501 19.3931C83.5528 19.5213 83.6787 19.4905 83.8225 19.4905" fill="#F6A800"/>
<path d="M82.6618 18.6952L82.5437 18.626L82.4307 18.6055L82.6618 18.6952Z" fill="#F6A800"/>
<path d="M81.4824 18.2305C81.675 18.3535 81.8702 18.4227 82.0706 18.4971C81.919 18.3843 81.7264 18.292 81.4824 18.2305Z" fill="#F6A800"/>
<path d="M82.3348 18.7602C82.2912 18.6627 82.2912 18.5884 82.4299 18.6038L82.0703 18.4961C82.1782 18.5653 82.2732 18.655 82.3348 18.7576" fill="#F6A800"/>
<path d="M82.335 18.7617C82.3735 18.8514 82.4403 18.9591 82.4608 19.013C82.43 18.9284 82.3915 18.8463 82.335 18.7617Z" fill="#F6A800"/>
<path d="M81.3847 19.958C81.2691 19.958 81.4771 19.5889 81.228 19.5786C80.7067 19.4504 80.2059 19.4889 79.7538 19.3094C79.5176 19.3222 79.3147 18.7915 79.0655 18.8121C78.5082 18.7531 77.0752 19.0633 77.8533 19.1966C79.0193 19.3735 79.7744 19.5222 80.776 19.8452C81.6184 20.0324 82.4402 20.258 83.2415 20.6682C83.4624 20.7912 83.5985 20.9912 83.7552 21.1553C83.5779 20.904 83.393 20.6374 83.1311 20.4016C82.8203 20.0221 82.0498 20.1862 81.3872 19.958" fill="#F6A800"/>
<path d="M86.6499 23.9874C86.5857 23.8694 86.4444 23.6464 86.4367 23.6489C86.5805 23.0183 86.2107 22.4671 85.81 22.0312C85.8075 22.1389 85.7741 22.2517 85.751 22.362C85.9256 22.6414 86.0463 22.6312 85.9924 22.3133C86.09 23.0465 86.2698 23.6207 86.3802 24.2514C86.4855 24.1924 86.6216 24.1822 86.6499 23.9822" fill="#F6A800"/>
<path d="M86.478 24.6231L86.3804 24.2539L86.3496 24.2744L86.4677 24.6359L86.478 24.6231Z" fill="#F6A800"/>
<path d="M78.8859 17.7542C77.3167 17.3799 75.804 17.2081 74.3247 17.144C74.2117 17.2184 74.1321 17.3158 73.978 17.262C73.8624 17.1876 73.7468 17.1338 73.6287 17.1133L72.9815 17.1235L72.7503 17.1722H72.7478C72.6245 17.2184 72.6682 17.2799 72.7478 17.344C72.8325 17.3876 72.9147 17.4337 72.9841 17.4953C72.9378 17.4594 72.8248 17.403 72.7478 17.344C72.6425 17.2953 72.5243 17.2594 72.3934 17.2363C72.1982 17.2799 71.9953 17.3286 71.7847 17.3209C72.0133 17.2415 72.2136 17.2184 72.3934 17.2363L72.7529 17.1722L72.8582 17.1235C72.3651 17.1133 71.8746 17.1569 71.3763 17.1876C71.2608 17.2107 71.1555 17.2312 71.0681 17.2568C70.724 17.3645 70.3824 17.4876 70.1256 17.3158L69.8662 17.3543L69.9227 17.3825L69.82 17.362C69.445 17.4055 69.0778 17.4953 68.7028 17.5542C68.4819 17.6824 68.2662 17.8439 68.0428 17.9824C68.0428 17.9824 67.845 17.8952 67.7423 17.8542C67.6755 17.9824 67.5548 18.0901 67.4084 18.1798C67.6344 18.2336 67.8553 18.3182 68.0402 18.3515C68.3278 18.4849 68.4537 17.7773 68.8518 18.1106C68.4562 17.7773 68.3304 18.4849 68.0402 18.3515C67.8553 18.3208 67.637 18.2362 67.4084 18.1798C67.0874 18.3464 66.6482 18.4541 66.2219 18.39C66.5917 18.0593 67.0155 18.0593 67.4084 18.1798C67.5548 18.0875 67.6755 17.9824 67.7423 17.8542C67.845 17.8978 68.0428 17.9824 68.0428 17.9824C68.2636 17.8414 68.4819 17.6824 68.7028 17.5542C67.9811 17.7055 67.244 17.8696 66.5172 18.1259C64.1596 18.8643 61.9689 20.1256 60.3406 22.0997C58.6764 23.9994 58.0831 27.3143 59.7371 29.801C61.4218 32.4519 64.0877 33.8594 66.6585 34.8285C72.0466 36.5436 77.0393 35.6001 82.6792 33.8978C83.7784 33.5184 85.2448 32.6237 86.4802 31.2854C87.7258 29.9856 88.6015 28.1577 88.8635 26.7656C88.5271 22.9688 86.4468 25.1864 86.416 25.089C85.6429 25.8452 85.327 26.2888 84.9469 26.9579C84.554 27.5834 83.9813 28.4295 82.6329 28.9807C84.4358 28.009 82.2015 30.9034 79.8772 30.6342C76.9802 30.2907 73.585 32.2237 70.2206 31.4803C69.4322 31.3034 68.5847 31.2341 67.6806 30.9829C63.045 29.2114 60.053 26.4093 63.8463 23.0688C64.7528 22.2561 65.5927 21.3229 66.6045 20.6435C67.3699 20.2256 68.3355 20.1282 69.0187 19.9513C70.1051 19.6821 71.0296 19.336 71.9593 19.0745C70.9089 19.2514 70.1744 19.518 69.0675 19.8513C68.3253 20.0692 69.4476 19.1924 69.9561 18.9566C70.1667 18.8233 70.6007 19.2283 70.8011 19.095C71.2787 19.0027 71.7025 18.7899 72.2239 18.6028C72.4396 18.49 72.4499 18.9156 72.5526 18.8592C73.2614 18.7387 73.8162 18.1465 74.2836 18.2849C74.6406 18.3644 74.9667 18.4131 75.2647 18.5156C75.4598 18.5592 75.6499 18.59 75.8553 18.59L76.2637 18.5156C76.1712 18.3772 76.1507 18.2105 76.1327 18.0567C76.3176 18.0824 76.5873 18.2285 76.7773 18.2823C76.5873 18.2285 76.3176 18.0849 76.1327 18.0567C76.1507 18.2131 76.1712 18.3772 76.2637 18.5156C77.2371 18.3926 78.3979 18.3439 79.4586 18.5002L79.4509 18.4618C78.8473 18.308 78.2721 18.1567 77.6865 17.7645C77.9408 17.9157 77.8817 18.0234 77.5709 17.9849L77.3578 17.7388C77.9331 17.7055 78.5238 17.7234 78.9604 18.1465C78.9604 18.1465 79.212 18.1234 79.343 18.108C79.492 18.2105 79.4509 18.3439 79.4535 18.4618L79.8181 18.531C79.6332 18.2541 78.9013 17.7542 78.8961 17.7542" fill="#F6A800"/>
<path d="M72.3755 17.2249C72.4577 17.2095 72.5681 17.1916 72.6811 17.1762C72.2651 17.1711 71.849 17.2147 71.4355 17.23C71.677 17.4172 72.0134 17.3275 72.373 17.2249" fill="#F6A800"/>
<path d="M74.8644 21.7927C74.8516 21.5338 74.8388 21.2774 74.8388 21.0364C74.8388 20.2416 74.903 19.6058 75.0083 19.0803C75.1315 16.5627 75.2189 14.0144 75.1624 11.4328C75.129 11.4328 75.0982 11.443 75.0699 11.4482C75.0699 10.7944 75.075 10.1842 75.0905 9.60998C75.1393 7.99228 75.2523 6.70274 75.4295 5.7593C75.6734 4.46975 75.789 3.41351 75.789 2.6162C75.789 1.81889 75.5168 1.22411 74.9595 0.731876C74.3945 0.244773 73.9835 -0.00390625 73.7344 -0.00390625C73.4853 -0.00390625 72.9562 0.619073 72.1575 1.85478C71.346 3.1033 70.9453 3.82626 70.9453 4.01854C70.9453 4.10314 71.0326 4.5159 71.2098 5.25937C71.3845 5.99772 71.4692 7.24624 71.4692 8.987C71.4692 9.24849 71.423 9.54845 71.328 9.89711V38.0645C71.3845 38.9259 71.4204 39.9437 71.441 41.1333C71.4975 45.3787 71.6105 48.1655 71.7774 49.514C71.9469 50.8471 72.0291 52.3264 72.0291 53.9415C73.3209 49.7986 74.2044 45.4172 74.6847 40.8077C74.754 40.0898 74.8208 39.431 74.8927 38.8157C74.1941 33.032 74.546 27.4303 74.8696 21.7876" fill="#1A171B"/>
<path d="M70.1718 31.5579C70.1718 31.5579 74.9 31.563 75.8451 31.1836L76.2175 35.3599C76.2175 35.3599 71.1246 36.1136 69.6094 35.3599L70.1718 31.5579Z" fill="#F6A800"/>
<path d="M52.8698 49.2733L52.7748 48.6734C52.2329 44.9791 52.089 41.2515 51.8091 37.1137C51.5626 34.2116 51.5985 30.8864 51.5959 27.9715C51.6961 34.8679 51.917 42.1206 52.9956 48.6426C53.1035 47.9684 53.1728 47.1634 53.0907 46.243C52.821 44.0254 52.7234 41.8258 52.5513 39.6441C52.482 39.6492 52.3459 39.6543 52.2765 39.6543C52.2406 33.4527 51.6319 27.6434 52.107 21.4187C52.1404 21.6392 52.202 21.511 52.2483 21.4623C52.0659 27.5818 52.1661 33.3117 52.5385 39.3954C52.0069 29.9404 52.3382 20.7778 52.7183 11.046C52.7337 10.6281 52.7645 9.80256 52.7876 9.38468C52.6515 7.71571 52.6592 6.04931 52.7362 4.38546C52.3638 4.78796 51.7423 3.09079 51.7269 6.42104C51.6601 6.41592 51.5189 6.41591 51.447 6.41079C51.2492 3.06772 50.3247 1.76792 49.8829 5.08792C49.4309 8.82579 49.4823 13.8378 49.2306 18.4269C49.0534 21.7751 48.9558 25.1258 49.0868 28.4663C49.3128 33.0758 49.3308 38.1058 49.9035 42.6949C50.0319 44.3664 50.0755 47.307 50.3581 48.1248C50.5121 48.7196 50.6611 48.7247 50.8178 48.6221C50.5353 45.8867 50.3709 43.1486 50.2091 40.4439C49.9857 37.1291 49.7802 33.8039 49.6415 30.4839C49.8341 33.7296 50.0267 37.065 50.2091 40.4439C50.4017 43.1333 50.6174 45.8354 50.9462 48.5247C51.0849 48.4119 51.221 48.3042 51.3725 48.4555C51.3725 48.4555 51.4418 49.2784 51.4727 49.704C51.9632 51.3268 52.4178 50.8602 52.6977 50.004C52.7542 49.7861 52.8184 49.5451 52.8724 49.2707" fill="#E2001A"/>
<path d="M68.6313 4.88488L68.3719 4.87975C66.7976 4.76695 65.2644 4.5157 63.5488 4.54903C62.3494 4.60287 61.0011 4.50032 59.8171 4.50032C62.6242 4.35675 65.5803 4.58492 68.4002 4.66696C68.1562 4.44648 67.8454 4.25421 67.4551 4.19011C66.51 4.0568 65.5751 4.06193 64.6583 3.96451C64.6531 4.03886 64.648 4.1773 64.6351 4.24908C62.0566 3.82607 59.6682 4.38239 57.1462 4.09269C57.2386 4.05424 57.1821 3.99784 57.1564 3.95425C57.141 3.91067 57.1539 3.87991 57.308 3.87478C57.1513 3.87991 57.141 3.91323 57.1564 3.95425C59.6451 3.95425 61.9976 3.90042 64.5607 3.95425C60.5902 3.76198 56.8585 3.84145 52.9651 3.93118C52.8007 3.93118 52.4694 3.95425 52.2973 3.95425C51.6501 4.17217 50.9901 4.25421 50.3275 4.25933C50.4996 4.61313 49.8344 5.32583 51.1673 5.16945C51.1673 5.23354 51.1673 5.37711 51.1724 5.44633C49.8447 5.82576 49.3207 6.81791 50.6819 7.07428C52.2151 7.35885 54.2363 6.99993 56.0624 7.08453C57.4004 7.11017 58.7076 7.15888 60.0149 7.01531C61.8178 6.82816 63.7594 6.94097 65.5443 6.90251C66.1992 6.87687 67.265 7.30501 67.6169 7.15375C67.866 7.09992 67.8968 6.95635 67.8968 6.78458C66.8464 6.57436 65.7806 6.45643 64.7173 6.37695C63.4255 6.34619 62.1131 6.34619 60.8085 6.4795C62.0849 6.29748 63.3998 6.3026 64.7173 6.37695C65.7806 6.42053 66.8413 6.49488 67.884 6.64358C67.8788 6.49232 67.866 6.33337 67.961 6.21544C67.961 6.21544 68.2898 6.27953 68.449 6.3103C69.1784 6.07956 69.1398 5.57195 68.865 5.16432C68.8008 5.07715 68.7135 4.97717 68.6313 4.87975" fill="#E2001A"/>
<path d="M50.3013 49.6408L50.5427 49.6254C52.0606 49.6151 53.5322 49.8125 55.1784 49.7638C56.3316 49.6946 57.6388 49.8023 58.7817 49.8228C56.0645 49.9125 53.2189 49.7202 50.5299 49.8382C50.7713 50.0356 51.0795 50.2073 51.4493 50.2561C52.3534 50.315 53.242 50.3099 54.1203 50.3689C54.1229 50.2817 54.1306 50.1484 54.1383 50.0869C56.6115 50.4535 58.9203 49.9305 61.3602 50.2791C61.2729 50.3227 61.3268 50.3817 61.3422 50.4253C58.9306 50.3612 56.6706 50.3842 54.2205 50.3714C58.0138 50.4894 61.6221 50.5765 65.4257 50.5432C65.5901 50.5432 65.9111 50.5381 66.0755 50.5329C66.715 50.3176 67.3596 50.2484 68.0068 50.2432C67.8475 49.8843 68.4948 49.1767 67.1952 49.328V49.0434C68.4896 48.6896 68.9853 47.6924 67.6755 47.4257C66.2064 47.136 64.2546 47.4539 62.4851 47.3129C61.1881 47.2617 59.9117 47.1796 58.6327 47.3027C56.8658 47.4847 54.9601 47.3411 53.2009 47.4642C52.5562 47.4975 51.4853 47.136 51.1463 47.3078C50.91 47.3821 50.8766 47.5232 50.8869 47.6924C51.9322 47.8205 52.9826 47.9077 54.0201 47.9539C55.2914 47.9641 56.5678 47.9436 57.8494 47.8205C56.5935 48.0026 55.3068 48.0077 54.0201 47.9539C52.98 47.9385 51.9399 47.9051 50.9049 47.8359C50.9254 47.9795 50.9408 48.1359 50.8561 48.2641C50.8561 48.2641 50.5376 48.2154 50.3784 48.1974C49.6875 48.4717 49.7646 48.9793 50.0496 49.3665C50.1216 49.4536 50.2063 49.5433 50.2988 49.6408" fill="#E2001A"/>
<path d="M97.5261 4.37371L97.2847 4.41473C95.7694 4.62239 94.2593 4.53266 92.5668 4.65059C91.388 4.76852 90.0397 4.67879 88.8557 4.65059C91.6577 4.57624 94.5983 4.68392 97.2796 4.20194C97.0048 4.0353 96.6863 3.90199 96.3088 3.90199C95.4048 3.95582 94.511 3.98659 93.6224 4.00966C93.6224 4.08401 93.6224 4.21989 93.6224 4.29423C91.0953 4.04043 88.7299 4.5506 86.2002 4.15323C86.2875 4.10965 86.2387 4.05581 86.2233 4.00966C86.2002 3.96608 86.2182 3.93275 86.3723 3.93788C86.2156 3.93275 86.2002 3.96608 86.2233 4.00966C88.7094 4.12759 91.0465 4.11221 93.5171 4.00966C89.6724 4.08914 85.9511 3.84815 81.9729 3.81226C81.8008 3.802 81.4592 3.79688 81.2948 3.79688C80.6168 4.0071 79.9388 4.07375 79.2582 4.07375C79.4277 4.42242 78.7523 5.13 80.1032 4.98643C80.0955 5.06078 80.0955 5.20435 80.0955 5.27357C78.7446 5.6171 78.2438 6.60156 79.5947 6.89639C81.0971 7.1784 83.1157 6.91946 84.9623 7.08867C86.3106 7.18609 87.6564 7.28864 89.0124 7.16814C90.8667 6.99125 92.8982 7.10918 94.7653 6.83999C95.4407 6.78615 96.6272 7.0015 96.9688 6.79128C97.2051 6.69386 97.2205 6.53491 97.1871 6.3734C96.0725 6.38878 94.963 6.38878 93.8715 6.40672C92.5232 6.46569 91.1749 6.52978 89.8317 6.64258C91.1466 6.47082 92.5001 6.42211 93.8715 6.40672C94.963 6.35289 96.0545 6.31443 97.1537 6.23496C97.1126 6.09652 97.0715 5.94526 97.146 5.80169C97.146 5.80169 97.485 5.80682 97.6494 5.80682C98.3223 5.45815 98.1579 4.9608 97.8215 4.607C97.7342 4.53778 97.6366 4.45062 97.5287 4.37114" fill="#E2001A"/>
<path d="M78.7676 50.7936L79.6228 50.7551C84.8569 50.5628 90.1243 50.8679 95.9851 50.7218L96.753 50.6961L96.9456 50.691L97.0509 50.6859H97.0714C97.4746 50.2962 96.1751 51.5601 97.9703 49.8194V49.3425L97.9857 47.7351C98.0063 46.6532 98.0037 45.5508 98.0242 44.4484C98.0345 42.2411 98.0345 40.0363 98.0114 37.9879C98.073 40.4208 98.1141 42.882 98.1039 45.3688C98.1039 46.6019 98.0807 47.8427 98.0653 49.0913L98.0551 49.5579V49.7886V49.8194C98.2657 49.6168 96.2059 51.614 97.0714 50.7679H96.9892L96.8737 50.7731L95.9491 50.7782L94.1 50.7936C89.1561 50.8295 84.2816 50.7397 79.6485 50.9756C80.591 51.1474 81.7031 51.2858 83.0052 51.3089C86.1359 51.2935 89.2588 51.3448 92.3587 51.3448C92.3587 51.2807 92.3587 51.1474 92.3587 51.0653C93.4553 51.114 94.5468 51.1397 95.6306 51.1474H96.4371L96.8454 51.1525H97.074C95.8644 52.319 98.7254 49.5502 98.43 49.8296V49.7604L98.4352 49.6578L98.4686 48.035C98.5071 45.879 98.4763 43.746 98.4377 41.6155C98.3556 37.3521 98.2015 33.1015 98.2888 28.7098C98.3376 29.02 98.3864 28.838 98.4352 28.7637C98.4814 33.0912 98.579 37.2777 98.6252 41.4771C98.6381 43.5767 98.6483 45.6739 98.6252 47.8017L98.5995 49.3964V49.7886V49.8194V49.8347C98.9283 49.5194 95.718 52.6241 97.0791 51.3089H96.9276L96.7247 51.3191L95.9337 51.3243L92.7131 51.3448H95.2249L96.4705 51.3396L96.7889 51.3345H97.0714C97.7674 50.6705 95.5356 52.8394 98.6304 49.8424V49.8194L98.6406 49.1887C98.6817 47.512 98.7023 45.8482 98.7151 44.1818C98.7305 40.8515 98.6843 37.5367 98.6355 34.2192C98.5302 27.5921 98.3761 20.9444 98.5456 14.1378C98.5687 13.5584 98.5867 12.397 98.6175 11.8202C98.5148 9.48977 98.5584 7.16705 98.7767 4.85972C98.3864 5.41092 97.8496 3.01642 97.6467 7.69261C97.5748 7.68749 97.4335 7.67723 97.3642 7.6721C97.3616 2.99078 96.5835 1.09621 95.8746 5.79804C95.1504 11.0998 95.3096 18.2012 95.2814 24.6643C95.2737 29.3661 95.3353 34.0449 95.5279 38.7083C95.6743 41.9155 95.6974 45.2688 95.6538 48.6042L95.6409 49.2374V49.7348V49.7399C94.3491 50.9987 97.4002 48.0325 97.0843 48.3375H96.961L95.7128 48.3529L93.2191 48.3862C91.5626 48.4119 89.9317 48.4273 88.3266 48.4606C85.9946 48.4709 81.8931 48.1709 80.7143 48.3862C79.8719 48.476 79.8411 48.6324 79.9669 48.799C83.8219 48.7913 87.6563 48.9272 91.4264 48.9528L94.8987 48.9195L96.6425 48.8939L97.0766 48.8836H97.0868C95.2814 50.6397 96.5886 49.3656 96.1854 49.7578V48.4734C96.2059 46.161 96.1597 43.8408 96.0827 41.5181C96.188 43.787 96.247 46.084 96.2265 48.4093L96.2188 49.7168V49.7655C95.438 50.5167 97.2769 48.7375 97.0868 48.9246H96.925L96.7042 48.9298L94.9526 48.9554H91.429C87.664 48.9605 83.8835 48.8862 80.0954 48.9451C80.2315 49.0913 80.3599 49.24 80.1313 49.3681C80.1313 49.3681 78.9576 49.3681 78.3721 49.363C76.035 49.7168 76.6231 50.209 77.7865 50.5577C78.0844 50.6372 78.4106 50.7141 78.7856 50.7987" fill="#E2001A"/>
<path d="M13.892 61.6328V66.6961H13.4759C13.1575 65.363 12.5693 64.3452 11.7064 63.6351C10.8383 62.93 9.85984 62.5737 8.76577 62.5737C7.85147 62.5737 7.01423 62.8403 6.24889 63.3633C5.48612 63.8837 4.92625 64.5734 4.5744 65.422C4.12239 66.509 3.89638 67.7216 3.89638 69.0496C3.89638 70.3776 4.06075 71.5543 4.38948 72.6285C4.72079 73.7027 5.23957 74.5154 5.94584 75.0666C6.6521 75.6152 7.56383 75.8921 8.68615 75.8921C9.60815 75.8921 10.4531 75.687 11.2184 75.2896C11.9838 74.882 12.7902 74.1898 13.6403 73.2054V74.4641C12.821 75.3255 11.9684 75.9434 11.0772 76.3254C10.186 76.7099 9.14843 76.9022 7.96191 76.9022C6.40042 76.9022 5.011 76.592 3.79879 75.9665C2.58401 75.3435 1.64917 74.4436 0.989134 73.272C0.331664 72.103 0.00292969 70.8544 0.00292969 69.5367C0.00292969 68.1395 0.372756 66.8192 1.09957 65.5732C1.83152 64.3221 2.82029 63.3531 4.06332 62.6609C5.30378 61.9738 6.62385 61.6328 8.02354 61.6328C9.05341 61.6328 10.1398 61.8559 11.2878 62.2968C11.953 62.5609 12.3716 62.6865 12.5514 62.6865C12.7825 62.6865 12.9802 62.5993 13.1498 62.4327C13.3167 62.2635 13.4297 61.9943 13.4785 61.6328H13.8945H13.892Z" fill="#1A171B"/>
<path d="M19.0791 70.9458V74.5812C19.0791 75.1836 19.1099 75.5656 19.1793 75.7143C19.2435 75.8707 19.3744 76.0015 19.5696 76.1117C19.7597 76.2271 20.0216 76.2835 20.3529 76.2835H20.7382V76.5809H14.6104V76.2835H15.0033C15.3423 76.2835 15.6145 76.2194 15.8277 76.0989C15.9767 76.0168 16.0897 75.8758 16.1744 75.681C16.2386 75.54 16.272 75.1734 16.272 74.5837V66.8798C16.272 66.2722 16.2386 65.8954 16.1744 65.7441C16.1076 65.5903 15.9818 65.4621 15.784 65.3467C15.5914 65.2314 15.3295 65.175 15.0033 65.175H14.6104V64.875H20.7382V65.175H20.3529C20.0114 65.175 19.7391 65.2416 19.526 65.3621C19.3796 65.4416 19.2589 65.5775 19.1741 65.7774C19.1099 65.9159 19.0765 66.285 19.0765 66.8798V70.1896H23.2011V66.8798C23.2011 66.2722 23.1677 65.8954 23.1035 65.7441C23.0445 65.5903 22.9109 65.4621 22.7157 65.3467C22.5154 65.2314 22.256 65.175 21.9273 65.175H21.5395V64.875H27.6699V65.175H27.2923C26.9405 65.175 26.6682 65.2416 26.4602 65.3621C26.3113 65.4416 26.1957 65.5775 26.1109 65.7774C26.0442 65.9159 26.0108 66.285 26.0108 66.8798V74.5837C26.0108 75.1862 26.0442 75.5682 26.1109 75.7169C26.17 75.8733 26.301 76.004 26.4987 76.1143C26.6965 76.2296 26.9585 76.286 27.2898 76.286H27.6673V76.5834H21.5369V76.286H21.9247C22.2688 76.286 22.5462 76.2219 22.7465 76.1014C22.8955 76.0194 23.0162 75.8784 23.101 75.6836C23.1652 75.5426 23.1985 75.176 23.1985 74.5863V70.951H19.074L19.0791 70.9458Z" fill="#1A171B"/>
<path d="M34.3528 76.2835V76.5809H28.2275V76.2835H28.6179C28.9569 76.2835 29.2317 76.2194 29.4423 76.0989C29.5938 76.0168 29.7094 75.8758 29.789 75.681C29.8558 75.54 29.8892 75.1734 29.8892 74.5837V66.8798C29.8892 66.2722 29.8584 65.8954 29.789 65.7441C29.7248 65.5903 29.599 65.4621 29.4038 65.3467C29.2086 65.2314 28.9466 65.175 28.6179 65.175H28.2275V64.875H34.3528V65.175H33.965C33.626 65.175 33.3537 65.2416 33.1432 65.3621C32.9968 65.4416 32.8761 65.5775 32.7913 65.7774C32.7245 65.9159 32.6963 66.285 32.6963 66.8798V74.5837C32.6963 75.1862 32.7245 75.5682 32.7913 75.7169C32.8581 75.8733 32.9865 76.004 33.1842 76.1143C33.3743 76.2296 33.6388 76.286 33.965 76.286H34.3528V76.2835Z" fill="#1A171B"/>
<path d="M38.9215 64.8762L44.6847 72.0854V67.1092C44.6847 66.3965 44.5819 65.9171 44.3791 65.6684C44.0991 65.3326 43.6368 65.1659 42.9768 65.1762V64.8762H46.8702V65.1762C46.3771 65.2428 46.0407 65.3249 45.8686 65.4274C45.6991 65.53 45.5682 65.694 45.4731 65.9222C45.3755 66.1581 45.3319 66.5503 45.3319 67.1092V76.8385H45.0314L37.1263 67.14V74.5363C37.1263 75.2233 37.283 75.6822 37.5989 75.9232C37.9045 76.1642 38.2641 76.2847 38.6673 76.2847H38.9472V76.5821H34.779V76.2847C35.4236 76.2821 35.8705 76.1411 36.1273 75.8771C36.379 75.613 36.51 75.1695 36.51 74.5337V66.335L36.23 65.9914C35.9835 65.6684 35.7677 65.4479 35.5726 65.3454C35.3825 65.2454 35.1077 65.1839 34.7559 65.171V64.8711H38.9241L38.9215 64.8762Z" fill="#1A171B"/>
<path d="M52.6571 72.5776L50.9081 68.5885L49.1129 72.5776H52.6571ZM52.9344 73.2211H48.8227L48.3039 74.3671C48.1421 74.7567 48.065 75.0772 48.065 75.3259C48.065 75.6643 48.1935 75.9104 48.4605 76.0719C48.6121 76.1617 48.9999 76.2309 49.606 76.2821V76.5795H45.71V76.2821C46.1337 76.2155 46.4779 76.0412 46.7475 75.7489C47.0146 75.4592 47.3536 74.8593 47.7517 73.9543L51.9508 64.625H52.1126L56.345 74.2158C56.7483 75.1413 57.0796 75.7233 57.339 75.9668C57.5367 76.1463 57.8141 76.2514 58.1685 76.2847V76.5821H52.503V76.2847H52.7367C53.1912 76.2847 53.5097 76.2181 53.6921 76.0873C53.8205 75.9925 53.8847 75.8591 53.8847 75.6797C53.8847 75.572 53.8693 75.4643 53.8333 75.3515C53.823 75.3003 53.7357 75.0798 53.5765 74.6875L52.9319 73.2211H52.9344Z" fill="#1A171B"/>
<path d="M68.2328 69.3827V74.6024C68.2328 74.987 68.3279 75.2844 68.523 75.4792C68.7157 75.6766 69.0033 75.7715 69.386 75.7715C69.9536 75.7715 70.4672 75.651 70.9475 75.3946C71.4226 75.1382 71.7873 74.7691 72.039 74.2871C72.2906 73.8026 72.4216 73.2616 72.4216 72.6668C72.4216 71.9823 72.2752 71.3722 71.9876 70.8312C71.6999 70.2877 71.2762 69.9083 70.7189 69.6955C70.1616 69.4801 69.3346 69.375 68.2303 69.3853L68.2328 69.3827ZM68.2328 68.529C69.2576 68.529 70.0126 68.4188 70.498 68.188C70.9885 67.9599 71.3609 67.6292 71.6178 67.2087C71.8797 66.796 72.0107 66.2576 72.0107 65.609C72.0107 64.9603 71.8849 64.4348 71.628 64.0143C71.3686 63.599 71.004 63.2862 70.5288 63.0709C70.0537 62.8555 69.2884 62.7504 68.2328 62.7556V68.5265V68.529ZM72.1417 68.8264C73.5491 69.1469 74.5327 69.5417 75.0977 70.0006C75.9093 70.6569 76.3176 71.5055 76.3176 72.5463C76.3176 73.6436 75.8785 74.5537 74.995 75.269C73.9086 76.1432 72.3266 76.579 70.2566 76.579H62.8164V76.2099C63.4944 76.2099 63.9541 76.1458 64.1981 76.015C64.4344 75.8894 64.6065 75.7202 64.7041 75.5177C64.7991 75.3126 64.8479 74.8101 64.8479 74.0025V64.5245C64.8479 63.7221 64.7965 63.217 64.7041 63.0042C64.6065 62.7966 64.4344 62.6299 64.1878 62.5043C63.9439 62.3813 63.4893 62.3172 62.819 62.3172V61.9531H69.8354C71.5125 61.9531 72.6964 62.0993 73.395 62.4018C74.0961 62.6966 74.6432 63.1452 75.0464 63.7375C75.4496 64.3322 75.6525 64.9629 75.6525 65.632C75.6525 66.3012 75.3931 66.9626 74.8769 67.5087C74.3632 68.0599 73.4489 68.5008 72.1443 68.8238L72.1417 68.8264Z" fill="#1A171B"/>
<path d="M80.722 65.5185V70.6254H81.2177C82.0241 70.6254 82.6251 70.551 83.0232 70.4049C83.4289 70.2588 83.7423 69.9947 83.9708 69.6153C84.1994 69.2307 84.3176 68.7385 84.3176 68.1232C84.3176 67.2336 84.1044 66.5799 83.6858 66.1543C83.2646 65.7287 82.5891 65.5185 81.6517 65.5185H80.722ZM80.722 71.2432V74.5325C80.722 75.1708 80.7605 75.5708 80.8427 75.7374C80.9198 75.9092 81.0585 76.0399 81.2588 76.1348C81.4591 76.2348 81.8366 76.2835 82.3811 76.2835V76.5809H76.3252V76.2835C76.8748 76.2835 77.2498 76.2296 77.4475 76.1322C77.6453 76.0271 77.7814 75.8989 77.8636 75.7348C77.9406 75.5733 77.9817 75.1734 77.9817 74.535V66.9208C77.9817 66.2876 77.938 65.8825 77.8636 65.721C77.7814 65.5569 77.6453 65.4262 77.4424 65.3262C77.2421 65.2237 76.8697 65.175 76.3252 65.175V64.875H81.7878C83.2106 64.875 84.2534 64.9775 84.9108 65.175C85.5709 65.3647 86.1102 65.7287 86.5262 66.2568C86.9474 66.7798 87.1503 67.4002 87.1503 68.1053C87.1503 68.9692 86.8396 69.6845 86.2155 70.246C85.8174 70.6074 85.2601 70.8741 84.541 71.0535L87.3584 75.017C87.7282 75.5246 87.9927 75.8425 88.1519 75.9707C88.3882 76.1502 88.6605 76.2476 88.9738 76.2655V76.586H85.2909L81.4976 71.2484H80.7246L80.722 71.2432Z" fill="#1A171B"/>
<path d="M95.1815 76.2835V76.5809H89.0537V76.2835H89.4415C89.7831 76.2835 90.0605 76.2194 90.2685 76.0989C90.42 76.0168 90.5382 75.8758 90.6152 75.681C90.6794 75.54 90.7128 75.1734 90.7128 74.5837V66.8798C90.7128 66.2722 90.6794 65.8954 90.6152 65.7441C90.5536 65.5903 90.4226 65.4621 90.23 65.3467C90.0348 65.2314 89.7754 65.175 89.4415 65.175H89.0537V64.875H95.1815V65.175H94.7912C94.4496 65.175 94.1748 65.2416 93.9693 65.3621C93.8152 65.4416 93.7022 65.5775 93.6149 65.7774C93.5507 65.9159 93.5199 66.285 93.5199 66.8798V74.5837C93.5199 75.1862 93.5558 75.5682 93.6226 75.7169C93.6868 75.8733 93.8152 76.004 94.0078 76.1143C94.2056 76.2296 94.465 76.286 94.7937 76.286H95.1841L95.1815 76.2835Z" fill="#1A171B"/>
<path d="M100.164 65.5428V70.3241H100.398C101.145 70.3241 101.69 70.0882 102.024 69.6242C102.363 69.1576 102.581 68.4731 102.673 67.563H102.971V73.6825H102.673C102.602 73.016 102.453 72.4673 102.229 72.0443C102.008 71.6188 101.749 71.3291 101.454 71.1829C101.151 71.0368 100.724 70.9676 100.162 70.9676V74.2645C100.162 74.9054 100.185 75.3002 100.241 75.4412C100.295 75.5874 100.401 75.7002 100.547 75.7925C100.698 75.8873 100.942 75.936 101.274 75.936H101.97C103.064 75.936 103.934 75.6745 104.597 75.172C105.252 74.667 105.727 73.8953 106.012 72.8596H106.333L105.809 76.577H95.6904V76.2796H96.0782C96.4198 76.2796 96.6998 76.2155 96.9052 76.095C97.0567 76.0129 97.1672 75.8719 97.2519 75.6771C97.3161 75.5361 97.3469 75.1695 97.3469 74.5798V66.8759C97.3469 66.335 97.3341 66.0094 97.3033 65.8889C97.2416 65.6812 97.1363 65.53 96.9823 65.4172C96.764 65.2531 96.4635 65.1711 96.0782 65.1711H95.6904V64.8711H105.481V68.2988H105.183C105.016 67.463 104.777 66.8605 104.474 66.499C104.168 66.135 103.737 65.8684 103.182 65.6915C102.858 65.5889 102.247 65.5428 101.356 65.5428H100.162H100.164Z" fill="#1A171B"/>
<path d="M110.904 65.5455V70.3498H111.222C111.749 70.3498 112.17 70.2781 112.499 70.1191C112.828 69.9627 113.107 69.7012 113.339 69.3346C113.565 68.9654 113.714 68.4681 113.783 67.8425H114.083V73.7339H113.783C113.67 72.6187 113.375 71.8855 112.881 71.5266C112.396 71.1702 111.844 70.9959 111.222 70.9959H110.904V74.5851C110.904 75.1876 110.935 75.5695 110.999 75.7182C111.066 75.8746 111.199 76.0054 111.392 76.1156C111.585 76.231 111.846 76.2874 112.17 76.2874H112.56V76.5848H106.433V76.2874H106.823C107.162 76.2874 107.437 76.2233 107.65 76.1028C107.801 76.0208 107.917 75.8797 107.997 75.6849C108.061 75.5439 108.092 75.1773 108.092 74.5876V66.8837C108.092 66.2761 108.061 65.8993 107.994 65.748C107.932 65.5942 107.801 65.466 107.606 65.3506C107.414 65.2353 107.152 65.1789 106.823 65.1789H106.433V64.8789H116.313V68.2399H115.971C115.886 67.4452 115.686 66.8658 115.35 66.4838C115.016 66.1018 114.538 65.8352 113.906 65.6737C113.562 65.5916 112.917 65.5506 111.98 65.5506H110.904V65.5455Z" fill="#1A171B"/>
<path d="M122.839 76.2835V76.5809H116.714V76.2835H117.104C117.443 76.2835 117.718 76.2194 117.931 76.0989C118.078 76.0168 118.196 75.8758 118.278 75.681C118.337 75.54 118.37 75.1734 118.37 74.5837V66.8798C118.37 66.2722 118.34 65.8954 118.278 65.7441C118.216 65.5903 118.085 65.4621 117.89 65.3467C117.697 65.2314 117.436 65.175 117.107 65.175H116.716V64.875H122.842V65.175H122.454C122.117 65.175 121.845 65.2416 121.632 65.3621C121.486 65.4416 121.37 65.5775 121.28 65.7774C121.216 65.9159 121.185 66.285 121.185 66.8798V74.5837C121.185 75.1862 121.219 75.5682 121.283 75.7169C121.35 75.8733 121.478 76.004 121.673 76.1143C121.866 76.2296 122.125 76.286 122.454 76.286H122.842L122.839 76.2835Z" fill="#1A171B"/>
<path d="M127.583 64.8762L133.349 72.0854V67.1092C133.349 66.3965 133.243 65.9171 133.04 65.6684C132.763 65.3326 132.298 65.1659 131.641 65.1762V64.8762H135.534V65.1762C135.039 65.2428 134.705 65.3249 134.533 65.4274C134.363 65.53 134.23 65.694 134.135 65.9222C134.039 66.1581 133.993 66.5503 133.993 67.1092V76.8385H133.698L125.793 67.14V74.5363C125.793 75.2233 125.95 75.6822 126.26 75.9232C126.571 76.1642 126.931 76.2847 127.331 76.2847H127.611V76.5821H123.443V76.2847C124.088 76.2821 124.537 76.1411 124.791 75.8771C125.046 75.613 125.169 75.1695 125.169 74.5337V66.335L124.894 65.9914C124.645 65.6684 124.424 65.4479 124.234 65.3454C124.044 65.2454 123.769 65.1839 123.412 65.171V64.8711H127.586L127.583 64.8762Z" fill="#1A171B"/>
<path d="M146.62 64.6262V68.7384H146.32C145.932 67.6206 145.354 66.772 144.579 66.185C143.808 65.603 142.963 65.3133 142.044 65.3133C141.124 65.3133 140.436 65.5568 139.853 66.0465C139.27 66.5387 138.857 67.2181 138.613 68.0975C138.369 68.9768 138.248 69.8793 138.248 70.8022C138.248 71.9148 138.381 72.8942 138.646 73.7351C138.916 74.5811 139.339 75.1989 139.93 75.5963C140.518 75.9911 141.222 76.186 142.031 76.186C142.313 76.186 142.604 76.1578 142.896 76.0962C143.192 76.0373 143.497 75.9501 143.811 75.8322V73.4018C143.811 72.9326 143.777 72.6301 143.713 72.4942C143.649 72.3558 143.515 72.2379 143.318 72.1225C143.115 72.0071 142.876 71.9558 142.588 71.9558H142.288V71.661H148V71.9558C147.566 71.984 147.262 72.0481 147.093 72.1353C146.918 72.225 146.787 72.3737 146.695 72.5865C146.644 72.7019 146.62 72.9711 146.62 73.4018V75.8322C145.87 76.1629 145.092 76.409 144.283 76.5782C143.472 76.7474 142.637 76.832 141.769 76.832C140.657 76.832 139.735 76.6782 139.003 76.3782C138.271 76.0757 137.621 75.6809 137.064 75.1938C136.502 74.7041 136.062 74.1529 135.746 73.5402C135.343 72.7506 135.146 71.861 135.146 70.8791C135.146 69.1255 135.764 67.6437 137 66.4362C138.235 65.2261 139.799 64.6237 141.679 64.6237C142.26 64.6237 142.778 64.6672 143.248 64.7595C143.505 64.8006 143.913 64.9339 144.479 65.1492C145.049 65.362 145.385 65.4697 145.49 65.4697C145.644 65.4697 145.799 65.4056 145.935 65.2902C146.073 65.1697 146.202 64.9467 146.317 64.6211H146.618L146.62 64.6262Z" fill="#1A171B"/>
</g>
<defs>
<clipPath id="clip0_3654_2820">
<rect width="148" height="82" fill="white"/>
</clipPath>
</defs>
</svg>
