<svg width="276" height="48" viewBox="0 0 276 48" fill="none" xmlns="http://www.w3.org/2000/svg">
<g clip-path="url(#clip0_3654_2786)">
<path d="M31.0265 17.3407L30.5029 16.9531C30.583 17.0301 30.6431 17.1384 30.6946 17.2524C30.7862 17.3664 30.8978 17.3379 31.0265 17.3379" fill="#F6A800"/>
<path d="M29.9941 16.6345L29.8911 16.5746L29.7881 16.5547L29.9941 16.6345Z" fill="#F6A800"/>
<path d="M28.9434 16.2188C29.115 16.3271 29.2896 16.3898 29.4698 16.4553C29.3353 16.3556 29.1637 16.2729 28.9434 16.2188Z" fill="#F6A800"/>
<path d="M29.7043 16.6907C29.6642 16.6052 29.6642 16.5368 29.7872 16.5511L29.4668 16.457C29.5641 16.5169 29.647 16.5995 29.7043 16.6907Z" fill="#F6A800"/>
<path d="M29.7051 16.6914C29.7394 16.7712 29.7995 16.8681 29.8167 16.9137C29.7881 16.8368 29.7566 16.7655 29.7051 16.6914Z" fill="#F6A800"/>
<path d="M28.8553 17.7571C28.7523 17.7571 28.9354 17.4294 28.7151 17.418C28.2516 17.304 27.8024 17.3382 27.3989 17.1786C27.1872 17.19 27.007 16.7169 26.7838 16.7368C26.286 16.6855 25.0099 16.9591 25.7023 17.0788C26.7409 17.2356 27.4133 17.3695 28.3088 17.6574C29.0613 17.8255 29.7937 18.0222 30.5061 18.3898C30.7036 18.501 30.8237 18.6748 30.9639 18.823C30.8066 18.6007 30.6406 18.3613 30.4089 18.1504C30.1313 17.8113 29.4447 17.9595 28.8553 17.7543" fill="#F6A800"/>
<path d="M33.5531 21.3401C33.4958 21.2346 33.37 21.0351 33.3642 21.0408C33.493 20.4794 33.1611 19.9892 32.8063 19.6016C32.8035 19.6956 32.7748 19.7982 32.752 19.898C32.9065 20.1459 33.0152 20.1374 32.9665 19.8552C33.0524 20.5079 33.2126 21.018 33.3127 21.5795C33.4072 21.5282 33.5273 21.5168 33.5531 21.3401Z" fill="#F6A800"/>
<path d="M33.3986 21.9098L33.3099 21.582L33.2842 21.602L33.3872 21.9212L33.3986 21.9098Z" fill="#F6A800"/>
<path d="M26.6288 15.7966C25.2297 15.4631 23.8821 15.3121 22.5603 15.2551C22.4602 15.3206 22.3886 15.4061 22.2513 15.3605C22.1483 15.2921 22.0453 15.2465 21.9394 15.2266L21.3615 15.2351L21.1555 15.2779H21.1526C21.0439 15.3206 21.0811 15.3719 21.1526 15.4289C21.2299 15.466 21.3014 15.5087 21.3643 15.5629C21.3214 15.5287 21.2213 15.4831 21.1526 15.4289C21.0582 15.3862 20.9552 15.352 20.8379 15.332C20.6634 15.3691 20.4831 15.4147 20.2971 15.409C20.5003 15.3377 20.6777 15.3178 20.8379 15.332L21.1583 15.275L21.2528 15.2323C20.8121 15.2237 20.3744 15.2608 19.9309 15.2893C19.8279 15.3092 19.7335 15.3263 19.6562 15.352C19.3501 15.446 19.044 15.5572 18.8151 15.4033L18.5833 15.4375L18.6319 15.4631L18.5404 15.4432C18.2056 15.4802 17.8795 15.5629 17.5447 15.6142C17.3473 15.7282 17.1556 15.8707 16.9553 15.9961C16.9553 15.9961 16.7779 15.9191 16.6864 15.8821C16.6263 15.9961 16.5204 16.0901 16.3888 16.1728C16.592 16.2212 16.7865 16.2982 16.9525 16.3267C17.21 16.4464 17.3215 15.8165 17.6735 16.1129C17.3215 15.8165 17.2071 16.4464 16.9525 16.3267C16.7865 16.2982 16.592 16.2241 16.3888 16.1728C16.1027 16.321 15.7107 16.415 15.3302 16.358C15.6592 16.0616 16.0369 16.0616 16.3888 16.1728C16.5204 16.093 16.6291 15.9961 16.6864 15.8821C16.7779 15.9191 16.9553 15.9961 16.9553 15.9961C17.1527 15.8707 17.3473 15.7282 17.5447 15.6142C16.901 15.7481 16.2429 15.8963 15.5963 16.1243C13.4933 16.7827 11.5392 17.9027 10.0886 19.6612C8.60365 21.3541 8.07434 24.301 9.55069 26.5126C11.0528 28.8696 13.4304 30.1236 15.7222 30.9872C20.526 32.5119 24.978 31.674 30.0078 30.1578C30.9892 29.8187 32.2968 29.0235 33.3983 27.8322C34.5084 26.6751 35.2895 25.0506 35.5241 23.8108C35.2237 20.4335 33.3668 22.4058 33.3439 22.3203C32.6544 22.9929 32.3711 23.3862 32.0335 23.9818C31.6845 24.5376 31.1723 25.2928 29.9706 25.783C31.5786 24.9195 29.5844 27.493 27.5129 27.2536C24.9293 26.9487 21.9022 28.6701 18.9009 28.006C18.1971 27.8493 17.4417 27.7866 16.6349 27.5614C12.5005 25.9854 9.83108 23.4916 13.2158 20.519C14.0255 19.7951 14.7751 18.9658 15.6764 18.3616C16.3602 17.9882 17.2214 17.9027 17.8308 17.746C18.7979 17.5066 19.6219 17.1988 20.4516 16.9651C19.5132 17.1218 18.8608 17.3612 17.8737 17.6576C17.21 17.8514 18.2142 17.0705 18.6663 16.8625C18.8551 16.7428 19.2414 17.1047 19.4216 16.985C19.8479 16.9052 20.2256 16.7143 20.6891 16.5461C20.8808 16.4464 20.8894 16.8226 20.9809 16.7741C21.6133 16.6658 22.1082 16.1414 22.5231 16.264C22.8407 16.3352 23.1325 16.378 23.3986 16.4692C23.5731 16.5062 23.7419 16.5376 23.9251 16.5376L24.2884 16.4692C25.1553 16.3609 26.1911 16.3181 27.1381 16.4549L27.1324 16.4207C26.5945 16.2839 26.0824 16.1471 25.5588 15.8023C25.7848 15.9362 25.7333 16.0331 25.4558 15.9989L25.2669 15.7795C25.7791 15.751 26.3084 15.7652 26.6946 16.1414C26.6946 16.1414 26.9207 16.1215 27.0351 16.1072C27.1696 16.1984 27.1324 16.3153 27.1324 16.4207L27.4586 16.4834C27.2926 16.2355 26.6403 15.7937 26.6374 15.7937" fill="#F6A800"/>
<path d="M20.8237 15.3246C20.8981 15.3103 20.9953 15.2961 21.0955 15.2818C20.7235 15.2761 20.3544 15.316 19.9854 15.3303C20.1999 15.4956 20.5004 15.4158 20.8237 15.3246Z" fill="#F6A800"/>
<path d="M23.0412 19.3887C23.0298 19.1578 23.0183 18.9298 23.0183 18.7161C23.0183 18.0093 23.0756 17.445 23.17 16.9776C23.2787 14.7374 23.3588 12.4688 23.3073 10.1746C23.2759 10.1746 23.2501 10.1831 23.2244 10.1888C23.2244 9.60741 23.2301 9.06591 23.2444 8.5529C23.2902 7.11364 23.3874 5.96509 23.5477 5.12718C23.7651 3.97862 23.8681 3.04097 23.8681 2.32846C23.8681 1.61596 23.6249 1.08871 23.1271 0.652654C22.6235 0.219451 22.2573 0 22.0341 0C21.8109 0 21.3417 0.552904 20.6264 1.65301C19.9026 2.76452 19.5449 3.40577 19.5449 3.57962C19.5449 3.65657 19.6222 4.02138 19.7795 4.68258C19.9369 5.34093 20.0113 6.44959 20.0113 8C20.0113 8.2337 19.9712 8.49875 19.8854 8.80941V33.8725C19.934 34.6391 19.9684 35.5454 19.9855 36.6028C20.0342 40.3819 20.1372 42.8586 20.2831 44.0613C20.4347 45.2469 20.5063 46.5636 20.5063 48C21.6593 44.3121 22.4461 40.4133 22.8753 36.3121C22.9382 35.6737 22.9983 35.0866 23.0584 34.5394C22.4347 29.3951 22.7494 24.4076 23.0384 19.3858" fill="#1A171B"/>
<path d="M18.8551 28.0795C18.8551 28.0795 23.0724 28.0852 23.9136 27.7461L24.2455 31.4625C24.2455 31.4625 19.7049 32.1323 18.3516 31.4625L18.8523 28.0795" fill="#F6A800"/>
<path d="M3.43095 43.8413L3.34512 43.3055C2.86159 40.0195 2.73284 36.702 2.48392 33.0198C2.26361 30.4377 2.29794 27.4794 2.29508 24.8859C2.38378 31.022 2.5812 37.4773 3.54254 43.2799C3.63696 42.6785 3.6999 41.9632 3.62837 41.1452C3.38804 39.173 3.29934 37.215 3.1477 35.2742C3.08476 35.2799 2.96459 35.2856 2.90164 35.2856C2.87017 29.768 2.32655 24.598 2.75 19.0604C2.77861 19.2542 2.83584 19.1431 2.87589 19.1003C2.71281 24.5467 2.80437 29.6454 3.1334 35.0576C2.65845 26.6443 2.95601 18.4904 3.29362 9.83208C3.30793 9.45873 3.33654 8.72628 3.3537 8.35292C3.23068 6.86806 3.23926 5.38606 3.30793 3.90405C2.97603 4.2603 2.42097 2.74979 2.40667 5.71381C2.34658 5.70811 2.22069 5.70811 2.15775 5.70526C1.98322 2.72984 1.15635 1.57273 0.764371 4.5282C0.360951 7.85417 0.406729 12.3144 0.18356 16.3985C0.026197 19.3768 -0.0624984 22.3608 0.0548084 25.3333C0.257949 29.4345 0.272255 33.909 0.781538 37.9931C0.895984 39.4808 0.93604 42.0971 1.18782 42.8267C1.32516 43.354 1.45677 43.3597 1.59696 43.2713C1.34518 40.8374 1.19926 38.4007 1.05621 35.9952C0.858789 33.0455 0.675676 30.0872 0.549786 27.1317C0.721454 30.0188 0.893123 32.9885 1.05621 35.9952C1.22788 38.3893 1.41957 40.7947 1.71427 43.1858C1.84016 43.0861 1.96033 42.9892 2.0948 43.1231C2.0948 43.1231 2.15775 43.8556 2.1835 44.2346C2.62125 45.6796 3.02753 45.2635 3.27645 44.4997C3.32795 44.3059 3.38518 44.0921 3.43095 43.847" fill="#E2001A"/>
<path d="M17.4851 4.34734L17.2534 4.34164C15.8486 4.24189 14.4838 4.01674 12.9531 4.04524C11.8859 4.09369 10.6814 4.00249 9.62559 4.00249C12.1291 3.87424 14.7642 4.07944 17.2791 4.15069C17.0617 3.95404 16.7842 3.78304 16.4351 3.72604C15.5911 3.60634 14.7585 3.61204 13.9402 3.52654C13.9373 3.59209 13.9316 3.71749 13.9202 3.77734C11.6198 3.40114 9.49112 3.89704 7.24226 3.63769C7.32523 3.60349 7.27373 3.55219 7.25084 3.51514C9.47109 3.51514 11.5683 3.46954 13.8515 3.51514C10.3123 3.34414 6.98476 3.41539 3.51133 3.49519C3.36541 3.49519 3.07072 3.51514 2.91621 3.51514C2.33826 3.70894 1.74887 3.78304 1.15947 3.78589C1.31111 4.09939 0.718858 4.73494 1.90909 4.59529C1.90909 4.65229 1.90909 4.78054 1.91482 4.84324C0.730303 5.1824 0.263937 6.06305 1.47706 6.29105C2.84469 6.54185 4.64721 6.2255 6.27519 6.2996C7.46829 6.3224 8.63278 6.368 9.80012 6.2369C11.4081 6.0716 13.1391 6.17135 14.7299 6.13715C15.3164 6.11435 16.2634 6.49625 16.5782 6.3623C16.8013 6.31385 16.8271 6.1856 16.8271 6.03455C15.8886 5.8493 14.9416 5.74385 13.9946 5.6726C12.8415 5.6441 11.6713 5.6441 10.5068 5.7638C11.6456 5.60135 12.8158 5.60705 13.9946 5.6726C14.9416 5.70965 15.8886 5.77805 16.8185 5.912C16.8156 5.77805 16.8013 5.63555 16.8872 5.5301C16.8872 5.5301 17.179 5.5871 17.3221 5.6156C17.9715 5.4104 17.9372 4.95724 17.694 4.59814C17.6368 4.52119 17.5595 4.42999 17.4851 4.34449" fill="#E2001A"/>
<path d="M1.13915 44.1716L1.3566 44.1573C2.70991 44.1488 4.02318 44.3226 5.49094 44.2799C6.51809 44.2172 7.68544 44.3141 8.70401 44.334C6.28062 44.4138 3.74279 44.2428 1.34515 44.3483C1.5626 44.525 1.83441 44.676 2.1663 44.7188C2.97314 44.7701 3.76568 44.7672 4.54963 44.8185C4.54963 44.7416 4.55821 44.6219 4.56393 44.5677C6.76701 44.8955 8.8299 44.4281 11.0015 44.7387C10.9243 44.7786 10.9729 44.8299 10.9843 44.867C8.83562 44.81 6.81851 44.8299 4.63546 44.8185C8.01733 44.924 11.2361 45.0009 14.6266 44.9696C14.7725 44.9696 15.0586 44.9667 15.2074 44.961C15.7796 44.7701 16.3518 44.7074 16.9298 44.7045C16.7867 44.3853 17.3647 43.7555 16.2059 43.8894V43.6358C17.359 43.3223 17.8024 42.4359 16.6351 42.1965C15.3247 41.94 13.5823 42.2222 12.0086 42.0968C10.8527 42.0512 9.71399 41.9799 8.57525 42.0882C7.00163 42.2507 5.30211 42.1224 3.7342 42.2336C3.15911 42.2621 2.20349 41.9429 1.90021 42.0939C1.68849 42.1623 1.65988 42.2849 1.66846 42.4359C2.60119 42.5499 3.53678 42.6269 4.46379 42.6696C5.59681 42.6782 6.7384 42.6582 7.88 42.5499C6.76129 42.7124 5.61111 42.7181 4.46379 42.6696C3.53678 42.6554 2.60977 42.6269 1.68563 42.5642C1.70565 42.6924 1.7171 42.8321 1.63985 42.9461C1.63985 42.9461 1.3566 42.9033 1.2164 42.8862C0.601254 43.1285 0.669921 43.5816 0.921702 43.9265C0.984647 44.0034 1.0619 44.0832 1.14487 44.1687" fill="#E2001A"/>
<path d="M43.2492 3.89085L43.0346 3.9279C41.6813 4.11315 40.3366 4.03335 38.8288 4.13595C37.7787 4.24141 36.5742 4.1616 35.5213 4.13595C38.0191 4.0704 40.6427 4.16445 43.0318 3.73695C42.7886 3.58875 42.5025 3.4719 42.1677 3.4719C41.3609 3.5175 40.5626 3.546 39.7729 3.56595C39.7729 3.63435 39.7729 3.7512 39.7729 3.8196C37.5212 3.59445 35.4097 4.0476 33.1551 3.6942C33.2324 3.65715 33.1895 3.6087 33.1751 3.56595C33.1551 3.5289 33.1694 3.49755 33.3096 3.50325C33.1723 3.49755 33.1551 3.5289 33.1751 3.56595C35.3925 3.6714 37.4754 3.65715 39.6785 3.56595C36.2509 3.6372 32.9319 3.42345 29.3841 3.38925C29.2296 3.3807 28.9264 3.375 28.7804 3.375C28.1739 3.56025 27.5702 3.62295 26.9665 3.62295C27.1152 3.9336 26.5144 4.56346 27.7218 4.43521C27.7161 4.50076 27.7161 4.62901 27.7161 4.69171C26.5115 4.99666 26.0652 5.87447 27.2669 6.13667C28.6059 6.38747 30.4056 6.15662 32.0536 6.30767C33.2553 6.39317 34.4569 6.48437 35.6672 6.37892C37.3209 6.22217 39.132 6.32477 40.7972 6.08822C41.3981 6.03977 42.4567 6.23072 42.76 6.04547C42.9717 5.95997 42.986 5.81747 42.9545 5.67211C41.9617 5.68636 40.9689 5.68636 39.9961 5.70061C38.7944 5.75476 37.5927 5.81177 36.3939 5.91152C37.567 5.76046 38.7744 5.71486 39.9961 5.70061C40.9689 5.65216 41.9417 5.62081 42.9202 5.54956C42.883 5.42701 42.8487 5.29306 42.9116 5.16196C42.9116 5.16196 43.2149 5.16766 43.3608 5.16766C43.9616 4.85701 43.8157 4.41526 43.5153 4.10175C43.4381 4.03905 43.3494 3.96495 43.2549 3.8937" fill="#E2001A"/>
<path d="M26.5231 45.1952L27.2842 45.161C31.9507 44.99 36.6487 45.2608 41.8731 45.1325L42.5598 45.1097L42.7315 45.104L42.8259 45.0983H42.8431C43.2007 44.7506 42.0419 45.8735 43.6442 44.326V43.9042L43.6585 42.4734C43.6785 41.5101 43.6728 40.5297 43.6928 39.5493C43.7014 37.5857 43.7014 35.622 43.6814 33.8008C43.7386 35.9669 43.7729 38.1557 43.7643 40.3673C43.7643 41.4645 43.7443 42.5675 43.73 43.679L43.7214 44.0923V44.2975V44.326C43.9103 44.1464 42.0734 45.922 42.8459 45.1696H42.7744L42.6714 45.1753H41.8474L40.1994 45.1952C35.7903 45.2294 31.4443 45.1468 27.3128 45.3577C28.1511 45.5087 29.1468 45.6341 30.3055 45.6541C33.0951 45.6398 35.8819 45.6854 38.6458 45.6854C38.6458 45.6284 38.6458 45.5087 38.6458 45.4375C39.6243 45.4802 40.5971 45.503 41.5613 45.5087H42.2794L42.6428 45.5144H42.8459C41.7673 46.5518 44.3165 44.0894 44.0562 44.3374V44.2775L44.059 44.1863L44.0876 42.7413C44.122 40.8233 44.0934 38.9252 44.0619 37.0299C43.9904 33.2365 43.8502 29.4517 43.9303 25.5472C43.9732 25.8236 44.019 25.6612 44.059 25.5956C44.0934 25.5472 44.1248 25.5871 44.1306 26.0659C44.1248 25.5842 44.0962 25.5472 44.059 25.5956C44.0991 29.446 44.1878 33.171 44.2278 36.9074C44.2393 38.7741 44.2507 40.6437 44.2278 42.5361L44.205 43.9555V44.3032V44.3317V44.3459C44.4968 44.0666 41.6356 46.8283 42.8488 45.6569H42.7143L42.534 45.6655L41.8273 45.6712L38.9548 45.6883H41.195L42.3052 45.6826L42.5884 45.6769H42.8402C43.4611 45.0869 41.4697 47.0164 44.2278 44.3488V44.3288L44.2364 43.7674C44.2736 42.2768 44.2936 40.7948 44.3051 39.3128C44.3194 36.3488 44.2793 33.399 44.2336 30.4492C44.1391 24.5525 44.0018 18.6388 44.1535 12.5825C44.1735 12.0666 44.1906 11.0349 44.2164 10.519C44.1248 8.44709 44.1649 6.37797 44.3595 4.32596C44.0104 4.81616 43.5326 2.6872 43.3523 6.84538C43.2894 6.83968 43.1606 6.83113 43.1006 6.82543C43.1006 2.66155 42.4024 0.974339 41.7701 5.15817C41.1235 9.87494 41.2666 16.1934 41.2408 21.9448C41.2351 26.1286 41.2894 30.2925 41.4611 34.4421C41.5899 37.295 41.6128 40.2818 41.5727 43.2458L41.5613 43.8101V44.2519V44.2576C40.4082 45.3776 43.132 42.7385 42.8488 43.0093H42.7372L41.6242 43.0235L39.4011 43.052C37.9247 43.0748 36.4684 43.0891 35.0379 43.1175C32.9607 43.1261 29.3013 42.861 28.2512 43.052C27.5016 43.1318 27.473 43.2715 27.5846 43.4197C31.0208 43.414 34.4427 43.5337 37.8017 43.5565L40.8975 43.528L42.4511 43.5052L42.8373 43.4966H42.8459C41.2351 45.0584 42.4024 43.9241 42.0419 44.2747V43.1318C42.0591 41.0712 42.019 39.0107 41.9504 36.9416C42.0448 38.9622 42.0963 41.0057 42.0763 43.072L42.0677 44.2348V44.2775C41.3724 44.9444 43.0119 43.3627 42.8402 43.528H42.6971L42.4997 43.5337L40.9375 43.5565H37.796C34.437 43.5593 31.0666 43.4938 27.6904 43.5479C27.8106 43.6762 27.9279 43.8101 27.7248 43.9241C27.7248 43.9241 26.6776 43.9241 26.1569 43.9184C24.074 44.2319 24.5975 44.6708 25.6333 44.9815C25.8994 45.0527 26.1912 45.1211 26.5231 45.1981" fill="#E2001A"/>
<path d="M74.3415 8.72054V16.3158H73.7177C73.2371 14.3151 72.353 12.7904 71.0569 11.7216C69.7522 10.6643 68.2816 10.1285 66.6336 10.1285C65.2602 10.1285 63.9985 10.5303 62.8511 11.3141C61.7038 12.095 60.8626 13.1295 60.3333 14.4006C59.6524 16.0308 59.3148 17.8492 59.3148 19.8413C59.3148 21.8335 59.5608 23.6005 60.0558 25.2107C60.5536 26.821 61.3319 28.0408 62.3962 28.8702C63.4577 29.6938 64.8282 30.1099 66.5163 30.1099C67.901 30.1099 69.1714 29.7993 70.3244 29.2065C71.4746 28.5966 72.6906 27.5563 73.9667 26.08V27.9667C72.7364 29.2578 71.4517 30.1869 70.1127 30.7597C68.7708 31.3354 67.2115 31.6261 65.4262 31.6261C63.0772 31.6261 60.9885 31.1587 59.166 30.2211C57.3377 29.2863 55.9329 27.9382 54.9401 26.1798C53.953 24.427 53.458 22.5545 53.458 20.5766C53.458 18.479 54.0131 16.4982 55.106 14.6286C56.2047 12.7505 57.6925 11.297 59.5637 10.2596C61.4291 9.2307 63.4148 8.71484 65.5177 8.71484C67.0685 8.71484 68.7022 9.0483 70.4246 9.71235C71.426 10.1085 72.0526 10.2995 72.3244 10.2995C72.6734 10.2995 72.971 10.1712 73.2256 9.91755C73.4774 9.66675 73.6462 9.26205 73.7206 8.71769H74.3443L74.3415 8.72054Z" fill="#1A171B"/>
<path d="M82.1409 22.6925V28.1474C82.1409 29.0537 82.1895 29.6237 82.2925 29.846C82.3898 30.0797 82.5872 30.2764 82.8791 30.4417C83.1652 30.6127 83.56 30.6982 84.0578 30.6982H84.6387V31.1456H75.4258V30.6982H76.018C76.5302 30.6982 76.9393 30.6013 77.2569 30.4217C77.4801 30.2992 77.6489 30.0883 77.7776 29.7919C77.8749 29.581 77.9236 29.0309 77.9236 28.1446V16.5849C77.9236 15.6757 77.8749 15.1057 77.7776 14.8777C77.6775 14.6497 77.4887 14.4531 77.1911 14.2821C76.9021 14.1111 76.5073 14.0256 76.018 14.0256H75.4258V13.5781H84.6387V14.0256H84.0578C83.5457 14.0256 83.1337 14.1253 82.8161 14.3077C82.5958 14.4274 82.4155 14.6326 82.2897 14.9319C82.1924 15.1399 82.1437 15.6928 82.1437 16.5849V21.5496H88.3438V16.5849C88.3438 15.6757 88.2952 15.1057 88.1979 14.8777C88.1064 14.6497 87.9089 14.4531 87.6142 14.2821C87.3138 14.1111 86.9219 14.0256 86.4269 14.0256H85.8461V13.5781H95.0618V14.0256H94.4924C93.966 14.0256 93.554 14.1253 93.2421 14.3077C93.0189 14.4274 92.8444 14.6326 92.7185 14.9319C92.6184 15.1399 92.5669 15.6928 92.5669 16.5849V28.1446C92.5669 29.0509 92.6155 29.6209 92.7185 29.8432C92.8072 30.0769 93.0018 30.2735 93.3022 30.4388C93.5998 30.6098 93.9917 30.6953 94.4924 30.6953H95.0618V31.1428H85.8461V30.6953H86.4269C86.9447 30.6953 87.3625 30.5984 87.6657 30.4189C87.8889 30.2963 88.0692 30.0854 88.1979 29.789C88.2952 29.5781 88.3438 29.0281 88.3438 28.1417V22.6868H82.1437L82.1409 22.6925Z" fill="#1A171B"/>
<path d="M105.109 30.7021V31.1495H95.8994V30.7021H96.486C96.9952 30.7021 97.4072 30.6052 97.7248 30.4256C97.9509 30.3031 98.1254 30.0922 98.2456 29.7958C98.3457 29.5849 98.3943 29.0348 98.3943 28.1485V16.5888C98.3943 15.6796 98.3457 15.1096 98.2456 14.8816C98.1511 14.6536 97.9594 14.457 97.6676 14.286C97.3729 14.115 96.9809 14.0295 96.486 14.0295H95.8994V13.582H105.109V14.0295H104.526C104.016 14.0295 103.607 14.1292 103.29 14.3116C103.067 14.4313 102.886 14.6365 102.76 14.9358C102.66 15.1438 102.617 15.6967 102.617 16.5888V28.1485C102.617 29.0548 102.657 29.6248 102.76 29.8471C102.863 30.0808 103.055 30.2774 103.35 30.4427C103.636 30.6137 104.034 30.6992 104.523 30.6992H105.107L105.109 30.7021Z" fill="#1A171B"/>
<path d="M111.977 13.582L120.643 24.3979V16.9308C120.643 15.862 120.489 15.1438 120.185 14.7676C119.765 14.2632 119.067 14.0152 118.077 14.0295V13.582H123.931V14.0295C123.187 14.1292 122.683 14.2518 122.423 14.4057C122.168 14.5596 121.971 14.8047 121.828 15.1495C121.682 15.5029 121.616 16.0929 121.616 16.9308V31.5314H121.167L109.279 16.9793V28.0744C109.279 29.1032 109.513 29.7958 109.988 30.1577C110.449 30.5197 110.987 30.7021 111.593 30.7021H112.014V31.1495H105.745V30.7021C106.715 30.6964 107.388 30.4883 107.771 30.0922C108.151 29.696 108.346 29.0291 108.346 28.0772V15.7737L107.925 15.2607C107.554 14.7733 107.23 14.4456 106.938 14.2917C106.652 14.1435 106.24 14.0494 105.711 14.0295V13.582H111.98H111.977Z" fill="#1A171B"/>
<path d="M132.631 25.1422L130.001 19.1571L127.3 25.1422H132.628H132.631ZM133.048 26.1083H126.868L126.09 27.8297C125.85 28.4168 125.73 28.8956 125.73 29.269C125.73 29.7791 125.924 30.1468 126.325 30.3891C126.554 30.523 127.134 30.6285 128.047 30.7054V31.1529H122.19V30.7054C122.828 30.6057 123.343 30.3435 123.753 29.9045C124.156 29.4713 124.665 28.5707 125.263 27.2141L131.575 13.2148H131.818L138.181 27.6046C138.788 28.9925 139.286 29.8675 139.675 30.2323C139.972 30.5031 140.39 30.6598 140.922 30.7083V31.1557H132.405V30.7083H132.757C133.438 30.7083 133.921 30.6085 134.193 30.4119C134.387 30.2694 134.482 30.067 134.482 29.8019C134.482 29.6395 134.459 29.4799 134.405 29.3117C134.387 29.2348 134.259 28.9013 134.018 28.3171L133.048 26.114V26.1083Z" fill="#1A171B"/>
<path d="M156.052 20.3495V28.1842C156.052 28.7599 156.198 29.2074 156.49 29.4981C156.779 29.7945 157.214 29.937 157.789 29.937C158.641 29.937 159.417 29.7546 160.138 29.3699C160.85 28.9851 161.399 28.4322 161.78 27.7083C162.158 26.9787 162.355 26.1693 162.355 25.2772C162.355 24.2484 162.135 23.3335 161.7 22.5241C161.265 21.709 160.63 21.139 159.791 20.8169C158.956 20.4949 157.709 20.3353 156.049 20.3495H156.052ZM156.052 19.067C157.591 19.067 158.727 18.8989 159.46 18.5569C160.195 18.212 160.759 17.719 161.145 17.0891C161.537 16.4707 161.734 15.6613 161.734 14.6866C161.734 13.7119 161.543 12.9252 161.159 12.2954C160.767 11.6712 160.224 11.2038 159.505 10.8818C158.787 10.5569 157.64 10.4001 156.055 10.4087V19.067H156.052ZM161.932 19.5145C164.046 19.9961 165.525 20.5861 166.378 21.2787C167.597 22.2648 168.212 23.5359 168.212 25.1005C168.212 26.7478 167.548 28.1101 166.22 29.1875C164.584 30.4985 162.206 31.1511 159.096 31.1511H147.909V30.5982C148.931 30.5982 149.62 30.5013 149.986 30.3075C150.344 30.1166 150.599 29.8658 150.747 29.5608C150.89 29.253 150.965 28.4977 150.965 27.2893V13.0649C150.965 11.8593 150.89 11.1012 150.747 10.782C150.599 10.4714 150.341 10.2206 149.969 10.0325C149.603 9.84723 148.916 9.75033 147.909 9.75033V9.20312H158.461C160.982 9.20312 162.764 9.42258 163.814 9.87573C164.87 10.3175 165.691 10.9901 166.298 11.8821C166.904 12.7742 167.208 13.7204 167.208 14.7265C167.208 15.7325 166.818 16.7215 166.043 17.5423C165.268 18.3716 163.894 19.03 161.932 19.5145Z" fill="#1A171B"/>
<path d="M174.836 14.5492V22.2129H175.582C176.795 22.2129 177.7 22.1018 178.298 21.8852C178.907 21.6657 179.376 21.2696 179.72 20.6996C180.066 20.1239 180.24 19.3829 180.24 18.4595C180.24 17.1257 179.92 16.1453 179.288 15.5068C178.655 14.8684 177.637 14.5521 176.229 14.5521H174.833L174.836 14.5492ZM174.836 23.1392V28.0754C174.836 29.033 174.893 29.6344 175.016 29.8823C175.13 30.1417 175.342 30.3355 175.64 30.478C175.943 30.6262 176.507 30.7031 177.325 30.7031V31.1506H168.218V30.7031C169.045 30.7031 169.608 30.6205 169.906 30.4751C170.203 30.3155 170.409 30.1274 170.532 29.8795C170.647 29.6372 170.713 29.0359 170.713 28.0783V16.6526C170.713 15.7035 170.65 15.0936 170.532 14.8513C170.407 14.6034 170.203 14.4096 169.897 14.2614C169.597 14.1103 169.039 14.0334 168.218 14.0334V13.5859H176.435C178.572 13.5859 180.143 13.737 181.133 14.0334C182.126 14.3184 182.935 14.8627 183.559 15.6579C184.192 16.4445 184.498 17.3736 184.498 18.431C184.498 19.7277 184.028 20.7993 183.093 21.6429C182.495 22.1844 181.657 22.5863 180.575 22.8542L184.812 28.7993C185.37 29.5603 185.765 30.0391 186.005 30.23C186.357 30.5008 186.772 30.6433 187.242 30.6718V31.1534H181.702L176 23.142H174.836V23.1392Z" fill="#1A171B"/>
<path d="M196.578 30.7021V31.1495H187.362V30.7021H187.943C188.458 30.7021 188.876 30.6052 189.185 30.4256C189.414 30.3031 189.591 30.0922 189.708 29.7958C189.806 29.5849 189.854 29.0348 189.854 28.1485V16.5888C189.854 15.6796 189.806 15.1096 189.708 14.8816C189.617 14.6536 189.417 14.457 189.131 14.286C188.836 14.115 188.45 14.0295 187.943 14.0295H187.362V13.582H196.578V14.0295H195.992C195.477 14.0295 195.065 14.1292 194.756 14.3116C194.524 14.4313 194.355 14.6365 194.223 14.9358C194.129 15.1438 194.08 15.6967 194.08 16.5888V28.1485C194.08 29.0548 194.132 29.6248 194.235 29.8471C194.332 30.0808 194.527 30.2774 194.813 30.4427C195.11 30.6137 195.502 30.6992 195.992 30.6992H196.578V30.7021Z" fill="#1A171B"/>
<path d="M204.068 14.5852V21.7616H204.42C205.545 21.7616 206.363 21.4082 206.864 20.7128C207.373 20.0117 207.699 18.9828 207.839 17.6205H208.288V26.8033H207.839C207.733 25.8029 207.51 24.9793 207.173 24.3437C206.841 23.7053 206.452 23.2721 206.005 23.0526C205.55 22.8332 204.909 22.7277 204.062 22.7277V27.6754C204.062 28.6387 204.1 29.2286 204.18 29.4424C204.263 29.6618 204.42 29.8328 204.638 29.9725C204.864 30.115 205.23 30.1862 205.731 30.1862H206.778C208.423 30.1862 209.733 29.7958 210.726 29.0377C211.71 28.2796 212.423 27.1225 212.855 25.5692H213.338L212.551 31.1495H197.336V30.7021H197.92C198.432 30.7021 198.852 30.6052 199.164 30.4256C199.393 30.3031 199.559 30.0922 199.685 29.7958C199.782 29.5849 199.828 29.0348 199.828 28.1485V16.5888C199.828 15.7794 199.808 15.2892 199.762 15.1068C199.671 14.7961 199.51 14.5681 199.279 14.4C198.952 14.152 198.498 14.0295 197.92 14.0295H197.336V13.582H212.056V18.7235H211.607C211.356 17.4695 210.995 16.5632 210.543 16.0216C210.085 15.4744 209.433 15.0726 208.6 14.8104C208.114 14.6565 207.195 14.5852 205.854 14.5852H204.057H204.068Z" fill="#1A171B"/>
<path d="M220.216 14.586V21.7937H220.694C221.483 21.7937 222.119 21.6854 222.614 21.446C223.106 21.2123 223.529 20.8161 223.875 20.2689C224.213 19.716 224.439 18.9693 224.545 18.0288H224.994V26.8667H224.545C224.376 25.1937 223.93 24.0936 223.192 23.555C222.459 23.0192 221.632 22.7598 220.697 22.7598H220.219V28.1435C220.219 29.0498 220.265 29.6198 220.362 29.8421C220.462 30.0758 220.662 30.2725 220.951 30.4378C221.24 30.6088 221.635 30.6943 222.121 30.6943H222.711V31.1417H213.495V30.6943H214.085C214.594 30.6943 215.009 30.5974 215.326 30.4178C215.555 30.2953 215.727 30.0844 215.847 29.788C215.941 29.5771 215.99 29.027 215.99 28.1407V16.581C215.99 15.6718 215.941 15.1018 215.844 14.8738C215.75 14.6458 215.555 14.4492 215.263 14.2782C214.971 14.1072 214.579 14.0217 214.085 14.0217H213.495V13.5742H228.353V18.6159H227.838C227.709 17.4246 227.409 16.5525 226.905 15.9825C226.405 15.4096 225.684 15.0106 224.734 14.7684C224.216 14.643 223.246 14.5831 221.838 14.5831H220.219L220.216 14.586Z" fill="#1A171B"/>
<path d="M238.164 30.7021V31.1495H228.954V30.7021H229.541C230.053 30.7021 230.462 30.6052 230.782 30.4256C231.003 30.3031 231.18 30.0922 231.303 29.7958C231.395 29.5849 231.44 29.0348 231.44 28.1485V16.5888C231.44 15.6796 231.392 15.1096 231.3 14.8816C231.206 14.6536 231.011 14.457 230.716 14.286C230.428 14.115 230.033 14.0295 229.538 14.0295H228.951V13.582H238.161V14.0295H237.578C237.071 14.0295 236.662 14.1292 236.341 14.3116C236.121 14.4313 235.947 14.6365 235.812 14.9358C235.715 15.1438 235.669 15.6967 235.669 16.5888V28.1485C235.669 29.0548 235.718 29.6248 235.818 29.8471C235.918 30.0808 236.113 30.2774 236.407 30.4427C236.699 30.6137 237.085 30.6992 237.58 30.6992H238.164V30.7021Z" fill="#1A171B"/>
<path d="M245.297 13.582L253.966 24.3979V16.9308C253.966 15.862 253.809 15.1438 253.503 14.7676C253.088 14.2632 252.387 14.0152 251.4 14.0295V13.582H257.254V14.0295C256.507 14.1292 256.006 14.2518 255.749 14.4057C255.497 14.5596 255.294 14.8047 255.151 15.1495C255.008 15.5029 254.936 16.0929 254.936 16.9308V31.5314H254.49L242.602 16.9793V28.0744C242.602 29.1032 242.836 29.7958 243.306 30.1577C243.775 30.5197 244.313 30.7021 244.914 30.7021H245.337V31.1495H239.068V30.7021C240.038 30.6964 240.713 30.4883 241.094 30.0922C241.474 29.696 241.663 29.0291 241.663 28.0772V15.7737L241.248 15.2607C240.874 14.7733 240.545 14.4456 240.258 14.2917C239.972 14.1435 239.56 14.0494 239.022 14.0295V13.582H245.297Z" fill="#1A171B"/>
<path d="M273.925 13.2109V19.3812H273.473C272.89 17.7054 272.023 16.4315 270.855 15.5508C269.699 14.6787 268.426 14.2398 267.044 14.2398C265.662 14.2398 264.63 14.6074 263.751 15.3399C262.876 16.0781 262.252 17.0984 261.886 18.4179C261.517 19.7375 261.339 21.0912 261.339 22.4792C261.339 24.1493 261.54 25.6199 261.937 26.8825C262.341 28.1507 262.982 29.0798 263.866 29.6755C264.753 30.2654 265.808 30.5618 267.024 30.5618C267.448 30.5618 267.886 30.5191 268.326 30.4279C268.772 30.3367 269.23 30.2084 269.699 30.0317V26.3866C269.699 25.6826 269.648 25.2295 269.551 25.0243C269.456 24.8162 269.253 24.6367 268.958 24.4657C268.655 24.2947 268.292 24.2149 267.863 24.2149H267.411V23.7731H276V24.2149C275.347 24.2576 274.89 24.3517 274.638 24.4856C274.375 24.6196 274.177 24.8419 274.037 25.1639C273.957 25.3349 273.923 25.7396 273.923 26.3894V30.0346C272.795 30.5305 271.628 30.901 270.409 31.1546C269.19 31.4083 267.934 31.5366 266.627 31.5366C264.956 31.5366 263.568 31.3057 262.467 30.8554C261.365 30.4022 260.389 29.8094 259.554 29.0798C258.707 28.3474 258.046 27.518 257.571 26.5975C256.965 25.4119 256.667 24.0781 256.667 22.6046C256.667 19.974 257.597 17.751 259.457 15.9384C261.316 14.1229 263.665 13.2166 266.495 13.2166C267.368 13.2166 268.149 13.2822 268.853 13.4218C269.236 13.4845 269.854 13.684 270.704 14.0089C271.562 14.3281 272.069 14.4906 272.226 14.4906C272.458 14.4906 272.689 14.3937 272.895 14.2227C273.104 14.0431 273.296 13.7097 273.47 13.2195H273.923L273.925 13.2109Z" fill="#1A171B"/>
</g>
<defs>
<clipPath id="clip0_3654_2786">
<rect width="276" height="48" fill="white"/>
</clipPath>
</defs>
</svg>
