<svg width="286" height="52" viewBox="0 0 286 52" fill="none" xmlns="http://www.w3.org/2000/svg">
<g clip-path="url(#clip0_3654_3487)">
<path d="M32.5762 19.0964L32.0283 18.6953C32.1128 18.7755 32.1769 18.8872 32.2294 19.0076C32.3256 19.1279 32.4421 19.0964 32.5791 19.0964" fill="#F6A800"/>
<path d="M31.492 18.3643L31.3813 18.3013L31.2764 18.2812L31.492 18.3643Z" fill="#F6A800"/>
<path d="M30.3877 17.9375C30.5684 18.0492 30.752 18.1151 30.9385 18.1839C30.7957 18.0807 30.6179 17.9948 30.3877 17.9375Z" fill="#F6A800"/>
<path d="M31.1891 18.4242C31.1483 18.3354 31.1483 18.2667 31.2765 18.281L30.9385 18.1836C31.0405 18.2466 31.1279 18.3297 31.1862 18.4242" fill="#F6A800"/>
<path d="M31.1895 18.4258C31.2244 18.5089 31.2885 18.6091 31.3089 18.6578C31.2798 18.5776 31.2448 18.506 31.1895 18.4258Z" fill="#F6A800"/>
<path d="M30.2979 19.5287C30.1872 19.5287 30.3824 19.1878 30.1493 19.1792C29.6626 19.0589 29.1935 19.0961 28.768 18.93C28.5465 18.9415 28.3571 18.4516 28.124 18.4716C27.6024 18.4172 26.2619 18.7037 26.9904 18.8269C28.0803 18.9902 28.7884 19.1277 29.7267 19.4256C30.5165 19.6003 31.2858 19.8037 32.0347 20.1847C32.2416 20.2993 32.3699 20.4827 32.5156 20.6345C32.3495 20.4025 32.1746 20.1561 31.9327 19.9384C31.6413 19.5889 30.9215 19.7407 30.3008 19.5287" fill="#F6A800"/>
<path d="M35.2279 23.2433C35.1696 23.1344 35.0356 22.9282 35.0268 22.9311C35.1609 22.3495 34.8141 21.8396 34.4411 21.4414C34.4382 21.5388 34.4091 21.6448 34.3857 21.7479C34.5489 22.0058 34.6626 21.9943 34.613 21.705C34.7034 22.381 34.8724 22.911 34.9773 23.4925C35.0764 23.4381 35.2046 23.4266 35.2308 23.2462" fill="#F6A800"/>
<path d="M35.0648 23.8302L34.9745 23.4922L34.9453 23.5094L35.0561 23.8417L35.0648 23.8302Z" fill="#F6A800"/>
<path d="M27.9575 17.4964C26.4888 17.1526 25.0725 16.9922 23.6854 16.9349C23.5805 17.0036 23.5047 17.0925 23.362 17.0438C23.2541 16.975 23.1463 16.9234 23.0356 16.9062L22.4294 16.9148L22.2138 16.9607H22.2109C22.0943 17.0036 22.138 17.0581 22.2109 17.1182C22.2896 17.1583 22.3653 17.2013 22.4324 17.2557C22.3886 17.2214 22.2837 17.1727 22.2109 17.1182C22.1118 17.0753 22.0011 17.038 21.8787 17.018C21.6951 17.0581 21.5057 17.1039 21.3104 17.0982C21.5231 17.0237 21.7126 17.0036 21.8787 17.018L22.2167 16.9607L22.3158 16.9148C21.8524 16.9062 21.3949 16.9464 20.9287 16.975C20.8208 16.9951 20.7218 17.0151 20.6402 17.038C20.3167 17.1354 19.9991 17.25 19.7572 17.0925L19.5124 17.1268L19.5649 17.1526L19.4687 17.1326C19.119 17.1727 18.7751 17.2557 18.4225 17.3102C18.2156 17.4276 18.0146 17.5766 17.8047 17.7055C17.8047 17.7055 17.6211 17.6253 17.5221 17.588C17.4609 17.7055 17.3472 17.8058 17.2103 17.8888C17.423 17.9404 17.627 18.0178 17.8018 18.0464C18.0728 18.1696 18.1894 17.5164 18.5595 17.823C18.1894 17.5164 18.0699 18.1667 17.8018 18.0464C17.627 18.0178 17.423 17.9375 17.2103 17.8888C16.9101 18.0407 16.4992 18.1409 16.1 18.0808C16.4468 17.7743 16.8431 17.7743 17.2103 17.8888C17.3472 17.8058 17.4609 17.7055 17.5221 17.588C17.6182 17.6282 17.8047 17.7055 17.8047 17.7055C18.0116 17.5766 18.2156 17.4276 18.4225 17.3102C17.7465 17.4477 17.0558 17.6024 16.3739 17.8373C14.165 18.5191 12.1164 19.6793 10.5923 21.5012C9.03325 23.2544 8.47666 26.3111 10.027 28.5999C11.6035 31.0435 14.098 32.3412 16.508 33.235C21.5523 34.8163 26.2265 33.9455 31.5069 32.3756C32.5356 32.0261 33.9111 31.2011 35.065 29.9664C36.2307 28.7661 37.0496 27.0845 37.2973 25.8011C36.9825 22.3005 35.033 24.3459 35.0068 24.2571C34.2841 24.9532 33.9868 25.3628 33.6284 25.9787C33.2612 26.5574 32.7221 27.3366 31.4603 27.8437C33.1505 26.9499 31.0552 29.6169 28.8784 29.3677C26.1682 29.0526 22.986 30.8344 19.8359 30.1469C19.0986 29.9836 18.306 29.9206 17.458 29.6885C13.1159 28.0557 10.3155 25.4717 13.8678 22.3921C14.7187 21.6416 15.5026 20.7822 16.4497 20.1577C17.1665 19.7709 18.0699 19.6821 18.711 19.5189C19.7281 19.2725 20.5935 18.9516 21.462 18.7081C20.477 18.8714 19.7922 19.1178 18.7547 19.4243C18.0583 19.6248 19.1103 18.817 19.5882 18.5993C19.7863 18.4761 20.1914 18.8514 20.3808 18.7282C20.8267 18.6451 21.2259 18.4475 21.7126 18.2727C21.9136 18.1696 21.9253 18.5592 22.0215 18.5105C22.6859 18.3988 23.2046 17.8545 23.6417 17.9805C23.9768 18.055 24.2828 18.1008 24.5597 18.1925C24.7403 18.2326 24.921 18.2613 25.1133 18.2613L25.4951 18.1925C25.4077 18.0636 25.3902 17.9118 25.3727 17.7685C25.5446 17.7943 25.7982 17.9261 25.9759 17.9748C25.7952 17.9261 25.5446 17.7914 25.3727 17.7685C25.3902 17.9118 25.4077 18.0636 25.4951 18.1925C26.4043 18.0808 27.4942 18.0349 28.485 18.1782L28.4791 18.1438C27.9138 18.0006 27.3776 17.8631 26.8268 17.5021C27.0658 17.6396 27.0075 17.7399 26.719 17.7055L26.5209 17.4792C27.06 17.4477 27.6136 17.4649 28.0187 17.8545C28.0187 17.8545 28.2548 17.8344 28.3771 17.8201C28.517 17.9146 28.4791 18.0378 28.4791 18.1467L28.823 18.2097C28.6482 17.9547 27.9633 17.4935 27.9604 17.4935" fill="#F6A800"/>
<path d="M21.8644 17.0073C21.9431 16.993 22.0451 16.9758 22.15 16.9615C21.7595 16.9558 21.372 16.9959 20.9844 17.0102C21.2088 17.1821 21.5264 17.099 21.8644 17.0073Z" fill="#F6A800"/>
<path d="M24.1923 21.2201C24.1806 20.9823 24.1661 20.7445 24.1661 20.524C24.1661 19.7935 24.2243 19.2062 24.3263 18.7221C24.4429 16.4017 24.5245 14.0526 24.4691 11.672C24.4371 11.672 24.4109 11.6806 24.3846 11.6864C24.3846 11.0848 24.3905 10.5233 24.405 9.99332C24.4516 8.50082 24.5566 7.31197 24.7227 6.44396C24.95 5.25511 25.0578 4.28112 25.0578 3.54489C25.0578 2.80866 24.8013 2.2615 24.2797 1.80888C23.7493 1.35912 23.3676 1.13281 23.1316 1.13281C22.8955 1.13281 22.403 1.70575 21.6541 2.8459C20.8935 3.99751 20.5205 4.66212 20.5205 4.83973C20.5205 4.91708 20.6021 5.29808 20.7682 5.98275C20.9314 6.66454 21.013 7.81615 21.013 9.42038C21.013 9.66102 20.9693 9.9389 20.8789 10.2597V36.2282C20.9314 37.0218 20.9664 37.9614 20.9839 39.0557C21.0363 42.9717 21.1412 45.5385 21.2986 46.7818C21.4589 48.0107 21.5346 49.3743 21.5346 50.864C22.744 47.0425 23.5716 43.0032 24.0204 38.752C24.0845 38.0903 24.1486 37.483 24.2156 36.9158C23.5628 31.5846 23.8921 26.4195 24.1952 21.2143" fill="#282423"/>
<path d="M19.798 30.2255C19.798 30.2255 24.2245 30.2313 25.1075 29.8789L25.4572 33.7291C25.4572 33.7291 20.6897 34.4252 19.2705 33.7291L19.798 30.2227" fill="#F6A800"/>
<path d="M3.60144 46.5581L3.5111 46.0052C3.00113 42.599 2.86999 39.1614 2.60481 35.3456C2.37459 32.67 2.40665 29.6048 2.40665 26.9177C2.4999 33.2773 2.7068 39.9635 3.71509 45.9765C3.81708 45.3549 3.88119 44.6129 3.80542 43.765C3.5519 41.7196 3.46156 39.6914 3.30128 37.6804C3.23717 37.6861 3.10895 37.6918 3.04484 37.6918C3.01278 31.9739 2.44162 26.6169 2.88748 20.8789C2.91953 21.0823 2.97782 20.9648 3.01861 20.919C3.0565 20.8789 3.08855 20.9076 3.0769 21.2599C3.08564 20.9104 3.0565 20.8789 3.01861 20.919C2.84668 26.5596 2.94285 31.845 3.28963 37.4512C2.79131 28.7339 3.10312 20.2859 3.45864 11.3137C3.47321 10.9269 3.50236 10.1678 3.52275 9.78107C3.39453 8.24272 3.40328 6.70724 3.47321 5.17177C3.12644 5.54131 2.54361 3.97719 2.52613 7.04814C2.46202 7.04241 2.33088 7.04241 2.26386 7.03955C2.08027 3.95713 1.21478 2.75969 0.800971 5.81919C0.378425 9.26542 0.425051 13.8862 0.191921 18.1173C0.0258168 21.2026 -0.0674349 24.2936 0.0549579 27.376C0.267688 31.6244 0.282259 36.2623 0.818456 40.4935C0.937935 42.0347 0.981647 44.7447 1.24392 45.501C1.38671 46.0481 1.52659 46.0539 1.67521 45.9593C1.41002 43.4355 1.25557 40.9117 1.10695 38.4194C0.897137 35.3628 0.70772 32.2976 0.576585 29.2352C0.75726 32.226 0.935021 35.3027 1.10695 38.4194C1.28471 40.8974 1.4887 43.3926 1.7976 45.8705C1.92873 45.7674 2.05695 45.6671 2.19683 45.8075C2.19683 45.8075 2.26386 46.5667 2.29008 46.9591C2.7476 48.4545 3.17598 48.0248 3.43825 47.2341C3.4907 47.0336 3.5519 46.8102 3.60144 46.5581Z" fill="#E1001E"/>
<path d="M18.3582 5.63411L18.1134 5.62838C16.6389 5.52525 15.2051 5.29321 13.5995 5.32186C12.4775 5.37056 11.2128 5.27603 10.1054 5.27603C12.734 5.14425 15.5024 5.35337 18.1426 5.42785C17.9153 5.22446 17.6209 5.04685 17.2567 4.98669C16.3708 4.86351 15.4965 4.86924 14.6369 4.78043C14.6311 4.84919 14.6281 4.9781 14.6165 5.04112C12.2007 4.65152 9.96847 5.1643 7.60512 4.89789C7.68963 4.86351 7.64009 4.80908 7.61387 4.76897C9.94516 4.76897 12.1482 4.72027 14.5436 4.76897C10.8281 4.59136 7.3312 4.66584 3.68564 4.74892C3.53119 4.74892 3.2223 4.76897 3.0591 4.76897C2.45297 4.97237 1.83518 5.04398 1.21447 5.04971C1.37475 5.37629 0.754039 6.03231 2.00128 5.88907C2.00128 5.94636 2.00128 6.08101 2.00711 6.14403C0.765696 6.49639 0.27321 7.40736 1.54668 7.64513C2.98334 7.90582 4.8746 7.57638 6.58518 7.65372C7.83825 7.67951 9.06218 7.72248 10.2861 7.5907C11.9734 7.41882 13.7918 7.52195 15.4616 7.48757C16.0765 7.46465 17.0731 7.85998 17.4024 7.71961C17.6355 7.67091 17.6646 7.53627 17.6646 7.37871C16.6797 7.18678 15.6831 7.07792 14.6893 7.00344C13.48 6.97479 12.2502 6.97479 11.0292 7.09797C12.224 6.92896 13.4538 6.93469 14.6893 7.00344C15.6831 7.04354 16.6797 7.1123 17.6559 7.2498C17.6501 7.1123 17.6384 6.96333 17.7258 6.85447C17.7258 6.85447 18.0318 6.91463 18.1834 6.94328C18.8653 6.73129 18.8303 6.26148 18.5739 5.88907C18.5127 5.80886 18.4311 5.71719 18.3553 5.62838" fill="#E1001E"/>
<path d="M1.19418 46.8973L1.42148 46.883C2.84066 46.8744 4.22195 47.0549 5.7606 47.0091C6.83882 46.946 8.06566 47.0434 9.13515 47.0635C6.59112 47.1466 3.92762 46.969 1.40983 47.0778C1.63713 47.2612 1.92271 47.4159 2.2724 47.4617C3.1175 47.5161 3.95093 47.5104 4.77271 47.5648C4.77563 47.4846 4.78146 47.3614 4.7902 47.3041C7.10401 47.6422 9.26919 47.1609 11.5509 47.4817C11.4694 47.5218 11.5189 47.5763 11.5335 47.6164C11.5509 47.6565 11.5422 47.688 11.3994 47.688C11.5393 47.688 11.5509 47.6565 11.5335 47.6164C9.27794 47.5562 7.15937 47.5763 4.86597 47.5677C8.41827 47.6765 11.7957 47.7568 15.3568 47.7252C15.5083 47.7252 15.8114 47.7224 15.9658 47.7166C16.5661 47.519 17.1694 47.456 17.7726 47.4502C17.624 47.1208 18.2272 46.4676 17.012 46.6051V46.3445C18.2243 46.0179 18.6876 45.1012 17.4608 44.852C16.0853 44.5855 14.2552 44.8777 12.6029 44.7488C11.3878 44.7001 10.193 44.6256 8.99527 44.7402C7.34296 44.9092 5.55661 44.7746 3.91014 44.8892C3.30691 44.9178 2.30446 44.5884 1.98682 44.746C1.76535 44.8147 1.73621 44.9436 1.74495 45.1012C2.72409 45.2186 3.70615 45.2988 4.67946 45.3418C5.87134 45.3504 7.06612 45.3304 8.26382 45.2186C7.08944 45.3876 5.88299 45.3934 4.67946 45.3418C3.70615 45.3275 2.73283 45.2988 1.76243 45.233C1.78283 45.3647 1.79449 45.5108 1.71581 45.6283C1.71581 45.6283 1.41857 45.5853 1.26995 45.5681C0.623015 45.8202 0.695868 46.29 0.961052 46.6453C1.02808 46.7255 1.10967 46.8085 1.19418 46.8973Z" fill="#E1001E"/>
<path d="M45.4101 5.15601L45.1828 5.19612C43.7636 5.38805 42.3502 5.30497 40.765 5.41383C39.6605 5.52269 38.3987 5.43962 37.2913 5.41383C39.914 5.34508 42.6679 5.44534 45.1769 5.00132C44.9205 4.84662 44.6203 4.72631 44.2677 4.72631C43.4197 4.77501 42.5834 4.80365 41.7528 4.82371C41.7528 4.89246 41.7528 5.01564 41.7528 5.08726C39.3866 4.85235 37.1719 5.32503 34.8027 4.95835C34.8843 4.91824 34.8376 4.86954 34.8231 4.82657C34.8027 4.78646 34.8173 4.75782 34.963 4.76068C34.8173 4.75495 34.7998 4.78646 34.8231 4.82657C37.1515 4.93543 39.34 4.92111 41.6508 4.82657C38.0519 4.90105 34.5666 4.67761 30.8424 4.64323C30.6821 4.63177 30.3616 4.62891 30.2071 4.62891C29.5718 4.82084 28.9366 4.88386 28.3013 4.88386C28.4587 5.20471 27.8263 5.85786 29.0939 5.72322C29.0881 5.79197 29.0881 5.92375 29.0881 5.98964C27.8234 6.30762 27.3542 7.21573 28.6189 7.48501C30.0264 7.7457 31.9148 7.50506 33.6458 7.66262C34.9076 7.75143 36.1694 7.84596 37.44 7.7371C39.1768 7.57382 41.0768 7.68267 42.8282 7.43631C43.4605 7.38761 44.5708 7.58527 44.8913 7.39334C45.1128 7.30453 45.1274 7.15557 45.0953 7.00661C44.0521 7.02093 43.0117 7.02093 41.9918 7.03525C40.73 7.08968 39.4682 7.14984 38.2093 7.25297C39.439 7.09541 40.7096 7.04958 41.9918 7.03525C43.0147 6.98655 44.0346 6.95218 45.0633 6.87769C45.0254 6.74878 44.9875 6.61128 45.0545 6.47664C45.0545 6.47664 45.3722 6.48237 45.5266 6.48237C46.1561 6.16152 46.0016 5.70317 45.6869 5.37659C45.6053 5.31357 45.5121 5.23336 45.413 5.15888" fill="#E1001E"/>
<path d="M27.8468 47.9584L28.6482 47.924C33.5468 47.7464 38.4804 48.0272 43.9677 47.8925L44.6875 47.8667L44.8682 47.861L44.9673 47.8553H44.9847C45.3607 47.4943 44.1455 48.6603 45.8269 47.056V46.6177L45.8415 45.1367C45.8619 44.1398 45.8561 43.1228 45.8765 42.1058C45.8881 40.069 45.8881 38.038 45.8648 36.1501C45.9231 38.3932 45.961 40.662 45.9522 42.9538C45.9522 44.0882 45.9318 45.2341 45.9143 46.3857L45.9027 46.8154V47.0274V47.056C46.1009 46.8698 44.1717 48.7118 44.9818 47.9298H44.9061L44.7982 47.9355L43.9328 47.9412L42.2018 47.9555C37.5742 47.9899 33.0077 47.9068 28.6715 48.1217C29.5545 48.2793 30.5948 48.4082 31.8129 48.4282C34.7416 48.4139 37.6674 48.4626 40.5699 48.4626C40.5699 48.4024 40.5699 48.2793 40.5699 48.2048C41.5956 48.2477 42.6185 48.2735 43.6326 48.2792H44.3874L44.7691 48.285H44.9818C43.8482 49.3621 46.5263 46.8097 46.2524 47.0646V47.0016L46.2553 46.9071L46.2874 45.4088C46.3252 43.4207 46.2932 41.4555 46.2582 39.4904C46.1824 35.56 46.0367 31.6411 46.1183 27.5904C46.165 27.8769 46.2116 27.7079 46.2553 27.6391C46.2932 27.5904 46.3223 27.6305 46.3311 28.129C46.3252 27.6305 46.2932 27.5904 46.2553 27.6391C46.299 31.6296 46.3923 35.4884 46.4331 39.3614C46.4447 41.2951 46.4564 43.2317 46.4331 45.194L46.4097 46.6636V47.0245V47.0532V47.0675C46.7157 46.7753 43.7142 49.64 44.9847 48.4254H44.842L44.6525 48.4339L43.9124 48.4397L40.8962 48.4597H43.2479L44.4136 48.454L44.7108 48.4483H44.976C45.6288 47.8381 43.5393 49.8348 46.4331 47.0732V47.0532L46.4418 46.4716C46.4797 44.9247 46.5001 43.3921 46.5117 41.8566C46.5263 38.7856 46.4826 35.729 46.436 32.6724C46.3369 26.562 46.1912 20.4344 46.3515 14.1578C46.3748 13.625 46.3893 12.5536 46.4185 12.0208C46.3223 9.87225 46.3631 7.72945 46.5671 5.60098C46.2028 6.10803 45.6987 3.90221 45.5093 8.21358C45.4423 8.20786 45.3082 8.19926 45.2441 8.19353C45.2441 3.87643 44.5127 2.12897 43.8482 6.46612C43.1693 11.3533 43.3179 17.902 43.2916 23.8606C43.2858 28.1949 43.3441 32.512 43.5219 36.809C43.6559 39.7654 43.6792 42.8592 43.6413 45.9331L43.6297 46.5146V46.9729V46.9787C42.4203 48.1389 45.2791 45.4031 44.9818 45.6838H44.8653L43.6967 45.6982L41.3625 45.7268C39.8122 45.7526 38.2852 45.7669 36.7815 45.7956C34.5988 45.8041 30.758 45.5291 29.6565 45.7268C28.8697 45.8099 28.8376 45.9531 28.9571 46.1078C32.5648 46.1021 36.1579 46.2253 39.6869 46.251L42.939 46.2224L44.5709 46.1966L44.976 46.188H44.9847C43.2946 47.8066 44.5185 46.632 44.1397 46.993V45.807C44.1571 43.6728 44.1134 41.5358 44.0435 39.393C44.1426 41.4871 44.1979 43.6041 44.1775 45.7469L44.1688 46.9529V46.9959C43.4374 47.6863 45.1596 46.0477 44.9818 46.2195H44.8303L44.6234 46.2253L42.9827 46.251H39.684C36.1579 46.2568 32.6202 46.188 29.0708 46.2424C29.199 46.3771 29.3185 46.5146 29.1057 46.632C29.1057 46.632 28.0071 46.632 27.4593 46.6263C25.2708 46.9529 25.8244 47.4055 26.9114 47.7264C27.1912 47.8008 27.4971 47.8696 27.8468 47.9498" fill="#E1001E"/>
<path d="M60.791 37.707H65.8004V38.6982H61.9916V41.7377H65.509V42.7145H61.9916V46.8511H60.791V37.7099V37.707Z" fill="#9C9B99"/>
<path d="M66.9743 42.3339C66.9743 41.5605 66.9597 40.8959 66.9189 40.2857H67.9826L68.0234 41.5748H68.0788C68.3818 40.6925 69.1133 40.1367 69.9263 40.1367C70.0633 40.1367 70.1624 40.151 70.2702 40.1768V41.3026C70.1449 41.274 70.0225 41.2625 69.8564 41.2625C69.0025 41.2625 68.3935 41.9014 68.2274 42.7952C68.2012 42.9584 68.172 43.1475 68.172 43.3509V46.8516H66.9714V42.3339H66.9743Z" fill="#9C9B99"/>
<path d="M77.2532 43.5142C77.2532 45.9435 75.5426 47.0005 73.9282 47.0005C72.1215 47.0005 70.7285 45.6971 70.7285 43.6231C70.7285 41.4258 72.1914 40.1367 74.039 40.1367C75.8865 40.1367 77.2532 41.506 77.2532 43.5142ZM71.9554 43.5829C71.9554 45.021 72.7975 46.1067 73.9836 46.1067C75.1696 46.1067 76.0118 45.0353 76.0118 43.5572C76.0118 42.4457 75.4465 41.0334 74.0127 41.0334C72.579 41.0334 71.9554 42.3368 71.9554 43.5829Z" fill="#9C9B99"/>
<path d="M78.6491 42.0618C78.6491 41.3829 78.6345 40.8271 78.5938 40.2857H79.6574L79.7128 41.3428H79.7536C80.1266 40.7183 80.7473 40.1367 81.8517 40.1367C82.7609 40.1367 83.4516 40.6781 83.743 41.4516H83.7721C83.979 41.0849 84.2413 40.8013 84.5181 40.5979C84.9174 40.3 85.3603 40.1367 85.9956 40.1367C86.8786 40.1367 88.1899 40.7068 88.1899 42.9842V46.8487H87.0039V43.1332C87.0039 41.8727 86.5347 41.1136 85.5556 41.1136C84.8649 41.1136 84.3287 41.6149 84.1218 42.1993C84.0665 42.3626 84.0257 42.5774 84.0257 42.7952V46.8516H82.8396V42.9183C82.8396 41.8727 82.3704 41.1136 81.4467 41.1136C80.689 41.1136 80.1353 41.7094 79.943 42.3082C79.873 42.4858 79.8468 42.6892 79.8468 42.8926V46.8516H78.6608V42.0647L78.6491 42.0618Z" fill="#9C9B99"/>
<path d="M92.8467 37.8297C93.5781 37.7208 94.4465 37.6406 95.3994 37.6406C97.1246 37.6406 98.3514 38.0331 99.1674 38.7808C99.995 39.5256 100.479 40.5855 100.479 42.0637C100.479 43.5419 100.01 44.7766 99.1412 45.6188C98.2728 46.4725 96.8361 46.9337 95.0294 46.9337C94.1726 46.9337 93.4557 46.8936 92.8496 46.8248V37.8326L92.8467 37.8297ZM94.0473 45.9139C94.3504 45.9683 94.7933 45.9826 95.2625 45.9826C97.8298 45.9826 99.2228 44.5732 99.2228 42.1038C99.2373 39.9467 97.9959 38.5774 95.4548 38.5774C94.8341 38.5774 94.3649 38.6318 94.0473 38.7006V45.9167V45.9139Z" fill="#9C9B99"/>
<path d="M102.589 43.7835C102.618 45.3963 103.664 46.0638 104.879 46.0638C105.747 46.0638 106.272 45.9148 106.727 45.7257L106.933 46.5794C106.505 46.7685 105.774 46.9862 104.713 46.9862C102.658 46.9862 101.429 45.657 101.429 43.6775C101.429 41.698 102.615 40.1367 104.561 40.1367C106.741 40.1367 107.321 42.0217 107.321 43.2277C107.321 43.4712 107.292 43.6632 107.28 43.7835H102.589ZM106.15 42.9269C106.164 42.1678 105.832 40.9875 104.465 40.9875C103.238 40.9875 102.699 42.099 102.603 42.9269H106.15Z" fill="#9C9B99"/>
<path d="M107.93 46.1549L110.952 42.2904C111.24 41.9381 111.517 41.6258 111.82 41.2735V41.2477H108.207V40.2852H113.297L113.283 41.03L110.302 44.84C110.025 45.2067 109.751 45.5304 109.445 45.8713V45.9H113.35V46.8482H107.927V46.1578L107.93 46.1549Z" fill="#9C9B99"/>
<path d="M118.152 46.8487L118.056 46.0208H118.015C117.642 46.5365 116.925 46.9977 115.972 46.9977C114.62 46.9977 113.93 46.0609 113.93 45.1127C113.93 43.5257 115.363 42.6577 117.945 42.672V42.5373C117.945 41.9959 117.794 41.019 116.427 41.019C115.806 41.019 115.157 41.2081 114.687 41.5089L114.411 40.7211C114.961 40.3688 115.763 40.1367 116.605 40.1367C118.648 40.1367 119.143 41.506 119.143 42.8209V45.276C119.143 45.8461 119.172 46.4018 119.254 46.8487H118.149H118.152ZM117.972 43.497C116.646 43.4684 115.142 43.7004 115.142 44.9752C115.142 45.7487 115.666 46.1153 116.287 46.1153C117.156 46.1153 117.709 45.5739 117.902 45.0182C117.942 44.895 117.972 44.7603 117.972 44.6372V43.497Z" fill="#9C9B99"/>
<path d="M120.967 42.0618C120.967 41.3829 120.953 40.8271 120.912 40.2857H121.987L122.057 41.3714H122.086C122.419 40.7469 123.191 40.1367 124.295 40.1367C125.219 40.1367 126.656 40.6781 126.656 42.9298V46.8487H125.441V43.0644C125.441 42.0074 125.041 41.125 123.896 41.125C123.095 41.125 122.474 41.6808 122.267 42.3454C122.212 42.4944 122.186 42.6978 122.186 42.9012V46.8487H120.97V42.0618H120.967Z" fill="#9C9B99"/>
<path d="M131.153 45.4107C131.692 45.7373 132.479 46.0066 133.306 46.0066C134.533 46.0066 135.253 45.3706 135.253 44.4453C135.253 43.5916 134.757 43.1018 133.501 42.6291C131.983 42.0991 131.045 41.3257 131.045 40.0394C131.045 38.6157 132.245 37.5586 134.052 37.5586C135.005 37.5586 135.693 37.7763 136.107 38.0055L135.774 38.968C135.471 38.8047 134.851 38.5326 134.009 38.5326C132.738 38.5326 132.257 39.2774 132.257 39.9019C132.257 40.7556 132.822 41.1767 134.105 41.6637C135.678 42.2596 136.477 43.0072 136.477 44.3479C136.477 45.7574 135.413 46.9806 133.222 46.9806C132.324 46.9806 131.345 46.7228 130.85 46.3962L131.153 45.4079V45.4107Z" fill="#9C9B99"/>
<path d="M137.942 37.2188H139.158V41.3153H139.187C139.379 40.9772 139.682 40.6793 140.055 40.4759C140.414 40.2725 140.842 40.1379 141.297 40.1379C142.194 40.1379 143.628 40.6793 143.628 42.9453V46.8527H142.413V43.0828C142.413 42.0257 142.013 41.1291 140.868 41.1291C140.081 41.1291 139.461 41.6705 139.239 42.3236C139.169 42.4869 139.158 42.6617 139.158 42.8937V46.8527H137.942V37.2216V37.2188Z" fill="#9C9B99"/>
<path d="M146.813 38.4401C146.828 38.8469 146.525 39.1735 146.041 39.1735C145.613 39.1735 145.31 38.8469 145.31 38.4401C145.31 38.0333 145.627 37.6953 146.07 37.6953C146.513 37.6953 146.816 38.0219 146.816 38.4401H146.813ZM145.461 46.8509V40.285H146.676V46.8509H145.461Z" fill="#9C9B99"/>
<path d="M148.552 42.3339C148.552 41.5605 148.538 40.8959 148.497 40.2857H149.561L149.602 41.5748H149.657C149.96 40.6925 150.691 40.1367 151.504 40.1367C151.641 40.1367 151.738 40.151 151.848 40.1768V41.3026C151.723 41.274 151.601 41.2625 151.434 41.2625C150.581 41.2625 149.972 41.9014 149.806 42.7952C149.779 42.9584 149.75 43.1475 149.75 43.3509V46.8516H148.55V42.3339H148.552Z" fill="#9C9B99"/>
<path d="M156.555 46.8487L156.458 46.0208H156.418C156.045 46.5365 155.328 46.9977 154.375 46.9977C153.023 46.9977 152.332 46.0609 152.332 45.1127C152.332 43.5257 153.766 42.6577 156.348 42.672V42.5373C156.348 41.9959 156.196 41.019 154.829 41.019C154.209 41.019 153.562 41.2081 153.09 41.5089L152.813 40.7211C153.364 40.3688 154.165 40.1367 155.007 40.1367C157.05 40.1367 157.545 41.506 157.545 42.8209V45.276C157.545 45.8461 157.575 46.4018 157.656 46.8487H156.552H156.555ZM156.377 43.497C155.051 43.4684 153.547 43.7004 153.547 44.9752C153.547 45.7487 154.072 46.1153 154.692 46.1153C155.561 46.1153 156.115 45.5739 156.307 45.0182C156.348 44.895 156.377 44.7603 156.377 44.6372V43.497Z" fill="#9C9B99"/>
<path d="M165.856 46.8487L165.76 46.0208H165.719C165.346 46.5365 164.63 46.9977 163.677 46.9977C162.324 46.9977 161.634 46.0609 161.634 45.1127C161.634 43.5257 163.068 42.6577 165.649 42.672V42.5373C165.649 41.9959 165.498 41.019 164.131 41.019C163.51 41.019 162.864 41.2081 162.391 41.5089L162.115 40.7211C162.665 40.3688 163.467 40.1367 164.309 40.1367C166.352 40.1367 166.847 41.506 166.847 42.8209V45.276C166.847 45.8461 166.876 46.4018 166.958 46.8487H165.853H165.856ZM165.676 43.497C164.35 43.4684 162.846 43.7004 162.846 44.9752C162.846 45.7487 163.371 46.1153 163.991 46.1153C164.86 46.1153 165.413 45.5739 165.606 45.0182C165.647 44.895 165.676 44.7603 165.676 44.6372V43.497Z" fill="#9C9B99"/>
<path d="M168.672 42.0618C168.672 41.3829 168.657 40.8271 168.616 40.2857H169.692L169.761 41.3714H169.788C170.12 40.7469 170.892 40.1367 171.997 40.1367C172.92 40.1367 174.357 40.6781 174.357 42.9298V46.8487H173.142V43.0644C173.142 42.0074 172.743 41.125 171.597 41.125C170.796 41.125 170.175 41.6808 169.968 42.3454C169.913 42.4944 169.887 42.6978 169.887 42.9012V46.8487H168.672V42.0618Z" fill="#9C9B99"/>
<path d="M181.96 37.2188V45.154C181.96 45.7384 181.974 46.4001 182.015 46.8499H180.925L180.87 45.7097H180.841C180.468 46.4431 179.655 46.9988 178.565 46.9988C176.951 46.9988 175.709 45.6553 175.709 43.6615C175.695 41.4786 177.076 40.135 178.702 40.135C179.722 40.135 180.412 40.6106 180.716 41.1377H180.745V37.2188H181.96ZM180.745 42.9567C180.745 42.8078 180.73 42.6044 180.689 42.4554C180.509 41.6963 179.847 41.0718 178.938 41.0718C177.682 41.0718 176.939 42.1575 176.939 43.607C176.939 44.9362 177.6 46.0363 178.912 46.0363C179.725 46.0363 180.471 45.5063 180.692 44.6125C180.733 44.4492 180.748 44.286 180.748 44.0969V42.9567H180.745Z" fill="#9C9B99"/>
<path d="M188.17 43.9721L187.205 46.8483H185.964L189.123 37.707H190.571L193.745 46.8483H192.462L191.469 43.9721H188.17ZM191.218 43.0497L190.306 40.4199C190.099 39.824 189.962 39.2797 189.822 38.7526H189.796C189.659 39.2941 189.505 39.8527 189.327 40.4084L188.415 43.0526H191.215L191.218 43.0497Z" fill="#9C9B99"/>
<path d="M194.683 45.6283C195.041 45.8575 195.677 46.1039 196.283 46.1039C197.166 46.1039 197.58 45.6684 197.58 45.127C197.58 44.5569 197.236 44.2447 196.338 43.921C195.138 43.4999 194.572 42.8496 194.572 42.0618C194.572 41.0047 195.441 40.1367 196.877 40.1367C197.553 40.1367 198.145 40.3258 198.518 40.5435L198.215 41.4115C197.953 41.2482 197.469 41.0334 196.848 41.0334C196.131 41.0334 195.732 41.4402 195.732 41.9272C195.732 42.4686 196.131 42.7149 197.003 43.0387C198.162 43.4741 198.754 44.0413 198.754 45.0182C198.754 46.1698 197.845 46.9833 196.257 46.9833C195.525 46.9833 194.849 46.8057 194.38 46.5365L194.683 45.6283Z" fill="#9C9B99"/>
<path d="M200.007 45.6283C200.366 45.8575 201.001 46.1039 201.607 46.1039C202.49 46.1039 202.904 45.6684 202.904 45.127C202.904 44.5569 202.56 44.2447 201.662 43.921C200.462 43.4999 199.896 42.8496 199.896 42.0618C199.896 41.0047 200.765 40.1367 202.202 40.1367C202.878 40.1367 203.472 40.3258 203.842 40.5435L203.539 41.4115C203.277 41.2482 202.793 41.0334 202.172 41.0334C201.455 41.0334 201.056 41.4402 201.056 41.9272C201.056 42.4686 201.455 42.7149 202.327 43.0387C203.487 43.4741 204.078 44.0413 204.078 45.0182C204.078 46.1698 203.169 46.9833 201.581 46.9833C200.849 46.9833 200.173 46.8057 199.704 46.5365L200.007 45.6283Z" fill="#9C9B99"/>
<path d="M211.544 43.5142C211.544 45.9435 209.834 47.0005 208.219 47.0005C206.412 47.0005 205.02 45.6971 205.02 43.6231C205.02 41.4258 206.482 40.1367 208.33 40.1367C210.178 40.1367 211.544 41.506 211.544 43.5142ZM206.246 43.5829C206.246 45.021 207.089 46.1067 208.275 46.1067C209.461 46.1067 210.303 45.0353 210.303 43.5572C210.303 42.4457 209.737 41.0334 208.301 41.0334C206.864 41.0334 206.246 42.3368 206.246 43.5829Z" fill="#9C9B99"/>
<path d="M217.699 46.6065C217.381 46.7698 216.679 46.9875 215.781 46.9875C213.767 46.9875 212.456 45.644 212.456 43.6387C212.456 41.6334 213.864 40.1523 216.043 40.1523C216.76 40.1523 217.395 40.33 217.728 40.4904L217.451 41.4128C217.159 41.2495 216.705 41.1006 216.043 41.1006C214.511 41.1006 213.683 42.2121 213.683 43.5814C213.683 45.0997 214.677 46.0364 216 46.0364C216.69 46.0364 217.145 45.8588 217.489 45.7099L217.696 46.6036L217.699 46.6065Z" fill="#9C9B99"/>
<path d="M220.333 38.4401C220.347 38.8469 220.044 39.1735 219.561 39.1735C219.132 39.1735 218.829 38.8469 218.829 38.4401C218.829 38.0333 219.147 37.6953 219.59 37.6953C220.033 37.6953 220.336 38.0219 220.336 38.4401H220.333ZM218.981 46.8509V40.285H220.196V46.8509H218.981Z" fill="#9C9B99"/>
<path d="M225.77 46.8487L225.674 46.0208H225.633C225.26 46.5365 224.544 46.9977 223.591 46.9977C222.238 46.9977 221.548 46.0609 221.548 45.1127C221.548 43.5257 222.982 42.6577 225.563 42.672V42.5373C225.563 41.9959 225.412 41.019 224.045 41.019C223.425 41.019 222.778 41.2081 222.306 41.5089L222.029 40.7211C222.579 40.3688 223.381 40.1367 224.223 40.1367C226.266 40.1367 226.761 41.506 226.761 42.8209V45.276C226.761 45.8461 226.79 46.4018 226.872 46.8487H225.767H225.77ZM225.593 43.497C224.267 43.4684 222.763 43.7004 222.763 44.9752C222.763 45.7487 223.288 46.1153 223.908 46.1153C224.777 46.1153 225.33 45.5739 225.523 45.0182C225.564 44.895 225.593 44.7603 225.593 44.6372V43.497Z" fill="#9C9B99"/>
<path d="M229.993 38.3984V40.2834H231.733V41.1915H229.993V44.7323C229.993 45.5459 230.226 46.0071 230.905 46.0071C231.223 46.0071 231.456 45.967 231.607 45.9269L231.663 46.8207C231.427 46.9152 231.057 46.9839 230.588 46.9839C230.022 46.9839 229.568 46.8063 229.276 46.4826C228.932 46.1303 228.807 45.5459 228.807 44.7724V41.1915H227.772V40.2834H228.807V38.7107L229.993 38.3984Z" fill="#9C9B99"/>
<path d="M233.554 43.7835C233.584 45.3963 234.63 46.0638 235.845 46.0638C236.713 46.0638 237.238 45.9148 237.692 45.7257L237.899 46.5794C237.471 46.7685 236.739 46.9862 235.679 46.9862C233.624 46.9862 232.395 45.657 232.395 43.6775C232.395 41.698 233.581 40.1367 235.527 40.1367C237.707 40.1367 238.287 42.0217 238.287 43.2277C238.287 43.4712 238.261 43.6632 238.246 43.7835H233.554ZM237.112 42.9269C237.127 42.1678 236.795 40.9875 235.428 40.9875C234.201 40.9875 233.662 42.099 233.566 42.9269H237.112Z" fill="#9C9B99"/>
<path d="M239.488 45.6283C239.846 45.8575 240.481 46.1039 241.087 46.1039C241.97 46.1039 242.384 45.6684 242.384 45.127C242.384 44.5569 242.04 44.2447 241.143 43.921C239.942 43.4999 239.377 42.8496 239.377 42.0618C239.377 41.0047 240.245 40.1367 241.682 40.1367C242.358 40.1367 242.953 40.3258 243.323 40.5435L243.02 41.4115C242.757 41.2482 242.274 41.0334 241.653 41.0334C240.936 41.0334 240.537 41.4402 240.537 41.9272C240.537 42.4686 240.936 42.7149 241.807 43.0387C242.967 43.4741 243.559 44.0413 243.559 45.0182C243.559 46.1698 242.649 46.9833 241.061 46.9833C240.33 46.9833 239.654 46.8057 239.185 46.5365L239.488 45.6283Z" fill="#9C9B99"/>
<path d="M80.9802 6.40625V14.0263H80.3449C79.8583 12.0182 78.9578 10.4884 77.6377 9.41705C76.3118 8.35424 74.8169 7.81855 73.1413 7.81855C71.7425 7.81855 70.4632 8.2196 69.2946 9.01026C68.129 9.79519 67.2722 10.8322 66.736 12.107C66.0425 13.7427 65.6986 15.5676 65.6986 17.5671C65.6986 19.5667 65.9492 21.3371 66.4504 22.9556C66.9575 24.5713 67.7472 25.7945 68.8284 26.6282C69.9066 27.456 71.3024 27.8714 73.0159 27.8714C74.4235 27.8714 75.7173 27.562 76.8888 26.9633C78.0574 26.3503 79.293 25.3075 80.5926 23.8265V25.72C79.3425 27.0149 78.037 27.9488 76.6732 28.5217C75.3094 29.1004 73.7241 29.3926 71.9086 29.3926C69.519 29.3926 67.3975 28.9228 65.5442 27.9832C63.6879 27.0435 62.257 25.6914 61.2458 23.9296C60.2434 22.1707 59.7363 20.2914 59.7363 18.3091C59.7363 16.2035 60.3017 14.2154 61.4119 12.3419C62.531 10.4598 64.0405 9.00167 65.9434 7.95892C67.8376 6.92763 69.86 6.40911 71.996 6.40911C73.5725 6.40911 75.2336 6.74428 76.985 7.40889C78.002 7.80422 78.6402 7.99616 78.917 7.99616C79.2726 7.99616 79.5756 7.86725 79.8321 7.61229C80.0885 7.36019 80.2604 6.95341 80.3333 6.40625H80.9686H80.9802Z" fill="#1A171B"/>
<path d="M88.9098 20.4235V25.898C88.9098 26.8061 88.9593 27.379 89.0613 27.6053C89.1604 27.8402 89.3614 28.035 89.6558 28.2041C89.9472 28.3759 90.3493 28.4619 90.8535 28.4619H91.4421V28.9116H82.0732V28.4619H82.6735C83.1923 28.4619 83.609 28.3674 83.9324 28.184C84.1597 28.0608 84.3317 27.8488 84.4628 27.5538C84.559 27.3418 84.6114 26.7889 84.6114 25.9008V14.3017C84.6114 13.3878 84.5619 12.8178 84.4628 12.5886C84.3608 12.3594 84.1685 12.1618 83.8683 11.9927C83.574 11.8209 83.1719 11.7349 82.6735 11.7349H82.0732V11.2852H91.4421V11.7349H90.8535C90.3318 11.7349 89.9151 11.8352 89.5917 12.0157C89.3673 12.136 89.1837 12.3422 89.0555 12.643C88.9564 12.8521 88.9068 13.4079 88.9068 14.3017V19.2834H95.2101V14.3017C95.2101 13.3878 95.1605 12.8178 95.0614 12.5886C94.9711 12.3594 94.7671 12.1618 94.467 11.9927C94.161 11.8209 93.7618 11.7349 93.2605 11.7349H92.669V11.2852H102.041V11.7349H101.461C100.925 11.7349 100.505 11.8352 100.19 12.0157C99.963 12.136 99.7852 12.3422 99.657 12.643C99.555 12.8521 99.5026 13.4079 99.5026 14.3017V25.9008C99.5026 26.809 99.5521 27.3819 99.657 27.6082C99.7474 27.8431 99.9455 28.0379 100.251 28.2069C100.552 28.3788 100.954 28.4648 101.461 28.4648H102.041V28.9145H92.669V28.4648H93.2605C93.788 28.4648 94.2105 28.3702 94.5194 28.1869C94.7467 28.0637 94.9303 27.8517 95.0614 27.5566C95.1605 27.3447 95.2101 26.7918 95.2101 25.9037V20.4293H88.9068L88.9098 20.4235Z" fill="#1A171B"/>
<path d="M112.26 28.458V28.9077H102.895V28.458H103.492C104.011 28.458 104.43 28.3634 104.751 28.1801C104.981 28.0569 105.156 27.8449 105.278 27.5499C105.38 27.3379 105.43 26.785 105.43 25.8969V14.2978C105.43 13.3839 105.38 12.8139 105.278 12.5847C105.182 12.3555 104.987 12.1578 104.69 11.9888C104.389 11.8169 103.99 11.731 103.489 11.731H102.892V11.2812H112.258V11.731H111.663C111.144 11.731 110.731 11.8313 110.407 12.0117C110.183 12.1321 109.999 12.3383 109.871 12.6391C109.769 12.8482 109.728 13.404 109.728 14.2978V25.8969C109.728 26.805 109.769 27.378 109.874 27.6043C109.979 27.8392 110.174 28.034 110.474 28.203C110.766 28.3749 111.171 28.4608 111.666 28.4608H112.26V28.458Z" fill="#1A171B"/>
<path d="M119.242 11.2831L128.052 22.1345V14.6434C128.052 13.572 127.894 12.8501 127.585 12.4719C127.16 11.9649 126.449 11.7185 125.441 11.73V11.2802H131.391V11.73C130.636 11.8302 130.124 11.9534 129.858 12.1081C129.599 12.2599 129.398 12.5092 129.252 12.8558C129.104 13.2081 129.037 13.8011 129.037 14.6434V29.2906H128.579L116.491 14.6921V25.8243C116.491 26.8584 116.73 27.5517 117.214 27.9126C117.683 28.2765 118.228 28.4569 118.846 28.4569H119.271V28.9067H112.898V28.4569C113.883 28.4512 114.568 28.2421 114.959 27.8439C115.343 27.4486 115.544 26.7782 115.544 25.8214V13.4774L115.116 12.9618C114.737 12.4748 114.408 12.1453 114.111 11.9907C113.822 11.8417 113.399 11.7472 112.863 11.7271V11.2773H119.236L119.242 11.2831Z" fill="#1A171B"/>
<path d="M140.242 22.8828L137.57 16.8755L134.825 22.8828H140.242ZM140.668 23.8539H134.385L133.592 25.5813C133.347 26.1686 133.228 26.6527 133.228 27.0251C133.228 27.535 133.426 27.9046 133.831 28.1481C134.064 28.2827 134.653 28.3887 135.582 28.4632V28.913H129.629V28.4632C130.276 28.3629 130.8 28.0994 131.217 27.6611C131.625 27.2257 132.144 26.3233 132.753 24.9597L139.17 10.9141H139.417L145.887 25.3521C146.502 26.7444 147.009 27.6238 147.405 27.9877C147.708 28.2598 148.131 28.4174 148.673 28.4661V28.9158H140.012V28.4661H140.37C141.064 28.4661 141.553 28.3658 141.83 28.171C142.028 28.0278 142.122 27.8272 142.122 27.558C142.122 27.3947 142.098 27.2342 142.043 27.0652C142.028 26.9879 141.894 26.6556 141.653 26.0683L140.668 23.8596V23.8539Z" fill="#1A171B"/>
<path d="M164.052 18.0726V25.9333C164.052 26.512 164.201 26.9617 164.498 27.2511C164.793 27.549 165.233 27.6922 165.818 27.6922C166.684 27.6922 167.474 27.5118 168.208 27.1222C168.934 26.7354 169.493 26.1797 169.878 25.4549C170.262 24.7244 170.461 23.9108 170.461 23.017C170.461 21.9858 170.236 21.0662 169.796 20.2555C169.356 19.439 168.706 18.8661 167.855 18.5453C167.004 18.2215 165.74 18.064 164.052 18.0754V18.0726ZM164.052 16.7863C165.617 16.7863 166.771 16.6173 167.517 16.2736C168.266 15.9298 168.837 15.4313 169.228 14.8011C169.627 14.1795 169.828 13.3687 169.828 12.3919C169.828 11.415 169.636 10.6244 169.242 9.99127C168.843 9.3639 168.29 8.89696 167.561 8.57038C166.832 8.2438 165.664 8.08911 164.052 8.0977V16.7835V16.7863ZM170.029 17.2361C172.18 17.7202 173.684 18.3104 174.549 19.0065C175.79 19.9948 176.411 21.2725 176.411 22.8423C176.411 24.4952 175.738 25.8617 174.389 26.9417C172.725 28.2566 170.309 28.9126 167.144 28.9126H155.771V28.3597C156.808 28.3597 157.51 28.2623 157.88 28.0675C158.245 27.8756 158.504 27.6235 158.653 27.317C158.798 27.0076 158.874 26.2513 158.874 25.0367V10.7647C158.874 9.55584 158.798 8.79383 158.653 8.47584C158.501 8.16646 158.239 7.9115 157.863 7.72529C157.49 7.53909 156.793 7.44455 155.771 7.44455V6.89453H166.497C169.059 6.89453 170.874 7.11511 171.941 7.56774C173.013 8.01176 173.847 8.68497 174.465 9.57875C175.079 10.4725 175.391 11.4236 175.391 12.432C175.391 13.4404 174.995 14.4344 174.208 15.2566C173.421 16.0873 172.025 16.7491 170.029 17.2361Z" fill="#1A171B"/>
<path d="M183.149 12.2524V19.9412H183.909C185.142 19.9412 186.063 19.8295 186.672 19.6118C187.293 19.3912 187.77 18.9959 188.12 18.4229C188.47 17.8443 188.648 17.1023 188.648 16.1742C188.648 14.8363 188.321 13.8509 187.68 13.2121C187.036 12.5704 186.002 12.2552 184.571 12.2552H183.152L183.149 12.2524ZM183.149 20.8723V25.8253C183.149 26.7879 183.207 27.3894 183.332 27.6387C183.449 27.8965 183.664 28.0942 183.968 28.2345C184.276 28.3835 184.85 28.4608 185.681 28.4608V28.9106H176.423V28.4608C177.262 28.4608 177.836 28.3778 178.139 28.2317C178.442 28.0712 178.649 27.8822 178.777 27.6329C178.894 27.3894 178.961 26.7879 178.961 25.8253V14.3608C178.961 13.4097 178.897 12.7967 178.777 12.5532C178.649 12.3039 178.442 12.1091 178.133 11.9602C177.827 11.8084 177.259 11.731 176.426 11.731V11.2812H184.778C186.952 11.2812 188.548 11.4331 189.554 11.731C190.562 12.0175 191.387 12.5618 192.022 13.361C192.663 14.1488 192.975 15.0827 192.975 16.1426C192.975 17.4432 192.497 18.5175 191.544 19.3654C190.935 19.9097 190.084 20.3108 188.986 20.5801L193.293 26.5472C193.861 27.3121 194.263 27.7905 194.505 27.9824C194.863 28.2546 195.283 28.3978 195.761 28.4265V28.9106H190.131L184.332 20.8723H183.149Z" fill="#1A171B"/>
<path d="M205.253 28.458V28.9077H195.884V28.458H196.475C196.997 28.458 197.422 28.3634 197.737 28.1801C197.97 28.0569 198.148 27.8449 198.268 27.5499C198.367 27.3379 198.416 26.785 198.416 25.8969V14.2978C198.416 13.3839 198.367 12.8139 198.268 12.5847C198.174 12.3555 197.97 12.1578 197.679 11.9888C197.379 11.8169 196.985 11.731 196.472 11.731H195.881V11.2812H205.25V11.731H204.652C204.128 11.731 203.711 11.8313 203.396 12.0117C203.16 12.1321 202.988 12.3383 202.854 12.6391C202.758 12.8482 202.709 13.404 202.709 14.2978V25.8969C202.709 26.805 202.761 27.378 202.866 27.6043C202.962 27.8392 203.16 28.034 203.455 28.203C203.758 28.3749 204.154 28.4608 204.655 28.4608H205.253V28.458Z" fill="#1A171B"/>
<path d="M212.867 12.2896V19.4886H213.225C214.368 19.4886 215.198 19.1334 215.711 18.4373C216.23 17.7354 216.562 16.7013 216.705 15.3348H217.159V24.5477H216.705C216.597 23.545 216.37 22.7171 216.026 22.0812C215.691 21.4423 215.291 21.0069 214.84 20.7863C214.376 20.5657 213.724 20.4626 212.867 20.4626V25.4243C212.867 26.3897 212.905 26.9827 212.986 27.1975C213.068 27.4181 213.228 27.59 213.453 27.7275C213.683 27.8707 214.056 27.9423 214.563 27.9423H215.629C217.302 27.9423 218.634 27.5499 219.645 26.7907C220.645 26.0316 221.37 24.8685 221.81 23.3101H222.3L221.498 28.9077H206.03V28.458H206.625C207.146 28.458 207.575 28.3634 207.889 28.1801C208.123 28.0569 208.292 27.8449 208.42 27.5499C208.519 27.3379 208.566 26.785 208.566 25.8969V14.2978C208.566 13.4842 208.545 12.9915 208.499 12.811C208.405 12.4987 208.242 12.2696 208.009 12.1034C207.677 11.8542 207.213 11.731 206.628 11.731H206.033V11.2812H221V16.4406H220.545C220.289 15.183 219.925 14.2749 219.461 13.7306C218.995 13.1805 218.334 12.7795 217.486 12.5159C216.99 12.3641 216.055 12.2896 214.694 12.2896H212.867Z" fill="#1A171B"/>
<path d="M229.286 12.2907V19.524H229.772C230.577 19.524 231.221 19.4152 231.725 19.1745C232.226 18.9396 232.657 18.5443 233.007 17.9943C233.351 17.4385 233.581 16.6908 233.686 15.7484H234.144V24.6175H233.686C233.514 22.9387 233.062 21.8358 232.311 21.2944C231.567 20.7587 230.725 20.4952 229.772 20.4952H229.286V25.898C229.286 26.8061 229.332 27.379 229.429 27.6053C229.531 27.8402 229.735 28.035 230.029 28.2041C230.323 28.3759 230.722 28.4619 231.221 28.4619H231.818V28.9116H222.449V28.4619H223.047C223.565 28.4619 223.985 28.3673 224.308 28.184C224.542 28.0608 224.716 27.8488 224.839 27.5538C224.935 27.3418 224.985 26.7889 224.985 25.9008V14.3017C224.985 13.3878 224.935 12.8178 224.836 12.5886C224.74 12.3594 224.542 12.1618 224.244 11.9927C223.95 11.8209 223.548 11.7349 223.047 11.7349H222.449V11.2852H237.553V16.3442H237.029C236.897 15.1496 236.591 14.273 236.081 13.7001C235.571 13.1272 234.84 12.7261 233.875 12.4797C233.348 12.3537 232.363 12.2935 230.932 12.2935H229.286V12.2907Z" fill="#1A171B"/>
<path d="M247.534 28.458V28.9077H238.171V28.458H238.765C239.284 28.458 239.701 28.3634 240.03 28.1801C240.254 28.0569 240.435 27.8449 240.56 27.5499C240.654 27.3379 240.7 26.785 240.7 25.8969V14.2978C240.7 13.3839 240.651 12.8139 240.558 12.5847C240.461 12.3555 240.263 12.1578 239.963 11.9888C239.669 11.8169 239.267 11.731 238.765 11.731H238.171V11.2812H247.534V11.731H246.939C246.424 11.731 246.007 11.8313 245.683 12.0117C245.459 12.1321 245.281 12.3383 245.147 12.6391C245.051 12.8482 245.002 13.404 245.002 14.2978V25.8969C245.002 26.805 245.051 27.378 245.153 27.6043C245.255 27.8392 245.453 28.034 245.751 28.203C246.045 28.3749 246.441 28.4608 246.942 28.4608H247.537L247.534 28.458Z" fill="#1A171B"/>
<path d="M254.784 11.2831L263.599 22.1345V14.6434C263.599 13.572 263.439 12.8501 263.127 12.4719C262.705 11.9649 261.994 11.7185 260.988 11.73V11.2802H266.939V11.73C266.181 11.8302 265.669 11.9534 265.409 12.1081C265.153 12.2599 264.946 12.5092 264.8 12.8558C264.654 13.2081 264.584 13.8011 264.584 14.6434V29.2906H264.133L252.048 14.6921V25.8243C252.048 26.8584 252.287 27.5517 252.765 27.9126C253.243 28.2765 253.791 28.4569 254.4 28.4569H254.828V28.9067H248.455V28.4569C249.44 28.4512 250.128 28.2421 250.515 27.8439C250.903 27.4486 251.095 26.7782 251.095 25.8214V13.4774L250.672 12.9618C250.291 12.4748 249.956 12.1453 249.664 11.9907C249.373 11.8417 248.953 11.7472 248.408 11.7271V11.2773H254.787L254.784 11.2831Z" fill="#1A171B"/>
<path d="M283.89 10.9102V17.1008H283.429C282.835 15.4192 281.955 14.1415 280.769 13.2563C279.591 12.3826 278.297 11.9414 276.896 11.9414C275.494 11.9414 274.439 12.3081 273.547 13.0444C272.656 13.7863 272.023 14.809 271.653 16.1325C271.277 17.456 271.097 18.8139 271.097 20.2061C271.097 21.8819 271.301 23.3573 271.703 24.6235C272.114 25.8954 272.764 26.8264 273.664 27.4251C274.564 28.0181 275.637 28.3132 276.875 28.3132C277.307 28.3132 277.75 28.2702 278.198 28.1786C278.65 28.0898 279.119 27.958 279.597 27.7832V24.125C279.597 23.4174 279.545 22.9619 279.446 22.7585C279.349 22.5494 279.143 22.3718 278.842 22.1999C278.534 22.028 278.166 21.9478 277.729 21.9478H277.269V21.5038H286.002V21.9478C285.338 21.9908 284.875 22.0853 284.618 22.22C284.35 22.3546 284.152 22.5781 284.009 22.8989C283.93 23.0708 283.893 23.4776 283.893 24.1279V27.7861C282.747 28.2845 281.558 28.657 280.32 28.9091C279.081 29.1611 277.802 29.2901 276.476 29.2901C274.777 29.2901 273.367 29.0609 272.245 28.6054C271.123 28.1528 270.132 27.5541 269.281 26.8236C268.422 26.0873 267.748 25.2566 267.268 24.3341C266.65 23.1453 266.35 21.8046 266.35 20.3264C266.35 17.688 267.294 15.4564 269.185 13.6402C271.076 11.8183 273.466 10.9102 276.339 10.9102C277.225 10.9102 278.021 10.976 278.738 11.1164C279.128 11.1794 279.755 11.38 280.617 11.7037C281.488 12.0245 282.004 12.1878 282.165 12.1878C282.401 12.1878 282.634 12.0904 282.843 11.9185C283.056 11.7381 283.251 11.4029 283.429 10.9102H283.89Z" fill="#1A171B"/>
</g>
<defs>
<clipPath id="clip0_3654_3487">
<rect width="286" height="52" fill="white"/>
</clipPath>
</defs>
</svg>
