<svg width="22" height="24" viewBox="0 0 22 24" fill="none" xmlns="http://www.w3.org/2000/svg">
<g clip-path="url(#clip0_3600_785)">
<path d="M15.0591 8.47906L14.7891 8.28906C14.7891 8.28906 14.8591 8.37906 14.8891 8.42906C14.9391 8.46906 14.9991 8.48906 15.0591 8.47906Z" fill="#F6A800"/>
<path d="M14.5766 8.12375L14.5266 8.09375H14.4766L14.5766 8.12375Z" fill="#F6A800"/>
<path d="M14.0625 7.92188C14.1525 7.97188 14.2425 8.01187 14.3325 8.04187C14.2425 7.99187 14.1525 7.95187 14.0625 7.92188Z" fill="#F6A800"/>
<path d="M14.4338 8.13C14.4338 8.13 14.4337 8.05 14.4837 8.05L14.3438 8C14.3438 8 14.4238 8.08 14.4338 8.13Z" fill="#F6A800"/>
<path d="M14.4297 8.13281C14.4297 8.13281 14.4697 8.21281 14.4797 8.25281C14.4797 8.20281 14.4597 8.16281 14.4297 8.13281Z" fill="#F6A800"/>
<path d="M14.0592 8.67188C14.0592 8.67188 14.0592 8.50187 13.9892 8.50187C13.7792 8.48187 13.5692 8.44188 13.3592 8.38188C13.2592 8.38188 13.1692 8.17188 13.0692 8.17188C12.9692 8.17188 12.1992 8.29188 12.5392 8.34188C12.9692 8.39188 13.3892 8.49188 13.7992 8.63188C14.1692 8.69188 14.5292 8.81187 14.8592 8.99187C14.9492 9.05187 15.0192 9.12187 15.0792 9.21187C14.9992 9.09187 14.9092 8.97187 14.8092 8.87187C14.6892 8.70187 14.3492 8.77188 14.0592 8.67188Z" fill="#F6A800"/>
<path d="M16.3209 10.4203C16.2909 10.3703 16.2609 10.3203 16.2309 10.2703C16.2609 10.0103 16.1609 9.74031 15.9609 9.57031V9.71031C15.9609 9.71031 16.0809 9.84031 16.0509 9.71031C16.1009 10.0303 16.1709 10.2703 16.2209 10.5603C16.2209 10.5603 16.3209 10.5603 16.3409 10.4403" fill="#F6A800"/>
<path d="M16.2497 10.7091L16.1997 10.5391L16.1797 10.5591L16.2297 10.7091H16.2497Z" fill="#F6A800"/>
<path d="M12.9625 7.71187C12.3125 7.55187 11.6325 7.46187 10.9625 7.44187C10.9125 7.44187 10.8925 7.51187 10.8225 7.49187L10.6725 7.42188H10.2825V7.49187C10.2825 7.49187 10.1925 7.45187 10.1425 7.44187C10.0525 7.47187 9.96249 7.49187 9.87249 7.49187C9.96249 7.47187 10.0525 7.45187 10.1425 7.44187H10.3325H9.53249C9.40249 7.50187 9.25249 7.50187 9.12249 7.44187H9.00249L8.51249 7.51188C8.42249 7.56188 8.32249 7.64187 8.22249 7.71187C8.18249 7.71187 8.14249 7.71187 8.10249 7.71187C8.07249 7.77187 8.02249 7.82188 7.96249 7.86188C8.04249 7.89188 8.13249 7.91187 8.22249 7.93187C8.34249 7.98187 8.39249 7.69187 8.59249 7.83187C8.42249 7.69187 8.37249 8.00187 8.22249 7.93187C8.14249 7.90187 8.05249 7.88188 7.96249 7.86188C7.80249 7.94188 7.63249 7.97187 7.45249 7.95187C7.59249 7.83187 7.79249 7.80188 7.96249 7.86188C8.00249 7.82188 8.04249 7.78187 8.06249 7.73187H8.18249C8.28249 7.67187 8.38249 7.60188 8.47249 7.53188C8.16249 7.61188 7.84249 7.68188 7.53249 7.78188C6.48249 8.08188 5.55249 8.67188 4.84249 9.50187C4.04249 10.4419 3.94249 11.7919 4.58249 12.8419C5.31249 13.8819 6.36249 14.6519 7.58249 15.0219C9.93249 15.7719 12.0825 15.3519 14.5825 14.6019C15.2125 14.3619 15.7725 13.9719 16.2225 13.4719C16.7225 12.9019 17.0725 12.2119 17.2225 11.4719C17.0825 9.83188 16.2225 10.8019 16.1625 10.7519C15.9025 10.9819 15.6925 11.2619 15.5325 11.5719C15.3125 11.9719 14.9525 12.2719 14.5325 12.4419C15.3025 12.0319 14.3325 13.2919 13.3425 13.1719C12.0825 13.0219 10.6025 13.8719 9.15249 13.5319C8.78249 13.5019 8.42249 13.4619 8.06249 13.3919C6.06249 12.6219 4.74249 11.3919 6.39249 9.96187C6.76249 9.58187 7.15249 9.22188 7.57249 8.89188C7.89249 8.75188 8.22249 8.65188 8.57249 8.60188C9.03249 8.48188 9.45249 8.34187 9.86249 8.21187C9.43249 8.30187 9.01249 8.41188 8.60249 8.55188C8.28249 8.65188 8.77249 8.26188 8.99249 8.17188C9.21249 8.08187 9.28249 8.29188 9.35249 8.17188C9.56249 8.12187 9.76249 8.05187 9.95249 7.96187C10.0525 7.91187 10.0525 8.10187 10.1025 8.08187C10.4125 8.08187 10.6625 7.76188 10.8525 7.84188C11.0025 7.86188 11.1525 7.89187 11.2925 7.93187C11.3825 7.95187 11.4625 7.95187 11.5525 7.93187H11.7225C11.6825 7.88187 11.6625 7.81187 11.6725 7.74187C11.6725 7.81187 11.6925 7.87187 11.7225 7.93187C12.1825 7.87187 12.6425 7.87187 13.1025 7.93187C12.8225 7.88187 12.5625 7.77188 12.3325 7.61188C12.4525 7.69188 12.4025 7.73187 12.3325 7.71187L12.2325 7.61188C12.4825 7.57188 12.7325 7.63188 12.9325 7.78188C12.9925 7.78188 13.0425 7.78188 13.1025 7.78188C13.1825 7.83188 13.1525 7.88188 13.1525 7.92188H13.3225L12.9625 7.68187" fill="#F6A800"/>
<path d="M10.1309 7.49219C10.1309 7.49219 10.2109 7.49219 10.2509 7.49219H9.71094C9.84094 7.55219 10.0009 7.55219 10.1309 7.49219Z" fill="#F6A800"/>
<path d="M11.1887 9.47V9.13C11.1887 8.85 11.2088 8.57 11.2587 8.29C11.2587 7.2 11.3587 6.08 11.3387 4.97H11.2887V4.13C11.2887 3.57 11.3487 3.01 11.4288 2.46C11.5187 2.02 11.5687 1.58 11.5787 1.13C11.5887 0.81 11.4587 0.51 11.2087 0.31C11.0687 0.15 10.8888 0.04 10.6788 0C10.5888 0 10.3387 0.26 9.99875 0.8C9.76875 1.08 9.58875 1.4 9.46875 1.74C9.46875 1.79 9.51875 1.96 9.58875 2.27C9.68875 2.8 9.72875 3.35 9.70875 3.89C9.70875 4.02 9.68875 4.16 9.63875 4.28V16.54C9.63875 16.91 9.68875 17.37 9.68875 17.87C9.68875 19.71 9.75875 20.87 9.82875 21.51C9.90875 22.14 9.93875 22.78 9.92875 23.42C10.4987 21.56 10.8688 19.64 11.0588 17.7C11.0588 17.39 11.0587 17.1 11.1587 16.83C10.9587 14.38 10.9587 11.92 11.1587 9.47" fill="black"/>
<path d="M9.1575 13.7091C9.9875 13.7191 10.8075 13.6691 11.6275 13.5391L11.7975 15.3591C10.8475 15.5291 9.8875 15.5291 8.9375 15.3591L9.1575 13.7091Z" fill="#F6A800"/>
<path d="M1.65024 21.4132L1.60024 21.1332C1.36024 19.5332 1.31024 17.9132 1.19024 16.1332C1.09024 14.8732 1.09024 13.4132 1.09024 12.1332C1.09024 15.1432 1.29024 18.1532 1.70024 21.1332C1.75024 20.8032 1.77024 20.4632 1.75024 20.1332C1.63024 19.1332 1.58024 18.2132 1.51024 17.2732H1.39024C1.39024 14.5832 1.09024 12.0432 1.31024 9.35324C1.31024 9.45324 1.36024 9.35324 1.39024 9.35324C1.31024 12.0132 1.39024 14.5032 1.51024 17.1432C1.32024 13.0332 1.35024 8.92324 1.58024 4.82324V4.09324C1.54024 3.37324 1.54024 2.64324 1.58024 1.92324C1.41024 2.08324 1.14024 1.36324 1.14024 2.81324H1.06024C0.970237 1.36324 0.580237 0.813243 0.380237 2.23324C0.190237 3.85324 0.210237 6.03324 0.0902369 8.02324C0.0202369 9.47324 -0.0297631 10.9232 0.0202369 12.3732C0.120237 14.3732 0.120237 16.5632 0.380237 18.5532C0.400237 19.3432 0.460237 20.1232 0.580237 20.9032C0.650237 21.1632 0.700237 21.1632 0.770237 21.1132C0.650237 19.9332 0.580237 18.7432 0.510237 17.5532C0.410237 16.1032 0.310237 14.6732 0.260237 13.2232C0.340237 14.6332 0.430237 16.0832 0.510237 17.5532C0.580237 18.7232 0.670237 19.9032 0.820237 21.0732C0.890237 21.0232 0.940237 20.9732 1.01024 21.0732C1.08024 21.1732 1.01024 21.4332 1.06024 21.6032C1.28024 22.3132 1.47024 22.1132 1.59024 21.7232C1.64024 21.7232 1.67024 21.5832 1.69024 21.4632" fill="#E2001A"/>
<path d="M8.49998 2.12843H8.37998C7.68998 2.03843 6.99998 1.99843 6.29998 1.98843H4.67998C5.88998 1.91843 7.16998 2.03843 8.40998 2.06843C8.28998 1.95843 8.14998 1.88843 7.98998 1.84843C7.57998 1.79843 7.16998 1.79843 6.77998 1.74843V1.86843C5.66998 1.67843 4.62998 1.86843 3.53998 1.79843C3.58998 1.79843 3.53998 1.74843 3.53998 1.74843H3.60998C3.67998 1.74843 3.53998 1.74843 3.53998 1.74843H6.75998C5.03998 1.67843 3.41998 1.69843 1.75998 1.74843H1.46998C1.19998 1.83843 0.909978 1.87843 0.629978 1.86843C0.699978 2.01843 0.409978 2.32843 0.989978 2.25843V2.37843C0.409978 2.54843 0.189978 2.98843 0.769978 3.07843C1.54998 3.12843 2.31998 3.12843 3.09998 3.07843H4.80998C5.58998 3.00843 6.43998 3.07843 7.20998 3.02843C7.48998 3.07843 7.77998 3.10843 8.05998 3.12843C8.13998 3.10843 8.18998 3.03843 8.17998 2.95843C7.16998 2.75843 6.12998 2.71843 5.09998 2.83843C5.65998 2.77843 6.22998 2.75843 6.79998 2.78843C7.25998 2.78843 7.71998 2.83843 8.17998 2.90843C8.16998 2.84843 8.16998 2.77843 8.17998 2.71843C8.24998 2.71843 8.32998 2.74843 8.39998 2.76843C8.71998 2.66843 8.68998 2.44843 8.56998 2.25843C8.56998 2.25843 8.49998 2.25843 8.46998 2.15843" fill="#E2001A"/>
<path d="M0.54321 21.5811H0.63321C1.29321 21.5811 1.94321 21.6511 2.63321 21.5811H4.21321C3.02321 21.5811 1.79321 21.5311 0.62321 21.5811C0.72321 21.6811 0.86321 21.7411 1.01321 21.7511C1.40321 21.7511 1.79321 21.7511 2.17321 21.8011V21.6811C3.24321 21.8511 4.26321 21.6011 5.30321 21.7511C5.25321 21.7511 5.30321 21.8011 5.30321 21.8211H2.20321C3.84321 21.8211 5.42321 21.9211 7.06321 21.8911H7.36321C7.63321 21.8011 7.92321 21.7611 8.20321 21.7711C8.13321 21.6211 8.42321 21.3111 7.84321 21.3811V21.2611C8.40321 21.1211 8.61321 20.6811 8.06321 20.5611C7.51321 20.4411 6.58321 20.5611 5.81321 20.5611C5.25321 20.5211 4.70321 20.5211 4.14321 20.5611C3.36321 20.6311 2.54321 20.5611 1.79321 20.6311C1.50321 20.6311 1.04321 20.4911 0.89321 20.5611C0.81321 20.5811 0.76321 20.6511 0.77321 20.7311C1.23321 20.7311 1.69321 20.8311 2.13321 20.8511C2.57321 20.8711 3.24321 20.8511 3.80321 20.8511C3.24321 20.9111 2.69321 20.9111 2.13321 20.8511H0.77321V21.0511H0.55321C0.38321 21.0911 0.28321 21.2611 0.33321 21.4311C0.34321 21.4811 0.37321 21.5211 0.40321 21.5611C0.46321 21.5711 0.51321 21.6111 0.55321 21.6611" fill="#E2001A"/>
<path d="M21.0625 1.90281H20.9725C20.3125 2.00281 19.6625 1.95281 18.9125 2.00281C18.3825 2.03281 17.8425 2.03281 17.3125 2.00281C18.5325 2.03281 19.7625 1.96281 20.9725 1.80281C20.8525 1.73281 20.7025 1.68281 20.5625 1.68281C20.1725 1.68281 19.7825 1.73281 19.3925 1.73281V1.85281C18.3025 1.73281 17.2625 1.97281 16.1725 1.78281V1.71281H19.3525C17.6525 1.71281 16.0325 1.66281 14.3525 1.63281H14.0625C13.7825 1.72281 13.4825 1.76281 13.1925 1.75281C13.2625 1.90281 12.9725 2.21281 13.5525 2.14281V2.26281C12.9725 2.41281 12.7525 2.84281 13.3325 2.96281C13.9125 3.08281 14.8625 2.96281 15.6625 3.04281C16.2525 3.10281 16.8325 3.10281 17.4225 3.04281C18.2225 2.97281 19.1225 3.04281 19.9225 2.90281C20.2125 2.90281 20.7225 2.97281 20.8625 2.90281C20.9425 2.88281 20.9825 2.79281 20.9625 2.71281H19.5325C19.1025 2.71281 18.3725 2.76281 17.7925 2.81281C18.3725 2.74281 18.9525 2.71281 19.5325 2.71281L20.9625 2.64281C20.9325 2.58281 20.9325 2.51281 20.9625 2.45281H21.1825C21.4725 2.30281 21.3925 2.08281 21.2525 1.91281C21.2125 1.95281 21.1425 1.95281 21.1025 1.91281" fill="#E2001A"/>
<path d="M12.8875 22.129H13.2475C15.5175 22.059 17.7975 22.129 20.3375 22.129H20.7975L21.1875 21.739V16.519C21.1875 17.579 21.2375 18.649 21.2375 19.709V21.649C21.3275 21.549 20.4375 22.429 20.7975 22.059H19.5175C17.3575 22.059 15.2575 22.059 13.2475 22.129C13.7275 22.229 14.2075 22.279 14.6975 22.279H18.7675V22.159H20.7975C20.2675 22.669 21.5275 21.459 21.3775 21.579V18.019C21.3775 16.149 21.2875 14.309 21.3075 12.399C21.3075 12.549 21.3075 12.399 21.3775 12.399C21.3775 14.289 21.4575 16.109 21.4575 17.919V21.579L20.7975 22.209L21.4675 21.559V14.779C21.4675 11.899 21.3475 9.01901 21.4675 6.05901V5.05901C21.4175 4.05901 21.4475 3.05901 21.5375 2.05901C21.3675 2.29901 21.1275 1.25901 21.0575 3.28901H20.9375C20.9375 1.28901 20.5975 0.43901 20.2775 2.46901C20.0475 5.20901 19.9775 7.95901 20.0575 10.709C20.0575 12.709 20.0575 14.769 20.1475 16.809C20.2275 18.209 20.2275 19.669 20.1475 21.119V21.599C19.5975 22.159 20.9275 20.849 20.7775 20.999H17.0075C16.0075 20.999 14.2175 20.869 13.7075 20.999C13.1975 21.129 13.3275 21.099 13.3975 21.169C15.0675 21.169 16.7375 21.169 18.3975 21.239H20.8975L20.5075 21.629V21.069C20.5075 20.069 20.5075 19.069 20.4575 18.069C20.5075 19.069 20.5275 20.069 20.5275 21.069V21.649C20.1875 21.959 20.9875 21.209 20.9175 21.279H13.4875C13.4875 21.359 13.6075 21.399 13.4875 21.479H12.7175C11.7175 21.619 11.9675 21.839 12.4775 21.989C12.5675 21.989 12.7175 22.059 12.8675 22.109" fill="#E2001A"/>
</g>
<defs>
<clipPath id="clip0_3600_785">
<rect width="21.54" height="23.42" fill="white"/>
</clipPath>
</defs>
</svg>
