<svg width="335" height="35" viewBox="0 0 335 35" fill="none" xmlns="http://www.w3.org/2000/svg">
<g clip-path="url(#clip0_3654_2339)">
<path d="M44.0773 25.9144V25.514H44.5306C44.9245 25.514 45.2308 25.4377 45.4402 25.2851C45.6496 25.1357 45.8059 24.926 45.906 24.6653C45.9685 24.4905 45.9966 23.982 45.9966 23.1302V12.4764C45.9966 11.6341 45.9591 11.1097 45.8841 10.8967C45.8122 10.6838 45.6621 10.4963 45.4371 10.3373C45.212 10.1784 44.9057 10.099 44.5275 10.099H44.0742V9.69531H50.1696C51.7951 9.69531 53.1017 9.95912 54.0957 10.4899C55.3054 11.1415 56.2275 12.1172 56.8527 13.4267C57.4778 14.7298 57.7904 16.2109 57.7904 17.8605C57.7904 18.9983 57.6373 20.0472 57.3309 21.0102C57.0215 21.9733 56.6245 22.7647 56.1369 23.3908C55.6461 24.0201 55.0803 24.5191 54.4426 24.8974C53.805 25.2788 53.0204 25.5744 52.0983 25.7809C51.6888 25.8699 51.0449 25.9113 50.1727 25.9113H44.0773M49.2694 10.6139V23.251C49.2694 23.9121 49.2944 24.3189 49.3506 24.4715C49.4007 24.6272 49.4944 24.7448 49.6195 24.8243C49.7976 24.9387 50.0602 25.0022 50.3978 25.0022C51.5137 25.0022 52.364 24.5477 52.9516 23.6356C53.755 22.4087 54.1551 20.5081 54.1551 17.9336C54.1551 15.8518 53.8831 14.1927 53.3361 12.9531C52.8985 11.9869 52.3421 11.3258 51.6638 10.973C51.1793 10.7283 50.3822 10.6043 49.2694 10.6139Z" fill="#1A171B"/>
<path d="M63.2704 10.6495V17.2414H63.5454C64.4175 17.2414 65.0552 16.9173 65.4491 16.2657C65.8461 15.6173 66.093 14.6606 66.2024 13.3956H66.5681V21.9263H66.2024C66.118 21.0046 65.9461 20.245 65.6866 19.657C65.4241 19.0658 65.1209 18.6685 64.7739 18.4651C64.4269 18.2617 63.9268 18.1536 63.2672 18.1536V22.6955C63.2672 23.5823 63.2985 24.1226 63.3641 24.3196C63.4298 24.5199 63.5486 24.6788 63.7205 24.8091C63.8955 24.9394 64.1769 25.003 64.5707 25.003H65.3834C66.6588 25.003 67.6809 24.6565 68.453 23.9637C69.2188 23.2676 69.7752 22.2029 70.1128 20.7694H70.4817L69.869 25.9183H58.0752V25.5179H58.5284C58.9254 25.5179 59.2443 25.4321 59.4881 25.2572C59.6631 25.1428 59.7975 24.9458 59.8913 24.6693C59.9632 24.469 60.0038 23.9637 60.0038 23.1341V12.4803C60.0038 11.7397 59.9851 11.2789 59.9538 11.1072C59.8851 10.8244 59.76 10.5987 59.5787 10.4493C59.3255 10.2173 58.9723 10.1029 58.5284 10.1029H58.0752V9.69922H69.5033V14.4985H69.1344C68.9406 13.3289 68.6656 12.493 68.3155 11.9876C67.9622 11.4823 67.4652 11.1072 66.8213 10.8689C66.4462 10.7226 65.7398 10.6495 64.7051 10.6495H63.2704Z" fill="#1A171B"/>
<path d="M317.182 10.6495V17.2414H317.457C318.333 17.2414 318.97 16.9173 319.361 16.2657C319.758 15.6173 320.005 14.6606 320.114 13.3956H320.48V21.9263H320.114C320.03 21.0046 319.858 20.245 319.599 19.657C319.336 19.0658 319.033 18.6685 318.689 18.4651C318.342 18.2617 317.842 18.1536 317.182 18.1536V22.6955C317.182 23.5823 317.214 24.1226 317.276 24.3196C317.342 24.5199 317.46 24.6788 317.636 24.8091C317.807 24.9394 318.092 25.003 318.486 25.003H319.298C320.574 25.003 321.596 24.6565 322.368 23.9637C323.134 23.2676 323.687 22.2029 324.028 20.7694H324.397L323.784 25.9183H311.99V25.5179H312.443C312.84 25.5179 313.159 25.4321 313.403 25.2572C313.578 25.1428 313.713 24.9458 313.806 24.6693C313.878 24.469 313.919 23.9637 313.919 23.1341V12.4803C313.919 11.7397 313.9 11.2789 313.866 11.1072C313.797 10.8244 313.672 10.5987 313.494 10.4493C313.237 10.2173 312.887 10.1029 312.443 10.1029H311.99V9.69922H323.418V14.4985H323.049C322.856 13.3289 322.581 12.493 322.234 11.9876C321.88 11.4823 321.38 11.1072 320.739 10.8689C320.364 10.7226 319.658 10.6495 318.623 10.6495H317.189" fill="#1A171B"/>
<path d="M82.9789 9.69849L74.9455 25.0022H77.543C78.7715 25.0022 79.6311 24.9133 80.1187 24.7257C80.919 24.4365 81.6066 23.9121 82.1881 23.1429C82.7632 22.3738 83.1633 21.344 83.3853 20.0599H83.776L83.2227 25.9176H70.7568L78.8121 10.5789H76.7835C75.9958 10.5789 75.4769 10.6043 75.2268 10.6615C74.7517 10.7664 74.314 10.973 73.8952 11.275C73.4826 11.5801 73.1387 11.9901 72.8668 12.5018C72.5917 13.0135 72.3792 13.6619 72.2229 14.4374H71.8509L72.2166 9.69531H82.9695" fill="#1A171B"/>
<path d="M92.4282 21.2699H87.6582L87.0612 22.8655C86.8736 23.3962 86.7798 23.838 86.7798 24.1908C86.7798 24.6549 86.9299 25.0013 87.2393 25.2206C87.4206 25.3509 87.8645 25.4494 88.5741 25.5162V25.9167H84.0479V25.5162C84.5355 25.424 84.9356 25.1761 85.2513 24.7725C85.567 24.372 85.9546 23.5393 86.4172 22.2838L91.2873 9.33203H91.478L96.3574 22.6461C96.8263 23.927 97.2139 24.7375 97.5109 25.0712C97.7359 25.3287 98.061 25.4717 98.4768 25.5162V25.9167H91.9187V25.5162H92.1938C92.7221 25.5162 93.0941 25.4208 93.3097 25.2429C93.4566 25.1157 93.5285 24.925 93.5285 24.6739C93.5285 24.5277 93.5098 24.3783 93.4691 24.2194C93.4598 24.1495 93.3535 23.8412 93.1659 23.3072L92.4314 21.2667M92.1063 20.3895L90.0839 14.821L87.9895 20.3895H92.1063Z" fill="#1A171B"/>
<path d="M103.844 9.69922L110.558 19.657V12.7759C110.558 11.7938 110.439 11.1295 110.208 10.783C109.889 10.3158 109.352 10.087 108.601 10.1029V9.69922H113.062V10.1029C112.49 10.1919 112.105 10.3063 111.912 10.4493C111.715 10.5923 111.565 10.8212 111.452 11.1422C111.346 11.46 111.29 12.0099 111.29 12.779V26.287H110.952L101.753 12.8045V23.1373C101.753 24.0685 101.937 24.701 102.297 25.0284C102.659 25.3526 103.075 25.5242 103.541 25.5242H103.866V25.9247H99.0051V25.5242C99.7584 25.5115 100.284 25.3303 100.577 24.968C100.874 24.6057 101.021 24.0018 101.021 23.1373V11.7302L100.702 11.2598C100.415 10.7989 100.162 10.497 99.9397 10.3508C99.7209 10.2078 99.4052 10.1251 98.9863 10.106V9.7024H103.844" fill="#1A171B"/>
<path d="M130.188 9.33594L130.31 14.755H129.913C129.716 13.401 129.238 12.3109 128.469 11.4877C127.703 10.6645 126.868 10.2481 125.981 10.2481C125.29 10.2481 124.743 10.4706 124.34 10.9029C123.94 11.3415 123.736 11.8341 123.736 12.3967C123.736 12.7558 123.808 13.0769 123.949 13.3534C124.143 13.7316 124.452 14.0971 124.884 14.4563C125.196 14.7201 125.924 15.1905 127.062 15.8579C128.653 16.7828 129.729 17.6632 130.279 18.4928C130.826 19.3191 131.101 20.2631 131.101 21.3247C131.101 22.685 130.654 23.8515 129.763 24.8272C128.869 25.7998 127.741 26.2861 126.365 26.2861C125.934 26.2861 125.527 26.2352 125.146 26.124C124.765 26.0191 124.28 25.8252 123.702 25.5392C123.377 25.3771 123.114 25.2944 122.905 25.2944C122.733 25.2944 122.545 25.3739 122.352 25.5423C122.155 25.7044 121.995 25.9524 121.876 26.2829H121.511V20.1709H121.876C122.17 21.8809 122.742 23.1904 123.596 24.0898C124.437 24.9893 125.352 25.4438 126.331 25.4438C127.087 25.4438 127.691 25.1991 128.141 24.7096C128.588 24.2265 128.813 23.6608 128.813 23.0219C128.813 22.6373 128.728 22.2718 128.556 21.9063C128.384 21.5503 128.125 21.2103 127.778 20.8892C127.431 20.5746 126.815 20.1519 125.931 19.6338C124.69 18.9155 123.802 18.2989 123.258 17.7872C122.711 17.2755 122.295 16.7034 122.005 16.0772C121.714 15.4479 121.567 14.755 121.567 14.0081C121.567 12.7082 121.967 11.6085 122.767 10.6994C123.564 9.79044 124.574 9.33912 125.787 9.33912C126.231 9.33912 126.662 9.3995 127.078 9.52664C127.397 9.62517 127.778 9.7968 128.231 10.0542C128.685 10.3117 129.003 10.4388 129.185 10.4388C129.366 10.4388 129.497 10.3784 129.597 10.2481C129.694 10.1242 129.791 9.82222 129.879 9.34229H130.185" fill="#1A171B"/>
<path d="M236.182 9.33594L236.304 14.755H235.907C235.71 13.401 235.229 12.3109 234.466 11.4877C233.697 10.6645 232.866 10.2481 231.975 10.2481C231.284 10.2481 230.737 10.4706 230.337 10.9029C229.937 11.3415 229.733 11.8341 229.733 12.3967C229.733 12.7558 229.805 13.0769 229.946 13.3534C230.14 13.7316 230.452 14.0971 230.884 14.4563C231.196 14.7201 231.921 15.1905 233.062 15.8579C234.653 16.7828 235.729 17.6632 236.279 18.4928C236.826 19.3191 237.101 20.2631 237.101 21.3247C237.101 22.685 236.654 23.8515 235.763 24.8272C234.869 25.7998 233.741 26.2861 232.365 26.2861C231.934 26.2861 231.528 26.2352 231.146 26.124C230.765 26.0191 230.28 25.8252 229.702 25.5392C229.38 25.3771 229.114 25.2944 228.905 25.2944C228.733 25.2944 228.546 25.3739 228.352 25.5423C228.155 25.7044 227.999 25.9524 227.877 26.2829H227.508V20.1709H227.877C228.17 21.8809 228.743 23.1904 229.596 24.0898C230.44 24.9893 231.353 25.4438 232.331 25.4438C233.084 25.4438 233.688 25.1991 234.138 24.7096C234.585 24.2265 234.81 23.6608 234.81 23.0219C234.81 22.6373 234.729 22.2718 234.557 21.9063C234.382 21.5503 234.122 21.2103 233.775 20.8892C233.428 20.5746 232.809 20.1519 231.928 19.6338C230.687 18.9155 229.799 18.2989 229.255 17.7872C228.708 17.2755 228.292 16.7034 228.002 16.0772C227.711 15.4479 227.567 14.755 227.567 14.0081C227.567 12.7082 227.967 11.6085 228.768 10.6994C229.565 9.79044 230.571 9.33912 231.787 9.33912C232.228 9.33912 232.662 9.3995 233.078 9.52664C233.394 9.62517 233.778 9.7968 234.232 10.0542C234.685 10.3117 235.004 10.4388 235.185 10.4388C235.366 10.4388 235.497 10.3784 235.598 10.2481C235.698 10.1242 235.791 9.82222 235.879 9.34229H236.185" fill="#1A171B"/>
<path d="M247.026 9.33594L247.148 14.755H246.751C246.554 13.401 246.072 12.3109 245.307 11.4877C244.541 10.6645 243.709 10.2481 242.818 10.2481C242.128 10.2481 241.581 10.4706 241.177 10.9029C240.777 11.3415 240.577 11.8341 240.577 12.3967C240.577 12.7558 240.649 13.0769 240.79 13.3534C240.984 13.7316 241.293 14.0971 241.724 14.4563C242.037 14.7201 242.765 15.1905 243.903 15.8579C245.494 16.7828 246.569 17.6632 247.12 18.4928C247.667 19.3191 247.942 20.2631 247.942 21.3247C247.942 22.685 247.498 23.8515 246.604 24.8272C245.71 25.7998 244.581 26.2861 243.206 26.2861C242.775 26.2861 242.368 26.2352 241.987 26.124C241.606 26.0191 241.121 25.8252 240.543 25.5392C240.218 25.3771 239.952 25.2944 239.746 25.2944C239.574 25.2944 239.386 25.3739 239.192 25.5423C238.995 25.7044 238.836 25.9524 238.717 26.2829H238.352V20.1709H238.717C239.011 21.8809 239.586 23.1904 240.436 24.0898C241.28 24.9893 242.193 25.4438 243.172 25.4438C243.928 25.4438 244.531 25.1991 244.978 24.7096C245.425 24.2265 245.65 23.6608 245.65 23.0219C245.65 22.6373 245.566 22.2718 245.394 21.9063C245.222 21.5503 244.963 21.2103 244.616 20.8892C244.269 20.5746 243.653 20.1519 242.768 19.6338C241.531 18.9155 240.643 18.2989 240.099 17.7872C239.552 17.2755 239.133 16.7034 238.849 16.0772C238.558 15.4479 238.414 14.755 238.414 14.0081C238.414 12.7082 238.814 11.6085 239.611 10.6994C240.408 9.79044 241.415 9.33912 242.631 9.33912C243.075 9.33912 243.506 9.3995 243.922 9.52664C244.238 9.62517 244.622 9.7968 245.075 10.0542C245.529 10.3117 245.847 10.4388 246.029 10.4388C246.21 10.4388 246.341 10.3784 246.444 10.2481C246.541 10.1242 246.638 9.82222 246.723 9.34229H247.029" fill="#1A171B"/>
<path d="M334.08 9.33594L334.202 14.755H333.805C333.608 13.401 333.127 12.3109 332.361 11.4877C331.595 10.6645 330.764 10.2481 329.873 10.2481C329.185 10.2481 328.635 10.4706 328.235 10.9029C327.835 11.3415 327.632 11.8341 327.632 12.3967C327.632 12.7558 327.704 13.0769 327.844 13.3534C328.038 13.7316 328.348 14.0971 328.779 14.4563C329.092 14.7201 329.817 15.1905 330.958 15.8579C332.549 16.7828 333.624 17.6632 334.174 18.4928C334.721 19.3191 334.996 20.2631 334.996 21.3247C334.996 22.685 334.549 23.8515 333.658 24.8272C332.764 25.7998 331.636 26.2861 330.261 26.2861C329.829 26.2861 329.423 26.2352 329.042 26.124C328.66 26.0191 328.176 25.8252 327.597 25.5392C327.276 25.3771 327.01 25.2944 326.8 25.2944C326.625 25.2944 326.438 25.3739 326.247 25.5423C326.05 25.7044 325.894 25.9524 325.772 26.2829H325.406V20.1709H325.772C326.066 21.8809 326.638 23.1904 327.491 24.0898C328.332 24.9893 329.245 25.4438 330.226 25.4438C330.983 25.4438 331.586 25.1991 332.033 24.7096C332.48 24.2265 332.705 23.6608 332.705 23.0219C332.705 22.6373 332.624 22.2718 332.449 21.9063C332.277 21.5503 332.017 21.2103 331.667 20.8892C331.32 20.5746 330.705 20.1519 329.823 19.6338C328.582 18.9155 327.694 18.2989 327.15 17.7872C326.603 17.2755 326.188 16.7034 325.9 16.0772C325.609 15.4479 325.462 14.755 325.462 14.0081C325.462 12.7082 325.863 11.6085 326.663 10.6994C327.46 9.79044 328.466 9.33912 329.682 9.33912C330.126 9.33912 330.558 9.3995 330.973 9.52664C331.292 9.62517 331.674 9.7968 332.127 10.0542C332.58 10.3117 332.899 10.4388 333.08 10.4388C333.261 10.4388 333.393 10.3784 333.493 10.2481C333.593 10.1242 333.69 9.82222 333.774 9.34229H334.077" fill="#1A171B"/>
<path d="M136.831 18.1187V23.1309C136.831 23.9764 136.872 24.504 136.947 24.7137C137.022 24.9267 137.175 25.1142 137.397 25.2763C137.622 25.4352 137.922 25.5179 138.306 25.5179H138.753V25.9183H131.636V25.5179H132.089C132.486 25.5179 132.805 25.4321 133.046 25.2572C133.221 25.146 133.358 24.9458 133.452 24.6693C133.527 24.469 133.561 23.9637 133.561 23.1341V12.4803C133.561 11.638 133.527 11.1136 133.452 10.9006C133.377 10.6877 133.23 10.5002 133.002 10.3412C132.777 10.1823 132.473 10.1029 132.092 10.1029H131.639V9.69922H138.756V10.1029H138.309C137.916 10.1029 137.594 10.1855 137.353 10.3603C137.178 10.4747 137.043 10.6686 136.943 10.9483C136.872 11.1454 136.831 11.6571 136.831 12.4803V17.0571H141.629V12.4803C141.629 11.638 141.592 11.1136 141.517 10.9006C141.442 10.6877 141.291 10.5002 141.063 10.3412C140.832 10.1823 140.529 10.1029 140.147 10.1029H139.704V9.69922H146.821V10.1029H146.377C145.971 10.1029 145.655 10.1855 145.421 10.3603C145.246 10.4747 145.111 10.6686 145.005 10.9483C144.933 11.1454 144.896 11.6571 144.896 12.4803V23.1341C144.896 23.9795 144.933 24.5072 145.005 24.7169C145.083 24.9299 145.23 25.1174 145.458 25.2795C145.69 25.4384 145.996 25.5211 146.377 25.5211H146.821V25.9215H139.704V25.5211H140.147C140.551 25.5211 140.866 25.4352 141.104 25.2604C141.279 25.1492 141.417 24.9489 141.517 24.6724C141.588 24.4722 141.629 23.9668 141.629 23.1373V18.125H136.831" fill="#1A171B"/>
<path d="M154.879 25.5179V25.9183H147.762V25.5179H148.215C148.612 25.5179 148.931 25.4321 149.172 25.2572C149.347 25.146 149.481 24.9458 149.575 24.6693C149.647 24.469 149.684 23.9637 149.684 23.1341V12.4803C149.684 11.638 149.647 11.1136 149.575 10.9006C149.5 10.6877 149.35 10.5002 149.128 10.3412C148.9 10.1823 148.597 10.1029 148.212 10.1029H147.759V9.69922H154.876V10.1029H154.426C154.032 10.1029 153.714 10.1855 153.473 10.3603C153.298 10.4747 153.163 10.6686 153.063 10.9483C152.988 11.1454 152.951 11.6571 152.951 12.4803V23.1341C152.951 23.9795 152.991 24.5072 153.066 24.7169C153.141 24.9299 153.295 25.1174 153.517 25.2795C153.742 25.4384 154.042 25.5211 154.423 25.5211H154.873" fill="#1A171B"/>
<path d="M285.342 25.5179V25.9183H278.225V25.5179H278.678C279.075 25.5179 279.394 25.4321 279.634 25.2572C279.809 25.146 279.944 24.9458 280.038 24.6693C280.109 24.469 280.147 23.9637 280.147 23.1341V12.4803C280.147 11.638 280.113 11.1136 280.038 10.9006C279.966 10.6877 279.813 10.5002 279.591 10.3412C279.362 10.1823 279.059 10.1029 278.678 10.1029H278.225V9.69922H285.342V10.1029H284.892C284.498 10.1029 284.179 10.1855 283.939 10.3603C283.764 10.4747 283.626 10.6686 283.529 10.9483C283.454 11.1454 283.417 11.6571 283.417 12.4803V23.1341C283.417 23.9795 283.457 24.5072 283.532 24.7169C283.607 24.9299 283.76 25.1174 283.982 25.2795C284.207 25.4384 284.508 25.5211 284.889 25.5211H285.339" fill="#1A171B"/>
<path d="M160.702 18.523V23.1031C160.702 23.9803 160.746 24.5301 160.84 24.7558C160.93 24.991 161.096 25.1753 161.327 25.312C161.559 25.4455 161.993 25.5186 162.628 25.5186V25.9191H155.566V25.5186C156.21 25.5186 156.648 25.4455 156.873 25.3057C157.101 25.1594 157.264 24.9815 157.354 24.7526C157.445 24.5301 157.492 23.9771 157.492 23.1031V12.5223C157.492 11.6451 157.445 11.0889 157.354 10.86C157.264 10.628 157.101 10.4469 156.867 10.3102C156.635 10.1735 156.201 10.1068 155.566 10.1068V9.70312H161.909C163.559 9.70312 164.766 9.83979 165.528 10.1131C166.294 10.3865 166.916 10.8855 167.404 11.6133C167.885 12.338 168.129 13.1898 168.129 14.1687C168.129 15.3669 167.767 16.3554 167.051 17.1246C166.591 17.6268 165.947 17.9986 165.125 18.2465L168.382 23.7419C168.814 24.4539 169.12 24.902 169.301 25.0768C169.58 25.3215 169.898 25.4646 170.264 25.4868V25.9254H165.979L161.599 18.5294H160.702M160.702 10.6153V17.6077H161.274C162.206 17.6077 162.906 17.5092 163.372 17.3057C163.834 17.1087 164.194 16.7464 164.459 16.2251C164.725 15.707 164.853 15.0269 164.853 14.1782C164.853 12.9641 164.616 12.0678 164.125 11.4894C163.637 10.9077 162.856 10.6185 161.774 10.6185H160.699" fill="#1A171B"/>
<path d="M178.826 21.2699H174.06L173.459 22.8655C173.272 23.3962 173.178 23.838 173.178 24.1908C173.178 24.6549 173.331 25.0013 173.641 25.2206C173.819 25.3509 174.266 25.4494 174.975 25.5162V25.9167H170.449V25.5162C170.937 25.424 171.34 25.1761 171.656 24.7725C171.968 24.372 172.356 23.5393 172.819 22.2838L177.689 9.33203H177.876L182.759 22.6461C183.231 23.927 183.612 24.7375 183.915 25.0712C184.14 25.3287 184.459 25.4717 184.875 25.5162V25.9167H178.32V25.5162H178.589C179.117 25.5162 179.489 25.4208 179.705 25.2429C179.852 25.1157 179.927 24.925 179.927 24.6739C179.927 24.5277 179.905 24.3783 179.867 24.2194C179.852 24.1495 179.752 23.8412 179.561 23.3072L178.826 21.2667M178.508 20.3895L176.485 14.821L174.388 20.3895H178.508Z" fill="#1A171B"/>
<path d="M220.584 21.2699H215.817L215.217 22.8655C215.03 23.3962 214.936 23.838 214.936 24.1908C214.936 24.6549 215.089 25.0013 215.399 25.2206C215.577 25.3509 216.024 25.4494 216.733 25.5162V25.9167H212.207V25.5162C212.695 25.424 213.098 25.1761 213.41 24.7725C213.726 24.372 214.114 23.5393 214.576 22.2838L219.443 9.33203H219.631L224.513 22.6461C224.985 23.927 225.367 24.7375 225.67 25.0712C225.895 25.3287 226.217 25.4717 226.63 25.5162V25.9167H220.075V25.5162H220.344C220.875 25.5162 221.244 25.4208 221.46 25.2429C221.606 25.1157 221.678 24.925 221.678 24.6739C221.678 24.5277 221.656 24.3783 221.619 24.2194C221.606 24.1495 221.503 23.8412 221.313 23.3072L220.578 21.2667M220.262 20.3895L218.24 14.821L216.146 20.3895H220.262Z" fill="#1A171B"/>
<path d="M294.538 21.2699H289.771L289.171 22.8655C288.984 23.3962 288.89 23.838 288.89 24.1908C288.89 24.6549 289.043 25.0013 289.353 25.2206C289.531 25.3509 289.978 25.4494 290.687 25.5162V25.9167H286.161V25.5162C286.652 25.424 287.052 25.1761 287.365 24.7725C287.68 24.372 288.068 23.5393 288.531 22.2838L293.397 9.33203H293.585L298.468 22.6461C298.94 23.927 299.321 24.7375 299.624 25.0712C299.849 25.3287 300.171 25.4717 300.584 25.5162V25.9167H294.029V25.5162H294.298C294.826 25.5162 295.198 25.4208 295.414 25.2429C295.561 25.1157 295.636 24.925 295.636 24.6739C295.636 24.5277 295.614 24.3783 295.573 24.2194C295.561 24.1495 295.457 23.8412 295.267 23.3072L294.532 21.2667M294.22 20.3895L292.197 14.821L290.103 20.3895H294.22Z" fill="#1A171B"/>
<path d="M201.633 16.5056H205.63V16.9474C205.183 17.0236 204.833 17.1857 204.577 17.4305C204.321 17.6784 203.986 18.2441 203.58 19.1372C203.17 20.0272 202.595 21.0252 201.858 22.1281C202.517 22.8241 203.052 23.3104 203.464 23.5838C203.746 23.7713 204.03 23.8635 204.305 23.8635C204.783 23.8635 205.218 23.4948 205.602 22.7447L205.971 22.9958C205.443 24.2417 204.88 25.1284 204.28 25.6529C203.83 26.047 203.311 26.244 202.727 26.244C202.223 26.244 201.745 26.1169 201.292 25.8595C200.835 25.602 200.285 25.1157 199.644 24.407C198.838 25.0522 198.082 25.5194 197.378 25.8118C196.672 26.0978 195.934 26.244 195.171 26.244C193.952 26.244 192.986 25.8467 192.261 25.0522C191.545 24.2607 191.18 23.3231 191.18 22.2552C191.18 21.0951 191.527 20.0876 192.221 19.2358C192.911 18.3776 193.915 17.6371 195.225 17.0141C195.062 16.5119 194.937 16.0225 194.853 15.5457C194.771 15.0658 194.728 14.6049 194.728 14.1568C194.728 12.9236 195.09 11.897 195.818 11.0738C196.541 10.2538 197.466 9.84375 198.588 9.84375C199.498 9.84375 200.217 10.1139 200.748 10.6638C201.276 11.2041 201.542 11.8398 201.542 12.5644C201.542 13.4353 201.267 14.1822 200.729 14.8052C200.188 15.4249 199.326 15.997 198.147 16.5088C198.879 18.0503 199.935 19.7125 201.332 21.4892C202.267 20.2084 202.736 19.1086 202.736 18.1965C202.736 17.8659 202.642 17.5894 202.455 17.3637C202.267 17.1349 201.995 16.995 201.636 16.9505V16.5088M195.493 17.7547C194.971 18.0185 194.602 18.295 194.39 18.5874C194.084 19.0196 193.927 19.5028 193.927 20.0335C193.927 20.7582 194.105 21.4829 194.456 22.198C194.806 22.9163 195.234 23.4693 195.728 23.8603C196.225 24.2544 196.719 24.4546 197.209 24.4546C197.456 24.4546 197.731 24.3911 198.041 24.2639C198.347 24.1368 198.679 23.9461 199.041 23.6918C197.497 21.7912 196.319 19.8079 195.496 17.7578M197.816 15.8095C198.488 15.5171 198.944 15.1897 199.176 14.8497C199.404 14.5032 199.519 14.0932 199.519 13.6069C199.519 12.7424 199.332 12.0146 198.947 11.4266C198.697 11.0293 198.385 10.8322 198.022 10.8322C197.716 10.8322 197.463 10.9752 197.244 11.2581C197.031 11.5442 196.925 11.9319 196.925 12.4182C196.925 12.7964 196.975 13.2001 197.078 13.6292C197.178 14.0646 197.422 14.7924 197.816 15.8127" fill="#1A171B"/>
<path d="M256.047 9.46558C258.195 9.36705 259.939 10.1203 261.28 11.7254C262.627 13.3273 263.293 15.3328 263.293 17.7388C263.293 19.7952 262.799 21.6069 261.799 23.1738C260.47 25.2461 258.595 26.2854 256.179 26.2854C253.762 26.2854 251.871 25.2969 250.555 23.3168C249.499 21.7563 248.977 19.9001 248.977 17.7547C248.977 15.3423 249.655 13.3368 251.018 11.7317C252.381 10.1235 254.059 9.36705 256.05 9.46558M256.166 10.2188C254.934 10.2188 254.003 10.9785 253.356 12.4914C252.831 13.7373 252.571 15.5235 252.571 17.8532C252.571 20.6184 252.975 22.6653 253.784 23.9906C254.35 24.9187 255.134 25.3764 256.144 25.3764C256.829 25.3764 257.401 25.1793 257.857 24.7789C258.435 24.2703 258.889 23.4567 259.217 22.3379C259.539 21.2159 259.704 19.7507 259.704 17.955C259.704 15.8064 259.536 14.1981 259.204 13.1366C258.867 12.075 258.451 11.3217 257.941 10.8799C257.429 10.4413 256.838 10.222 256.169 10.222" fill="#1A171B"/>
<path d="M277.15 9.32204V14.9573H276.803C276.509 13.4761 275.962 12.3478 275.162 11.5596C274.364 10.7745 273.455 10.3772 272.445 10.3772C271.595 10.3772 270.826 10.6697 270.116 11.2545C269.41 11.8329 268.894 12.5989 268.569 13.5397C268.15 14.7443 267.938 16.0856 267.938 17.5635C267.938 19.0414 268.088 20.3382 268.394 21.5333C268.7 22.7251 269.176 23.6278 269.826 24.2412C270.476 24.8515 271.32 25.1534 272.358 25.1534C273.208 25.1534 273.986 24.9309 274.693 24.4828C275.396 24.0378 276.143 23.2655 276.928 22.1721V23.5706C276.171 24.5273 275.38 25.217 274.558 25.646C273.742 26.0688 272.783 26.2881 271.682 26.2881C270.245 26.2881 268.969 25.9416 267.847 25.2424C266.728 24.5495 265.862 23.5515 265.253 22.2547C264.646 20.9484 264.34 19.5659 264.34 18.0975C264.34 16.5528 264.681 15.0812 265.359 13.6923C266.034 12.3065 266.953 11.229 268.097 10.4631C269.247 9.69708 270.46 9.3125 271.754 9.3125C272.711 9.3125 273.717 9.56041 274.771 10.0531C275.387 10.3391 275.777 10.4821 275.943 10.4821C276.156 10.4821 276.343 10.3868 276.499 10.1993C276.656 10.0117 276.756 9.71933 276.806 9.3125H277.153" fill="#1A171B"/>
<path d="M311.093 9.69849V14.0814H310.743C310.531 13.0771 310.293 12.3524 310.034 11.9138C309.774 11.472 309.415 11.1224 308.971 10.8586C308.721 10.7156 308.28 10.6425 307.652 10.6425H306.642V23.1556C306.642 23.9884 306.68 24.5064 306.755 24.7162C306.83 24.9228 306.98 25.1071 307.195 25.2629C307.414 25.4154 307.714 25.4917 308.096 25.4917H308.536V25.9144H301.497V25.4917H301.938C302.325 25.4917 302.638 25.4123 302.879 25.2438C303.047 25.1294 303.182 24.9387 303.282 24.6685C303.354 24.4778 303.388 23.9693 303.388 23.1556V10.6425H302.382C301.472 10.6425 300.809 10.8713 300.394 11.3353C299.812 11.9742 299.443 12.8927 299.29 14.0783H298.946V9.69531H311.09" fill="#1A171B"/>
<path d="M17.2104 0.0014798L0.000976562 17.5L2.45884 19.9991L19.6683 2.50063L17.2104 0.0014798Z" fill="#FECD1A"/>
<path d="M22.1286 4.99923L4.91699 22.5L7.37485 24.9991L24.5865 7.49838L22.1286 4.99923Z" fill="#E2001A"/>
<path d="M27.0464 10.0045L9.83398 27.5L12.2914 29.9996L29.5039 12.5041L27.0464 10.0045Z" fill="#0A8B30"/>
<path d="M31.9626 14.9953L14.751 32.4961L17.2088 34.9952L34.4205 17.4945L31.9626 14.9953Z" fill="#656EAD"/>
</g>
<defs>
<clipPath id="clip0_3654_2339">
<rect width="335" height="35" fill="white"/>
</clipPath>
</defs>
</svg>
