<svg width="185" height="55" viewBox="0 0 185 55" fill="none" xmlns="http://www.w3.org/2000/svg">
<g clip-path="url(#clip0_3654_2367)">
<path d="M183.962 26.9795L184.042 31.4119H183.707C183.544 30.306 183.158 29.4107 182.537 28.7349C181.917 28.062 181.244 27.7226 180.524 27.7226C179.963 27.7226 179.525 27.8982 179.202 28.2551C178.876 28.612 178.716 29.0245 178.716 29.4868C178.716 29.7794 178.776 30.0398 178.891 30.2709C179.042 30.5781 179.297 30.8824 179.643 31.1837C179.9 31.4002 180.489 31.7805 181.419 32.3306C182.712 33.0942 183.581 33.8168 184.03 34.4985C184.465 35.1773 184.688 35.9555 184.688 36.8332C184.688 37.942 184.328 38.8987 183.601 39.7004C182.88 40.4991 181.962 40.9028 180.847 40.9028C180.498 40.9028 180.169 40.856 179.857 40.7741C179.543 40.6893 179.154 40.5283 178.69 40.2914C178.427 40.1626 178.207 40.0953 178.038 40.0953C177.895 40.0953 177.746 40.1626 177.589 40.2943C177.429 40.4259 177.3 40.6307 177.2 40.9028H176.917V35.8765H177.2C177.446 37.2867 177.909 38.3663 178.599 39.1065C179.285 39.8467 180.026 40.2182 180.824 40.2182C181.433 40.2182 181.919 40.0222 182.288 39.6185C182.654 39.2206 182.837 38.7583 182.837 38.2288C182.837 37.9128 182.769 37.6114 182.626 37.313C182.486 37.0175 182.28 36.7396 181.999 36.4763C181.716 36.2071 181.216 35.8648 180.498 35.4406C179.488 34.8496 178.768 34.3376 178.33 33.9221C177.895 33.5038 177.561 33.0327 177.323 32.5149C177.086 31.997 176.971 31.4295 176.971 30.8063C176.971 29.7443 177.295 28.8432 177.944 28.0971C178.596 27.3481 179.408 26.9766 180.395 26.9766C180.755 26.9766 181.104 27.0263 181.445 27.1316C181.693 27.2077 182.002 27.3511 182.371 27.5646C182.743 27.7724 182.998 27.8777 183.146 27.8777C183.287 27.8777 183.395 27.8279 183.481 27.7226C183.564 27.6173 183.641 27.3715 183.713 26.9795H183.964" fill="#1A171B"/>
<path d="M0.196791 45.8992V49.132L0.0166016 49.5475L0.242553 49.9629L0.196791 52.7804L0.560029 53.386L0.920408 53.427L1.41807 54.1174L2.77378 54.1672L3.27145 54.6265L4.22102 54.5358L4.5814 54.4422L7.01824 54.4861L7.24419 54.5358L10.9052 54.5826L11.2684 54.723L12.3496 54.764L14.2487 54.4831L16.6913 54.6236L18.3644 54.7201L18.6362 54.6236L26.5016 54.5797L26.6789 54.6704L29.6191 54.7611L29.7964 54.8079H31.2437L31.9215 54.7611H34.4985L34.6787 54.9454L35.3108 54.9015L35.6712 54.8079L35.8085 54.9015H37.4359L37.7048 54.8547L38.2024 54.8079L38.3855 54.9454L39.0147 54.9015L42.1351 54.9454L42.6757 54.8693C42.6757 54.8693 42.73 54.9044 42.9932 54.9454C43.5366 55.039 51.0359 54.8547 51.0359 54.8547H51.7567L52.2086 54.5797H53.4727C53.7445 54.4831 54.0591 53.3333 54.0591 53.3333L54.3308 52.8243L54.8284 51.5779L54.694 51.3878L54.7398 50.9752L54.7855 50.1911L54.6025 49.5446L54.7398 45.5247L54.8771 44.5095V43.3099L54.7398 43.0349L54.7855 41.2268L54.6969 40.9986L54.6511 40.63L54.7426 40.3053L54.7884 37.7628L54.6511 37.5785L54.6054 35.2204L54.5167 34.9893L54.654 34.5738V34.2988L54.6997 33.8366V32.0314L54.8799 31.5223L54.6054 31.1069V25.7002L54.4252 25.3287L54.5167 23.6201L54.654 23.4796V19.4568L54.7913 19.1818L54.8342 18.5791L54.5653 18.2105L54.7913 17.7921L54.8342 16.7769L54.6082 16.4521V15.7558L54.6997 15.4369L54.5625 15.1122V13.7722L54.7884 13.3567L54.7426 12.2011L54.8313 11.8325L54.7884 10.4457L54.8799 10.2584L54.9686 9.84592V9.0121L54.8799 8.78389L54.7884 7.39712L54.9686 7.25669L54.9257 6.23855L54.7884 6.10104L54.6997 5.77921L54.9257 5.54516L54.9686 5.17652L54.7426 4.66745V3.28068L54.9257 2.81842C54.245 0.556861 51.2647 0.416428 51.2647 0.416428L50.9043 0.185299L47.2433 0.325732L46.8801 0.275995H46.6541L46.474 0.23211L46.2022 0.325732L45.7961 0.0946026H43.9456L43.3593 0.00390625L42.9989 0.0946026H41.7776L41.1913 0.235036H39.5638L39.2464 0.419354L34.7302 0.328658L34.2783 0.559787H32.6966L32.5164 0.463239L32.3363 0.375469L32.0188 0.328658L31.7013 0.512976L29.8508 0.650483L29.3531 0.70022L29.1729 0.466165L28.0432 0.562713H26.0554L25.5548 0.703146L25.1487 0.609524H23.9303L23.793 0.796768L22.3887 0.747031L22.2085 0.515902L21.4391 0.609524L21.033 0.515902L19.2682 0.42228C19.2682 0.42228 18.9965 0.562713 18.8621 0.609524C18.7248 0.653409 17.372 0.515902 17.372 0.515902L17.2375 0.703146L16.7399 0.653409L16.1078 0.562713L15.5644 0.515902L15.0209 0.747031L14.6176 0.609524L12.9902 0.703146L12.6298 0.609524H11.952L7.93063 0.562713L7.3872 0.837727L6.70934 0.653409L4.90173 0.884538L4.58712 0.703146L4.13521 0.515902L2.3705 0.609524L1.60398 1.39361L0.611512 2.49952L0.748799 4.0238L0.56861 4.43632L0.614372 6.56915L0.296896 6.79735L0.342658 7.49074L0.522848 8.08758L0.251134 9.10279L0.388421 9.52117L0.342658 15.7119L0.56861 16.1771L0.342658 16.5457L0.251134 18.2105L0.434183 18.9038L0.208231 19.1818L0.162469 20.1034L0.345518 20.7061L0.391281 22.7833L0.57433 23.2485L0.348379 23.8453L0.394141 24.6323L0.305476 25.7909V32.2128L0.57719 32.5814L0.439903 32.8126V36.2824L0.256854 36.6013L0.211092 38.7283L0.391281 39.1906L0.345518 41.7769L0.208231 42.3766L0.434183 43.07L0.479945 43.7166L0.0738045 45.3345L0.208231 45.8904M31.8701 46.7622L31.6613 47.6575L31.3895 48.149L31.3295 48.6113C31.3295 48.6113 30.2741 50.1209 30.3342 48.3363L30.3971 46.5487L30.7231 45.8407C30.7231 45.8407 30.7861 43.7459 30.8776 43.5001C30.9691 43.2514 31.0263 42.6955 31.0578 41.6511L31.5411 40.2965C31.5411 40.2965 32.0817 37.3679 33.2286 37.3386C34.3727 37.3093 34.0438 38.4182 34.0094 38.8161L33.8922 39.5241L33.5604 39.9571L33.6205 40.8787L33.2887 41.1859L33.2572 41.929C33.2572 41.929 32.7739 42.5141 32.9569 43.5937C33.1371 44.6704 32.505 45.2555 32.3248 45.6885C32.1446 46.1215 31.8701 46.7652 31.8701 46.7652M37.7906 41.7418L37.6533 42.9003L37.3844 45.0244L36.7495 46.9232L35.8914 48.4884L35.8485 49.5036L35.5739 50.2906L36.3004 50.984L37.0212 51.0308L37.4731 51.3526L37.9707 51.4931C37.8335 52.0899 37.3387 52.2772 37.3387 52.2772L36.8896 52.3679L36.166 52.599L35.6254 52.5083L34.7216 52.5522C34.0867 52.1397 33.5919 52.3679 33.5919 52.3679C32.0102 52.5522 33.017 50.4281 33.017 50.4281L33.4117 49.8752L33.7749 48.8102L33.8178 48.073L34.224 47.3327C34.0867 45.0683 34.9476 44.1437 34.9476 44.1437L35.082 42.8009L35.4881 41.695L35.5339 40.9518L35.8514 40.3989L36.1231 39.0121C37.0698 37.6282 37.7934 38.2251 37.9736 38.7342C38.1567 39.2403 37.9278 40.0302 37.9278 40.0302L38.2453 40.7236C37.7477 41.2268 37.7934 41.7388 37.7934 41.7388M38.3483 34.9951C37.4473 34.7494 37.4159 34.5943 37.6275 33.3919C37.8392 32.1952 37.9278 32.5346 37.7191 31.8822C37.5074 31.2385 37.9307 30.9313 37.2071 30.2848C36.4835 29.6353 36.5149 29.5124 35.5196 28.9887C34.5271 28.465 34.1639 27.5083 34.2526 26.9553C34.3441 26.3995 35.2793 25.51 37.024 26.3409C38.7716 27.1718 39.6468 27.2625 40.8509 26.6774C40.8509 26.6774 42.118 25.6593 42.178 24.1818C42.2381 22.7072 42.4783 22.7072 42.4783 22.7072C42.4783 22.7072 43.5023 19.5592 43.5337 19.1321C43.5623 18.6991 43.3821 18.699 43.3821 18.699C43.3821 18.699 42.8988 15.5569 45.942 15.2467L46.3967 15.3433L46.7571 15.5569C46.7571 15.5569 48.5647 15.5247 48.8364 17.716C49.111 19.9015 48.7478 20.4866 48.7478 20.4866L48.8965 20.8289L48.7478 21.262L48.1157 24.4948C48.1157 24.4948 48.1443 26.9261 46.3367 26.6511L45.9162 26.5867C45.9162 26.5867 44.4375 26.2795 43.834 26.6189C43.2306 26.9583 42.6013 28.5001 43.2306 29.7318C43.2306 29.7318 43.0218 30.8114 44.0171 31.025C45.0096 31.2415 46.5769 31.6101 46.8486 33.0291C46.8486 33.0291 46.6084 33.86 46.5769 34.1701C46.5483 34.4744 45.3728 36.2005 44.8608 34.3222C44.3489 32.4439 44.0486 31.9495 43.8083 31.8559C43.5623 31.7622 42.873 31.9787 42.7529 32.1338C42.6299 32.2859 42.1809 32.9676 41.3057 32.3503C41.3057 32.3503 41.0797 32.1455 40.9739 32.1631C40.9739 32.1631 39.95 32.5639 39.8584 33.2719C39.7698 33.9799 39.255 35.2409 38.3511 34.9981M36.7209 22.2421L36.841 19.7143L37.2328 18.5762L37.413 16.7564C37.9536 15.4925 38.6772 14.4451 40.2732 14.6002C41.872 14.7552 41.6003 16.417 41.5059 17.0314C41.4201 17.6517 41.4773 18.9126 41.3886 19.1906C41.2971 19.4656 41.0254 19.4071 40.9339 20.1122C40.8452 20.8231 40.7222 21.2824 40.5134 22.2976C40.3018 23.3158 39.069 24.5182 39.069 24.5182C38.497 24.764 37.5903 24.6089 36.8381 23.8073C36.0859 23.0057 36.718 22.2391 36.718 22.2391M40.1845 41.3702L40.502 39.6616C40.502 39.6616 40.911 38.3187 40.911 37.3971C40.911 36.4755 41.1827 35.3638 41.4515 34.9015C41.7233 34.4363 41.9034 34.3047 42.2667 35.4574C42.6271 36.6101 42.2667 37.2567 42.1752 38.0876C42.0865 38.9185 41.9921 39.4744 41.9921 39.4744L41.4487 41.0425L41.6746 41.5048L41.36 42.6136L40.5449 43.9097C40.5449 43.9097 40.2274 44.4188 40.2274 43.4006C40.2274 42.3825 40.1816 41.3673 40.1816 41.3673M44.6149 46.6862L44.5691 47.1455L43.9828 48.4416L42.8959 50.2877L41.7233 51.4433L40.8195 51.9524C40.8195 51.9524 39.9128 52.1367 40.4591 51.2122C40.4591 51.2122 40.685 50.6124 40.7737 49.8254C40.8624 49.0443 41.1341 49.644 41.3629 48.1198C41.586 46.5955 42.0407 46.8705 42.1323 46.1303C42.2209 45.393 42.2209 46.1303 42.7644 44.2344L43.0361 43.7722C43.0361 43.7722 42.8559 43.1754 43.7139 42.5258C43.7139 42.5258 43.8512 42.2011 43.8941 41.142C43.9399 40.077 44.5262 38.2748 44.8866 38.2748C45.247 38.2748 45.656 37.9998 46.0192 39.293L45.656 40.7704C45.656 40.7704 45.3385 40.6797 45.7017 42.6663L45.5215 43.1285L45.1154 45.434L44.6177 46.6833M52.343 50.5656C51.5736 53.1519 49.9033 52.7365 49.9033 52.7365C49.9033 52.7365 48.0499 52.8301 46.7371 52.7833C45.43 52.7365 45.0639 50.9811 45.9248 49.5036C46.7829 48.0261 46.7829 47.3796 47.2348 46.0396C47.6838 44.6996 47.0517 45.0683 47.6838 42.482C48.3188 39.8927 48.0928 40.355 48.3188 39.1555C48.5447 37.953 48.7278 37.5844 49.4027 37.678C50.0806 37.7687 50.1721 37.9998 50.441 38.506C50.7127 39.0179 50.3981 42.5288 50.3981 42.5288C50.0806 42.6692 49.6773 43.7312 49.6773 43.7312L49.6316 44.606L49.2712 45.1648C49.2712 45.1648 49.4485 45.671 49.1339 46.2707C48.8193 46.8705 48.2301 48.2573 48.2301 48.2573C48.2301 48.2573 48.4131 48.2573 47.824 49.0443C47.2376 49.8254 47.372 50.2906 47.372 50.2906L47.8669 50.5188C48.0928 50.8465 48.5476 50.8465 48.5476 50.8465C49.4971 50.6651 50.175 49.135 50.175 49.135L50.9444 47.3327L51.5793 44.9308L51.7595 44.3778L51.9855 44.4217L52.0312 44.9746L52.2572 45.5305L52.2114 46.6394L52.1657 49.0882L52.3458 49.3661V50.5656M53.2897 30.2818L53.4956 30.8582V31.458L53.201 31.6891L53.1095 32.3123C53.1095 32.3123 52.8835 33.1227 52.2543 32.3357C51.6194 31.5487 51.1017 31.616 50.9873 31.6452C50.9873 31.6452 50.0577 31.6891 50.2865 32.7745C50.5125 33.8629 50.8986 34.0443 50.0835 34.9922C49.2712 35.9431 48.1414 35.1999 48.436 34.1379C48.7306 33.0759 48.9995 32.2187 48.9308 31.9407C48.865 31.6628 48.9108 31.063 47.4636 30.5803C46.0192 30.0917 45.1383 29.2374 45.1812 28.8687C45.2269 28.4972 45.3614 27.9208 47.1947 28.3363C49.0252 28.7488 50.5382 28.7254 51.668 28.7049C51.668 28.7049 52.0484 28.8892 52.3001 29.0501C52.5461 29.214 52.7977 29.1438 52.9322 29.1672C53.0666 29.1906 53.3183 29.3047 53.2925 30.2789M46.1193 4.3427C46.6313 4.27834 48.2272 3.29238 48.5905 3.0788C48.9537 2.8623 49.7946 2.18647 50.7013 2.3386C51.6051 2.49367 52.5975 2.98811 52.629 4.15838C52.629 4.15838 52.5375 4.9571 52.3887 5.2994C52.2372 5.63878 52.4173 8.40941 52.4173 8.40941L52.3258 12.2304C52.3258 12.2304 52.4488 12.757 52.4774 14.6938L52.812 15.7441L52.6576 16.2356L52.812 16.6364V17.6546L52.6004 18.0232L52.812 18.6727V19.5299L52.506 20.7031L52.5661 21.5662L52.1742 22.4293L52.2343 22.8301L52.1142 23.1081V23.661L51.934 23.9711C51.934 23.9711 51.8453 24.1876 52.1456 24.6792C52.4431 25.1736 52.1456 26.1917 51.3305 26.3702C50.5182 26.5604 49.5543 26.8998 49.8547 24.802V24.1555L50.0348 23.8775C50.0348 23.8775 49.8547 23.2309 50.3037 22.6136C50.3037 22.6136 50.4553 21.3526 50.3352 20.6739C50.3352 20.6739 50.3952 20.0595 50.6383 19.7201C50.6383 19.7201 50.6069 19.41 50.5468 19.0735C50.4839 18.7342 50.4839 17.9033 50.6669 17.6868L50.6984 17.3766C50.6984 17.3766 50.5754 15.9928 50.7871 15.6212C50.9987 15.2497 50.9501 14.3339 51.1789 13.8658C51.3019 13.6201 50.9673 13.0934 50.8157 11.9553L50.7871 11.4609L50.6383 11.3351C50.6383 11.3351 50.8757 9.12035 49.5515 8.96236C49.5515 8.96236 48.5876 9.08524 48.7392 10.472C48.7392 10.472 49.3398 13.0612 48.3159 13.2426C47.292 13.4299 46.0564 13.7371 44.9724 13.0261C43.8884 12.3181 43.5252 10.8728 43.4937 10.314C43.4651 9.76107 43.3736 9.02087 43.3736 9.02087C43.3736 9.02087 42.5012 7.8506 42.198 7.7599C41.8977 7.66628 41.2056 7.60484 40.9939 7.5434C40.7823 7.48196 40.2388 7.35908 40.0014 7.11333C39.7583 6.86464 38.9461 7.17184 38.9461 7.17184C38.9461 7.17184 36.8982 6.83246 36.9268 6.06593C36.9554 5.29647 37.4102 5.13849 39.1262 5.48079C40.8452 5.82017 42.0465 5.54223 42.5012 5.35791C42.9531 5.1736 45.6016 4.40414 46.1164 4.3427M31.6899 2.64873C32.5651 2.40004 32.7138 2.76868 33.978 2.4293L34.3698 2.52292L35.2107 2.49074L36.6293 2.40004L37.1699 2.52292L38.1338 2.37079L39.6725 2.30935L39.8499 2.18354L41.2056 2.15429L41.4172 2.03141C41.4172 2.03141 43.405 1.90853 43.8255 2.03141C44.2488 2.15429 44.2173 2.24791 44.5777 2.1221C44.9409 1.9963 45.9935 2.64288 44.429 3.1695C42.8645 3.6932 44.7922 3.63176 42.5298 3.72538C40.2703 3.819 40.153 3.819 39.9414 4.09402C39.7297 4.37196 38.1338 4.1262 38.0451 3.96821C37.9536 3.81608 35.8142 3.81608 35.7227 4.15546C35.6369 4.49484 34.8818 3.90677 34.4585 5.69437L34.3384 6.12444L34.8189 7.02263C34.8189 7.02263 34.7302 8.1578 35.9944 8.12854C37.2614 8.09636 42.261 8.68149 41.8977 11.4229L42.0493 11.7301L41.8691 12.1367L42.0179 12.4439L41.1741 13.0612L39.847 12.9998L39.6354 12.8447L38.2482 12.8155C38.2482 12.8155 37.679 12.7511 37.496 11.4902C37.3129 10.2263 36.9554 8.84241 36.0802 8.78097C35.2021 8.7166 35.0277 9.82544 35.0277 9.82544L35.777 12.3796L35.8056 12.8126L35.9887 13.3333L36.0201 13.9214C36.0201 13.9214 36.4406 14.3544 35.8085 16.0776C35.1764 17.8009 33.9408 17.9267 33.5204 17.8974C33.5204 17.8974 32.8568 17.9852 32.5851 17.4322C32.5851 17.4322 32.0445 18.1081 31.5326 17.4322C31.5326 17.4322 30.3885 17.2772 30.1454 15.8611C29.9051 14.4422 30.0281 13.9799 29.8765 11.6072C29.7221 9.23738 30.0281 8.00274 30.0281 8.00274C30.0281 8.00274 30.0853 6.27658 29.8165 4.73767C29.5419 3.19583 30.8089 2.88571 31.6813 2.64288M29.4332 35.3023C29.4332 34.2257 29.4046 33.8834 29.2502 33.4825C29.1014 33.0817 29.3102 32.3737 29.3388 32.2508C29.3703 32.125 29.1901 30.4954 29.2788 30.001C29.3674 29.5095 29.8222 28.3977 29.8508 27.166C29.8823 25.9343 29.5791 23.9009 29.5476 23.4036L29.4876 23.2543L29.6706 22.3913C29.6706 22.3913 29.0099 20.8494 30.5458 19.9571C32.0817 19.0648 33.7063 20.0185 33.978 20.2965C34.2497 20.5715 34.55 20.5452 34.55 21.2824C34.55 22.0197 34.3984 21.4697 34.0666 22.6399C33.7377 23.8102 33.1943 23.6259 32.5908 24.4568C31.9873 25.2877 30.9662 26.0893 31.8672 27.9384C32.771 29.7903 31.7785 28.5528 32.9512 29.6294C34.1238 30.709 34.9991 31.5106 35.1192 32.4966C35.2422 33.4796 34.3384 34.5621 33.6147 34.527C32.894 34.4978 32.5622 34.0033 32.6823 33.386C32.8025 32.7716 32.9226 31.0162 31.6269 30.9869C30.3313 30.9548 30.3942 32.0958 30.3942 32.0958L30.4829 32.403L30.2998 32.7716C30.2998 32.7716 30.4514 34.4978 30.1511 34.8986L30.091 35.1736C30.091 35.1736 29.9109 37.362 29.7879 39.2725C29.7879 39.2725 29.0957 40.8728 29.007 38.9038C28.9155 36.929 29.4303 36.3761 29.4303 35.2994M11.8404 47.3796L11.7775 48.149C11.7775 48.149 10.9652 49.723 10.5448 50.156C10.5448 50.156 9.45794 51.3526 8.557 51.5896C7.65033 51.8178 3.90068 51.5399 3.90068 51.5399C3.90068 51.5399 2.49635 51.1742 2.49635 49.3251C2.49635 47.4761 2.81382 46.967 3.62611 45.7178C4.44125 44.4714 4.84739 44.3778 5.29929 43.1783C5.7512 41.97 6.06867 41.6511 6.38329 40.077L6.98678 38.5381C6.98678 38.5381 7.0783 37.6458 7.65033 36.0747C8.22236 34.5036 8.70573 32.4732 8.76579 32.2245C8.82871 31.9787 8.61706 31.3936 8.73719 30.4691C8.86017 29.5446 8.97744 29.2374 8.97744 28.9302C8.97744 28.623 8.79725 28.2192 8.97744 27.204C9.15763 26.1859 9.24915 24.9864 11.7775 24.802C11.7775 24.802 15.0924 24.8635 15.0638 27.2976L15.244 27.6663L15.2726 30.1005L15.4528 30.317L15.5129 32.4147L15.3927 32.9062V34.3544L15.244 34.8488L15.3927 35.4954L15.2726 36.5721L14.7893 37.8682L14.7607 38.6961C14.7607 38.6961 14.3088 40.3023 14.0084 40.7646L14.037 41.3175C14.037 41.3175 12.953 44.489 12.5011 45.1063L12.5898 45.8465L11.8404 47.3854M27.5655 24.6411L27.3539 24.9512L27.4139 26.4287L27.2023 26.7681L27.2338 28.5235L27.2624 29.0443V30.3667L27.1422 30.8904L27.2624 31.259L27.025 31.8178L27.2023 32.0314L27.0822 32.3093L27.2023 32.6195V37.5171C27.6256 37.7658 27.2023 38.3187 27.2023 38.3187L27.2624 40.0449L27.2023 40.3842L27.1422 42.5112C26.7819 43.1578 26.9592 43.8014 26.9592 43.8658C26.9592 43.9302 27.4425 44.9132 26.9306 46.2678C26.4186 47.6224 26.6589 48.269 26.8705 49.0735C27.0822 49.8752 26.9306 50.6124 26.9306 50.6124L26.1183 51.4433C25.246 52.3649 22.6547 52.3035 22.6547 52.3035C22.6547 52.3035 16.451 52.1835 15.0924 52.2128C13.7367 52.245 13.5565 51.5662 13.5565 51.5662C13.5565 51.5662 13.3763 50.0536 13.8855 49.4714C14.3974 48.8863 14.7006 47.8389 14.7006 47.8389L15.2726 45.8992L16.205 43.1578C16.2336 41.9261 16.8085 39.1233 16.9887 38.7195C17.1718 38.3187 17.289 36.8734 17.289 36.8734V35.7324C17.289 35.7324 17.0774 34.7172 17.3491 33.9477C17.6208 33.1754 17.8325 30.5276 17.8325 30.5276C17.8325 30.5276 17.5293 27.8477 17.8925 27.1075C18.2529 26.3644 19.457 25.1677 21.359 25.63C23.2553 26.0923 23.2238 27.8799 23.2238 27.8799L23.404 28.2485C23.4641 29.2374 23.4641 30.4662 23.5842 30.8377C23.7072 31.2064 23.6757 33.9507 23.6757 33.9507L23.6157 34.1028C23.5556 34.2579 23.1323 35.4281 23.344 36.1683C23.5556 36.9056 23.404 38.111 23.404 38.111C23.404 38.111 23.7072 39.9571 23.4641 40.3287C23.2238 40.6973 22.832 42.3298 22.832 42.3298L22.5345 43.5001C22.5031 44.5768 22.2028 45.039 22.2028 45.039C22.2028 45.039 20.3665 47.4761 21.6908 48.3041C23.015 49.135 23.9217 48.0876 23.9217 48.0876L24.6711 46.8266C24.6453 44.8839 25.2746 41.1566 25.2746 41.1566L25.3975 40.8787L25.2746 39.369L25.4862 39.0618V38.2309L25.6063 38.1402V35.7383L25.7865 35.4925L25.878 32.7804L25.9381 32.6282L26.0611 32.0724L25.8494 31.8559V30.9635L25.5177 29.7962L25.3975 27.915C25.3975 27.915 24.9742 26.5282 25.0028 25.235C25.0343 23.9419 24.9428 23.3538 24.9428 23.3538C24.2821 21.2912 24.9428 20.6739 24.9428 20.6739C25.3661 19.9659 27.0793 19.843 27.2338 21.1654C27.3825 22.4907 27.2938 23.6318 27.2938 23.6318C27.7143 23.9975 27.5655 24.644 27.5655 24.644M23.7844 3.386L25.2746 2.87693C26.676 1.9056 27.6256 3.386 27.6256 3.386L27.6714 5.14141L27.3968 5.69729L27.4425 7.68384L27.2624 7.96178V9.16423L27.4883 9.44217V10.2731L27.6256 10.7821C27.4883 11.7535 27.0393 13.1841 27.2624 13.6025C27.4883 14.0209 27.5341 15.1765 27.5341 15.1765C27.5341 17.8067 25.1859 17.2538 24.6453 16.8851C24.1019 16.5165 23.7873 15.8231 23.7873 15.8231L23.424 14.4363C23.424 14.4363 23.015 14.5738 22.7919 13.6932C22.5631 12.8184 21.7995 12.0314 21.1188 12.0782C20.4409 12.125 20.4409 12.8184 20.4409 12.8184L21.4334 15.7734V16.9758L21.6593 17.6253L21.748 18.4094L22.1112 19.0121L22.0226 20.4457L22.34 21.0455C22.4144 22.4615 21.5421 22.7687 21.5421 22.7687L20.9672 22.8301L20.5467 22.9501L19.8546 22.7979C19.0108 23.0759 18.1385 23.0759 18.1385 23.0759C16.4796 22.9501 16.5997 20.5481 16.5997 20.5481L16.1192 19.3778L16.0592 17.2976C15.6502 14.8957 14.9294 14.7084 14.9294 14.7084L14.7435 14.1993L13.3449 12.953L10.2702 11.0133L9.90985 10.9665C7.87628 10.2701 7.5159 7.45563 9.27775 6.3468C11.0396 5.23504 12.8472 6.11567 12.8472 6.11567C15.2869 6.02205 15.6502 6.48138 17.003 6.39068C18.3616 6.29999 18.1356 6.80905 20.6669 5.69729C23.1981 4.59138 23.7844 3.386 23.7844 3.386ZM2.32188 40.1473C2.49921 37.9735 2.64794 38.4153 2.47061 36.9319C2.29042 35.4574 2.38194 34.8401 2.40768 34.6236C2.43915 34.4071 2.28756 32.2216 2.55927 31.7008C2.82813 31.1742 2.6794 29.2345 2.6794 29.2345C2.6794 29.2345 3.01117 27.6634 3.01117 27.0782C3.01117 26.4931 2.80238 24.8313 2.71086 23.9945C2.62219 23.1666 2.98257 22.8886 3.04264 22.4878C3.1027 22.087 2.98257 20.5159 2.80238 19.6206C2.6222 18.7283 2.80238 16.4492 2.71086 16.0776C2.62219 15.709 2.59073 15.276 2.71086 14.8137C2.83099 14.3515 2.71086 13.2719 2.71086 13.2719C2.71086 13.2719 3.01117 12.8126 2.77092 12.3503C2.53067 11.888 2.77092 10.0419 2.86245 9.91321C2.95397 9.79326 2.95111 8.98869 2.6508 8.28068C2.35048 7.57558 2.53353 7.23621 2.59359 7.1104C2.6508 6.98752 2.59359 6.55452 2.56499 6.3702C2.53353 6.18881 2.86531 6.06593 2.86531 5.84943C2.86531 5.63293 2.68512 5.48079 2.74518 4.80203C2.8081 4.12327 2.62506 2.45856 5.12482 2.76576L5.96857 2.6458L6.14876 2.52L6.66072 2.48781L6.72365 2.42638C6.72365 2.42638 9.31494 2.39712 9.49513 2.33275C9.67532 2.27424 10.2759 2.27424 10.4876 2.33275C10.6964 2.39712 10.7565 2.24498 11.1197 2.20987C11.4801 2.18062 12.1751 2.24206 12.5069 2.42638L14.9151 2.36786C14.9151 2.36786 15.6988 2.67798 15.816 2.67798C15.939 2.67798 16.3309 2.52 16.3309 2.52C16.3309 2.52 17.6866 2.52 17.8982 2.42638C18.107 2.33275 19.826 2.15136 20.1578 3.53814C20.1578 3.53814 20.3694 4.12327 19.314 4.45973C18.2586 4.80203 16.82 4.90443 15.0381 4.67623C14.0714 4.55335 12.2351 4.39829 11.2112 4.21397C11.2112 4.21397 8.77151 4.30759 7.95923 4.89273L6.9925 6.00157C6.9925 6.00157 5.3994 7.26254 5.69971 8.24849C5.69971 8.24849 4.73298 9.85177 6.9925 11.7271C6.9925 11.7271 7.80478 12.4088 9.52659 13.0232L10.2473 13.5791L11.6317 14.0735C11.6317 14.0735 13.2276 14.9629 13.4078 16.104L14.0399 17.3386V18.6639L14.2516 18.9711L14.2201 19.9249L14.4346 20.2321L14.4632 20.8172L14.5833 20.9694C14.5833 20.9694 14.7664 22.3883 14.4632 22.757C14.1629 23.1256 12.7786 23.1256 11.2999 22.6634C9.82404 22.1982 9.10043 22.3211 8.5284 20.2292C7.95637 18.1344 7.56453 17.1163 7.32428 15.7002C7.08402 14.2842 6.66072 13.111 5.66825 13.266C4.67578 13.4211 4.67578 14.0999 4.67578 14.6265C4.67578 15.1531 5.69971 17.1835 5.69971 17.1835C5.69971 17.1835 5.81984 18.8453 6.9639 24.0209C6.9639 24.0209 7.38434 25.0068 6.9353 26.8881C6.48339 28.7634 6.44907 27.8096 6.38901 29.29C6.33181 30.7704 6.06009 31.5399 5.96857 31.9085C5.87704 32.2772 6.03149 33.0788 5.81984 33.7254L5.57959 34.1789L5.71687 34.6177C5.71687 34.6177 5.5567 35.6329 5.35363 36.4463C5.15342 37.2538 5.26497 37.3679 5.26497 37.3679C5.26497 37.3679 4.47557 38.7517 4.29252 39.448C4.11233 40.1414 4.17811 40.0039 4.17811 40.0039C4.17811 40.0039 4.26964 40.4164 3.66043 41.3907C3.05122 42.3591 2.14741 42.3152 2.33046 40.1414L2.32188 40.1473Z" fill="#D10019"/>
<path d="M0.196791 45.8992V49.132L0.0166016 49.5475L0.242553 49.9629L0.196791 52.7804L0.560029 53.386L0.920408 53.427L1.41807 54.1174L2.77378 54.1672L3.27145 54.6265L4.22102 54.5358L4.5814 54.4422L7.01824 54.4861L7.24419 54.5358L10.9052 54.5826L11.2684 54.723L12.3496 54.764L14.2487 54.4831L16.6913 54.6236L18.3644 54.7201L18.6362 54.6236L26.5016 54.5797L26.6789 54.6704L29.6191 54.7611L29.7964 54.8079H31.2437L31.9215 54.7611H34.4985L34.6787 54.9454L35.3108 54.9015L35.6712 54.8079L35.8085 54.9015H37.4359L37.7048 54.8547L38.2024 54.8079L38.3855 54.9454L39.0147 54.9015L42.1351 54.9454L42.6757 54.8693C42.6757 54.8693 42.73 54.9044 42.9932 54.9454C43.5366 55.039 51.0359 54.8547 51.0359 54.8547H51.7567L52.2086 54.5797H53.4727C53.7445 54.4831 54.0591 53.3333 54.0591 53.3333L54.3308 52.8243L54.8284 51.5779L54.694 51.3878L54.7398 50.9752L54.7855 50.1911L54.6025 49.5446L54.7398 45.5247L54.8771 44.5095V43.3099L54.7398 43.0349L54.7855 41.2268L54.6969 40.9986L54.6511 40.63L54.7426 40.3053L54.7884 37.7628L54.6511 37.5785L54.6054 35.2204L54.5167 34.9893L54.654 34.5738V34.2988L54.6997 33.8366V32.0314L54.8799 31.5223L54.6054 31.1069V25.7002L54.4252 25.3287L54.5167 23.6201L54.654 23.4796V19.4568L54.7913 19.1818L54.8342 18.5791L54.5653 18.2105L54.7913 17.7921L54.8342 16.7769L54.6082 16.4521V15.7558L54.6997 15.4369L54.5625 15.1122V13.7722L54.7884 13.3567L54.7426 12.2011L54.8313 11.8325L54.7884 10.4457L54.8799 10.2584L54.9686 9.84592V9.0121L54.8799 8.78389L54.7884 7.39712L54.9686 7.25669L54.9257 6.23855L54.7884 6.10104L54.6997 5.77921L54.9257 5.54516L54.9686 5.17652L54.7426 4.66745V3.28068L54.9257 2.81842C54.245 0.556861 51.2647 0.416428 51.2647 0.416428L50.9043 0.185299L47.2433 0.325732L46.8801 0.275995H46.6541L46.474 0.23211L46.2022 0.325732L45.7961 0.0946026H43.9456L43.3593 0.00390625L42.9989 0.0946026H41.7776L41.1913 0.235036H39.5638L39.2464 0.419354L34.7302 0.328658L34.2783 0.559787H32.6966L32.5164 0.463239L32.3363 0.375469L32.0188 0.328658L31.7013 0.512976L29.8508 0.650483L29.3531 0.70022L29.1729 0.466165L28.0432 0.562713H26.0554L25.5548 0.703146L25.1487 0.609524H23.9303L23.793 0.796768L22.3887 0.747031L22.2085 0.515902L21.4391 0.609524L21.033 0.515902L19.2682 0.42228C19.2682 0.42228 18.9965 0.562713 18.8621 0.609524C18.7248 0.653409 17.372 0.515902 17.372 0.515902L17.2375 0.703146L16.7399 0.653409L16.1078 0.562713L15.5644 0.515902L15.0209 0.747031L14.6176 0.609524L12.9902 0.703146L12.6298 0.609524H11.952L7.93063 0.562713L7.3872 0.837727L6.70934 0.653409L4.90173 0.884538L4.58712 0.703146L4.13521 0.515902L2.3705 0.609524L1.60398 1.39361L0.611512 2.49952L0.748799 4.0238L0.56861 4.43632L0.614372 6.56915L0.296896 6.79735L0.342658 7.49074L0.522848 8.08758L0.251134 9.10279L0.388421 9.52117L0.342658 15.7119L0.56861 16.1771L0.342658 16.5457L0.251134 18.2105L0.434183 18.9038L0.208231 19.1818L0.162469 20.1034L0.345518 20.7061L0.391281 22.7833L0.57433 23.2485L0.348379 23.8453L0.394141 24.6323L0.305476 25.7909V32.2128L0.57719 32.5814L0.439903 32.8126V36.2824L0.256854 36.6013L0.211092 38.7283L0.391281 39.1906L0.345518 41.7769L0.208231 42.3766L0.434183 43.07L0.479945 43.7166L0.0738045 45.3345L0.208231 45.8904M31.8701 46.7622L31.6613 47.6575L31.3895 48.149L31.3295 48.6113C31.3295 48.6113 30.2741 50.1209 30.3342 48.3363L30.3971 46.5487L30.7231 45.8407C30.7231 45.8407 30.7861 43.7459 30.8776 43.5001C30.9691 43.2514 31.0263 42.6955 31.0578 41.6511L31.5411 40.2965C31.5411 40.2965 32.0817 37.3679 33.2286 37.3386C34.3727 37.3093 34.0438 38.4182 34.0094 38.8161L33.8922 39.5241L33.5604 39.9571L33.6205 40.8787L33.2887 41.1859L33.2572 41.929C33.2572 41.929 32.7739 42.5141 32.9569 43.5937C33.1371 44.6704 32.505 45.2555 32.3248 45.6885C32.1446 46.1215 31.8701 46.7652 31.8701 46.7652M37.7906 41.7418L37.6533 42.9003L37.3844 45.0244L36.7495 46.9232L35.8914 48.4884L35.8485 49.5036L35.5739 50.2906L36.3004 50.984L37.0212 51.0308L37.4731 51.3526L37.9707 51.4931C37.8335 52.0899 37.3387 52.2772 37.3387 52.2772L36.8896 52.3679L36.166 52.599L35.6254 52.5083L34.7216 52.5522C34.0867 52.1397 33.5919 52.3679 33.5919 52.3679C32.0102 52.5522 33.017 50.4281 33.017 50.4281L33.4117 49.8752L33.7749 48.8102L33.8178 48.073L34.224 47.3327C34.0867 45.0683 34.9476 44.1438 34.9476 44.1438L35.082 42.8009L35.4881 41.695L35.5339 40.9518L35.8514 40.3989L36.1231 39.0121C37.0698 37.6282 37.7934 38.2251 37.9736 38.7342C38.1567 39.2403 37.9278 40.0302 37.9278 40.0302L38.2453 40.7236C37.7477 41.2268 37.7934 41.7388 37.7934 41.7388M38.3483 34.9951C37.4473 34.7494 37.4159 34.5943 37.6275 33.3919C37.8392 32.1952 37.9278 32.5346 37.7191 31.8822C37.5074 31.2385 37.9307 30.9313 37.2071 30.2848C36.4835 29.6353 36.5149 29.5124 35.5196 28.9887C34.5271 28.465 34.1639 27.5083 34.2526 26.9553C34.3441 26.3995 35.2793 25.5101 37.024 26.3409C38.7716 27.1718 39.6468 27.2625 40.8509 26.6774C40.8509 26.6774 42.118 25.6593 42.178 24.1818C42.2381 22.7072 42.4783 22.7072 42.4783 22.7072C42.4783 22.7072 43.5023 19.5592 43.5337 19.1321C43.5623 18.6991 43.3821 18.699 43.3821 18.699C43.3821 18.699 42.8988 15.5569 45.942 15.2467L46.3967 15.3433L46.7571 15.5569C46.7571 15.5569 48.5647 15.5247 48.8364 17.716C49.111 19.9015 48.7478 20.4866 48.7478 20.4866L48.8965 20.8289L48.7478 21.262L48.1157 24.4948C48.1157 24.4948 48.1443 26.9261 46.3367 26.6511L45.9162 26.5867C45.9162 26.5867 44.4375 26.2795 43.834 26.6189C43.2306 26.9583 42.6013 28.5001 43.2306 29.7318C43.2306 29.7318 43.0218 30.8114 44.0171 31.025C45.0096 31.2415 46.5769 31.6101 46.8486 33.0291C46.8486 33.0291 46.6084 33.86 46.5769 34.1701C46.5483 34.4744 45.3728 36.2005 44.8608 34.3222C44.3489 32.4439 44.0486 31.9495 43.8083 31.8559C43.5623 31.7622 42.873 31.9787 42.7529 32.1338C42.6299 32.2859 42.1809 32.9676 41.3057 32.3503C41.3057 32.3503 41.0797 32.1455 40.9739 32.1631C40.9739 32.1631 39.95 32.5639 39.8584 33.2719C39.7698 33.9799 39.255 35.2409 38.3511 34.9981M36.7209 22.2421L36.841 19.7143L37.2328 18.5762L37.413 16.7564C37.9536 15.4925 38.6772 14.4451 40.2732 14.6002C41.872 14.7552 41.6003 16.417 41.5059 17.0314C41.4201 17.6517 41.4773 18.9126 41.3886 19.1906C41.2971 19.4656 41.0254 19.4071 40.9339 20.1122C40.8452 20.8231 40.7222 21.2824 40.5134 22.2976C40.3018 23.3158 39.069 24.5182 39.069 24.5182C38.497 24.764 37.5903 24.6089 36.8381 23.8073C36.0859 23.0057 36.718 22.2391 36.718 22.2391M40.1845 41.3702L40.502 39.6616C40.502 39.6616 40.911 38.3187 40.911 37.3971C40.911 36.4755 41.1827 35.3638 41.4515 34.9015C41.7233 34.4363 41.9034 34.3047 42.2667 35.4574C42.6271 36.6101 42.2667 37.2567 42.1752 38.0876C42.0865 38.9185 41.9921 39.4744 41.9921 39.4744L41.4487 41.0425L41.6746 41.5048L41.36 42.6136L40.5449 43.9097C40.5449 43.9097 40.2274 44.4188 40.2274 43.4006C40.2274 42.3825 40.1816 41.3673 40.1816 41.3673M44.6149 46.6862L44.5691 47.1455L43.9828 48.4416L42.8959 50.2877L41.7233 51.4433L40.8195 51.9524C40.8195 51.9524 39.9128 52.1367 40.4591 51.2122C40.4591 51.2122 40.685 50.6124 40.7737 49.8254C40.8624 49.0443 41.1341 49.644 41.3629 48.1198C41.586 46.5955 42.0407 46.8705 42.1323 46.1303C42.2209 45.393 42.2209 46.1303 42.7644 44.2344L43.0361 43.7722C43.0361 43.7722 42.8559 43.1753 43.7139 42.5258C43.7139 42.5258 43.8512 42.2011 43.8941 41.142C43.9399 40.077 44.5262 38.2748 44.8866 38.2748C45.247 38.2748 45.656 37.9998 46.0192 39.293L45.656 40.7704C45.656 40.7704 45.3385 40.6797 45.7017 42.6663L45.5215 43.1285L45.1154 45.434L44.6177 46.6833M52.343 50.5656C51.5736 53.1519 49.9033 52.7365 49.9033 52.7365C49.9033 52.7365 48.0499 52.8301 46.7371 52.7833C45.43 52.7365 45.0639 50.9811 45.9248 49.5036C46.7829 48.0261 46.7829 47.3796 47.2348 46.0396C47.6838 44.6996 47.0517 45.0683 47.6838 42.482C48.3188 39.8927 48.0928 40.355 48.3188 39.1555C48.5447 37.953 48.7278 37.5844 49.4028 37.678C50.0806 37.7687 50.1721 37.9998 50.441 38.506C50.7127 39.0179 50.3981 42.5288 50.3981 42.5288C50.0806 42.6692 49.6773 43.7312 49.6773 43.7312L49.6316 44.606L49.2712 45.1648C49.2712 45.1648 49.4485 45.671 49.1339 46.2707C48.8193 46.8705 48.2301 48.2573 48.2301 48.2573C48.2301 48.2573 48.4131 48.2573 47.824 49.0443C47.2376 49.8254 47.372 50.2906 47.372 50.2906L47.8669 50.5188C48.0928 50.8465 48.5476 50.8465 48.5476 50.8465C49.4971 50.6651 50.175 49.135 50.175 49.135L50.9444 47.3327L51.5793 44.9308L51.7595 44.3778L51.9855 44.4217L52.0312 44.9746L52.2572 45.5305L52.2114 46.6394L52.1657 49.0882L52.3458 49.3661V50.5656M53.2897 30.2818L53.4956 30.8582V31.458L53.201 31.6891L53.1095 32.3123C53.1095 32.3123 52.8835 33.1227 52.2543 32.3357C51.6194 31.5487 51.1017 31.616 50.9873 31.6452C50.9873 31.6452 50.0577 31.6891 50.2865 32.7745C50.5125 33.8629 50.8986 34.0443 50.0835 34.9922C49.2712 35.9431 48.1414 35.1999 48.436 34.1379C48.7306 33.0759 48.9995 32.2187 48.9308 31.9407C48.865 31.6628 48.9108 31.063 47.4636 30.5803C46.0192 30.0917 45.1383 29.2374 45.1812 28.8687C45.2269 28.4972 45.3614 27.9208 47.1947 28.3363C49.0252 28.7488 50.5382 28.7254 51.668 28.7049C51.668 28.7049 52.0484 28.8892 52.3001 29.0501C52.5461 29.214 52.7977 29.1438 52.9322 29.1672C53.0666 29.1906 53.3183 29.3047 53.2926 30.2789M46.1193 4.3427C46.6313 4.27834 48.2272 3.29238 48.5905 3.0788C48.9537 2.8623 49.7946 2.18647 50.7013 2.3386C51.6051 2.49367 52.5975 2.98811 52.629 4.15838C52.629 4.15838 52.5375 4.9571 52.3887 5.2994C52.2372 5.63878 52.4173 8.40941 52.4173 8.40941L52.3258 12.2304C52.3258 12.2304 52.4488 12.757 52.4774 14.6938L52.812 15.7441L52.6576 16.2356L52.812 16.6364V17.6546L52.6004 18.0232L52.812 18.6727V19.5299L52.506 20.7031L52.5661 21.5662L52.1742 22.4293L52.2343 22.8301L52.1142 23.1081V23.661L51.934 23.9711C51.934 23.9711 51.8453 24.1876 52.1456 24.6792C52.4431 25.1736 52.1456 26.1917 51.3305 26.3702C50.5182 26.5604 49.5543 26.8998 49.8547 24.802V24.1555L50.0348 23.8775C50.0348 23.8775 49.8547 23.2309 50.3037 22.6136C50.3037 22.6136 50.4553 21.3526 50.3352 20.6739C50.3352 20.6739 50.3952 20.0595 50.6383 19.7201C50.6383 19.7201 50.6069 19.41 50.5468 19.0735C50.4839 18.7342 50.4839 17.9033 50.6669 17.6868L50.6984 17.3766C50.6984 17.3766 50.5754 15.9928 50.7871 15.6212C50.9987 15.2497 50.9501 14.3339 51.1789 13.8658C51.3019 13.6201 50.9673 13.0934 50.8157 11.9553L50.7871 11.4609L50.6383 11.3351C50.6383 11.3351 50.8757 9.12035 49.5515 8.96236C49.5515 8.96236 48.5876 9.08524 48.7392 10.472C48.7392 10.472 49.3398 13.0612 48.3159 13.2426C47.292 13.4299 46.0564 13.7371 44.9724 13.0261C43.8884 12.3181 43.5252 10.8728 43.4937 10.314C43.4651 9.76107 43.3736 9.02087 43.3736 9.02087C43.3736 9.02087 42.5012 7.8506 42.198 7.7599C41.8977 7.66628 41.2056 7.60484 40.9939 7.5434C40.7823 7.48196 40.2388 7.35908 40.0014 7.11333C39.7583 6.86464 38.9461 7.17184 38.9461 7.17184C38.9461 7.17184 36.8982 6.83246 36.9268 6.06593C36.9554 5.29647 37.4102 5.13849 39.1262 5.48079C40.8452 5.82017 42.0465 5.54223 42.5012 5.35791C42.9531 5.1736 45.6016 4.40414 46.1164 4.3427M31.6899 2.64873C32.5651 2.40004 32.7138 2.76868 33.978 2.4293L34.3698 2.52292L35.2107 2.49074L36.6293 2.40004L37.1699 2.52292L38.1338 2.37079L39.6725 2.30935L39.8499 2.18354L41.2056 2.15429L41.4172 2.03141C41.4172 2.03141 43.405 1.90853 43.8255 2.03141C44.2488 2.15429 44.2173 2.24791 44.5777 2.1221C44.9409 1.9963 45.9935 2.64288 44.429 3.1695C42.8645 3.6932 44.7922 3.63176 42.5298 3.72538C40.2703 3.819 40.153 3.819 39.9414 4.09402C39.7297 4.37196 38.1338 4.1262 38.0451 3.96821C37.9536 3.81608 35.8142 3.81608 35.7227 4.15546C35.6369 4.49484 34.8818 3.90677 34.4585 5.69437L34.3384 6.12444L34.8189 7.02263C34.8189 7.02263 34.7302 8.1578 35.9944 8.12854C37.2614 8.09636 42.261 8.68149 41.8977 11.4229L42.0493 11.7301L41.8691 12.1367L42.0179 12.4439L41.1741 13.0612L39.847 12.9998L39.6354 12.8447L38.2482 12.8155C38.2482 12.8155 37.679 12.7511 37.496 11.4902C37.3129 10.2263 36.9554 8.84241 36.0802 8.78097C35.2021 8.7166 35.0277 9.82544 35.0277 9.82544L35.777 12.3796L35.8056 12.8126L35.9887 13.3333L36.0201 13.9214C36.0201 13.9214 36.4406 14.3544 35.8085 16.0776C35.1764 17.8009 33.9408 17.9267 33.5204 17.8974C33.5204 17.8974 32.8568 17.9852 32.5851 17.4322C32.5851 17.4322 32.0445 18.1081 31.5326 17.4322C31.5326 17.4322 30.3885 17.2772 30.1454 15.8611C29.9051 14.4422 30.0281 13.9799 29.8765 11.6072C29.7221 9.23738 30.0281 8.00274 30.0281 8.00274C30.0281 8.00274 30.0853 6.27658 29.8165 4.73767C29.5419 3.19583 30.8089 2.88571 31.6813 2.64288M29.4332 35.3023C29.4332 34.2257 29.4046 33.8834 29.2502 33.4825C29.1014 33.0817 29.3102 32.3737 29.3388 32.2508C29.3703 32.125 29.1901 30.4954 29.2788 30.001C29.3674 29.5095 29.8222 28.3977 29.8508 27.166C29.8823 25.9343 29.5791 23.9009 29.5476 23.4036L29.4876 23.2543L29.6706 22.3913C29.6706 22.3913 29.0099 20.8494 30.5458 19.9571C32.0817 19.0648 33.7063 20.0185 33.978 20.2965C34.2497 20.5715 34.55 20.5452 34.55 21.2824C34.55 22.0197 34.3984 21.4697 34.0666 22.64C33.7377 23.8102 33.1943 23.6259 32.5908 24.4568C31.9873 25.2877 30.9662 26.0893 31.8672 27.9384C32.771 29.7903 31.7785 28.5528 32.9512 29.6294C34.1238 30.709 34.9991 31.5106 35.1192 32.4966C35.2422 33.4796 34.3384 34.5621 33.6147 34.527C32.894 34.4978 32.5622 34.0033 32.6823 33.386C32.8025 32.7716 32.9226 31.0162 31.6269 30.9869C30.3313 30.9548 30.3942 32.0958 30.3942 32.0958L30.4829 32.403L30.2998 32.7716C30.2998 32.7716 30.4514 34.4978 30.1511 34.8986L30.091 35.1736C30.091 35.1736 29.9109 37.362 29.7879 39.2725C29.7879 39.2725 29.0957 40.8728 29.007 38.9038C28.9155 36.929 29.4303 36.3761 29.4303 35.2994M11.8404 47.3796L11.7775 48.149C11.7775 48.149 10.9652 49.723 10.5448 50.156C10.5448 50.156 9.45795 51.3526 8.557 51.5896C7.65033 51.8178 3.90068 51.5399 3.90068 51.5399C3.90068 51.5399 2.49635 51.1742 2.49635 49.3251C2.49635 47.4761 2.81382 46.967 3.62611 45.7178C4.44125 44.4714 4.84739 44.3778 5.29929 43.1783C5.7512 41.97 6.06867 41.6511 6.38329 40.077L6.98678 38.5381C6.98678 38.5381 7.0783 37.6458 7.65033 36.0747C8.22236 34.5036 8.70573 32.4732 8.76579 32.2245C8.82871 31.9787 8.61706 31.3936 8.73719 30.4691C8.86017 29.5446 8.97744 29.2374 8.97744 28.9302C8.97744 28.623 8.79725 28.2192 8.97744 27.204C9.15763 26.1859 9.24915 24.9864 11.7775 24.802C11.7775 24.802 15.0924 24.8635 15.0638 27.2976L15.244 27.6663L15.2726 30.1005L15.4528 30.317L15.5129 32.4147L15.3927 32.9062V34.3544L15.244 34.8488L15.3927 35.4954L15.2726 36.5721L14.7893 37.8682L14.7607 38.6961C14.7607 38.6961 14.3088 40.3023 14.0084 40.7646L14.037 41.3175C14.037 41.3175 12.953 44.489 12.5011 45.1063L12.5898 45.8465L11.8404 47.3854M27.5655 24.6411L27.3539 24.9512L27.4139 26.4287L27.2023 26.7681L27.2338 28.5235L27.2624 29.0443V30.3667L27.1422 30.8904L27.2624 31.259L27.025 31.8178L27.2023 32.0314L27.0822 32.3093L27.2023 32.6195V37.5171C27.6256 37.7658 27.2023 38.3187 27.2023 38.3187L27.2624 40.0449L27.2023 40.3842L27.1422 42.5112C26.7819 43.1578 26.9592 43.8014 26.9592 43.8658C26.9592 43.9302 27.4425 44.9132 26.9306 46.2678C26.4186 47.6224 26.6589 48.269 26.8705 49.0735C27.0822 49.8752 26.9306 50.6124 26.9306 50.6124L26.1183 51.4433C25.246 52.3649 22.6547 52.3035 22.6547 52.3035C22.6547 52.3035 16.451 52.1835 15.0924 52.2128C13.7367 52.245 13.5565 51.5662 13.5565 51.5662C13.5565 51.5662 13.3763 50.0536 13.8855 49.4714C14.3974 48.8863 14.7006 47.8389 14.7006 47.8389L15.2726 45.8992L16.205 43.1578C16.2336 41.9261 16.8085 39.1233 16.9887 38.7195C17.1718 38.3187 17.289 36.8734 17.289 36.8734V35.7324C17.289 35.7324 17.0774 34.7172 17.3491 33.9477C17.6208 33.1754 17.8325 30.5276 17.8325 30.5276C17.8325 30.5276 17.5293 27.8477 17.8925 27.1075C18.2529 26.3644 19.457 25.1677 21.359 25.63C23.2553 26.0923 23.2238 27.8799 23.2238 27.8799L23.404 28.2485C23.4641 29.2374 23.4641 30.4662 23.5842 30.8377C23.7072 31.2064 23.6757 33.9507 23.6757 33.9507L23.6157 34.1028C23.5556 34.2579 23.1323 35.4281 23.344 36.1683C23.5556 36.9056 23.404 38.111 23.404 38.111C23.404 38.111 23.7072 39.9571 23.4641 40.3287C23.2238 40.6973 22.832 42.3298 22.832 42.3298L22.5345 43.5001C22.5031 44.5768 22.2028 45.039 22.2028 45.039C22.2028 45.039 20.3665 47.4761 21.6908 48.3041C23.015 49.135 23.9217 48.0876 23.9217 48.0876L24.6711 46.8266C24.6453 44.8839 25.2746 41.1566 25.2746 41.1566L25.3975 40.8787L25.2746 39.369L25.4862 39.0618V38.2309L25.6063 38.1402V35.7383L25.7865 35.4925L25.878 32.7804L25.9381 32.6282L26.0611 32.0724L25.8494 31.8559V30.9635L25.5177 29.7962L25.3975 27.915C25.3975 27.915 24.9742 26.5282 25.0028 25.235C25.0343 23.9419 24.9428 23.3538 24.9428 23.3538C24.2821 21.2912 24.9428 20.6739 24.9428 20.6739C25.3661 19.9659 27.0793 19.843 27.2338 21.1654C27.3825 22.4907 27.2938 23.6318 27.2938 23.6318C27.7143 23.9975 27.5655 24.644 27.5655 24.644M23.7844 3.386L25.2746 2.87693C26.676 1.9056 27.6256 3.386 27.6256 3.386L27.6714 5.14141L27.3968 5.69729L27.4425 7.68384L27.2624 7.96178V9.16423L27.4883 9.44217V10.2731L27.6256 10.7821C27.4883 11.7535 27.0393 13.1841 27.2624 13.6025C27.4883 14.0209 27.5341 15.1765 27.5341 15.1765C27.5341 17.8067 25.1859 17.2538 24.6453 16.8851C24.1019 16.5165 23.7873 15.8231 23.7873 15.8231L23.424 14.4363C23.424 14.4363 23.015 14.5738 22.7919 13.6932C22.5631 12.8184 21.7995 12.0314 21.1188 12.0782C20.4409 12.125 20.4409 12.8184 20.4409 12.8184L21.4334 15.7734V16.9758L21.6593 17.6253L21.748 18.4094L22.1112 19.0121L22.0226 20.4457L22.34 21.0455C22.4144 22.4615 21.5421 22.7687 21.5421 22.7687L20.9672 22.8301L20.5467 22.9501L19.8546 22.7979C19.0108 23.0759 18.1385 23.0759 18.1385 23.0759C16.4796 22.9501 16.5997 20.5481 16.5997 20.5481L16.1192 19.3778L16.0592 17.2976C15.6502 14.8957 14.9294 14.7084 14.9294 14.7084L14.7435 14.1993L13.3449 12.953L10.2702 11.0133L9.90985 10.9665C7.87628 10.2701 7.5159 7.45563 9.27776 6.3468C11.0396 5.23504 12.8472 6.11567 12.8472 6.11567C15.2869 6.02205 15.6502 6.48138 17.003 6.39068C18.3616 6.29999 18.1356 6.80905 20.6669 5.69729C23.1981 4.59138 23.7844 3.386 23.7844 3.386ZM2.32188 40.1473C2.49921 37.9735 2.64794 38.4153 2.47061 36.9319C2.29042 35.4574 2.38194 34.8401 2.40768 34.6236C2.43915 34.4071 2.28756 32.2216 2.55927 31.7008C2.82813 31.1742 2.6794 29.2345 2.6794 29.2345C2.6794 29.2345 3.01117 27.6634 3.01117 27.0782C3.01117 26.4931 2.80238 24.8313 2.71086 23.9945C2.62219 23.1666 2.98257 22.8886 3.04264 22.4878C3.1027 22.087 2.98257 20.5159 2.80238 19.6206C2.62219 18.7283 2.80238 16.4492 2.71086 16.0776C2.62219 15.709 2.59073 15.276 2.71086 14.8137C2.83099 14.3515 2.71086 13.2719 2.71086 13.2719C2.71086 13.2719 3.01117 12.8126 2.77092 12.3503C2.53067 11.888 2.77092 10.0419 2.86245 9.91321C2.95397 9.79326 2.95111 8.98869 2.6508 8.28068C2.35048 7.57559 2.53353 7.23621 2.59359 7.1104C2.6508 6.98752 2.59359 6.55452 2.56499 6.3702C2.53353 6.18881 2.86531 6.06593 2.86531 5.84943C2.86531 5.63293 2.68512 5.48079 2.74518 4.80203C2.8081 4.12327 2.62506 2.45856 5.12482 2.76576L5.96857 2.6458L6.14876 2.52L6.66072 2.48781L6.72365 2.42638C6.72365 2.42638 9.31494 2.39712 9.49513 2.33275C9.67532 2.27424 10.2759 2.27424 10.4876 2.33275C10.6964 2.39712 10.7565 2.24498 11.1197 2.20987C11.4801 2.18062 12.1751 2.24206 12.5069 2.42638L14.9151 2.36786C14.9151 2.36786 15.6988 2.67798 15.8161 2.67798C15.939 2.67798 16.3309 2.52 16.3309 2.52C16.3309 2.52 17.6866 2.52 17.8982 2.42638C18.107 2.33275 19.826 2.15136 20.1578 3.53814C20.1578 3.53814 20.3694 4.12327 19.314 4.45973C18.2586 4.80203 16.82 4.90443 15.0381 4.67623C14.0714 4.55335 12.2351 4.39829 11.2112 4.21397C11.2112 4.21397 8.77151 4.30759 7.95923 4.89273L6.9925 6.00157C6.9925 6.00157 5.3994 7.26254 5.69971 8.24849C5.69971 8.24849 4.73298 9.85177 6.9925 11.7271C6.9925 11.7271 7.80478 12.4088 9.52659 13.0232L10.2473 13.5791L11.6317 14.0735C11.6317 14.0735 13.2276 14.9629 13.4078 16.104L14.0399 17.3386V18.6639L14.2516 18.9711L14.2201 19.9249L14.4346 20.2321L14.4632 20.8172L14.5833 20.9694C14.5833 20.9694 14.7664 22.3883 14.4632 22.757C14.1629 23.1256 12.7786 23.1256 11.2999 22.6634C9.82404 22.1982 9.10043 22.3211 8.5284 20.2292C7.95637 18.1344 7.56453 17.1163 7.32428 15.7002C7.08402 14.2842 6.66072 13.111 5.66825 13.266C4.67578 13.4211 4.67578 14.0999 4.67578 14.6265C4.67578 15.1531 5.69971 17.1835 5.69971 17.1835C5.69971 17.1835 5.81984 18.8453 6.9639 24.0209C6.9639 24.0209 7.38434 25.0068 6.9353 26.8881C6.48339 28.7634 6.44907 27.8096 6.38901 29.29C6.33181 30.7704 6.06009 31.5399 5.96857 31.9085C5.87704 32.2772 6.03149 33.0788 5.81984 33.7254L5.57959 34.1789L5.71687 34.6177C5.71687 34.6177 5.55671 35.6329 5.35363 36.4463C5.15342 37.2538 5.26497 37.3679 5.26497 37.3679C5.26497 37.3679 4.47557 38.7517 4.29252 39.448C4.11233 40.1414 4.17811 40.0039 4.17811 40.0039C4.17811 40.0039 4.26964 40.4164 3.66043 41.3907C3.05122 42.3591 2.14741 42.3152 2.33046 40.1414L2.32188 40.1473Z" stroke="#D10019" stroke-width="0.11" stroke-linecap="round" stroke-linejoin="round"/>
<path d="M63.9492 15.1297V14.7903H64.3325C64.6643 14.7903 64.9217 14.7259 65.099 14.5972C65.2763 14.4684 65.4079 14.2929 65.4937 14.0735C65.5452 13.9272 65.5709 13.4942 65.5709 12.7745V3.74873C65.5709 3.03486 65.5395 2.59016 65.4765 2.40876C65.4136 2.22737 65.2906 2.06938 65.1019 1.9348C64.9131 1.80022 64.6557 1.73293 64.3353 1.73293H63.9521V1.39062H69.0832C70.4532 1.39062 71.5544 1.6159 72.3895 2.06353C73.4077 2.61356 74.1828 3.44153 74.712 4.55037C75.2382 5.65628 75.5042 6.90847 75.5042 8.30988C75.5042 9.27243 75.3726 10.1618 75.1152 10.9752C74.855 11.7914 74.5203 12.4614 74.1113 12.9939C73.6966 13.5264 73.2218 13.9477 72.6812 14.2695C72.1435 14.5943 71.4857 14.8429 70.7077 15.0185C70.3645 15.0945 69.824 15.1326 69.0832 15.1326H63.9521M68.3224 2.16886V12.871C68.3224 13.4328 68.3453 13.778 68.391 13.9067C68.4311 14.0384 68.5112 14.1378 68.617 14.2051C68.7686 14.3046 68.9859 14.3573 69.2748 14.3573C70.2129 14.3573 70.9308 13.9711 71.4256 13.2016C72.1006 12.163 72.4381 10.5539 72.4381 8.37424C72.4381 6.61005 72.2065 5.20572 71.7488 4.1554C71.3827 3.33621 70.9108 2.7774 70.3416 2.47898C69.9326 2.27126 69.2634 2.16593 68.3252 2.17471" fill="#1A171B"/>
<path d="M80.1093 2.20008V7.78229H80.341C81.076 7.78229 81.6137 7.50727 81.9455 6.95724C82.2773 6.41014 82.4861 5.59972 82.5805 4.526H82.8893V11.7524H82.5805C82.509 10.9713 82.3659 10.3276 82.1457 9.83027C81.9226 9.32705 81.6681 8.9906 81.3763 8.81798C81.0846 8.64536 80.6642 8.55759 80.1064 8.55759V12.4019C80.1064 13.1538 80.1322 13.6103 80.1865 13.777C80.2437 13.9467 80.341 14.0842 80.4868 14.1925C80.6356 14.3036 80.8729 14.3563 81.2019 14.3563H81.8883C82.9609 14.3563 83.8218 14.0637 84.471 13.4757C85.1174 12.8876 85.5836 11.9865 85.8668 10.7694H86.1757L85.6608 15.1316H75.7304V14.7922H76.1137C76.4483 14.7922 76.7172 14.7191 76.9202 14.5728C77.069 14.4763 77.1805 14.3095 77.2577 14.0754C77.3178 13.9087 77.3521 13.4786 77.3521 12.7764V3.75069C77.3521 3.12167 77.3378 2.73255 77.3092 2.58919C77.252 2.34929 77.1462 2.15912 76.9946 2.03039C76.7829 1.83436 76.4855 1.74074 76.1108 1.74074H75.7275V1.39844H85.3491V5.46514H85.0402C84.8771 4.47626 84.6455 3.76532 84.3509 3.33817C84.0534 2.90809 83.633 2.59504 83.0924 2.39025C82.7749 2.26737 82.18 2.20593 81.3106 2.20593H80.1007" fill="#1A171B"/>
<path d="M96.7038 1.39355L89.9396 14.3543H92.1247C93.1601 14.3543 93.8809 14.2783 94.2927 14.1203C94.9677 13.8775 95.5455 13.4298 96.0317 12.7803C96.5151 12.1308 96.8526 11.259 97.0385 10.1706H97.3674L96.904 15.1326H86.4102L93.1944 2.1396H91.4841C90.8234 2.1396 90.3858 2.16008 90.177 2.20982C89.7766 2.29759 89.4076 2.47313 89.0558 2.73059C88.7097 2.98805 88.4208 3.33621 88.192 3.76921C87.9604 4.20221 87.7802 4.74931 87.6515 5.40759H87.3397L87.6486 1.39062H96.7038" fill="#1A171B"/>
<path d="M104.659 11.1913H100.646L100.14 12.5459C99.9822 12.9964 99.9022 13.3709 99.9022 13.6693C99.9022 14.0643 100.031 14.3539 100.291 14.5412C100.443 14.6523 100.817 14.7343 101.415 14.7928V15.1322H97.6055V14.7928C98.0145 14.7167 98.352 14.5031 98.618 14.1638C98.8839 13.8215 99.21 13.1193 99.599 12.0543L103.7 1.08594H103.861L107.971 12.3615C108.362 13.447 108.689 14.1287 108.943 14.4124C109.132 14.6319 109.406 14.7547 109.753 14.7899V15.1292H104.235V14.7899H104.464C104.907 14.7899 105.222 14.7109 105.399 14.5587C105.525 14.4505 105.585 14.2896 105.585 14.0789C105.585 13.9531 105.571 13.8273 105.534 13.6927C105.525 13.6284 105.437 13.3709 105.282 12.9203L104.661 11.1913M104.39 10.4452L102.688 5.729L100.923 10.4452H104.39Z" fill="#1A171B"/>
<path d="M114.269 1.39453L119.92 9.83221V4.00132C119.92 3.17042 119.823 2.60869 119.626 2.3132C119.357 1.91823 118.905 1.72513 118.273 1.73976V1.39746H122.028V1.73976C121.542 1.81583 121.219 1.90945 121.059 2.02941C120.893 2.14936 120.764 2.34538 120.673 2.61747C120.584 2.88663 120.538 3.35182 120.538 4.00132V15.4408H120.252L112.507 4.0218V12.7755C112.507 13.5625 112.664 14.0979 112.964 14.3758C113.27 14.6508 113.619 14.7942 114.011 14.7942H114.286V15.1336H110.193V14.7942C110.825 14.7825 111.265 14.6303 111.517 14.3231C111.766 14.0189 111.889 13.5039 111.889 12.7755V3.10898L111.623 2.71109C111.38 2.31905 111.168 2.06451 110.979 1.94163C110.794 1.81876 110.53 1.74854 110.176 1.73684V1.39453H114.263" fill="#1A171B"/>
<path d="M137.207 1.0869L137.31 5.67438H136.975C136.809 4.53044 136.403 3.60299 135.76 2.90668C135.113 2.20744 134.413 1.85636 133.663 1.85636C133.08 1.85636 132.619 2.0436 132.282 2.40931C131.944 2.77795 131.776 3.19925 131.776 3.67614C131.776 3.98041 131.836 4.24957 131.953 4.48655C132.119 4.80545 132.379 5.11557 132.742 5.41985C133.005 5.6422 133.618 6.04009 134.576 6.60767C135.917 7.39176 136.818 8.13781 137.284 8.83997C137.742 9.53921 137.976 10.3379 137.976 11.239C137.976 12.3918 137.599 13.3806 136.849 14.2057C136.092 15.0278 135.142 15.4374 133.986 15.4374C133.623 15.4374 133.28 15.3935 132.957 15.3028C132.636 15.2121 132.23 15.0483 131.741 14.8084C131.467 14.6709 131.244 14.6007 131.069 14.6007C130.923 14.6007 130.769 14.6709 130.603 14.8142C130.44 14.9517 130.305 15.1624 130.205 15.4374H129.896V10.2619H130.205C130.454 11.7101 130.935 12.8189 131.65 13.5825C132.359 14.3461 133.128 14.7265 133.952 14.7265C134.587 14.7265 135.093 14.5187 135.477 14.1033C135.851 13.6937 136.043 13.2139 136.043 12.6726C136.043 12.3479 135.974 12.0378 135.828 11.7276C135.685 11.4234 135.465 11.1366 135.171 10.8645C134.879 10.5954 134.361 10.2385 133.618 9.7996C132.574 9.19106 131.827 8.67028 131.369 8.23728C130.909 7.80428 130.56 7.31862 130.317 6.78907C130.068 6.25659 129.948 5.66853 129.948 5.03365C129.948 3.93067 130.285 3.0003 130.958 2.23085C131.627 1.46139 132.476 1.07812 133.5 1.07812C133.875 1.07812 134.238 1.12786 134.584 1.23611C134.85 1.31803 135.173 1.46432 135.557 1.68082C135.94 1.89732 136.206 2.00557 136.36 2.00557C136.515 2.00557 136.621 1.95291 136.706 1.84466C136.789 1.73933 136.87 1.48187 136.944 1.07812H137.201" fill="#1A171B"/>
<path d="M142.798 8.52247V12.7706C142.798 13.4874 142.832 13.9321 142.898 14.1105C142.961 14.289 143.09 14.4499 143.279 14.5845C143.467 14.7191 143.719 14.7893 144.042 14.7893H144.42V15.1287H138.428V14.7893H138.811C139.146 14.7893 139.414 14.7162 139.618 14.5699C139.766 14.4733 139.878 14.3066 139.961 14.0725C140.024 13.9057 140.052 13.4757 140.052 12.7735V3.74775C140.052 3.03388 140.024 2.58918 139.961 2.40778C139.898 2.22639 139.772 2.0684 139.578 1.93382C139.389 1.79924 139.137 1.73195 138.814 1.73195H138.431V1.38964H144.423V1.73195H144.045C143.71 1.73195 143.444 1.80217 143.241 1.94845C143.093 2.045 142.981 2.20884 142.895 2.44582C142.832 2.61258 142.801 3.04558 142.801 3.74482V7.62136H146.842V3.74482C146.842 3.03096 146.808 2.58625 146.748 2.40486C146.685 2.22347 146.556 2.06548 146.365 1.9309C146.17 1.79632 145.916 1.72902 145.595 1.72902H145.221V1.38672H151.213V1.72902H150.841C150.498 1.72902 150.232 1.79924 150.034 1.94552C149.885 2.04207 149.774 2.20591 149.685 2.44289C149.622 2.60966 149.594 3.04266 149.594 3.7419V12.7647C149.594 13.4815 149.622 13.9262 149.685 14.1047C149.748 14.2831 149.874 14.4441 150.069 14.5786C150.263 14.7132 150.518 14.7834 150.841 14.7834H151.213V15.1228H145.221V14.7834H145.595C145.933 14.7834 146.202 14.7103 146.399 14.564C146.548 14.4675 146.662 14.3007 146.748 14.0666C146.808 13.8999 146.842 13.4698 146.842 12.7676V8.51954H142.801" fill="#1A171B"/>
<path d="M157.994 14.7903V15.1297H152.002V14.7903H152.382C152.717 14.7903 152.986 14.7171 153.192 14.5708C153.34 14.4743 153.452 14.3075 153.532 14.0735C153.592 13.9067 153.624 13.4766 153.624 12.7745V3.74873C153.624 3.03486 153.595 2.59016 153.532 2.40876C153.469 2.22737 153.343 2.06938 153.155 1.9348C152.963 1.80022 152.708 1.73293 152.385 1.73293H152.005V1.39062H157.997V1.73293H157.616C157.285 1.73293 157.016 1.80315 156.813 1.94943C156.667 2.04598 156.552 2.20982 156.47 2.4468C156.404 2.61356 156.375 3.04656 156.375 3.7458V12.7686C156.375 13.4854 156.407 13.9301 156.475 14.1086C156.535 14.2871 156.667 14.448 156.856 14.5825C157.042 14.7171 157.296 14.7873 157.616 14.7873H157.997" fill="#1A171B"/>
<path d="M162.899 8.86674V12.7462C162.899 13.4864 162.936 13.9545 163.019 14.1476C163.093 14.3465 163.231 14.5045 163.425 14.6186C163.62 14.7327 163.989 14.7942 164.521 14.7942V15.1336H158.577V14.7942C159.118 14.7942 159.484 14.7327 159.675 14.6128C159.87 14.4928 160.004 14.3407 160.082 14.1447C160.159 13.9574 160.196 13.4893 160.196 12.7462V3.78482C160.196 3.04169 160.159 2.57066 160.082 2.37756C160.004 2.18154 159.867 2.02648 159.673 1.90945C159.475 1.79535 159.112 1.73684 158.577 1.73684V1.39453H163.917C165.304 1.39453 166.322 1.51156 166.963 1.74269C167.607 1.97089 168.133 2.39512 168.542 3.01244C168.948 3.62683 169.154 4.34948 169.154 5.17745C169.154 6.19266 168.848 7.02941 168.247 7.68183C167.861 8.10606 167.318 8.41911 166.626 8.62976L169.371 13.2845C169.732 13.8872 169.992 14.2646 170.144 14.4168C170.375 14.6216 170.644 14.7444 170.953 14.762V15.1365H167.344L163.654 8.87259H162.899M162.899 2.16984V8.09143H163.382C164.166 8.09143 164.755 8.00366 165.147 7.83397C165.533 7.66721 165.842 7.36001 166.065 6.91823C166.288 6.47645 166.397 5.90302 166.397 5.1833C166.397 4.15638 166.197 3.3957 165.788 2.90419C165.376 2.41267 164.718 2.16691 163.808 2.16691H162.902" fill="#1A171B"/>
<path d="M178.159 11.1913H174.146L173.637 12.5459C173.479 12.9964 173.402 13.3709 173.402 13.6693C173.402 14.0643 173.531 14.3539 173.791 14.5412C173.946 14.6523 174.315 14.7343 174.918 14.7928V15.1322H171.105V14.7928C171.517 14.7167 171.858 14.5031 172.121 14.1638C172.384 13.8215 172.713 13.1193 173.102 12.0543L177.2 1.08594H177.361L181.468 12.3615C181.865 13.447 182.189 14.1287 182.443 14.4124C182.632 14.6319 182.904 14.7547 183.253 14.7899V15.1292H177.735V14.7899H177.964C178.407 14.7899 178.722 14.7109 178.902 14.5587C179.025 14.4505 179.088 14.2896 179.088 14.0789C179.088 13.9531 179.071 13.8273 179.04 13.6927C179.028 13.6284 178.942 13.3709 178.782 12.9203L178.161 11.1913M177.89 10.4452L176.188 5.729L174.423 10.4452H177.89Z" fill="#1A171B"/>
<path d="M72.9794 32.4689H76.3486V32.8433C75.9711 32.9077 75.6765 33.0452 75.4591 33.25C75.2446 33.4577 74.9643 33.9375 74.6211 34.6982C74.2779 35.4531 73.7945 36.2986 73.1682 37.2289C73.723 37.8199 74.1749 38.2325 74.521 38.4636C74.7584 38.6216 74.9958 38.6976 75.2303 38.6976C75.6307 38.6976 75.9968 38.3875 76.3229 37.7497L76.6318 37.9633C76.1885 39.0165 75.7137 39.7684 75.2103 40.2131C74.8328 40.5467 74.3952 40.7134 73.9032 40.7134C73.4799 40.7134 73.0766 40.6081 72.6962 40.3887C72.3101 40.1693 71.8468 39.7567 71.3091 39.157C70.6283 39.7041 69.9934 40.099 69.4013 40.3477C68.8064 40.5906 68.1858 40.7134 67.5422 40.7134C66.5154 40.7134 65.7003 40.377 65.0911 39.7041C64.4876 39.0312 64.1787 38.2412 64.1787 37.3372C64.1787 36.3542 64.4704 35.5028 65.0539 34.7801C65.6374 34.0546 66.4811 33.4285 67.5851 32.8989C67.4479 32.4747 67.342 32.0593 67.2705 31.6555C67.2019 31.2488 67.1647 30.8568 67.1647 30.4794C67.1647 29.4349 67.4707 28.5631 68.0828 27.8697C68.692 27.1734 69.47 26.8281 70.4167 26.8281C71.1832 26.8281 71.7896 27.0563 72.2329 27.5186C72.6791 27.9779 72.9022 28.5162 72.9022 29.1306C72.9022 29.8679 72.6733 30.5028 72.2186 31.0294C71.7638 31.5531 71.0402 32.0358 70.0449 32.4689C70.6598 33.7737 71.5522 35.178 72.7277 36.6877C73.5114 35.6052 73.9089 34.6719 73.9089 33.8966C73.9089 33.6186 73.8288 33.3817 73.6715 33.1915C73.5114 32.9955 73.2854 32.8784 72.9794 32.8404V32.4659M67.814 33.525C67.3735 33.7474 67.0646 33.9814 66.8815 34.2301C66.6241 34.5988 66.4954 35.0025 66.4954 35.456C66.4954 36.0704 66.6442 36.6818 66.9388 37.2875C67.2362 37.8931 67.5937 38.3641 68.0113 38.6947C68.4289 39.0282 68.8436 39.195 69.2555 39.195C69.4643 39.195 69.6959 39.1423 69.9533 39.0312C70.2108 38.9258 70.4911 38.7649 70.7971 38.5484C69.4986 36.9364 68.5061 35.2629 67.814 33.5221M69.7674 31.8779C70.3366 31.6292 70.717 31.3542 70.9115 31.0645C71.106 30.772 71.2004 30.4238 71.2004 30.0113C71.2004 29.2799 71.0402 28.6625 70.7199 28.1622C70.5082 27.8287 70.2479 27.6619 69.939 27.6619C69.6816 27.6619 69.4671 27.7819 69.2841 28.0218C69.1039 28.2646 69.0152 28.5923 69.0152 29.0019C69.0152 29.3208 69.0581 29.6631 69.1439 30.0288C69.2269 30.3975 69.4357 31.0119 69.7646 31.8779" fill="#1A171B"/>
<path d="M90.7777 36.6243H86.928L86.4446 37.9292C86.293 38.368 86.2158 38.7337 86.2158 39.0204C86.2158 39.4008 86.3416 39.6817 86.5933 39.8601C86.7335 39.9684 87.091 40.0444 87.6687 40.1V40.4453H84.0049V40.1C84.3996 40.0298 84.7256 39.8279 84.9802 39.4973C85.2347 39.1697 85.5494 38.4909 85.924 37.4581L89.851 26.832H90.0026L93.9525 37.7565C94.3329 38.8098 94.6475 39.471 94.8906 39.7402C95.0651 39.9479 95.3253 40.0678 95.6628 40.1V40.4453H90.3573V40.1H90.5775C91.0037 40.1 91.3097 40.0269 91.4813 39.8806C91.6014 39.7753 91.6615 39.6173 91.6615 39.4183C91.6615 39.2984 91.6443 39.1726 91.6129 39.0497C91.6014 38.9883 91.5214 38.7367 91.3669 38.2949L90.772 36.6302M90.5232 35.9134L88.8843 31.3317L87.1911 35.9134H90.5232Z" fill="#1A171B"/>
<path d="M103.528 26.8271L103.602 31.2596H103.268C103.107 30.1536 102.721 29.2584 102.101 28.5826C101.48 27.9096 100.811 27.5703 100.087 27.5703C99.5266 27.5703 99.089 27.7458 98.7629 28.1027C98.4397 28.4597 98.2796 28.8722 98.2796 29.3345C98.2796 29.627 98.3368 29.8874 98.4512 30.1185C98.6056 30.4257 98.8545 30.73 99.2063 31.0314C99.4608 31.2479 100.056 31.6282 100.982 32.1782C102.275 32.9418 103.145 33.6645 103.594 34.3462C104.031 35.0249 104.252 35.8032 104.252 36.6809C104.252 37.7897 103.891 38.7464 103.165 39.548C102.441 40.3467 101.526 40.7505 100.413 40.7505C100.064 40.7505 99.7297 40.7037 99.4179 40.6218C99.1062 40.5369 98.7172 40.376 98.251 40.139C97.9907 40.0103 97.7705 39.943 97.6017 39.943C97.4616 39.943 97.31 40.0103 97.1527 40.1419C96.9925 40.2736 96.8638 40.4784 96.7666 40.7505H96.4834V35.7242H96.7666C97.0068 37.1343 97.4702 38.2139 98.1566 38.9541C98.843 39.6943 99.5867 40.0659 100.387 40.0659C100.997 40.0659 101.483 39.8699 101.852 39.4661C102.215 39.0682 102.398 38.606 102.398 38.0764C102.398 37.7604 102.324 37.4591 102.189 37.1607C102.049 36.8652 101.838 36.5872 101.56 36.3239C101.277 36.0548 100.776 35.7125 100.059 35.2882C99.049 34.6972 98.3282 34.1852 97.8906 33.7698C97.453 33.3514 97.1212 32.8804 96.8867 32.3625C96.6493 31.8447 96.5349 31.2771 96.5349 30.6539C96.5349 29.5919 96.8581 28.6908 97.5073 27.9448C98.1566 27.1958 98.9717 26.8242 99.9528 26.8242C100.316 26.8242 100.665 26.874 101.002 26.9793C101.251 27.0553 101.566 27.1987 101.932 27.4123C102.301 27.62 102.558 27.7253 102.704 27.7253C102.85 27.7253 102.962 27.6756 103.045 27.5703C103.125 27.4649 103.202 27.2192 103.271 26.8271H103.531" fill="#1A171B"/>
<path d="M112.371 26.8271L112.446 31.2596H112.111C111.951 30.1536 111.559 29.2584 110.944 28.5826C110.324 27.9096 109.654 27.5703 108.931 27.5703C108.373 27.5703 107.927 27.7458 107.604 28.1027C107.28 28.4597 107.117 28.8722 107.117 29.3345C107.117 29.627 107.175 29.8874 107.292 30.1185C107.446 30.4257 107.692 30.73 108.044 31.0314C108.299 31.2479 108.891 31.6282 109.82 32.1782C111.113 32.9418 111.982 33.6645 112.429 34.3462C112.863 35.0249 113.087 35.8032 113.087 36.6809C113.087 37.7897 112.726 38.7464 112.003 39.548C111.282 40.3467 110.361 40.7505 109.251 40.7505C108.902 40.7505 108.567 40.7037 108.256 40.6218C107.944 40.5369 107.558 40.376 107.089 40.139C106.829 40.0103 106.614 39.943 106.442 39.943C106.299 39.943 106.145 40.0103 105.988 40.1419C105.827 40.2736 105.702 40.4784 105.604 40.7505H105.318V35.7242H105.604C105.845 37.1343 106.308 38.2139 106.994 38.9541C107.684 39.6943 108.427 40.0659 109.225 40.0659C109.835 40.0659 110.321 39.8699 110.69 39.4661C111.05 39.0682 111.236 38.606 111.236 38.0764C111.236 37.7604 111.17 37.4591 111.03 37.1607C110.89 36.8652 110.681 36.5872 110.398 36.3239C110.118 36.0548 109.617 35.7125 108.894 35.2882C107.887 34.6972 107.163 34.1852 106.728 33.7698C106.294 33.3514 105.959 32.8804 105.724 32.3625C105.487 31.8447 105.367 31.2771 105.367 30.6539C105.367 29.5919 105.693 28.6908 106.342 27.9448C106.992 27.1958 107.807 26.8242 108.791 26.8242C109.151 26.8242 109.497 26.874 109.84 26.9793C110.089 27.0553 110.398 27.1987 110.77 27.4123C111.136 27.62 111.393 27.7253 111.545 27.7253C111.685 27.7253 111.794 27.6756 111.88 27.5703C111.96 27.4649 112.037 27.2192 112.108 26.8271H112.366" fill="#1A171B"/>
<path d="M119.751 26.9486C121.502 26.8667 122.923 27.484 124.022 28.8035C125.117 30.1171 125.66 31.7614 125.66 33.7391C125.66 35.4272 125.257 36.9135 124.442 38.1949C123.358 39.8948 121.831 40.7461 119.857 40.7461C117.884 40.7461 116.348 39.9357 115.27 38.3149C114.412 37.0335 113.985 35.5092 113.985 33.7538C113.985 31.776 114.54 30.1288 115.65 28.8093C116.763 27.4928 118.13 26.8696 119.751 26.9515M119.849 27.5659C118.848 27.5659 118.084 28.1891 117.561 29.4296C117.132 30.4507 116.92 31.9164 116.92 33.8269C116.92 36.0943 117.249 37.7736 117.912 38.8591C118.37 39.6198 119.013 39.9942 119.831 39.9942C120.392 39.9942 120.861 39.8304 121.23 39.5027C121.705 39.0873 122.074 38.4173 122.337 37.5016C122.6 36.58 122.735 35.3804 122.735 33.9059C122.735 32.1417 122.597 30.8251 122.328 29.9533C122.057 29.0814 121.711 28.4641 121.299 28.1042C120.881 27.7415 120.398 27.563 119.852 27.563" fill="#1A171B"/>
<path d="M136.961 26.8281V31.4478H136.675C136.435 30.2366 135.991 29.3091 135.336 28.6625C134.684 28.0189 133.943 27.6941 133.12 27.6941C132.43 27.6941 131.798 27.934 131.223 28.4138C130.649 28.8907 130.225 29.5168 129.959 30.2921C129.619 31.281 129.444 32.3811 129.444 33.5923C129.444 34.8035 129.567 35.8685 129.819 36.8486C130.068 37.8258 130.457 38.5689 130.989 39.0721C131.515 39.5753 132.204 39.8211 133.051 39.8211C133.743 39.8211 134.381 39.6368 134.953 39.2711C135.528 38.9054 136.137 38.2734 136.778 37.3782V38.525C136.16 39.3062 135.514 39.8738 134.847 40.2278C134.178 40.573 133.397 40.7544 132.505 40.7544C131.329 40.7544 130.288 40.4677 129.376 39.8972C128.463 39.3267 127.757 38.5104 127.262 37.4454C126.764 36.3776 126.516 35.2395 126.516 34.037C126.516 32.7702 126.793 31.5619 127.342 30.4238C127.897 29.2886 128.644 28.4051 129.579 27.776C130.52 27.147 131.509 26.8311 132.559 26.8311C133.34 26.8311 134.158 27.0329 135.019 27.4396C135.522 27.6736 135.84 27.7936 135.974 27.7936C136.149 27.7936 136.3 27.7175 136.429 27.5625C136.552 27.4074 136.638 27.1675 136.678 26.834H136.964" fill="#1A171B"/>
<path d="M143.571 40.0975V40.4427H137.836V40.0975H138.199C138.514 40.0975 138.771 40.0331 138.969 39.8898C139.109 39.7991 139.217 39.6411 139.292 39.4188C139.352 39.2637 139.38 38.8453 139.38 38.1783V29.4012C139.38 28.7195 139.352 28.2894 139.292 28.1197C139.232 27.9471 139.114 27.8008 138.931 27.6692C138.751 27.5434 138.508 27.479 138.202 27.479H137.839V27.1367H143.573V27.479H143.213C142.901 27.479 142.644 27.5492 142.452 27.6838C142.315 27.7745 142.203 27.9354 142.123 28.1578C142.06 28.3158 142.035 28.7312 142.035 29.4012V38.1783C142.035 38.8629 142.063 39.2871 142.129 39.4626C142.192 39.6323 142.309 39.7815 142.489 39.9103C142.67 40.0361 142.91 40.1004 143.213 40.1004H143.573" fill="#1A171B"/>
<path d="M151.081 36.6243H147.232L146.748 37.9292C146.597 38.368 146.519 38.7337 146.519 39.0204C146.519 39.4008 146.645 39.6817 146.897 39.8601C147.037 39.9684 147.395 40.0444 147.97 40.1V40.4453H144.309V40.1C144.706 40.0298 145.029 39.8279 145.284 39.4973C145.538 39.1697 145.856 38.4909 146.228 37.4581L150.155 26.832H150.309L154.259 37.7565C154.642 38.8098 154.954 39.471 155.194 39.7402C155.372 39.9479 155.632 40.0678 155.967 40.1V40.4453H150.664V40.1H150.881C151.313 40.1 151.613 40.0269 151.788 39.8806C151.905 39.7753 151.965 39.6173 151.965 39.4183C151.965 39.2984 151.951 39.1726 151.919 39.0497C151.905 38.9883 151.828 38.7367 151.673 38.2949L151.079 36.6302M150.827 35.9134L149.185 31.3317L147.495 35.9134H150.83" fill="#1A171B"/>
<path d="M164.635 27.1367V30.7324H164.352C164.18 29.9073 163.986 29.3134 163.774 28.9536C163.563 28.5908 163.274 28.307 162.908 28.0876C162.705 27.9705 162.344 27.912 161.832 27.912H161.009V38.1753C161.009 38.8599 161.037 39.2842 161.1 39.4597C161.16 39.6294 161.283 39.7786 161.46 39.9073C161.638 40.0331 161.881 40.0975 162.193 40.0975H162.553V40.4427H156.816V40.0975H157.17C157.488 40.0975 157.742 40.0331 157.94 39.8898C158.077 39.7991 158.188 39.6411 158.269 39.4188C158.329 39.2637 158.357 38.8453 158.357 38.1783V27.915H157.536C156.793 27.915 156.252 28.1022 155.915 28.4855C155.437 29.0092 155.14 29.7611 155.017 30.7353H154.733V27.1396H164.635" fill="#1A171B"/>
<path d="M169.561 27.911V33.306H169.784C170.485 33.306 170.997 33.0456 171.314 32.5161C171.637 31.9865 171.838 31.2054 171.929 30.1785H172.209V37.1533H171.929C171.861 36.3897 171.72 35.7694 171.512 35.2809C171.3 34.7981 171.054 34.4704 170.779 34.3037C170.499 34.134 170.093 34.055 169.561 34.055V37.794C169.561 38.5284 169.587 38.9731 169.635 39.1398C169.684 39.3037 169.784 39.4324 169.924 39.5377C170.064 39.6401 170.29 39.6928 170.608 39.6928H171.26C172.29 39.6928 173.116 39.409 173.731 38.8356C174.352 38.2621 174.798 37.3873 175.067 36.2112H175.373L174.875 40.4418H165.365V40.0965H165.728C166.046 40.0965 166.3 40.0322 166.495 39.8888C166.632 39.7981 166.744 39.6401 166.815 39.4178C166.878 39.2627 166.907 38.8443 166.907 38.1773V29.4002C166.907 28.7946 166.895 28.426 166.864 28.2855C166.81 28.0573 166.712 27.8789 166.566 27.7501C166.358 27.5687 166.083 27.4751 165.726 27.4751H165.362V27.1328H174.569V31.0386H174.286C174.129 30.0907 173.908 29.4119 173.622 28.9935C173.339 28.5781 172.936 28.2738 172.407 28.0807C172.101 27.9666 171.526 27.9052 170.685 27.9052H169.555" fill="#1A171B"/>
<path d="M63.7861 53.9258H184.999" stroke="#1A171B" stroke-width="0.48"/>
</g>
<defs>
<clipPath id="clip0_3654_2367">
<rect width="185" height="55" fill="white"/>
</clipPath>
</defs>
</svg>
