<svg width="335" height="35" viewBox="0 0 335 35" fill="none" xmlns="http://www.w3.org/2000/svg">
<g clip-path="url(#clip0_3654_2451)">
<path d="M44.0765 16.584V16.1845H44.5305C44.9225 16.1845 45.2308 16.1072 45.441 15.9553C45.65 15.8059 45.8073 15.5963 45.9079 15.337C45.9698 15.1641 45.9995 14.6558 45.9995 13.8017V3.16117C45.9995 2.31889 45.9608 1.79623 45.8873 1.58402C45.8138 1.36919 45.6654 1.18449 45.441 1.02468C45.2153 0.867486 44.9109 0.787581 44.5305 0.787581H44.0765V0.382812H50.1718C51.7981 0.382812 53.1059 0.647418 54.0964 1.17532C55.3062 1.82635 56.227 2.80094 56.8526 4.10825C57.4781 5.41163 57.7915 6.88792 57.7915 8.53843C57.7915 9.67414 57.6367 10.7234 57.3311 11.6836C57.0228 12.6477 56.6243 13.4363 56.1368 14.0637C55.6454 14.6912 55.0818 15.1916 54.4408 15.5701C53.8036 15.9513 53.0182 16.2447 52.0973 16.453C51.6885 16.5408 51.0449 16.584 50.1705 16.584H44.0752M49.2702 1.29845V13.9222C49.2702 14.5838 49.2947 14.9885 49.3502 15.1418C49.4005 15.2977 49.4934 15.4143 49.6198 15.4942C49.799 15.6094 50.0596 15.671 50.4 15.671C51.5169 15.671 52.3669 15.2165 52.955 14.3061C53.7585 13.0813 54.1583 11.1832 54.1583 8.61179C54.1583 6.53162 53.8849 4.87587 53.3393 3.63537C52.9021 2.66995 52.3437 2.01105 51.6653 1.65868C51.1816 1.41373 50.3846 1.29059 49.2702 1.29976" fill="#1A171B"/>
<path d="M63.2693 1.33251V7.91753H63.544C64.4171 7.91753 65.0555 7.59266 65.4489 6.94425C65.8461 6.29583 66.0912 5.3409 66.2034 4.07812H66.5697V12.5992H66.2034C66.1196 11.677 65.948 10.9186 65.6888 10.3317C65.4244 9.73964 65.1226 9.34273 64.777 9.13969C64.43 8.93665 63.9309 8.82924 63.2705 8.82924V13.3668C63.2705 14.2537 63.3015 14.7933 63.366 14.9885C63.4318 15.1889 63.5491 15.3488 63.7232 15.4771C63.8974 15.6068 64.1798 15.6697 64.5732 15.6697H65.3857C66.66 15.6697 67.6827 15.3239 68.454 14.6322C69.2214 13.9367 69.7747 12.873 70.1126 11.4399H70.4801L69.8675 16.584H58.0742V16.1845H58.5282C58.9242 16.1845 59.244 16.098 59.4878 15.9251C59.6619 15.8125 59.7973 15.6134 59.8902 15.337C59.9624 15.1379 60.0024 14.6322 60.0024 13.8017V3.16117C60.0024 2.41975 59.9856 1.96128 59.9508 1.79099C59.8824 1.50673 59.7573 1.28404 59.5768 1.13209C59.3227 0.900235 58.9719 0.787581 58.5282 0.787581H58.0742V0.382812H69.5012V5.17715H69.1337C68.9389 4.01001 68.6655 3.17427 68.3147 2.66864C67.9626 2.16301 67.4635 1.79099 66.8199 1.54996C66.4446 1.40456 65.7378 1.33251 64.7034 1.33251H63.268" fill="#1A171B"/>
<path d="M317.183 1.33251V7.91753H317.457C318.332 7.91753 318.969 7.59266 319.362 6.94425C319.758 6.29583 320.006 5.3409 320.117 4.07812H320.483V12.5992H320.117C320.032 11.677 319.861 10.9186 319.601 10.3317C319.338 9.73964 319.035 9.34273 318.69 9.13969C318.342 8.93665 317.843 8.82924 317.184 8.82924V13.3668C317.184 14.2537 317.215 14.7933 317.279 14.9885C317.345 15.1889 317.464 15.3488 317.638 15.4771C317.811 15.6068 318.095 15.6697 318.488 15.6697H319.3C320.576 15.6697 321.597 15.3239 322.369 14.6322C323.136 13.9367 323.689 12.873 324.027 11.4399H324.396L323.784 16.584H311.99V16.1845H312.444C312.84 16.1845 313.16 16.098 313.402 15.9251C313.578 15.8125 313.711 15.6134 313.806 15.337C313.878 15.1379 313.917 14.6322 313.917 13.8017V3.16117C313.917 2.41975 313.9 1.96128 313.866 1.79099C313.798 1.50673 313.672 1.28404 313.493 1.13209C313.237 0.900235 312.888 0.787581 312.444 0.787581H311.99V0.382812H323.419V5.17715H323.05C322.855 4.01001 322.581 3.17427 322.232 2.66864C321.88 2.16301 321.379 1.79099 320.737 1.54996C320.362 1.40456 319.655 1.33251 318.621 1.33251H317.185" fill="#1A171B"/>
<path d="M82.9783 0.382812L74.9446 15.6697H77.5421C78.7699 15.6697 79.6302 15.5819 80.1177 15.3946C80.9186 15.1064 81.6073 14.5798 82.1851 13.8135C82.7604 13.0459 83.1615 12.0176 83.3833 10.7339H83.7728L83.2208 16.5853H70.7568L78.8138 1.26439H76.7837C75.997 1.26439 75.4773 1.29059 75.2283 1.34692C74.755 1.45302 74.3152 1.65737 73.8986 1.96128C73.4846 2.26649 73.1428 2.6765 72.8707 3.18737C72.596 3.69955 72.3832 4.34666 72.2284 5.11952H71.857L72.2233 0.384122H82.9783" fill="#1A171B"/>
<path d="M92.4269 11.9386H87.6562L87.0577 13.5341C86.8694 14.0646 86.7766 14.5073 86.7766 14.8597C86.7766 15.3234 86.9275 15.6679 87.237 15.888C87.4176 16.019 87.8625 16.1173 88.5719 16.1854V16.5849H84.0449V16.1854C84.5337 16.0937 84.9323 15.8448 85.2482 15.4426C85.5629 15.0405 85.9499 14.2126 86.4129 12.9564L91.2842 0.0195312H91.4751L96.3541 13.3179C96.8236 14.599 97.2092 15.406 97.5084 15.74C97.7341 15.9967 98.0579 16.1395 98.4731 16.1841V16.5836H91.9161V16.1841H92.1896C92.7184 16.1841 93.0911 16.0897 93.3052 15.9103C93.4535 15.7819 93.5232 15.592 93.5232 15.3431C93.5232 15.1977 93.5051 15.047 93.4625 14.8872C93.4522 14.8165 93.3478 14.5087 93.1607 13.9768L92.4243 11.9373M92.1057 11.0596L90.0834 5.49635L87.9876 11.0596H92.1057Z" fill="#1A171B"/>
<path d="M103.842 0.380216L110.555 10.3291V3.45462C110.555 2.47348 110.438 1.81066 110.206 1.46484C109.887 0.998503 109.348 0.769265 108.599 0.784984V0.380216H113.061V0.784984C112.487 0.874059 112.105 0.986713 111.911 1.1295C111.713 1.27228 111.563 1.50152 111.452 1.82114C111.345 2.13945 111.289 2.68831 111.289 3.45462V16.9469H110.951L101.753 3.47951V13.7991C101.753 14.7279 101.937 15.3593 102.297 15.6867C102.659 16.0116 103.073 16.1819 103.54 16.1819H103.867V16.5814H99.0057V16.1819C99.7589 16.1701 100.285 15.9893 100.578 15.6278C100.873 15.2663 101.022 14.6624 101.022 13.7991V2.40406L100.703 1.9351C100.417 1.47401 100.163 1.17272 99.9394 1.02732C99.7189 0.883229 99.4042 0.802013 98.9863 0.783674V0.378906H103.845" fill="#1A171B"/>
<path d="M130.188 0.0182449L130.309 5.43218H129.913C129.716 4.08034 129.238 2.98916 128.47 2.16653C127.703 1.34389 126.871 0.927336 125.982 0.927336C125.291 0.927336 124.745 1.14871 124.343 1.58099C123.942 2.0172 123.741 2.51235 123.741 3.07169C123.741 3.4293 123.812 3.75154 123.954 4.02794C124.147 4.4052 124.458 4.77067 124.889 5.12959C125.201 5.39157 125.928 5.86315 127.068 6.5299C128.658 7.4534 129.733 8.33368 130.285 9.16286C130.83 9.98812 131.106 10.93 131.106 11.991C131.106 13.3507 130.66 14.5152 129.77 15.4885C128.876 16.4592 127.747 16.9438 126.372 16.9438C125.94 16.9438 125.535 16.8928 125.152 16.784C124.769 16.6792 124.286 16.4867 123.706 16.2011C123.382 16.0387 123.116 15.9575 122.908 15.9575C122.736 15.9575 122.548 16.0374 122.356 16.2064C122.158 16.3688 122.001 16.6164 121.881 16.9451H121.515V10.8409H121.881C122.175 12.549 122.748 13.8576 123.6 14.7549C124.442 15.6536 125.355 16.1055 126.334 16.1055C127.09 16.1055 127.692 15.8618 128.143 15.3719C128.59 14.8899 128.816 14.3253 128.816 13.686C128.816 13.3022 128.732 12.9355 128.56 12.5713C128.389 12.215 128.128 11.8757 127.781 11.5548C127.435 11.2391 126.818 10.8173 125.935 10.2999C124.695 9.58335 123.807 8.96768 123.264 8.45681C122.718 7.94463 122.3 7.37481 122.011 6.74997C121.721 6.12251 121.575 5.42956 121.575 4.68159C121.575 3.38345 121.975 2.28442 122.775 1.37664C123.572 0.47017 124.58 0.0169349 125.794 0.0169349C126.238 0.0169349 126.668 0.0785016 127.085 0.204255C127.402 0.30119 127.785 0.4741 128.238 0.729536C128.692 0.984973 129.011 1.11204 129.191 1.11204C129.372 1.11204 129.503 1.05178 129.605 0.922096C129.703 0.797653 129.8 0.496369 129.886 0.015625H130.192" fill="#1A171B"/>
<path d="M236.184 0.0182449L236.305 5.43218H235.909C235.711 4.08034 235.232 2.98916 234.467 2.16653C233.698 1.34389 232.868 0.927336 231.978 0.927336C231.286 0.927336 230.741 1.14871 230.34 1.58099C229.939 2.0172 229.736 2.51235 229.736 3.07169C229.736 3.4293 229.807 3.75154 229.948 4.02794C230.142 4.4052 230.453 4.77067 230.884 5.12959C231.196 5.39157 231.922 5.86315 233.064 6.5299C234.654 7.4534 235.728 8.33368 236.279 9.16286C236.825 9.98812 237.101 10.93 237.101 11.991C237.101 13.3507 236.654 14.5152 235.764 15.4885C234.869 16.4592 233.741 16.9438 232.366 16.9438C231.934 16.9438 231.529 16.8928 231.146 16.784C230.763 16.6792 230.282 16.4867 229.7 16.2011C229.376 16.0387 229.111 15.9575 228.903 15.9575C228.731 15.9575 228.543 16.0374 228.351 16.2064C228.154 16.3688 227.996 16.6164 227.876 16.9451H227.509V10.8409H227.876C228.169 12.549 228.742 13.8576 229.594 14.7549C230.436 15.6536 231.351 16.1055 232.33 16.1055C233.084 16.1055 233.687 15.8618 234.138 15.3719C234.584 14.8899 234.81 14.3253 234.81 13.686C234.81 13.3022 234.727 12.9355 234.556 12.5713C234.382 12.215 234.123 11.8757 233.776 11.5548C233.427 11.2391 232.811 10.8173 231.929 10.2999C230.687 9.58335 229.801 8.96768 229.256 8.45681C228.711 7.94463 228.293 7.37481 228.003 6.74997C227.713 6.12251 227.567 5.42956 227.567 4.68159C227.567 3.38345 227.968 2.28442 228.766 1.37664C229.563 0.47017 230.571 0.0169349 231.786 0.0169349C232.227 0.0169349 232.66 0.0785016 233.077 0.204255C233.393 0.30119 233.776 0.4741 234.228 0.729536C234.682 0.984973 235.001 1.11204 235.181 1.11204C235.362 1.11204 235.494 1.05178 235.595 0.922096C235.693 0.797653 235.789 0.496369 235.877 0.015625H236.182" fill="#1A171B"/>
<path d="M247.027 0.0182449L247.149 5.43218H246.754C246.556 4.08034 246.076 2.98916 245.31 2.16653C244.543 1.34389 243.712 0.927336 242.821 0.927336C242.129 0.927336 241.583 1.14871 241.181 1.58099C240.782 2.0172 240.58 2.51235 240.58 3.07169C240.58 3.4293 240.651 3.75154 240.792 4.02794C240.985 4.4052 241.297 4.77067 241.727 5.12959C242.041 5.39157 242.767 5.86315 243.907 6.5299C245.497 7.4534 246.573 8.33368 247.124 9.16286C247.669 9.98812 247.944 10.93 247.944 11.991C247.944 13.3507 247.499 14.5152 246.607 15.4885C245.714 16.4592 244.584 16.9438 243.209 16.9438C242.777 16.9438 242.372 16.8928 241.989 16.784C241.606 16.6792 241.125 16.4867 240.545 16.2011C240.22 16.0387 239.955 15.9575 239.746 15.9575C239.575 15.9575 239.387 16.0374 239.194 16.2064C238.997 16.3688 238.838 16.6164 238.719 16.9451H238.354V10.8409H238.719C239.013 12.549 239.587 13.8576 240.438 14.7549C241.28 15.6536 242.194 16.1055 243.173 16.1055C243.929 16.1055 244.531 15.8618 244.981 15.3719C245.429 14.8899 245.655 14.3253 245.655 13.686C245.655 13.3022 245.571 12.9355 245.398 12.5713C245.226 12.215 244.969 11.8757 244.619 11.5548C244.272 11.2391 243.656 10.8173 242.771 10.2999C241.531 9.58335 240.644 8.96768 240.1 8.45681C239.554 7.94463 239.135 7.37481 238.847 6.74997C238.557 6.12251 238.412 5.42956 238.412 4.68159C238.412 3.38345 238.81 2.28442 239.61 1.37664C240.407 0.47017 241.414 0.0169349 242.629 0.0169349C243.071 0.0169349 243.503 0.0785016 243.92 0.204255C244.236 0.30119 244.619 0.4741 245.072 0.729536C245.526 0.984973 245.844 1.11204 246.025 1.11204C246.205 1.11204 246.338 1.05178 246.44 0.922096C246.538 0.797653 246.635 0.496369 246.72 0.015625H247.026" fill="#1A171B"/>
<path d="M334.082 0.0182449L334.204 5.43218H333.808C333.612 4.08034 333.131 2.98916 332.365 2.16653C331.598 1.34389 330.768 0.927336 329.876 0.927336C329.187 0.927336 328.639 1.14871 328.238 1.58099C327.837 2.0172 327.634 2.51235 327.634 3.07169C327.634 3.4293 327.705 3.75154 327.847 4.02794C328.041 4.4052 328.351 4.77067 328.782 5.12959C329.096 5.39157 329.82 5.86315 330.961 6.5299C332.552 7.4534 333.626 8.33368 334.178 9.16286C334.724 9.98812 334.999 10.93 334.999 11.991C334.999 13.3507 334.552 14.5152 333.662 15.4885C332.767 16.4592 331.639 16.9438 330.264 16.9438C329.832 16.9438 329.427 16.8928 329.044 16.784C328.662 16.6792 328.18 16.4867 327.598 16.2011C327.274 16.0387 327.009 15.9575 326.802 15.9575C326.628 15.9575 326.441 16.0374 326.249 16.2064C326.05 16.3688 325.894 16.6164 325.774 16.9451H325.408V10.8409H325.774C326.069 12.549 326.64 13.8576 327.494 14.7549C328.335 15.6536 329.249 16.1055 330.228 16.1055C330.984 16.1055 331.586 15.8618 332.035 15.3719C332.484 14.8899 332.708 14.3253 332.708 13.686C332.708 13.3022 332.626 12.9355 332.453 12.5713C332.282 12.215 332.023 11.8757 331.672 11.5548C331.327 11.2391 330.71 10.8173 329.827 10.2999C328.586 9.58335 327.699 8.96768 327.155 8.45681C326.609 7.94463 326.191 7.37481 325.902 6.74997C325.611 6.12251 325.465 5.42956 325.465 4.68159C325.465 3.38345 325.866 2.28442 326.664 1.37664C327.461 0.47017 328.469 0.0169349 329.682 0.0169349C330.126 0.0169349 330.558 0.0785016 330.973 0.204255C331.292 0.30119 331.675 0.4741 332.126 0.729536C332.58 0.984973 332.899 1.11204 333.081 1.11204C333.263 1.11204 333.393 1.05178 333.494 0.922096C333.592 0.797653 333.69 0.496369 333.775 0.015625H334.078" fill="#1A171B"/>
<path d="M136.83 8.79518V13.8017C136.83 14.6466 136.871 15.1719 136.948 15.3828C137.024 15.5963 137.176 15.7837 137.399 15.9435C137.623 16.102 137.925 16.1845 138.308 16.1845H138.756V16.584H131.638V16.1845H132.092C132.488 16.1845 132.807 16.098 133.047 15.9251C133.223 15.8138 133.358 15.6134 133.452 15.337C133.527 15.1379 133.562 14.6322 133.562 13.8017V3.16117C133.562 2.31889 133.526 1.79623 133.452 1.58402C133.379 1.36919 133.229 1.18449 133.002 1.02468C132.777 0.867486 132.473 0.787581 132.092 0.787581H131.638V0.382812H138.756V0.787581H138.308C137.914 0.787581 137.594 0.870106 137.352 1.04564C137.177 1.1596 137.044 1.35478 136.941 1.63118C136.869 1.82635 136.829 2.33854 136.829 3.16117V7.73414H141.628V3.16117C141.628 2.31889 141.591 1.79623 141.517 1.58402C141.444 1.36919 141.291 1.18449 141.064 1.02468C140.833 0.867486 140.53 0.787581 140.149 0.787581H139.705V0.382812H146.823V0.787581H146.379C145.974 0.787581 145.658 0.870106 145.421 1.04564C145.247 1.1596 145.11 1.35478 145.006 1.63118C144.934 1.82635 144.897 2.33854 144.897 3.16117V13.8017C144.897 14.6466 144.934 15.1719 145.006 15.3828C145.083 15.5963 145.231 15.7837 145.461 15.9435C145.691 16.102 145.998 16.1845 146.379 16.1845H146.823V16.584H139.705V16.1845H140.149C140.551 16.1845 140.867 16.098 141.104 15.9251C141.28 15.8138 141.416 15.6134 141.517 15.337C141.591 15.1379 141.628 14.6322 141.628 13.8017V8.79518H136.829" fill="#1A171B"/>
<path d="M154.879 16.1845V16.584H147.761V16.1845H148.213C148.611 16.1845 148.928 16.098 149.172 15.9251C149.347 15.8138 149.48 15.6134 149.575 15.337C149.646 15.1379 149.684 14.6322 149.684 13.8017V3.16117C149.684 2.31889 149.646 1.79623 149.575 1.58402C149.501 1.36919 149.35 1.18449 149.128 1.02468C148.9 0.867486 148.595 0.787581 148.213 0.787581H147.761V0.382812H154.879V0.787581H154.429C154.034 0.787581 153.717 0.870106 153.476 1.04564C153.299 1.1596 153.165 1.35478 153.065 1.63118C152.992 1.82635 152.954 2.33854 152.954 3.16117V13.8017C152.954 14.6466 152.994 15.1719 153.072 15.3828C153.148 15.5963 153.3 15.7837 153.523 15.9435C153.748 16.102 154.049 16.1845 154.43 16.1845H154.88" fill="#1A171B"/>
<path d="M285.342 16.1845V16.584H278.226V16.1845H278.678C279.076 16.1845 279.393 16.098 279.635 15.9251C279.812 15.8138 279.944 15.6134 280.039 15.337C280.112 15.1379 280.147 14.6322 280.147 13.8017V3.16117C280.147 2.31889 280.111 1.79623 280.039 1.58402C279.965 1.36919 279.815 1.18449 279.591 1.02468C279.364 0.867486 279.06 0.787581 278.678 0.787581H278.226V0.382812H285.342V0.787581H284.892C284.498 0.787581 284.18 0.870106 283.939 1.04564C283.762 1.1596 283.627 1.35478 283.529 1.63118C283.454 1.82635 283.418 2.33854 283.418 3.16117V13.8017C283.418 14.6466 283.458 15.1719 283.534 15.3828C283.61 15.5963 283.762 15.7837 283.986 15.9435C284.209 16.102 284.512 16.1845 284.893 16.1845H285.344" fill="#1A171B"/>
<path d="M160.703 9.19602V13.7703C160.703 14.6453 160.748 15.1968 160.841 15.4221C160.933 15.6579 161.096 15.8413 161.327 15.9788C161.557 16.1124 161.992 16.1845 162.627 16.1845V16.584H155.567V16.1845C156.21 16.1845 156.648 16.1111 156.875 15.9723C157.105 15.8269 157.265 15.6474 157.356 15.4195C157.448 15.1981 157.494 14.6453 157.494 13.7716V3.20178C157.494 2.32544 157.448 1.77003 157.356 1.5421C157.265 1.31024 157.102 1.13078 156.869 0.99193C156.637 0.857007 156.203 0.787581 155.567 0.787581V0.382812H161.909C163.559 0.382812 164.766 0.520355 165.528 0.79282C166.295 1.06398 166.916 1.56306 167.403 2.29007C167.884 3.01446 168.129 3.86591 168.129 4.84312C168.129 6.03909 167.768 7.02808 167.051 7.79439C166.592 8.29609 165.95 8.66681 165.127 8.91438L168.383 14.4043C168.814 15.1156 169.122 15.5623 169.303 15.7378C169.58 15.9814 169.899 16.1255 170.265 16.1465V16.5853H165.979L161.599 9.19864H160.702M160.703 1.29845V8.283H161.274C162.207 8.283 162.906 8.18344 163.372 7.9804C163.833 7.7826 164.196 7.42106 164.46 6.90102C164.726 6.38229 164.856 5.70244 164.856 4.85622C164.856 3.64454 164.617 2.74723 164.129 2.16825C163.64 1.58926 162.86 1.29845 161.777 1.29845H160.703Z" fill="#1A171B"/>
<path d="M178.827 11.9386H174.059L173.459 13.5341C173.269 14.0646 173.176 14.5073 173.176 14.8597C173.176 15.3234 173.331 15.6679 173.639 15.888C173.819 16.019 174.264 16.1173 174.973 16.1854V16.5849H170.447V16.1854C170.935 16.0937 171.337 15.8448 171.653 15.4426C171.968 15.0405 172.355 14.2126 172.817 12.9564L177.688 0.0195312H177.877L182.76 13.3179C183.232 14.599 183.613 15.406 183.919 15.74C184.142 15.9967 184.463 16.1395 184.878 16.1841V16.5836H178.325V16.1841H178.595C179.123 16.1841 179.493 16.0897 179.71 15.9103C179.856 15.7819 179.932 15.592 179.932 15.3431C179.932 15.1977 179.911 15.047 179.871 14.8872C179.856 14.8165 179.754 14.5087 179.566 13.9768L178.829 11.9373M178.507 11.0596L176.486 5.49635L174.389 11.0596H178.507Z" fill="#1A171B"/>
<path d="M220.585 11.9386H215.817L215.218 13.5341C215.028 14.0646 214.936 14.5073 214.936 14.8597C214.936 15.3234 215.09 15.6679 215.398 15.888C215.577 16.019 216.024 16.1173 216.732 16.1854V16.5849H212.206V16.1854C212.694 16.0937 213.096 15.8448 213.411 15.4426C213.725 15.0405 214.114 14.2126 214.577 12.9564L219.447 0.0195312H219.634L224.517 13.3179C224.989 14.599 225.37 15.406 225.675 15.74C225.898 15.9967 226.22 16.1395 226.634 16.1841V16.5836H220.081V16.1841H220.349C220.881 16.1841 221.251 16.0897 221.466 15.9103C221.612 15.7819 221.687 15.592 221.687 15.3431C221.687 15.1977 221.666 15.047 221.626 14.8872C221.612 14.8165 221.509 14.5087 221.322 13.9768L220.585 11.9373M220.264 11.0596L218.243 5.49635L216.149 11.0596H220.264Z" fill="#1A171B"/>
<path d="M294.541 11.9386H289.774L289.173 13.5341C288.985 14.0646 288.892 14.5073 288.892 14.8597C288.892 15.3234 289.047 15.6679 289.355 15.888C289.534 16.019 289.979 16.1173 290.69 16.1854V16.5849H286.163V16.1854C286.652 16.0937 287.053 15.8448 287.368 15.4426C287.682 15.0405 288.071 14.2126 288.534 12.9564L293.401 0.0195312H293.589L298.472 13.3179C298.944 14.599 299.325 15.406 299.629 15.74C299.852 15.9967 300.175 16.1395 300.589 16.1841V16.5836H294.036V16.1841H294.305C294.835 16.1841 295.204 16.0897 295.421 15.9103C295.568 15.7819 295.644 15.592 295.644 15.3431C295.644 15.1977 295.623 15.047 295.582 14.8872C295.568 14.8165 295.465 14.5087 295.278 13.9768L294.541 11.9373M294.221 11.0596L292.2 5.49635L290.105 11.0596H294.221Z" fill="#1A171B"/>
<path d="M201.632 7.17919H205.632V7.61932C205.184 7.69399 204.833 7.85642 204.578 8.10138C204.321 8.34764 203.987 8.91484 203.582 9.80691C203.175 10.695 202.598 11.6945 201.859 12.7949C202.517 13.4904 203.052 13.9738 203.465 14.2489C203.747 14.4349 204.03 14.5266 204.306 14.5266C204.783 14.5266 205.218 14.1585 205.603 13.4079L205.971 13.6607C205.441 14.9052 204.88 15.7894 204.281 16.3146C203.831 16.7089 203.313 16.9054 202.73 16.9054C202.227 16.9054 201.75 16.7783 201.296 16.5203C200.839 16.2622 200.288 15.7763 199.65 15.0689C198.843 15.7147 198.087 16.1823 197.383 16.4731C196.676 16.76 195.939 16.9054 195.176 16.9054C193.957 16.9054 192.99 16.5098 192.264 15.7147C191.548 14.9248 191.182 13.9882 191.182 12.9219C191.182 11.7639 191.53 10.7553 192.222 9.90646C192.915 9.04977 193.916 8.31097 195.226 7.68744C195.062 7.18705 194.939 6.69713 194.854 6.22163C194.771 5.74351 194.728 5.2811 194.728 4.8331C194.728 3.60177 195.092 2.5761 195.821 1.75346C196.544 0.934755 197.468 0.523438 198.591 0.523438C199.502 0.523438 200.22 0.791973 200.75 1.34083C201.278 1.88183 201.546 2.51453 201.546 3.24023C201.546 4.11002 201.271 4.85668 200.733 5.47759C200.192 6.09588 199.329 6.66701 198.151 7.17919C198.881 8.71836 199.939 10.378 201.336 12.1543C202.269 10.8745 202.739 9.77678 202.739 8.86376C202.739 8.53496 202.646 8.25726 202.456 8.03195C202.268 7.8014 201.997 7.66386 201.638 7.61932V7.17919M195.495 8.42624C194.973 8.68823 194.605 8.96593 194.39 9.25674C194.085 9.68901 193.929 10.1711 193.929 10.7016C193.929 11.4273 194.107 12.1491 194.458 12.863C194.807 13.5795 195.237 14.1336 195.729 14.524C196.227 14.9169 196.72 15.1174 197.21 15.1174C197.457 15.1174 197.732 15.0532 198.039 14.9248C198.345 14.7977 198.678 14.6091 199.039 14.3537C197.496 12.453 196.317 10.475 195.496 8.42624M197.817 6.48362C198.491 6.19019 198.945 5.86402 199.177 5.52606C199.404 5.18024 199.52 4.77023 199.52 4.28424C199.52 3.42231 199.33 2.69268 198.948 2.10452C198.697 1.70892 198.386 1.51243 198.022 1.51243C197.718 1.51243 197.461 1.65391 197.245 1.93685C197.033 2.22242 196.926 2.61146 196.926 3.09483C196.926 3.47209 196.976 3.87555 197.081 4.30389C197.18 4.73748 197.427 5.46449 197.819 6.48362" fill="#1A171B"/>
<path d="M256.049 0.149355C258.196 0.0498 259.941 0.801699 261.282 2.40767C262.627 4.0071 263.295 6.00998 263.295 8.41632C263.295 10.4716 262.802 12.2806 261.8 13.8434C260.473 15.913 258.598 16.9505 256.178 16.9505C253.759 16.9505 251.872 15.9628 250.554 13.9848C249.498 12.426 248.977 10.5712 248.977 8.43073C248.977 6.02177 249.656 4.01889 251.018 2.41291C252.383 0.808249 254.061 0.0498 256.049 0.149355ZM256.168 0.899944C254.936 0.899944 254.004 1.65708 253.358 3.17136C252.834 4.4171 252.574 6.20123 252.574 8.52635C252.574 11.289 252.979 13.3325 253.787 14.6555C254.352 15.5816 255.139 16.0401 256.146 16.0401C256.83 16.0401 257.402 15.8436 257.858 15.4415C258.435 14.9345 258.888 14.1211 259.217 13.0024C259.538 11.8811 259.703 10.4192 259.703 8.62329C259.703 6.47631 259.536 4.87165 259.204 3.8093C258.868 2.74956 258.45 1.99505 257.94 1.55622C257.428 1.11739 256.837 0.898634 256.167 0.898634" fill="#1A171B"/>
<path d="M277.15 0.00390625V5.63136H276.802C276.508 4.15245 275.961 3.02591 275.16 2.23865C274.363 1.454 273.454 1.0584 272.444 1.0584C271.594 1.0584 270.824 1.35182 270.116 1.93605C269.411 2.51504 268.895 3.28004 268.569 4.21926C268.151 5.42308 267.938 6.76314 267.938 8.23943C267.938 9.71572 268.089 11.0099 268.394 12.2046C268.7 13.3953 269.177 14.2979 269.827 14.9109C270.476 15.5213 271.321 15.8239 272.359 15.8239C273.21 15.8239 273.987 15.6025 274.693 15.1545C275.396 14.7092 276.142 13.9402 276.927 12.8478V14.2428C276.17 15.1978 275.38 15.8881 274.559 16.3178C273.742 16.7422 272.783 16.9596 271.683 16.9596C270.245 16.9596 268.97 16.6112 267.848 15.9156C266.728 15.2227 265.863 14.2271 265.254 12.9316C264.646 11.6269 264.341 10.2449 264.341 8.77781C264.341 7.23471 264.68 5.76497 265.358 4.37776C266.034 2.99447 266.951 1.91902 268.098 1.1514C269.248 0.387715 270.462 0.00390625 271.755 0.00390625C272.712 0.00390625 273.718 0.250173 274.771 0.745326C275.387 1.03089 275.778 1.17498 275.943 1.17498C276.156 1.17498 276.344 1.08067 276.499 0.892038C276.654 0.706028 276.757 0.411294 276.805 0.00521618H277.152" fill="#1A171B"/>
<path d="M311.093 0.382812V4.7606H310.745C310.532 3.75719 310.293 3.03411 310.037 2.59528C309.779 2.15384 309.418 1.80409 308.973 1.5421C308.724 1.39932 308.283 1.32727 307.653 1.32727H306.643V13.8279C306.643 14.6584 306.682 15.1785 306.756 15.3867C306.832 15.595 306.98 15.7784 307.197 15.933C307.417 16.0862 307.715 16.1635 308.097 16.1635H308.537V16.5853H301.499V16.1635H301.939C302.325 16.1635 302.638 16.0849 302.881 15.916C303.049 15.802 303.184 15.612 303.286 15.3396C303.357 15.1483 303.393 14.6414 303.393 13.8279V1.32596H302.386C301.476 1.32596 300.813 1.5552 300.397 2.01891C299.816 2.65816 299.448 3.5738 299.295 4.75929H298.95V0.382812H311.094" fill="#1A171B"/>
<path d="M17.2118 9.36938e-05L0.000976562 17.4805L2.45967 19.9777L19.6705 2.49729L17.2118 9.36938e-05Z" fill="#FECD1A"/>
<path d="M22.1278 4.99619L4.91699 22.4766L7.37568 24.9738L24.5865 7.49338L22.1278 4.99619Z" fill="#E2001A"/>
<path d="M27.0478 9.99142L9.83398 27.4688L12.2922 29.9664L29.5061 12.4891L27.0478 9.99142Z" fill="#0A8B30"/>
<path d="M17.2115 34.9621L14.752 32.4641L31.9621 14.9844L34.4216 17.4811L17.2115 34.9621Z" fill="#656EAD"/>
<path d="M108.339 32.4518C108.339 34.0002 108.424 34.2307 109.194 34.2897L109.736 34.3329C109.821 34.4193 109.793 34.6512 109.708 34.6944C108.824 34.6656 108.339 34.6512 107.77 34.6512C107.172 34.6512 106.66 34.6656 105.904 34.6944C105.819 34.6512 105.791 34.4193 105.876 34.3329L106.317 34.2897C107.144 34.2032 107.172 34.0002 107.172 32.4518V31.7143C107.172 30.9179 107.129 30.7306 106.717 29.9197L105.036 26.5925C104.552 25.6376 104.338 25.5655 103.911 25.4935L103.513 25.4214C103.428 25.3206 103.442 25.1175 103.541 25.0599C103.997 25.0887 104.51 25.1031 105.193 25.1031C105.877 25.1031 106.362 25.0887 106.718 25.0599C106.846 25.1031 106.846 25.335 106.76 25.4214L106.575 25.4503C106.077 25.5223 105.976 25.5957 105.976 25.7109C105.976 25.8563 106.346 26.6803 106.417 26.8244C106.945 27.8946 107.471 29.0382 108.027 30.0363C108.468 29.2687 108.939 28.4304 109.366 27.5907C109.764 26.8388 110.292 25.855 110.292 25.6808C110.292 25.5944 110.035 25.4922 109.693 25.449L109.437 25.4201C109.336 25.3193 109.352 25.1162 109.465 25.0586C109.977 25.0874 110.391 25.1018 110.832 25.1018C111.273 25.1018 111.673 25.0874 112.157 25.0586C112.271 25.1306 112.286 25.3337 112.185 25.4201L111.787 25.4922C111.046 25.6219 110.619 26.5336 109.906 27.778L109.008 29.3552C108.382 30.4542 108.339 30.5852 108.339 31.6986V32.4505V32.4518Z" fill="#9C9E9F"/>
<path d="M116.671 31.7458C116.671 33.5535 115.446 34.8556 113.666 34.8556C112.028 34.8556 110.746 33.6832 110.746 31.8755C110.746 30.0678 112.099 28.75 113.781 28.75C115.463 28.75 116.672 29.9656 116.672 31.7445L116.671 31.7458ZM113.609 29.1849C112.669 29.1849 111.971 30.0966 111.971 31.6882C111.971 33.0046 112.556 34.4233 113.809 34.4233C115.063 34.4233 115.447 33.0924 115.447 31.9777C115.447 30.7476 114.964 29.1849 113.609 29.1849Z" fill="#9C9E9F"/>
<path d="M119.291 32.5252C119.291 33.5234 119.534 34.1888 120.616 34.1888C121 34.1888 121.457 34.0303 121.77 33.7552C121.956 33.581 122.055 33.3649 122.055 32.9169V30.5446C122.055 29.6041 121.956 29.5753 121.528 29.401L121.342 29.329C121.243 29.2714 121.243 29.0683 121.356 29.0107C121.926 28.9963 122.709 28.8954 123.023 28.75C123.093 28.7644 123.136 28.7932 123.15 28.8509C123.122 29.1259 123.108 29.5739 123.108 30.1097V32.5409C123.108 33.6832 123.15 34.1181 123.549 34.1181C123.719 34.1181 123.905 34.0893 124.105 34.046C124.19 34.1181 124.204 34.4076 124.09 34.4652C123.535 34.5818 122.708 34.7259 122.224 35.001C122.153 35.001 122.081 34.9578 122.053 34.9001V34.3067C122.053 34.177 122.01 34.1037 121.925 34.1037C121.498 34.3788 120.799 34.8556 119.959 34.8556C118.706 34.8556 118.236 34.219 118.236 33.0479V30.6311C118.236 29.7193 118.236 29.5897 117.809 29.401L117.638 29.329C117.553 29.2569 117.567 29.0539 117.666 29.0107C118.321 28.9963 118.877 28.8653 119.191 28.75C119.276 28.7644 119.318 28.7932 119.333 28.8509C119.304 29.0971 119.29 29.401 119.29 30.1097V32.5265L119.291 32.5252Z" fill="#9C9E9F"/>
<path d="M125.573 30.5C125.573 29.9367 125.573 29.8634 125.188 29.6027L125.061 29.5162C125.004 29.4586 125.004 29.2988 125.075 29.2555C125.403 29.1403 126.157 28.7643 126.514 28.5469C126.585 28.5613 126.628 28.5901 126.628 28.6477V29.4874C126.628 29.5595 126.642 29.6027 126.67 29.6171C127.169 29.1979 127.71 28.7486 128.237 28.7486C128.593 28.7486 128.878 28.9805 128.878 29.3276C128.878 29.8044 128.494 29.993 128.266 29.993C128.123 29.993 128.052 29.9498 127.952 29.8922C127.738 29.7468 127.525 29.6603 127.326 29.6603C127.097 29.6603 126.927 29.79 126.812 29.9498C126.669 30.1528 126.627 30.572 126.627 31.0646V33.0321C126.627 34.0735 126.655 34.2477 127.197 34.2909L127.71 34.3341C127.809 34.4062 127.781 34.6525 127.682 34.6957C127.012 34.6669 126.599 34.6525 126.1 34.6525C125.601 34.6525 125.16 34.6669 124.79 34.6957C124.691 34.6525 124.661 34.4062 124.762 34.3341L125.032 34.2909C125.56 34.2045 125.574 34.0735 125.574 33.0321V30.5H125.573Z" fill="#9C9E9F"/>
<path d="M135.172 32.4832C135.172 34.0028 135.201 34.1901 136.112 34.2923L136.497 34.3355C136.582 34.4075 136.553 34.6538 136.468 34.697C135.656 34.6682 135.186 34.6538 134.616 34.6538C134.018 34.6538 133.506 34.6682 132.879 34.697C132.794 34.6538 132.764 34.4219 132.851 34.3355L133.15 34.2923C133.977 34.1757 134.005 34.0028 134.005 32.4832V27.1453C134.005 25.9153 133.977 25.669 133.336 25.5969L132.822 25.5393C132.723 25.4529 132.737 25.2354 132.851 25.1778C133.606 25.0769 134.489 25.0625 135.671 25.0625C136.854 25.0625 137.737 25.221 138.407 25.6415C139.062 26.0607 139.547 26.8139 139.547 27.812C139.547 29.1429 138.734 29.8084 138.122 30.1123C137.495 30.4162 136.74 30.5472 136.156 30.5472C136.056 30.5039 136.056 30.2865 136.142 30.2577C137.681 29.9682 138.237 29.0853 138.237 27.8278C138.237 26.4248 137.425 25.5131 135.943 25.5131C135.189 25.5131 135.175 25.5708 135.175 26.0332V32.4859L135.172 32.4832Z" fill="#9C9E9F"/>
<path d="M142.635 31.658C142.849 31.586 142.878 31.455 142.878 31.2389L142.892 30.5734C142.906 30.039 142.735 29.3146 141.852 29.3146C141.454 29.3146 140.969 29.5176 140.941 29.9656C140.926 30.1975 140.912 30.3704 140.799 30.4568C140.585 30.6311 140.2 30.7319 139.986 30.7319C139.858 30.7319 139.786 30.6599 139.786 30.5289C139.786 29.777 141.396 28.75 142.435 28.75C143.475 28.75 143.96 29.3578 143.917 30.4424L143.832 32.9601C143.804 33.6256 143.931 34.219 144.487 34.219C144.63 34.219 144.758 34.1757 144.843 34.1312C144.914 34.088 144.986 34.0303 145.029 34.0303C145.086 34.0303 145.128 34.1168 145.128 34.219C145.128 34.291 144.63 34.8556 143.931 34.8556C143.59 34.8556 143.248 34.7259 143.005 34.4076C142.949 34.3211 142.863 34.2045 142.777 34.2045C142.678 34.2045 142.506 34.3342 142.221 34.494C141.908 34.6683 141.594 34.8556 141.196 34.8556C140.797 34.8556 140.441 34.739 140.199 34.5229C139.928 34.2766 139.758 33.9151 139.758 33.5103C139.758 32.947 140.029 32.613 140.941 32.2803L142.635 31.658ZM141.753 34.2045C142.038 34.2045 142.479 33.9871 142.622 33.843C142.794 33.6688 142.794 33.4671 142.808 33.1632L142.836 32.3091C142.836 32.1506 142.78 32.1218 142.695 32.1218C142.609 32.1218 142.367 32.1794 142.11 32.2672C141.269 32.5567 140.857 32.7728 140.857 33.3374C140.857 33.5836 141.028 34.2059 141.754 34.2059L141.753 34.2045Z" fill="#9C9E9F"/>
<path d="M146.267 30.5C146.267 29.9367 146.267 29.8634 145.883 29.6027L145.755 29.5162C145.698 29.4586 145.698 29.2988 145.769 29.2555C146.097 29.1403 146.851 28.7643 147.209 28.5469C147.28 28.5613 147.322 28.5901 147.322 28.6477V29.4874C147.322 29.5595 147.336 29.6027 147.365 29.6171C147.864 29.1979 148.404 28.7486 148.932 28.7486C149.288 28.7486 149.573 28.9805 149.573 29.3276C149.573 29.8044 149.188 29.993 148.96 29.993C148.817 29.993 148.746 29.9498 148.647 29.8922C148.433 29.7468 148.22 29.6603 148.02 29.6603C147.792 29.6603 147.621 29.79 147.507 29.9498C147.363 30.1528 147.321 30.572 147.321 31.0646V33.0321C147.321 34.0735 147.349 34.2477 147.891 34.2909L148.404 34.3341C148.504 34.4062 148.475 34.6525 148.376 34.6957C147.706 34.6669 147.294 34.6525 146.795 34.6525C146.296 34.6525 145.854 34.6669 145.484 34.6957C145.385 34.6525 145.355 34.4062 145.456 34.3341L145.727 34.2909C146.254 34.2045 146.268 34.0735 146.268 33.0321V30.5H146.267Z" fill="#9C9E9F"/>
<path d="M152.136 29.5614C151.894 29.5614 151.879 29.6046 151.879 29.9085V32.6135C151.879 33.4532 151.979 34.2195 152.919 34.2195C153.061 34.2195 153.19 34.1893 153.303 34.1474C153.431 34.1042 153.617 33.9444 153.659 33.9444C153.773 33.9444 153.831 34.1029 153.801 34.1893C153.545 34.4932 153.032 34.8548 152.305 34.8548C151.08 34.8548 150.823 34.1605 150.823 33.292V29.9792C150.823 29.5889 150.809 29.5601 150.524 29.5601H150.125C150.04 29.5024 150.026 29.3426 150.083 29.2562C150.496 29.1265 150.852 28.9378 150.995 28.8082C151.18 28.6339 151.45 28.2449 151.593 27.9541C151.664 27.9253 151.836 27.9253 151.892 28.0261V28.6772C151.892 28.9378 151.907 28.9522 152.149 28.9522H153.73C153.902 29.0819 153.872 29.4736 153.744 29.5601H152.135L152.136 29.5614Z" fill="#9C9E9F"/>
<path d="M155.198 30.5C155.198 29.9367 155.198 29.8634 154.813 29.6027L154.686 29.5162C154.629 29.4586 154.629 29.2988 154.7 29.2555C155.027 29.1403 155.839 28.7643 156.124 28.5469C156.18 28.5469 156.253 28.5757 156.281 28.6477C156.253 28.9805 156.253 29.1979 156.253 29.3276C156.253 29.414 156.309 29.4874 156.41 29.4874C157.008 29.1115 157.678 28.7486 158.404 28.7486C159.587 28.7486 160.07 29.5739 160.07 30.5432V33.0308C160.07 34.0722 160.099 34.2176 160.612 34.2896L160.925 34.3328C161.025 34.4049 160.996 34.6511 160.897 34.6944C160.47 34.6656 160.056 34.6511 159.558 34.6511C159.06 34.6511 158.618 34.6656 158.234 34.6944C158.133 34.6511 158.105 34.4049 158.205 34.3328L158.476 34.2896C159.004 34.2031 159.018 34.0722 159.018 33.0308V30.8746C159.018 30.0494 158.648 29.4429 157.679 29.4429C157.137 29.4429 156.668 29.6747 156.468 29.9485C156.282 30.1948 156.254 30.3965 156.254 30.817V33.0308C156.254 34.0722 156.282 34.2031 156.796 34.2896L157.052 34.3328C157.152 34.4049 157.123 34.6511 157.024 34.6944C156.64 34.6656 156.227 34.6511 155.728 34.6511C155.229 34.6511 154.788 34.6656 154.389 34.6944C154.29 34.6511 154.261 34.4049 154.361 34.3328L154.66 34.2896C155.187 34.2176 155.202 34.0722 155.202 33.0308V30.4987L155.198 30.5Z" fill="#9C9E9F"/>
<path d="M162.989 30.9507C162.619 30.9507 162.605 30.9795 162.605 31.341C162.605 32.8016 163.446 34.046 164.969 34.046C165.438 34.046 165.838 33.9006 166.279 33.3361C166.422 33.2928 166.522 33.3793 166.536 33.5103C166.066 34.494 165.04 34.8556 164.299 34.8556C163.373 34.8556 162.647 34.4508 162.233 33.9006C161.806 33.3361 161.635 32.6562 161.635 32.0196C161.635 30.2407 162.789 28.75 164.498 28.75C165.723 28.75 166.52 29.6041 166.52 30.4712C166.52 30.6743 166.492 30.7896 166.464 30.8472C166.421 30.9337 166.221 30.9481 165.623 30.9481H162.988L162.989 30.9507ZM163.872 30.5171C164.926 30.5171 165.24 30.4595 165.354 30.3717C165.397 30.3429 165.439 30.2852 165.439 30.0966C165.439 29.6918 165.169 29.1849 164.343 29.1849C163.518 29.1849 162.776 29.9669 162.762 30.4437C162.762 30.4726 162.762 30.5158 162.861 30.5158H163.872V30.5171Z" fill="#9C9E9F"/>
<path d="M168.031 30.5C168.031 29.9367 168.031 29.8634 167.647 29.6027L167.519 29.5162C167.463 29.4586 167.463 29.2988 167.534 29.2555C167.861 29.1403 168.616 28.7643 168.973 28.5469C169.044 28.5613 169.088 28.5901 169.088 28.6477V29.4874C169.088 29.5595 169.102 29.6027 169.13 29.6171C169.629 29.1979 170.171 28.7486 170.697 28.7486C171.053 28.7486 171.338 28.9805 171.338 29.3276C171.338 29.8044 170.954 29.993 170.726 29.993C170.583 29.993 170.512 29.9498 170.412 29.8922C170.198 29.7468 169.985 29.6603 169.785 29.6603C169.557 29.6603 169.387 29.79 169.272 29.9498C169.129 30.1528 169.088 30.572 169.088 31.0646V33.0321C169.088 34.0735 169.116 34.2477 169.657 34.2909L170.17 34.3341C170.269 34.4062 170.241 34.6525 170.141 34.6957C169.472 34.6669 169.059 34.6525 168.56 34.6525C168.061 34.6525 167.62 34.6669 167.25 34.6957C167.151 34.6525 167.121 34.4062 167.222 34.3341L167.492 34.2909C168.02 34.2045 168.034 34.0735 168.034 33.0321V30.5H168.031Z" fill="#9C9E9F"/>
<path d="M177.289 29.5601C177.047 29.5601 177.047 29.5889 177.047 29.9793V33.0314C177.047 34.0728 177.075 34.247 177.589 34.2903L178.102 34.3335C178.201 34.4055 178.173 34.6518 178.074 34.695C177.433 34.6662 177.02 34.6518 176.521 34.6518C176.022 34.6518 175.581 34.6662 175.154 34.695C175.054 34.6518 175.026 34.4055 175.125 34.3335L175.453 34.2903C175.98 34.2182 175.995 34.0728 175.995 33.0314V29.9793C175.995 29.5889 175.995 29.5601 175.71 29.5601H175.21C175.125 29.5025 175.111 29.3715 175.168 29.285L175.78 28.9811C175.894 28.9235 175.993 28.837 175.993 28.6916C175.993 27.852 176.093 26.9547 176.434 26.1451C176.79 25.3199 177.589 24.3086 178.998 24.3086C179.754 24.3086 180.395 24.6557 180.395 25.1758C180.395 25.4653 180.124 25.6971 179.853 25.6971C179.696 25.6971 179.612 25.6395 179.512 25.5229C179.241 25.2046 178.842 24.8863 178.373 24.8863C177.932 24.8863 177.574 25.1614 177.362 25.6827C177.105 26.3482 177.048 27.404 177.048 28.127V28.5462C177.048 28.9366 177.048 28.951 177.291 28.951H178.914C179.072 29.0964 178.971 29.5012 178.815 29.5588H177.291L177.289 29.5601Z" fill="#9C9E9F"/>
<path d="M185.052 31.7458C185.052 33.5535 183.827 34.8556 182.047 34.8556C180.409 34.8556 179.127 33.6832 179.127 31.8755C179.127 30.0678 180.48 28.75 182.16 28.75C183.841 28.75 185.052 29.9656 185.052 31.7445V31.7458ZM181.99 29.1849C181.05 29.1849 180.352 30.0966 180.352 31.6882C180.352 33.0046 180.936 34.4233 182.19 34.4233C183.444 34.4233 183.828 33.0924 183.828 31.9777C183.828 30.7476 183.343 29.1849 181.99 29.1849Z" fill="#9C9E9F"/>
<path d="M186.804 30.5C186.804 29.9367 186.804 29.8634 186.419 29.6027L186.291 29.5162C186.234 29.4586 186.234 29.2988 186.305 29.2555C186.632 29.1403 187.387 28.7643 187.744 28.5469C187.815 28.5613 187.858 28.5901 187.858 28.6477V29.4874C187.858 29.5595 187.872 29.6027 187.9 29.6171C188.398 29.1979 188.94 28.7486 189.467 28.7486C189.823 28.7486 190.108 28.9805 190.108 29.3276C190.108 29.8044 189.724 29.993 189.495 29.993C189.352 29.993 189.283 29.9498 189.182 29.8922C188.968 29.7468 188.754 29.6603 188.555 29.6603C188.327 29.6603 188.157 29.79 188.043 29.9498C187.9 30.1528 187.858 30.572 187.858 31.0646V33.0321C187.858 34.0735 187.886 34.2477 188.428 34.2909L188.941 34.3341C189.04 34.4062 189.012 34.6525 188.911 34.6957C188.242 34.6669 187.829 34.6525 187.33 34.6525C186.831 34.6525 186.39 34.6669 186.02 34.6957C185.92 34.6525 185.891 34.4062 185.99 34.3341L186.261 34.2909C186.787 34.2045 186.803 34.0735 186.803 33.0321V30.5H186.804Z" fill="#9C9E9F"/>
<path d="M202.642 33.18C202.642 33.7589 202.728 34.1061 202.984 34.2069C203.027 34.2502 203.027 34.3366 202.97 34.3812C202.799 34.3812 202.542 34.4388 202.272 34.5108C201.517 34.7139 200.493 34.8868 199.723 34.8868C198.028 34.8868 196.475 34.41 195.379 33.2808C194.524 32.4123 194.068 31.2701 194.068 29.9968C194.068 28.7236 194.468 27.5224 195.35 26.5674C196.306 25.5549 197.714 24.875 199.867 24.875C200.68 24.875 201.434 25.0348 201.676 25.0924C201.946 25.1501 202.388 25.2509 202.559 25.2221C202.559 25.6989 202.644 26.4522 202.773 27.3206C202.73 27.4372 202.474 27.4503 202.388 27.3639C201.99 25.8011 200.921 25.3099 199.468 25.3099C196.705 25.3099 195.494 27.3062 195.494 29.4768C195.494 32.2551 196.904 34.4388 199.768 34.4388C200.651 34.4388 201.177 34.2515 201.335 34.0052C201.406 33.9043 201.477 33.6437 201.477 33.18V32.601C201.477 31.3853 201.434 31.2989 200.551 31.198L199.924 31.126C199.81 31.0683 199.824 30.8077 199.924 30.7644C200.336 30.7933 201.121 30.8077 201.962 30.8077C202.517 30.8077 203.001 30.7933 203.472 30.7644C203.571 30.8221 203.587 31.0395 203.486 31.126L203.259 31.1548C202.661 31.2268 202.646 31.6316 202.646 32.3704V33.18H202.642Z" fill="#9C9E9F"/>
<path d="M204.964 30.5C204.964 29.9367 204.964 29.8634 204.58 29.6027L204.452 29.5162C204.396 29.4586 204.396 29.2988 204.466 29.2555C204.793 29.1403 205.549 28.7643 205.905 28.5469C205.975 28.5613 206.018 28.5901 206.018 28.6477V29.4874C206.018 29.5595 206.032 29.6027 206.061 29.6171C206.558 29.1979 207.1 28.7486 207.628 28.7486C207.984 28.7486 208.269 28.9805 208.269 29.3276C208.269 29.8044 207.884 29.993 207.656 29.993C207.513 29.993 207.442 29.9498 207.343 29.8922C207.13 29.7468 206.916 29.6603 206.716 29.6603C206.487 29.6603 206.316 29.79 206.202 29.9498C206.059 30.1528 206.017 30.572 206.017 31.0646V33.0321C206.017 34.0735 206.045 34.2477 206.587 34.2909L207.099 34.3341C207.198 34.4062 207.171 34.6525 207.07 34.6957C206.401 34.6669 205.988 34.6525 205.489 34.6525C204.99 34.6525 204.549 34.6669 204.179 34.6957C204.08 34.6525 204.05 34.4062 204.149 34.3341L204.42 34.2909C204.946 34.2045 204.962 34.0735 204.962 33.0321V30.5H204.964Z" fill="#9C9E9F"/>
<path d="M214.493 31.7458C214.493 33.5535 213.269 34.8556 211.488 34.8556C209.85 34.8556 208.568 33.6832 208.568 31.8755C208.568 30.0678 209.923 28.75 211.603 28.75C213.284 28.75 214.495 29.9656 214.495 31.7445L214.493 31.7458ZM211.432 29.1849C210.491 29.1849 209.794 30.0966 209.794 31.6882C209.794 33.0046 210.378 34.4233 211.631 34.4233C212.885 34.4233 213.269 33.0924 213.269 31.9777C213.269 30.7476 212.784 29.1849 211.432 29.1849Z" fill="#9C9E9F"/>
<path d="M215.747 30.3563C215.419 29.5468 215.247 29.4014 214.891 29.3149L214.664 29.2573C214.592 29.1852 214.579 28.9678 214.707 28.9102C215.148 28.939 215.548 28.9534 215.975 28.9534C216.402 28.9534 216.83 28.939 217.214 28.9102C217.329 28.9678 217.342 29.1852 217.243 29.2573L216.915 29.3149C216.715 29.3437 216.602 29.4302 216.602 29.518C216.602 29.6057 216.673 29.8795 216.83 30.2699L217.712 32.4836C217.84 32.8164 217.969 33.077 217.969 33.1059C218.011 33.077 218.125 32.8308 218.296 32.4116L218.994 30.6615C219.179 30.1991 219.194 30.0105 219.122 29.8232C218.994 29.5049 218.78 29.3896 218.467 29.3175L218.238 29.2599C218.139 29.1735 218.167 28.956 218.281 28.9128C218.637 28.9416 219.093 28.956 219.464 28.956C219.905 28.956 220.333 28.9416 220.816 28.9128C220.944 28.956 220.944 29.1879 220.859 29.2599L220.56 29.3175C219.99 29.4328 220.018 29.476 220.19 29.983C220.346 30.4598 221.116 32.2976 221.272 32.688C221.357 32.9054 221.415 33.0639 221.456 33.0941C221.485 33.0653 221.555 32.9198 221.656 32.688C221.841 32.2688 222.411 30.7349 222.623 30.1271C222.738 29.7944 222.767 29.6057 222.767 29.5049C222.767 29.4184 222.681 29.3464 222.51 29.3175L222.154 29.2599C222.039 29.1879 222.069 28.956 222.168 28.9128C222.581 28.9416 222.938 28.956 223.294 28.956C223.565 28.956 223.907 28.9416 224.22 28.9128C224.334 28.9704 224.348 29.1879 224.263 29.2599L223.978 29.3175C223.636 29.3896 223.507 29.5926 223.208 30.2293C222.823 31.0388 222.14 32.7758 221.869 33.5132C221.669 34.0346 221.499 34.4538 221.384 34.8297C221.327 34.873 221.27 34.8874 221.2 34.8874C221.141 34.8874 221.085 34.873 221.042 34.8297C220.957 34.5691 220.7 33.8172 220.458 33.2382L219.774 31.5746C219.675 31.3139 219.461 30.8358 219.447 30.8358C219.433 30.8358 219.233 31.2837 219.133 31.5444L218.393 33.3521C218.136 33.9743 217.937 34.4957 217.823 34.8284C217.78 34.8716 217.724 34.8861 217.651 34.8861C217.595 34.8861 217.524 34.8716 217.48 34.8284C217.394 34.5245 217.167 33.9311 217.052 33.6272L215.741 30.3576L215.747 30.3563Z" fill="#9C9E9F"/>
<path d="M226.5 29.5614C226.258 29.5614 226.243 29.6046 226.243 29.9085V32.6135C226.243 33.4532 226.343 34.2195 227.283 34.2195C227.426 34.2195 227.554 34.1893 227.667 34.1474C227.795 34.1042 227.981 33.9444 228.023 33.9444C228.137 33.9444 228.195 34.1029 228.166 34.1893C227.91 34.4932 227.396 34.8548 226.67 34.8548C225.445 34.8548 225.188 34.1605 225.188 33.292V29.9792C225.188 29.5889 225.174 29.5601 224.889 29.5601H224.491C224.406 29.5024 224.391 29.3426 224.448 29.2562C224.861 29.1265 225.217 28.9378 225.36 28.8082C225.546 28.6339 225.815 28.2449 225.958 27.9541C226.029 27.9253 226.201 27.9253 226.258 28.0261V28.6772C226.258 28.9378 226.272 28.9522 226.514 28.9522H228.095C228.267 29.0819 228.237 29.4736 228.11 29.5601H226.5V29.5614Z" fill="#9C9E9F"/>
<path d="M229.42 26.4936C229.42 25.6395 229.406 25.553 228.979 25.2923L228.836 25.2059C228.765 25.1627 228.765 24.9609 228.836 24.9164C229.192 24.7998 229.861 24.5837 230.374 24.3086C230.431 24.3086 230.489 24.3374 230.518 24.395C230.503 24.8286 230.475 25.5517 230.475 26.1897V29.2274C230.475 29.3571 230.489 29.4736 230.532 29.5025C231.045 29.0977 231.729 28.7506 232.455 28.7506C233.808 28.7506 234.291 29.6046 234.291 30.6172V33.0327C234.291 34.0741 234.32 34.2339 234.833 34.2916L235.217 34.3348C235.317 34.4068 235.288 34.6531 235.189 34.6963C234.676 34.6675 234.263 34.6531 233.764 34.6531C233.265 34.6531 232.824 34.6675 232.439 34.6963C232.34 34.6531 232.312 34.4068 232.411 34.3348L232.696 34.2916C233.223 34.2051 233.238 34.0741 233.238 33.0327V30.9643C233.238 30.0382 232.797 29.416 231.885 29.416C231.401 29.416 231.031 29.5902 230.774 29.8064C230.518 30.0238 230.475 30.0959 230.475 30.6028V33.0327C230.475 34.0741 230.503 34.2195 231.017 34.2916L231.316 34.3348C231.415 34.3924 231.387 34.6531 231.288 34.6963C230.861 34.6675 230.447 34.6531 229.949 34.6531C229.451 34.6531 229.009 34.6675 228.552 34.6963C228.453 34.6531 228.424 34.4068 228.524 34.3348L228.88 34.2916C229.407 34.2339 229.421 34.0741 229.421 33.0327V26.4936H229.42Z" fill="#9C9E9F"/>
<path d="M240.174 30.4992C240.174 29.936 240.174 29.8626 239.79 29.6019L239.662 29.5155C239.605 29.4579 239.605 29.298 239.676 29.2548C240.004 29.1395 240.817 28.7636 241.144 28.5461C241.215 28.5461 241.272 28.575 241.287 28.6326C241.259 29.1395 241.231 29.8338 241.231 30.4272V33.0313C241.231 34.0727 241.259 34.2181 241.772 34.2902L242.071 34.3334C242.171 34.4055 242.142 34.6517 242.043 34.6949C241.616 34.6661 241.202 34.6517 240.704 34.6517C240.206 34.6517 239.764 34.6661 239.366 34.6949C239.266 34.6517 239.238 34.4055 239.337 34.3334L239.636 34.2902C240.163 34.2181 240.178 34.0727 240.178 33.0313V30.4992H240.174ZM241.356 26.3769C241.356 26.8982 241 27.1288 240.6 27.1288C240.159 27.1288 239.874 26.7961 239.874 26.4057C239.874 25.9289 240.215 25.625 240.642 25.625C241.069 25.625 241.354 25.9721 241.354 26.3769H241.356Z" fill="#9C9E9F"/>
<path d="M243.691 30.5C243.691 29.9367 243.691 29.8634 243.307 29.6027L243.179 29.5162C243.122 29.4586 243.122 29.2988 243.193 29.2555C243.521 29.1403 244.333 28.7643 244.618 28.5469C244.675 28.5469 244.746 28.5757 244.776 28.6477C244.746 28.9805 244.746 29.1979 244.746 29.3276C244.746 29.414 244.803 29.4874 244.903 29.4874C245.502 29.1115 246.171 28.7486 246.897 28.7486C248.08 28.7486 248.564 29.5739 248.564 30.5432V33.0308C248.564 34.0722 248.592 34.2176 249.105 34.2896L249.419 34.3328C249.518 34.4049 249.49 34.6511 249.39 34.6944C248.964 34.6656 248.55 34.6511 248.052 34.6511C247.554 34.6511 247.112 34.6656 246.727 34.6944C246.628 34.6511 246.599 34.4049 246.699 34.3328L246.97 34.2896C247.496 34.2031 247.511 34.0722 247.511 33.0308V30.8746C247.511 30.0494 247.141 29.4429 246.171 29.4429C245.63 29.4429 245.16 29.6747 244.96 29.9485C244.776 30.1948 244.746 30.3965 244.746 30.817V33.0308C244.746 34.0722 244.776 34.2031 245.288 34.2896L245.544 34.3328C245.644 34.4049 245.615 34.6511 245.516 34.6944C245.132 34.6656 244.718 34.6511 244.22 34.6511C243.722 34.6511 243.28 34.6656 242.881 34.6944C242.782 34.6511 242.754 34.4049 242.853 34.3328L243.152 34.2896C243.678 34.2176 243.694 34.0722 243.694 33.0308V30.4987L243.691 30.5Z" fill="#9C9E9F"/>
<path d="M258.845 31.2989C258.746 30.9806 258.689 30.9374 258.261 30.9374H256.11C255.754 30.9374 255.669 30.9806 255.568 31.2845L255.07 32.804C254.856 33.455 254.757 33.8454 254.757 34.0052C254.757 34.1794 254.828 34.2659 255.17 34.2947L255.639 34.3379C255.738 34.41 255.738 34.6418 255.611 34.6995C255.241 34.6707 254.798 34.6706 254.129 34.6562C253.659 34.6562 253.146 34.6851 252.76 34.6995C252.675 34.6418 252.647 34.41 252.732 34.3379L253.202 34.2947C253.543 34.2659 253.857 34.1061 254.057 33.5847C254.313 32.9193 254.712 31.9787 255.31 30.3584L256.764 26.4522C256.964 25.9308 257.049 25.6557 257.006 25.4252C257.348 25.3243 257.59 25.0636 257.747 24.875C257.832 24.875 257.931 24.9038 257.959 25.0047C258.145 25.6413 258.372 26.3068 258.586 26.9434L260.538 32.7595C260.95 34.0039 261.136 34.2213 261.749 34.2934L262.133 34.3366C262.232 34.4087 262.204 34.6405 262.133 34.6982C261.549 34.6693 261.051 34.6549 260.41 34.6549C259.726 34.6549 259.185 34.6837 258.772 34.6982C258.658 34.6405 258.644 34.4087 258.744 34.3366L259.156 34.2934C259.455 34.2646 259.654 34.1768 259.654 34.0327C259.654 33.8742 259.583 33.6135 259.47 33.2664L258.843 31.2989H258.845ZM256.026 30.0112C255.911 30.344 255.927 30.3584 256.325 30.3584H258.077C258.489 30.3584 258.518 30.3007 258.39 29.9104L257.621 27.5525C257.508 27.2054 257.379 26.815 257.294 26.6408H257.265C257.223 26.7128 257.081 27.06 256.924 27.4949L256.026 30.0125V30.0112Z" fill="#9C9E9F"/>
<path d="M265.682 29.0107C265.811 29.329 265.911 29.7914 265.911 30.1818C265.853 30.2826 265.64 30.3127 265.569 30.225C265.326 29.5884 264.9 29.1692 264.315 29.1692C263.731 29.1692 263.403 29.5307 263.403 30.0521C263.403 30.6455 264.002 30.9638 264.5 31.2533C265.256 31.6869 265.953 32.1794 265.953 33.2064C265.953 34.3054 264.956 34.8556 263.903 34.8556C263.233 34.8556 262.735 34.7102 262.378 34.422C262.265 34.1469 262.178 33.4382 262.207 32.9601C262.278 32.8737 262.463 32.8592 262.534 32.9457C262.775 33.7421 263.232 34.4351 264.044 34.4351C264.558 34.4351 264.999 34.1312 264.999 33.509C264.999 32.8435 264.429 32.482 263.901 32.1781C263.076 31.7013 262.492 31.1943 262.492 30.3992C262.492 29.3434 263.347 28.75 264.429 28.75C265.027 28.75 265.553 28.8954 265.682 29.0107Z" fill="#9C9E9F"/>
<path d="M267.634 30.4992C267.634 29.936 267.634 29.8626 267.249 29.6019L267.122 29.5155C267.065 29.4579 267.065 29.298 267.136 29.2548C267.463 29.1395 268.276 28.7636 268.604 28.5461C268.675 28.5461 268.731 28.575 268.747 28.6326C268.718 29.1395 268.69 29.8338 268.69 30.4272V33.0313C268.69 34.0727 268.718 34.2181 269.232 34.2902L269.531 34.3334C269.63 34.4055 269.602 34.6517 269.503 34.6949C269.076 34.6661 268.662 34.6517 268.164 34.6517C267.666 34.6517 267.224 34.6661 266.825 34.6949C266.726 34.6517 266.696 34.4055 266.797 34.3334L267.096 34.2902C267.622 34.2181 267.638 34.0727 267.638 33.0313V30.4992H267.634ZM268.816 26.3769C268.816 26.8982 268.46 27.1288 268.061 27.1288C267.62 27.1288 267.335 26.7961 267.335 26.4057C267.335 25.9289 267.676 25.625 268.103 25.625C268.53 25.625 268.815 25.9721 268.815 26.3769H268.816Z" fill="#9C9E9F"/>
<path d="M273.132 31.658C273.346 31.586 273.375 31.455 273.375 31.2389L273.389 30.5734C273.403 30.039 273.233 29.3146 272.349 29.3146C271.951 29.3146 271.466 29.5176 271.438 29.9656C271.423 30.1975 271.409 30.3704 271.294 30.4568C271.082 30.6311 270.696 30.7319 270.482 30.7319C270.354 30.7319 270.282 30.6599 270.282 30.5289C270.282 29.777 271.892 28.75 272.932 28.75C273.973 28.75 274.457 29.3578 274.414 30.4424L274.329 32.9601C274.301 33.6256 274.428 34.219 274.984 34.219C275.128 34.219 275.255 34.1757 275.34 34.1312C275.411 34.088 275.482 34.0303 275.525 34.0303C275.581 34.0303 275.624 34.1168 275.624 34.219C275.624 34.291 275.126 34.8556 274.428 34.8556C274.087 34.8556 273.745 34.7259 273.502 34.4076C273.446 34.3211 273.359 34.2045 273.274 34.2045C273.175 34.2045 273.003 34.3342 272.718 34.494C272.405 34.6683 272.091 34.8556 271.693 34.8556C271.294 34.8556 270.937 34.739 270.696 34.5229C270.425 34.2766 270.255 33.9151 270.255 33.5103C270.255 32.947 270.526 32.613 271.438 32.2803L273.132 31.658ZM272.249 34.2045C272.534 34.2045 272.976 33.9871 273.118 33.843C273.29 33.6688 273.29 33.4671 273.304 33.1632L273.332 32.3091C273.332 32.1506 273.275 32.1218 273.189 32.1218C273.103 32.1218 272.861 32.1794 272.605 32.2672C271.764 32.5567 271.351 32.7728 271.351 33.3374C271.351 33.5836 271.523 34.2059 272.249 34.2059V34.2045Z" fill="#9C9E9F"/>
</g>
<defs>
<clipPath id="clip0_3654_2451">
<rect width="335" height="35" fill="white"/>
</clipPath>
</defs>
</svg>
