<svg width="314" height="52" viewBox="0 0 314 52" fill="none" xmlns="http://www.w3.org/2000/svg">
<g clip-path="url(#clip0_3654_2530)">
<path d="M48.7189 0.90625H0V8.1475H48.7189V0.90625Z" fill="#FBCA19"/>
<path d="M48.7189 14.2148H0V21.4561H48.7189V14.2148Z" fill="#DF1A17"/>
<path d="M48.7189 28.1094H0V35.3506H48.7189V28.1094Z" fill="#158830"/>
<path d="M48.7189 41.8086H0V49.0498H48.7189V41.8086Z" fill="#646EAA"/>
<path d="M65.0095 2.90815H59.5932V6.12953H64.8536V8.03182H59.5932V12.5116H65.0095V14.4139H57.5537V1.00781H65.0095V2.91011V2.90815Z" fill="black"/>
<path d="M67.4844 14.414L70.3286 0L74.9677 10.4196L79.7706 0L82.3269 14.414H80.2361L78.9323 6.32141L74.9322 15.0305L71.0466 6.31163L69.5929 14.414H67.4844Z" fill="black"/>
<path d="M92.9128 2.90815H87.4965V6.12953H92.757V8.03182H87.4965V12.5116H92.9128V14.4139H85.457V1.00781H92.9128V2.91011V2.90815Z" fill="black"/>
<path d="M100.435 8.70115L104.619 14.4139H102.124L98.2638 8.92622H97.8969V14.4139H95.8574V1.00781H98.246C100.031 1.00781 101.321 1.34052 102.114 2.00593C102.99 2.74767 103.428 3.72622 103.428 4.94157C103.428 5.89076 103.153 6.70687 102.605 7.3899C102.057 8.07292 101.333 8.50935 100.435 8.70115ZM97.8989 7.16287H98.5458C100.477 7.16287 101.443 6.43092 101.443 4.96506C101.443 3.59313 100.504 2.90619 98.6247 2.90619H97.8989V7.16092V7.16287Z" fill="black"/>
<path d="M113.561 7.43153H119.145V7.87383C119.145 8.88174 119.025 9.77221 118.786 10.5492C118.553 11.2674 118.159 11.9387 117.604 12.563C116.35 13.9643 114.754 14.6649 112.817 14.6649C110.88 14.6649 109.308 13.9878 107.961 12.6335C106.614 11.2733 105.939 9.64109 105.939 7.73684C105.939 5.83258 106.626 4.14165 107.997 2.78734C109.368 1.42716 111.036 0.746094 113.003 0.746094C114.058 0.746094 115.044 0.959417 115.961 1.38606C116.837 1.81271 117.697 2.50552 118.543 3.4645L117.09 4.84425C115.981 3.38034 114.63 2.64643 113.038 2.64643C111.608 2.64643 110.409 3.13571 109.441 4.11425C108.472 5.07519 107.987 6.2788 107.987 7.72705C107.987 9.1753 108.527 10.4513 109.606 11.4181C110.616 12.3145 111.709 12.7646 112.888 12.7646C113.892 12.7646 114.794 12.4299 115.592 11.7606C116.391 11.0854 116.837 10.2771 116.932 9.33578H113.563V7.43349L113.561 7.43153Z" fill="black"/>
<path d="M124.016 1.00781V14.4139H121.977V1.00781H124.016Z" fill="black"/>
<path d="M127.533 14.4158V0.0976562L137.387 10.3274V1.00966H139.427V15.2338L129.573 5.03149V14.4177H127.533V14.4158Z" fill="black"/>
<path d="M150.021 7.43153H155.605V7.87383C155.605 8.88174 155.484 9.77221 155.246 10.5492C155.013 11.2674 154.619 11.9387 154.064 12.563C152.81 13.9643 151.214 14.6649 149.277 14.6649C147.34 14.6649 145.768 13.9878 144.421 12.6335C143.074 11.2733 142.399 9.64109 142.399 7.73684C142.399 5.83258 143.086 4.14165 144.457 2.78734C145.827 1.42716 147.496 0.746094 149.463 0.746094C150.518 0.746094 151.504 0.959417 152.421 1.38606C153.297 1.81271 154.157 2.50552 155.003 3.4645L153.55 4.84425C152.441 3.38034 151.09 2.64643 149.498 2.64643C148.068 2.64643 146.869 3.13571 145.9 4.11425C144.932 5.07519 144.447 6.2788 144.447 7.72705C144.447 9.1753 144.987 10.4513 146.066 11.4181C147.076 12.3145 148.169 12.7646 149.348 12.7646C150.352 12.7646 151.254 12.4299 152.052 11.7606C152.851 11.0854 153.297 10.2771 153.392 9.33578H150.023V7.43349L150.021 7.43153Z" fill="black"/>
<path d="M172.175 11.1571H166.39L164.885 14.4137H162.688L169.374 0.164062L175.824 14.4137H173.593L172.175 11.1571ZM171.342 9.25672L169.339 4.69865L167.238 9.25672H171.342Z" fill="black"/>
<path d="M185.422 2.99674L183.769 3.96942C183.46 3.43709 183.166 3.08873 182.886 2.92825C182.594 2.74232 182.217 2.65034 181.757 2.65034C181.191 2.65034 180.722 2.80886 180.349 3.12787C179.976 3.441 179.789 3.83438 179.789 4.30995C179.789 4.96362 180.28 5.49204 181.258 5.89129L182.606 6.43927C183.702 6.87962 184.505 7.41782 185.012 8.05192C185.519 8.68602 185.773 9.46494 185.773 10.3848C185.773 11.6197 185.359 12.6393 184.531 13.4437C183.696 14.254 182.661 14.661 181.424 14.661C180.25 14.661 179.282 14.3146 178.519 13.6238C177.765 12.9329 177.296 11.9622 177.11 10.7116L179.175 10.2595C179.268 11.0463 179.432 11.5903 179.665 11.8917C180.085 12.471 180.698 12.7607 181.503 12.7607C182.138 12.7607 182.667 12.5493 183.087 12.1266C183.507 11.7039 183.716 11.1696 183.716 10.5218C183.716 10.2615 183.679 10.0227 183.608 9.80548C183.535 9.58824 183.42 9.38861 183.266 9.2066C183.112 9.0246 182.911 8.85433 182.667 8.69385C182.422 8.53336 182.13 8.38267 181.791 8.23784L180.487 7.69964C178.637 6.92463 177.714 5.79147 177.714 4.29821C177.714 3.29227 178.102 2.45072 178.878 1.77356C179.653 1.09053 180.619 0.75 181.775 0.75C183.333 0.75 184.548 1.49957 185.424 2.9987L185.422 2.99674Z" fill="black"/>
<path d="M190.539 1.00781V14.4139H188.499V1.00781H190.539Z" fill="black"/>
<path d="M201.992 11.1571H196.207L194.702 14.4137H192.505L199.191 0.164062L205.641 14.4137H203.41L201.992 11.1571ZM201.16 9.25672L199.156 4.69865L197.055 9.25672H201.16Z" fill="black"/>
<path d="M57.082 33.9843L59.9263 19.5703L64.5654 29.9899L69.3702 19.5703L71.9265 33.9843H69.8357L68.532 25.8917L64.5319 34.6008L60.6462 25.8819L59.1925 33.9843H57.084H57.082Z" fill="black"/>
<path d="M82.9922 30.7274H77.2071L75.7022 33.984H73.5049L80.1914 19.7344L86.6412 33.984H84.4104L82.9922 30.7274ZM82.1599 28.827L80.1559 24.269L78.0553 28.827H82.1599Z" fill="black"/>
<path d="M88.5996 33.9861V19.668L98.4538 29.8977V20.58H100.493V34.8041L90.6391 24.6018V33.988H88.5996V33.9861Z" fill="black"/>
<path d="M106.038 20.5781V28.6472C106.038 29.798 106.227 30.6395 106.606 31.1719C107.172 31.941 107.969 32.3266 108.994 32.3266C110.02 32.3266 110.827 31.941 111.393 31.1719C111.771 30.6572 111.961 29.8156 111.961 28.6472V20.5781H114V29.2089C114 30.6219 113.556 31.7844 112.671 32.7004C111.673 33.72 110.448 34.2289 108.996 34.2289C107.544 34.2289 106.322 33.72 105.329 32.7004C104.442 31.7864 104 30.6219 104 29.2089V20.5781H106.039H106.038Z" fill="black"/>
<path d="M124.255 22.4785H119.546V25.6998H124.089V27.6021H119.546V33.9842H117.507V20.5781H124.255V22.4804V22.4785Z" fill="black"/>
<path d="M133.932 30.7274H128.147L126.642 33.984H124.444L131.131 19.7344L137.581 33.984H135.35L133.932 30.7274ZM133.101 28.827L131.097 24.269L128.997 28.827H133.101Z" fill="black"/>
<path d="M148.894 21.295V23.6865C147.715 22.708 146.496 22.2187 145.236 22.2187C143.847 22.2187 142.677 22.7138 141.727 23.7041C140.77 24.6886 140.291 25.8922 140.291 27.3169C140.291 28.7417 140.77 29.9101 141.727 30.8769C142.683 31.8437 143.857 32.3271 145.245 32.3271C145.963 32.3271 146.573 32.2116 147.074 31.9807C147.354 31.8652 147.644 31.7087 147.944 31.511C148.243 31.3133 148.561 31.0765 148.892 30.7986V33.243C147.725 33.9006 146.5 34.2294 145.218 34.2294C143.287 34.2294 141.638 33.5601 140.273 32.2234C138.914 30.8749 138.233 29.2486 138.233 27.3424C138.233 25.6338 138.801 24.1132 139.94 22.7745C141.34 21.1364 143.151 20.3164 145.374 20.3164C146.587 20.3164 147.76 20.6413 148.892 21.293L148.894 21.295Z" fill="black"/>
<path d="M155.464 22.4804V33.9862H153.425V22.4804H150.318V20.5781H158.563V22.4804H155.464Z" fill="black"/>
<path d="M162.69 20.5781V28.6472C162.69 29.798 162.879 30.6395 163.258 31.1719C163.824 31.941 164.621 32.3266 165.647 32.3266C166.672 32.3266 167.479 31.941 168.045 31.1719C168.424 30.6572 168.613 29.8156 168.613 28.6472V20.5781H170.653V29.2089C170.653 30.6219 170.209 31.7844 169.323 32.7004C168.325 33.72 167.1 34.2289 165.648 34.2289C164.197 34.2289 162.974 33.72 161.982 32.7004C161.094 31.7864 160.652 30.6219 160.652 29.2089V20.5781H162.692H162.69Z" fill="black"/>
<path d="M178.737 28.2715L182.921 33.9842H180.426L176.566 28.4965H176.199V33.9842H174.159V20.5781H176.548C178.333 20.5781 179.623 20.9108 180.416 21.5762C181.291 22.318 181.729 23.2965 181.729 24.5119C181.729 25.4611 181.455 26.2772 180.907 26.9602C180.359 27.6432 179.635 28.0797 178.737 28.2715ZM176.201 26.7332H176.848C178.779 26.7332 179.745 26.0012 179.745 24.5354C179.745 23.1634 178.806 22.4765 176.926 22.4765H176.201V26.7312V26.7332Z" fill="black"/>
<path d="M187.26 20.5781V33.9842H185.221V20.5781H187.26Z" fill="black"/>
<path d="M190.775 33.9861V19.668L200.63 29.8977V20.58H202.669V34.8041L192.815 24.6018V33.988H190.775V33.9861Z" fill="black"/>
<path d="M213.262 27.0057H218.846V27.4481C218.846 28.456 218.726 29.3464 218.487 30.1234C218.254 30.8417 217.86 31.5129 217.306 32.1372C216.051 33.5385 214.455 34.2392 212.518 34.2392C210.582 34.2392 209.01 33.562 207.662 32.2077C206.315 30.8475 205.641 29.2153 205.641 27.3111C205.641 25.4068 206.327 23.7159 207.698 22.3616C209.069 21.0014 210.737 20.3203 212.704 20.3203C213.759 20.3203 214.745 20.5336 215.663 20.9603C216.538 21.3869 217.398 22.0797 218.244 23.0387L216.791 24.4185C215.682 22.9546 214.331 22.2207 212.739 22.2207C211.309 22.2207 210.11 22.7099 209.142 23.6885C208.173 24.6494 207.688 25.853 207.688 27.3013C207.688 28.7495 208.228 30.0255 209.307 30.9923C210.317 31.8887 211.41 32.3388 212.589 32.3388C213.593 32.3388 214.495 32.0042 215.294 31.3348C216.093 30.6596 216.538 29.8514 216.633 28.91H213.264V27.0077L213.262 27.0057Z" fill="black"/>
<path d="M229.519 20.5781V33.9842H227.479V20.5781H229.519Z" fill="black"/>
<path d="M233.034 33.9861V19.668L242.888 29.8977V20.58H244.928V34.8041L235.074 24.6018V33.988H233.034V33.9861Z" fill="black"/>
<path d="M248.435 33.9842V20.5781H251.271C252.63 20.5781 253.703 20.7112 254.492 20.9774C255.338 21.2377 256.105 21.68 256.794 22.3062C258.188 23.5686 258.884 25.2262 258.884 27.2812C258.884 29.3361 258.159 31.0094 256.705 32.2835C255.975 32.9196 255.212 33.3638 254.413 33.6124C253.665 33.8609 252.606 33.9862 251.235 33.9862H248.435V33.9842ZM250.472 32.0839H251.391C252.306 32.0839 253.068 31.988 253.675 31.7981C254.283 31.5946 254.831 31.2736 255.32 30.8333C256.324 29.9252 256.825 28.7412 256.825 27.2812C256.825 25.8212 256.33 24.6176 255.338 23.7036C254.445 22.8875 253.129 22.4785 251.391 22.4785H250.472V32.0819V32.0839Z" fill="black"/>
<path d="M269.173 22.4785H263.756V25.6998H269.017V27.6021H263.756V32.0819H269.173V33.9842H261.717V20.5781H269.173V22.4804V22.4785Z" fill="black"/>
<path d="M274.946 26.9778L271.226 20.5781H273.545L276.127 25.1186L278.839 20.5781H281.177L277.283 26.9778L281.37 33.9862H279.086L276.094 28.8547L273.013 33.9862H270.703L274.948 26.9778H274.946Z" fill="black"/>
<path d="M287.96 28.582H291.263V29.8307H285.305L288.386 26.1298C288.687 25.7619 288.942 25.4409 289.147 25.1728C289.352 24.9027 289.508 24.6776 289.616 24.4937C289.835 24.1355 289.944 23.8145 289.944 23.5308C289.944 23.1198 289.798 22.7773 289.508 22.4994C289.216 22.2215 288.857 22.0825 288.427 22.0825C287.532 22.0825 287.017 22.609 286.887 23.6619H285.553C285.768 21.8066 286.713 20.8789 288.386 20.8789C289.194 20.8789 289.873 21.1333 290.419 21.6422C290.971 22.151 291.248 22.7832 291.248 23.5347C291.248 24.0142 291.119 24.4839 290.863 24.9438C290.733 25.1826 290.541 25.4683 290.291 25.7971C290.04 26.1259 289.723 26.5153 289.34 26.9635L287.962 28.582H287.96Z" fill="black"/>
<path d="M292.952 25.3685C292.952 23.9653 293.282 22.8458 293.94 22.0101C294.53 21.2547 295.244 20.875 296.084 20.875C296.925 20.875 297.639 21.2527 298.228 22.0101C298.887 22.8458 299.217 23.9848 299.217 25.4252C299.217 26.8657 298.887 27.9988 298.228 28.8345C297.639 29.5919 296.927 29.9696 296.09 29.9696C295.254 29.9696 294.538 29.5919 293.94 28.8345C293.282 27.9988 292.952 26.8422 292.952 25.3685ZM294.274 25.3744C294.274 26.351 294.443 27.1631 294.785 27.809C295.126 28.4431 295.56 28.7621 296.086 28.7621C296.613 28.7621 297.045 28.445 297.388 27.809C297.733 27.1788 297.905 26.3823 297.905 25.4194C297.905 24.4565 297.733 23.6599 297.388 23.0239C297.043 22.3937 296.609 22.0767 296.086 22.0767C295.564 22.0767 295.134 22.3917 294.79 23.0239C294.445 23.6521 294.274 24.435 294.274 25.3724V25.3744Z" fill="black"/>
<path d="M302.841 28.582H306.145V29.8307H300.187L303.267 26.1298C303.569 25.7619 303.824 25.4409 304.029 25.1728C304.234 24.9027 304.39 24.6776 304.498 24.4937C304.717 24.1355 304.826 23.8145 304.826 23.5308C304.826 23.1198 304.68 22.7773 304.39 22.4994C304.098 22.2215 303.739 22.0825 303.309 22.0825C302.413 22.0825 301.899 22.609 301.768 23.6619H300.435C300.65 21.8066 301.595 20.8789 303.267 20.8789C304.076 20.8789 304.755 21.1333 305.301 21.6422C305.853 22.151 306.129 22.7832 306.129 23.5347C306.129 24.0142 306.001 24.4839 305.745 24.9438C305.615 25.1826 305.423 25.4683 305.173 25.7971C304.922 26.1259 304.605 26.5153 304.222 26.9635L302.843 28.582H302.841Z" fill="black"/>
<path d="M313.057 27.3716H313.999V28.5811H313.057V29.8297H311.717V28.5811H307.362L313.057 20.3711V27.3736V27.3716ZM311.717 27.3716V24.4242L309.672 27.3716H311.717Z" fill="black"/>
<path d="M59.9798 41.1395C60.0074 41.0416 60.0252 40.9536 60.037 40.8753C60.0488 40.797 60.0547 40.7305 60.0547 40.6776C60.0547 40.6189 60.0409 40.5621 60.0114 40.5073C59.9818 40.4525 59.9127 40.4075 59.8062 40.3762C59.7747 40.3664 59.7214 40.3606 59.6484 40.3567C59.5735 40.3527 59.4137 40.343 59.1652 40.3293V40.0944C59.3092 40.0729 59.467 40.0513 59.6366 40.0337C59.8062 40.0161 60.035 39.9848 60.325 39.9398C60.3565 39.9359 60.4926 39.9065 60.7352 39.8537C60.9778 39.8008 61.1494 39.7734 61.254 39.7734C61.2757 39.7734 61.2974 39.7832 61.3191 39.8008C61.3388 39.8185 61.3487 39.8459 61.3487 39.8811L61.3348 39.9672L59.9581 45.0263C60.3605 44.4548 60.7017 44.0399 60.9838 43.7816C61.4749 43.3314 61.9838 43.1064 62.5065 43.1064C62.9976 43.1064 63.3921 43.2688 63.6899 43.5917C63.9878 43.9146 64.1357 44.3159 64.1357 44.7934C64.1357 45.905 63.6485 46.9442 62.6721 47.913C61.7234 48.8544 60.7411 49.326 59.7253 49.326C59.2618 49.326 58.8378 49.2242 58.4512 49.0188C58.0646 48.8172 57.8871 48.6567 57.9186 48.5373L59.9818 41.1414L59.9798 41.1395ZM62.0272 47.4707C62.6505 46.5469 62.9621 45.7015 62.9621 44.9343C62.9621 44.5859 62.8694 44.308 62.686 44.1006C62.5025 43.8931 62.2717 43.7894 61.9936 43.7894C61.2816 43.7894 60.6011 44.4235 59.9502 45.6897C59.3861 46.7916 59.104 47.7055 59.104 48.4336C59.104 48.6078 59.1593 48.7467 59.2717 48.8524C59.3841 48.9581 59.5597 49.009 59.8023 49.009C60.5952 49.009 61.3368 48.4962 62.0272 47.4687V47.4707Z" fill="#58595B"/>
<path d="M64.2816 51.0122C64.3724 50.9104 64.5025 50.8576 64.6722 50.8576C64.7846 50.8576 64.8832 50.8791 64.968 50.9202C65.0528 50.9633 65.1436 51.0239 65.2382 51.1042L65.3329 51.1707C65.3605 51.1922 65.3901 51.2098 65.4237 51.2216C65.4572 51.2333 65.4947 51.2392 65.5341 51.2392C65.755 51.2392 66.1081 50.9515 66.5973 50.3742C67.0844 49.7968 67.329 49.378 67.329 49.1138C67.329 48.8496 67.2442 48.374 67.0765 47.644C66.9089 46.914 66.7452 46.2643 66.5874 45.6928C66.3665 44.8904 66.1653 44.3483 65.9838 44.0625C65.8024 43.7768 65.5321 43.6359 65.1771 43.6359C65.1495 43.6359 65.1041 43.6398 65.039 43.6457C64.9739 43.6515 64.8615 43.6652 64.7057 43.6829V43.4617L66.546 43.1075L66.688 43.0938C66.8004 43.0801 67.0154 43.583 67.3349 44.5988C67.6229 45.5127 67.8004 46.1782 67.8714 46.595L68.1436 48.192C68.617 47.4053 68.9622 46.8025 69.1831 46.3817C69.6151 45.5558 69.832 44.9765 69.832 44.6458C69.832 44.5694 69.8182 44.4951 69.7906 44.4207C69.763 44.3463 69.6999 44.2837 69.6012 44.2289L69.4868 44.1682C69.4158 44.133 69.331 44.0665 69.2344 43.9666C69.1377 43.8688 69.0884 43.7357 69.0884 43.5713C69.0884 43.4324 69.1338 43.3169 69.2225 43.2229C69.3133 43.129 69.4474 43.082 69.6269 43.082C69.8517 43.082 70.0332 43.1486 70.1732 43.2797C70.3133 43.4108 70.3823 43.6359 70.3823 43.9529C70.3823 44.4305 70.12 45.1977 69.5934 46.2564C69.189 47.0628 68.7373 47.8436 68.2383 48.601C67.613 49.5463 67.0765 50.2744 66.6268 50.7871C65.9128 51.5934 65.3191 51.9966 64.8457 51.9966C64.6603 51.9966 64.4986 51.9398 64.3566 51.8302C64.2146 51.7187 64.1436 51.566 64.1436 51.3742C64.1436 51.2314 64.1889 51.1081 64.2777 51.0063L64.2816 51.0122Z" fill="#58595B"/>
<path d="M73.9619 48.9435C74.2854 48.9161 74.5083 48.8593 74.6286 48.7693C74.8179 48.6362 74.9718 48.3563 75.0941 47.9336L76.7864 41.8705C76.8357 41.6885 76.8752 41.53 76.9048 41.3989C76.9344 41.2677 76.9482 41.1523 76.9482 41.0544C76.9482 40.8313 76.8712 40.6767 76.7194 40.5886C76.5655 40.5025 76.2854 40.4536 75.8771 40.4438V40.2227H79.4453C80.106 40.2227 80.6859 40.2814 81.1849 40.3968C81.684 40.5123 82.1475 40.7511 82.5755 41.1131C82.8773 41.3813 83.1278 41.6983 83.3309 42.0643C83.6268 42.6181 83.7767 43.2405 83.7767 43.9314C83.7767 45.3052 83.2441 46.4971 82.179 47.505C81.0094 48.6108 79.4906 49.1646 77.6188 49.1646H73.9639V48.9435H73.9619ZM81.5972 46.2681C82.0153 45.4168 82.2244 44.5478 82.2244 43.6652C82.2244 42.7825 82.0133 42.0956 81.5893 41.5104C81.1652 40.9253 80.4038 40.6336 79.3013 40.6336C78.9995 40.6336 78.7845 40.663 78.6563 40.7198C78.5281 40.7785 78.4433 40.8802 78.4038 41.027L76.5162 47.7399C76.4807 47.8729 76.457 47.9728 76.4491 48.0334C76.4393 48.096 76.4353 48.1587 76.4353 48.2213C76.4353 48.417 76.4965 48.5521 76.6168 48.6225C76.7391 48.6949 76.9876 48.7301 77.3663 48.7301C79.3723 48.7301 80.7826 47.9101 81.5952 46.2681H81.5972Z" fill="#58595B"/>
<path d="M85.8462 44.5126C86.7358 43.5849 87.6569 43.1211 88.6056 43.1211C88.9567 43.1211 89.2348 43.2013 89.4419 43.3618C89.649 43.5223 89.7516 43.7611 89.7516 44.0762C89.7516 44.7181 89.3729 45.2661 88.6155 45.7221C87.8581 46.1781 87.0612 46.4579 86.2249 46.5597L85.8403 46.6067C85.7811 46.7906 85.7416 46.9355 85.718 47.0451C85.6963 47.1547 85.6845 47.2917 85.6845 47.4561C85.6845 47.8494 85.8146 48.1547 86.073 48.3739C86.3314 48.5931 86.6391 48.7027 86.9941 48.7027C87.3492 48.7027 87.6884 48.5912 88.0671 48.3681C88.2821 48.2389 88.5957 48.006 89.004 47.6713L89.1796 47.8259C88.9764 48.0804 88.6865 48.3407 88.3097 48.6088C87.6391 49.0863 86.9665 49.3251 86.2939 49.3251C85.8166 49.3251 85.3985 49.1587 85.0395 48.8241C84.6805 48.4894 84.499 48.0099 84.499 47.3876C84.499 46.3973 84.9487 45.4402 85.8482 44.5126H85.8462ZM88.0316 45.4089C88.5721 44.9353 88.8403 44.4637 88.8403 43.9959C88.8403 43.8276 88.7989 43.6926 88.718 43.5928C88.6372 43.4929 88.5188 43.4421 88.361 43.4421C88.0691 43.4421 87.7811 43.5654 87.5011 43.8119C87.221 44.0585 86.9665 44.3384 86.7417 44.6496C86.503 45.0156 86.3137 45.3639 86.1756 45.6986C86.0987 45.8767 86.0178 46.0783 85.933 46.3053C86.791 46.18 87.4912 45.8806 88.0316 45.407V45.4089Z" fill="#58595B"/>
<path d="M95.4385 43.4534L91.4385 48.1642C91.7264 48.2229 91.9533 48.2914 92.1189 48.3716C92.4069 48.5106 92.6614 48.7219 92.8803 49.0057L93.2925 49.54C93.3912 49.6692 93.5056 49.7768 93.6357 49.8668C93.7659 49.9549 93.9079 49.9999 94.0598 49.9999C94.1722 49.9999 94.2649 49.9784 94.3359 49.9334C94.407 49.8884 94.4444 49.8355 94.4444 49.7749C94.4444 49.7435 94.4129 49.6633 94.3498 49.5322C94.2866 49.4011 94.2551 49.2778 94.2551 49.1623C94.2551 49.0253 94.3024 48.9196 94.401 48.8452C94.4977 48.7728 94.6042 48.7356 94.7206 48.7356C94.8863 48.7356 95.0105 48.7865 95.0914 48.8903C95.1723 48.992 95.2137 49.1231 95.2137 49.2778C95.2137 49.5185 95.0874 49.7455 94.833 49.9608C94.5786 50.1761 94.2689 50.2817 93.906 50.2817C93.6989 50.2817 93.4977 50.2446 93.2985 50.1721C93.1821 50.1271 93.042 50.0586 92.8803 49.9706L92.0637 49.5185C91.7974 49.3717 91.5805 49.266 91.4128 49.2014C91.2452 49.1368 91.0716 49.1036 90.896 49.1036C90.7737 49.1036 90.6751 49.1212 90.6002 49.1564C90.5233 49.1916 90.4207 49.2582 90.2905 49.358L90.1426 49.2308L94.4425 44.1247H92.4286C92.1229 44.1247 91.8921 44.1776 91.7363 44.2852C91.5805 44.3928 91.4385 44.6081 91.3083 44.935L91.0854 44.8821L91.5174 43.2969H95.4366V43.4574L95.4385 43.4534Z" fill="#58595B"/>
<path d="M100.637 43.3677C100.742 43.4656 100.823 43.5948 100.884 43.7552L100.917 43.8492L101.069 43.3443C101.087 43.2875 101.103 43.2484 101.117 43.2288C101.13 43.2092 101.162 43.1975 101.213 43.1916L101.99 43.1055C102.032 43.1055 102.056 43.1133 102.063 43.129C102.069 43.1446 102.069 43.172 102.059 43.2131C102.04 43.2718 102.026 43.3169 102.016 43.3501C102.006 43.3834 101.992 43.4323 101.973 43.493L101.306 45.8885C101.16 46.411 101.038 46.8612 100.935 47.2389C100.77 47.9239 100.685 48.3153 100.685 48.4131C100.685 48.4758 100.702 48.5208 100.736 48.5501C100.77 48.5795 100.811 48.5932 100.86 48.5932C100.902 48.5932 100.945 48.5795 100.994 48.5521C101.044 48.5247 101.105 48.4855 101.176 48.4307L101.296 48.3368C101.334 48.3055 101.377 48.2683 101.424 48.2272C101.472 48.1842 101.529 48.1333 101.594 48.0706L102.034 47.642L102.196 47.7829C101.714 48.3759 101.33 48.7791 101.038 48.9905C100.746 49.2018 100.47 49.3075 100.205 49.3075C100.034 49.3075 99.9036 49.2488 99.8109 49.1333C99.7182 49.0179 99.6728 48.873 99.6728 48.6989C99.6728 48.5384 99.7024 48.3074 99.7636 48.008C99.8247 47.7066 99.8839 47.4542 99.9431 47.2506C99.8622 47.3857 99.7261 47.5794 99.5348 47.8377C99.3434 48.0941 99.1087 48.3427 98.8306 48.5854C98.5032 48.875 98.1896 49.0805 97.8878 49.2018C97.6551 49.2821 97.4302 49.3232 97.2152 49.3232C96.8523 49.3232 96.5209 49.1744 96.225 48.877C95.9292 48.5795 95.7812 48.1587 95.7812 47.6146C95.7812 46.6772 96.2093 45.6986 97.0633 44.681C97.945 43.6222 98.8582 43.0938 99.805 43.0938C100.164 43.0938 100.442 43.1857 100.637 43.3677ZM100.418 43.6222C100.269 43.4695 100.087 43.3951 99.874 43.3951C99.1344 43.3951 98.446 43.9529 97.8089 45.0704C97.2507 46.0529 96.9706 46.9003 96.9706 47.6107C96.9706 47.9689 97.0475 48.2292 97.2034 48.3916C97.3572 48.554 97.5505 48.6362 97.7793 48.6362C98.4559 48.6362 99.1087 48.0941 99.7379 47.0079C100.343 46.0216 100.645 45.1291 100.645 44.3345C100.645 44.0136 100.57 43.7768 100.42 43.6241L100.418 43.6222Z" fill="#58595B"/>
<path d="M102.73 49.1646L103.884 45.0293C103.983 44.679 104.04 44.4676 104.056 44.3932C104.072 44.3189 104.08 44.2386 104.08 44.1545C104.08 44.0253 104.042 43.9216 103.969 43.8492C103.894 43.7748 103.75 43.7376 103.533 43.7376C103.48 43.7376 103.427 43.7415 103.375 43.7474C103.324 43.7533 103.267 43.7611 103.204 43.7709V43.5497C103.494 43.5047 103.701 43.4714 103.823 43.4499C103.945 43.4284 104.08 43.401 104.222 43.3697L105.421 43.1094C105.448 43.127 105.466 43.1466 105.474 43.17L104.581 46.0489C105.133 45.2152 105.594 44.5948 105.965 44.1877C106.618 43.4695 107.202 43.1094 107.717 43.1094C107.916 43.1094 108.088 43.1466 108.234 43.2229C108.51 43.3697 108.648 43.6358 108.648 44.0194C108.648 44.1271 108.636 44.2386 108.614 44.3541C108.593 44.4696 108.563 44.5948 108.527 44.7298L107.64 47.9356C107.622 48.0021 107.602 48.0843 107.579 48.1802C107.557 48.2761 107.545 48.3446 107.545 48.3837C107.545 48.4503 107.561 48.511 107.593 48.5638C107.624 48.6166 107.673 48.644 107.742 48.644C107.855 48.644 107.983 48.5755 108.131 48.4405C108.277 48.3035 108.518 48.0139 108.849 47.5676L109.044 47.7418C108.683 48.237 108.395 48.5853 108.184 48.7849C107.823 49.1372 107.476 49.3134 107.147 49.3134C106.997 49.3134 106.853 49.2625 106.713 49.1627C106.573 49.0629 106.504 48.8808 106.504 48.6166C106.504 48.5403 106.51 48.4601 106.521 48.3759C106.533 48.2918 106.547 48.2174 106.565 48.1548L107.425 44.9021C107.47 44.724 107.5 44.5772 107.516 44.4637C107.531 44.3502 107.539 44.268 107.539 44.219C107.539 44.1114 107.514 44.0194 107.46 43.9411C107.409 43.8629 107.316 43.8237 107.184 43.8237C106.843 43.8237 106.413 44.1271 105.892 44.7338C105.587 45.0939 105.277 45.5244 104.963 46.0235C104.729 46.411 104.543 46.7887 104.409 47.1566C104.273 47.5246 104.06 48.1939 103.764 49.1646H102.729H102.73Z" fill="#58595B"/>
<path d="M113.541 46.3585L113.803 46.3918C113.799 46.5483 113.797 46.6403 113.797 46.6657C113.797 47.3625 113.992 47.9202 114.381 48.343C114.769 48.7638 115.245 48.9751 115.807 48.9751C116.369 48.9751 116.813 48.7853 117.123 48.4056C117.432 48.0259 117.588 47.611 117.588 47.1609C117.588 46.9906 117.558 46.8125 117.501 46.6246C117.411 46.335 117.263 46.0767 117.056 45.8477L116.192 44.9102C115.527 44.1881 115.099 43.6694 114.91 43.3583C114.72 43.0451 114.626 42.7065 114.626 42.3406C114.626 41.7789 114.837 41.2603 115.259 40.7847C115.681 40.3091 116.302 40.0723 117.121 40.0723C117.486 40.0723 117.86 40.133 118.247 40.2563C118.633 40.3796 118.864 40.4402 118.941 40.4402C119.089 40.4402 119.211 40.3991 119.306 40.3169C119.401 40.2347 119.478 40.1486 119.535 40.0586H119.852L119.292 42.7887L119.05 42.7555C119.028 42.1057 118.943 41.6321 118.801 41.3346C118.541 40.8062 118.05 40.54 117.328 40.54C116.884 40.54 116.523 40.6653 116.245 40.9178C115.967 41.1702 115.827 41.4853 115.827 41.865C115.827 42.1723 115.89 42.4306 116.016 42.64C116.142 42.8494 116.383 43.143 116.738 43.5227L117.987 44.8535C118.211 45.0942 118.401 45.3662 118.553 45.6715C118.704 45.9768 118.781 46.333 118.781 46.7382C118.781 47.4525 118.531 48.0846 118.03 48.6346C117.529 49.1845 116.86 49.4605 116.024 49.4605C115.588 49.4605 115.146 49.3763 114.698 49.21C114.251 49.0436 113.973 48.9595 113.866 48.9595C113.704 48.9595 113.588 48.9966 113.515 49.073C113.442 49.1493 113.377 49.2628 113.32 49.4135H113.077L113.543 46.3546L113.541 46.3585Z" fill="#58595B"/>
<path d="M121.386 40.1921C121.676 40.151 121.91 40.1197 122.09 40.0943C122.269 40.0708 122.425 40.0473 122.555 40.0238C123.092 39.922 123.38 39.8653 123.419 39.8574C123.461 39.8477 123.492 39.8438 123.514 39.8438C123.569 39.8711 123.595 39.9044 123.595 39.9436L121.924 45.9205C122.482 45.0907 122.938 44.484 123.293 44.1004C123.912 43.4409 124.482 43.1101 125.001 43.1101C125.214 43.1101 125.419 43.1786 125.617 43.3137C125.814 43.4507 125.912 43.6934 125.912 44.0456C125.912 44.1298 125.901 44.2394 125.879 44.3744C125.857 44.5075 125.83 44.6269 125.798 44.7287L124.903 47.9344C124.875 48.0244 124.853 48.1105 124.835 48.1927C124.818 48.2749 124.808 48.3493 124.808 48.4178C124.808 48.4941 124.826 48.5509 124.861 48.588C124.897 48.6252 124.948 48.6448 125.017 48.6448C125.157 48.6448 125.321 48.5489 125.51 48.3571C125.626 48.2358 125.845 47.9735 126.165 47.5664L126.34 47.7269C126.027 48.1908 125.759 48.5293 125.538 48.7446C125.147 49.1243 124.755 49.3141 124.358 49.3141C124.179 49.3141 124.029 49.2574 123.906 49.1478C123.786 49.0362 123.725 48.8757 123.725 48.6663C123.725 48.6076 123.729 48.5528 123.735 48.5019C123.741 48.451 123.755 48.3943 123.772 48.3317L124.79 44.4096C124.8 44.3744 124.808 44.3372 124.814 44.3001C124.82 44.2629 124.824 44.2237 124.824 44.1826C124.824 44.0711 124.79 43.985 124.723 43.9223C124.652 43.8597 124.559 43.8284 124.449 43.8284C124.149 43.8284 123.772 44.0691 123.315 44.5486C122.859 45.0281 122.474 45.5174 122.161 46.0184C121.946 46.3707 121.784 46.7034 121.676 47.0165C121.565 47.3296 121.354 48.0479 121.042 49.1713H119.993L122.259 41.0532C122.273 40.9945 122.281 40.9456 122.287 40.9065C122.291 40.8654 122.293 40.8282 122.293 40.7929C122.293 40.6011 122.23 40.4857 122.104 40.4485C121.977 40.4113 121.737 40.4015 121.382 40.4191V40.198L121.386 40.1921Z" fill="#58595B"/>
<path d="M129.786 43.0977C129.81 43.1134 129.821 43.133 129.816 43.1545L128.455 47.9337C128.391 48.1881 128.36 48.3408 128.36 48.3897C128.36 48.4563 128.374 48.515 128.401 48.5639C128.423 48.6167 128.48 48.6441 128.569 48.6441C128.721 48.6441 128.924 48.513 129.176 48.2488C129.324 48.0922 129.508 47.8691 129.723 47.5795L129.898 47.7263L129.831 47.8202C129.494 48.2879 129.216 48.6265 128.995 48.8301C128.648 49.151 128.311 49.3115 127.983 49.3115C127.79 49.3115 127.628 49.2313 127.5 49.0708C127.372 48.9103 127.309 48.7205 127.309 48.5013C127.309 48.3721 127.318 48.2586 127.336 48.1627C127.354 48.0668 127.387 47.9259 127.437 47.738L128.397 44.2974C128.411 44.2446 128.421 44.1957 128.431 44.1506C128.441 44.1056 128.445 44.0606 128.445 44.0176C128.445 43.8571 128.386 43.7573 128.267 43.7201C128.149 43.6829 127.914 43.6633 127.563 43.6633V43.4422C127.934 43.3972 128.2 43.3639 128.362 43.3385C128.526 43.315 128.689 43.2876 128.853 43.2621C129.068 43.2269 129.271 43.1858 129.462 43.1408C129.654 43.0958 129.762 43.0821 129.788 43.0977H129.786ZM129.151 41.4225C129.021 41.2796 128.956 41.1074 128.956 40.9077C128.956 40.7081 129.021 40.5281 129.151 40.3852C129.281 40.2423 129.439 40.1719 129.622 40.1719C129.806 40.1719 129.965 40.2443 130.098 40.3852C130.23 40.5281 130.297 40.7022 130.297 40.9077C130.297 41.1132 130.23 41.2855 130.098 41.4264C129.965 41.5673 129.806 41.6377 129.622 41.6377C129.439 41.6377 129.281 41.5673 129.151 41.4244V41.4225Z" fill="#58595B"/>
<path d="M133.395 43.1114C133.411 43.1368 133.419 43.1642 133.419 43.1955C133.415 43.2406 133.411 43.2758 133.407 43.2973L132.72 45.9081L132.876 45.5989C133.2 44.9687 133.578 44.3952 134.012 43.8747C134.446 43.3541 134.859 43.0957 135.249 43.0957C135.46 43.0957 135.624 43.1642 135.738 43.3032C135.853 43.4421 135.91 43.6007 135.91 43.7788C135.91 43.9803 135.853 44.1467 135.738 44.2778C135.624 44.4089 135.466 44.4755 135.263 44.4755C135.123 44.4755 135.018 44.4481 134.947 44.3952C134.876 44.3424 134.819 44.2798 134.78 44.2074L134.699 44.0606C134.681 44.0332 134.659 44.0136 134.636 43.998C134.612 43.9823 134.58 43.9745 134.545 43.9745C134.369 43.9745 134.117 44.2172 133.786 44.7045C133.454 45.1918 133.158 45.7182 132.898 46.2838C132.74 46.6283 132.565 47.0823 132.371 47.6499C132.249 48.0061 132.085 48.513 131.882 49.1686H130.847L131.971 45.1389C132.034 44.9061 132.085 44.6986 132.123 44.5166C132.16 44.3346 132.18 44.1839 132.18 44.0684C132.18 43.9353 132.147 43.8316 132.079 43.7611C132.012 43.6907 131.894 43.6535 131.728 43.6535C131.675 43.6535 131.606 43.6574 131.525 43.6672C131.444 43.677 131.348 43.6868 131.235 43.7005V43.4793L131.505 43.4265C131.857 43.356 132.239 43.2797 132.655 43.1995C133.072 43.1192 133.291 43.0781 133.314 43.0781C133.356 43.0781 133.383 43.0899 133.399 43.1153L133.395 43.1114Z" fill="#58595B"/>
<path d="M140.932 43.3677C141.037 43.4656 141.118 43.5948 141.179 43.7552L141.212 43.8492L141.364 43.3443C141.382 43.2875 141.398 43.2484 141.412 43.2288C141.425 43.2092 141.457 43.1975 141.508 43.1916L142.285 43.1055C142.327 43.1055 142.35 43.1133 142.358 43.129C142.364 43.1446 142.364 43.172 142.354 43.2131C142.335 43.2718 142.321 43.3169 142.311 43.3501C142.301 43.3834 142.287 43.4323 142.268 43.493L141.601 45.8885C141.455 46.411 141.333 46.8612 141.23 47.2389C141.064 47.9239 140.98 48.3153 140.98 48.4131C140.98 48.4758 140.997 48.5208 141.031 48.5501C141.064 48.5795 141.106 48.5932 141.155 48.5932C141.197 48.5932 141.24 48.5795 141.289 48.5521C141.339 48.5247 141.4 48.4855 141.471 48.4307L141.591 48.3368C141.629 48.3055 141.672 48.2683 141.719 48.2272C141.767 48.1842 141.824 48.1333 141.889 48.0706L142.329 47.642L142.49 47.7829C142.009 48.3759 141.625 48.7791 141.333 48.9905C141.041 49.2018 140.765 49.3075 140.5 49.3075C140.329 49.3075 140.199 49.2488 140.106 49.1333C140.013 49.0179 139.968 48.873 139.968 48.6989C139.968 48.5384 139.997 48.3074 140.058 48.008C140.12 47.7066 140.179 47.4542 140.238 47.2506C140.157 47.3857 140.021 47.5794 139.83 47.8377C139.638 48.0941 139.404 48.3427 139.126 48.5854C138.798 48.875 138.485 49.0805 138.183 49.2018C137.95 49.2821 137.725 49.3232 137.51 49.3232C137.147 49.3232 136.816 49.1744 136.52 48.877C136.224 48.5795 136.076 48.1587 136.076 47.6146C136.076 46.6772 136.504 45.6986 137.358 44.681C138.24 43.6222 139.153 43.0938 140.1 43.0938C140.459 43.0938 140.737 43.1857 140.932 43.3677ZM140.713 43.6222C140.563 43.4695 140.382 43.3951 140.169 43.3951C139.429 43.3951 138.741 43.9529 138.104 45.0704C137.546 46.0529 137.266 46.9003 137.266 47.6107C137.266 47.9689 137.342 48.2292 137.498 48.3916C137.652 48.554 137.845 48.6362 138.074 48.6362C138.751 48.6362 139.404 48.0941 140.033 47.0079C140.638 46.0216 140.94 45.1291 140.94 44.3345C140.94 44.0136 140.865 43.7768 140.715 43.6241L140.713 43.6222Z" fill="#58595B"/>
<path d="M150.735 43.3504C150.725 43.2291 150.721 43.1019 150.721 42.9688C150.721 42.0685 150.952 41.3562 151.416 40.8336C151.879 40.3111 152.366 40.0508 152.879 40.0508C153.343 40.0508 153.698 40.178 153.944 40.4324C154.191 40.6868 154.315 40.9765 154.315 41.3033C154.315 41.8474 154.025 42.3562 153.445 42.8299C153.122 43.0941 152.623 43.3915 151.948 43.7262C152.043 44.19 152.212 44.7752 152.461 45.4837C152.708 46.1902 152.938 46.6892 153.149 46.9789C153.571 46.4622 153.842 46.106 153.958 45.9142C154.142 45.6246 154.234 45.3525 154.234 45.0981C154.234 44.9102 154.183 44.7909 154.082 44.74C153.982 44.6891 153.802 44.6539 153.546 44.6363V44.3818H156.102V44.6363C155.751 44.6891 155.504 44.7693 155.36 44.877C155.216 44.9846 155.013 45.2293 154.753 45.607C154.402 46.1139 154.147 46.474 153.992 46.6892C153.834 46.9026 153.639 47.157 153.404 47.4525C153.607 47.8283 153.852 48.1355 154.14 48.3763C154.428 48.617 154.751 48.7383 155.11 48.7383C155.299 48.7383 155.481 48.6933 155.656 48.6052C155.759 48.5524 155.893 48.4604 156.055 48.3312L156.217 48.4917C155.97 48.7638 155.751 48.9634 155.562 49.0867C155.22 49.3098 154.852 49.4213 154.455 49.4213C154.005 49.4213 153.589 49.2824 153.207 49.0064C152.992 48.846 152.769 48.6209 152.538 48.3312C151.93 48.7285 151.489 48.9888 151.209 49.1141C150.755 49.3196 150.278 49.4213 149.779 49.4213C149.013 49.4213 148.404 49.2237 147.948 48.8264C147.492 48.4291 147.264 47.9203 147.264 47.2999C147.264 46.8987 147.366 46.5209 147.571 46.1687C147.777 45.8164 148.047 45.5052 148.384 45.239C148.636 45.0375 148.871 44.8809 149.088 44.7674C149.307 44.6539 149.873 44.3916 150.79 43.9806C150.759 43.6812 150.739 43.4718 150.729 43.3524L150.735 43.3504ZM149.098 48.2451C149.447 48.5602 149.859 48.7168 150.337 48.7168C150.727 48.7168 151.098 48.6346 151.449 48.4722C151.8 48.3097 152.074 48.1297 152.272 47.934C152.043 47.6306 151.779 47.1218 151.483 46.4074C151.187 45.6931 150.968 45.0375 150.828 44.4405C150.207 44.7263 149.739 45.0003 149.425 45.2645C148.859 45.7381 148.575 46.2783 148.575 46.885C148.575 47.4917 148.749 47.932 149.098 48.2471V48.2451ZM152.94 42.4991C153.228 42.1742 153.372 41.7691 153.372 41.2877C153.372 41.0548 153.325 40.863 153.23 40.7084C153.136 40.5538 152.976 40.4774 152.751 40.4774C152.354 40.4774 152.086 40.7064 151.942 41.1663C151.861 41.4344 151.82 41.822 151.82 42.3308C151.82 42.4384 151.824 42.5441 151.83 42.6518C151.836 42.7594 151.855 42.9727 151.887 43.2937C152.408 42.9629 152.759 42.6987 152.938 42.4971L152.94 42.4991Z" fill="#58595B"/>
<path d="M159.812 48.9439C160.118 48.8676 160.361 48.7267 160.538 48.5231C160.716 48.3176 161.071 47.7677 161.601 46.8694L165.635 40.0156H165.939L167.268 47.7716C167.353 48.2706 167.456 48.5818 167.572 48.7051C167.688 48.8284 167.939 48.9067 168.322 48.9419V49.1631H164.915V48.9419C165.323 48.9008 165.59 48.8519 165.712 48.7951C165.905 48.7051 166.002 48.5329 166.002 48.2726C166.002 48.2061 166 48.1337 165.996 48.0593C165.992 47.983 165.984 47.9184 165.976 47.8655L165.68 46.0728H162.732L161.864 47.6131C161.805 47.7148 161.753 47.8244 161.708 47.9419C161.631 48.1474 161.594 48.3196 161.594 48.4566C161.594 48.6308 161.653 48.7541 161.773 48.8245C161.891 48.8969 162.104 48.9361 162.41 48.9458V49.167H159.82V48.9458L159.812 48.9439ZM165.594 45.5855L165.006 42.0314L163 45.5855H165.594Z" fill="#58595B"/>
<path d="M169.114 47.1684H169.337C169.435 47.7086 169.552 48.1039 169.688 48.3524C169.934 48.8124 170.303 49.0413 170.794 49.0413C171.069 49.0413 171.299 48.9454 171.485 48.7536C171.672 48.5618 171.765 48.3074 171.765 47.9904C171.765 47.7947 171.741 47.6342 171.694 47.5089C171.647 47.3837 171.587 47.2702 171.514 47.1684L170.954 46.3445C170.617 45.8454 170.406 45.5107 170.321 45.3405C170.191 45.086 170.126 44.8316 170.126 44.5772C170.126 44.1897 170.266 43.8472 170.548 43.5497C170.828 43.2523 171.228 43.1055 171.745 43.1055C171.966 43.1055 172.217 43.1466 172.501 43.2288C172.785 43.311 172.978 43.3521 173.081 43.3521C173.193 43.3521 173.276 43.3305 173.329 43.2855C173.382 43.2405 173.432 43.1798 173.477 43.1055H173.672L173.396 45.0058H173.173C173.114 44.5733 173.027 44.2465 172.911 44.0292C172.696 43.6241 172.353 43.4206 171.885 43.4206C171.688 43.4206 171.51 43.4812 171.357 43.6045C171.201 43.7278 171.124 43.9059 171.124 44.1427C171.124 44.3267 171.159 44.4872 171.228 44.6242C171.297 44.7631 171.457 45.0078 171.704 45.36L172.183 46.0431C172.43 46.3953 172.605 46.683 172.71 46.9061C172.812 47.1293 172.866 47.37 172.866 47.6283C172.866 48.1098 172.658 48.5168 172.244 48.8456C171.83 49.1764 171.339 49.3408 170.767 49.3408C170.581 49.3408 170.319 49.3036 169.978 49.2273C169.637 49.1509 169.437 49.1137 169.384 49.1137C169.293 49.1137 169.228 49.1333 169.185 49.1744C169.142 49.2155 169.102 49.2742 169.067 49.3545H168.844L169.114 47.1664V47.1684Z" fill="#58595B"/>
<path d="M174.491 47.1684H174.714C174.812 47.7086 174.929 48.1039 175.065 48.3524C175.311 48.8124 175.68 49.0413 176.171 49.0413C176.446 49.0413 176.676 48.9454 176.862 48.7536C177.049 48.5618 177.142 48.3074 177.142 47.9904C177.142 47.7947 177.118 47.6342 177.071 47.5089C177.024 47.3837 176.964 47.2702 176.891 47.1684L176.331 46.3445C175.994 45.8454 175.783 45.5107 175.698 45.3405C175.568 45.086 175.503 44.8316 175.503 44.5772C175.503 44.1897 175.643 43.8472 175.925 43.5497C176.205 43.2523 176.605 43.1055 177.122 43.1055C177.343 43.1055 177.594 43.1466 177.878 43.2288C178.162 43.311 178.355 43.3521 178.457 43.3521C178.57 43.3521 178.653 43.3305 178.706 43.2855C178.759 43.2405 178.809 43.1798 178.854 43.1055H179.049L178.773 45.0058H178.55C178.491 44.5733 178.404 44.2465 178.288 44.0292C178.073 43.6241 177.73 43.4206 177.262 43.4206C177.065 43.4206 176.887 43.4812 176.734 43.6045C176.578 43.7278 176.501 43.9059 176.501 44.1427C176.501 44.3267 176.536 44.4872 176.605 44.6242C176.674 44.7631 176.834 45.0078 177.081 45.36L177.56 46.0431C177.807 46.3953 177.982 46.683 178.087 46.9061C178.189 47.1293 178.242 47.37 178.242 47.6283C178.242 48.1098 178.035 48.5168 177.621 48.8456C177.207 49.1764 176.716 49.3408 176.144 49.3408C175.958 49.3408 175.696 49.3036 175.355 49.2273C175.014 49.1509 174.814 49.1137 174.761 49.1137C174.67 49.1137 174.605 49.1333 174.562 49.1744C174.519 49.2155 174.479 49.2742 174.444 49.3545H174.221L174.491 47.1664V47.1684Z" fill="#58595B"/>
<path d="M185.363 43.6926C185.672 44.0919 185.828 44.5635 185.828 45.1076C185.828 46.0529 185.408 46.9805 184.568 47.8925C183.7 48.8378 182.773 49.3114 181.789 49.3114C181.167 49.3114 180.67 49.1333 180.297 48.7752C179.925 48.419 179.737 47.916 179.737 47.2702C179.737 46.2936 180.155 45.3581 180.992 44.4657C181.846 43.5517 182.771 43.0938 183.765 43.0938C184.52 43.0938 185.053 43.2934 185.363 43.6926ZM181.185 48.6441C181.372 48.8867 181.645 49.0081 182.006 49.0081C182.739 49.0081 183.388 48.4601 183.954 47.3622C184.436 46.4208 184.676 45.5558 184.676 44.7651C184.676 44.4304 184.635 44.1604 184.554 43.9549C184.396 43.5674 184.108 43.3717 183.69 43.3717C183.002 43.3717 182.357 43.8825 181.755 44.9041C181.189 45.8591 180.905 46.7985 180.905 47.7223C180.905 48.0922 180.998 48.3994 181.185 48.6421V48.6441Z" fill="#58595B"/>
<path d="M191.785 43.4871C192.028 43.7317 192.15 43.9685 192.15 44.1994C192.15 44.4089 192.087 44.5713 191.961 44.6868C191.835 44.8022 191.687 44.8609 191.515 44.8609C191.344 44.8609 191.209 44.8101 191.097 44.7063C190.985 44.6046 190.927 44.4774 190.927 44.3247C190.927 44.2092 190.965 44.084 191.038 43.9489C191.113 43.8159 191.148 43.7278 191.148 43.6886C191.148 43.6084 191.103 43.5399 191.01 43.4851C190.917 43.4303 190.772 43.4009 190.568 43.4009C189.844 43.4009 189.215 43.81 188.683 44.628C188.15 45.4461 187.884 46.3033 187.884 47.2016C187.884 47.7066 187.992 48.1019 188.207 48.3876C188.422 48.6734 188.748 48.8162 189.178 48.8162C189.523 48.8162 189.86 48.7164 190.186 48.5188C190.511 48.3211 190.811 48.0667 191.087 47.7594L191.134 47.7066L191.33 47.8533C191.014 48.2506 190.712 48.5559 190.418 48.7712C189.902 49.1411 189.328 49.327 188.699 49.327C188.069 49.327 187.608 49.1372 187.235 48.7556C186.862 48.3739 186.675 47.8533 186.675 47.1938C186.675 46.18 187.091 45.2484 187.923 44.3971C188.746 43.5497 189.637 43.125 190.594 43.125C191.142 43.125 191.539 43.2463 191.781 43.491L191.785 43.4871Z" fill="#58595B"/>
<path d="M195.545 43.0977C195.568 43.1134 195.578 43.133 195.574 43.1545L194.213 47.9337C194.15 48.1881 194.119 48.3408 194.119 48.3897C194.119 48.4563 194.132 48.515 194.16 48.5639C194.182 48.6167 194.239 48.6441 194.328 48.6441C194.482 48.6441 194.683 48.513 194.935 48.2488C195.083 48.0922 195.265 47.8691 195.482 47.5795L195.657 47.7263L195.59 47.8202C195.253 48.2879 194.975 48.6265 194.754 48.8301C194.407 49.151 194.069 49.3115 193.742 49.3115C193.549 49.3115 193.389 49.2313 193.259 49.0708C193.13 48.9103 193.067 48.7205 193.067 48.5013C193.067 48.3721 193.077 48.2586 193.095 48.1627C193.113 48.0668 193.146 47.9259 193.196 47.738L194.156 44.2974C194.17 44.2446 194.18 44.1957 194.19 44.1506C194.198 44.1056 194.204 44.0606 194.204 44.0176C194.204 43.8571 194.144 43.7573 194.024 43.7201C193.906 43.6829 193.671 43.6633 193.32 43.6633V43.4422C193.691 43.3972 193.957 43.3639 194.119 43.3385C194.282 43.315 194.446 43.2876 194.61 43.2621C194.825 43.2269 195.028 43.1858 195.219 43.1408C195.411 43.0958 195.519 43.0821 195.545 43.0977ZM194.908 41.4225C194.777 41.2796 194.712 41.1074 194.712 40.9077C194.712 40.7081 194.777 40.5281 194.908 40.3852C195.038 40.2423 195.196 40.1719 195.379 40.1719C195.562 40.1719 195.722 40.2443 195.854 40.3852C195.987 40.5281 196.054 40.7022 196.054 40.9077C196.054 41.1132 195.987 41.2855 195.854 41.4264C195.722 41.5673 195.562 41.6377 195.379 41.6377C195.196 41.6377 195.038 41.5673 194.908 41.4244V41.4225Z" fill="#58595B"/>
<path d="M201.314 43.3677C201.419 43.4656 201.5 43.5948 201.561 43.7552L201.594 43.8492L201.746 43.3443C201.764 43.2875 201.78 43.2484 201.793 43.2288C201.807 43.2092 201.839 43.1975 201.89 43.1916L202.667 43.1055C202.709 43.1055 202.732 43.1133 202.74 43.129C202.746 43.1446 202.746 43.172 202.736 43.2131C202.717 43.2718 202.703 43.3169 202.693 43.3501C202.683 43.3834 202.669 43.4323 202.649 43.493L201.983 45.8885C201.837 46.411 201.715 46.8612 201.612 47.2389C201.446 47.9239 201.361 48.3153 201.361 48.4131C201.361 48.4758 201.379 48.5208 201.413 48.5501C201.446 48.5795 201.488 48.5932 201.537 48.5932C201.578 48.5932 201.622 48.5795 201.671 48.5521C201.72 48.5247 201.782 48.4855 201.853 48.4307L201.973 48.3368C202.01 48.3055 202.054 48.2683 202.101 48.2272C202.148 48.1842 202.206 48.1333 202.271 48.0706L202.711 47.642L202.872 47.7829C202.391 48.3759 202.006 48.7791 201.715 48.9905C201.423 49.2018 201.146 49.3075 200.882 49.3075C200.711 49.3075 200.58 49.2488 200.488 49.1333C200.395 49.0179 200.35 48.873 200.35 48.6989C200.35 48.5384 200.379 48.3074 200.44 48.008C200.501 47.7086 200.561 47.4542 200.62 47.2506C200.539 47.3857 200.403 47.5794 200.212 47.8377C200.02 48.0941 199.786 48.3427 199.507 48.5854C199.18 48.875 198.866 49.0805 198.565 49.2018C198.332 49.2821 198.107 49.3232 197.89 49.3232C197.527 49.3232 197.196 49.1744 196.9 48.877C196.604 48.5795 196.456 48.1587 196.456 47.6146C196.456 46.6772 196.884 45.6986 197.738 44.681C198.62 43.6222 199.533 43.0938 200.48 43.0938C200.839 43.0938 201.117 43.1857 201.312 43.3677H201.314ZM201.095 43.6222C200.945 43.4695 200.764 43.3951 200.551 43.3951C199.809 43.3951 199.121 43.9529 198.486 45.0704C197.927 46.0529 197.647 46.9003 197.647 47.6107C197.647 47.9689 197.724 48.2292 197.88 48.3916C198.034 48.554 198.227 48.6362 198.456 48.6362C199.135 48.6362 199.787 48.0941 200.415 47.0079C201.02 46.0216 201.322 45.1291 201.322 44.3345C201.322 44.0136 201.247 43.7768 201.097 43.6241L201.095 43.6222Z" fill="#58595B"/>
<path d="M203.679 48.5961C203.683 48.5491 203.693 48.5021 203.706 48.4532L205.01 43.7816H203.984C203.984 43.6603 203.994 43.5859 204.012 43.5546C204.03 43.5233 204.075 43.492 204.148 43.4606C204.606 43.2688 204.959 43.0829 205.209 42.9029C205.46 42.7228 205.803 42.3784 206.237 41.8676L206.345 41.7404C206.359 41.7227 206.375 41.7071 206.397 41.6973C206.418 41.6875 206.438 41.6797 206.462 41.6797C206.507 41.6895 206.539 41.6973 206.557 41.7071C206.57 41.7384 206.578 41.7658 206.58 41.7912C206.582 41.8167 206.58 41.8421 206.576 41.8676L206.18 43.3276H207.292L207.211 43.7836H206.048L204.805 48.281C204.783 48.3612 204.789 48.4375 204.825 48.5119C204.86 48.5863 204.921 48.6215 205.006 48.6215C205.123 48.6215 205.288 48.506 205.499 48.2731C205.622 48.1479 205.825 47.9013 206.115 47.5294L206.29 47.6293L206.196 47.7702C205.809 48.3456 205.468 48.7468 205.172 48.9718C204.876 49.1969 204.596 49.3104 204.332 49.3104C204.101 49.3104 203.935 49.2497 203.831 49.1303C203.726 49.009 203.675 48.874 203.675 48.7213C203.675 48.6861 203.677 48.645 203.681 48.598L203.679 48.5961Z" fill="#58595B"/>
<path d="M208.776 44.5126C209.665 43.5849 210.587 43.1211 211.535 43.1211C211.886 43.1211 212.164 43.2013 212.372 43.3618C212.579 43.5223 212.681 43.7611 212.681 44.0762C212.681 44.7181 212.303 45.2661 211.545 45.7221C210.788 46.1781 209.991 46.4579 209.155 46.5597L208.77 46.6067C208.711 46.7906 208.671 46.9355 208.648 47.0451C208.624 47.1547 208.614 47.2917 208.614 47.4561C208.614 47.8494 208.744 48.1547 209.003 48.3739C209.261 48.5931 209.569 48.7027 209.924 48.7027C210.279 48.7027 210.618 48.5912 210.997 48.3681C211.212 48.2389 211.525 48.006 211.934 47.6713L212.109 47.8259C211.906 48.0804 211.616 48.3407 211.239 48.6088C210.569 49.0863 209.898 49.3251 209.224 49.3251C208.746 49.3251 208.328 49.1587 207.969 48.8241C207.61 48.4894 207.429 48.0099 207.429 47.3876C207.429 46.3973 207.878 45.4402 208.778 44.5126H208.776ZM210.961 45.4089C211.502 44.9353 211.77 44.4637 211.77 43.9959C211.77 43.8276 211.729 43.6926 211.648 43.5928C211.567 43.4929 211.449 43.4421 211.291 43.4421C210.999 43.4421 210.711 43.5654 210.431 43.8119C210.149 44.0585 209.896 44.3384 209.671 44.6496C209.433 45.0156 209.243 45.3639 209.105 45.6986C209.028 45.8767 208.947 46.0783 208.863 46.3053C209.721 46.18 210.421 45.8806 210.959 45.407L210.961 45.4089Z" fill="#58595B"/>
<path d="M213.618 47.1684H213.841C213.939 47.7086 214.056 48.1039 214.192 48.3524C214.438 48.8124 214.807 49.0413 215.298 49.0413C215.573 49.0413 215.803 48.9454 215.989 48.7536C216.176 48.5618 216.269 48.3074 216.269 47.9904C216.269 47.7947 216.245 47.6342 216.198 47.5089C216.15 47.3837 216.091 47.2702 216.018 47.1684L215.458 46.3445C215.121 45.8454 214.91 45.5107 214.825 45.3405C214.695 45.086 214.63 44.8316 214.63 44.5772C214.63 44.1897 214.77 43.8472 215.052 43.5497C215.332 43.2523 215.732 43.1055 216.249 43.1055C216.47 43.1055 216.72 43.1466 217.005 43.2288C217.289 43.311 217.482 43.3521 217.584 43.3521C217.697 43.3521 217.78 43.3305 217.833 43.2855C217.886 43.2405 217.936 43.1798 217.981 43.1055H218.176L217.9 45.0058H217.677C217.618 44.5733 217.531 44.2465 217.415 44.0292C217.2 43.6241 216.857 43.4206 216.389 43.4206C216.192 43.4206 216.014 43.4812 215.861 43.6045C215.705 43.7278 215.628 43.9059 215.628 44.1427C215.628 44.3267 215.663 44.4872 215.732 44.6242C215.801 44.7631 215.961 45.0078 216.208 45.36L216.687 46.0431C216.934 46.3953 217.109 46.683 217.214 46.9061C217.316 47.1293 217.369 47.37 217.369 47.6283C217.369 48.1098 217.162 48.5168 216.748 48.8456C216.334 49.1764 215.843 49.3408 215.271 49.3408C215.085 49.3408 214.823 49.3036 214.482 49.2273C214.141 49.1509 213.941 49.1137 213.888 49.1137C213.797 49.1137 213.732 49.1333 213.689 49.1744C213.645 49.2155 213.606 49.2742 213.571 49.3545H213.348L213.618 47.1664V47.1684Z" fill="#58595B"/>
</g>
<defs>
<clipPath id="clip0_3654_2530">
<rect width="314" height="52" fill="white"/>
</clipPath>
</defs>
</svg>
