<svg width="280" height="57" viewBox="0 0 280 57" fill="none" xmlns="http://www.w3.org/2000/svg">
<g clip-path="url(#clip0_3654_2676)">
<path d="M59.1189 41.1093V41.809H45.3323V41.1093H46.209C46.9733 41.1093 47.5899 40.9757 48.0556 40.7118C48.3928 40.5368 48.6529 40.2315 48.8328 39.8022C48.9741 39.5 49.0479 38.7049 49.0479 37.4168V20.5414C49.0479 19.231 48.9773 18.4105 48.8328 18.0829C48.6882 17.7553 48.4024 17.469 47.9657 17.221C47.5289 16.9729 46.9444 16.852 46.2058 16.852H45.3291V16.1523H59.1157V16.852H58.2422C57.4779 16.852 56.8613 16.9856 56.3956 17.2496C56.0584 17.4277 55.7919 17.7298 55.5992 18.1592C55.4579 18.4613 55.384 19.2565 55.384 20.5445V37.42C55.384 38.7303 55.4579 39.5509 55.6088 39.8785C55.7566 40.2061 56.0488 40.4923 56.4823 40.7404C56.9159 40.9885 57.5036 41.1093 58.2422 41.1093H59.1157H59.1189Z" fill="#1A171B"/>
<path d="M65.908 22.1836L75.8601 34.3584V25.9206C75.8601 24.7439 75.6867 23.9487 75.3399 23.5321C74.8646 22.9723 74.065 22.702 72.9442 22.7211V22.1868H79.6079V22.7211C78.7536 22.826 78.182 22.966 77.8897 23.1345C77.5975 23.3031 77.3695 23.5798 77.2057 23.9583C77.0419 24.3399 76.9616 24.9919 76.9616 25.9206V42.2618H76.4542L62.8122 25.9206V38.3975C62.8122 39.5266 63.0787 40.2899 63.6086 40.6843C64.1385 41.0786 64.7454 41.279 65.4327 41.279H65.908V41.8133H58.7529V41.279C59.8641 41.2695 60.638 41.0468 61.0748 40.6143C61.5115 40.1786 61.7299 39.4407 61.7299 38.4007V24.5498L61.2996 24.0283C60.8725 23.5067 60.4967 23.1664 60.1692 23.001C59.8416 22.8356 59.3695 22.7465 58.7561 22.7275V22.1931H65.9112L65.908 22.1836Z" fill="#1A171B"/>
<path d="M79.8135 41.814V41.2797H80.4815C81.0659 41.2797 81.5155 41.1907 81.827 41.0126C82.1385 40.8345 82.3698 40.5896 82.5175 40.2811C82.6074 40.0775 82.6524 39.4701 82.6524 38.4587V25.5461C82.6524 24.541 82.5978 23.9145 82.4886 23.6632C82.3794 23.412 82.1578 23.1925 81.827 23.0049C81.493 22.8172 81.0467 22.7218 80.4815 22.7218H79.8135V22.1875H88.844C91.2525 22.1875 93.1922 22.5055 94.6598 23.1416C96.455 23.924 97.8167 25.104 98.7448 26.6878C99.6729 28.2717 100.135 30.0591 100.135 32.0564C100.135 33.4367 99.9073 34.7089 99.4513 35.8698C98.9953 37.0338 98.4044 37.9943 97.6818 38.7513C96.9592 39.5082 96.121 40.1157 95.1737 40.5737C94.2263 41.0317 93.067 41.3879 91.6989 41.6391C91.0952 41.7536 90.1414 41.814 88.844 41.814H79.8135ZM87.5048 23.3007V38.6145C87.5048 39.4255 87.5434 39.9217 87.6236 40.1061C87.7039 40.2906 87.8356 40.4306 88.0251 40.526C88.2916 40.6723 88.6802 40.7422 89.1844 40.7422C90.8415 40.7422 92.1036 40.192 92.9771 39.0916C94.1685 37.6063 94.7626 35.3005 94.7626 32.1741C94.7626 29.6552 94.3548 27.642 93.5423 26.1376C92.8968 24.9609 92.0682 24.1594 91.0566 23.7364C90.3437 23.4374 89.1587 23.2911 87.5016 23.3007H87.5048Z" fill="#1A171B"/>
<path d="M109.953 41.2758V41.8101H99.4033V41.2758H100.071C100.656 41.2758 101.128 41.1741 101.484 40.9705C101.741 40.8369 101.94 40.6048 102.078 40.2772C102.188 40.045 102.242 39.4375 102.242 38.4548V25.5421C102.242 24.5371 102.188 23.9106 102.078 23.6593C101.969 23.4081 101.748 23.1886 101.417 23.001C101.083 22.8133 100.636 22.7179 100.071 22.7179H99.4033V22.1836H109.953V22.7179H109.285C108.7 22.7179 108.228 22.8197 107.872 23.0232C107.615 23.16 107.409 23.389 107.262 23.7166C107.152 23.9487 107.098 24.5562 107.098 25.5421V38.4548C107.098 39.4598 107.156 40.0863 107.268 40.3376C107.38 40.5889 107.605 40.8083 107.936 40.9959C108.267 41.1836 108.716 41.279 109.282 41.279H109.95L109.953 41.2758Z" fill="#1A171B"/>
<path d="M121.408 36.2229H114.281L113.434 38.1344C113.154 38.7705 113.016 39.2984 113.016 39.7119C113.016 40.2621 113.244 40.666 113.7 40.9268C113.967 41.0827 114.628 41.1972 115.678 41.2735V41.8078H108.97V41.2735C109.692 41.1685 110.29 40.8759 110.755 40.3989C111.221 39.9218 111.796 38.9359 112.48 37.4379L119.696 21.7773H119.978L127.252 37.8736C127.946 39.397 128.518 40.3575 128.964 40.7551C129.301 41.054 129.776 41.229 130.393 41.2767V41.811H120.634V41.2767H121.035C121.819 41.2767 122.368 41.1717 122.686 40.9586C122.904 40.806 123.013 40.5833 123.013 40.2939C123.013 40.119 122.984 39.9409 122.923 39.7596C122.904 39.6737 122.753 39.3112 122.477 38.6751L121.404 36.2293L121.408 36.2229ZM120.9 35.1511L117.894 28.3927L114.798 35.1511H120.897H120.9Z" fill="#1A171B"/>
<path d="M150.795 28.6278C153.219 29.178 154.921 29.8459 155.904 30.6251C157.311 31.7383 158.014 33.1822 158.014 34.9537C158.014 36.8238 157.24 38.3695 155.695 39.594C153.797 41.0729 151.039 41.814 147.42 41.814H134.433V41.1365C135.614 41.1365 136.414 41.0284 136.835 40.8153C137.255 40.6022 137.551 40.3223 137.721 39.982C137.891 39.6417 137.975 38.7957 137.975 37.4504V21.3128C137.975 19.9675 137.891 19.1215 137.721 18.7716C137.551 18.4218 137.252 18.1451 136.825 17.9383C136.398 17.7316 135.602 17.6267 134.433 17.6267V16.9492H146.684C149.613 16.9492 151.684 17.2037 152.905 17.7093C154.122 18.2182 155.085 18.9752 155.789 19.9834C156.492 20.9916 156.845 22.0634 156.845 23.202C156.845 24.401 156.399 25.4665 155.506 26.4015C154.613 27.3366 153.043 28.0808 150.795 28.631V28.6278ZM143.935 29.5629V37.5394L143.916 38.4554C143.916 39.1169 144.089 39.6131 144.433 39.9502C144.78 40.2873 145.29 40.4559 145.968 40.4559C146.973 40.4559 147.901 40.2396 148.749 39.8039C149.597 39.3682 150.249 38.7417 150.698 37.9147C151.151 37.091 151.376 36.1687 151.376 35.1541C151.376 33.9932 151.1 32.9501 150.548 32.0277C149.995 31.1054 149.234 30.4598 148.267 30.094C147.301 29.7283 145.856 29.5502 143.932 29.5629H143.935ZM143.935 28.1317C145.721 28.1317 147.037 27.9345 147.885 27.5433C148.733 27.1521 149.385 26.6019 149.838 25.8926C150.291 25.1834 150.515 24.2802 150.515 23.1797C150.515 22.0793 150.294 21.1792 149.847 20.4763C149.401 19.7735 148.762 19.2391 147.933 18.8734C147.105 18.5076 145.772 18.3295 143.938 18.3423V28.1349L143.935 28.1317Z" fill="#1A171B"/>
<path d="M165.151 32.8667V38.3657C165.151 39.428 165.218 40.0959 165.353 40.3694C165.488 40.6429 165.722 40.8624 166.059 41.0278C166.397 41.1931 167.026 41.2726 167.948 41.2726V41.807H157.623V41.2726C158.554 41.2726 159.187 41.1868 159.521 41.0182C159.852 40.8496 160.086 40.6302 160.221 40.3599C160.356 40.0895 160.42 39.4248 160.42 38.3625V25.6248C160.42 24.5626 160.353 23.8947 160.221 23.6212C160.086 23.3445 159.852 23.1282 159.515 22.9628C159.177 22.7974 158.548 22.7179 157.626 22.7179V22.1836H167C169.441 22.1836 171.227 22.349 172.357 22.6766C173.487 23.0042 174.409 23.6116 175.125 24.4926C175.841 25.3736 176.198 26.4104 176.198 27.5967C176.198 29.0438 175.662 30.2397 174.592 31.1874C173.908 31.7854 172.951 32.2338 171.721 32.5328L176.57 39.1767C177.206 40.0355 177.656 40.5698 177.926 40.7829C178.333 41.0818 178.802 41.2472 179.339 41.2758V41.8101H172.986L166.483 32.8635H165.16L165.151 32.8667ZM165.151 23.2395V31.8363H165.998C167.376 31.8363 168.407 31.7122 169.094 31.4673C169.778 31.2224 170.318 30.7772 170.71 30.1347C171.101 29.4923 171.297 28.6558 171.297 27.6222C171.297 26.1273 170.938 25.0206 170.218 24.3081C169.499 23.5925 168.343 23.2363 166.743 23.2363H165.151V23.2395Z" fill="#1A171B"/>
<path d="M190.036 41.2758V41.8101H179.486V41.2758H180.154C180.739 41.2758 181.211 41.1741 181.567 40.9705C181.824 40.8369 182.023 40.6048 182.161 40.2772C182.271 40.045 182.325 39.4375 182.325 38.4548V25.5421C182.325 24.5371 182.271 23.9106 182.161 23.6593C182.052 23.4081 181.831 23.1886 181.5 23.001C181.166 22.8133 180.719 22.7179 180.154 22.7179H179.486V22.1836H190.036V22.7179H189.368C188.783 22.7179 188.311 22.8197 187.955 23.0232C187.698 23.16 187.492 23.389 187.345 23.7166C187.235 23.9487 187.181 24.5562 187.181 25.5421V38.4548C187.181 39.4598 187.239 40.0863 187.351 40.3376C187.463 40.5889 187.688 40.8083 188.019 40.9959C188.35 41.1836 188.799 41.279 189.365 41.279H190.033L190.036 41.2758Z" fill="#1A171B"/>
<path d="M198.089 23.3134V31.3027H198.491C199.769 31.3027 200.697 30.9115 201.272 30.1291C201.847 29.3467 202.213 28.1954 202.373 26.6688H202.939V36.9448H202.373C202.255 35.8253 202.004 34.9093 201.622 34.1937C201.24 33.4813 200.797 33.001 200.289 32.753C199.785 32.5081 199.05 32.384 198.086 32.384V37.9148C198.086 38.9962 198.134 39.6577 198.227 39.8962C198.321 40.138 198.497 40.3351 198.754 40.491C199.011 40.6468 199.429 40.7232 200.003 40.7232H201.208C203.093 40.7232 204.602 40.3002 205.739 39.451C206.876 38.6018 207.692 37.3074 208.186 35.5708H208.735L207.826 41.8109H190.392V41.2766H191.06C191.644 41.2766 192.116 41.1748 192.473 40.9712C192.73 40.8377 192.929 40.6055 193.067 40.2779C193.176 40.0457 193.231 39.4383 193.231 38.4555V25.5429C193.231 24.6555 193.205 24.1085 193.157 23.9081C193.057 23.571 192.874 23.3102 192.607 23.1257C192.232 22.8554 191.715 22.7218 191.06 22.7218H190.392V22.1875H207.277V27.9918H206.712C206.423 26.5733 206.022 25.5556 205.498 24.9386C204.978 24.3216 204.239 23.8668 203.289 23.5774C202.733 23.4024 201.693 23.3166 200.164 23.3166H198.08L198.089 23.3134Z" fill="#1A171B"/>
<path d="M216.357 23.3134V31.3758H216.938C217.831 31.3758 218.56 31.2454 219.125 30.9846C219.69 30.7238 220.169 30.2849 220.56 29.6679C220.952 29.0509 221.209 28.2145 221.328 27.1649H221.848V37.0211H221.328C221.138 35.1574 220.625 33.9297 219.79 33.3382C218.951 32.7434 218.001 32.4476 216.941 32.4476H216.36V38.4555C216.36 39.4605 216.418 40.0871 216.53 40.3383C216.646 40.5896 216.867 40.809 217.198 40.9967C217.529 41.1843 217.978 41.2797 218.544 41.2797H219.212V41.814H208.662V41.2797H209.33C209.915 41.2797 210.387 41.178 210.743 40.9744C211 40.8408 211.199 40.6087 211.337 40.2811C211.446 40.0489 211.501 39.4414 211.501 38.4587V25.5461C211.501 24.541 211.446 23.9145 211.337 23.6632C211.228 23.412 211.006 23.1925 210.676 23.0049C210.342 22.8172 209.895 22.7218 209.33 22.7218H208.662V22.1875H225.683V27.8169H225.072C224.934 26.4938 224.578 25.5142 224.009 24.8782C223.438 24.2421 222.612 23.7936 221.533 23.5328C220.939 23.3865 219.838 23.3166 218.232 23.3166H216.357V23.3134Z" fill="#1A171B"/>
<path d="M237.414 41.2758V41.8101H226.864V41.2758H227.532C228.117 41.2758 228.589 41.1741 228.945 40.9705C229.202 40.8369 229.401 40.6048 229.539 40.2772C229.649 40.045 229.703 39.4375 229.703 38.4548V25.5421C229.703 24.5371 229.649 23.9106 229.539 23.6593C229.43 23.4081 229.209 23.1886 228.878 23.001C228.544 22.8133 228.097 22.7179 227.532 22.7179H226.864V22.1836H237.414V22.7179H236.746C236.161 22.7179 235.689 22.8197 235.333 23.0232C235.076 23.16 234.87 23.389 234.723 23.7166C234.613 23.9487 234.559 24.5562 234.559 25.5421V38.4548C234.559 39.4598 234.617 40.0863 234.729 40.3376C234.841 40.5889 235.066 40.8083 235.397 40.9959C235.728 41.1836 236.177 41.279 236.743 41.279H237.411L237.414 41.2758Z" fill="#1A171B"/>
<path d="M244.816 22.1836L254.768 34.3584V25.9206C254.768 24.7439 254.595 23.9487 254.248 23.5321C253.773 22.9723 252.973 22.702 251.852 22.7211V22.1868H258.516V22.7211C257.662 22.826 257.09 22.966 256.798 23.1345C256.506 23.3031 256.278 23.5798 256.114 23.9583C255.95 24.3399 255.87 24.9919 255.87 25.9206V42.2618H255.362L241.72 25.9206V38.3975C241.72 39.5266 241.987 40.2899 242.517 40.6843C243.047 41.0786 243.654 41.279 244.341 41.279H244.816V41.8133H237.661V41.279C238.772 41.2695 239.546 41.0468 239.983 40.6143C240.42 40.1786 240.638 39.4407 240.638 38.4007V24.5498L240.208 24.0283C239.781 23.5067 239.405 23.1664 239.077 23.001C238.75 22.8356 238.278 22.7465 237.664 22.7275V22.1931H244.819L244.816 22.1836Z" fill="#1A171B"/>
<path d="M277.634 21.7339V28.6514H277.084C276.42 26.759 275.424 25.3215 274.095 24.3387C272.765 23.356 271.314 22.863 269.737 22.863C268.16 22.863 266.975 23.2764 265.973 24.1002C264.971 24.9239 264.261 26.0752 263.847 27.551C263.43 29.0267 263.221 30.5438 263.221 32.0958C263.221 33.9787 263.449 35.6261 263.905 37.0446C264.361 38.4631 265.096 39.5063 266.114 40.171C267.132 40.8357 268.34 41.1696 269.737 41.1696C270.222 41.1696 270.719 41.1188 271.233 41.017C271.747 40.9152 272.267 40.7689 272.804 40.5749V36.4944C272.804 35.7215 272.749 35.2222 272.64 34.9964C272.531 34.7706 272.306 34.5639 271.962 34.3826C271.619 34.1981 271.204 34.1091 270.719 34.1091H270.199V33.5747H280.004V34.1091C279.259 34.1568 278.742 34.2554 278.449 34.4048C278.157 34.5543 277.932 34.8024 277.772 35.1491C277.682 35.3335 277.637 35.782 277.637 36.4944V40.5749C276.349 41.1347 275.007 41.5577 273.613 41.8407C272.219 42.1238 270.774 42.2669 269.277 42.2669C267.363 42.2669 265.774 42.0125 264.509 41.5068C263.243 41.0011 262.129 40.3332 261.162 39.5095C260.196 38.6857 259.438 37.757 258.895 36.7234C258.201 35.3908 257.854 33.8991 257.854 32.2517C257.854 29.297 258.921 26.8036 261.053 24.7681C263.185 22.7326 265.867 21.7148 269.101 21.7148C270.103 21.7148 271.005 21.7912 271.808 21.947C272.245 22.0233 272.951 22.2428 273.928 22.6054C274.904 22.9679 275.482 23.1492 275.662 23.1492C275.938 23.1492 276.198 23.0506 276.436 22.8534C276.673 22.6563 276.892 22.281 277.091 21.7307H277.64L277.634 21.7339Z" fill="#1A171B"/>
<path d="M17.6562 17.3589C18.125 16.1153 17.6562 13.3006 17.6562 13.3006C18.4333 14.3788 18.8765 17.6897 18.8765 17.6897C19.2651 15.2884 17.6562 10.9789 17.6562 10.9789C19.0692 12.9794 20.7456 19.0954 20.7456 19.0954C20.6685 15.8641 17.6562 8.4918 17.6562 8.4918C19.5252 10.2315 23.5459 22.1582 23.5459 22.1582C23 15.8641 17.6562 5.8393 17.6562 5.8393C21.5484 9.73217 26.5807 25.7171 26.5807 25.7171C25.5691 16.6878 17.8681 3.64161 17.6562 3.27268C25.5916 14.1212 28.758 27.8735 28.758 27.8735C28.6713 17.9568 17.6562 0.626548 17.6562 0.626548C29.0984 14.9068 30.9354 29.699 30.9354 29.699C32.0369 18.0554 19.5766 0.543857 19.5766 0.543857C34.439 18.6438 33.193 32.431 33.193 32.431C35.8809 20.9051 21.6961 0 21.6961 0C34.028 12.038 35.2065 27.3932 35.2065 27.3932C35.6818 32.889 34.59 39.7492 31.234 46.0179C27.39 53.1962 17.6562 57 17.6562 57C17.6562 57 7.91916 53.193 4.07831 46.0179C0.722386 39.7492 -0.369495 32.8922 0.105794 27.3932C0.105794 27.3932 1.28438 12.038 13.6162 0C13.6162 0 -0.568603 20.9051 2.11935 32.431C2.11935 32.431 0.873322 18.6438 15.7357 0.543857C15.7357 0.543857 3.27546 18.0554 4.37697 29.699C4.37697 29.699 6.21711 14.9068 17.6562 0.626548C17.6562 0.626548 6.64423 17.9568 6.55431 27.8766C6.55431 27.8766 9.72077 14.1276 17.6562 3.27586C17.4474 3.64797 9.74325 16.6942 8.73486 25.7203C8.73486 25.7203 13.7671 9.73535 17.6562 5.84248C17.6562 5.84248 12.3124 15.8641 11.7664 22.1614C11.7664 22.1614 15.7871 10.2347 17.6562 8.49498C17.6562 8.49498 14.6471 15.8673 14.5668 19.0986C14.5668 19.0986 16.2399 12.9794 17.6562 10.9821C17.6562 10.9821 16.0473 15.2884 16.4358 17.6928C16.4358 17.6928 16.8758 14.3788 17.6562 13.3038C17.6562 13.3038 17.1905 16.1217 17.6562 17.3621V17.3589Z" fill="#0A8B30"/>
<path d="M17.6558 53.3782C11.6504 53.3782 6.78516 48.4421 6.78516 39.7913C6.78516 31.1405 11.6537 22.0508 17.6558 22.0508C23.6579 22.0508 28.5264 31.1373 28.5264 39.7913C28.5264 48.4421 23.6579 53.3782 17.6558 53.3782Z" fill="white"/>
<path d="M17.6556 52.3615C12.0421 52.3615 7.48828 47.7435 7.48828 39.6556C7.48828 31.5677 12.0389 23.0664 17.6556 23.0664C23.2724 23.0664 27.823 31.5646 27.823 39.6556C27.823 47.7467 23.2724 52.3615 17.6556 52.3615Z" fill="#F29526"/>
<path d="M21.3297 48.9021C19.6437 49.5095 18.9822 48.7081 17.6527 48.7081C16.275 48.7081 15.941 49.5095 13.9499 48.8607C11.2973 47.9988 9.8457 43.6989 9.8457 40.5725C9.8457 35.9767 13.3397 33.5469 17.6527 33.5469C21.9656 33.5469 25.4596 35.9767 25.4596 40.5725C25.4596 43.7498 23.992 47.9384 21.3265 48.8989L21.3297 48.9021Z" fill="white"/>
<path d="M20.1286 47.868C18.3816 47.868 18.2274 44.818 17.6429 44.818C17.1741 44.818 17.0199 47.9825 15.472 47.9825C12.9928 47.9825 10.6035 44.3568 10.6035 40.8234C10.6035 36.4884 13.5677 34.5547 17.6461 34.5547C21.7246 34.5547 24.7113 36.4884 24.7113 40.8234C24.7113 44.236 22.2706 47.8712 20.1318 47.8712L20.1286 47.868Z" fill="#12235F"/>
</g>
<defs>
<clipPath id="clip0_3654_2676">
<rect width="280" height="57" fill="white"/>
</clipPath>
</defs>
</svg>
