<svg width="17" height="28" viewBox="0 0 17 28" fill="none" xmlns="http://www.w3.org/2000/svg">
<g clip-path="url(#clip0_3600_844)">
<path d="M8.45185 8.42C8.58185 7.76 8.58185 7.08 8.45185 6.42C8.76185 7.1 8.96185 7.81 9.04185 8.55C9.06185 7.44 8.86185 6.33 8.45185 5.29C9.09185 6.55 9.58185 7.89 9.92185 9.26C9.63185 7.5 9.14185 5.78 8.45185 4.13C9.36185 4.98 11.2818 10.73 11.2818 10.73C11.0318 7.67 8.45185 2.83 8.45185 2.83C10.3218 4.7 12.7318 12.46 12.7318 12.46C12.2518 8.09 8.56185 1.78 8.45185 1.61C10.9318 5.23 12.7418 9.27 13.8218 13.52C13.7618 8.73 8.49185 0.34 8.49185 0.34C11.7518 4.42 13.9318 9.25 14.8218 14.39C15.3318 8.76 9.36185 0.26 9.36185 0.26C16.4718 9.01 15.8718 15.69 15.8718 15.69C17.1518 10.11 10.3818 0 10.3818 0C13.9318 3.59 16.2018 8.25 16.8218 13.26C17.0518 16.38 16.3918 19.5 14.9218 22.26C13.0818 25.74 8.41185 27.58 8.41185 27.58C8.41185 27.58 3.82185 25.78 1.93185 22.26C0.471846 19.5 -0.178154 16.38 0.0418462 13.26C0.691846 8.26 2.96185 3.6 6.52185 0.03C6.52185 0.03 -0.278154 10.14 1.03185 15.72C1.03185 15.72 0.431846 9.07 7.54185 0.29C7.54185 0.29 1.54185 8.76 2.10185 14.39C3.01185 9.24 5.21185 4.39 8.48185 0.31C8.48185 0.31 3.21185 8.7 3.15185 13.49C4.22185 9.24 6.02185 5.21 8.48185 1.59C8.36185 1.76 4.68185 8.08 4.20185 12.44C4.20185 12.44 6.61185 4.71 8.48185 2.81C8.48185 2.81 5.93185 7.65 5.65185 10.71C5.65185 10.71 7.57185 4.93 8.48185 4.11C7.78185 5.76 7.29185 7.49 7.00185 9.26C7.35185 7.88 7.84185 6.54 8.48185 5.26C8.08185 6.3 7.88185 7.41 7.88185 8.52C7.95185 7.78 8.16185 7.06 8.48185 6.39C8.34185 7.05 8.34185 7.73 8.48185 8.39L8.45185 8.42Z" fill="#0A8B30"/>
<path d="M8.45219 25.8397C5.56219 25.8397 3.24219 23.4597 3.24219 19.2697C3.24219 15.0797 5.56219 10.6797 8.45219 10.6797C11.3422 10.6797 13.6622 15.0697 13.6622 19.2697C13.6622 23.4697 11.3122 25.8397 8.45219 25.8397Z" fill="white"/>
<path d="M8.44812 25.3609C5.75812 25.3609 3.57812 23.1209 3.57812 19.2109C3.57812 15.3009 5.75812 11.2109 8.44812 11.2109C11.1381 11.2109 13.3181 15.2609 13.3181 19.2609C13.3181 23.2609 11.1381 25.3609 8.44812 25.3609Z" fill="#F29526"/>
<path d="M10.2109 23.6891C9.38094 23.9691 9.07094 23.5991 8.45094 23.5991C7.83094 23.5991 7.63094 23.9991 6.66094 23.6891C5.39094 23.2591 4.71094 21.1891 4.71094 19.6891C4.71094 17.4791 6.38094 16.2891 8.45094 16.2891C10.5209 16.2891 12.1909 17.4791 12.1909 19.6891C12.1909 21.1891 11.4809 23.1991 10.2109 23.6891Z" fill="white"/>
<path d="M9.60687 23.1825C8.75687 23.1825 8.69687 21.7025 8.41687 21.7025C8.13687 21.7025 8.10687 23.2625 7.36687 23.2625C6.17687 23.2625 5.04688 21.5125 5.04688 19.8125C5.04688 17.7125 6.46687 16.8125 8.41687 16.8125C10.3669 16.8125 11.8169 17.7525 11.8169 19.8125C11.8169 21.4225 10.6569 23.1825 9.60687 23.1825Z" fill="#12235F"/>
</g>
<defs>
<clipPath id="clip0_3600_844">
<rect width="16.87" height="27.58" fill="white"/>
</clipPath>
</defs>
</svg>
