<svg width="259" height="52" viewBox="0 0 259 52" fill="none" xmlns="http://www.w3.org/2000/svg">
<g clip-path="url(#clip0_3654_2697)">
<path d="M45.1377 38.6523H50.1614V39.6674H46.355V42.7826H49.8702V43.783H46.355V48.0245H45.1377V38.6523Z" fill="#9C9B99"/>
<path d="M51.3522 43.393C51.3522 42.6003 51.3376 41.9187 51.2969 41.2928H52.3628L52.4181 42.6266H52.4589C52.7647 41.7227 53.5102 41.1523 54.3286 41.1523C54.4538 41.1523 54.5499 41.167 54.6606 41.1787V42.3341C54.5354 42.3078 54.4101 42.3078 54.2441 42.3078C53.385 42.3078 52.7763 42.9484 52.6103 43.8639C52.5841 44.0307 52.5696 44.2384 52.5696 44.4343V48.0205H51.3522V43.3901V43.393Z" fill="#9C9B99"/>
<path d="M61.665 44.6011C61.665 47.0904 59.9351 48.1727 58.3275 48.1727C56.5277 48.1727 55.1152 46.8388 55.1152 44.7122C55.1152 42.4745 56.5947 41.1523 58.4382 41.1523C60.2817 41.1523 61.6621 42.5564 61.6621 44.6011H61.665ZM56.3646 44.6713C56.3646 46.1455 57.1946 47.2571 58.3858 47.2571C59.5769 47.2571 60.4215 46.1602 60.4215 44.642C60.4215 43.5012 59.8536 42.0708 58.4149 42.0708C56.9762 42.0708 56.3675 43.4047 56.3675 44.6713H56.3646Z" fill="#9C9B99"/>
<path d="M63.0631 43.1151C63.0631 42.4072 63.0369 41.8485 63.0078 41.2928H64.0737L64.129 42.3897H64.1698C64.5426 41.7491 65.1658 41.1523 66.2871 41.1523C67.187 41.1523 67.8801 41.7081 68.1684 42.5008H68.1946C68.4014 42.1118 68.6781 41.8339 68.9547 41.6262C69.3566 41.3191 69.7847 41.1523 70.4225 41.1523C71.3224 41.1523 72.6388 41.7374 72.6388 44.0716V48.0205H71.4477V44.2237C71.4477 42.9162 70.9642 42.1527 69.9944 42.1527C69.2897 42.1527 68.7625 42.6676 68.5412 43.2526C68.4859 43.4339 68.4451 43.6416 68.4451 43.8639V48.0205H67.2539V43.9897C67.2539 42.9191 66.7822 42.1557 65.856 42.1557C65.1076 42.1557 64.5397 42.767 64.3475 43.3784C64.2776 43.5451 64.2514 43.7674 64.2514 43.9751V48.0205H63.0602V43.1122L63.0631 43.1151Z" fill="#9C9B99"/>
<path d="M77.3096 38.7897C78.0435 38.6639 78.9143 38.582 79.8695 38.582C81.5994 38.582 82.8313 39.0003 83.6497 39.7492C84.4942 40.5126 84.9777 41.5978 84.9777 43.1131C84.9777 44.6283 84.4942 45.8949 83.6351 46.7548C82.7498 47.6295 81.3082 48.1033 79.4967 48.1033C78.6259 48.1033 77.9182 48.0624 77.3096 47.9922V38.7868V38.7897ZM78.5124 47.0766C78.8152 47.1176 79.2608 47.1322 79.7297 47.1322C82.3187 47.1322 83.7021 45.6872 83.7021 43.1569C83.7166 40.9455 82.4702 39.5415 79.9219 39.5415C79.2987 39.5415 78.8298 39.5971 78.5094 39.6673V47.0766H78.5124Z" fill="#9C9B99"/>
<path d="M87.0839 44.8799C87.1101 46.5356 88.1498 47.2171 89.3817 47.2171C90.2525 47.2171 90.7942 47.065 91.2368 46.869L91.4582 47.7466C91.0301 47.9425 90.2816 48.1766 89.2157 48.1766C87.1538 48.1766 85.9219 46.7988 85.9219 44.7717C85.9219 42.7446 87.113 41.1562 89.0643 41.1562C91.266 41.1562 91.8338 43.0751 91.8338 44.3125C91.8338 44.564 91.8193 44.7425 91.7931 44.8829H87.0868L87.0839 44.8799ZM90.6544 44.0053C90.6689 43.2419 90.3369 42.0309 88.9652 42.0309C87.7188 42.0309 87.1946 43.157 87.0955 44.0053H90.6515H90.6544Z" fill="#9C9B99"/>
<path d="M92.4394 47.3129L95.4566 43.3493C95.7595 42.9749 96.039 42.6532 96.3419 42.2934V42.267H92.7161V41.293H97.8097V42.0564L94.8188 45.9644C94.5276 46.3388 94.2655 46.6869 93.9597 47.0204V47.0467H97.8621V48.0208H92.4365V47.3129H92.4394Z" fill="#9C9B99"/>
<path d="M103.695 46.4107C103.695 46.9958 103.724 47.5662 103.791 48.0225H102.699L102.603 47.1742H102.562C102.19 47.7037 101.47 48.1746 100.515 48.1746C99.158 48.1746 98.4678 47.2152 98.4678 46.2411C98.4678 44.6147 99.9065 43.7255 102.495 43.7372V43.5968C102.495 43.0556 102.344 42.0406 100.972 42.0523C100.335 42.0523 99.6851 42.2337 99.2133 42.5525L98.9367 41.7335C99.49 41.3854 100.308 41.1484 101.153 41.1484C103.2 41.1484 103.701 42.5525 103.701 43.8864V46.402L103.695 46.4107ZM102.519 44.5884C101.191 44.5621 99.6822 44.7961 99.6822 46.1036C99.6822 46.9109 100.209 47.2707 100.818 47.2707C101.703 47.2707 102.271 46.715 102.466 46.1446C102.507 46.0071 102.522 45.8667 102.522 45.7555V44.5884H102.519Z" fill="#9C9B99"/>
<path d="M105.521 43.1151C105.521 42.4072 105.507 41.8485 105.466 41.2928H106.546L106.616 42.4043H106.642C106.974 41.7783 107.749 41.1523 108.859 41.1523C109.785 41.1523 111.226 41.7081 111.226 44.016V48.0205H110.009V44.1418C110.009 43.0566 109.607 42.1527 108.46 42.1527C107.67 42.1527 107.047 42.7231 106.826 43.4047C106.771 43.5568 106.741 43.7674 106.741 43.9751V48.0205H105.524V43.1122L105.521 43.1151Z" fill="#9C9B99"/>
<path d="M115.752 46.549C116.291 46.8971 117.068 47.1603 117.898 47.1603C119.13 47.1603 119.85 46.508 119.85 45.5603C119.85 44.6974 119.352 44.1825 118.091 43.7116C116.567 43.1558 115.627 42.3485 115.627 41.041C115.627 39.5813 116.83 38.4961 118.644 38.4961C119.585 38.4961 120.292 38.7184 120.694 38.9553L120.362 39.944C120.071 39.7627 119.448 39.4994 118.603 39.4994C117.33 39.4994 116.844 40.2629 116.844 40.9035C116.844 41.7781 117.412 42.211 118.699 42.7112C120.278 43.3226 121.067 44.0889 121.067 45.4637C121.067 46.9088 120.016 48.1753 117.814 48.1753C116.914 48.1753 115.933 47.8975 115.432 47.564L115.749 46.549H115.752Z" fill="#9C9B99"/>
<path d="M122.55 38.1523H123.767V42.3645H123.796C123.991 42.0164 124.294 41.6976 124.667 41.487C125.028 41.2793 125.456 41.1535 125.914 41.1535C126.813 41.1535 128.252 41.7093 128.252 44.0172V48.0217H127.035V44.1576C127.035 43.0724 126.633 42.1685 125.485 42.1685C124.696 42.1685 124.088 42.7243 123.852 43.3796C123.782 43.5609 123.767 43.7423 123.767 43.9646V48.0247H122.55V38.1523Z" fill="#9C9B99"/>
<path d="M131.45 39.4002C131.45 39.8185 131.159 40.1519 130.675 40.1519C130.233 40.1519 129.941 39.8185 129.941 39.4002C129.941 38.9819 130.244 38.6367 130.702 38.6367C131.159 38.6367 131.45 38.9702 131.45 39.4002ZM130.093 48.0205V41.2927H131.31V48.0205H130.093Z" fill="#9C9B99"/>
<path d="M133.194 43.393C133.194 42.6003 133.179 41.9187 133.139 41.2928H134.205L134.26 42.6266H134.301C134.606 41.7227 135.352 41.1523 136.17 41.1523C136.296 41.1523 136.392 41.167 136.502 41.1787V42.3341C136.377 42.3078 136.252 42.3078 136.086 42.3078C135.227 42.3078 134.618 42.9484 134.452 43.8639C134.426 44.0307 134.411 44.2384 134.411 44.4343V48.0205H133.194V43.3901V43.393Z" fill="#9C9B99"/>
<path d="M142.22 46.4107C142.22 46.9958 142.249 47.5662 142.316 48.0225H141.224L141.128 47.1742H141.087C140.714 47.7037 139.995 48.1746 139.04 48.1746C137.682 48.1746 136.992 47.2152 136.992 46.2411C136.992 44.6147 138.431 43.7255 141.02 43.7372V43.5968C141.02 43.0556 140.868 42.0406 139.497 42.0523C138.859 42.0523 138.21 42.2337 137.738 42.5525L137.461 41.7335C138.014 41.3854 138.833 41.1484 139.677 41.1484C141.725 41.1484 142.226 42.5525 142.226 43.8864V46.402L142.22 46.4107ZM141.043 44.5884C139.715 44.5621 138.207 44.7961 138.207 46.1036C138.207 46.9109 138.734 47.2707 139.342 47.2707C140.228 47.2707 140.796 46.715 140.991 46.1446C141.032 46.0071 141.046 45.8667 141.046 45.7555V44.5884H141.043Z" fill="#9C9B99"/>
<path d="M152.727 48.0203C152.465 47.757 152.214 47.4791 151.853 47.1164C151.05 47.8536 150.164 48.1724 149.127 48.1724C147.313 48.1724 146.262 46.9497 146.262 45.5456C146.262 44.2674 147.022 43.3898 148.088 42.8077V42.7668C147.604 42.1554 147.313 41.4592 147.313 40.8069C147.313 39.6544 148.129 38.4844 149.681 38.4844C150.843 38.4844 151.743 39.2478 151.743 40.4735C151.743 41.4622 151.175 42.2402 149.692 42.9774V43.0329C150.482 43.9514 151.367 44.9665 151.964 45.6334C152.392 44.9811 152.683 44.0772 152.864 42.8955H153.971C153.72 44.3697 153.321 45.5369 152.628 46.3559C153.126 46.897 153.612 47.4265 154.166 48.0232H152.727V48.0203ZM151.259 46.4085C150.706 45.7972 149.666 44.6564 148.629 43.4483C148.117 43.7818 147.424 44.3668 147.424 45.3672C147.424 46.4378 148.213 47.2568 149.349 47.2568C150.138 47.2568 150.817 46.8941 151.259 46.4085ZM148.423 40.6811C148.423 41.3627 148.74 41.8775 149.127 42.3777C150.068 41.8366 150.677 41.3364 150.677 40.529C150.677 39.9586 150.359 39.318 149.585 39.318C148.81 39.318 148.423 39.9586 148.423 40.6811Z" fill="#9C9B99"/>
<path d="M159.428 45.0759L158.458 48.0245H157.212L160.395 38.6523H161.834L165.017 48.0245H163.73L162.734 45.0759H159.425H159.428ZM162.501 44.1282L161.575 41.4312C161.368 40.8199 161.228 40.2641 161.091 39.72H161.065C160.925 40.2612 160.788 40.8462 160.593 41.4166L159.679 44.1282H162.504H162.501Z" fill="#9C9B99"/>
<path d="M165.963 46.7842C166.336 47.0065 166.974 47.2581 167.582 47.2581C168.453 47.2581 168.87 46.8281 168.87 46.2577C168.87 45.6873 168.523 45.3684 167.638 45.035C166.42 44.5904 165.852 43.9351 165.852 43.1307C165.852 42.0455 166.738 41.1562 168.165 41.1562C168.843 41.1562 169.437 41.3376 169.799 41.5745L169.507 42.4638C169.245 42.2971 168.759 42.0601 168.136 42.0601C167.416 42.0601 167.029 42.4784 167.029 42.9786C167.029 43.5344 167.416 43.7859 168.29 44.134C169.44 44.564 170.049 45.1491 170.049 46.1494C170.049 47.3458 169.123 48.1795 167.556 48.1795C166.822 48.1795 166.144 47.9835 165.675 47.7056L165.966 46.7871L165.963 46.7842Z" fill="#9C9B99"/>
<path d="M171.305 46.7842C171.678 47.0065 172.316 47.2581 172.924 47.2581C173.795 47.2581 174.211 46.8281 174.211 46.2577C174.211 45.6873 173.865 45.3684 172.98 45.035C171.762 44.5904 171.194 43.9351 171.194 43.1307C171.194 42.0455 172.08 41.1562 173.507 41.1562C174.185 41.1562 174.779 41.3376 175.14 41.5745L174.849 42.4638C174.587 42.2971 174.101 42.0601 173.478 42.0601C172.758 42.0601 172.371 42.4784 172.371 42.9786C172.371 43.5344 172.758 43.7859 173.632 44.134C174.782 44.564 175.391 45.1491 175.391 46.1494C175.391 47.3458 174.465 48.1795 172.898 48.1795C172.164 48.1795 171.485 47.9835 171.017 47.7056L171.308 46.7871L171.305 46.7842Z" fill="#9C9B99"/>
<path d="M182.878 44.6011C182.878 47.0904 181.148 48.1727 179.54 48.1727C177.741 48.1727 176.328 46.8388 176.328 44.7122C176.328 42.4745 177.808 41.1523 179.651 41.1523C181.495 41.1523 182.875 42.5564 182.875 44.6011H182.878ZM177.577 44.6713C177.577 46.1455 178.408 47.2571 179.599 47.2571C180.79 47.2571 181.634 46.1602 181.634 44.642C181.634 43.5012 181.066 42.0708 179.628 42.0708C178.189 42.0708 177.58 43.4047 177.58 44.6713H177.577Z" fill="#9C9B99"/>
<path d="M189.053 47.7875C188.735 47.9396 188.027 48.1766 187.128 48.1766C185.106 48.1766 183.793 46.7988 183.793 44.7425C183.793 42.6861 185.205 41.1562 187.393 41.1562C188.112 41.1562 188.75 41.3376 189.082 41.519L188.805 42.4492C188.514 42.297 188.057 42.1303 187.393 42.1303C185.855 42.1303 185.025 43.2857 185.025 44.6752C185.025 46.2313 186.021 47.1908 187.352 47.1908C188.045 47.1908 188.502 47.0241 188.846 46.872L189.053 47.7904V47.7875Z" fill="#9C9B99"/>
<path d="M191.696 39.4002C191.696 39.8185 191.405 40.1519 190.921 40.1519C190.479 40.1519 190.188 39.8185 190.188 39.4002C190.188 38.9819 190.49 38.6367 190.948 38.6367C191.405 38.6367 191.696 38.9702 191.696 39.4002ZM190.339 48.0205V41.2927H191.556V48.0205H190.339Z" fill="#9C9B99"/>
<path d="M198.148 46.4107C198.148 46.9958 198.177 47.5662 198.244 48.0225H197.152L197.055 47.1742H197.015C196.642 47.7037 195.923 48.1746 194.967 48.1746C193.61 48.1746 192.92 47.2152 192.92 46.2411C192.92 44.6147 194.359 43.7255 196.948 43.7372V43.5968C196.948 43.0556 196.796 42.0406 195.425 42.0523C194.787 42.0523 194.137 42.2337 193.665 42.5525L193.389 41.7335C193.942 41.3854 194.761 41.1484 195.605 41.1484C197.652 41.1484 198.153 42.5525 198.153 43.8864V46.402L198.148 46.4107ZM196.971 44.5884C195.643 44.5621 194.134 44.7961 194.134 46.1036C194.134 46.9109 194.661 47.2707 195.27 47.2707C196.155 47.2707 196.723 46.715 196.919 46.1446C196.959 46.0071 196.974 45.8667 196.974 45.7555V44.5884H196.971Z" fill="#9C9B99"/>
<path d="M201.389 39.6777V41.2895H203.134V42.2197H201.389V45.8497C201.389 46.6834 201.625 47.1573 202.304 47.1573C202.636 47.1573 202.831 47.1309 203.008 47.0724L203.064 48.0026C202.828 48.0875 202.455 48.1694 201.983 48.1694C201.415 48.1694 200.958 47.9734 200.667 47.6545C200.335 47.2801 200.195 46.6805 200.195 45.8878V42.2167H199.158V41.2865H200.195V40.0346L201.386 39.6719L201.389 39.6777Z" fill="#9C9B99"/>
<path d="M204.959 44.8799C204.985 46.5356 206.025 47.2171 207.257 47.2171C208.127 47.2171 208.669 47.065 209.112 46.869L209.333 47.7466C208.905 47.9425 208.157 48.1766 207.091 48.1766C205.029 48.1766 203.797 46.7988 203.797 44.7717C203.797 42.7446 204.988 41.1562 206.939 41.1562C209.141 41.1562 209.709 43.0751 209.709 44.3125C209.709 44.564 209.694 44.7425 209.668 44.8829H204.962L204.959 44.8799ZM208.529 44.0053C208.544 43.2419 208.212 42.0309 206.84 42.0309C205.594 42.0309 205.07 43.157 204.971 44.0053H208.526H208.529Z" fill="#9C9B99"/>
<path d="M210.912 46.7842C211.285 47.0065 211.923 47.2581 212.532 47.2581C213.402 47.2581 213.819 46.8281 213.819 46.2577C213.819 45.6873 213.472 45.3684 212.587 45.035C211.37 44.5904 210.802 43.9351 210.802 43.1307C210.802 42.0455 211.687 41.1562 213.114 41.1562C213.793 41.1562 214.387 41.3376 214.748 41.5745L214.457 42.4638C214.195 42.2971 213.708 42.0601 213.085 42.0601C212.366 42.0601 211.978 42.4784 211.978 42.9786C211.978 43.5344 212.366 43.7859 213.239 44.134C214.39 44.564 214.998 45.1491 214.998 46.1494C214.998 47.3458 214.072 48.1795 212.505 48.1795C211.771 48.1795 211.093 47.9835 210.624 47.7056L210.915 46.7871L210.912 46.7842Z" fill="#9C9B99"/>
<path d="M56.6439 29.0276V29.6477H44.0977V29.0276H44.8985C45.5975 29.0276 46.1625 28.9047 46.5906 28.659C46.8993 28.4952 47.1352 28.2144 47.3012 27.8166C47.4322 27.5358 47.4963 26.8015 47.4963 25.611V10.0289C47.4963 8.81494 47.4293 8.05733 47.3012 7.75311C47.1701 7.4489 46.908 7.18271 46.509 6.95455C46.1101 6.72639 45.5742 6.61231 44.8985 6.61231H44.0977V5.99219H56.6439V6.61231H55.8459C55.1499 6.61231 54.5878 6.73517 54.1626 6.98088C53.8568 7.14469 53.6151 7.4255 53.4374 7.82332C53.3064 8.10413 53.2423 8.83834 53.2423 10.0289V25.611C53.2423 26.8249 53.3093 27.5855 53.4462 27.8868C53.5801 28.191 53.8481 28.4572 54.2441 28.6824C54.6402 28.9106 55.1732 29.0246 55.8459 29.0246H56.6439V29.0276Z" fill="#1A171B"/>
<path d="M62.838 11.5537L71.8662 22.7335V14.9995C71.8662 13.9026 71.7089 13.1625 71.3915 12.7735C70.9575 12.2528 70.2295 12.0013 69.2072 12.0188V11.5537H75.2648V12.0188C74.4873 12.1183 73.966 12.247 73.7009 12.402C73.433 12.56 73.2262 12.8144 73.0777 13.1713C72.9292 13.5252 72.8534 14.1366 72.8534 14.9995V30.0551H72.3991L60.0277 14.9849V26.5157C60.0277 27.5629 60.2723 28.2679 60.7586 28.6365C61.245 29.0021 61.8042 29.1864 62.4332 29.1864H62.8701V29.6515H56.3174V29.1864C57.3338 29.1776 58.0386 28.9728 58.4375 28.5692C58.8365 28.1655 59.0346 27.484 59.0346 26.5157V13.7271L58.6443 13.2474C58.257 12.7559 57.9133 12.4312 57.6163 12.2762C57.3192 12.1212 56.8911 12.0364 56.3319 12.0159V11.5508H62.8322L62.838 11.5537Z" fill="#1A171B"/>
<path d="M75.4629 29.6485V29.1835H76.0744C76.6074 29.1835 77.018 29.0986 77.3034 28.9319C77.5888 28.7652 77.7985 28.537 77.9354 28.2474C78.0169 28.0573 78.0577 27.4898 78.0577 26.5421V14.6543C78.0577 13.7154 78.0082 13.1303 77.9092 12.8963C77.8102 12.6623 77.6092 12.4576 77.3034 12.2791C77.0006 12.1036 76.5899 12.0159 76.0744 12.0159H75.4629V11.5508H83.6756C85.8656 11.5508 87.6305 11.8433 88.9643 12.4312C90.5952 13.1508 91.8358 14.2419 92.6775 15.7015C93.5221 17.1612 93.9414 18.8109 93.9414 20.6538C93.9414 21.9262 93.7347 23.0992 93.3182 24.1698C92.9017 25.2404 92.3659 26.1267 91.7077 26.8258C91.0495 27.5249 90.2894 28.0836 89.4274 28.5077C88.5653 28.9319 87.514 29.2566 86.2675 29.4877C85.7171 29.593 84.8521 29.6485 83.6697 29.6485H75.457H75.4629ZM82.4786 12.5453V26.6912C82.4786 27.4401 82.5135 27.8993 82.5863 28.069C82.6592 28.2386 82.7786 28.3673 82.9504 28.458C83.1921 28.5926 83.5445 28.6569 84.0017 28.6569C85.5045 28.6569 86.649 28.148 87.4412 27.1329C88.5187 25.7611 89.0604 23.6316 89.0604 20.7415C89.0604 18.4161 88.6905 16.5586 87.9537 15.1662C87.3684 14.0781 86.6199 13.338 85.6996 12.9461C85.0531 12.6711 83.9784 12.5365 82.4757 12.5453H82.4786Z" fill="#1A171B"/>
<path d="M102.879 29.1844V29.6495H93.2686V29.1844H93.8801C94.4131 29.1844 94.8441 29.0908 95.1703 28.9007C95.4062 28.7749 95.5867 28.5585 95.7149 28.2513C95.8139 28.0349 95.8634 27.4674 95.8634 26.546V14.6582C95.8634 13.7193 95.8139 13.1343 95.7149 12.9002C95.6159 12.6662 95.4149 12.4615 95.1091 12.283C94.8062 12.1075 94.3956 12.0198 93.8801 12.0198H93.2686V11.5547H102.879V12.0198H102.27C101.738 12.0198 101.309 12.1134 100.986 12.3035C100.75 12.4293 100.567 12.6458 100.433 12.9529C100.334 13.1694 100.284 13.7368 100.284 14.6582V26.546C100.284 27.4849 100.337 28.07 100.439 28.304C100.541 28.538 100.744 28.7427 101.047 28.9182C101.35 29.0938 101.758 29.1815 102.27 29.1815H102.879V29.1844Z" fill="#1A171B"/>
<path d="M113.314 24.4636H106.855L106.051 26.2362C105.798 26.833 105.672 27.3273 105.672 27.7164C105.672 28.2312 105.879 28.6115 106.296 28.8572C106.54 29.0034 107.137 29.1116 108.093 29.1819V29.6469H101.997V29.1819C102.655 29.0824 103.197 28.8104 103.619 28.3628C104.042 27.9153 104.566 26.9909 105.189 25.5927L111.747 11.1484H112.004L118.615 25.9964C119.247 27.4238 119.765 28.3248 120.17 28.6963C120.476 28.9771 120.91 29.1409 121.469 29.1848V29.6499H112.636V29.1848H113C113.71 29.1848 114.211 29.0853 114.5 28.8835C114.698 28.7372 114.797 28.5266 114.797 28.2546C114.797 28.0908 114.77 27.9211 114.715 27.7485C114.698 27.6666 114.561 27.3244 114.31 26.7218L113.314 24.4695V24.4636ZM112.875 23.4691L110.128 17.2503L107.306 23.4691H112.877H112.875Z" fill="#1A171B"/>
<path d="M141.529 17.5387C143.731 18.0448 145.277 18.6561 146.168 19.3757C147.447 20.3995 148.088 21.7246 148.088 23.351C148.088 25.068 147.383 26.4896 145.976 27.6129C144.249 28.9731 141.739 29.6517 138.442 29.6517H126.618V29.0316C127.71 29.0316 128.45 28.9321 128.84 28.7361C129.231 28.5372 129.501 28.2798 129.659 27.9639C129.816 27.648 129.895 26.8641 129.895 25.6179V10.7173C129.895 9.47124 129.816 8.68731 129.659 8.36554C129.501 8.04378 129.225 7.78344 128.832 7.59331C128.435 7.40025 127.699 7.30372 126.618 7.30372V6.68359H137.781C140.449 6.68359 142.336 6.92053 143.448 7.39147C144.558 7.86242 145.435 8.56738 146.075 9.50634C146.716 10.4424 147.036 11.4399 147.036 12.4987C147.036 13.6132 146.629 14.6048 145.819 15.4736C145.006 16.3424 143.577 17.0327 141.529 17.5446V17.5387ZM135.297 18.349L135.271 25.7057V26.554C135.271 27.1653 135.425 27.6275 135.74 27.9376C136.051 28.2476 136.517 28.4056 137.132 28.4056C138.04 28.4056 138.882 28.2067 139.651 27.8059C140.42 27.4052 141.008 26.8231 141.418 26.0626C141.829 25.2991 142.033 24.4508 142.033 23.5148C142.033 22.4442 141.788 21.4818 141.305 20.6277C140.819 19.7765 140.134 19.1797 139.252 18.8404C138.369 18.5011 137.053 18.3373 135.303 18.349H135.297ZM135.3 17.1088C136.925 17.1088 138.125 16.9245 138.896 16.5588C139.668 16.1932 140.262 15.6754 140.67 15.0085C141.081 14.3416 141.285 13.4933 141.285 12.4607C141.285 11.4282 141.084 10.5828 140.679 9.92171C140.274 9.26063 139.697 8.76043 138.946 8.41527C138.195 8.07303 136.989 7.9063 135.329 7.91507L135.297 17.1029L135.3 17.1088Z" fill="#1A171B"/>
<path d="M154.623 21.3909V26.5128C154.623 27.4869 154.684 28.1012 154.809 28.3527C154.935 28.6043 155.153 28.8061 155.465 28.9582C155.776 29.1074 156.362 29.1835 157.218 29.1835V29.6485H147.729V29.1835C148.594 29.1835 149.183 29.1074 149.491 28.9524C149.8 28.7973 150.016 28.5955 150.141 28.3469C150.266 28.0982 150.327 27.4869 150.327 26.5128V14.6865C150.327 13.7125 150.266 13.0982 150.141 12.8466C150.016 12.5951 149.797 12.3932 149.486 12.2411C149.174 12.0919 148.589 12.0159 147.732 12.0159V11.5508H156.283C158.508 11.5508 160.136 11.7029 161.167 12.0042C162.198 12.3055 163.039 12.8642 163.692 13.6773C164.344 14.4905 164.67 15.4441 164.67 16.5381C164.67 17.872 164.181 18.9748 163.205 19.8464C162.582 20.3993 161.711 20.8117 160.59 21.0867L164.991 27.2265C165.57 28.0134 165.981 28.5048 166.226 28.7008C166.595 28.9758 167.026 29.1249 167.513 29.1513V29.6485H161.746L155.829 21.3909H154.623ZM154.623 12.5453V20.4285H155.395C156.65 20.4285 157.588 20.3174 158.211 20.0892C158.834 19.864 159.323 19.4574 159.682 18.8665C160.037 18.2786 160.217 17.5093 160.217 16.5645C160.217 15.1926 159.891 14.1805 159.236 13.5252C158.581 12.87 157.526 12.5424 156.073 12.5424H154.623V12.5453Z" fill="#1A171B"/>
<path d="M177.21 29.1844V29.6495H167.6V29.1844H168.211C168.744 29.1844 169.175 29.0908 169.501 28.9007C169.737 28.7749 169.918 28.5585 170.046 28.2513C170.145 28.0349 170.194 27.4674 170.194 26.546V14.6582C170.194 13.7193 170.145 13.1343 170.046 12.9002C169.947 12.6662 169.746 12.4615 169.44 12.283C169.137 12.1075 168.727 12.0198 168.211 12.0198H167.6V11.5547H177.21V12.0198H176.602C176.069 12.0198 175.64 12.1134 175.317 12.3035C175.081 12.4293 174.898 12.6458 174.764 12.9529C174.665 13.1694 174.615 13.7368 174.615 14.6582V26.546C174.615 27.4849 174.668 28.07 174.77 28.304C174.872 28.538 175.076 28.7427 175.378 28.9182C175.681 29.0938 176.089 29.1815 176.602 29.1815H177.21V29.1844Z" fill="#1A171B"/>
<path d="M184.535 12.6068V19.9634H184.905C186.088 19.9634 186.944 19.6007 187.474 18.8782C188.004 18.1557 188.345 17.088 188.49 15.6781H188.953V25.1468H188.49C188.38 24.1171 188.149 23.2747 187.797 22.6195C187.445 21.9642 187.034 21.5225 186.568 21.2944C186.102 21.0691 185.424 20.9551 184.535 20.9551V26.0594C184.535 27.0569 184.579 27.6682 184.663 27.8905C184.751 28.1129 184.911 28.2971 185.144 28.4375C185.38 28.5809 185.758 28.6511 186.283 28.6511H187.381C189.096 28.6511 190.473 28.2591 191.507 27.4752C192.541 26.6912 193.284 25.4978 193.738 23.8977H194.239L193.412 29.6456H177.52V29.1805H178.131C178.664 29.1805 179.095 29.0869 179.421 28.8968C179.657 28.771 179.838 28.5545 179.966 28.2474C180.065 28.031 180.114 27.4635 180.114 26.5421V14.6543C180.114 13.8236 180.091 13.3146 180.047 13.1245C179.957 12.8086 179.788 12.5658 179.544 12.3932C179.2 12.1417 178.728 12.0159 178.131 12.0159H177.52V11.5508H192.911V16.8891H192.448C192.183 15.5904 191.813 14.6573 191.338 14.0898C190.861 13.5252 190.188 13.1099 189.314 12.8437C188.805 12.6857 187.852 12.6038 186.452 12.6038H184.535V12.6068Z" fill="#1A171B"/>
<path d="M201.164 12.6058V20.0239H201.688C202.498 20.0239 203.162 19.904 203.675 19.6641C204.187 19.4242 204.621 19.0206 204.979 18.4502C205.335 17.8827 205.568 17.1134 205.675 16.1423H206.138V25.2365H205.675C205.504 23.5165 205.038 22.3845 204.277 21.8375C203.517 21.2905 202.652 21.0155 201.688 21.0155H201.164V26.5411C201.164 27.48 201.217 28.0651 201.319 28.2991C201.42 28.5331 201.624 28.7379 201.927 28.9134C202.23 29.0889 202.638 29.1766 203.15 29.1766H203.759V29.6417H194.148V29.1766H194.76C195.293 29.1766 195.724 29.083 196.05 28.8929C196.286 28.7671 196.467 28.5506 196.595 28.2435C196.694 28.027 196.743 27.4596 196.743 26.5382V14.6504C196.743 13.7115 196.694 13.1264 196.595 12.8924C196.496 12.6584 196.295 12.4537 195.989 12.2752C195.686 12.0997 195.275 12.012 194.76 12.012H194.148V11.5469H209.601V16.7624H209.045C208.92 15.5397 208.596 14.6358 208.078 14.0479C207.56 13.4599 206.811 13.0445 205.83 12.8047C205.288 12.6701 204.289 12.6028 202.833 12.6028H201.164V12.6058Z" fill="#1A171B"/>
<path d="M220.283 29.1844V29.6495H210.673V29.1844H211.284C211.817 29.1844 212.248 29.0908 212.575 28.9007C212.81 28.7749 212.991 28.5585 213.119 28.2513C213.218 28.0349 213.268 27.4674 213.268 26.546V14.6582C213.268 13.7193 213.218 13.1343 213.119 12.9002C213.02 12.6662 212.819 12.4615 212.513 12.283C212.211 12.1075 211.8 12.0198 211.284 12.0198H210.673V11.5547H220.283V12.0198H219.675C219.142 12.0198 218.714 12.1134 218.39 12.3035C218.155 12.4293 217.971 12.6458 217.837 12.9529C217.738 13.1694 217.689 13.7368 217.689 14.6582V26.546C217.689 27.4849 217.741 28.07 217.843 28.304C217.945 28.538 218.149 28.7427 218.452 28.9182C218.754 29.0938 219.162 29.1815 219.675 29.1815H220.283V29.1844Z" fill="#1A171B"/>
<path d="M227.008 11.5537L236.036 22.7335V14.9995C236.036 13.9026 235.879 13.1625 235.561 12.7735C235.127 12.2528 234.399 12.0013 233.377 12.0188V11.5537H239.435V12.0188C238.657 12.1183 238.136 12.247 237.871 12.402C237.603 12.56 237.396 12.8144 237.248 13.1713C237.099 13.5252 237.023 14.1366 237.023 14.9995V30.0551H236.569L224.198 14.9849V26.5157C224.198 27.5629 224.442 28.2679 224.929 28.6365C225.415 29.005 225.974 29.1864 226.603 29.1864H227.04V29.6515H220.487V29.1864C221.504 29.1776 222.208 28.9728 222.607 28.5692C223.006 28.1655 223.204 27.484 223.204 26.5157V13.7271L222.814 13.2474C222.427 12.7559 222.083 12.4312 221.786 12.2762C221.489 12.1212 221.061 12.0364 220.502 12.0159V11.5508H227.002L227.008 11.5537Z" fill="#1A171B"/>
<path d="M256.836 11.1475V17.5096H256.373C255.767 15.775 254.859 14.4587 253.647 13.5548C252.436 12.6539 251.113 12.2005 249.675 12.2005C248.236 12.2005 247.158 12.5808 246.244 13.3384C245.332 14.0989 244.686 15.1578 244.304 16.5151C243.926 17.8753 243.736 19.2676 243.736 20.698C243.736 22.4297 243.943 23.9507 244.357 25.2553C244.77 26.56 245.437 27.5194 246.358 28.1337C247.278 28.748 248.373 29.0522 249.64 29.0522C250.079 29.0522 250.531 29.0054 250.994 28.9118C251.457 28.8182 251.932 28.6836 252.415 28.5052V24.7376C252.415 24.0151 252.366 23.5471 252.267 23.3365C252.168 23.1229 251.961 22.9328 251.646 22.7602C251.335 22.5876 250.956 22.5028 250.511 22.5028H250.036V22.0377H258.997V22.5028C258.315 22.5496 257.844 22.6403 257.576 22.7807C257.308 22.9211 257.101 23.1522 256.958 23.4769C256.877 23.6495 256.836 24.0677 256.836 24.7376V28.5052C255.665 29.0141 254.445 29.4003 253.178 29.6577C251.911 29.9151 250.598 30.0467 249.238 30.0467C247.499 30.0467 246.055 29.8127 244.904 29.3476C243.754 28.8825 242.74 28.2682 241.864 27.5106C240.984 26.753 240.297 25.8989 239.802 24.9482C239.17 23.7255 238.855 22.3536 238.855 20.8355C238.855 18.121 239.825 15.8247 241.768 13.9527C243.71 12.0806 246.154 11.1445 249.098 11.1445C250.01 11.1445 250.831 11.2177 251.565 11.361C251.961 11.4341 252.604 11.6389 253.496 11.9753C254.384 12.3117 254.911 12.4813 255.074 12.4813C255.327 12.4813 255.56 12.3877 255.779 12.2034C255.994 12.0162 256.195 11.6652 256.376 11.1475H256.839H256.836Z" fill="#1A171B"/>
<path d="M15.8811 15.8337C16.3005 14.7017 15.8811 12.1305 15.8811 12.1305C16.583 13.1133 16.979 16.135 16.979 16.135C17.3285 13.9441 15.8811 10.0156 15.8811 10.0156C17.1538 11.838 18.6594 17.4221 18.6594 17.4221C18.5895 14.4735 15.8811 7.75159 15.8811 7.75159C17.5615 9.33993 21.1786 20.2185 21.1786 20.2185C20.6893 14.4765 15.8811 5.33251 15.8811 5.33251C19.3817 8.88361 23.9074 23.4683 23.9074 23.4683C22.9988 15.2311 16.0704 3.33172 15.8811 2.99241C23.0192 12.891 25.8674 25.434 25.8674 25.434C25.7888 16.3807 15.8811 0.5704 15.8811 0.5704C26.1732 13.5989 27.8274 27.0925 27.8274 27.0925C28.8146 16.4685 17.6081 0.497272 17.6081 0.497272C30.9785 17.0096 29.8543 29.5877 29.8543 29.5877C32.2774 19.0718 19.5157 0 19.5157 0C30.6086 10.9809 31.6687 24.9894 31.6687 24.9894C32.0968 30.003 31.1154 36.2628 28.0953 41.9785C24.6384 48.5249 15.8811 51.9971 15.8811 51.9971C15.8811 51.9971 7.1238 48.5249 3.66689 41.9785C0.649744 36.2628 -0.331702 30.003 0.0964063 24.9894C0.0964063 24.9894 1.15649 10.9809 12.2495 0C12.2495 0 -0.512265 19.0718 1.90495 29.5847C1.90495 29.5847 0.78371 17.0067 14.1541 0.494347C14.1541 0.494347 2.94755 16.4685 3.93482 27.0925C3.93482 27.0925 5.58901 13.5989 15.8811 0.5704C15.8811 0.5704 5.97344 16.3778 5.8948 25.4311C5.8948 25.4311 8.74304 12.8881 15.8811 2.98948C15.6918 3.3288 8.76634 15.2282 7.85479 23.4654C7.85479 23.4654 12.3805 8.88069 15.8811 5.32958C15.8811 5.32958 11.0758 14.4735 10.5836 20.2156C10.5836 20.2156 14.2007 9.33408 15.8811 7.74866C15.8811 7.74866 13.1727 14.4735 13.1028 17.4191C13.1028 17.4191 14.6084 11.838 15.8811 10.0127C15.8811 10.0127 14.4337 13.9412 14.7832 16.1321C14.7832 16.1321 15.1792 13.1104 15.8811 12.1276C15.8811 12.1276 15.4617 14.6958 15.8811 15.8308V15.8337Z" fill="#138C33"/>
<path d="M15.8811 48.6918C10.4788 48.6918 6.10156 44.1871 6.10156 36.2951C6.10156 28.4031 10.4788 20.1133 15.8811 20.1133C21.2834 20.1133 25.6606 28.4031 25.6606 36.2951C25.6606 44.1871 21.2834 48.6918 15.8811 48.6918Z" fill="white"/>
<path d="M15.881 47.764C10.831 47.764 6.73633 43.5518 6.73633 36.1747C6.73633 28.7975 10.831 21.043 15.881 21.043C20.9309 21.043 25.0256 28.7946 25.0256 36.1747C25.0256 43.5548 20.9309 47.764 15.881 47.764Z" fill="#F29525"/>
<path d="M19.1864 44.611C17.6691 45.1638 17.075 44.4325 15.8809 44.4355C14.6403 44.4355 14.3432 45.1668 12.5492 44.5759C10.1641 43.789 8.85645 39.8664 8.85645 37.0144C8.85645 32.8227 12.0017 30.6055 15.8809 30.6055C19.7601 30.6055 22.9054 32.8227 22.9054 37.0144C22.9054 39.9132 21.5861 43.7334 19.1893 44.611H19.1864Z" fill="white"/>
<path d="M18.1061 43.6676C16.5363 43.6676 16.3965 40.8829 15.8694 40.8829C15.4471 40.8829 15.3073 43.77 13.9153 43.77C11.6844 43.77 9.53516 40.4616 9.53516 37.2382C9.53516 33.2834 12.1999 31.5195 15.8694 31.5195C19.5389 31.5195 22.2241 33.2834 22.2241 37.2382C22.2241 40.3505 20.0282 43.6676 18.1032 43.6676H18.1061Z" fill="#14265C"/>
</g>
<defs>
<clipPath id="clip0_3654_2697">
<rect width="259" height="52" fill="white"/>
</clipPath>
</defs>
</svg>
