<svg width="27" height="24" viewBox="0 0 27 24" fill="none" xmlns="http://www.w3.org/2000/svg">
<g clip-path="url(#clip0_3600_984)">
<path d="M13.3785 23.6172H0.478461C0.078461 23.6172 -0.121539 23.2172 0.078461 22.8172L6.47846 11.5172L12.8785 0.217188C13.0785 -0.0828125 13.5785 -0.0828125 13.7785 0.217188L20.1785 11.5172L26.5785 22.8172C26.7785 23.1172 26.4785 23.6172 26.1785 23.6172H13.3785Z" fill="#20419A"/>
<path d="M13.2828 21.4266C10.2828 21.4266 7.78281 19.2266 7.38281 16.2266V15.9266V14.8266C7.38281 14.7266 7.38281 14.6266 7.48281 14.5266C7.48281 14.2266 7.58281 14.0266 7.68281 13.7266C7.78281 13.3266 7.98281 13.0266 8.18281 12.6266C8.28281 12.5266 8.28281 12.4266 8.38281 12.2266C8.48281 12.1266 8.48281 12.0266 8.68281 11.9266H8.88281C8.94948 11.9932 8.98281 12.0599 8.98281 12.1266C8.88281 13.1266 8.88281 13.8266 9.08281 14.5266C9.28281 15.3266 9.68281 16.0266 10.2828 16.5266C10.8828 17.1266 11.5828 17.4266 12.2828 17.6266C12.6828 17.7266 13.0828 17.7266 13.3828 17.7266C13.7828 17.7266 14.1828 17.6266 14.5828 17.5266C15.3828 17.3266 15.9828 16.9266 16.5828 16.3266C17.1828 15.7266 17.4828 15.0266 17.7828 14.3266C17.9828 13.6266 17.9828 12.8266 17.7828 12.0266V11.8266C17.7828 11.7266 17.8828 11.7266 17.9828 11.7266H18.0828C18.1828 11.7266 18.2828 11.7266 18.2828 11.8266L18.3828 11.9266C18.3828 12.0266 18.4828 12.0266 18.4828 12.1266C19.4828 13.7266 19.6828 15.7266 18.9828 17.5266C18.2828 19.3266 16.8828 20.6266 14.9828 21.2266C14.3828 21.4266 13.8828 21.4266 13.2828 21.4266Z" fill="#F7F8F9"/>
<path d="M18.0781 11.6172H17.8781C17.7781 11.6172 17.5781 11.7172 17.5781 11.8172C17.4781 11.9172 17.4781 12.1172 17.4781 12.2172C17.6781 13.1172 17.6781 13.8172 17.4781 14.4172C17.2781 15.1172 16.8781 15.8172 16.3781 16.3172C15.8781 16.8172 15.1781 17.2172 14.4781 17.4172C14.0781 17.5172 13.6781 17.6172 13.3781 17.6172C12.9781 17.6172 12.6781 17.6172 12.2781 17.5172C11.5781 17.3172 10.8781 17.0172 10.3781 16.4172C9.87813 15.9172 9.47812 15.2172 9.27812 14.5172C9.07812 13.9172 9.07813 13.2172 9.17813 12.2172C9.17813 12.0172 9.07812 11.8172 8.97812 11.7172C8.87812 11.6172 8.77813 11.6172 8.67813 11.6172C8.57813 11.6172 8.47812 11.6172 8.47812 11.7172C8.27812 11.8172 8.17813 11.9172 8.07812 12.1172C7.97812 12.2172 7.97813 12.3172 7.87813 12.5172C7.67813 12.9172 7.57813 13.2172 7.37813 13.6172C7.27813 13.9172 7.27812 14.2172 7.17812 14.4172C7.17812 14.5172 7.17813 14.6172 7.07812 14.7172V16.2172C7.57812 19.3172 10.1781 21.6172 13.2781 21.6172C13.8781 21.6172 14.3781 21.5172 14.9781 21.4172C16.8781 20.9172 18.3781 19.5172 19.1781 17.6172C19.8781 15.7172 19.6781 13.7172 18.6781 12.0172C18.6781 11.9172 18.5781 11.9172 18.5781 11.8172V11.7172C18.3781 11.6172 18.1781 11.6172 18.0781 11.6172ZM18.0781 12.1172C18.1781 12.2172 18.1781 12.3172 18.2781 12.3172C20.2781 15.6172 18.6781 19.9172 14.8781 21.0172C14.3781 21.1172 13.8781 21.2172 13.3781 21.2172C10.5781 21.2172 8.17812 19.2172 7.67812 16.2172C7.67812 16.1172 7.67813 16.0172 7.57812 15.9172V14.9172C7.67813 14.5172 7.67813 14.1172 7.77813 13.8172C7.97813 13.3172 8.17813 12.8172 8.37813 12.4172C8.37813 12.3172 8.47812 12.3172 8.57812 12.2172C8.47812 13.0172 8.47813 13.9172 8.67813 14.7172C8.87813 15.5172 9.37812 16.2172 9.97812 16.8172C10.5781 17.4172 11.2781 17.8172 12.1781 18.0172C12.5781 18.1172 12.9781 18.1172 13.3781 18.1172C13.7781 18.1172 14.2781 18.0172 14.6781 17.9172C15.4781 17.7172 16.1781 17.3172 16.7781 16.7172C17.3781 16.1172 17.7781 15.4172 17.9781 14.6172C18.1781 13.8172 18.1781 13.0172 17.9781 12.1172H18.0781Z" fill="#BED042"/>
<path d="M13.3797 17.6188C13.2797 17.6188 13.1797 17.6188 12.9797 17.5188C12.7797 17.3188 12.6797 17.0187 12.9797 16.7187C12.8797 16.3187 12.7797 15.8187 12.7797 15.4187V15.3187C12.3797 15.6187 11.9797 15.9188 11.5797 16.1188C11.5797 16.4188 11.3797 16.7187 11.0797 16.7187C10.7797 16.7187 10.5797 16.5187 10.5797 16.2187C10.5797 15.9187 10.7797 15.6187 11.1797 15.6187C11.4797 15.2187 11.7797 14.8187 11.9797 14.3187H11.8797C11.3797 14.2187 10.8797 14.1188 10.3797 14.0188C10.2797 14.1188 10.0797 14.2188 9.97969 14.2188C9.87969 14.2188 9.67969 14.1188 9.57969 14.0188C9.37969 13.8188 9.37969 13.5187 9.57969 13.3187C9.67969 13.2187 9.77969 13.1187 9.97969 13.1187C10.0797 13.1187 10.2797 13.2188 10.3797 13.2188H10.4797C10.8797 13.1188 11.3797 13.0187 11.8797 12.9187H11.9797C11.7797 12.6187 11.4797 12.2187 11.2797 11.9187V11.8187L11.1797 11.7188H11.0797C10.9797 11.7188 10.8797 11.6187 10.7797 11.6187C10.6797 11.5187 10.6797 11.3188 10.6797 11.2188C10.6797 10.9188 10.8797 10.7188 11.1797 10.7188C11.3797 10.7188 11.4797 10.8187 11.5797 10.9187C11.6797 11.0187 11.6797 11.1187 11.6797 11.3187L11.7797 11.4187C12.0797 11.6187 12.4797 11.9187 12.7797 12.1187L12.8797 12.2188V12.1187C12.9797 11.7187 12.9797 11.3188 13.0797 11.0188V10.6187C12.9797 10.5187 12.9797 10.3188 12.9797 10.2188C12.9797 10.0188 13.0797 9.91875 13.3797 9.71875H13.6797C13.7464 9.71875 13.813 9.75208 13.8797 9.81875C14.1797 10.1187 14.2797 10.3188 13.9797 10.7188C14.0797 11.2188 14.1797 11.8187 14.2797 12.3187C14.6797 12.0187 15.0797 11.7187 15.4797 11.4187C15.4797 11.1187 15.6797 10.9187 15.9797 10.9187C16.2797 10.9187 16.4797 11.1187 16.4797 11.4187C16.4797 11.7187 16.2797 12.0188 15.9797 12.0188C15.6797 12.4188 15.4797 12.8187 15.1797 13.2188C15.6797 13.3187 16.0797 13.4188 16.5797 13.5188C16.6797 13.4188 16.8797 13.3187 16.9797 13.3187C17.0797 13.3187 17.1797 13.3188 17.3797 13.5188C17.5797 13.7188 17.5797 14.0187 17.3797 14.3187C17.2797 14.4187 17.1797 14.5188 16.9797 14.5188C16.8797 14.5188 16.6797 14.4187 16.5797 14.3187C16.0797 14.4187 15.5797 14.5187 15.1797 14.6187C15.4797 15.0187 15.7797 15.5187 16.0797 15.9187C16.3797 15.9187 16.6797 16.2188 16.6797 16.5188C16.6797 16.8188 16.4797 17.0188 16.1797 17.0188C15.8797 17.0188 15.6797 16.8187 15.6797 16.4187C15.2797 16.1187 14.8797 15.8188 14.3797 15.5188C14.3797 15.7188 14.2797 15.8188 14.2797 16.0188V16.2187C14.1797 16.5187 14.1797 16.7188 14.1797 17.0188V17.1188C14.3797 17.4188 14.3797 17.7188 14.1797 17.9187C13.5797 17.6187 13.4797 17.6188 13.3797 17.6188Z" fill="#F7F8F9"/>
<path d="M13.4815 9.21875H13.2815C13.1815 9.21875 13.0815 9.21875 12.9815 9.31875C12.6815 9.51875 12.5815 9.71875 12.4815 9.91875C12.4815 10.1187 12.4815 10.3188 12.6815 10.5188V10.7188C12.5815 11.0187 12.5815 11.3187 12.4815 11.6187C12.1815 11.4187 11.9815 11.2187 11.6815 11.1187C11.6815 10.9187 11.5815 10.8188 11.4815 10.7188C11.3815 10.5187 11.0815 10.5188 10.8815 10.5188C10.4815 10.5188 10.1815 10.8188 10.0815 11.2188C10.0815 11.4188 10.0815 11.7187 10.2815 11.8187C10.3815 11.9187 10.5815 12.0188 10.7815 12.0188V12.1187C10.9815 12.3187 11.0815 12.6187 11.2815 12.8187C10.9815 12.9187 10.5815 12.9188 10.2815 13.0188C10.0815 12.9188 9.98153 12.8187 9.78153 12.8187C9.58153 12.8187 9.38153 12.9187 9.18153 13.1187C8.88153 13.4187 8.98153 13.8187 9.18153 14.1187C9.28153 14.3187 9.58153 14.4187 9.78153 14.4187C9.98153 14.4187 10.0815 14.3187 10.2815 14.2188C10.6815 14.3187 10.9815 14.3187 11.3815 14.4187C11.1815 14.7188 10.9815 15.0187 10.7815 15.3187C10.3815 15.4187 10.0815 15.7188 10.0815 16.1188C10.0815 16.5188 10.3815 16.9187 10.8815 16.9187C11.2815 16.9187 11.5815 16.6187 11.6815 16.2187C11.9815 16.0187 12.1815 15.8187 12.4815 15.7188C12.5815 16.0188 12.5815 16.3188 12.6815 16.6188C12.4815 17.0188 12.4815 17.4187 12.7815 17.7187C12.9815 17.8187 13.0815 17.9187 13.2815 17.9187C13.4815 17.9187 13.6815 17.8187 13.7815 17.7187C14.0815 17.4187 14.1815 17.0188 13.8815 16.6188C13.8815 16.4188 13.9815 16.1187 13.9815 15.9187V15.6187C14.2815 15.8187 14.5815 16.0187 14.8815 16.2187C14.9815 16.6187 15.2815 16.9187 15.6815 16.9187H15.7815C16.1815 16.9187 16.4815 16.6188 16.4815 16.1188C16.4815 15.7188 16.1815 15.4187 15.7815 15.3187C15.5815 15.0187 15.3815 14.7188 15.1815 14.4187C15.4815 14.3187 15.8815 14.3187 16.1815 14.2188C16.3815 14.3187 16.4815 14.4187 16.6815 14.4187C16.8815 14.4187 17.0815 14.3187 17.2815 14.1187C17.5815 13.8187 17.5815 13.3188 17.2815 13.0188C17.0815 12.8188 16.8815 12.8187 16.6815 12.8187C16.5815 12.8187 16.3815 12.8188 16.1815 13.0188C15.8815 12.9188 15.5815 12.9187 15.2815 12.8187C15.4815 12.5187 15.6815 12.3188 15.8815 12.0188C16.2815 11.9188 16.5815 11.6187 16.5815 11.1187C16.5815 10.7187 16.2815 10.4187 15.8815 10.4187H15.7815C15.3815 10.4187 15.0815 10.7187 14.9815 11.1187C14.6815 11.3187 14.3815 11.5187 14.0815 11.7188C13.9815 11.3187 13.9815 11.0187 13.8815 10.6187C14.1815 10.2187 14.0815 9.81875 13.6815 9.51875C13.6815 9.31875 13.5815 9.21875 13.4815 9.21875ZM13.4815 9.71875C13.6815 9.91875 13.7815 10.0187 13.5815 10.3187C13.5815 10.3187 13.4815 10.4187 13.5815 10.4187C13.6815 11.1187 13.7815 11.7187 13.9815 12.4187C14.5815 12.0187 15.0815 11.6187 15.5815 11.3187C15.5815 11.3187 15.6815 11.2187 15.6815 11.1187C15.6815 10.9187 15.7815 10.8187 15.9815 10.8187C16.1815 10.8187 16.2815 10.9187 16.2815 11.1187C16.2815 11.3187 16.1815 11.4187 15.9815 11.4187C15.8815 11.4187 15.7815 11.4188 15.7815 11.5188C15.3815 12.0188 15.0815 12.5187 14.6815 13.1187C15.2815 13.2187 15.8815 13.3187 16.4815 13.4187C16.4815 13.4187 16.5815 13.4187 16.6815 13.3187C16.7815 13.2187 16.8815 13.2188 16.8815 13.2188C16.9482 13.2188 17.0149 13.2521 17.0815 13.3187C17.1815 13.4187 17.1815 13.6188 17.0815 13.7188C17.0149 13.7854 16.9482 13.8187 16.8815 13.8187C16.7815 13.8187 16.6815 13.8187 16.6815 13.7188C16.6815 13.7188 16.5815 13.6187 16.4815 13.6187C15.8815 13.7187 15.2815 13.8187 14.6815 13.9187H14.5815C14.9815 14.5187 15.2815 15.0187 15.6815 15.6187C15.6815 15.6187 15.7815 15.6188 15.8815 15.7188C16.0815 15.7188 16.1815 15.8188 16.1815 16.0188C16.1815 16.2188 16.0815 16.3187 15.8815 16.3187C15.6815 16.3187 15.5815 16.2188 15.5815 16.0188C15.5815 15.9521 15.5482 15.8854 15.4815 15.8187C14.9815 15.4187 14.3815 15.0187 13.8815 14.6187C13.7815 14.9187 13.7815 15.2188 13.6815 15.5188C13.5815 15.8188 13.5815 16.2188 13.4815 16.5188C13.4815 16.6188 13.4815 16.7187 13.5815 16.7187C13.6815 16.9187 13.6815 17.1187 13.5815 17.2187C13.4815 17.3187 13.4815 17.3187 13.3815 17.3187C13.2815 17.3187 13.2815 17.3187 13.1815 17.2187C13.0815 17.1187 13.0815 16.9187 13.1815 16.7187C13.1815 16.6187 13.2815 16.5188 13.2815 16.5188C13.1815 15.9188 13.0815 15.3187 12.9815 14.7188C12.4815 15.1188 11.9815 15.4187 11.4815 15.8187V16.0188C11.4815 16.2188 11.3815 16.3187 11.1815 16.3187C10.9815 16.3187 10.8815 16.2188 10.8815 16.0188C10.8815 15.8188 10.9815 15.7188 11.1815 15.7188C11.2482 15.7188 11.3149 15.6854 11.3815 15.6187C11.7815 15.1187 12.0815 14.5187 12.4815 13.9187C11.7815 13.8187 11.1815 13.6188 10.5815 13.5188C10.5149 13.5188 10.4482 13.5521 10.3815 13.6187C10.2815 13.7187 10.1815 13.7188 10.1815 13.7188C10.1149 13.7188 10.0482 13.6854 9.98153 13.6187C9.88153 13.5187 9.88153 13.3187 9.98153 13.2188C10.0482 13.1521 10.1149 13.1187 10.1815 13.1187C10.2815 13.1187 10.3815 13.1188 10.3815 13.2188C10.4815 13.2188 10.4815 13.3187 10.5815 13.3187C11.1815 13.2187 11.7815 13.1188 12.3815 13.0188C12.2815 12.9188 12.2815 12.8187 12.2815 12.8187C11.9815 12.4187 11.7815 12.0187 11.4815 11.6187C11.3815 11.5187 11.2815 11.3187 11.0815 11.3187C10.9815 11.3187 10.8815 11.1188 10.8815 11.0188C10.8815 10.8188 10.9815 10.7188 11.1815 10.7188C11.3815 10.7188 11.4815 10.8188 11.4815 11.0188C11.4815 11.2188 11.5815 11.3187 11.6815 11.3187C12.1815 11.6187 12.5815 11.9187 13.0815 12.3187C13.1815 11.7187 13.2815 11.2188 13.3815 10.7188C13.3815 10.5187 13.4815 10.3187 13.2815 10.1187C13.0815 9.91875 13.2815 9.81875 13.4815 9.61875" fill="#BED042"/>
</g>
<defs>
<clipPath id="clip0_3600_984">
<rect width="26.64" height="23.62" fill="white"/>
</clipPath>
</defs>
</svg>
