<svg width="377" height="38" viewBox="0 0 377 38" fill="none" xmlns="http://www.w3.org/2000/svg">
<g clip-path="url(#clip0_3654_2960)">
<path d="M71.426 22.6815L78.0557 6.53516H88.0002V7.20157H87.2072C86.4853 7.20157 85.9107 7.3301 85.4785 7.58238C85.1793 7.74899 84.9371 8.03459 84.7566 8.42968C84.6237 8.72005 84.5572 9.47215 84.5572 10.686V26.8323C84.5572 28.0842 84.6237 28.8649 84.7566 29.179C84.8896 29.4932 85.1603 29.7645 85.5687 30.0025C85.9771 30.2405 86.5233 30.3548 87.2072 30.3548H88.0002V31.0212H75.2443V30.3548H76.0373C76.7592 30.3548 77.3338 30.2262 77.766 29.974C78.0652 29.8074 78.3074 29.517 78.4879 29.1076C78.6208 28.8173 78.6873 28.0604 78.6873 26.8323V8.68673L69.3174 31.0259H68.8852L59.3729 8.84857V26.0945C59.3729 27.2988 59.4014 28.0366 59.4631 28.3174C59.6198 28.9172 59.957 29.4075 60.4794 29.7883C61.0018 30.1691 61.8234 30.3595 62.9394 30.3595V31.0259H54.5811V30.3595H54.8328C55.3741 30.3738 55.8776 30.2834 56.3477 30.0977C56.8179 29.9121 57.1693 29.6598 57.4115 29.3504C57.6537 29.0362 57.8389 28.5983 57.9719 28.0318C57.9956 27.8986 58.0099 27.2845 58.0099 26.1897V10.6907C58.0099 9.45311 57.9434 8.67721 57.8104 8.3678C57.6774 8.05839 57.4067 7.79183 56.9983 7.55382C56.5899 7.31582 56.0438 7.20157 55.3599 7.20157H54.5858V6.53516H64.5683L71.4307 22.6815H71.426Z" fill="#111211"/>
<path d="M96.4298 30.5168V31.0261H86.7227V30.5168H87.34C87.8767 30.5168 88.3136 30.4216 88.6413 30.2264C88.8787 30.0979 89.0592 29.8789 89.1874 29.5695C89.2872 29.3506 89.3394 28.7746 89.3394 27.8416V15.5986C89.3394 14.6466 89.2872 14.0515 89.1874 13.8135C89.0877 13.5755 88.8835 13.3661 88.5795 13.19C88.2756 13.0138 87.8624 12.9234 87.34 12.9234H86.7227V12.4141H96.4298V12.9234H95.8124C95.2757 12.9234 94.8388 13.0186 94.5111 13.2138C94.2737 13.3423 94.0885 13.5612 93.9507 13.8707C93.851 14.0896 93.7988 14.6656 93.7988 15.5986V27.8416C93.7988 28.7936 93.851 29.3886 93.9555 29.6266C94.06 29.8646 94.2642 30.0741 94.5729 30.2502C94.8768 30.4311 95.29 30.5168 95.8124 30.5168H96.4298Z" fill="#111211"/>
<path d="M95.537 31.0261V30.5168H96.1544C96.691 30.5168 97.1042 30.4311 97.3939 30.2645C97.6836 30.0931 97.8925 29.8646 98.0302 29.5695C98.111 29.3791 98.1537 28.8031 98.1537 27.8416V15.5986C98.1537 14.6466 98.1015 14.0515 98.0017 13.8135C97.902 13.5755 97.6978 13.3661 97.3939 13.19C97.0899 13.0091 96.6768 12.9234 96.1544 12.9234H95.537V12.4141H103.848C106.066 12.4141 107.851 12.7139 109.2 13.3185C110.853 14.0611 112.106 15.1797 112.957 16.6791C113.811 18.1786 114.239 19.8779 114.239 21.7724C114.239 23.0815 114.03 24.2858 113.607 25.3901C113.189 26.4945 112.643 27.4037 111.978 28.1224C111.313 28.8412 110.544 29.4172 109.67 29.8504C108.796 30.2835 107.733 30.6215 106.474 30.8595C105.918 30.969 105.04 31.0261 103.843 31.0261H95.5322H95.537ZM102.613 13.4708V27.9939C102.613 28.7603 102.651 29.2315 102.722 29.4077C102.794 29.5838 102.917 29.7123 103.093 29.8075C103.34 29.9456 103.696 30.0122 104.161 30.0122C105.686 30.0122 106.849 29.4886 107.652 28.4461C108.749 27.0371 109.295 24.8522 109.295 21.8867C109.295 19.4971 108.92 17.5931 108.174 16.165C107.581 15.0512 106.821 14.2895 105.89 13.8849C105.235 13.5993 104.142 13.466 102.618 13.4708H102.613Z" fill="#111211"/>
<path d="M113.883 31.0261V30.5168H114.5C115.037 30.5168 115.45 30.4311 115.74 30.2645C116.029 30.0931 116.238 29.8646 116.376 29.5695C116.457 29.3791 116.499 28.8031 116.499 27.8416V15.5986C116.499 14.6466 116.447 14.0515 116.347 13.8135C116.248 13.5755 116.044 13.3661 115.74 13.19C115.436 13.0091 115.022 12.9234 114.5 12.9234H113.883V12.4141H122.194C124.411 12.4141 126.197 12.7139 127.546 13.3185C129.198 14.0611 130.452 15.1797 131.302 16.6791C132.157 18.1786 132.585 19.8779 132.585 21.7724C132.585 23.0815 132.376 24.2858 131.953 25.3901C131.535 26.4945 130.989 27.4037 130.324 28.1224C129.659 28.8412 128.89 29.4172 128.016 29.8504C127.142 30.2835 126.078 30.6215 124.82 30.8595C124.264 30.969 123.386 31.0261 122.189 31.0261H113.878H113.883ZM120.959 13.4708V27.9939C120.959 28.7603 120.997 29.2315 121.068 29.4077C121.139 29.5838 121.263 29.7123 121.438 29.8075C121.685 29.9456 122.042 30.0122 122.507 30.0122C124.031 30.0122 125.195 29.4886 125.998 28.4461C127.095 27.0371 127.641 24.8522 127.641 21.8867C127.641 19.4971 127.266 17.5931 126.52 16.165C125.926 15.0512 125.166 14.2895 124.236 13.8849C123.58 13.5993 122.488 13.466 120.964 13.4708H120.959Z" fill="#111211"/>
<path d="M149.563 24.4913L148.865 31.0222H132.376V30.5129H132.993C133.53 30.5129 133.967 30.4177 134.295 30.2225C134.532 30.094 134.713 29.875 134.841 29.5656C134.94 29.3466 134.993 28.7707 134.993 27.8377V15.5947C134.993 14.6426 134.94 14.0476 134.841 13.8096C134.741 13.5716 134.537 13.3622 134.233 13.1861C133.929 13.0099 133.516 12.9195 132.993 12.9195H132.376V12.4102H142.278V12.9195H141.47C140.934 12.9195 140.497 13.0147 140.169 13.2099C139.932 13.3384 139.747 13.5573 139.609 13.8668C139.509 14.0857 139.457 14.6617 139.457 15.5947V27.4521C139.457 28.4041 139.514 29.0087 139.623 29.2705C139.732 29.5323 139.946 29.7275 140.264 29.8512C140.492 29.9321 141.043 29.975 141.922 29.975H143.47C144.458 29.975 145.279 29.7989 145.935 29.4514C146.59 29.1039 147.16 28.5565 147.639 27.8044C148.119 27.0523 148.57 25.9479 149.002 24.4818H149.563V24.4913Z" fill="#111211"/>
<path d="M156.297 13.4837V21.0618H156.667C157.845 21.0618 158.7 20.6906 159.227 19.948C159.754 19.2054 160.096 18.1153 160.238 16.6683H160.761V26.4122H160.238C160.129 25.3507 159.896 24.4796 159.545 23.8037C159.193 23.1277 158.785 22.6708 158.32 22.4375C157.854 22.2043 157.18 22.0853 156.292 22.0853V27.3262C156.292 28.3496 156.335 28.9779 156.42 29.2064C156.506 29.4349 156.667 29.6253 156.904 29.7681C157.142 29.9157 157.527 29.9871 158.054 29.9871H159.165C160.898 29.9871 162.29 29.5825 163.335 28.778C164.379 27.9735 165.13 26.7454 165.586 25.0984H166.094L165.258 31.0152H149.211V30.5059H149.828C150.365 30.5059 150.802 30.4107 151.13 30.2155C151.367 30.087 151.547 29.8681 151.676 29.5587C151.775 29.3397 151.828 28.7637 151.828 27.8307V15.5877C151.828 14.7452 151.804 14.2311 151.761 14.0359C151.671 13.717 151.5 13.4695 151.253 13.2933C150.906 13.0363 150.431 12.9078 149.828 12.9078H149.211V12.3984H164.755V17.9011H164.232C163.966 16.554 163.596 15.5925 163.116 15.007C162.637 14.4215 161.957 13.9931 161.084 13.717C160.571 13.5504 159.611 13.4695 158.206 13.4695H156.287L156.297 13.4837Z" fill="#111211"/>
<path d="M181.172 7.9433V17.911H181.657C183.205 17.911 184.33 17.4254 185.024 16.4496C185.722 15.4738 186.163 14.0362 186.358 12.1322H187.042V24.9559H186.358C186.216 23.5612 185.912 22.414 185.446 21.5239C184.986 20.6338 184.444 20.034 183.832 19.7293C183.219 19.4247 182.331 19.2676 181.167 19.2676V26.165C181.167 27.5121 181.224 28.3404 181.338 28.6403C181.452 28.9402 181.666 29.1877 181.98 29.3829C182.293 29.5733 182.796 29.6732 183.494 29.6732H184.952C187.237 29.6732 189.065 29.1448 190.438 28.0833C191.815 27.0218 192.803 25.4082 193.401 23.2423H194.066L192.969 31.0251H171.854V30.3587H172.667C173.374 30.3587 173.944 30.2302 174.376 29.9779C174.69 29.8113 174.927 29.5209 175.098 29.1115C175.231 28.8212 175.298 28.0643 175.298 26.8362V10.728C175.298 9.61886 175.269 8.93816 175.207 8.68587C175.089 8.26222 174.865 7.93854 174.542 7.71005C174.087 7.37208 173.46 7.20548 172.667 7.20548H171.854V6.53906H192.304V13.7792H191.62C191.273 12.0084 190.784 10.7375 190.153 9.97111C189.521 9.19997 188.628 8.63351 187.479 8.27174C186.805 8.05278 185.546 7.94806 183.694 7.94806H181.172V7.9433Z" fill="#111211"/>
<path d="M204.885 25.7278H198.326L197.547 27.5414C197.291 28.1459 197.163 28.6458 197.163 29.0361C197.163 29.5597 197.372 29.9405 197.794 30.188C198.041 30.3356 198.649 30.4451 199.613 30.5165V31.0258H193.439V30.5165C194.104 30.4165 194.655 30.1404 195.083 29.6835C195.51 29.2313 196.042 28.2935 196.669 26.875L203.308 12.0234H203.569L210.265 27.2844C210.907 28.7314 211.429 29.6406 211.842 30.0167C212.151 30.3023 212.592 30.4641 213.158 30.5117V31.0211H204.172V30.5117H204.543C205.265 30.5117 205.768 30.4118 206.062 30.2118C206.262 30.0643 206.362 29.8548 206.362 29.5787C206.362 29.4121 206.333 29.2455 206.281 29.0694C206.262 28.9885 206.124 28.6458 205.873 28.0412L204.885 25.723V25.7278ZM204.419 24.7091L201.655 18.302L198.806 24.7091H204.419Z" fill="#111211"/>
<path d="M224.735 11.99L224.887 18.1924H224.327C224.061 16.6359 223.41 15.384 222.375 14.4367C221.34 13.4894 220.219 13.0182 219.013 13.0182C218.082 13.0182 217.346 13.2657 216.8 13.7655C216.258 14.2653 215.983 14.8365 215.983 15.4887C215.983 15.9028 216.078 16.2646 216.272 16.5883C216.538 17.0167 216.961 17.4451 217.545 17.864C217.973 18.1639 218.965 18.7018 220.518 19.4681C222.688 20.5392 224.156 21.5483 224.916 22.5003C225.666 23.4523 226.036 24.5424 226.036 25.7658C226.036 27.3223 225.433 28.6599 224.222 29.7785C223.011 30.8972 221.477 31.4589 219.616 31.4589C219.032 31.4589 218.481 31.4017 217.958 31.278C217.436 31.1542 216.785 30.9352 216.002 30.6068C215.565 30.4259 215.204 30.3307 214.919 30.3307C214.681 30.3307 214.43 30.4212 214.164 30.6068C213.898 30.7877 213.684 31.0685 213.518 31.4446H213.01V24.4186H213.518C213.922 26.3941 214.691 27.9031 215.84 28.9408C216.985 29.9785 218.219 30.4973 219.544 30.4973C220.566 30.4973 221.382 30.2165 221.99 29.6595C222.598 29.1026 222.902 28.4505 222.902 27.7127C222.902 27.2747 222.783 26.8463 222.551 26.4369C222.318 26.0228 221.967 25.6325 221.492 25.2612C221.017 24.8899 220.176 24.4091 218.97 23.8141C217.279 22.9811 216.068 22.2718 215.327 21.6863C214.586 21.1009 214.021 20.4487 213.622 19.7252C213.223 19.0016 213.029 18.2067 213.029 17.3356C213.029 15.8552 213.57 14.589 214.658 13.5465C215.745 12.5041 217.113 11.9805 218.766 11.9805C219.369 11.9805 219.953 12.0519 220.518 12.1994C220.945 12.3089 221.468 12.5136 222.085 12.8087C222.703 13.1039 223.135 13.2562 223.377 13.2562C223.619 13.2562 223.8 13.1848 223.937 13.0372C224.075 12.8897 224.203 12.5374 224.322 11.9805H224.735V11.99Z" fill="#111211"/>
<path d="M242.948 12.4141V17.4503H242.454C242.16 16.2888 241.837 15.451 241.481 14.9464C241.125 14.4371 240.636 14.0325 240.018 13.7326C239.672 13.566 239.064 13.4851 238.199 13.4851H236.817V27.8416C236.817 28.7936 236.87 29.3886 236.974 29.6266C237.079 29.8646 237.283 30.0741 237.591 30.2502C237.895 30.4311 238.313 30.5168 238.845 30.5168H239.463V31.0261H229.741V30.5168H230.359C230.895 30.5168 231.332 30.4216 231.66 30.2264C231.897 30.0979 232.083 29.8789 232.22 29.5695C232.32 29.3506 232.372 28.7746 232.372 27.8416V13.4851H231.028C229.779 13.4851 228.867 13.7517 228.302 14.28C227.509 15.0226 227.006 16.0794 226.797 17.4503H226.274V12.4141H242.953H242.948Z" fill="#111211"/>
<path d="M263.06 18.0404C265.378 18.583 267.007 19.2399 267.942 20.0063C269.286 21.1011 269.961 22.5244 269.961 24.2666C269.961 26.1088 269.22 27.632 267.743 28.8363C265.929 30.2929 263.293 31.0212 259.831 31.0212H247.417V30.3548C248.547 30.3548 249.312 30.2501 249.716 30.0406C250.119 29.8312 250.399 29.5551 250.561 29.2171C250.722 28.8791 250.803 28.0509 250.803 26.7228V10.8335C250.803 9.51023 250.722 8.67721 250.561 8.33448C250.399 7.99175 250.114 7.71566 249.706 7.51098C249.298 7.3063 248.533 7.20157 247.417 7.20157V6.53516H259.128C261.925 6.53516 263.911 6.78744 265.074 7.28249C266.238 7.78231 267.159 8.52964 267.829 9.51975C268.503 10.5146 268.835 11.5714 268.835 12.69C268.835 13.8705 268.408 14.9225 267.558 15.8412C266.703 16.7646 265.202 17.4929 263.051 18.0356L263.06 18.0404ZM256.502 18.9591V26.8132L256.483 27.7177C256.483 28.3698 256.649 28.8601 256.977 29.1885C257.309 29.5218 257.798 29.6836 258.444 29.6836C259.404 29.6836 260.292 29.4694 261.104 29.041C261.916 28.6126 262.538 27.9938 262.97 27.1798C263.402 26.3658 263.621 25.4614 263.621 24.4618C263.621 23.3193 263.355 22.2911 262.828 21.382C262.301 20.4728 261.574 19.8397 260.648 19.4779C259.722 19.1161 258.34 18.9448 256.502 18.9543V18.9591ZM256.502 17.5548C258.207 17.5548 259.465 17.3644 260.277 16.9788C261.09 16.5933 261.712 16.0506 262.144 15.3556C262.576 14.6559 262.794 13.7658 262.794 12.6805C262.794 11.5952 262.581 10.7098 262.153 10.0148C261.726 9.32458 261.118 8.79621 260.325 8.43444C259.532 8.07267 258.259 7.90131 256.507 7.91083V17.5548H256.502Z" fill="#111211"/>
<path d="M276.201 22.5427V27.7598C276.201 28.7642 276.263 29.4021 276.387 29.6591C276.51 29.9209 276.728 30.1304 277.037 30.2827C277.346 30.4398 277.925 30.5159 278.775 30.5159V31.0253H269.272V30.5159C270.132 30.5159 270.711 30.435 271.02 30.2779C271.324 30.1161 271.543 29.9114 271.666 29.6543C271.789 29.3973 271.851 28.769 271.851 27.7598V15.6834C271.851 14.679 271.789 14.0412 271.666 13.7841C271.543 13.5223 271.324 13.3129 271.015 13.1605C270.707 13.0035 270.127 12.9273 269.277 12.9273V12.418H277.906C280.153 12.418 281.796 12.5751 282.836 12.8845C283.876 13.1939 284.726 13.7698 285.381 14.6076C286.037 15.4454 286.369 16.426 286.369 17.5494C286.369 18.9203 285.875 20.058 284.892 20.9529C284.261 21.5193 283.382 21.9477 282.247 22.2286L286.711 28.5262C287.295 29.3402 287.708 29.8495 287.955 30.0494C288.33 30.335 288.763 30.4874 289.257 30.5159V31.0253H283.41L277.427 22.5427H276.206H276.201ZM276.201 13.4128V21.5669H276.98C278.248 21.5669 279.198 21.4479 279.83 21.2147C280.461 20.9814 280.955 20.5625 281.316 19.9532C281.677 19.3439 281.857 18.549 281.857 17.5732C281.857 16.1547 281.525 15.1074 280.865 14.4315C280.205 13.7556 279.136 13.4176 277.669 13.4176H276.206L276.201 13.4128Z" fill="#111211"/>
<path d="M297.367 30.5168V31.0261H287.66V30.5168H288.278C288.814 30.5168 289.251 30.4216 289.579 30.2264C289.816 30.0979 289.997 29.8789 290.125 29.5695C290.225 29.3506 290.277 28.7746 290.277 27.8416V15.5986C290.277 14.6466 290.225 14.0515 290.125 13.8135C290.025 13.5755 289.821 13.3661 289.517 13.19C289.213 13.0138 288.8 12.9234 288.278 12.9234H287.66V12.4141H297.367V12.9234H296.75C296.213 12.9234 295.776 13.0186 295.449 13.2138C295.211 13.3423 295.026 13.5612 294.888 13.8707C294.789 14.0896 294.736 14.6656 294.736 15.5986V27.8416C294.736 28.7936 294.789 29.3886 294.893 29.6266C294.997 29.8646 295.202 30.0741 295.51 30.2502C295.814 30.4311 296.227 30.5168 296.75 30.5168H297.367Z" fill="#111211"/>
<path d="M303.746 13.4837V21.0618H304.116C305.294 21.0618 306.149 20.6906 306.676 19.948C307.208 19.2054 307.545 18.1153 307.687 16.6683H308.21V26.4122H307.687C307.578 25.3507 307.345 24.4796 306.994 23.8037C306.643 23.1277 306.234 22.6708 305.769 22.4375C305.303 22.2043 304.629 22.0853 303.741 22.0853V27.3262C303.741 28.3496 303.784 28.9779 303.869 29.2064C303.955 29.4349 304.116 29.6253 304.354 29.7681C304.591 29.9157 304.976 29.9871 305.503 29.9871H306.609C308.343 29.9871 309.734 29.5825 310.779 28.778C311.824 27.9735 312.574 26.7454 313.03 25.0984H313.538L312.702 31.0152H296.655V30.5059H297.273C297.809 30.5059 298.246 30.4107 298.574 30.2155C298.811 30.087 298.992 29.8681 299.12 29.5587C299.22 29.3397 299.272 28.7637 299.272 27.8307V15.5877C299.272 14.7452 299.248 14.2311 299.206 14.0359C299.115 13.717 298.944 13.4695 298.697 13.2933C298.351 13.0363 297.876 12.9078 297.273 12.9078H296.655V12.3984H312.199V17.9011H311.677C311.411 16.554 311.04 15.5925 310.561 15.007C310.081 14.4215 309.402 13.9931 308.528 13.717C308.015 13.5504 307.06 13.4695 305.655 13.4695H303.736L303.746 13.4837Z" fill="#111211"/>
<path d="M320.609 13.4842V21.129H321.141C321.963 21.129 322.632 21.0052 323.155 20.7577C323.677 20.5102 324.114 20.096 324.475 19.5105C324.836 18.925 325.069 18.1349 325.178 17.1352H325.658V26.4841H325.178C325.002 24.7181 324.532 23.5519 323.763 22.9902C322.993 22.4285 322.119 22.1476 321.141 22.1476H320.609V27.8455C320.609 28.7975 320.662 29.3925 320.766 29.6305C320.871 29.8686 321.075 30.078 321.383 30.2541C321.687 30.435 322.101 30.5207 322.623 30.5207H323.24V31.03H313.533V30.5207H314.151C314.687 30.5207 315.124 30.4255 315.452 30.2303C315.689 30.1018 315.87 29.8828 315.998 29.5734C316.098 29.3545 316.15 28.7785 316.15 27.8455V15.6025C316.15 14.6505 316.098 14.0554 315.998 13.8174C315.898 13.5794 315.694 13.37 315.39 13.1939C315.086 13.013 314.673 12.9273 314.151 12.9273H313.533V12.418H329.2V17.7588H328.64C328.512 16.5069 328.184 15.5787 327.662 14.9742C327.135 14.3696 326.375 13.946 325.382 13.6984C324.836 13.5604 323.82 13.4938 322.343 13.4938H320.619L320.609 13.4842Z" fill="#111211"/>
<path d="M338.395 30.5168V31.0261H328.688V30.5168H329.305C329.842 30.5168 330.278 30.4216 330.606 30.2264C330.844 30.0979 331.024 29.8789 331.152 29.5695C331.252 29.3506 331.304 28.7746 331.304 27.8416V15.5986C331.304 14.6466 331.252 14.0515 331.152 13.8135C331.053 13.5755 330.848 13.3661 330.544 13.19C330.24 13.0138 329.827 12.9234 329.305 12.9234H328.688V12.4141H338.395V12.9234H337.777C337.241 12.9234 336.804 13.0186 336.476 13.2138C336.239 13.3423 336.053 13.5612 335.916 13.8707C335.816 14.0896 335.764 14.6656 335.764 15.5986V27.8416C335.764 28.7936 335.816 29.3886 335.92 29.6266C336.025 29.8646 336.229 30.0741 336.538 30.2502C336.842 30.4311 337.255 30.5168 337.777 30.5168H338.395Z" fill="#111211"/>
<path d="M344.113 12.4158L353.274 23.9591V15.9573C353.274 14.8434 353.113 14.0866 352.794 13.6915C352.358 13.1583 351.621 12.9061 350.591 12.9203V12.411H356.727V12.9203C355.943 13.0203 355.416 13.1536 355.145 13.3107C354.875 13.4725 354.666 13.7296 354.514 14.0913C354.362 14.4531 354.286 15.0719 354.286 15.9525V31.4467H353.82L341.264 15.9525V27.7814C341.264 28.8524 341.506 29.576 341.995 29.952C342.484 30.3281 343.045 30.5137 343.672 30.5137H344.108V31.0231H337.521V30.5137C338.543 30.5042 339.255 30.2948 339.659 29.8806C340.062 29.4713 340.262 28.7715 340.262 27.7814V14.6483L339.863 14.1532C339.469 13.6582 339.122 13.3345 338.823 13.1774C338.524 13.0203 338.087 12.9346 337.521 12.9156V12.4062H344.108L344.113 12.4158Z" fill="#111211"/>
<path d="M374.825 11.99V18.5494H374.317C373.704 16.7549 372.787 15.3935 371.562 14.4605C370.337 13.5275 369.002 13.061 367.549 13.061C366.096 13.061 365.009 13.4513 364.087 14.2368C363.166 15.0222 362.511 16.1122 362.131 17.5117C361.746 18.9112 361.556 20.3488 361.556 21.8196C361.556 23.6047 361.765 25.1707 362.188 26.5131C362.605 27.8602 363.285 28.8456 364.22 29.4787C365.156 30.1117 366.267 30.4259 367.554 30.4259C368 30.4259 368.461 30.3783 368.931 30.2831C369.401 30.1879 369.881 30.0451 370.375 29.8642V25.9942C370.375 25.2612 370.323 24.7899 370.223 24.5757C370.123 24.3615 369.914 24.1664 369.601 23.995C369.287 23.8236 368.903 23.7332 368.456 23.7332H367.977V23.2239H377V23.7332C376.316 23.7808 375.836 23.8712 375.57 24.014C375.304 24.1568 375.096 24.3901 374.948 24.7185C374.868 24.8947 374.825 25.3183 374.825 25.9942V29.8642C373.638 30.3974 372.403 30.7972 371.121 31.0638C369.838 31.3351 368.509 31.4684 367.127 31.4684C365.365 31.4684 363.902 31.2304 362.738 30.7496C361.575 30.2688 360.549 29.6357 359.656 28.8551C358.763 28.0744 358.07 27.1938 357.567 26.2132C356.926 24.9518 356.607 23.538 356.607 21.972C356.607 19.173 357.59 16.8072 359.552 14.8746C361.513 12.942 363.983 11.9805 366.96 11.9805C367.882 11.9805 368.713 12.0519 369.454 12.1994C369.857 12.2708 370.508 12.4803 371.406 12.823C372.303 13.1657 372.835 13.3371 373.001 13.3371C373.258 13.3371 373.495 13.2419 373.714 13.0563C373.932 12.8706 374.131 12.5136 374.317 11.99H374.825Z" fill="#111211"/>
<path d="M22.002 37.9988H0.844948C0.194325 37.9988 -0.209345 37.3038 0.113591 36.7421L10.6945 18.5775L21.2707 0.4177C21.5936 -0.139233 22.4057 -0.139233 22.7334 0.4177L33.3143 18.5823L43.8952 36.7469C44.2182 37.3038 43.8145 38.0036 43.1639 38.0036H22.0068L22.002 37.9988Z" fill="#00398C"/>
<path d="M21.9822 34.4621C17.1192 34.4621 13.035 30.9634 12.2609 26.1414C12.2419 26.0271 12.2181 25.9129 12.1991 25.7987L12.1659 25.6368C12.1659 25.613 12.1611 25.5892 12.1611 25.5607V23.8803C12.1611 23.8518 12.1611 23.8232 12.1706 23.7947C12.2086 23.6138 12.2419 23.4329 12.2751 23.252C12.3511 22.8283 12.4271 22.3904 12.5791 21.9668C12.7975 21.3622 13.0682 20.7815 13.3342 20.2198C13.4244 20.0294 13.5146 19.839 13.6001 19.6438C13.6856 19.4534 13.8423 19.2963 14.075 19.1678C14.1367 19.1345 14.2032 19.1155 14.2697 19.1155C14.3505 19.1155 14.4264 19.1393 14.4977 19.1869C14.6211 19.2725 14.6876 19.4249 14.6686 19.5724C14.4407 21.148 14.4834 22.3285 14.8064 23.4138C15.1815 24.6658 15.8464 25.7511 16.782 26.6412C17.7318 27.5409 18.8573 28.1597 20.1348 28.4738C20.7474 28.6262 21.3648 28.7023 21.9775 28.7023C22.6376 28.7023 23.3072 28.6119 23.9626 28.4358C25.2306 28.0978 26.3418 27.4552 27.2727 26.527C28.1892 25.613 28.8304 24.5134 29.1723 23.2568C29.481 22.1334 29.481 20.9005 29.1723 19.4772C29.1485 19.3677 29.1723 19.2487 29.2388 19.1583C29.3053 19.0679 29.405 19.006 29.519 18.9917L29.6947 18.9727C29.6947 18.9727 29.7232 18.9727 29.7422 18.9727C29.8752 18.9727 29.9986 19.0393 30.0699 19.1488L30.1506 19.263C30.2171 19.3582 30.2836 19.4534 30.3453 19.5534C31.998 22.1715 32.3019 25.3274 31.1811 28.212C30.0461 31.13 27.6478 33.2768 24.6037 34.1051C23.7441 34.3383 22.8608 34.4573 21.987 34.4573L21.9822 34.4621Z" fill="#FCFCFC"/>
<path d="M29.7379 19.3765C29.8281 19.5098 29.9184 19.6383 30.0039 19.7716C33.3472 25.0743 30.588 32.0717 24.4997 33.7235C23.6544 33.952 22.8138 34.0614 21.9874 34.0614C17.4568 34.0614 13.4154 30.796 12.6603 26.0787C12.6318 25.9074 12.5985 25.736 12.5653 25.5646V23.8843C12.6935 23.2893 12.7553 22.6752 12.9595 22.1088C13.2397 21.3234 13.6243 20.576 13.971 19.8192C14.0233 19.7049 14.123 19.6097 14.275 19.524C14.0755 20.8854 14.0327 22.2183 14.4269 23.5368C14.8211 24.8554 15.5145 25.993 16.5118 26.9403C17.5186 27.8923 18.6963 28.5349 20.0451 28.8682C20.6909 29.03 21.3368 29.1062 21.9827 29.1062C22.6808 29.1062 23.3789 29.011 24.0723 28.8253C25.4068 28.4683 26.575 27.7924 27.5581 26.8165C28.5317 25.8455 29.1965 24.6983 29.5622 23.3655C29.9231 22.0517 29.8566 20.7284 29.5622 19.3955C29.6192 19.3908 29.6809 19.3812 29.7379 19.3765ZM29.7379 18.5768C29.7094 18.5768 29.6762 18.5768 29.6477 18.5815L29.472 18.6006C29.2488 18.6244 29.0446 18.7481 28.9116 18.929C28.7786 19.1147 28.7311 19.3432 28.7834 19.5669C29.0825 20.9426 29.0873 22.0802 28.7929 23.1513C28.4604 24.3556 27.8763 25.3695 26.993 26.2453C26.1144 27.1212 25.0601 27.7305 23.8633 28.0494C23.2412 28.216 22.6096 28.3017 21.9827 28.3017C21.4033 28.3017 20.8144 28.2303 20.235 28.0875C19.0288 27.7876 17.9602 27.2069 17.0627 26.3548C16.1793 25.517 15.5477 24.4888 15.1915 23.3036C14.8828 22.2801 14.8448 21.1472 15.0633 19.6335C15.106 19.3336 14.9778 19.029 14.7261 18.8576C14.5884 18.7624 14.4317 18.7148 14.275 18.7148C14.142 18.7148 14.0043 18.7481 13.8855 18.8148C13.5768 18.9861 13.3679 19.2004 13.2444 19.4717C13.1589 19.6621 13.0687 19.8525 12.9785 20.0381C12.7078 20.6093 12.4276 21.2044 12.2044 21.8232C12.0429 22.2801 11.9574 22.7371 11.8814 23.1751C11.8482 23.3607 11.8197 23.5321 11.7817 23.7034C11.7722 23.7605 11.7627 23.8129 11.7627 23.87V25.5503C11.7627 25.598 11.7627 25.6503 11.7769 25.6979L11.8102 25.8693C11.8292 25.9788 11.8529 26.0835 11.8719 26.193C12.6745 31.2101 16.9249 34.8516 21.9874 34.8516C22.8993 34.8516 23.8158 34.7278 24.7087 34.4851C27.8763 33.6235 30.3695 31.391 31.5521 28.3541C32.7203 25.3504 32.4021 22.0659 30.683 19.3336C30.6212 19.2337 30.55 19.1337 30.4835 19.0338C30.455 18.9957 30.4265 18.9528 30.4028 18.9147C30.2508 18.6958 30.0039 18.5625 29.7427 18.5625L29.7379 18.5768Z" fill="#C8CF25"/>
<path d="M22.0541 28.333C21.8499 28.333 21.6457 28.2521 21.47 28.1045C21.0806 27.7761 21.0521 27.2572 21.394 26.8098C21.4178 26.7812 21.432 26.7526 21.4415 26.7336C21.318 26.0196 21.1851 25.3151 21.0426 24.5725L21.0283 24.4868C20.373 24.9343 19.7366 25.3722 19.1002 25.8197C19.1002 25.8292 19.1002 25.8387 19.1002 25.8435C19.0622 26.3813 18.706 26.7479 18.2074 26.7479H18.1599C17.6565 26.7241 17.3288 26.3909 17.3051 25.8768C17.2813 25.377 17.6707 24.9866 18.2264 24.9486C18.2311 24.9486 18.2406 24.9486 18.2454 24.9486C18.706 24.2869 19.162 23.6157 19.6274 22.9303L19.6606 22.8827L19.5466 22.8589C18.7298 22.7018 17.9367 22.5495 17.1388 22.4067C17.1246 22.4162 17.1104 22.4257 17.0914 22.44C16.8871 22.6066 16.6592 22.697 16.4312 22.697C16.1843 22.697 15.9563 22.5923 15.7949 22.4019C15.4862 22.0449 15.4767 21.5974 15.7711 21.2309C15.9373 21.0215 16.1748 20.9072 16.4312 20.9072C16.6449 20.9072 16.8634 20.9881 17.0629 21.1405C17.1009 21.169 17.1436 21.1881 17.1626 21.1928C17.9034 21.0643 18.6301 20.9263 19.4042 20.7787L19.5514 20.7501C19.1667 20.1884 18.7868 19.622 18.4021 19.0651L18.3404 18.9746C18.2121 18.7794 18.1979 18.7794 18.1267 18.7794C18.1267 18.7794 18.0554 18.7794 18.0459 18.7794C17.837 18.7794 17.647 18.6938 17.5045 18.5367C17.3383 18.351 17.2576 18.094 17.2861 17.8227C17.3336 17.3466 17.685 17.0182 18.1599 17.0134C18.4401 17.0134 18.687 17.1134 18.8485 17.2848C18.991 17.4371 19.0622 17.6465 19.048 17.8655C19.0432 17.9369 19.0432 17.9417 19.2142 18.0559C19.7603 18.4272 20.297 18.7937 20.8479 19.1698L20.9951 19.2697L21.0283 19.0984C21.1471 18.4843 21.261 17.8893 21.3703 17.2943C21.3798 17.2514 21.3893 17.2038 21.394 17.161C21.451 16.8802 21.4605 16.7945 21.337 16.6564C21.1328 16.4327 21.1186 16.2042 21.1376 16.0567C21.1756 15.7806 21.375 15.533 21.7217 15.3188C21.7834 15.2808 21.8594 15.2617 21.9307 15.2617H22.2346C22.3391 15.2617 22.4388 15.2998 22.51 15.376C23.0514 15.8996 23.0894 16.2566 22.6478 16.8373C22.8045 17.6846 22.9612 18.5272 23.1274 19.403L23.1892 19.3602C23.8825 18.8842 24.5616 18.4224 25.236 17.9512C25.236 17.9369 25.236 17.9179 25.2408 17.8941C25.293 17.3562 25.6397 17.0087 26.1241 17.0087C26.1431 17.0087 26.1668 17.0087 26.1858 17.0087C26.656 17.0372 26.9742 17.3514 27.0264 17.8274C27.0786 18.3177 26.7035 18.7414 26.1573 18.808C26.1241 18.808 26.1003 18.8175 26.0861 18.8223C25.6539 19.4411 25.2265 20.0647 24.7848 20.7121L24.7374 20.7835L24.7991 20.793C25.5542 20.9358 26.2856 21.0738 27.0217 21.1976C27.0312 21.1881 27.0454 21.1785 27.0644 21.1643C27.2639 20.9929 27.4776 20.9072 27.696 20.9072C27.8527 20.9072 28.0902 20.9548 28.3182 21.1833C28.6696 21.5355 28.6838 22.0306 28.3514 22.4162C28.1852 22.6066 27.962 22.7065 27.715 22.7065C27.4871 22.7065 27.2591 22.6209 27.0501 22.4543C27.0359 22.44 27.0169 22.4305 27.0074 22.4257C26.2143 22.5637 25.4117 22.7161 24.6329 22.8684L24.6614 22.9065C25.1363 23.6014 25.6064 24.2917 26.0813 24.9771C26.0813 24.9771 26.0908 24.9771 26.0956 24.9771C26.656 25.0104 27.0454 25.4008 27.0217 25.9006C26.9979 26.4051 26.6702 26.7431 26.1716 26.7764C26.1526 26.7764 26.1288 26.7764 26.1098 26.7764C25.6302 26.7764 25.2787 26.4147 25.2265 25.8768C25.2265 25.8625 25.2265 25.8482 25.2218 25.8387C24.5426 25.3627 23.854 24.8914 23.1417 24.4011L23.1037 24.3773C23.0467 24.6534 22.9944 24.9152 22.947 25.1818L22.8947 25.4579C22.814 25.8768 22.7285 26.3147 22.6668 26.7384C22.6668 26.7431 22.6858 26.7955 22.7095 26.824C23.0467 27.2667 23.0182 27.7999 22.643 28.1236C22.4626 28.2759 22.2631 28.3568 22.0541 28.3568V28.333Z" fill="#FCFCFC"/>
<path d="M22.2347 15.6443C22.6384 16.0346 22.6479 16.1679 22.3202 16.5963C22.2727 16.6582 22.2347 16.7582 22.2489 16.8296C22.4437 17.8911 22.6479 18.9478 22.8568 20.0569C23.7781 19.4238 24.671 18.8241 25.5495 18.2052C25.6208 18.1576 25.6398 18.0148 25.6493 17.9149C25.6825 17.5864 25.8535 17.3913 26.1384 17.3913C26.1527 17.3913 26.1622 17.3913 26.1764 17.3913C26.4614 17.4103 26.6133 17.5769 26.6418 17.853C26.6703 18.1338 26.4424 18.3528 26.1194 18.3909C26.0102 18.4052 25.863 18.4385 25.806 18.5194C25.2314 19.3382 24.671 20.1664 24.0726 21.0423C25.0984 21.2327 26.0767 21.4231 27.055 21.5897C27.0597 21.5897 27.0692 21.5897 27.074 21.5897C27.1547 21.5897 27.2592 21.5088 27.3304 21.4469C27.4539 21.3422 27.5821 21.285 27.7009 21.285C27.8196 21.285 27.9336 21.3374 28.0428 21.4421C28.2518 21.6516 28.247 21.9039 28.0523 22.1276C27.9621 22.2323 27.8433 22.2847 27.7199 22.2847C27.5869 22.2847 27.4397 22.2275 27.3067 22.1181C27.2307 22.0562 27.1167 21.9943 27.0218 21.9943C27.0123 21.9943 27.0028 21.9943 26.9933 21.9943C26.0339 22.1609 25.0746 22.3465 24.1153 22.5322C24.0821 22.5369 24.0488 22.5703 23.9871 22.6036C24.595 23.4985 25.1981 24.3886 25.8155 25.2693C25.8582 25.3264 25.9817 25.3454 26.0672 25.3502C26.3949 25.3692 26.6323 25.5691 26.6181 25.8547C26.6038 26.1499 26.4424 26.3308 26.1432 26.3498C26.1289 26.3498 26.1194 26.3498 26.1052 26.3498C25.8297 26.3498 25.6493 26.1356 25.6208 25.8167C25.6113 25.7167 25.5828 25.5834 25.5116 25.5358C24.6425 24.9218 23.7639 24.322 22.8236 23.6794C22.7238 24.1792 22.6336 24.6266 22.5481 25.0788C22.4484 25.6025 22.3439 26.1261 22.2632 26.6544C22.2442 26.7782 22.3059 26.9401 22.3819 27.04C22.5766 27.2971 22.5909 27.6017 22.3724 27.7921C22.2632 27.8826 22.154 27.9302 22.0447 27.9302C21.9355 27.9302 21.8263 27.8873 21.717 27.7969C21.4891 27.6017 21.4986 27.3161 21.7028 27.0495C21.7788 26.9543 21.85 26.8068 21.831 26.6973C21.6696 25.75 21.4843 24.8028 21.2944 23.8031C20.4253 24.3982 19.5895 24.9694 18.7631 25.5501C18.7061 25.5882 18.6966 25.7167 18.6871 25.8071C18.6634 26.1308 18.4829 26.3355 18.1932 26.3355C18.1837 26.3355 18.1742 26.3355 18.1647 26.3355C17.8608 26.3212 17.7041 26.1404 17.6898 25.8452C17.6756 25.5549 17.9083 25.3597 18.2407 25.3359C18.331 25.3311 18.4544 25.3121 18.4972 25.255C19.1051 24.3839 19.7034 23.5033 20.3208 22.5941C19.2285 22.3846 18.1837 22.1799 17.1389 21.9943C17.1294 21.9943 17.1199 21.9943 17.1105 21.9943C17.0202 21.9943 16.9015 22.0609 16.8255 22.1228C16.6925 22.2323 16.5501 22.2894 16.4171 22.2894C16.2889 22.2894 16.1749 22.2371 16.0799 22.1323C15.8994 21.9229 15.8899 21.6896 16.0657 21.4754C16.1606 21.3564 16.2841 21.2993 16.4123 21.2993C16.5406 21.2993 16.6735 21.3517 16.8065 21.4516C16.8967 21.523 17.0345 21.5849 17.1484 21.5849C17.1627 21.5849 17.1769 21.5849 17.1912 21.5849C18.1742 21.4136 19.1526 21.2232 20.1831 21.028C20.1024 20.8947 20.0454 20.7852 19.9789 20.6853C19.5562 20.0664 19.1383 19.4476 18.7109 18.8288C18.5589 18.6099 18.4497 18.3671 18.1078 18.3671C18.0888 18.3671 18.0698 18.3671 18.0508 18.3671C18.0413 18.3671 18.0318 18.3671 18.027 18.3671C17.7848 18.3671 17.6376 18.1148 17.6661 17.8482C17.6946 17.5769 17.8656 17.4055 18.1457 17.4008C18.1457 17.4008 18.1505 17.4008 18.1552 17.4008C18.4259 17.4008 18.6492 17.5531 18.6349 17.8244C18.6159 18.1338 18.7869 18.2481 18.9863 18.3814C19.7272 18.8859 20.468 19.3905 21.2564 19.9284C21.4274 19.0335 21.5936 18.191 21.7455 17.3484C21.8073 17.0152 21.9213 16.7058 21.6173 16.3678C21.3609 16.087 21.6316 15.8109 21.9165 15.6395H22.2204M22.2347 14.8398H21.9308C21.7835 14.8398 21.6363 14.8827 21.5128 14.9588C21.0569 15.2397 20.8005 15.5824 20.7435 15.9823C20.696 16.3107 20.8005 16.6392 21.0332 16.901C21.0284 16.9438 21.0142 17.0105 21.0047 17.0628C20.9952 17.1104 20.9857 17.158 20.9762 17.2056C20.8955 17.6626 20.81 18.1148 20.7197 18.5813C20.2923 18.2909 19.8744 18.0053 19.4517 17.7197C19.4327 17.4484 19.3283 17.1961 19.1431 17.0009C18.9056 16.7487 18.5542 16.6011 18.1742 16.6011C18.1742 16.6011 18.16 16.6011 18.1552 16.6011C17.4761 16.6106 16.9585 17.0914 16.892 17.7721C16.854 18.1529 16.9727 18.5242 17.2149 18.7955C17.4239 19.024 17.6993 19.1573 18.0033 19.1668C18.0033 19.1668 18.008 19.1763 18.0128 19.1811C18.0365 19.2144 18.0555 19.2477 18.0793 19.281C18.35 19.6761 18.6159 20.0665 18.8866 20.4615C18.331 20.5663 17.7896 20.671 17.2434 20.7662C16.9917 20.5948 16.7115 20.4996 16.4361 20.4996C16.0562 20.4996 15.7095 20.6662 15.4673 20.9709C15.0494 21.4897 15.0636 22.1514 15.5005 22.656C15.7427 22.932 16.0752 23.0891 16.4408 23.0891C16.7163 23.0891 16.9965 22.9987 17.2434 22.8273C17.8228 22.932 18.4022 23.0415 18.9958 23.1558C18.6681 23.6365 18.35 24.103 18.027 24.5695C17.3527 24.6933 16.8825 25.2359 16.9157 25.8928C16.949 26.6068 17.4476 27.1114 18.1505 27.1447C18.1742 27.1447 18.1932 27.1447 18.217 27.1447C18.8676 27.1447 19.371 26.6973 19.485 26.0404C19.9029 25.7453 20.3256 25.4549 20.7577 25.1598C20.8527 25.6643 20.9429 26.1546 21.0284 26.6449C20.62 27.2495 20.6912 27.9635 21.2184 28.4109C21.4701 28.6251 21.7598 28.7346 22.059 28.7346C22.3582 28.7346 22.6526 28.6204 22.9043 28.4062C23.4172 27.9682 23.4884 27.2399 23.0895 26.6402C23.1465 26.2736 23.2178 25.9024 23.2937 25.5168L23.346 25.2359C23.3602 25.1693 23.3745 25.0979 23.384 25.0312C23.8874 25.3787 24.3718 25.7119 24.8562 26.0499C24.9797 26.7116 25.4783 27.159 26.1147 27.159C26.1432 27.159 26.1717 27.159 26.2049 27.159C26.903 27.1114 27.3922 26.6068 27.4254 25.9023C27.4587 25.2455 26.9885 24.7028 26.3141 24.5838C25.9817 24.103 25.6445 23.6127 25.3168 23.1272C25.8487 23.0272 26.3901 22.9273 26.922 22.8321C27.169 23.0034 27.4444 23.0939 27.7246 23.0939C28.0903 23.0939 28.4227 22.9416 28.6602 22.6655C29.1351 22.1181 29.1113 21.3898 28.6079 20.8852C28.285 20.5615 27.9383 20.4949 27.7056 20.4949C27.5109 20.4949 27.226 20.5425 26.9268 20.7614C26.4281 20.6757 25.9342 20.5805 25.4261 20.4853C25.73 20.0379 26.0292 19.6047 26.3284 19.1715C27.036 19.0335 27.5062 18.4528 27.4349 17.7721C27.3637 17.1009 26.8888 16.6392 26.2192 16.5963C26.1907 16.5963 26.1622 16.5963 26.1337 16.5963C25.4783 16.5963 24.9844 17.039 24.8704 17.7054C24.3908 18.0386 23.9064 18.3718 23.4125 18.7098C23.2985 18.1005 23.1845 17.5103 23.0753 16.9153C23.5217 16.2393 23.4315 15.6919 22.7903 15.0731C22.6431 14.9303 22.4437 14.8494 22.2347 14.8494V14.8398Z" fill="#C8CF25"/>
</g>
<defs>
<clipPath id="clip0_3654_2960">
<rect width="377" height="38" fill="white"/>
</clipPath>
</defs>
</svg>
