<svg width="355" height="43" viewBox="0 0 355 43" fill="none" xmlns="http://www.w3.org/2000/svg">
<g clip-path="url(#clip0_3654_3416)">
<path d="M24.7043 43H0.947336C0.219521 43 -0.238225 42.2094 0.127972 41.5805L12.0065 21.0284L23.885 0.471613C24.2512 -0.157204 25.1621 -0.157204 25.5237 0.471613L37.4022 21.0238L49.2807 41.5759C49.6469 42.2047 49.1891 42.9954 48.4613 42.9954H24.7043V43Z" fill="#00398C"/>
<path d="M24.686 38.9956C19.2251 38.9956 14.6384 35.0377 13.7733 29.5818C13.7504 29.4524 13.7275 29.3229 13.7001 29.1934L13.6635 29.0131C13.6589 28.9854 13.6543 28.9576 13.6543 28.9299V27.0296C13.6543 26.9972 13.6543 26.9648 13.6635 26.9371C13.7046 26.7337 13.7413 26.5302 13.7779 26.3222C13.8649 25.8413 13.9518 25.3466 14.1212 24.8657C14.3638 24.186 14.6705 23.5248 14.9726 22.8868C15.0733 22.6695 15.174 22.4568 15.2747 22.2395C15.3708 22.0222 15.5448 21.8465 15.8057 21.6985C15.8744 21.6615 15.9476 21.643 16.0254 21.643C16.1124 21.643 16.2039 21.6708 16.2818 21.7216C16.4237 21.8187 16.4969 21.9898 16.4694 22.1609C16.2131 23.941 16.2589 25.2818 16.6251 26.5071C17.0462 27.9266 17.7923 29.1518 18.8451 30.1552C19.9117 31.1724 21.1796 31.8705 22.6078 32.2266C23.2944 32.3976 23.9902 32.4855 24.6768 32.4855C25.4184 32.4855 26.1691 32.3838 26.906 32.1849C28.3296 31.8012 29.5793 31.0753 30.6229 30.0257C31.6529 28.99 32.3715 27.7462 32.756 26.3222C33.0993 25.0553 33.0993 23.6543 32.756 22.0453C32.7286 21.9204 32.756 21.791 32.8293 21.6846C32.9025 21.5783 33.0169 21.5136 33.1451 21.4997L33.3419 21.4766C33.3419 21.4766 33.3785 21.4766 33.3923 21.4766C33.5388 21.4766 33.6807 21.5505 33.7631 21.6754L33.8546 21.8095C33.9278 21.9204 34.0057 22.0268 34.0743 22.1377C35.9282 25.1015 36.2715 28.671 35.0127 31.9353C33.7402 35.2366 31.0486 37.6686 27.6293 38.6026C26.6634 38.8661 25.6747 39.0002 24.6905 39.0002L24.686 38.9956Z" fill="#FCFCFC"/>
<path d="M33.3874 21.9297C33.4881 22.0776 33.5934 22.2256 33.6895 22.3782C37.443 28.3797 34.3441 36.2954 27.5054 38.1633C26.5578 38.4223 25.6103 38.5471 24.6811 38.5471C19.5955 38.5471 15.0593 34.8528 14.2124 29.5125C14.1804 29.3183 14.1392 29.1241 14.1026 28.9299V27.0296C14.2445 26.3591 14.3177 25.661 14.5466 25.0183C14.8624 24.1305 15.2927 23.2844 15.6818 22.4244C15.7413 22.2949 15.8512 22.1886 16.0251 22.0915C15.8054 23.6312 15.7504 25.1431 16.1945 26.6319C16.6385 28.1254 17.4166 29.4107 18.5381 30.4788C19.6688 31.5561 20.9916 32.2867 22.5022 32.6612C23.23 32.8415 23.9532 32.934 24.6811 32.934C25.4638 32.934 26.2466 32.8276 27.0247 32.6196C28.5261 32.2127 29.8353 31.4544 30.9384 30.3447C32.0325 29.2489 32.7786 27.945 33.1906 26.4424C33.5934 24.9582 33.5201 23.4601 33.1906 21.9528C33.2546 21.9435 33.3233 21.9389 33.3874 21.9297ZM33.3874 21.0234C33.3553 21.0234 33.3187 21.0234 33.2867 21.0281L33.0899 21.0512C32.8381 21.0789 32.6092 21.2176 32.4627 21.4257C32.3163 21.6338 32.2613 21.8973 32.3163 22.147C32.655 23.7005 32.655 24.9905 32.3254 26.2066C31.9546 27.5705 31.2955 28.7172 30.3068 29.7067C29.3226 30.6961 28.137 31.385 26.7913 31.7503C26.0909 31.9399 25.3814 32.037 24.6811 32.037C24.0311 32.037 23.3719 31.9538 22.7173 31.7919C21.3624 31.4544 20.1631 30.7932 19.1561 29.8315C18.1628 28.8837 17.4578 27.7185 17.055 26.3823C16.7117 25.2217 16.6659 23.941 16.9131 22.2302C16.9635 21.8881 16.817 21.5505 16.5332 21.3517C16.3821 21.2454 16.2036 21.1899 16.0251 21.1899C15.874 21.1899 15.723 21.2269 15.5857 21.3055C15.2424 21.4997 15.0043 21.7447 14.867 22.0499C14.7709 22.2672 14.6702 22.4799 14.5695 22.6926C14.2674 23.3399 13.9515 24.0103 13.7043 24.7131C13.5212 25.2263 13.4297 25.7442 13.3427 26.2435C13.3061 26.4516 13.2695 26.6504 13.2283 26.84C13.2145 26.9001 13.21 26.9648 13.21 27.0296V28.9299C13.21 28.9854 13.2145 29.0409 13.2237 29.0963L13.2603 29.2905C13.2832 29.4107 13.3061 29.5356 13.329 29.6558C14.2262 35.3337 19.005 39.4533 24.6856 39.4533C25.711 39.4533 26.7409 39.3146 27.7434 39.0418C31.3001 38.0709 34.1015 35.5417 35.4289 32.1017C36.7381 28.7033 36.381 24.9859 34.4494 21.8973C34.3761 21.7817 34.3029 21.6707 34.2251 21.5598C34.193 21.5135 34.1656 21.4719 34.1335 21.4257C33.9641 21.176 33.6849 21.0281 33.392 21.0281L33.3874 21.0234Z" fill="#C8CF25"/>
<path d="M24.7644 32.0642C24.5356 32.0642 24.3067 31.9763 24.1099 31.8053C23.675 31.4354 23.643 30.8435 24.0275 30.3396C24.0504 30.3072 24.0687 30.2748 24.0778 30.2517C23.9405 29.4426 23.7894 28.6473 23.6292 27.8058L23.6109 27.7087C22.874 28.2173 22.1599 28.712 21.4458 29.216C21.4458 29.2253 21.4458 29.2345 21.4458 29.2438C21.4046 29.8541 21.0018 30.2656 20.4479 30.2656H20.3976C19.83 30.2378 19.4638 29.8587 19.4363 29.2808C19.4088 28.7167 19.8437 28.2774 20.4708 28.2312C20.4799 28.2312 20.4845 28.2312 20.4891 28.2312C21.0064 27.4822 21.519 26.7239 22.0409 25.9471L22.0775 25.8916L21.9493 25.8685C21.0338 25.6928 20.1412 25.5171 19.244 25.3553C19.2303 25.3645 19.212 25.3738 19.1937 25.3923C18.9648 25.5818 18.7085 25.6789 18.4521 25.6789C18.1729 25.6789 17.9212 25.5587 17.7381 25.346C17.3902 24.9438 17.381 24.4352 17.7152 24.019C17.9028 23.7832 18.1683 23.6538 18.4567 23.6538C18.6947 23.6538 18.9419 23.7462 19.1662 23.9173C19.2074 23.9497 19.2532 23.9682 19.2807 23.9774C20.1138 23.8341 20.9285 23.6769 21.7983 23.5104L21.963 23.4781C21.5328 22.84 21.1025 22.2019 20.6722 21.5685L20.6035 21.4621C20.4616 21.2402 20.4433 21.2402 20.3655 21.2402C20.3655 21.2402 20.2831 21.2402 20.274 21.2402C20.0405 21.2402 19.8254 21.1431 19.6652 20.9674C19.4775 20.7594 19.3905 20.4634 19.418 20.1583C19.4683 19.6173 19.862 19.2474 20.3976 19.2428C20.7134 19.2428 20.9926 19.3538 21.1711 19.5526C21.3314 19.7283 21.4138 19.9595 21.3954 20.2091C21.3909 20.2924 21.3909 20.2924 21.5831 20.4265C22.1965 20.8472 22.7961 21.2587 23.4141 21.6841L23.5789 21.7997L23.6155 21.6055C23.7483 20.9119 23.8764 20.2369 24 19.5618C24.0092 19.511 24.0183 19.4601 24.0275 19.4092C24.0916 19.0948 24.1053 18.9977 23.9634 18.8359C23.7345 18.5816 23.7162 18.3273 23.7391 18.1562C23.7849 17.8465 24.0046 17.5644 24.3937 17.3194C24.4623 17.2731 24.5447 17.25 24.6271 17.25H24.9704C25.0849 17.25 25.1993 17.2962 25.2817 17.3748C25.8905 17.9667 25.9317 18.3735 25.4373 19.0301C25.6113 19.9872 25.7898 20.9443 25.9775 21.9338L26.0461 21.8875C26.8289 21.3512 27.5887 20.8241 28.344 20.2924C28.344 20.2785 28.3486 20.2554 28.3532 20.2323C28.4081 19.6266 28.8018 19.2335 29.3465 19.2335C29.3694 19.2335 29.3923 19.2335 29.4151 19.2335C29.9416 19.2659 30.3032 19.6219 30.3581 20.1583C30.4176 20.7131 29.9965 21.1894 29.3831 21.2633C29.3465 21.2633 29.319 21.2726 29.3007 21.2772C28.8155 21.9754 28.3349 22.6828 27.8405 23.4133L27.7856 23.4966L27.8542 23.5104C28.7011 23.6723 29.525 23.8248 30.3489 23.9682C30.3627 23.9589 30.3764 23.9451 30.3947 23.9312C30.619 23.737 30.857 23.6399 31.1042 23.6399C31.2827 23.6399 31.5437 23.6954 31.8046 23.9497C32.2028 24.3473 32.2165 24.9068 31.8412 25.3414C31.6581 25.5541 31.4018 25.6743 31.1271 25.6743C30.8708 25.6743 30.6144 25.5772 30.381 25.3876C30.3627 25.3738 30.3444 25.3645 30.3306 25.3553C29.438 25.5125 28.5363 25.6882 27.662 25.8546L27.694 25.9009C28.225 26.6869 28.7514 27.4683 29.287 28.2451C29.287 28.2451 29.2961 28.2451 29.3007 28.2451C29.9324 28.282 30.3673 28.7213 30.3444 29.29C30.3169 29.8633 29.9507 30.2425 29.3923 30.2795C29.3694 30.2795 29.3465 30.2795 29.3236 30.2795C28.788 30.2795 28.3898 29.8726 28.3349 29.2623C28.3349 29.2484 28.3349 29.2299 28.3303 29.2206C27.5659 28.6797 26.7968 28.148 25.9912 27.5931L25.95 27.5654C25.8905 27.8752 25.831 28.1757 25.7715 28.4762L25.712 28.786C25.6204 29.2623 25.5243 29.7524 25.4556 30.2332C25.4556 30.2425 25.4785 30.298 25.5014 30.3303C25.8768 30.8343 25.8447 31.4354 25.4236 31.8006C25.2222 31.9717 24.9933 32.0642 24.7644 32.0642Z" fill="#FCFCFC"/>
<path d="M24.9609 17.6999C25.4141 18.1392 25.4233 18.2918 25.0525 18.7772C24.9976 18.8466 24.9564 18.9576 24.9747 19.0408C25.1898 20.2383 25.4187 21.4405 25.6567 22.6935C26.6912 21.9814 27.6891 21.2971 28.6778 20.599C28.7556 20.5435 28.7785 20.3816 28.7923 20.2707C28.8289 19.9008 29.0211 19.6788 29.3416 19.6788C29.3553 19.6788 29.369 19.6788 29.3828 19.6788C29.7032 19.6973 29.8771 19.8915 29.9092 20.2013C29.9412 20.5204 29.6849 20.7654 29.3232 20.8116C29.1997 20.8255 29.0349 20.8671 28.9708 20.955C28.3254 21.8797 27.6983 22.8183 27.0254 23.8124C28.1789 24.0297 29.2729 24.2424 30.3761 24.432C30.3806 24.432 30.3898 24.432 30.399 24.432C30.4905 24.432 30.6049 24.3441 30.6873 24.2748C30.8247 24.1545 30.9666 24.0898 31.1039 24.0898C31.2412 24.0898 31.3648 24.1499 31.4884 24.2701C31.7218 24.5059 31.7218 24.788 31.5021 25.0423C31.4014 25.1625 31.2687 25.218 31.1268 25.218C30.9757 25.218 30.8155 25.1533 30.6644 25.033C30.5775 24.9637 30.4493 24.8943 30.344 24.8943C30.3303 24.8943 30.3211 24.8943 30.312 24.8943C29.2317 25.0839 28.1606 25.292 27.0849 25.5C27.0483 25.5093 27.0116 25.5416 26.943 25.5833C27.6296 26.5958 28.3025 27.6038 28.9937 28.6025C29.0394 28.6672 29.1813 28.6904 29.2775 28.695C29.6437 28.7181 29.9137 28.9447 29.9 29.2683C29.8863 29.6012 29.7032 29.8047 29.3644 29.8278C29.3507 29.8278 29.337 29.8278 29.3232 29.8278C29.0166 29.8278 28.8152 29.5873 28.7831 29.2221C28.774 29.1111 28.7373 28.9585 28.6595 28.903C27.6845 28.2095 26.6958 27.5298 25.643 26.8039C25.5331 27.368 25.4278 27.8766 25.3317 28.3898C25.2173 28.9816 25.0983 29.5735 25.0113 30.1699C24.993 30.3086 25.0571 30.489 25.144 30.6045C25.3637 30.8958 25.3821 31.2426 25.1349 31.4553C25.0159 31.557 24.8923 31.6125 24.7641 31.6125C24.6359 31.6125 24.5169 31.5616 24.3979 31.4599C24.1416 31.238 24.1507 30.9143 24.3796 30.6138C24.462 30.5028 24.5444 30.3364 24.5261 30.2162C24.343 29.1435 24.137 28.0708 23.9218 26.9426C22.9469 27.6177 22.0085 28.2604 21.0792 28.9169C21.0152 28.9631 21.0014 29.1065 20.9969 29.2082C20.974 29.5735 20.7634 29.8093 20.443 29.8093C20.4338 29.8093 20.4201 29.8093 20.4109 29.8093C20.0676 29.7954 19.8937 29.5873 19.8754 29.2544C19.8616 28.9262 20.1226 28.7042 20.4933 28.6811C20.594 28.6765 20.7359 28.6534 20.7817 28.5886C21.4638 27.5992 22.1366 26.6051 22.8324 25.574C21.6057 25.3382 20.4338 25.107 19.2574 24.8943C19.2483 24.8943 19.2345 24.8943 19.2254 24.8943C19.1247 24.8943 18.9919 24.9683 18.9095 25.0377C18.7631 25.1579 18.6028 25.2226 18.4518 25.2226C18.3099 25.2226 18.1771 25.1671 18.0764 25.0469C17.8705 24.8111 17.8659 24.5476 18.0627 24.3025C18.1726 24.1684 18.3053 24.1037 18.4518 24.1037C18.5983 24.1037 18.7447 24.1638 18.8958 24.2748C19.0011 24.3534 19.1521 24.4273 19.2803 24.4273C19.2986 24.4273 19.3124 24.4273 19.3307 24.4273C20.4338 24.2331 21.5324 24.0158 22.6905 23.7985C22.599 23.6459 22.5349 23.5257 22.4571 23.4101C21.9856 22.7073 21.5095 22.0092 21.0335 21.311C20.8641 21.0613 20.7405 20.7885 20.356 20.7885C20.3377 20.7885 20.3148 20.7885 20.2919 20.7885C20.2828 20.7885 20.2736 20.7885 20.2645 20.7885C19.9944 20.7885 19.8296 20.5019 19.8571 20.2059C19.8845 19.9008 20.0814 19.702 20.3972 19.6973H20.4064C20.7085 19.6973 20.9648 19.873 20.9419 20.1782C20.919 20.5296 21.1159 20.6544 21.3402 20.807C22.1733 21.3757 23.0018 21.9491 23.8852 22.5594C24.0775 21.5468 24.2652 20.5943 24.4345 19.6419C24.5032 19.2673 24.6314 18.9159 24.288 18.5322C23.9997 18.2131 24.3064 17.9034 24.6222 17.7045H24.9655M24.9609 16.7937H24.6176C24.4528 16.7937 24.288 16.8399 24.1461 16.9278C23.638 17.2422 23.3451 17.6352 23.281 18.0837C23.2307 18.4582 23.3451 18.8235 23.6106 19.124C23.606 19.1749 23.5877 19.2488 23.5785 19.309C23.5694 19.3644 23.5557 19.4153 23.5465 19.4708C23.4549 19.9886 23.3588 20.4972 23.2581 21.0243C22.7775 20.6961 22.306 20.3724 21.8345 20.0487C21.8162 19.739 21.6972 19.4569 21.4866 19.235C21.2212 18.9483 20.8275 18.7819 20.4018 18.7819C20.4018 18.7819 20.3835 18.7819 20.3789 18.7819C19.6145 18.7911 19.0331 19.3367 18.9599 20.1088C18.9187 20.5388 19.0514 20.9642 19.3215 21.2648C19.555 21.5237 19.8662 21.6716 20.205 21.6855C20.205 21.6901 20.2095 21.6948 20.2141 21.6994C20.237 21.7364 20.2645 21.7734 20.2873 21.8104C20.5895 22.2542 20.8916 22.7027 21.1937 23.1466C20.5666 23.2668 19.9624 23.3824 19.349 23.4887C19.0652 23.2945 18.7539 23.1882 18.4426 23.1882C18.0169 23.1882 17.6278 23.3778 17.3532 23.7245C16.8817 24.3118 16.9 25.0608 17.3898 25.6341C17.6599 25.9485 18.0352 26.1242 18.4426 26.1242C18.7539 26.1242 19.0697 26.0179 19.3444 25.8283C19.9944 25.9485 20.6444 26.0734 21.3127 26.1982C20.9465 26.7392 20.5895 27.2663 20.2233 27.7934C19.468 27.9321 18.9416 28.547 18.9736 29.2868C19.0102 30.0959 19.5687 30.6647 20.3606 30.7016C20.3835 30.7016 20.4109 30.7016 20.4338 30.7016C21.1662 30.7016 21.7292 30.1977 21.8574 29.4533C22.3289 29.1204 22.8004 28.7921 23.2856 28.4592C23.3909 29.0279 23.4961 29.5827 23.5923 30.1376C23.13 30.8219 23.2123 31.631 23.8074 32.135C24.0866 32.3754 24.4162 32.5002 24.7549 32.5002C25.0937 32.5002 25.4233 32.3708 25.7071 32.1304C26.2838 31.6356 26.3616 30.808 25.913 30.1329C25.9771 29.7168 26.0549 29.3007 26.1419 28.8614L26.2014 28.5424C26.2152 28.4638 26.2289 28.3852 26.2472 28.3112C26.8102 28.7042 27.3595 29.0834 27.8997 29.4625C28.037 30.2115 28.5954 30.7155 29.3095 30.7155C29.3416 30.7155 29.3736 30.7155 29.4102 30.7155C30.193 30.6647 30.7468 30.0913 30.7835 29.2961C30.8201 28.5516 30.2937 27.9413 29.5338 27.8026C29.1585 27.257 28.7831 26.7022 28.4123 26.1566C29.012 26.041 29.6162 25.93 30.2159 25.8191C30.4951 26.0133 30.8063 26.115 31.1176 26.115C31.525 26.115 31.9004 25.9439 32.1704 25.6295C32.7014 25.0099 32.6785 24.1823 32.1109 23.6182C31.7447 23.2529 31.3556 23.1743 31.0947 23.1743C30.875 23.1743 30.5592 23.2298 30.2204 23.4749C29.662 23.3778 29.1081 23.2714 28.5359 23.1651C28.8792 22.6565 29.2134 22.1664 29.5521 21.6809C30.3486 21.5283 30.875 20.8671 30.7972 20.095C30.7194 19.3321 30.1838 18.8096 29.4331 18.768C29.4011 18.768 29.369 18.768 29.337 18.768C28.6046 18.768 28.0507 19.2673 27.918 20.0256C27.3778 20.4048 26.8377 20.7793 26.2792 21.163C26.1511 20.4741 26.0229 19.8037 25.8993 19.1286C26.4028 18.3657 26.3021 17.7462 25.5789 17.0434C25.4095 16.8815 25.1898 16.7891 24.9564 16.7891L24.9609 16.7937Z" fill="#C8CF25"/>
<path d="M64.9453 33.7468H69.5411V34.6808H66.0622V37.5428H69.2756V38.4629H66.0622V42.3607H64.9499V33.7422L64.9453 33.7468Z" fill="#9C9B99"/>
<path d="M70.6255 38.1083C70.6255 37.3778 70.6118 36.7536 70.5752 36.1802H71.5502L71.6005 37.4055H71.6372C71.9164 36.5733 72.5984 36.0508 73.3446 36.0508C73.459 36.0508 73.546 36.0647 73.6467 36.0785V37.1373C73.5322 37.1096 73.4178 37.1096 73.2667 37.1096C72.484 37.1096 71.9255 37.6968 71.7745 38.5429C71.7516 38.6955 71.7379 38.8897 71.7379 39.0654V42.3621H70.6255V38.1037V38.1083Z" fill="#9C9B99"/>
<path d="M80.0557 39.2219C80.0557 41.5106 78.4719 42.5093 77.0071 42.5093C75.3638 42.5093 74.0684 41.284 74.0684 39.3282C74.0684 37.2707 75.4233 36.0547 77.1078 36.0547C78.7923 36.0547 80.0557 37.3447 80.0557 39.2265V39.2219ZM75.2081 39.2866C75.2081 40.6414 75.968 41.6632 77.0574 41.6632C78.1469 41.6632 78.9159 40.6552 78.9159 39.2589C78.9159 38.2093 78.3986 36.8916 77.0803 36.8916C75.762 36.8916 75.2081 38.1168 75.2081 39.282V39.2866Z" fill="#9C9B99"/>
<path d="M81.3375 37.854C81.3375 37.2021 81.31 36.6888 81.2871 36.1802H82.2621L82.3125 37.1882H82.3491C82.6924 36.601 83.26 36.0508 84.2853 36.0508C85.1093 36.0508 85.741 36.564 86.0065 37.2899H86.0339C86.2216 36.9339 86.4779 36.675 86.7297 36.4854C87.0959 36.2034 87.4896 36.0508 88.0709 36.0508C88.8948 36.0508 90.0941 36.5871 90.0941 38.7371V42.3667H89.0047V38.8758C89.0047 37.6737 88.5607 36.9709 87.6772 36.9709C87.0318 36.9709 86.5512 37.4425 86.3498 37.9788C86.2994 38.1453 86.2628 38.3349 86.2628 38.5429V42.3667H85.1734V38.6585C85.1734 37.6737 84.7431 36.9709 83.8963 36.9709C83.2142 36.9709 82.6924 37.535 82.5184 38.0944C82.4544 38.247 82.4315 38.4551 82.4315 38.6447V42.3667H81.342V37.854H81.3375Z" fill="#9C9B99"/>
<path d="M94.3604 33.8778C95.0287 33.7622 95.8297 33.6836 96.704 33.6836C98.2878 33.6836 99.4139 34.0674 100.16 34.7563C100.934 35.4591 101.373 36.4578 101.373 37.8495C101.373 39.2412 100.929 40.4064 100.146 41.197C99.336 42.0016 98.0223 42.4362 96.3607 42.4362C95.5642 42.4362 94.9188 42.3992 94.3604 42.3345V33.8732V33.8778ZM95.4635 41.4976C95.7427 41.5346 96.1456 41.5484 96.5758 41.5484C98.9424 41.5484 100.21 40.2168 100.21 37.8911C100.224 35.8567 99.0843 34.5667 96.7544 34.5667C96.1822 34.5667 95.7565 34.6176 95.4635 34.6823V41.4976Z" fill="#9C9B99"/>
<path d="M103.295 39.4762C103.318 40.9974 104.27 41.6262 105.396 41.6262C106.193 41.6262 106.687 41.4875 107.095 41.3072L107.296 42.1117C106.902 42.292 106.22 42.5093 105.245 42.5093C103.359 42.5093 102.233 41.2424 102.233 39.3791C102.233 37.5158 103.323 36.0547 105.108 36.0547C107.122 36.0547 107.639 37.8209 107.639 38.9583C107.639 39.1895 107.626 39.356 107.603 39.4808H103.3L103.295 39.4762ZM106.559 38.6717C106.573 37.9689 106.271 36.8546 105.016 36.8546C103.877 36.8546 103.396 37.8903 103.309 38.6717H106.564H106.559Z" fill="#9C9B99"/>
<path d="M108.193 41.7142L110.954 38.0708C111.233 37.724 111.485 37.4327 111.764 37.0998V37.0767H108.45V36.1797H113.105V36.8825L110.372 40.4751C110.107 40.8218 109.864 41.1409 109.589 41.446V41.4738H113.16V42.3708H108.198V41.7188L108.193 41.7142Z" fill="#9C9B99"/>
<path d="M118.484 40.8825C118.484 41.4188 118.507 41.9413 118.571 42.3667H117.573L117.481 41.5853H117.445C117.101 42.0708 116.447 42.5054 115.572 42.5054C114.332 42.5054 113.7 41.6223 113.7 40.7299C113.7 39.2319 115.018 38.4181 117.38 38.4273V38.2979C117.38 37.7985 117.243 36.8645 115.989 36.8784C115.408 36.8784 114.813 37.0449 114.382 37.3408L114.13 36.5871C114.639 36.2681 115.385 36.0508 116.154 36.0508C118.026 36.0508 118.484 37.3408 118.484 38.5707V40.8825ZM117.408 39.2087C116.195 39.181 114.813 39.3983 114.813 40.6005C114.813 41.3402 115.293 41.6731 115.852 41.6731C116.662 41.6731 117.179 41.1599 117.358 40.6374C117.394 40.508 117.408 40.3831 117.408 40.2814V39.2087Z" fill="#9C9B99"/>
<path d="M120.154 37.854C120.154 37.2021 120.14 36.6888 120.104 36.1802H121.092L121.156 37.2021H121.184C121.486 36.6241 122.195 36.0508 123.207 36.0508C124.054 36.0508 125.372 36.564 125.372 38.6863V42.3667H124.26V38.8019C124.26 37.8031 123.894 36.9755 122.841 36.9755C122.118 36.9755 121.55 37.498 121.349 38.1268C121.298 38.2655 121.271 38.4597 121.271 38.6493V42.3713H120.158V37.8586L120.154 37.854Z" fill="#9C9B99"/>
<path d="M129.51 41.0118C130.005 41.3309 130.714 41.5759 131.474 41.5759C132.6 41.5759 133.259 40.9749 133.259 40.1056C133.259 39.315 132.806 38.8387 131.653 38.4041C130.261 37.8909 129.401 37.1511 129.401 35.9489C129.401 34.6081 130.504 33.6094 132.161 33.6094C133.021 33.6094 133.667 33.8128 134.033 34.0301L133.731 34.9364C133.465 34.7699 132.898 34.5295 132.124 34.5295C130.961 34.5295 130.517 35.2323 130.517 35.8195C130.517 36.624 131.035 37.0216 132.216 37.4794C133.658 38.0435 134.381 38.7463 134.381 40.0085C134.381 41.3401 133.42 42.5007 131.405 42.5007C130.581 42.5007 129.684 42.2464 129.227 41.9366L129.52 41.0026L129.51 41.0118Z" fill="#9C9B99"/>
<path d="M135.726 33.2891H136.839V37.1637H136.861C137.04 36.8447 137.319 36.5487 137.658 36.3592C137.988 36.1696 138.381 36.054 138.798 36.054C139.622 36.054 140.935 36.5672 140.935 38.6895V42.3699H139.823V38.8143C139.823 37.8156 139.457 36.988 138.404 36.988C137.681 36.988 137.127 37.5012 136.912 38.0977C136.848 38.2641 136.834 38.4306 136.834 38.634V42.3653H135.722V33.2891H135.726Z" fill="#9C9B99"/>
<path d="M143.861 34.4411C143.861 34.8248 143.595 35.13 143.151 35.13C142.749 35.13 142.479 34.8248 142.479 34.4411C142.479 34.0573 142.758 33.7383 143.174 33.7383C143.591 33.7383 143.856 34.0434 143.856 34.4411H143.861ZM142.625 42.366V36.1796H143.737V42.366H142.625Z" fill="#9C9B99"/>
<path d="M145.459 38.1083C145.459 37.3778 145.445 36.7536 145.408 36.1802H146.383L146.434 37.4055H146.47C146.749 36.5733 147.431 36.0508 148.178 36.0508C148.292 36.0508 148.379 36.0647 148.48 36.0785V37.1373C148.365 37.1096 148.251 37.1096 148.1 37.1096C147.317 37.1096 146.759 37.6968 146.607 38.5429C146.585 38.6955 146.571 38.8897 146.571 39.0654V42.3621H145.459V38.1037V38.1083Z" fill="#9C9B99"/>
<path d="M153.711 40.8825C153.711 41.4188 153.734 41.9413 153.798 42.3667H152.8L152.709 41.5853H152.672C152.329 42.0708 151.674 42.5054 150.8 42.5054C149.559 42.5054 148.928 41.6223 148.928 40.7299C148.928 39.2319 150.246 38.4181 152.608 38.4273V38.2979C152.608 37.7985 152.471 36.8645 151.216 36.8784C150.635 36.8784 150.04 37.0449 149.61 37.3408L149.358 36.5871C149.866 36.2681 150.612 36.0508 151.381 36.0508C153.253 36.0508 153.711 37.3408 153.711 38.5707V40.8825ZM152.635 39.2087C151.422 39.181 150.04 39.3983 150.04 40.6005C150.04 41.3402 150.521 41.6731 151.079 41.6731C151.889 41.6731 152.407 41.1599 152.585 40.6374C152.622 40.508 152.635 40.3831 152.635 40.2814V39.2087Z" fill="#9C9B99"/>
<path d="M162.239 40.8825C162.239 41.4188 162.266 41.9413 162.326 42.3667H161.328L161.241 41.5853H161.204C160.861 42.0708 160.206 42.5054 159.332 42.5054C158.092 42.5054 157.46 41.6223 157.46 40.7299C157.46 39.2319 158.778 38.4181 161.145 38.4273V38.2979C161.145 37.7985 161.007 36.8645 159.753 36.8784C159.172 36.8784 158.577 37.0449 158.147 37.3408L157.895 36.5871C158.403 36.2681 159.149 36.0508 159.918 36.0508C161.79 36.0508 162.248 37.3408 162.248 38.5707V40.8825H162.239ZM161.168 39.2087C159.955 39.181 158.572 39.3983 158.572 40.6005C158.572 41.3402 159.053 41.6731 159.611 41.6731C160.422 41.6731 160.939 41.1599 161.117 40.6374C161.154 40.508 161.168 40.3831 161.168 40.2814V39.2087Z" fill="#9C9B99"/>
<path d="M163.915 37.854C163.915 37.2021 163.901 36.6888 163.864 36.1802H164.853L164.917 37.2021H164.94C165.242 36.6241 165.952 36.0508 166.963 36.0508C167.81 36.0508 169.128 36.564 169.128 38.6863V42.3667H168.016V38.8019C168.016 37.8031 167.65 36.9755 166.597 36.9755C165.874 36.9755 165.306 37.498 165.105 38.1268C165.054 38.2655 165.027 38.4597 165.027 38.6493V42.3713H163.915V37.8586V37.854Z" fill="#9C9B99"/>
<path d="M176.086 33.2891V40.7655C176.086 41.3157 176.114 41.9399 176.137 42.3653H175.148L175.097 41.2926H175.061C174.731 41.9815 173.999 42.5086 172.996 42.5086C171.518 42.5086 170.364 41.2418 170.364 39.3645C170.351 37.307 171.628 36.054 173.111 36.054C174.058 36.054 174.681 36.5025 174.96 36.988H174.988V33.2937H176.086V33.2891ZM174.988 38.6987C174.988 38.56 174.974 38.3658 174.937 38.2271C174.772 37.5243 174.164 36.9371 173.331 36.9371C172.177 36.9371 171.495 37.959 171.495 39.3137C171.495 40.5667 172.113 41.6024 173.303 41.6024C174.049 41.6024 174.731 41.0892 174.937 40.2615C174.974 40.109 174.988 39.9564 174.988 39.7761V38.7034V38.6987Z" fill="#9C9B99"/>
<path d="M181.798 39.6551L180.91 42.3646H179.771L182.682 33.7461H184L186.911 42.3646H185.735L184.824 39.6551H181.798ZM184.609 38.7859L183.762 36.3076C183.574 35.7435 183.446 35.2349 183.318 34.7356H183.295C183.167 35.2349 183.043 35.7713 182.865 36.2937L182.032 38.7859H184.613H184.609Z" fill="#9C9B99"/>
<path d="M187.772 41.2293C188.115 41.4327 188.697 41.6639 189.251 41.6639C190.047 41.6639 190.427 41.2663 190.427 40.7438C190.427 40.2213 190.111 39.9254 189.301 39.6202C188.189 39.2134 187.667 38.6123 187.667 37.8679C187.667 36.8692 188.477 36.0508 189.782 36.0508C190.399 36.0508 190.944 36.2172 191.274 36.4345L191.008 37.2529C190.766 37.1004 190.326 36.883 189.754 36.883C189.095 36.883 188.742 37.2668 188.742 37.7292C188.742 38.2424 189.095 38.469 189.896 38.788C190.944 39.1856 191.503 39.722 191.503 40.6421C191.503 41.7425 190.656 42.51 189.223 42.51C188.55 42.51 187.932 42.3297 187.502 42.0754L187.767 41.2293H187.772Z" fill="#9C9B99"/>
<path d="M192.657 41.2293C193 41.4327 193.581 41.6639 194.135 41.6639C194.932 41.6639 195.312 41.2663 195.312 40.7438C195.312 40.2213 194.996 39.9254 194.186 39.6202C193.073 39.2134 192.552 38.6123 192.552 37.8679C192.552 36.8692 193.362 36.0508 194.666 36.0508C195.284 36.0508 195.829 36.2172 196.159 36.4345L195.893 37.2529C195.65 37.1004 195.211 36.883 194.639 36.883C193.98 36.883 193.627 37.2668 193.627 37.7292C193.627 38.2424 193.98 38.469 194.781 38.788C195.829 39.1856 196.387 39.722 196.387 40.6421C196.387 41.7425 195.541 42.51 194.108 42.51C193.435 42.51 192.817 42.3297 192.387 42.0754L192.652 41.2293H192.657Z" fill="#9C9B99"/>
<path d="M203.24 39.2219C203.24 41.5106 201.656 42.5093 200.191 42.5093C198.548 42.5093 197.257 41.284 197.257 39.3282C197.257 37.2707 198.612 36.0547 200.296 36.0547C201.981 36.0547 203.244 37.3447 203.244 39.2265L203.24 39.2219ZM198.392 39.2866C198.392 40.6414 199.152 41.6632 200.241 41.6632C201.331 41.6632 202.1 40.6552 202.1 39.2589C202.1 38.2093 201.583 36.8916 200.264 36.8916C198.946 36.8916 198.392 38.1168 198.392 39.282V39.2866Z" fill="#9C9B99"/>
<path d="M208.883 42.1494C208.591 42.2881 207.945 42.5054 207.126 42.5054C205.276 42.5054 204.077 41.2385 204.077 39.3474C204.077 37.4564 205.368 36.0508 207.368 36.0508C208.027 36.0508 208.609 36.2172 208.911 36.3837L208.659 37.2391C208.394 37.1004 207.977 36.9431 207.368 36.9431C205.963 36.9431 205.203 38.002 205.203 39.2827C205.203 40.716 206.114 41.5945 207.327 41.5945C207.959 41.5945 208.375 41.442 208.696 41.2986L208.888 42.1448L208.883 42.1494Z" fill="#9C9B99"/>
<path d="M211.301 34.4411C211.301 34.8248 211.035 35.13 210.591 35.13C210.188 35.13 209.923 34.8248 209.923 34.4411C209.923 34.0573 210.202 33.7383 210.619 33.7383C211.035 33.7383 211.301 34.0434 211.301 34.4411ZM210.065 42.366V36.1796H211.177V42.366H210.065Z" fill="#9C9B99"/>
<path d="M217.201 40.8825C217.201 41.4188 217.228 41.9413 217.288 42.3667H216.29L216.203 41.5853H216.166C215.823 42.0708 215.168 42.5054 214.294 42.5054C213.054 42.5054 212.422 41.6223 212.422 40.7299C212.422 39.2319 213.74 38.4181 216.107 38.4273V38.2979C216.107 37.7985 215.969 36.8645 214.715 36.8784C214.134 36.8784 213.539 37.0449 213.108 37.3408L212.857 36.5871C213.365 36.2681 214.111 36.0508 214.88 36.0508C216.752 36.0508 217.21 37.3408 217.21 38.5707V40.8825H217.201ZM216.125 39.2087C214.912 39.181 213.53 39.3983 213.53 40.6005C213.53 41.3402 214.01 41.6731 214.569 41.6731C215.379 41.6731 215.896 41.1599 216.075 40.6374C216.111 40.508 216.125 40.3831 216.125 40.2814V39.2087Z" fill="#9C9B99"/>
<path d="M220.162 34.6953V36.1795H221.755V37.0349H220.162V40.3732C220.162 41.1407 220.377 41.5753 221 41.5753C221.302 41.5753 221.48 41.5476 221.645 41.4967L221.695 42.3521C221.48 42.4307 221.137 42.5047 220.707 42.5047C220.189 42.5047 219.768 42.3243 219.503 42.0331C219.201 41.6863 219.073 41.1361 219.073 40.4102V37.0349H218.125V36.1795H219.073V35.0282L220.162 34.6953Z" fill="#9C9B99"/>
<path d="M223.426 39.4762C223.454 40.9974 224.401 41.6262 225.527 41.6262C226.324 41.6262 226.818 41.4875 227.226 41.3072L227.427 42.1117C227.033 42.292 226.351 42.5093 225.376 42.5093C223.49 42.5093 222.364 41.2424 222.364 39.3791C222.364 37.5158 223.454 36.0547 225.239 36.0547C227.248 36.0547 227.77 37.8209 227.77 38.9583C227.77 39.1895 227.757 39.356 227.734 39.4808H223.431L223.426 39.4762ZM226.695 38.6717C226.708 37.9689 226.402 36.8546 225.152 36.8546C224.012 36.8546 223.532 37.8903 223.445 38.6717H226.699H226.695Z" fill="#9C9B99"/>
<path d="M228.874 41.2293C229.217 41.4327 229.798 41.6639 230.352 41.6639C231.149 41.6639 231.529 41.2663 231.529 40.7438C231.529 40.2213 231.213 39.9254 230.402 39.6202C229.29 39.2134 228.768 38.6123 228.768 37.8679C228.768 36.8692 229.579 36.0508 230.883 36.0508C231.501 36.0508 232.046 36.2172 232.375 36.4345L232.11 37.2529C231.867 37.1004 231.428 36.883 230.856 36.883C230.196 36.883 229.844 37.2668 229.844 37.7292C229.844 38.2424 230.196 38.469 230.998 38.788C232.046 39.1856 232.604 39.722 232.604 40.6421C232.604 41.7425 231.757 42.51 230.325 42.51C229.652 42.51 229.034 42.3297 228.604 42.0754L228.869 41.2293H228.874Z" fill="#9C9B99"/>
<path d="M79.5015 18.456L85.4796 3.78516H94.4469V4.39086H93.7328C93.0828 4.39086 92.561 4.50645 92.1719 4.73763C91.9018 4.89021 91.6867 5.14913 91.5219 5.50978C91.4029 5.77333 91.3434 6.45763 91.3434 7.56268V22.2335C91.3434 23.371 91.4029 24.083 91.5219 24.365C91.6409 24.6517 91.8835 24.8968 92.2543 25.1095C92.625 25.3221 93.1148 25.4285 93.7328 25.4285H94.4469V26.0342H82.9483V25.4285H83.6624C84.3124 25.4285 84.8296 25.3129 85.2233 25.0817C85.4934 24.9291 85.7085 24.6656 85.8733 24.2957C85.9923 24.0321 86.0518 23.3432 86.0518 22.2289V5.74096L77.6064 26.0388H77.2173L68.6392 5.88892V21.5585C68.6392 22.6543 68.6666 23.3247 68.7216 23.579C68.8635 24.1246 69.1702 24.5731 69.6416 24.9153C70.1131 25.262 70.8501 25.4331 71.8571 25.4331V26.0388H64.3181V25.4331H64.5469C65.0321 25.4424 65.4899 25.3638 65.911 25.1927C66.3321 25.0216 66.6526 24.795 66.8677 24.513C67.0828 24.231 67.2522 23.8287 67.3712 23.3155C67.3941 23.1953 67.4033 22.6358 67.4033 21.6417V7.56268C67.4033 6.43451 67.3438 5.73172 67.2247 5.4543C67.1057 5.17688 66.8631 4.9272 66.4923 4.71451C66.1261 4.50182 65.6318 4.39548 65.0138 4.39548H64.3135V3.78978H73.3128L79.5015 18.4606V18.456Z" fill="#1A171B"/>
<path d="M102.041 25.5774V26.0398H93.2891V25.5774H93.8429C94.3281 25.5774 94.7218 25.4896 95.0148 25.3139C95.2299 25.1983 95.3947 24.9994 95.5091 24.7128C95.6007 24.514 95.6464 23.9915 95.6464 23.1407V12.0162C95.6464 11.1516 95.6007 10.6106 95.5091 10.3933C95.4176 10.176 95.2345 9.98644 94.9598 9.82461C94.6852 9.66278 94.3098 9.57955 93.8429 9.57955H93.2891V9.11719H102.041V9.57955H101.487C101.002 9.57955 100.608 9.6674 100.315 9.8431C100.1 9.95869 99.9309 10.1575 99.8074 10.4396C99.7158 10.6384 99.67 11.1608 99.67 12.0116V23.1361C99.67 24.0007 99.7158 24.5417 99.8119 24.759C99.9081 24.9763 100.091 25.1659 100.366 25.3277C100.64 25.4896 101.016 25.5728 101.483 25.5728H102.037L102.041 25.5774Z" fill="#1A171B"/>
<path d="M101.235 26.0351V25.5728H101.789C102.274 25.5728 102.645 25.4942 102.906 25.3416C103.167 25.189 103.354 24.9763 103.478 24.7128C103.551 24.5371 103.588 24.0146 103.588 23.1407V12.0162C103.588 11.1516 103.542 10.6106 103.451 10.3933C103.359 10.176 103.176 9.98644 102.901 9.82461C102.627 9.66278 102.251 9.57955 101.784 9.57955H101.23V9.11719H108.724C110.724 9.11719 112.331 9.38998 113.553 9.9402C115.041 10.6153 116.171 11.6325 116.94 12.9964C117.709 14.3604 118.094 15.9001 118.094 17.6247C118.094 18.813 117.906 19.9088 117.526 20.9121C117.146 21.9155 116.656 22.7431 116.057 23.395C115.457 24.047 114.761 24.5694 113.979 24.9671C113.191 25.3601 112.23 25.6653 111.095 25.8826C110.591 25.9843 109.804 26.0305 108.724 26.0305H101.23L101.235 26.0351ZM107.616 10.0882V23.2794C107.616 23.9776 107.648 24.4076 107.717 24.5648C107.781 24.722 107.895 24.8422 108.051 24.9255C108.275 25.0503 108.596 25.1104 109.012 25.1104C110.385 25.1104 111.434 24.6388 112.161 23.691C113.15 22.4102 113.645 20.422 113.645 17.7311C113.645 15.5626 113.306 13.8287 112.633 12.5294C112.097 11.5169 111.411 10.8233 110.573 10.458C109.983 10.1991 108.998 10.0743 107.621 10.0835L107.616 10.0882Z" fill="#1A171B"/>
<path d="M117.773 26.0351V25.5728H118.327C118.812 25.5728 119.183 25.4942 119.444 25.3416C119.705 25.189 119.892 24.9763 120.016 24.7128C120.089 24.5371 120.126 24.0146 120.126 23.1407V12.0162C120.126 11.1516 120.08 10.6106 119.989 10.3933C119.897 10.176 119.714 9.98644 119.439 9.82461C119.165 9.66278 118.789 9.57955 118.322 9.57955H117.769V9.11719H125.262C127.262 9.11719 128.869 9.38998 130.091 9.9402C131.579 10.6153 132.709 11.6325 133.478 12.9964C134.247 14.3604 134.632 15.9001 134.632 17.6247C134.632 18.813 134.444 19.9088 134.064 20.9121C133.684 21.9155 133.195 22.7431 132.595 23.395C131.995 24.047 131.3 24.5694 130.517 24.9671C129.729 25.3601 128.768 25.6653 127.633 25.8826C127.129 25.9843 126.342 26.0305 125.262 26.0305H117.769L117.773 26.0351ZM124.159 10.0882V23.2794C124.159 23.9776 124.191 24.4076 124.259 24.5648C124.323 24.722 124.438 24.8422 124.594 24.9255C124.818 25.0503 125.138 25.1104 125.555 25.1104C126.928 25.1104 127.976 24.6388 128.704 23.691C129.693 22.4102 130.187 20.422 130.187 17.7311C130.187 15.5626 129.848 13.8287 129.176 12.5294C128.64 11.5169 127.953 10.8233 127.116 10.458C126.525 10.1991 125.541 10.0743 124.163 10.0835L124.159 10.0882Z" fill="#1A171B"/>
<path d="M149.944 20.0991L149.312 26.0359H134.449V25.5735H135.003C135.488 25.5735 135.882 25.4856 136.175 25.3099C136.39 25.1944 136.555 24.9955 136.669 24.7089C136.761 24.5101 136.807 23.9876 136.807 23.1368V12.0123C136.807 11.1477 136.761 10.6067 136.669 10.3894C136.578 10.1721 136.395 9.98253 136.12 9.8207C135.845 9.65887 135.47 9.57565 135.003 9.57565H134.449V9.11328H143.375V9.57565H142.647C142.162 9.57565 141.773 9.6635 141.476 9.8392C141.26 9.95479 141.091 10.1536 140.968 10.4356C140.876 10.6345 140.83 11.1569 140.83 12.0077V22.7808C140.83 23.6454 140.881 24.1956 140.977 24.4315C141.077 24.6673 141.27 24.843 141.558 24.9632C141.764 25.0372 142.263 25.0741 143.05 25.0741H144.446C145.334 25.0741 146.076 24.9169 146.666 24.6025C147.257 24.2881 147.77 23.7888 148.204 23.1045C148.635 22.4248 149.047 21.4168 149.431 20.0852H149.939L149.944 20.0991Z" fill="#1A171B"/>
<path d="M156.014 10.102V16.9867H156.348C157.41 16.9867 158.179 16.6491 158.655 15.9787C159.131 15.3036 159.438 14.3142 159.57 12.9964H160.037V21.8507H159.57C159.47 20.8844 159.264 20.0984 158.948 19.4834C158.632 18.8685 158.261 18.4523 157.845 18.2443C157.424 18.0316 156.815 17.9253 156.018 17.9253V22.6876C156.018 23.617 156.06 24.1903 156.137 24.3937C156.215 24.5972 156.362 24.7729 156.577 24.907C156.792 25.0411 157.135 25.1058 157.616 25.1058H158.614C160.179 25.1058 161.429 24.7405 162.372 24.01C163.315 23.2794 163.992 22.1651 164.404 20.6671H164.862L164.107 26.0398H149.637V25.5774H150.191C150.676 25.5774 151.07 25.4896 151.363 25.3139C151.578 25.1983 151.743 24.9994 151.857 24.7128C151.949 24.514 151.995 23.9915 151.995 23.1407V12.0162C151.995 11.2533 151.972 10.7817 151.931 10.606C151.848 10.3147 151.697 10.0928 151.473 9.93095C151.162 9.69977 150.731 9.57955 150.187 9.57955H149.633V9.11719H163.644V14.1154H163.178C162.939 12.8947 162.605 12.0162 162.17 11.4845C161.74 10.9528 161.127 10.5598 160.335 10.3101C159.873 10.1621 159.007 10.0835 157.744 10.0835H156.014V10.102Z" fill="#1A171B"/>
<path d="M178.443 5.06766V14.1254H178.883C180.279 14.1254 181.29 13.6815 181.922 12.7984C182.549 11.9107 182.952 10.6068 183.126 8.87756H183.744V20.5292H183.126C182.998 19.2623 182.723 18.222 182.307 17.4128C181.89 16.6037 181.405 16.0581 180.851 15.7807C180.297 15.5033 179.496 15.3599 178.448 15.3599V21.6296C178.448 22.8549 178.498 23.6039 178.603 23.8767C178.704 24.1495 178.896 24.376 179.18 24.5517C179.459 24.7274 179.917 24.8153 180.544 24.8153H181.858C183.913 24.8153 185.566 24.3344 186.806 23.3727C188.047 22.411 188.935 20.9453 189.479 18.9756H190.079L189.09 26.0452H170.053V25.4395H170.785C171.426 25.4395 171.939 25.3239 172.328 25.0927C172.612 24.9401 172.827 24.6766 172.978 24.3067C173.097 24.0431 173.156 23.3542 173.156 22.2399V7.60605C173.156 6.59809 173.129 5.98315 173.074 5.75196C172.964 5.3682 172.767 5.07229 172.474 4.86422C172.062 4.55906 171.499 4.40648 170.785 4.40648H170.053V3.80078H188.491V10.3802H187.873C187.557 8.77121 187.117 7.61992 186.55 6.91712C185.982 6.21895 185.177 5.7011 184.138 5.37282C183.529 5.17401 182.394 5.07691 180.727 5.07691H178.452L178.443 5.06766Z" fill="#1A171B"/>
<path d="M199.824 21.2196H193.91L193.205 22.8656C192.977 23.4158 192.862 23.869 192.862 24.225C192.862 24.6966 193.05 25.048 193.43 25.2745C193.654 25.4086 194.199 25.5057 195.073 25.5751V26.0375H189.507V25.5751C190.106 25.4826 190.601 25.2329 190.99 24.8214C191.374 24.4099 191.855 23.5592 192.423 22.2692L198.41 8.77734H198.643L204.681 22.6437C205.258 23.9568 205.729 24.7844 206.1 25.1266C206.379 25.3855 206.773 25.5335 207.286 25.5751V26.0375H199.188V25.5751H199.522C200.172 25.5751 200.63 25.4826 200.891 25.3023C201.074 25.1682 201.161 24.9786 201.161 24.729C201.161 24.581 201.138 24.4238 201.088 24.2666C201.069 24.1926 200.946 23.8782 200.717 23.3326L199.829 21.2242L199.824 21.2196ZM199.403 20.2995L196.909 14.4783L194.341 20.2995H199.403Z" fill="#1A171B"/>
<path d="M217.722 8.73828L217.86 14.3745H217.352C217.113 12.9597 216.528 11.8223 215.594 10.9623C214.66 10.1023 213.648 9.67226 212.564 9.67226C211.726 9.67226 211.058 9.89882 210.568 10.3519C210.078 10.8051 209.835 11.3275 209.835 11.9147C209.835 12.2892 209.922 12.6222 210.096 12.9134C210.334 13.3065 210.719 13.6902 211.245 14.074C211.63 14.3468 212.527 14.8369 213.923 15.5351C215.882 16.506 217.205 17.4261 217.887 18.2908C218.56 19.1554 218.899 20.1448 218.899 21.2591C218.899 22.674 218.354 23.89 217.265 24.9072C216.175 25.9244 214.788 26.433 213.113 26.433C212.586 26.433 212.087 26.3775 211.621 26.2712C211.154 26.1648 210.563 25.9614 209.854 25.6609C209.46 25.4944 209.135 25.4112 208.879 25.4112C208.664 25.4112 208.439 25.4944 208.201 25.6609C207.963 25.8273 207.771 26.0816 207.62 26.4238H207.162V20.0385H207.62C207.981 21.8325 208.677 23.2057 209.712 24.1489C210.746 25.0922 211.859 25.5638 213.053 25.5638C213.973 25.5638 214.71 25.3095 215.255 24.8009C215.8 24.2923 216.074 23.7051 216.074 23.03C216.074 22.6324 215.969 22.244 215.759 21.8695C215.548 21.4949 215.232 21.1389 214.802 20.8014C214.372 20.4639 213.616 20.0246 212.531 19.4837C211.007 18.7254 209.913 18.0827 209.249 17.551C208.581 17.0192 208.068 16.4228 207.711 15.7662C207.354 15.1097 207.176 14.3884 207.176 13.5977C207.176 12.2523 207.666 11.1056 208.645 10.1577C209.625 9.20989 210.861 8.73828 212.348 8.73828C212.893 8.73828 213.419 8.80301 213.928 8.9371C214.312 9.03882 214.784 9.22377 215.342 9.49194C215.896 9.76011 216.285 9.89882 216.509 9.89882C216.734 9.89882 216.894 9.83409 217.017 9.7C217.141 9.56592 217.255 9.24688 217.361 8.73828H217.731H217.722Z" fill="#1A171B"/>
<path d="M234.137 9.12572V13.7031H233.693C233.428 12.6489 233.139 11.8907 232.814 11.4283C232.494 10.9659 232.054 10.6007 231.491 10.3232C231.18 10.1753 230.631 10.0967 229.848 10.0967H228.603V23.14C228.603 24.0046 228.649 24.5456 228.745 24.7629C228.841 24.9802 229.024 25.1698 229.299 25.3316C229.573 25.4935 229.949 25.5767 230.429 25.5767H230.983V26.0391H222.218V25.5767H222.771C223.257 25.5767 223.65 25.4888 223.943 25.3131C224.158 25.1975 224.328 24.9987 224.451 24.7121C224.543 24.5132 224.589 23.9908 224.589 23.14V10.0967H223.38C222.254 10.0967 221.435 10.3371 220.922 10.818C220.208 11.493 219.755 12.4501 219.563 13.6985H219.096V9.12109H234.133L234.137 9.12572Z" fill="#1A171B"/>
<path d="M252.273 14.2385C254.365 14.7286 255.829 15.3251 256.676 16.0279C257.889 17.022 258.494 18.312 258.494 19.8979C258.494 21.5716 257.825 22.9541 256.493 24.0499C254.859 25.3723 252.479 26.0335 249.362 26.0335H238.17V25.4278C239.186 25.4278 239.877 25.3307 240.239 25.1411C240.6 24.9515 240.857 24.7019 241.003 24.3967C241.15 24.0915 241.223 23.3379 241.223 22.1311V7.69143C241.223 6.48928 241.15 5.731 241.003 5.41659C240.857 5.1068 240.6 4.85713 240.229 4.67218C239.863 4.48723 239.172 4.39476 238.165 4.39476V3.78906H248.725C251.247 3.78906 253.037 4.01562 254.085 4.46874C255.134 4.92186 255.962 5.60154 256.571 6.50315C257.18 7.40476 257.482 8.36648 257.482 9.38369C257.482 10.4564 257.097 11.4088 256.328 12.2457C255.559 13.0826 254.204 13.7484 252.268 14.2385H252.273ZM246.359 15.0754V22.2143L246.345 23.0327C246.345 23.6245 246.491 24.0684 246.794 24.369C247.091 24.6695 247.531 24.8221 248.116 24.8221C248.982 24.8221 249.783 24.6279 250.51 24.2395C251.243 23.8511 251.801 23.287 252.19 22.5519C252.579 21.8121 252.776 20.9891 252.776 20.0828C252.776 19.0425 252.538 18.1131 252.062 17.2855C251.586 16.4579 250.932 15.8845 250.098 15.5563C249.265 15.228 248.02 15.0708 246.363 15.08L246.359 15.0754ZM246.359 13.7947C247.897 13.7947 249.032 13.619 249.76 13.2676C250.492 12.9162 251.051 12.4261 251.44 11.7926C251.829 11.1592 252.026 10.35 252.026 9.36519C252.026 8.38035 251.833 7.57584 251.449 6.94702C251.064 6.3182 250.515 5.83734 249.801 5.51369C249.087 5.18541 247.938 5.0282 246.359 5.03745V13.7993V13.7947Z" fill="#1A171B"/>
<path d="M264.119 18.3261V23.0653C264.119 23.9808 264.174 24.5541 264.284 24.7946C264.394 25.0304 264.59 25.2199 264.87 25.3633C265.149 25.5066 265.671 25.576 266.435 25.576V26.0383H257.866V25.576C258.64 25.576 259.166 25.502 259.441 25.3587C259.716 25.2153 259.908 25.0258 260.022 24.7899C260.132 24.5588 260.187 23.9854 260.187 23.0699V12.098C260.187 11.1825 260.132 10.6092 260.022 10.3688C259.912 10.133 259.715 9.94339 259.436 9.80005C259.157 9.65672 258.635 9.58737 257.866 9.58737V9.125H265.643C267.667 9.125 269.15 9.26833 270.088 9.55038C271.026 9.83242 271.791 10.3549 272.386 11.1132C272.976 11.8761 273.274 12.7638 273.274 13.7856C273.274 15.034 272.83 16.0651 271.942 16.8789C271.374 17.3967 270.578 17.7805 269.557 18.0394L273.581 23.7635C274.107 24.5033 274.482 24.9656 274.702 25.146C275.041 25.4049 275.43 25.5436 275.874 25.5713V26.0337H270.601L265.204 18.3261H264.105H264.119ZM264.119 10.0359V17.443H264.824C265.968 17.443 266.824 17.3366 267.392 17.1239C267.96 16.9112 268.408 16.5275 268.733 15.9773C269.058 15.4224 269.223 14.7058 269.223 13.8134C269.223 12.5234 268.925 11.5755 268.326 10.956C267.731 10.341 266.769 10.0312 265.442 10.0312H264.119V10.0359Z" fill="#1A171B"/>
<path d="M283.203 25.5774V26.0398H274.451V25.5774H275.005C275.49 25.5774 275.879 25.4896 276.177 25.3139C276.392 25.1983 276.557 24.9994 276.671 24.7128C276.763 24.514 276.809 23.9915 276.809 23.1407V12.0162C276.809 11.1516 276.763 10.6106 276.671 10.3933C276.58 10.176 276.397 9.98644 276.122 9.82461C275.847 9.66278 275.472 9.57955 275.005 9.57955H274.451V9.11719H283.203V9.57955H282.649C282.164 9.57955 281.775 9.6674 281.478 9.8431C281.262 9.95869 281.093 10.1575 280.969 10.4396C280.878 10.6384 280.832 11.1608 280.832 12.0116V23.1361C280.832 24.0007 280.878 24.5417 280.974 24.759C281.07 24.9763 281.253 25.1659 281.528 25.3277C281.803 25.4896 282.178 25.5728 282.645 25.5728H283.199L283.203 25.5774Z" fill="#1A171B"/>
<path d="M288.952 10.102V16.9867H289.286C290.348 16.9867 291.117 16.6491 291.593 15.9787C292.07 15.3036 292.376 14.3142 292.509 12.9964H292.976V21.8507H292.509C292.408 20.8844 292.202 20.0984 291.886 19.4834C291.571 18.8685 291.2 18.4523 290.783 18.2443C290.367 18.0362 289.753 17.9253 288.957 17.9253V22.6876C288.957 23.617 288.993 24.1903 289.076 24.3937C289.154 24.6018 289.3 24.7729 289.515 24.907C289.73 25.0411 290.074 25.1058 290.554 25.1058H291.552C293.118 25.1058 294.367 24.7405 295.31 24.01C296.253 23.2794 296.931 22.1651 297.343 20.6671H297.8L297.045 26.0398H282.576V25.5774H283.13C283.615 25.5774 284.004 25.4896 284.302 25.3139C284.517 25.1983 284.681 24.9994 284.796 24.7128C284.887 24.514 284.933 23.9915 284.933 23.1407V12.0162C284.933 11.2533 284.91 10.7817 284.869 10.606C284.787 10.3147 284.636 10.0928 284.411 9.93095C284.1 9.69977 283.67 9.57955 283.125 9.57955H282.571V9.11719H296.583V14.1154H296.116C295.878 12.8947 295.544 12.0162 295.109 11.4845C294.679 10.9528 294.065 10.5598 293.278 10.3101C292.816 10.1621 291.955 10.0835 290.687 10.0835H288.957L288.952 10.102Z" fill="#1A171B"/>
<path d="M304.158 10.1013V17.046H304.639C305.38 17.046 305.984 16.9351 306.451 16.7085C306.918 16.482 307.316 16.1074 307.641 15.5757C307.966 15.044 308.177 14.3227 308.278 13.4165H308.708V21.9101H308.278C308.122 20.3057 307.696 19.2469 307.001 18.7383C306.305 18.2251 305.518 17.9708 304.639 17.9708H304.158V23.1446C304.158 24.0093 304.204 24.5502 304.3 24.7675C304.396 24.9849 304.579 25.1744 304.854 25.3363C305.128 25.4981 305.504 25.5813 305.971 25.5813H306.525V26.0437H297.772V25.5813H298.326C298.812 25.5813 299.201 25.4935 299.498 25.3178C299.713 25.2022 299.878 25.0034 299.993 24.7167C300.084 24.5179 300.13 23.9954 300.13 23.1446V12.0201C300.13 11.1555 300.084 10.6145 299.993 10.3972C299.901 10.1799 299.718 9.99034 299.443 9.82851C299.169 9.66669 298.793 9.58346 298.326 9.58346H297.772V9.12109H311.894V13.9713H311.386C311.271 12.8339 310.974 11.9878 310.502 11.4375C310.031 10.8873 309.344 10.5036 308.447 10.277C307.953 10.1522 307.042 10.0921 305.705 10.0921H304.149L304.158 10.1013Z" fill="#1A171B"/>
<path d="M320.189 25.5774V26.0398H311.437V25.5774H311.99C312.476 25.5774 312.865 25.4896 313.162 25.3139C313.377 25.1983 313.542 24.9994 313.657 24.7128C313.748 24.514 313.794 23.9915 313.794 23.1407V12.0162C313.794 11.1516 313.748 10.6106 313.657 10.3933C313.565 10.176 313.382 9.98644 313.107 9.82461C312.833 9.66278 312.457 9.57955 311.99 9.57955H311.437V9.11719H320.189V9.57955H319.635C319.15 9.57955 318.76 9.6674 318.463 9.8431C318.248 9.95869 318.078 10.1575 317.955 10.4396C317.863 10.6384 317.817 11.1608 317.817 12.0116V23.1361C317.817 24.0007 317.863 24.5417 317.959 24.759C318.056 24.9763 318.239 25.1659 318.513 25.3277C318.788 25.4896 319.163 25.5728 319.63 25.5728H320.184L320.189 25.5774Z" fill="#1A171B"/>
<path d="M325.348 9.125L333.605 19.6115V12.3431C333.605 11.3305 333.464 10.6416 333.175 10.2855C332.782 9.80468 332.118 9.56887 331.189 9.58737V9.125H336.718V9.58737C336.009 9.67984 335.533 9.79543 335.29 9.94339C335.047 10.0867 334.86 10.3272 334.722 10.6554C334.585 10.9837 334.521 11.5478 334.521 12.3431V26.4221H334.1L322.78 12.3431V23.0931C322.78 24.064 323 24.7206 323.439 25.0627C323.878 25.4049 324.382 25.576 324.95 25.576H325.343V26.0383H319.406V25.576C320.326 25.5667 320.972 25.3772 321.333 25.0026C321.695 24.6281 321.878 23.9947 321.878 23.0931V11.1594L321.521 10.7109C321.169 10.2624 320.853 9.96651 320.583 9.8278C320.313 9.68446 319.919 9.60586 319.411 9.59199V9.12962H325.348V9.125Z" fill="#1A171B"/>
<path d="M353.037 8.739V14.6989H352.579C352.03 13.0714 351.201 11.8322 350.098 10.9815C348.995 10.1353 347.791 9.70997 346.482 9.70997C345.173 9.70997 344.189 10.066 343.36 10.778C342.532 11.4901 341.941 12.4795 341.593 13.751C341.25 15.0225 341.076 16.3264 341.076 17.6673C341.076 19.2902 341.264 20.7096 341.644 21.9303C342.023 23.1509 342.632 24.0479 343.479 24.6259C344.321 25.1992 345.324 25.4859 346.486 25.4859C346.889 25.4859 347.301 25.4443 347.727 25.3564C348.153 25.2686 348.583 25.1437 349.027 24.9773V21.4587C349.027 20.7929 348.981 20.3629 348.89 20.1687C348.798 19.9745 348.61 19.7988 348.327 19.637C348.043 19.4751 347.7 19.4011 347.297 19.4011H346.866V18.9388H355.001V19.4011C354.383 19.4428 353.952 19.526 353.71 19.6554C353.467 19.7849 353.279 19.9976 353.147 20.2981C353.073 20.4553 353.037 20.8437 353.037 21.4587V24.9773C351.966 25.4581 350.853 25.8234 349.7 26.0685C348.542 26.3135 347.342 26.4384 346.102 26.4384C344.514 26.4384 343.195 26.221 342.147 25.7818C341.099 25.3472 340.17 24.7738 339.369 24.0618C338.567 23.3498 337.94 22.5499 337.487 21.6621C336.91 20.5154 336.622 19.2301 336.622 17.8106C336.622 15.2676 337.506 13.1176 339.277 11.3652C341.044 9.61287 343.273 8.73438 345.956 8.73438C346.789 8.73438 347.535 8.79911 348.203 8.93319C348.565 8.99792 349.151 9.18749 349.961 9.5019C350.771 9.81169 351.252 9.96889 351.398 9.96889C351.627 9.96889 351.842 9.88567 352.039 9.71459C352.236 9.54352 352.419 9.21986 352.584 8.74825H353.041L353.037 8.739Z" fill="#1A171B"/>
</g>
<defs>
<clipPath id="clip0_3654_3416">
<rect width="355" height="43" fill="white"/>
</clipPath>
</defs>
</svg>
