<svg width="30" height="23" viewBox="0 0 30 23" fill="none" xmlns="http://www.w3.org/2000/svg">
<g clip-path="url(#clip0_3600_903)">
<path d="M14.5894 1.14062C13.4994 3.56063 12.9094 6.18062 12.8594 8.83063C12.8794 10.7906 13.2194 12.7406 13.8594 14.6006C14.0494 15.2006 14.2694 15.7906 14.5294 16.3706C14.5594 16.4206 14.5794 16.4706 14.5894 16.5306C15.6894 14.1106 16.2794 11.4906 16.3294 8.83063C16.2994 6.87063 15.9594 4.92062 15.3294 3.06062C15.0794 2.29062 14.8194 1.68062 14.6594 1.30062C14.6294 1.14062 14.5894 1.14062 14.5894 1.14062Z" fill="#8062A1"/>
<path d="M15.1422 15.4506C15.1422 16.1906 14.8822 16.7606 14.5622 16.7606C14.2422 16.7606 13.9922 16.1906 13.9922 15.4506C13.9922 14.7106 14.2722 14.1406 14.5622 14.1406C14.8522 14.1406 15.1422 14.7106 15.1422 15.4506Z" fill="#38A963"/>
<path d="M10.0391 4.5175L12.6991 6.8275L13.6591 2.2675L14.5891 0.1875L12.8591 0.9575L10.0391 4.5175Z" fill="#38A963"/>
<path d="M9.8525 4.64844L9.5625 8.96844L7.0625 8.00844L9.8525 4.64844Z" fill="#38A963"/>
<path d="M3.50125 12.1778L7.06125 8.00781L7.35125 10.3178L7.77125 12.1778L3.95125 12.5978L3.28125 12.4678L3.50125 12.1778Z" fill="#38A963"/>
<path d="M3.66 12.3438L4.46 14.2037L5.59 15.4837L0.97 16.8638L0.33 17.1238L0 16.4137L3.66 12.3438Z" fill="#38A963"/>
<path d="M19.05 4.5175L16.39 6.8275L15.43 2.2675L14.5 0.1875L16.23 0.9575L19.05 4.5175Z" fill="#38A963"/>
<path d="M19.2422 4.64844L19.5322 8.96844L22.0322 8.00844L19.2422 4.64844Z" fill="#38A963"/>
<path d="M25.5881 12.1778L22.0281 8.00781L21.7481 10.3178L21.3281 12.1778L25.1381 12.5978L25.8181 12.4678L25.5881 12.1778Z" fill="#38A963"/>
<path d="M25.4278 12.3438L24.6278 14.2037L23.5078 15.4837L28.1178 16.8638L28.7678 17.1238L29.0878 16.4137L25.4278 12.3438Z" fill="#38A963"/>
<path d="M0.96875 17.28C1.04875 17.35 1.13875 17.42 1.22875 17.47C1.65875 17.8 2.11875 18.09 2.59875 18.34C3.96875 19.11 5.50875 19.54 7.08875 19.59C9.33875 19.48 11.4888 18.69 13.2688 17.31C13.1888 17.24 13.0988 17.18 13.0087 17.12C12.5688 16.8 12.1087 16.5 11.6287 16.25C10.2587 15.47 8.71875 15.04 7.13875 15C4.89875 15.1 2.73875 15.89 0.96875 17.28Z" fill="#8062A1"/>
<path d="M7.35156 8.32812V8.55813C7.35156 9.00813 7.40156 9.45812 7.51156 9.89812C7.71156 11.2181 8.23156 12.4581 9.02156 13.5281C10.2416 14.9381 11.8616 15.9281 13.6716 16.3781V16.1381C13.6716 15.6881 13.6116 15.2281 13.5016 14.7881C13.3016 13.4781 12.7916 12.2381 12.0016 11.1681C10.7816 9.76813 9.16156 8.76812 7.35156 8.32812Z" fill="#8062A1"/>
<path d="M21.8122 8.32812C20.0022 8.76812 18.3722 9.76812 17.1622 11.1881C16.3722 12.2481 15.8522 13.4981 15.6522 14.8081C15.5622 15.3881 15.5222 15.8681 15.4922 16.1581V16.3781C17.3022 15.9381 18.9322 14.9381 20.1422 13.5281C20.9322 12.4581 21.4522 11.2081 21.6522 9.89812C21.7422 9.32812 21.7822 8.89813 21.8122 8.55813V8.32812Z" fill="#8062A1"/>
<path d="M15.9375 17.2788C17.6975 18.6388 19.8375 19.4387 22.0675 19.5487C23.6575 19.5087 25.2075 19.0787 26.5875 18.2987C27.0675 18.0487 27.5275 17.7688 27.9575 17.4388C28.0575 17.3688 28.1175 17.3087 28.2175 17.2487C26.4575 15.8787 24.3275 15.0787 22.0975 14.9688C20.5075 15.0087 18.9575 15.4387 17.5775 16.2187C17.0975 16.4787 16.6375 16.7687 16.1975 17.0887C16.1175 17.1687 16.0375 17.2288 15.9375 17.2788Z" fill="#8062A1"/>
<path d="M28.4764 15.26L22.2664 7.85C22.2664 7.85 22.2364 7.79 22.2064 7.79L17.8764 2.59L17.6164 2.27C16.8764 1.38 15.7864 0 14.5364 0C13.2864 0 12.1664 1.38 11.4564 2.27C11.3664 2.4 11.2664 2.5 11.2064 2.59L0.646412 15.26C0.326412 15.61 -0.353588 16.48 0.226412 17.34C0.226412 17.34 0.256412 17.41 0.296412 17.41C2.19641 19.04 4.58641 20 7.08641 20.14C9.55641 20.02 11.9264 19.09 13.8264 17.51C13.8264 17.51 13.8764 17.45 13.8864 17.41C13.9864 17.41 14.0464 17.41 14.0764 17.35C14.1364 17.35 14.1964 17.28 14.1964 17.22C14.2364 17.19 14.2364 17.13 14.1964 17.09C14.2264 17.15 14.2564 17.2 14.2964 17.25C14.3364 17.32 14.4064 17.37 14.4864 17.38C14.5764 17.38 14.6564 17.33 14.6864 17.25C14.6864 17.25 14.6864 17.21 14.6864 17.19C14.7164 17.25 14.7564 17.29 14.8164 17.32L15.0464 17.38C15.0464 17.38 15.0764 17.45 15.1064 17.48C17.0764 19.1 19.5164 20.04 22.0664 20.14C24.5364 20.03 26.9064 19.1 28.7964 17.51C29.5364 16.57 28.9264 15.8 28.4764 15.26ZM28.6064 16.96C27.3064 15.92 25.8064 15.17 24.2064 14.75C24.7564 14.12 25.2164 13.43 25.5864 12.69V12.59L28.0864 15.59C28.5664 16.14 28.8264 16.51 28.6064 16.96ZM14.8464 9.52C14.7864 9.74 14.7164 9.94 14.6564 10.16C14.5864 9.9 14.5264 9.65 14.4264 9.36C14.0964 8.41 13.5964 7.53 12.9564 6.76C13.2164 4.79 13.7564 2.87 14.5564 1.05C14.5564 1.12 14.6264 1.15 14.6264 1.22C14.7864 1.6 15.0364 2.22 15.2964 2.98C15.7264 4.31 16.0264 5.67 16.1964 7.05C15.6264 7.8 15.1664 8.63 14.8464 9.52ZM5.03641 14.07C4.75641 13.71 4.50641 13.34 4.26641 12.95L4.16641 12.76C4.76641 12.61 5.37641 12.52 5.99641 12.5C6.59641 12.47 7.19641 12.5 7.79641 12.56C8.01641 13.03 8.28641 13.47 8.59641 13.88C8.87641 14.23 9.17641 14.57 9.49641 14.88C8.70641 14.65 7.88641 14.53 7.05641 14.53C6.52641 14.53 6.00641 14.58 5.48641 14.69C5.32641 14.42 5.16641 14.26 5.03641 14.07ZM9.20641 9.07C9.24641 9.77 9.36641 10.47 9.58641 11.14C9.80641 11.8 10.1264 12.42 10.5164 13C10.3064 12.87 10.0764 12.77 9.84641 12.68C9.29641 12.45 8.72641 12.28 8.14641 12.17C7.84641 11.47 7.63641 10.74 7.50641 9.99C7.40641 9.41 7.37641 8.93 7.34641 8.64V8.41C7.98641 8.55 8.61641 8.76 9.20641 9.04V9.07ZM9.65641 13.07C10.8764 13.64 11.9364 14.49 12.7364 15.57L13.2464 16.27C11.6064 15.78 10.1364 14.84 9.01641 13.55C8.79641 13.28 8.60641 12.99 8.43641 12.68C8.85641 12.78 9.25641 12.92 9.65641 13.08V13.07ZM13.4964 15.22C11.9564 14.14 10.7664 12.63 10.0664 10.89C9.88641 10.38 9.78641 9.86 9.74641 9.32C10.6164 9.8 11.3764 10.44 11.9964 11.21C12.2764 11.54 12.4964 11.9 12.6664 12.3C12.8964 13.29 13.1664 14.27 13.4964 15.23V15.22ZM12.4064 10.86C11.6664 9.96 10.7464 9.22 9.71641 8.68C9.71641 8.01 9.74641 7.34 9.84641 6.68C9.91641 6.2 10.0264 5.73 10.1664 5.27C10.1964 5.2 10.2164 5.12 10.2264 5.04C11.0264 5.58 11.7564 6.23 12.3764 6.97C12.3764 7.54 12.3164 8.12 12.3164 8.76C12.3164 9.4 12.3764 10.24 12.4464 10.94C12.4464 10.91 12.4264 10.89 12.4064 10.87V10.86ZM9.17641 8.42C8.61641 8.17 8.03641 7.97 7.44641 7.81L9.65641 5.18C9.34641 6.24 9.18641 7.33 9.17641 8.43V8.42ZM7.53641 11.98C7.01641 11.92 6.48641 11.92 5.96641 11.98C5.19641 12.03 4.42641 12.15 3.68641 12.36L6.83641 8.61C6.88641 9.77 7.11641 10.91 7.53641 11.99V11.98ZM7.05641 14.98C8.63641 15.01 10.1764 15.44 11.5464 16.23C11.9964 16.49 12.4064 16.74 12.8264 17.03C12.4664 17.1 12.1064 17.14 11.7364 17.16C10.4964 17.25 9.24641 17.05 8.08641 16.58C7.27641 16.24 6.53641 15.75 5.90641 15.14C6.28641 15.06 6.66641 15.01 7.05641 15V14.98ZM14.0564 14.53C13.9064 13.67 13.6264 12.83 13.2164 12.06C13.0064 10.97 12.8964 9.87 12.8964 8.76V7.54C13.3364 8.15 13.6764 8.82 13.8964 9.54C14.3064 10.9 14.3864 12.34 14.1264 13.74C14.1064 14.01 14.0664 14.28 14.0164 14.55L14.0564 14.53ZM15.3964 9.69C15.6164 9.06 15.9064 8.45 16.2664 7.88C16.2864 8.17 16.2864 8.46 16.2664 8.75C16.2664 9.84 16.1564 10.92 15.9464 11.99C15.5364 12.76 15.2464 13.6 15.1064 14.46C15.1064 14.26 15.0164 14.04 14.9764 13.78C14.7664 12.41 14.8964 11.02 15.3564 9.71L15.3964 9.69ZM15.6864 15.17C16.0464 14.19 16.3264 13.19 16.5264 12.17C16.7064 11.82 16.9264 11.48 17.1664 11.17C17.7364 10.43 18.4564 9.82 19.2664 9.36C19.2064 9.89 19.0864 10.42 18.9164 10.93C18.2464 12.63 17.1164 14.1 15.6464 15.19L15.6864 15.17ZM15.8864 16.26C16.0464 16.02 16.2164 15.78 16.3964 15.56C17.2064 14.49 18.2664 13.63 19.4764 13.06C19.8764 12.89 20.2964 12.76 20.7264 12.67C20.5564 12.97 20.3564 13.26 20.1464 13.54C19.0164 14.86 17.5164 15.81 15.8464 16.28L15.8864 16.26ZM19.2664 12.6C19.0164 12.73 18.7564 12.85 18.5364 12.98C18.9464 12.39 19.2764 11.76 19.5364 11.09C19.7464 10.44 19.8864 9.77 19.9464 9.09C20.5664 8.79 21.2164 8.54 21.8764 8.35V8.58C21.8764 9.03 21.8264 9.48 21.7164 9.92C21.5964 10.67 21.3764 11.4 21.0764 12.1C20.4564 12.18 19.8464 12.34 19.2664 12.6ZM22.3464 8.6L25.4564 12.32C24.7164 12.11 23.9564 11.99 23.1864 11.94C22.6764 11.88 22.1564 11.88 21.6464 11.94C22.0364 10.87 22.2664 9.75 22.3164 8.62L22.3464 8.6ZM19.9464 8.44C19.9664 7.36 19.8264 6.27 19.5264 5.23L21.6764 7.83C21.0664 7.96 20.4764 8.17 19.9164 8.46L19.9464 8.44ZM19.2664 6.79C19.3464 7.43 19.3764 8.08 19.3564 8.72C18.3364 9.25 17.4264 9.98 16.6964 10.87C16.7864 10.16 16.8264 9.44 16.8264 8.72C16.8264 8.21 16.8264 7.72 16.7564 7.21C17.4064 6.45 18.1364 5.76 18.9364 5.16C18.9664 5.22 18.9864 5.29 19.0064 5.35C19.1264 5.82 19.2164 6.3 19.2664 6.79ZM17.5664 16.25C18.9464 15.47 20.4964 15.04 22.0864 15C22.4564 15 22.8164 15.03 23.1764 15.1C22.5364 15.72 21.7964 16.22 20.9964 16.6C19.8364 17.07 18.5864 17.27 17.3364 17.18C16.9764 17.16 16.6164 17.12 16.2664 17.05C16.6764 16.75 17.1164 16.48 17.5764 16.25H17.5664ZM22.0564 14.46C21.2264 14.46 20.4064 14.57 19.6164 14.81C19.9464 14.51 20.2464 14.17 20.5164 13.81C20.8264 13.39 21.0864 12.95 21.3164 12.49C21.8964 12.42 22.4864 12.4 23.0764 12.43C23.6964 12.46 24.3064 12.55 24.9064 12.69L24.8064 12.88C24.5764 13.27 24.3164 13.64 24.0364 14L23.5864 14.54C23.0864 14.48 22.5764 14.45 22.0664 14.46H22.0564ZM17.2664 2.56C17.3564 2.69 17.4564 2.79 17.5164 2.88L18.9364 4.55C18.0964 5.12 17.3264 5.79 16.6564 6.55C16.3664 4.47 15.7664 2.44 14.8564 0.55C15.8064 0.73 16.7064 1.86 17.2664 2.56ZM11.5264 2.91C11.6264 2.82 11.6864 2.69 11.7864 2.59C12.3564 1.89 13.2864 0.7 14.2164 0.51C13.3364 2.33 12.7364 4.28 12.4564 6.28C11.8064 5.58 11.0664 4.97 10.2664 4.45L11.5264 2.91ZM0.996412 15.58L3.49641 12.58C3.49641 12.58 3.48641 12.64 3.49641 12.67C3.88641 13.39 4.34641 14.06 4.87641 14.67C3.28641 15.1 1.80641 15.84 0.516412 16.85C0.356412 16.57 0.486412 16.19 0.996412 15.58ZM7.05641 19.58C5.48641 19.54 3.93641 19.11 2.56641 18.34C2.08641 18.09 1.62641 17.8 1.18641 17.47L0.936412 17.28C2.21641 16.29 3.69641 15.58 5.26641 15.19C5.99641 15.98 6.87641 16.61 7.85641 17.05C8.90641 17.49 10.0264 17.71 11.1664 17.69C11.3664 17.7 11.5764 17.7 11.7764 17.69L12.7764 17.6C11.1064 18.82 9.11641 19.51 7.05641 19.59V19.58ZM14.5864 16.43C14.5864 16.43 14.5264 16.33 14.5264 16.27C14.4164 16.07 14.3364 15.86 14.2664 15.64C14.4164 15.23 14.5364 14.81 14.6264 14.39C14.6864 14.83 14.7964 15.26 14.9464 15.67C14.7864 16 14.6564 16.25 14.5864 16.44V16.43ZM27.9264 17.43C27.4864 17.76 27.0264 18.05 26.5464 18.3C25.1664 19.08 23.6164 19.51 22.0264 19.55C19.9764 19.45 17.9964 18.76 16.3264 17.55L17.2564 17.64H17.8664C18.9864 17.69 20.1064 17.52 21.1664 17.14C22.1464 16.7 23.0264 16.07 23.7564 15.28C25.3464 15.67 26.8464 16.37 28.1564 17.36L27.9264 17.43Z" fill="white"/>
<path d="M4.14062 12.7563L4.24062 12.9463C4.48062 13.3363 4.73063 13.7063 5.01063 14.0663C5.82063 15.1363 6.88063 15.9963 8.09063 16.5663C9.25063 17.0263 10.5006 17.2263 11.7406 17.1463C12.3606 17.1163 12.9706 17.0263 13.5706 16.8863L13.4706 16.6963C13.3106 16.4363 13.0606 16.0263 12.7006 15.5463C11.9006 14.4763 10.8406 13.6163 9.63063 13.0463C8.47063 12.5763 7.22062 12.3763 5.97062 12.4663C5.35062 12.5063 4.74063 12.6063 4.14062 12.7563Z" fill="#A2057C"/>
<path d="M10.2734 5.03125C10.2334 5.10125 10.2034 5.17125 10.2034 5.25125C10.0734 5.72125 9.96336 6.19125 9.88336 6.67125C9.61336 8.07125 9.69336 9.51125 10.1134 10.8712C10.8534 12.7112 12.1334 14.2913 13.7934 15.3913C13.8334 15.3213 13.8634 15.2412 13.8634 15.1612C13.9934 14.7012 14.1034 14.2312 14.1834 13.7512C14.4534 12.3512 14.3734 10.9113 13.9534 9.55125C13.2134 7.70125 11.9334 6.13125 10.2734 5.03125Z" fill="#A2057C"/>
<path d="M18.959 5.21875C17.349 6.32875 16.089 7.88875 15.359 9.70875C14.919 11.0288 14.809 12.4388 15.039 13.8188C15.109 14.2788 15.199 14.7387 15.329 15.1887C15.349 15.2587 15.369 15.3188 15.399 15.3888C17.009 14.2688 18.249 12.7087 18.989 10.8987C19.409 9.56875 19.509 8.15875 19.269 6.78875C19.199 6.32875 19.109 5.86875 18.979 5.41875C18.969 5.34875 18.959 5.28875 18.959 5.21875Z" fill="#A2057C"/>
<path d="M15.4922 16.8911C17.3122 17.3411 19.2222 17.2211 20.9822 16.5711C22.2022 16.0011 23.2522 15.1511 24.0522 14.0711C24.3322 13.7111 24.5922 13.3411 24.8222 12.9511L24.9222 12.7611C23.1022 12.3111 21.1922 12.4311 19.4422 13.0811C18.2222 13.6511 17.1622 14.5011 16.3622 15.5811C16.0822 15.9411 15.8322 16.3111 15.5922 16.7011L15.4922 16.8911Z" fill="#A2057C"/>
<path d="M14.5931 22.1437C15.1331 21.5037 15.4431 20.7038 15.4931 19.8638V19.7738C15.4031 19.3538 15.3031 18.9738 15.2431 18.6838C15.0831 18.2938 14.8631 17.9238 14.5931 17.5938C14.3331 17.9238 14.1131 18.2938 13.9531 18.6838C13.8931 19.0538 13.8131 19.4138 13.7031 19.7738V19.8638C13.7531 20.7038 14.0631 21.4937 14.5931 22.1437Z" fill="#836CA8"/>
<path d="M14.5922 22.6297C14.4622 22.6297 14.3322 22.5697 14.2422 22.4697C13.6422 21.7497 13.2922 20.8497 13.2422 19.9097V19.7097C13.3322 19.3597 13.4022 19.0097 13.4622 18.7097C13.4522 18.6797 13.4522 18.6397 13.4622 18.6097C13.6622 18.1397 13.9322 17.7097 14.2722 17.3397C14.3622 17.2497 14.4922 17.1897 14.6222 17.1797C14.7622 17.1797 14.8822 17.2497 14.9822 17.3397C15.2922 17.6997 15.5422 18.1197 15.7122 18.5597V18.6597C15.7722 19.0097 15.8422 19.3597 15.9322 19.6597V19.8597C15.8722 20.8097 15.5222 21.7097 14.9322 22.4497C14.8422 22.5397 14.7222 22.6097 14.5922 22.6297ZM14.1522 19.8397C14.1722 20.3597 14.3122 20.8697 14.5622 21.3197C14.8222 20.8797 14.9622 20.3797 14.9822 19.8697C14.8822 19.5197 14.8222 19.1697 14.7622 18.8697C14.6922 18.7397 14.6322 18.5797 14.5622 18.4797L14.3722 18.8697C14.3322 19.1997 14.2522 19.5197 14.1522 19.8397Z" fill="white"/>
<path d="M14.5931 21.9278C15.1331 21.2878 15.4431 20.4878 15.4931 19.6478V19.5478C15.4031 19.1378 14.5931 16.7578 14.5931 16.7578C14.5931 16.7578 13.8331 19.1378 13.7031 19.5178V19.6178C13.7431 20.4578 14.0631 21.2678 14.5931 21.9278Z" fill="#38A963"/>
<path d="M12.033 19.9112C12.563 19.8012 13.043 19.5012 13.383 19.0712C13.703 18.6212 13.853 18.0813 13.833 17.5312C13.303 17.6512 12.823 17.9413 12.483 18.3713C12.163 18.8213 12.013 19.3612 12.033 19.9112Z" fill="#A2057C"/>
<path d="M17.2705 19.9112C16.7405 19.8012 16.2605 19.5012 15.9205 19.0712C15.6005 18.6212 15.4505 18.0813 15.4705 17.5312C16.0005 17.6512 16.4805 17.9413 16.8205 18.3713C17.1405 18.8213 17.2905 19.3612 17.2705 19.9112Z" fill="#A2057C"/>
</g>
<defs>
<clipPath id="clip0_3600_903">
<rect width="29.14" height="22.63" fill="white"/>
</clipPath>
</defs>
</svg>
