<svg width="337" height="54" viewBox="0 0 337 54" fill="none" xmlns="http://www.w3.org/2000/svg">
<g clip-path="url(#clip0_3654_2988)">
<path d="M72.873 39.1562H78.0433V40.1838H74.1257V43.3387H77.743V44.3529H74.1257V48.6504H72.873V39.1562Z" fill="#9C9B99"/>
<path d="M79.2687 43.9606C79.2687 43.1578 79.2552 42.4674 79.2119 41.8332H80.3076L80.3645 43.1846H80.4078C80.7216 42.2694 81.49 41.6914 82.3314 41.6914C82.4585 41.6914 82.5586 41.7048 82.6723 41.7208V42.8902C82.5451 42.8635 82.4153 42.8635 82.2448 42.8635C81.3628 42.8635 80.7351 43.511 80.5647 44.4422C80.5349 44.6108 80.5214 44.8222 80.5214 45.0202V48.6541H79.2687V43.9633V43.9606Z" fill="#9C9B99"/>
<path d="M89.8803 45.1862C89.8803 47.7069 88.1001 48.8067 86.447 48.8067C84.5964 48.8067 83.1436 47.4553 83.1436 45.2985C83.1436 43.0294 84.6668 41.6914 86.5606 41.6914C88.4545 41.6914 89.8803 43.115 89.8803 45.1862ZM84.426 45.2557C84.426 46.7489 85.2809 47.8755 86.5065 47.8755C87.7321 47.8755 88.6006 46.7623 88.6006 45.2263C88.6006 44.0703 88.0162 42.6199 86.5363 42.6199C85.0564 42.6199 84.4287 43.9713 84.4287 45.2531L84.426 45.2557Z" fill="#9C9B99"/>
<path d="M91.3166 43.6757C91.3166 42.9586 91.2868 42.3939 91.2598 41.8293H92.3555L92.4123 42.9425H92.4556C92.8398 42.2949 93.481 41.6875 94.6336 41.6875C95.5588 41.6875 96.2704 42.2521 96.5707 43.0549H96.5978C96.8115 42.6615 97.0956 42.3779 97.3824 42.1665C97.7963 41.8561 98.2373 41.6875 98.892 41.6875C99.8173 41.6875 101.17 42.2789 101.17 44.6471V48.6476H99.9445V44.8023C99.9445 43.4777 99.4467 42.7043 98.4483 42.7043C97.7233 42.7043 97.1822 43.2262 96.9522 43.8175C96.8954 43.9995 96.8521 44.2109 96.8521 44.4383V48.6502H95.6265V44.5641C95.6265 43.4804 95.1422 42.7043 94.1871 42.7043C93.4188 42.7043 92.8344 43.3252 92.6342 43.9433C92.5638 44.1119 92.5341 44.3367 92.5341 44.5481V48.6476H91.3085V43.6757H91.3166Z" fill="#9C9B99"/>
<path d="M105.972 39.2934C106.727 39.1677 107.626 39.082 108.608 39.082C110.388 39.082 111.654 39.5048 112.495 40.2648C113.364 41.0408 113.862 42.1379 113.862 43.6739C113.862 45.2099 113.364 46.4916 112.479 47.364C111.567 48.2524 110.088 48.7314 108.221 48.7314C107.322 48.7314 106.597 48.6886 105.97 48.619V39.2934H105.972ZM107.212 47.6905C107.525 47.7333 107.98 47.7467 108.464 47.7467C111.126 47.7467 112.552 46.2829 112.552 43.7167C112.566 41.477 111.283 40.0534 108.664 40.0534C108.023 40.0534 107.539 40.1096 107.212 40.1792V47.6878V47.6905Z" fill="#9C9B99"/>
<path d="M116.029 45.4659C116.056 47.141 117.124 47.8314 118.393 47.8314C119.291 47.8314 119.846 47.6762 120.301 47.4782L120.528 48.3666C120.087 48.5646 119.319 48.8028 118.22 48.8028C116.099 48.8028 114.83 47.4086 114.83 45.3508C114.83 43.2931 116.056 41.6875 118.063 41.6875C120.328 41.6875 120.912 43.6302 120.912 44.8852C120.912 45.1394 120.899 45.3214 120.869 45.4632H116.026L116.029 45.4659ZM119.703 44.5775C119.716 43.8015 119.375 42.5759 117.966 42.5759C116.683 42.5759 116.142 43.7158 116.042 44.5775H119.703Z" fill="#9C9B99"/>
<path d="M121.54 47.9292L124.646 43.9153C124.96 43.5354 125.244 43.2116 125.558 42.845V42.8155H121.827V41.8281H127.067V42.6041L123.991 46.5618C123.691 46.9418 123.42 47.295 123.109 47.6322V47.6616H127.127V48.6464H121.543V47.9292H121.54Z" fill="#9C9B99"/>
<path d="M133.119 47.0165C133.119 47.6079 133.149 48.1859 133.219 48.6515H132.094L131.994 47.7925H131.951C131.566 48.3277 130.825 48.8067 129.843 48.8067C128.447 48.8067 127.735 47.8353 127.735 46.8479C127.735 45.1995 129.215 44.2977 131.88 44.3111V44.1693C131.88 43.6207 131.723 42.5905 130.314 42.6066C129.659 42.6066 128.988 42.7885 128.504 43.115L128.22 42.2828C128.791 41.9296 129.629 41.6914 130.498 41.6914C132.605 41.6914 133.119 43.115 133.119 44.4663V47.0165ZM131.907 45.1701C130.541 45.1407 128.988 45.3815 128.988 46.7061C128.988 47.5222 129.529 47.8888 130.157 47.8888C131.069 47.8888 131.653 47.3242 131.85 46.7489C131.894 46.6071 131.907 46.4679 131.907 46.3555V45.1728V45.1701Z" fill="#9C9B99"/>
<path d="M134.997 43.6757C134.997 42.9586 134.984 42.3939 134.94 41.8293H136.052L136.123 42.9559H136.152C136.493 42.3217 137.292 41.6875 138.431 41.6875C139.386 41.6875 140.866 42.2521 140.866 44.5882V48.6449H139.613V44.714C139.613 43.6142 139.199 42.699 138.017 42.699C137.205 42.699 136.564 43.277 136.336 43.9674C136.28 44.1226 136.25 44.334 136.25 44.5454V48.6449H134.997V43.673V43.6757Z" fill="#9C9B99"/>
<path d="M145.524 47.1574C146.079 47.5106 146.877 47.7782 147.732 47.7782C149.001 47.7782 149.74 47.1173 149.74 46.1593C149.74 45.287 149.228 44.7652 147.93 44.2862C146.363 43.7215 145.395 42.9054 145.395 41.5808C145.395 40.101 146.634 39.0039 148.5 39.0039C149.469 39.0039 150.194 39.2287 150.608 39.4695L150.267 40.4703C149.967 40.2883 149.328 40.0208 148.457 40.0208C147.148 40.0208 146.647 40.7968 146.647 41.4443C146.647 42.3327 147.232 42.7689 148.555 43.2747C150.178 43.8955 150.99 44.6688 150.99 46.063C150.99 47.5294 149.907 48.8111 147.643 48.8111C146.718 48.8111 145.706 48.5302 145.194 48.1903L145.522 47.1628L145.524 47.1574Z" fill="#9C9B99"/>
<path d="M152.516 38.6472H153.768V42.9153H153.798C153.998 42.5621 154.309 42.2383 154.696 42.0269C155.067 41.8155 155.508 41.6897 155.979 41.6897C156.904 41.6897 158.387 42.2543 158.387 44.5904V48.6471H157.134V44.7322C157.134 43.6324 156.72 42.7173 155.538 42.7173C154.726 42.7173 154.098 43.2819 153.858 43.9428C153.787 44.1248 153.771 44.3094 153.771 44.5342V48.6471H152.518V38.6445L152.516 38.6472Z" fill="#9C9B99"/>
<path d="M161.674 39.9166C161.674 40.3394 161.374 40.6766 160.876 40.6766C160.421 40.6766 160.121 40.3394 160.121 39.9166C160.121 39.4938 160.435 39.1406 160.906 39.1406C161.376 39.1406 161.674 39.4778 161.674 39.9166ZM160.278 48.6508V41.8326H161.531V48.6508H160.278Z" fill="#9C9B99"/>
<path d="M163.468 43.9606C163.468 43.1578 163.454 42.4674 163.411 41.8332H164.507L164.564 43.1846H164.607C164.921 42.2694 165.689 41.6914 166.531 41.6914C166.658 41.6914 166.758 41.7048 166.872 41.7208V42.8902C166.744 42.8635 166.614 42.8635 166.444 42.8635C165.562 42.8635 164.934 43.511 164.764 44.4422C164.734 44.6108 164.721 44.8222 164.721 45.0202V48.6541H163.468V43.9633V43.9606Z" fill="#9C9B99"/>
<path d="M172.755 47.0165C172.755 47.6079 172.785 48.1859 172.855 48.6515H171.73L171.63 47.7925H171.586C171.202 48.3277 170.461 48.8067 169.479 48.8067C168.083 48.8067 167.371 47.8353 167.371 46.8479C167.371 45.1995 168.851 44.2977 171.516 44.3111V44.1693C171.516 43.6207 171.359 42.5905 169.949 42.6066C169.295 42.6066 168.624 42.7885 168.139 43.115L167.855 42.2828C168.426 41.9296 169.265 41.6914 170.133 41.6914C172.241 41.6914 172.755 43.115 172.755 44.4663V47.0165ZM171.543 45.1701C170.177 45.1407 168.624 45.3815 168.624 46.7061C168.624 47.5222 169.165 47.8888 169.793 47.8888C170.704 47.8888 171.289 47.3242 171.486 46.7489C171.529 46.6071 171.543 46.4679 171.543 46.3555V45.1728V45.1701Z" fill="#9C9B99"/>
<path d="M182.355 47.0165C182.355 47.6079 182.384 48.1859 182.455 48.6515H181.329L181.229 47.7925H181.186C180.802 48.3277 180.06 48.8067 179.078 48.8067C177.682 48.8067 176.971 47.8353 176.971 46.8479C176.971 45.1995 178.451 44.2977 181.116 44.3111V44.1693C181.116 43.6207 180.959 42.5905 179.549 42.6066C178.894 42.6066 178.223 42.7885 177.739 43.115L177.455 42.2828C178.026 41.9296 178.865 41.6914 179.733 41.6914C181.841 41.6914 182.355 43.115 182.355 44.4663V47.0165ZM181.143 45.1701C179.776 45.1407 178.223 45.3815 178.223 46.7061C178.223 47.5222 178.764 47.8888 179.392 47.8888C180.304 47.8888 180.888 47.3242 181.086 46.7489C181.129 46.6071 181.143 46.4679 181.143 46.3555V45.1728V45.1701Z" fill="#9C9B99"/>
<path d="M184.236 43.6757C184.236 42.9586 184.222 42.3939 184.179 41.8293H185.291L185.361 42.9559H185.391C185.732 42.3217 186.53 41.6875 187.669 41.6875C188.624 41.6875 190.104 42.2521 190.104 44.5882V48.6449H188.851V44.714C188.851 43.6142 188.437 42.699 187.255 42.699C186.443 42.699 185.802 43.277 185.575 43.9674C185.518 44.1226 185.488 44.334 185.488 44.5454V48.6449H184.236V43.673V43.6757Z" fill="#9C9B99"/>
<path d="M197.936 38.6484V46.8903C197.936 47.495 197.966 48.1854 197.993 48.651H196.881L196.824 47.4683H196.781C196.41 48.2282 195.585 48.8062 194.46 48.8062C192.793 48.8062 191.497 47.4121 191.497 45.3409C191.484 43.0717 192.92 41.6936 194.587 41.6936C195.656 41.6936 196.354 42.186 196.667 42.7212H196.697V38.6511H197.936V38.6484ZM196.697 44.6077C196.697 44.4525 196.684 44.2411 196.64 44.0859C196.456 43.3126 195.772 42.6623 194.83 42.6623C193.534 42.6623 192.766 43.7889 192.766 45.282C192.766 46.6628 193.464 47.8028 194.803 47.8028C195.645 47.8028 196.413 47.2381 196.64 46.323C196.684 46.1544 196.697 45.9858 196.697 45.7878V44.605V44.6077Z" fill="#9C9B99"/>
<path d="M204.359 45.6641L203.361 48.6504H202.078L205.355 39.1562H206.834L210.111 48.6504H208.785L207.76 45.6641H204.356H204.359ZM207.522 44.7061L206.567 41.974C206.353 41.3532 206.209 40.7912 206.069 40.2427H206.042C205.898 40.7912 205.758 41.3826 205.557 41.9606L204.619 44.7061H207.524H207.522Z" fill="#9C9B99"/>
<path d="M211.082 47.3965C211.466 47.6212 212.12 47.8754 212.748 47.8754C213.646 47.8754 214.074 47.4393 214.074 46.8613C214.074 46.2833 213.717 45.9595 212.805 45.6223C211.552 45.1728 210.968 44.5091 210.968 43.693C210.968 42.5932 211.88 41.6914 213.346 41.6914C214.044 41.6914 214.656 41.8734 215.026 42.1142L214.726 43.016C214.455 42.8474 213.958 42.6066 213.316 42.6066C212.575 42.6066 212.177 43.0294 212.177 43.5351C212.177 44.0997 212.575 44.3513 213.473 44.7045C214.656 45.1407 215.283 45.732 215.283 46.7462C215.283 47.9584 214.328 48.804 212.718 48.804C211.964 48.804 211.266 48.606 210.781 48.325L211.082 47.3965Z" fill="#9C9B99"/>
<path d="M216.58 47.3965C216.964 47.6212 217.619 47.8754 218.246 47.8754C219.144 47.8754 219.572 47.4393 219.572 46.8613C219.572 46.2833 219.215 45.9595 218.303 45.6223C217.05 45.1728 216.466 44.5091 216.466 43.693C216.466 42.5932 217.378 41.6914 218.844 41.6914C219.542 41.6914 220.154 41.8734 220.524 42.1142L220.224 43.016C219.953 42.8474 219.456 42.6066 218.814 42.6066C218.073 42.6066 217.675 43.0294 217.675 43.5351C217.675 44.0997 218.073 44.3513 218.971 44.7045C220.154 45.1407 220.781 45.732 220.781 46.7462C220.781 47.9584 219.826 48.804 218.216 48.804C217.462 48.804 216.764 48.606 216.279 48.325L216.58 47.3965Z" fill="#9C9B99"/>
<path d="M228.484 45.1862C228.484 47.7069 226.704 48.8067 225.051 48.8067C223.2 48.8067 221.747 47.4553 221.747 45.2985C221.747 43.0294 223.27 41.6914 225.164 41.6914C227.058 41.6914 228.484 43.115 228.484 45.1862ZM223.029 45.2557C223.029 46.7489 223.884 47.8755 225.11 47.8755C226.336 47.8755 227.204 46.7623 227.204 45.2263C227.204 44.0703 226.62 42.6199 225.14 42.6199C223.66 42.6199 223.032 43.9713 223.032 45.2531L223.029 45.2557Z" fill="#9C9B99"/>
<path d="M234.837 48.4106C234.509 48.5658 233.781 48.804 232.856 48.804C230.776 48.804 229.423 47.4098 229.423 45.3253C229.423 43.2408 230.876 41.6914 233.127 41.6914C233.868 41.6914 234.523 41.8734 234.864 42.058L234.58 43.0026C234.279 42.8474 233.811 42.6788 233.127 42.6788C231.547 42.6788 230.692 43.8482 230.692 45.2557C230.692 46.8345 231.717 47.8059 233.083 47.8059C233.795 47.8059 234.266 47.6373 234.623 47.4821L234.837 48.4106Z" fill="#9C9B99"/>
<path d="M237.558 39.9166C237.558 40.3394 237.258 40.6766 236.76 40.6766C236.305 40.6766 236.005 40.3394 236.005 39.9166C236.005 39.4938 236.319 39.1406 236.789 39.1406C237.26 39.1406 237.558 39.4778 237.558 39.9166ZM236.162 48.6508V41.8326H237.414V48.6508H236.162Z" fill="#9C9B99"/>
<path d="M244.195 47.0165C244.195 47.6079 244.224 48.1859 244.295 48.6515H243.169L243.069 47.7925H243.026C242.642 48.3277 241.9 48.8067 240.918 48.8067C239.522 48.8067 238.811 47.8353 238.811 46.8479C238.811 45.1995 240.29 44.2977 242.955 44.3111V44.1693C242.955 43.6207 242.798 42.5905 241.389 42.6066C240.734 42.6066 240.063 42.7885 239.579 43.115L239.295 42.2828C239.866 41.9296 240.704 41.6914 241.573 41.6914C243.68 41.6914 244.195 43.115 244.195 44.4663V47.0165ZM242.982 45.1701C241.616 45.1407 240.063 45.3815 240.063 46.7061C240.063 47.5222 240.604 47.8888 241.232 47.8888C242.144 47.8888 242.728 47.3242 242.926 46.7489C242.969 46.6071 242.982 46.4679 242.982 46.3555V45.1728V45.1701Z" fill="#9C9B99"/>
<path d="M247.528 40.198V41.833H249.322V42.7776H247.528V46.4543C247.528 47.2999 247.772 47.7789 248.467 47.7789C248.808 47.7789 249.008 47.7494 249.192 47.6932L249.249 48.6378C249.006 48.7235 248.621 48.8064 248.137 48.8064C247.553 48.8064 247.082 48.6084 246.784 48.2846C246.444 47.9046 246.3 47.2999 246.3 46.4944V42.7749H245.231V41.8303H246.3V40.5619L247.526 40.1953L247.528 40.198Z" fill="#9C9B99"/>
<path d="M251.202 45.4659C251.23 47.141 252.298 47.8314 253.567 47.8314C254.465 47.8314 255.02 47.6762 255.474 47.4782L255.702 48.3666C255.261 48.5646 254.492 48.8028 253.394 48.8028C251.273 48.8028 250.004 47.4086 250.004 45.3508C250.004 43.2931 251.23 41.6875 253.237 41.6875C255.502 41.6875 256.086 43.6302 256.086 44.8852C256.086 45.1394 256.072 45.3214 256.043 45.4632H251.2L251.202 45.4659ZM254.877 44.5775C254.89 43.8015 254.549 42.5759 253.14 42.5759C251.857 42.5759 251.316 43.7158 251.216 44.5775H254.877Z" fill="#9C9B99"/>
<path d="M257.325 47.3965C257.709 47.6212 258.364 47.8754 258.991 47.8754C259.89 47.8754 260.317 47.4393 260.317 46.8613C260.317 46.2833 259.96 45.9595 259.048 45.6223C257.795 45.1728 257.211 44.5091 257.211 43.693C257.211 42.5932 258.123 41.6914 259.589 41.6914C260.287 41.6914 260.899 41.8734 261.269 42.1142L260.969 43.016C260.699 42.8474 260.201 42.6066 259.559 42.6066C258.818 42.6066 258.42 43.0294 258.42 43.5351C258.42 44.0997 258.818 44.3513 259.716 44.7045C260.899 45.1407 261.526 45.732 261.526 46.7462C261.526 47.9584 260.571 48.804 258.962 48.804C258.207 48.804 257.509 48.606 257.024 48.325L257.325 47.3965Z" fill="#9C9B99"/>
<path d="M91.8337 6.07566V6.72859C90.9355 6.87041 90.1373 7.33602 89.4339 8.12542C88.9253 8.71412 88.1677 10.0976 87.1613 12.2758L78.6713 30.5764H78.0707L69.616 11.5319C68.5987 9.23592 67.9169 7.88726 67.5706 7.48587C67.2243 7.08716 66.5722 6.83295 65.6172 6.72591V6.07299H77.4349V6.72591H77.0345C75.9685 6.72591 75.2407 6.85436 74.8538 7.11392C74.5752 7.29053 74.4372 7.55009 74.4372 7.89261C74.4372 8.10401 74.4859 8.35555 74.5833 8.64187C74.6807 8.93087 75.0081 9.70421 75.5654 10.9646L80.8195 22.8884L85.6922 12.2704C86.2739 10.986 86.631 10.127 86.7663 9.69083C86.8988 9.25465 86.9665 8.88538 86.9665 8.57765C86.9665 8.22443 86.8691 7.91134 86.677 7.64108C86.4822 7.37081 86.1981 7.16476 85.822 7.02294C85.2999 6.82225 84.61 6.72324 83.7496 6.72324V6.07031H91.8391L91.8337 6.07566Z" fill="#1A171B"/>
<path d="M101.046 29.5313V30.0317H91.1846V29.5313H91.8095C92.3561 29.5313 92.7971 29.4377 93.1298 29.2477C93.3706 29.1219 93.5573 28.9051 93.6872 28.6001C93.79 28.3833 93.8414 27.816 93.8414 26.8982V14.8432C93.8414 13.9066 93.79 13.3206 93.6872 13.0851C93.5844 12.8496 93.3787 12.6463 93.0676 12.4697C92.7565 12.2931 92.3371 12.2074 91.8095 12.2074H91.1846V11.707H101.046V12.2074H100.421C99.8747 12.2074 99.4337 12.3011 99.1009 12.4911C98.8601 12.6168 98.6708 12.8336 98.5301 13.1413C98.4273 13.3581 98.3758 13.9254 98.3758 14.8432V26.8982C98.3758 27.8348 98.43 28.4208 98.5355 28.6563C98.641 28.8918 98.8493 29.0951 99.1605 29.2717C99.4716 29.4484 99.8909 29.534 100.419 29.534H101.043L101.046 29.5313Z" fill="#1A171B"/>
<path d="M107.011 12.756V20.2164H107.387C108.583 20.2164 109.452 19.8525 109.99 19.122C110.529 18.3915 110.869 17.3158 111.018 15.8922H111.546V25.488H111.018C110.907 24.4417 110.672 23.5881 110.315 22.9191C109.958 22.2528 109.544 21.8033 109.07 21.5758C108.597 21.3457 107.91 21.2306 107.011 21.2306V26.3925C107.011 27.4013 107.055 28.0194 107.144 28.2442C107.233 28.469 107.398 28.6536 107.639 28.7981C107.88 28.9426 108.269 29.0149 108.808 29.0149H109.933C111.695 29.0149 113.107 28.6188 114.167 27.8268C115.228 27.0347 115.991 25.8252 116.456 24.2062H116.97L116.121 30.0317H99.8201V29.5313H100.445C100.992 29.5313 101.433 29.4377 101.765 29.2477C102.006 29.1219 102.193 28.9051 102.323 28.6001C102.426 28.3833 102.474 27.8161 102.474 26.8982V14.8432C102.474 14.0137 102.45 13.5052 102.404 13.3153C102.312 12.9995 102.139 12.756 101.89 12.5847C101.538 12.3332 101.054 12.2074 100.442 12.2074H99.8174V11.707H115.604V17.1258H115.077C114.806 15.8012 114.43 14.8512 113.943 14.2732C113.456 13.6979 112.769 13.2724 111.879 13.0022C111.359 12.8416 110.385 12.7587 108.957 12.7587H107.009L107.011 12.756Z" fill="#1A171B"/>
<path d="M133.772 11.7031V16.6643H133.272C132.974 15.519 132.647 14.6975 132.284 14.1971C131.922 13.6967 131.427 13.298 130.796 13.0009C130.445 12.8404 129.828 12.7574 128.946 12.7574H127.541V26.8943C127.541 27.8309 127.596 28.4169 127.701 28.6524C127.807 28.8879 128.018 29.0912 128.326 29.2678C128.637 29.4445 129.062 29.5301 129.6 29.5301H130.225V30.0305H120.35V29.5301H120.975C121.522 29.5301 121.963 29.4364 122.295 29.2464C122.536 29.1207 122.726 28.9039 122.866 28.5989C122.969 28.3821 123.021 27.8148 123.021 26.897V12.7601H121.657C120.385 12.7601 119.463 13.0224 118.889 13.5442C118.083 14.2747 117.572 15.3156 117.361 16.667H116.833V11.7058H133.775L133.772 11.7031Z" fill="#1A171B"/>
<path d="M139.443 11.7031L148.748 23.0704V15.1925C148.748 14.0927 148.585 13.3488 148.261 12.9635C147.817 12.4417 147.07 12.1875 146.02 12.2062V11.7058H152.251V12.2062C151.453 12.3052 150.917 12.4337 150.644 12.5915C150.371 12.7494 150.157 13.0063 150.003 13.3622C149.849 13.7181 149.773 14.3282 149.773 15.1952V30.4533H149.299L136.546 15.1952V26.8435C136.546 27.8978 136.795 28.6096 137.29 28.9788C137.785 29.3481 138.353 29.5328 138.994 29.5328H139.438V30.0332H132.747V29.5328C133.786 29.5247 134.508 29.316 134.917 28.9119C135.325 28.5052 135.528 27.8175 135.528 26.8435V13.9108L135.125 13.4237C134.728 12.9367 134.373 12.6183 134.067 12.4658C133.762 12.3132 133.321 12.2276 132.747 12.2089V11.7085H139.438L139.443 11.7031Z" fill="#1A171B"/>
<path d="M162.324 24.816H155.66L154.867 26.6008C154.607 27.1949 154.478 27.6872 154.478 28.0752C154.478 28.589 154.691 28.969 155.119 29.2098C155.368 29.3543 155.985 29.4614 156.969 29.5336V30.034H150.695V29.5336C151.372 29.4346 151.929 29.1617 152.365 28.7175C152.8 28.2706 153.339 27.3501 153.977 25.9532L160.722 11.332H160.987L167.789 26.36C168.438 27.7836 168.971 28.68 169.388 29.0493C169.702 29.3276 170.148 29.4908 170.724 29.5363V30.0367H161.599V29.5363H161.975C162.708 29.5363 163.222 29.4373 163.519 29.2393C163.722 29.0948 163.825 28.8887 163.825 28.6185C163.825 28.4552 163.798 28.2893 163.741 28.1181C163.722 28.0378 163.584 27.6979 163.325 27.1066L162.324 24.8213V24.816ZM161.85 23.8152L159.042 17.5027L156.15 23.8152H161.853H161.85Z" fill="#1A171B"/>
<path d="M182.168 23.7888L187.287 11.707H194.965V12.2074H194.354C193.799 12.2074 193.353 12.3011 193.02 12.4911C192.787 12.6168 192.603 12.8282 192.463 13.1253C192.36 13.342 192.311 13.904 192.311 14.8138V26.8955C192.311 27.8321 192.362 28.4181 192.463 28.6536C192.565 28.8891 192.774 29.0925 193.09 29.2691C193.404 29.4457 193.826 29.5313 194.356 29.5313H194.968V30.0317H185.12V29.5313H185.731C186.289 29.5313 186.732 29.4377 187.065 29.2477C187.298 29.1219 187.482 28.9051 187.622 28.6001C187.725 28.3833 187.777 27.816 187.777 26.8982V13.3153L180.542 30.0317H180.209L172.866 13.4357V26.3416C172.866 27.2434 172.888 27.7973 172.937 28.0034C173.059 28.4529 173.318 28.8222 173.724 29.1058C174.127 29.3895 174.76 29.5313 175.623 29.5313V30.0317H169.171V29.5313H169.365C169.782 29.5393 170.172 29.4751 170.534 29.336C170.897 29.1968 171.17 29.0095 171.354 28.774C171.541 28.5385 171.684 28.2121 171.784 27.7866C171.803 27.6876 171.811 27.2273 171.811 26.4085V14.8138C171.811 13.8852 171.76 13.3072 171.657 13.0771C171.554 12.847 171.346 12.6436 171.032 12.4697C170.716 12.2931 170.293 12.2074 169.766 12.2074H169.168V11.707H176.873L182.173 23.7888H182.168Z" fill="#1A171B"/>
<path d="M216.204 17.7222C218.471 18.236 220.062 18.8595 220.98 19.5873C222.294 20.6256 222.952 21.9742 222.952 23.628C222.952 25.3753 222.229 26.8177 220.785 27.9603C219.01 29.341 216.432 30.0314 213.05 30.0314H200.907V29.3972C202.011 29.3972 202.761 29.2982 203.156 29.0975C203.548 28.8995 203.824 28.6373 203.983 28.3188C204.14 28.0004 204.221 27.211 204.221 25.956V10.8879C204.221 9.63292 204.14 8.84084 203.983 8.51706C203.824 8.1906 203.545 7.93103 203.147 7.73837C202.747 7.5457 202.003 7.44669 200.91 7.44669V6.8125H212.365C215.103 6.8125 217.04 7.05066 218.179 7.52162C219.318 7.99526 220.217 8.7017 220.874 9.6463C221.531 10.5882 221.862 11.589 221.862 12.6514C221.862 13.7699 221.445 14.7653 220.612 15.6403C219.778 16.5127 218.309 17.2058 216.207 17.7222H216.204ZM209.792 18.5946V26.0416L209.776 26.8979C209.776 27.5134 209.936 27.979 210.26 28.2921C210.582 28.6078 211.064 28.763 211.697 28.763C212.638 28.763 213.504 28.5597 214.297 28.1556C215.09 27.7515 215.698 27.1628 216.12 26.3922C216.542 25.6215 216.753 24.7625 216.753 23.8153C216.753 22.7315 216.494 21.7575 215.977 20.8958C215.46 20.0342 214.749 19.4321 213.845 19.0896C212.939 18.7471 211.589 18.5812 209.792 18.5919V18.5946ZM209.792 17.2593C211.461 17.2593 212.692 17.0773 213.485 16.7107C214.278 16.3441 214.887 15.833 215.309 15.1694C215.731 14.5084 215.942 13.6628 215.942 12.6353C215.942 11.6077 215.733 10.7675 215.317 10.1092C214.9 9.45363 214.302 8.95323 213.528 8.61072C212.755 8.2682 211.507 8.10229 209.792 8.113V17.2566V17.2593Z" fill="#1A171B"/>
<path d="M229.626 21.6789V26.814C229.626 27.8041 229.688 28.4276 229.812 28.6845C229.937 28.9414 230.159 29.1447 230.473 29.3C230.789 29.4525 231.376 29.5301 232.239 29.5301V30.0305H222.586V29.5301C223.457 29.5301 224.05 29.4525 224.358 29.2946C224.669 29.1367 224.888 28.9307 225.013 28.6791C225.137 28.4249 225.199 27.8041 225.199 26.814V14.9223C225.199 13.9322 225.137 13.306 225.013 13.0491C224.888 12.7922 224.666 12.5889 224.353 12.4337C224.036 12.2811 223.449 12.2035 222.586 12.2035V11.7031H231.349C233.63 11.7031 235.299 11.8557 236.357 12.1634C237.415 12.4711 238.278 13.0357 238.946 13.8599C239.614 14.6841 239.947 15.6501 239.947 16.7579C239.947 18.1093 239.447 19.2278 238.446 20.1109C237.805 20.6701 236.912 21.0876 235.759 21.3685L240.294 27.5713C240.886 28.3741 241.311 28.8745 241.56 29.0698C241.941 29.3508 242.38 29.5033 242.88 29.5301V30.0305H236.941L230.865 21.6789H229.626ZM229.626 12.6905V20.7183H230.418C231.706 20.7183 232.672 20.6032 233.311 20.3731C233.952 20.143 234.452 19.7282 234.82 19.1288C235.186 18.5294 235.37 17.748 235.37 16.7847C235.37 15.3879 235.031 14.3576 234.36 13.6887C233.687 13.0224 232.604 12.6879 231.114 12.6879H229.626V12.6905Z" fill="#1A171B"/>
<path d="M252.891 29.5313V30.0317H243.029V29.5313H243.657C244.203 29.5313 244.644 29.4377 244.977 29.2477C245.218 29.1219 245.405 28.9051 245.535 28.6001C245.637 28.3833 245.689 27.816 245.689 26.8982V14.8432C245.689 13.9066 245.637 13.3206 245.535 13.0851C245.432 12.8496 245.226 12.6463 244.915 12.4697C244.604 12.2931 244.185 12.2074 243.657 12.2074H243.029V11.707H252.891V12.2074H252.263C251.717 12.2074 251.276 12.3011 250.943 12.4911C250.702 12.6168 250.513 12.8336 250.372 13.1413C250.269 13.3581 250.221 13.9254 250.221 14.8432V26.8982C250.221 27.8348 250.275 28.4208 250.38 28.6563C250.486 28.8918 250.694 29.0951 251.005 29.2717C251.316 29.4484 251.736 29.534 252.263 29.534H252.891V29.5313Z" fill="#1A171B"/>
<path d="M260.423 12.756V20.2164H260.799C261.995 20.2164 262.861 19.8525 263.399 19.122C263.937 18.3915 264.281 17.3158 264.43 15.8922H264.957V25.488H264.43C264.319 24.4417 264.084 23.5881 263.726 22.9191C263.369 22.2528 262.955 21.8033 262.482 21.5758C262.008 21.3457 261.324 21.2306 260.423 21.2306V26.3925C260.423 27.4013 260.466 28.0194 260.556 28.2442C260.645 28.469 260.81 28.6536 261.051 28.7981C261.291 28.9426 261.681 29.0149 262.219 29.0149H263.345C265.106 29.0149 266.519 28.6188 267.582 27.8268C268.642 27.0347 269.405 25.8252 269.871 24.2062H270.385L269.535 30.0317H253.234V29.5313H253.859C254.406 29.5313 254.847 29.4377 255.18 29.2477C255.42 29.1219 255.604 28.9051 255.737 28.6001C255.84 28.3833 255.891 27.8161 255.891 26.8982V14.8432C255.891 14.0137 255.867 13.5052 255.821 13.3153C255.726 12.9995 255.556 12.756 255.307 12.5847C254.955 12.3332 254.471 12.2074 253.859 12.2074H253.234V11.707H269.021V17.1258H268.494C268.226 15.8012 267.847 14.8512 267.36 14.2732C266.873 13.6979 266.186 13.2724 265.296 13.0022C264.776 12.8416 263.802 12.7587 262.374 12.7587H260.426L260.423 12.756Z" fill="#1A171B"/>
<path d="M277.498 12.7587V20.286H278.039C278.875 20.286 279.554 20.1629 280.084 19.9221C280.612 19.6786 281.061 19.2692 281.426 18.6912C281.791 18.1159 282.029 17.3345 282.14 16.3524H282.627V25.5576H282.14C281.965 23.8182 281.483 22.6729 280.701 22.119C279.916 21.5651 279.029 21.2868 278.036 21.2868H277.495V26.8955C277.495 27.8321 277.549 28.4181 277.655 28.6536C277.763 28.8891 277.971 29.0925 278.282 29.2691C278.593 29.4457 279.013 29.5313 279.54 29.5313H280.165V30.0317H270.304V29.5313H270.931C271.478 29.5313 271.919 29.4377 272.252 29.2477C272.492 29.1219 272.679 28.9051 272.809 28.6001C272.912 28.3833 272.961 27.816 272.961 26.8982V14.8432C272.961 13.9066 272.909 13.3206 272.809 13.0851C272.706 12.8496 272.501 12.6463 272.189 12.4697C271.878 12.2931 271.459 12.2074 270.931 12.2074H270.304V11.707H286.215V16.9652H285.644C285.514 15.7316 285.181 14.8164 284.648 14.2224C284.115 13.6283 283.344 13.2082 282.332 12.9647C281.775 12.8282 280.747 12.7613 279.245 12.7613H277.492L277.498 12.7587Z" fill="#1A171B"/>
<path d="M297.186 29.5313V30.0317H287.324V29.5313H287.949C288.498 29.5313 288.937 29.4377 289.27 29.2477C289.51 29.1219 289.697 28.9051 289.827 28.6001C289.93 28.3833 289.981 27.816 289.981 26.8982V14.8432C289.981 13.9066 289.93 13.3206 289.827 13.0851C289.727 12.8496 289.518 12.6463 289.207 12.4697C288.896 12.2931 288.477 12.2074 287.949 12.2074H287.324V11.707H297.186V12.2074H296.561C296.012 12.2074 295.573 12.3011 295.241 12.4911C295 12.6168 294.808 12.8336 294.67 13.1413C294.57 13.3581 294.518 13.9254 294.518 14.8432V26.8982C294.518 27.8348 294.572 28.4208 294.678 28.6563C294.786 28.8918 294.994 29.0951 295.306 29.2717C295.617 29.4484 296.036 29.534 296.564 29.534H297.189L297.186 29.5313Z" fill="#1A171B"/>
<path d="M304.107 11.7031L313.411 23.0704V15.1925C313.411 14.0927 313.249 13.3488 312.924 12.9635C312.48 12.4417 311.731 12.1875 310.684 12.2062V11.7058H316.914V12.2062C316.116 12.3052 315.581 12.4337 315.307 12.5915C315.034 12.7494 314.82 13.0063 314.669 13.3622C314.515 13.7181 314.439 14.3282 314.439 15.1952V30.4533H313.965L301.212 15.1952V26.8435C301.212 27.8978 301.461 28.6096 301.956 28.9788C302.451 29.3481 303.019 29.5328 303.66 29.5328H304.104V30.0332H297.413V29.5328C298.452 29.5247 299.174 29.316 299.583 28.9119C299.991 28.5052 300.194 27.8175 300.194 26.8435V13.9108L299.791 13.4237C299.394 12.9367 299.039 12.6183 298.733 12.4658C298.428 12.3132 297.987 12.2276 297.413 12.2089V11.7085H304.104L304.107 11.7031Z" fill="#1A171B"/>
<path d="M334.79 11.2841V17.7438H334.276C333.653 15.9777 332.723 14.6344 331.481 13.7165C330.239 12.7987 328.881 12.3385 327.404 12.3385C325.926 12.3385 324.822 12.7238 323.884 13.4944C322.948 14.2651 322.285 15.3382 321.895 16.7163C321.506 18.0943 321.311 19.5099 321.311 20.9603C321.311 22.7183 321.524 24.257 321.952 25.5816C322.377 26.9061 323.067 27.8802 324.016 28.501C324.966 29.1218 326.097 29.4349 327.404 29.4349C327.858 29.4349 328.323 29.3867 328.802 29.2931C329.281 29.1994 329.768 29.0603 330.269 28.881V25.0705C330.269 24.3506 330.217 23.885 330.117 23.671C330.014 23.4596 329.803 23.2669 329.484 23.0956C329.165 22.9244 328.778 22.8387 328.323 22.8387H327.836V22.3384H337.003V22.8387C336.307 22.8842 335.823 22.9752 335.55 23.117C335.277 23.2562 335.066 23.489 334.917 23.8128C334.833 23.984 334.792 24.4015 334.792 25.0705V28.881C333.586 29.4028 332.333 29.7988 331.029 30.0637C329.725 30.3286 328.375 30.4624 326.973 30.4624C325.185 30.4624 323.7 30.227 322.517 29.7533C321.335 29.2797 320.291 28.6589 319.387 27.8882C318.483 27.1175 317.775 26.2505 317.266 25.2872C316.617 24.0456 316.292 22.6514 316.292 21.1128C316.292 18.3566 317.288 16.0259 319.282 14.126C321.276 12.2261 323.784 11.2734 326.806 11.2734C327.742 11.2734 328.586 11.3457 329.338 11.4902C329.747 11.5624 330.407 11.7658 331.318 12.1056C332.233 12.4428 332.771 12.6114 332.939 12.6114C333.199 12.6114 333.44 12.5177 333.661 12.3331C333.883 12.1485 334.089 11.7979 334.273 11.2841H334.787H334.79Z" fill="#1A171B"/>
<path d="M32.4932 23.3298C32.5229 23.2576 32.5581 23.1907 32.5906 23.1211C32.5581 23.1907 32.5229 23.2602 32.4932 23.3298Z" fill="#855D99"/>
<path d="M31.5625 33.6136C31.5165 33.3621 31.4732 33.0998 31.4326 32.8242C31.4732 33.1025 31.5165 33.3621 31.5625 33.6136Z" fill="#855D99"/>
<path d="M31.6737 34.19C31.6737 34.19 31.6737 34.1874 31.6737 34.1847C31.6575 34.1071 31.6412 34.0295 31.625 33.9492C31.6412 34.0295 31.6548 34.1151 31.671 34.1927L31.6737 34.19Z" fill="#855D99"/>
<path d="M29.6529 32.6875C29.5988 33.0006 29.5419 33.3003 29.4824 33.5839C29.5419 33.3003 29.5988 33.0033 29.6529 32.6875Z" fill="#855D99"/>
<path d="M27.5615 20.7422C27.6048 20.8064 27.6454 20.876 27.686 20.9402C27.6454 20.8733 27.6048 20.8064 27.5615 20.7422Z" fill="#855D99"/>
<path d="M30.2043 23.6452C30.3909 24.1911 30.5397 24.7397 30.6615 25.2856C30.7751 24.8414 30.9077 24.3972 31.0646 23.953C31.7545 22.0022 32.7961 20.3003 33.9189 18.8741C33.9189 18.8687 33.9189 18.8661 33.9189 18.8634C33.8648 18.3603 33.7999 17.8706 33.7296 17.389C33.7079 17.2391 33.6836 17.0946 33.6592 16.9474C33.6024 16.5942 33.5429 16.249 33.4806 15.9092C33.4563 15.7727 33.4292 15.6362 33.4049 15.5024C33.3156 15.0529 33.2236 14.614 33.1235 14.1912C33.1235 14.1912 33.1235 14.1859 33.1235 14.1832C33.0234 13.7524 32.9179 13.3403 32.8097 12.9389C32.7772 12.8212 32.7474 12.7088 32.715 12.5937C32.6365 12.3074 32.5554 12.0264 32.4769 11.7588C32.4444 11.6518 32.4147 11.5447 32.3822 11.4404C32.2767 11.0925 32.1685 10.758 32.0657 10.4476C31.5273 8.84207 31.0024 7.59242 30.6561 6.82443C30.5993 6.70134 30.5479 6.5836 30.4965 6.47656C30.4396 6.59965 30.3747 6.74148 30.3098 6.89133C30.2854 6.94485 30.2584 7.00639 30.234 7.06526C30.1907 7.16695 30.1447 7.27399 30.096 7.3837C30.0636 7.4613 30.0284 7.54158 29.9959 7.62185C29.9526 7.72622 29.9066 7.83593 29.8607 7.94832C29.8228 8.04197 29.7849 8.13563 29.7443 8.23464C29.6983 8.3497 29.6523 8.4728 29.6036 8.59321C29.5306 8.7832 29.4548 8.97854 29.3791 9.18459C29.3331 9.31036 29.2871 9.43345 29.2411 9.56457C29.1897 9.70639 29.1383 9.85357 29.0896 10.0007C29.0517 10.1105 29.0138 10.2228 28.9732 10.3352C28.9218 10.4904 28.8677 10.651 28.8163 10.8142C28.7784 10.9293 28.7406 11.0497 28.7027 11.1674C28.6486 11.336 28.5972 11.5073 28.5431 11.6839C28.5079 11.7963 28.4754 11.914 28.443 12.0291C28.2563 12.6713 28.075 13.3483 27.9073 14.0574C27.8748 14.1886 27.845 14.3197 27.8126 14.4561C27.7666 14.6568 27.7233 14.8602 27.68 15.0636C27.6475 15.2108 27.6178 15.3606 27.588 15.5105C27.5474 15.7165 27.5068 15.9225 27.469 16.1313C27.4392 16.2891 27.4149 16.4497 27.3878 16.6103C27.3526 16.819 27.3175 17.025 27.285 17.2391C27.2471 17.488 27.2147 17.7422 27.1795 17.9964C27.166 18.09 27.1524 18.1837 27.1416 18.2774C28.3591 19.7571 29.4954 21.5527 30.2097 23.6479L30.2043 23.6452Z" fill="#855D99"/>
<path d="M33.4805 21.4378C33.4913 21.419 33.5048 21.4003 33.5156 21.3789C33.5048 21.3976 33.4913 21.4164 33.4805 21.4378Z" fill="#855D99"/>
<path d="M26.9766 19.8867C26.9766 19.8867 26.9766 19.8896 26.9794 19.8925C26.9794 19.8925 26.9794 19.8896 26.9766 19.8867Z" fill="#855D99"/>
<path d="M30.3344 37.9413C30.145 37.5185 29.9664 37.0743 29.7879 36.6328C29.7879 36.6328 29.7879 36.6382 29.7852 36.6408C29.9637 37.0824 30.145 37.5185 30.3344 37.9413Z" fill="#3C9F51"/>
<path d="M30.8351 37.5156C30.8162 37.5584 30.7973 37.6039 30.7783 37.6441C30.7973 37.6013 30.8162 37.5584 30.8351 37.5156Z" fill="#3C9F51"/>
<path d="M30.4908 38.2855C30.5746 38.1009 30.6747 37.8815 30.7776 37.6433C30.7965 37.6005 30.8154 37.5577 30.8344 37.5149C30.9426 37.2607 31.0589 36.985 31.1834 36.68C31.0102 36.1475 30.7424 35.2296 30.5178 34.0469C30.2635 35.1922 29.9794 36.0913 29.79 36.6318C29.9686 37.0733 30.1472 37.5175 30.3366 37.9403C30.3907 38.0634 30.4448 38.1785 30.4935 38.2855H30.4908Z" fill="#3C9F51"/>
<path d="M24.7418 9.54116C24.5389 9.79269 24.3495 10.0255 24.1791 10.2289L21.5195 13.3838C22.0228 13.6835 24.0952 14.9866 26.1757 17.1916C27.0659 11.1226 29.2195 6.51737 29.8661 5.23828C27.8964 5.65305 25.9485 8.05335 24.7418 9.54383V9.54116Z" fill="#3C9F51"/>
<path d="M15.5977 20.4058C16.3741 20.6039 17.6836 20.9919 19.1933 21.6662C19.1852 18.8404 19.775 16.3706 20.2133 14.9336L15.5977 20.4058Z" fill="#3C9F51"/>
<path d="M12.4428 28.9926C13.5845 28.9257 14.6937 28.9498 15.757 29.0568C14.618 26.2498 14.3312 23.5123 14.2663 21.9844L7.69727 29.774V29.7847C8.43046 29.493 10.5705 29.0996 12.4428 28.9926Z" fill="#3C9F51"/>
<path d="M7.32392 30.4568C7.29687 30.398 7.28334 30.3338 7.28063 30.2695L2.0725 36.4455C1.00382 37.7113 0.706213 38.5435 1.07687 39.2981C2.22672 38.3909 5.68708 35.8943 10.2297 34.7544C9.89958 34.369 9.60468 33.9971 9.33142 33.6358L9.29354 33.593L9.28543 33.5743C8.05983 31.942 7.41321 30.6388 7.35639 30.5211L7.32392 30.4568Z" fill="#3C9F51"/>
<path d="M31.1299 5.26172C31.763 6.53546 34.0356 11.4324 34.877 17.7368C37.0442 15.3365 39.2302 13.937 39.6144 13.6989C39.6171 13.6989 39.6198 13.6962 39.6225 13.6935L36.7006 10.2282C36.5301 10.0249 36.3407 9.79205 36.1324 9.53783C34.9501 8.07946 33.0562 5.74606 31.1299 5.26439V5.26172Z" fill="#3C9F51"/>
<path d="M41.6491 21.7109C43.1669 21.0232 44.4953 20.6245 45.2934 20.4185L40.7725 15.0586C41.1566 16.4073 41.7086 18.8611 41.6491 21.7136V21.7109Z" fill="#3C9F51"/>
<path d="M45.1853 29.051C46.2269 28.9493 47.3119 28.9279 48.4292 28.9921C50.2988 29.0965 52.4388 29.4925 53.1693 29.7842L53.1747 29.7654L46.668 22.0508C46.5976 23.5921 46.3027 26.2894 45.1826 29.051H45.1853Z" fill="#3C9F51"/>
<path d="M58.8097 36.4484L53.5935 30.2617C53.5935 30.3286 53.5772 30.3955 53.5475 30.4597L53.5177 30.524C53.4474 30.6685 52.4977 32.6031 50.6553 34.7439C55.2222 35.8785 58.6988 38.3858 59.8595 39.2983C60.3275 38.3697 59.7567 37.5696 58.8124 36.4511L58.8097 36.4484Z" fill="#3C9F51"/>
<path d="M12.416 35.4609C12.416 35.4609 12.4218 35.4638 12.4218 35.4667C12.4218 35.4667 12.4189 35.4638 12.416 35.4609Z" fill="#855D99"/>
<path d="M13.5389 36.4388C13.4604 36.3745 13.3792 36.313 13.3008 36.2461C13.3792 36.3103 13.4577 36.3745 13.5389 36.4388Z" fill="#855D99"/>
<path d="M15.7544 37.948C15.6408 37.8838 15.5326 37.8169 15.4189 37.75C15.5299 37.8169 15.6381 37.8838 15.7544 37.948Z" fill="#855D99"/>
<path d="M23.4321 40.8704C20.8835 40.8704 18.5595 40.4262 16.5222 39.5485C14.5336 38.6895 12.8887 37.4345 11.5495 36.1367L11.6685 36.2705L4.323 38.4487C3.94694 38.6708 3.59522 38.8876 3.28679 39.0883C3.28679 39.0883 3.28138 39.0909 3.27867 39.0936C3.01353 39.2675 2.77815 39.4281 2.56982 39.5753C2.53465 39.5994 2.49948 39.6234 2.46701 39.6475C2.28033 39.7813 2.10718 39.9071 1.97461 40.0061C2.118 40.1131 2.29116 40.2416 2.48595 40.3807C3.0947 40.8196 4.08762 41.4832 5.35922 42.1629C7.56151 43.3349 10.984 44.7344 14.7663 44.7344C15.1235 44.7344 15.4779 44.7211 15.8296 44.697C15.9432 44.6889 16.0542 44.6756 16.1651 44.6675C16.4032 44.6461 16.6413 44.6247 16.8766 44.5926C17.0038 44.5766 17.1282 44.5552 17.2527 44.5364C17.4718 44.5043 17.6883 44.4668 17.902 44.4267C18.0265 44.4026 18.1509 44.3785 18.2754 44.3518C18.4918 44.3063 18.7056 44.2581 18.9166 44.2046C19.0302 44.1778 19.1439 44.1484 19.2575 44.119C19.4875 44.0574 19.7147 43.9932 19.9366 43.9236C20.0232 43.8969 20.1124 43.8728 20.1963 43.846C20.8159 43.6507 21.4111 43.4313 21.9765 43.1985C22.0577 43.1637 22.1362 43.1289 22.2173 43.0941C22.4148 43.0111 22.6096 42.9255 22.7963 42.8399C22.8964 42.7944 22.9911 42.7489 23.0885 42.7034C23.2508 42.6258 23.4132 42.5482 23.5701 42.4706C23.6729 42.4198 23.773 42.3689 23.8704 42.3181C24.0138 42.2458 24.1518 42.1709 24.2898 42.0987C24.3899 42.0451 24.49 41.9916 24.5874 41.9381C24.7118 41.8685 24.8282 41.8016 24.9472 41.7347C25.0473 41.6785 25.1474 41.6197 25.2421 41.5662C25.3341 41.5126 25.418 41.4591 25.5045 41.4083C25.9564 41.1353 26.3595 40.8731 26.6977 40.6403C26.7058 40.6349 26.7139 40.6296 26.722 40.6242C26.116 40.7125 25.4342 40.7875 24.6902 40.8276C24.2681 40.8517 23.8434 40.8651 23.4294 40.8651L23.4321 40.8704Z" fill="#855D99"/>
<path d="M14.6184 37.2418C14.5075 37.1669 14.3992 37.0893 14.291 37.0117C14.3992 37.0893 14.5075 37.1642 14.6184 37.2418Z" fill="#855D99"/>
<path d="M11.6717 36.2704L11.5526 36.1366C11.4038 35.9921 11.2388 35.8503 11.0981 35.7031C11.0981 35.7031 11.0981 35.7031 11.0954 35.7031C8.38716 36.3025 6.02524 37.4451 4.32617 38.4459L11.6717 36.2677V36.2704Z" fill="#855D99"/>
<path d="M20.4107 23.5066C20.4107 23.5066 20.4053 23.5066 20.4053 23.5039C20.4323 23.7661 20.4675 24.0311 20.5081 24.2987C20.4675 24.0337 20.4377 23.7688 20.4107 23.5066Z" fill="#855D99"/>
<path d="M21.1053 26.7679C20.9863 26.4174 20.8862 26.0642 20.7969 25.7109C20.8862 26.0642 20.9836 26.4174 21.1053 26.7679Z" fill="#855D99"/>
<path d="M17.6562 30.4688C17.6562 30.4688 17.6698 30.4875 17.6752 30.4982C17.824 30.533 17.9755 30.5571 18.1216 30.5945C17.9647 30.5544 17.8159 30.5035 17.6562 30.4688Z" fill="#855D99"/>
<path d="M20.7187 25.3877C20.6565 25.1148 20.6024 24.8445 20.5537 24.5742C20.5997 24.8445 20.6538 25.1174 20.7187 25.3877Z" fill="#855D99"/>
<path d="M21.8202 28.4683C21.7904 28.4095 21.7661 28.3479 21.7363 28.2891C21.7634 28.3479 21.7904 28.4095 21.8202 28.4683Z" fill="#855D99"/>
<path d="M23.6731 31.3884C23.619 31.3188 23.5649 31.2493 23.5107 31.1797C23.5649 31.2519 23.619 31.3188 23.6731 31.3884Z" fill="#855D99"/>
<path d="M22.6964 30.0126C22.6477 29.9377 22.6017 29.8628 22.5557 29.7852C22.6017 29.8601 22.6477 29.9377 22.6964 30.0126Z" fill="#855D99"/>
<path d="M20.6136 30.2793C21.0952 30.488 21.5551 30.7208 21.9988 30.9697C21.2277 29.8244 20.5432 28.54 20.0589 27.1191C19.5747 25.7008 19.3285 24.2719 19.2338 22.9018C17.9892 22.3051 16.8556 21.909 16.044 21.6629C15.9114 21.6227 15.7869 21.5853 15.6706 21.5531C15.5543 21.521 15.446 21.4916 15.3486 21.4648C15.3486 21.5933 15.354 21.7405 15.3595 21.901C15.3838 22.5379 15.4569 23.544 15.6625 24.7161C15.7139 25.0078 15.7761 25.3208 15.8492 25.6446C15.8681 25.7303 15.8924 25.8212 15.9114 25.9069C15.9709 26.1611 16.0385 26.4206 16.1116 26.6856C16.1386 26.7846 16.1684 26.8836 16.1982 26.9826C16.282 27.2636 16.374 27.5499 16.4768 27.8416C16.5066 27.9245 16.5337 28.0075 16.5634 28.0931C16.7014 28.4704 16.8529 28.8504 17.0261 29.233C18.3004 29.4525 19.5016 29.7976 20.6109 30.2766L20.6136 30.2793Z" fill="#855D99"/>
<path d="M27.5238 35.1988C27.5102 35.1881 27.494 35.1748 27.4805 35.1641C27.4967 35.1748 27.5102 35.1881 27.5238 35.1988Z" fill="#855D99"/>
<path d="M27.6854 37.9094C27.68 37.904 27.6746 37.896 27.6719 37.8906C27.6773 37.8987 27.68 37.904 27.6854 37.9094Z" fill="#855D99"/>
<path d="M33.5298 35.0508C33.5081 35.0695 33.4865 35.0882 33.4648 35.1043C33.4865 35.0856 33.5081 35.0695 33.5298 35.0508Z" fill="#855D99"/>
<path d="M33.1913 37.9023C33.1913 37.9023 33.1724 37.9264 33.167 37.9398C33.1751 37.9264 33.1832 37.9157 33.1913 37.9023Z" fill="#855D99"/>
<path d="M40.6963 31.2776C41.1887 31.0662 41.7054 30.8896 42.2357 30.7344C41.7054 30.8923 41.1887 31.0662 40.6963 31.2776Z" fill="#855D99"/>
<path d="M38.6973 31.066C39.1924 30.7797 39.7145 30.5148 40.2584 30.2793C41.3893 29.7896 42.6149 29.4391 43.9162 29.2223C43.9162 29.2197 43.9189 29.2143 43.9216 29.2116C44.0921 28.8343 44.2409 28.457 44.3762 28.0851C44.4059 28.0048 44.433 27.9245 44.46 27.8442C44.5628 27.5499 44.6575 27.2582 44.7414 26.9746C44.7685 26.8782 44.7982 26.7819 44.8253 26.6882C44.901 26.418 44.9687 26.1557 45.0282 25.8988C45.0471 25.8132 45.0715 25.7276 45.0904 25.6446C45.1635 25.3208 45.2257 25.0078 45.2771 24.7161C45.4827 23.544 45.5558 22.5379 45.5801 21.901C45.5855 21.7405 45.5909 21.5933 45.5909 21.4648C45.4935 21.4889 45.3826 21.521 45.2636 21.5531C44.4276 21.7886 43.0829 22.2302 41.5868 22.958C41.5868 22.958 41.5868 22.958 41.5841 22.958C41.4677 24.3174 41.1999 25.7383 40.7021 27.1538C40.1907 28.5988 39.4846 29.9047 38.6973 31.066Z" fill="#855D99"/>
<path d="M40.4096 23.5808C40.4096 23.5808 40.4069 23.5808 40.4042 23.5835C40.3961 23.637 40.388 23.6932 40.3799 23.7467C40.388 23.6905 40.4015 23.6343 40.4096 23.5781V23.5808Z" fill="#855D99"/>
<path d="M37.3226 31.1016C37.2739 31.1685 37.2225 31.2327 37.1738 31.2969C37.2252 31.23 37.2739 31.1685 37.3226 31.1016Z" fill="#855D99"/>
<path d="M35.3717 33.3672C35.3473 33.3913 35.323 33.4207 35.2959 33.4448C35.3202 33.4207 35.3446 33.3939 35.3717 33.3672Z" fill="#855D99"/>
<path d="M38.2481 29.7305C38.2021 29.8081 38.1534 29.883 38.1074 29.9579C38.1561 29.883 38.2021 29.8054 38.2481 29.7305Z" fill="#855D99"/>
<path d="M36.3212 32.3477C36.2941 32.3798 36.2644 32.4092 36.2373 32.4413C36.2671 32.4092 36.2941 32.3798 36.3212 32.3477Z" fill="#855D99"/>
<path d="M39.0463 28.2656C39.0166 28.3272 38.9895 28.3914 38.957 28.4529C38.9868 28.3914 39.0138 28.3272 39.0463 28.2656Z" fill="#855D99"/>
<path d="M33.5645 37.3596C33.6023 37.3087 33.6321 37.2605 33.6727 37.207C33.6348 37.2605 33.6023 37.306 33.5645 37.3596Z" fill="#855D99"/>
<path d="M43.2963 30.4492C43.1096 30.4894 42.931 30.5482 42.7471 30.5964C42.9202 30.5509 43.1015 30.5215 43.2774 30.4813C43.2828 30.4706 43.2909 30.4599 43.2963 30.4492Z" fill="#855D99"/>
<path d="M47.5821 36.2383C47.501 36.3052 47.4171 36.3694 47.3359 36.4363C47.4171 36.3694 47.5037 36.3052 47.5821 36.2383Z" fill="#855D99"/>
<path d="M49.1758 36.2773C47.8636 37.5243 46.2673 38.7205 44.3491 39.55C42.3119 40.4277 39.9878 40.8746 37.4392 40.8746C37.0253 40.8746 36.6005 40.8612 36.1757 40.8371C35.4669 40.797 34.8149 40.7274 34.2305 40.6444C34.2359 40.6471 34.2386 40.6498 34.244 40.6525C34.3739 40.7408 34.5145 40.8344 34.6634 40.9334C34.6634 40.9334 34.6661 40.9334 34.6688 40.9361C34.9096 41.094 35.1774 41.2599 35.4588 41.4312C35.5399 41.482 35.6184 41.5302 35.705 41.581C35.7943 41.6345 35.8917 41.688 35.9836 41.7416C36.1081 41.8138 36.2299 41.8834 36.3597 41.9556C36.4517 42.0065 36.5464 42.0573 36.6438 42.1082C36.7845 42.1831 36.9306 42.2607 37.0794 42.3356C37.1741 42.3838 37.2688 42.432 37.3662 42.4801C37.5285 42.5604 37.6935 42.6407 37.8613 42.7183C37.9533 42.7611 38.0453 42.8066 38.1427 42.8494C38.332 42.935 38.5295 43.0207 38.727 43.1063C38.8055 43.1411 38.884 43.1759 38.9651 43.208C39.5333 43.4408 40.1285 43.6629 40.7481 43.8582C40.8238 43.8823 40.9023 43.9037 40.9808 43.9278C41.2134 43.9974 41.4488 44.0669 41.6869 44.1312C41.7951 44.1606 41.9033 44.1847 42.0116 44.2114C42.2253 44.265 42.4417 44.3158 42.6636 44.3613C42.7853 44.388 42.9071 44.4121 43.0288 44.4335C43.2426 44.4737 43.4617 44.5111 43.6809 44.5433C43.8053 44.562 43.9298 44.5807 44.0569 44.5994C44.2896 44.6289 44.5277 44.653 44.7658 44.6744C44.8767 44.6851 44.9876 44.6958 45.1013 44.7038C45.4503 44.7279 45.8047 44.7413 46.1591 44.7413C49.9604 44.7413 53.3829 43.3418 55.5852 42.167C56.8595 41.4874 57.8497 40.8237 58.4584 40.3875C58.6559 40.2484 58.8264 40.12 58.9698 40.0129C58.8345 39.9112 58.6613 39.7855 58.472 39.649C58.4422 39.6276 58.4097 39.6062 58.3773 39.5821C58.1662 39.4322 57.9282 39.269 57.6576 39.0924C57.3789 38.9104 57.0705 38.7178 56.735 38.5171L49.1839 36.2773H49.1758Z" fill="#855D99"/>
<path d="M46.5946 37.0039C46.4809 37.0842 46.3673 37.1645 46.251 37.2447C46.3673 37.1645 46.4809 37.0869 46.5946 37.0039Z" fill="#855D99"/>
<path d="M45.466 37.7383C45.3496 37.8079 45.236 37.8801 45.1143 37.947C45.2333 37.8801 45.3469 37.8079 45.466 37.7383Z" fill="#855D99"/>
<path d="M49.7872 35.6914C49.5978 35.8867 49.3814 36.0794 49.1758 36.2748L56.7269 38.5145C55.0089 37.4896 52.5793 36.3015 49.7872 35.6914Z" fill="#855D99"/>
<path d="M27.2803 17.2343C27.3127 17.0229 27.3479 16.8142 27.3831 16.6055C27.3479 16.8142 27.3127 17.0202 27.2803 17.2343Z" fill="white"/>
<path d="M29.9883 7.62097C30.0235 7.53802 30.0559 7.45774 30.0884 7.38281C30.0559 7.46041 30.0207 7.54069 29.9883 7.62097Z" fill="white"/>
<path d="M28.8115 10.8149C28.8629 10.6517 28.917 10.4938 28.9684 10.3359C28.917 10.4911 28.8629 10.6517 28.8115 10.8149Z" fill="white"/>
<path d="M29.377 9.18513C29.4527 8.97908 29.5258 8.78374 29.6015 8.59375C29.5285 8.78374 29.4527 8.97908 29.377 9.18513Z" fill="white"/>
<path d="M33.3994 15.5C33.4265 15.6338 33.4508 15.7703 33.4752 15.9067C33.4508 15.7703 33.4238 15.6338 33.3994 15.5Z" fill="white"/>
<path d="M27.9023 14.0557C28.0701 13.3439 28.2514 12.6669 28.438 12.0273C28.2514 12.6696 28.0701 13.3466 27.9023 14.0557Z" fill="white"/>
<path d="M29.084 9.99867C29.1354 9.8515 29.1868 9.70165 29.2355 9.5625C29.1841 9.70432 29.1327 9.8515 29.084 9.99867Z" fill="white"/>
<path d="M28.5381 11.6844C28.5922 11.5078 28.6436 11.3392 28.6977 11.168C28.6436 11.3366 28.5922 11.5078 28.5381 11.6844Z" fill="white"/>
<path d="M30.7809 37.6445C30.6781 37.8827 30.578 38.1048 30.4941 38.2868C30.578 38.1021 30.6781 37.8827 30.7809 37.6445Z" fill="white"/>
<path d="M31.184 36.6797C31.0595 36.9847 30.9459 37.2604 30.835 37.5146C30.9432 37.2604 31.0595 36.9874 31.184 36.6797Z" fill="white"/>
<path d="M20.2021 43.8516C20.1155 43.8783 20.029 43.9024 19.9424 43.9292C20.029 43.9024 20.1182 43.8783 20.2021 43.8516Z" fill="white"/>
<path d="M16.1685 44.6719C16.0576 44.6826 15.9466 44.696 15.833 44.7013C15.9466 44.6933 16.0576 44.6799 16.1685 44.6719Z" fill="white"/>
<path d="M1.97754 40.0109C2.11011 39.9092 2.28056 39.7861 2.46994 39.6523C2.28326 39.7861 2.11011 39.9119 1.97754 40.0109Z" fill="white"/>
<path d="M17.256 44.543C17.1315 44.5617 17.007 44.5804 16.8799 44.5992C17.007 44.5831 17.1315 44.5617 17.256 44.543Z" fill="white"/>
<path d="M4.31002 38.4546C3.93666 38.6767 3.59576 38.8907 3.29004 39.0888C3.59847 38.8881 3.94748 38.6713 4.32625 38.4492L4.31273 38.4546H4.31002Z" fill="white"/>
<path d="M25.248 41.5742C25.1533 41.6304 25.0505 41.6866 24.9531 41.7428C25.0532 41.6866 25.1533 41.6304 25.248 41.5742Z" fill="white"/>
<path d="M26.7039 40.6484C26.3657 40.8812 25.9599 41.1408 25.5107 41.4164C25.9653 41.1408 26.3657 40.8812 26.7039 40.6484Z" fill="white"/>
<path d="M19.2608 44.125C19.1472 44.1544 19.0336 44.1812 18.9199 44.2106C19.0336 44.1839 19.1472 44.1544 19.2608 44.125Z" fill="white"/>
<path d="M23.8765 42.3281C23.7764 42.379 23.6763 42.4298 23.5762 42.4807C23.679 42.4298 23.7791 42.379 23.8765 42.3281Z" fill="white"/>
<path d="M11.0952 35.707C8.38161 36.3091 6.01157 37.4491 4.3125 38.4552L4.32603 38.4498C6.0251 37.4464 8.38702 36.3064 11.0952 35.707Z" fill="white"/>
<path d="M16.1143 26.6888C16.0385 26.4213 15.9736 26.1617 15.9141 25.9102C15.9736 26.1644 16.0412 26.4213 16.1143 26.6888Z" fill="white"/>
<path d="M15.6699 21.5547C15.7836 21.5868 15.908 21.6243 16.0433 21.6644C15.9107 21.6243 15.7836 21.5868 15.6699 21.5547Z" fill="white"/>
<path d="M44.7413 26.9766C44.6575 27.2602 44.5628 27.5519 44.46 27.8462C44.5628 27.5519 44.6575 27.2629 44.7413 26.9766Z" fill="white"/>
<path d="M41.5869 22.9595C43.0804 22.2317 44.4277 21.7902 45.2637 21.5547C44.4304 21.7875 43.0831 22.2317 41.5869 22.9595Z" fill="white"/>
<path d="M44.3764 28.0859C44.2411 28.4579 44.0923 28.8325 43.9219 29.2125C44.0923 28.8352 44.2411 28.4579 44.3764 28.0859Z" fill="white"/>
<path d="M38.9539 43.2072C38.8727 43.175 38.797 43.1403 38.7158 43.1055C38.7943 43.1403 38.8727 43.175 38.9539 43.2072Z" fill="white"/>
<path d="M38.1339 42.8499C38.0392 42.8071 37.9472 42.7616 37.8525 42.7188C37.9445 42.7616 38.0365 42.8071 38.1339 42.8499Z" fill="white"/>
<path d="M34.6606 40.9294C34.5118 40.8331 34.3738 40.7394 34.2412 40.6484C34.3738 40.7394 34.5091 40.8304 34.6606 40.9294Z" fill="white"/>
<path d="M40.97 43.925C40.8942 43.901 40.8131 43.8796 40.7373 43.8555C40.8131 43.8796 40.8915 43.901 40.97 43.925Z" fill="white"/>
<path d="M36.6386 42.1057C36.5439 42.0548 36.4465 42.004 36.3545 41.9531C36.4465 42.004 36.5412 42.0548 36.6386 42.1057Z" fill="white"/>
<path d="M35.9779 41.7387C35.8859 41.6852 35.7885 41.6316 35.6992 41.5781C35.7885 41.6316 35.8832 41.6852 35.9779 41.7387Z" fill="white"/>
<path d="M35.4531 41.4286C35.1717 41.2574 34.9039 41.0915 34.6631 40.9336C34.9039 41.0915 35.169 41.2574 35.4531 41.4286Z" fill="white"/>
<path d="M44.046 44.5953C43.9188 44.5792 43.7944 44.5605 43.6699 44.5391C43.7944 44.5578 43.9188 44.5765 44.046 44.5953Z" fill="white"/>
<path d="M58.4639 39.6445C58.656 39.781 58.8291 39.9068 58.9617 40.0085C58.8264 39.9068 58.6533 39.781 58.4639 39.6445Z" fill="white"/>
<path d="M45.0904 44.7013C44.9767 44.6933 44.8685 44.6799 44.7549 44.6719C44.8658 44.6826 44.9767 44.6933 45.0904 44.7013Z" fill="white"/>
<path d="M42.0034 44.2092C41.8952 44.1824 41.7842 44.1557 41.6787 44.1289C41.7869 44.1583 41.8952 44.1824 42.0034 44.2092Z" fill="white"/>
<path d="M43.0205 44.4355C42.8988 44.4114 42.777 44.3874 42.6553 44.3633C42.777 44.39 42.8988 44.4141 43.0205 44.4355Z" fill="white"/>
<path d="M57.6464 39.0883C57.3705 38.9063 57.062 38.7136 56.7266 38.5156C57.062 38.7136 57.3705 38.909 57.6491 39.0883H57.6464Z" fill="white"/>
<path d="M24.2031 37.8555C24.6712 38.1043 25.1284 38.3719 25.5775 38.6449C25.1284 38.3692 24.6712 38.1043 24.2031 37.8555Z" fill="#A30A71"/>
<path d="M22.3477 35.4035C22.3017 35.3714 22.253 35.3446 22.207 35.3125C22.2557 35.3446 22.3017 35.374 22.3477 35.4035Z" fill="#A30A71"/>
<path d="M24.7528 36.7567C24.6825 36.7219 24.6094 36.6871 24.5391 36.6523C24.6121 36.6871 24.6825 36.7219 24.7528 36.7567Z" fill="#A30A71"/>
<path d="M25.8863 37.261C25.8295 37.2369 25.7726 37.2155 25.7158 37.1914C25.7753 37.2155 25.8295 37.2369 25.8863 37.261Z" fill="#A30A71"/>
<path d="M19.8827 34.9066C19.209 34.3179 18.5624 33.657 17.9753 32.9184C17.2962 32.0621 16.7416 31.1523 16.287 30.2345C16.0381 30.1997 15.7811 30.1836 15.5268 30.1595C15.1805 30.1247 14.8396 30.0819 14.4851 30.0686C13.8385 30.0418 13.1784 30.0445 12.5047 30.0819C10.7867 30.1783 9.39335 30.4619 8.66016 30.6385C8.72509 30.7536 8.79814 30.882 8.88472 31.0239C9.20938 31.5697 9.7586 32.4207 10.5134 33.376C10.6514 33.5499 10.8056 33.7346 10.9626 33.9219C11.1168 34.1038 11.2818 34.2885 11.455 34.4758C11.4577 34.4785 11.4631 34.4838 11.4658 34.4865C12.5264 34.2885 13.6383 34.1734 14.7855 34.1734C16.5873 34.1734 18.3053 34.4624 19.8854 34.9066H19.8827Z" fill="#A30A71"/>
<path d="M21.1654 34.5448C21.095 34.4886 21.0274 34.4351 20.957 34.3789C21.0274 34.4351 21.095 34.4913 21.1654 34.5448Z" fill="#A30A71"/>
<path d="M18.8387 32.249C18.6087 31.96 18.4004 31.663 18.2002 31.3633C18.3977 31.663 18.6087 31.96 18.8387 32.249Z" fill="#A30A71"/>
<path d="M27.623 37.8906C27.642 37.896 27.6663 37.9067 27.6853 37.912C27.6663 37.9067 27.6447 37.8987 27.623 37.8933V37.8906Z" fill="#A30A71"/>
<path d="M26.8844 39.5052C26.86 39.4891 26.8329 39.4731 26.8086 39.457C26.8329 39.4731 26.8573 39.4891 26.8816 39.5052H26.8844Z" fill="#A30A71"/>
<path d="M26.8094 39.4557C26.409 39.1774 26.0004 38.9044 25.5784 38.6449C25.1293 38.3693 24.672 38.1043 24.204 37.8555C22.0017 36.6808 18.5765 35.2812 14.7833 35.2812C14.3802 35.2812 13.9825 35.2973 13.5875 35.3294C13.5821 35.3294 13.5794 35.3294 13.574 35.3294C13.1844 35.3588 12.7975 35.4043 12.416 35.4605C12.416 35.4605 12.4187 35.4632 12.4214 35.4659C12.6974 35.7281 12.9923 35.9904 13.3007 36.2473C13.3765 36.3115 13.4603 36.3757 13.5388 36.4399C13.7796 36.6353 14.0312 36.8253 14.2909 37.0126C14.3992 37.0902 14.5074 37.1651 14.6183 37.2427C14.8753 37.4193 15.1459 37.5852 15.4191 37.7484C15.5301 37.8153 15.6383 37.8822 15.7546 37.9465C16.1442 38.1632 16.5446 38.3693 16.9667 38.5512C19.1717 39.5038 21.7879 39.9106 24.6342 39.75C25.0535 39.7259 25.4539 39.6912 25.83 39.6483C25.83 39.6483 25.8327 39.6483 25.8354 39.6483C26.2115 39.6055 26.5632 39.5574 26.8852 39.5065C26.8608 39.4905 26.8365 39.4744 26.8121 39.4584L26.8094 39.4557Z" fill="#A30A71"/>
<path d="M27.6725 37.8921C27.5642 37.7289 27.4398 37.5523 27.3126 37.373C27.2693 37.3114 27.2315 37.2552 27.1855 37.191C27.015 36.9555 26.831 36.7094 26.6281 36.4551C25.3132 34.7988 23.1272 32.5537 20.1728 31.2799C19.6885 31.0712 19.1771 30.8999 18.655 30.7447C18.4791 30.6939 18.3005 30.6457 18.1193 30.6002C17.9732 30.5628 17.8189 30.536 17.6729 30.5039C17.8379 30.7956 18.011 31.0846 18.2004 31.3682C18.4006 31.6679 18.609 31.965 18.8389 32.254C19.142 32.6366 19.4666 32.9898 19.8021 33.3297C19.8562 33.3859 19.9103 33.4421 19.9644 33.4956C20.2864 33.8113 20.6192 34.1057 20.9574 34.384C21.025 34.4402 21.0953 34.4964 21.1657 34.5499C21.5093 34.8228 21.8556 35.0797 22.2073 35.3179C22.2533 35.35 22.302 35.3794 22.348 35.4089C22.6862 35.631 23.0244 35.8397 23.3626 36.035C23.4086 36.0618 23.4573 36.0912 23.5033 36.118C23.8523 36.316 24.1986 36.4926 24.5395 36.6612C24.6098 36.696 24.6829 36.7308 24.7532 36.7656C25.0833 36.9234 25.4052 37.0679 25.7164 37.1964C25.7732 37.2205 25.83 37.2419 25.8868 37.2659C26.2034 37.3944 26.5118 37.5148 26.7959 37.6192C26.7959 37.6192 26.7986 37.6192 26.8013 37.6192C27.0989 37.7262 27.3722 37.8172 27.6238 37.8948C27.6427 37.9001 27.6643 37.9082 27.686 37.9135C27.6806 37.9055 27.6779 37.9001 27.6725 37.8948V37.8921Z" fill="#A30A71"/>
<path d="M13.5875 35.332C13.9825 35.3026 14.3802 35.2838 14.7833 35.2838C18.5792 35.2838 22.0017 36.6833 24.204 37.8581C24.672 38.1069 25.1292 38.3718 25.5784 38.6475C26.0004 38.907 26.409 39.18 26.8094 39.4583C26.8337 39.4743 26.8608 39.4904 26.8851 39.5064C27.5588 39.3994 28.108 39.2816 28.4814 39.1907C28.4165 39.0783 28.3434 38.9498 28.2568 38.8107C28.1107 38.5672 27.9159 38.2568 27.686 37.9116C27.667 37.9062 27.6427 37.8955 27.6237 37.8902C27.3694 37.8099 27.0989 37.7216 26.8013 37.6146C26.8013 37.6146 26.7985 37.6146 26.7958 37.6146C26.5118 37.5129 26.2033 37.3925 25.8868 37.2613C25.83 37.2372 25.7759 37.2158 25.7163 37.1918C25.4052 37.0606 25.0832 36.9161 24.7532 36.7609C24.6828 36.7261 24.6125 36.6914 24.5394 36.6566C24.1985 36.4907 23.8549 36.3114 23.5032 36.1134C23.4572 36.0866 23.4085 36.0572 23.3625 36.0304C23.0243 35.8377 22.6862 35.629 22.348 35.4042C22.2993 35.3721 22.2533 35.3454 22.2073 35.3133C21.8556 35.0751 21.5093 34.8182 21.1657 34.5453C21.0953 34.4891 21.0277 34.4356 20.9573 34.3794C20.6191 34.1011 20.2864 33.8067 19.9644 33.491C19.9103 33.4374 19.8562 33.3813 19.8021 33.3251C19.4666 32.9852 19.1419 32.632 18.8389 32.2493C18.6089 31.9603 18.3979 31.666 18.2004 31.3636C18.011 31.08 17.8379 30.791 17.6728 30.4993C17.2183 30.3949 16.7611 30.2986 16.2849 30.2344C16.7394 31.1522 17.294 32.062 17.9731 32.9183C18.5602 33.6569 19.2069 34.3178 19.8805 34.9065C18.3005 34.4623 16.5825 34.1733 14.7806 34.1733C13.6335 34.1733 12.5242 34.2884 11.4609 34.4864C11.7531 34.8075 12.067 35.134 12.4106 35.4604C12.7921 35.4042 13.1762 35.3614 13.5685 35.332C13.574 35.332 13.5767 35.332 13.5821 35.332H13.5875Z" fill="#A30A71"/>
<path d="M11.4524 34.4719C11.2819 34.2846 11.1169 34.0973 10.96 33.918C11.1142 34.0999 11.2792 34.2846 11.4524 34.4719Z" fill="#A30A71"/>
<path d="M14.4854 30.0664C14.8398 30.0825 15.1807 30.1253 15.527 30.1574C15.1807 30.1253 14.8425 30.0798 14.4854 30.0664Z" fill="#A30A71"/>
<path d="M13.574 35.3308C13.1817 35.3602 12.7975 35.4057 12.416 35.4592C12.7975 35.403 13.1844 35.3602 13.574 35.3281V35.3308Z" fill="#A30A71"/>
<path d="M15.419 37.7479C15.143 37.5847 14.8752 37.4188 14.6182 37.2422C14.8779 37.4188 15.1457 37.5847 15.419 37.7479Z" fill="#A30A71"/>
<path d="M25.5781 38.6445C25.9975 38.9041 26.4087 39.177 26.8091 39.4553C26.4087 39.177 26.0002 38.9041 25.5781 38.6445Z" fill="#A30A71"/>
<path d="M27.6233 37.8928C27.3716 37.8125 27.0984 37.7242 26.8008 37.6172C27.0984 37.7242 27.3689 37.8152 27.6233 37.8928Z" fill="#A30A71"/>
<path d="M26.7958 37.611C26.5117 37.5093 26.2033 37.3889 25.8867 37.2578C26.2033 37.3863 26.5117 37.5067 26.7958 37.611Z" fill="#A30A71"/>
<path d="M18.1221 30.5977C18.3006 30.6431 18.4819 30.6913 18.6578 30.7422C18.4819 30.6886 18.3033 30.6431 18.1221 30.5977Z" fill="#A30A71"/>
<path d="M27.3154 37.3711C27.4426 37.5504 27.567 37.727 27.6753 37.8902C27.567 37.727 27.4426 37.5531 27.3154 37.3711Z" fill="#A30A71"/>
<path d="M23.3622 36.0285C23.0267 35.8358 22.6858 35.6271 22.3477 35.4023C22.6858 35.6271 23.024 35.8332 23.3622 36.0285Z" fill="#A30A71"/>
<path d="M25.7161 37.1886C25.405 37.0602 25.083 36.913 24.7529 36.7578C25.083 36.9157 25.405 37.0602 25.7161 37.1886Z" fill="#A30A71"/>
<path d="M17.6748 30.5C17.8398 30.7917 18.013 31.0807 18.2024 31.3643C18.0157 31.0807 17.8398 30.7917 17.6748 30.5Z" fill="#A30A71"/>
<path d="M24.5391 36.6565C24.1982 36.4906 23.8546 36.3113 23.5029 36.1133C23.8546 36.3113 24.1982 36.4879 24.5391 36.6565Z" fill="#A30A71"/>
<path d="M26.5447 29.6482L26.541 29.6445L26.5447 29.6482Z" fill="#A30A71"/>
<path d="M27.1254 26.351C27.1092 26.2092 27.0875 26.0754 27.0713 25.9336C27.0875 26.0754 27.1092 26.2119 27.1254 26.351Z" fill="#A30A71"/>
<path d="M23.9678 26.1367C24.0165 26.1849 24.0652 26.2357 24.1139 26.2866C24.0652 26.2384 24.0165 26.1849 23.9678 26.1367Z" fill="#A30A71"/>
<path d="M26.877 22.3778C26.877 21.9523 26.8878 21.5295 26.904 21.1094C26.8878 21.5268 26.877 21.9496 26.877 22.3778Z" fill="#A30A71"/>
<path d="M22.7559 25.0742C22.8181 25.1251 22.883 25.1732 22.9452 25.2267C22.883 25.1759 22.8208 25.1251 22.7559 25.0742Z" fill="#A30A71"/>
<path d="M27.5775 29.2365C27.5775 29.2365 27.5775 29.2391 27.5775 29.2418C27.5775 29.2311 27.572 29.2204 27.5693 29.207C27.5693 29.2177 27.572 29.2258 27.5747 29.2365H27.5775Z" fill="#A30A71"/>
<path d="M25.9704 26.7209C26.0083 26.7691 26.0462 26.82 26.0841 26.8708C25.9001 25.4392 25.7892 23.9353 25.7892 22.3806C25.7892 21.0988 25.8649 19.8519 25.9948 18.6504C25.9948 18.6504 25.9948 18.6504 25.9948 18.6477C24.8991 17.3766 23.7573 16.3651 22.8401 15.6426C22.8212 15.6293 22.8023 15.6132 22.7833 15.5998C22.6291 15.4794 22.4857 15.3697 22.345 15.2653C22.3153 15.2439 22.2828 15.2199 22.253 15.1958C22.1286 15.1048 22.0123 15.0218 21.904 14.9442C21.8743 14.9228 21.8445 14.9014 21.8175 14.8827C21.6903 14.7944 21.5713 14.7141 21.4712 14.6445C21.4225 14.7864 21.371 14.9469 21.3142 15.1289C21.1113 15.7791 20.8272 16.8147 20.6135 18.0751C20.5648 18.356 20.5215 18.6557 20.4809 18.9715C20.4755 19.0223 20.4701 19.0785 20.4647 19.1294C20.4322 19.3996 20.4025 19.6753 20.3781 19.9669C20.3727 20.0204 20.3727 20.0793 20.3673 20.1328C20.3457 20.4272 20.3267 20.7269 20.3186 21.0373C20.3186 21.1015 20.3186 21.1711 20.3186 21.238C20.3132 21.5404 20.3105 21.8454 20.3186 22.1612C20.3186 22.1772 20.3186 22.1933 20.3186 22.2093C22.2395 23.2021 24.3282 24.6471 25.9731 26.7183L25.9704 26.7209Z" fill="#A30A71"/>
<path d="M29.3166 34.3043C29.3707 34.0796 29.4275 33.8414 29.4816 33.5872C29.5411 33.3036 29.598 33.0038 29.6521 32.6908C30.0254 30.4858 30.2446 27.1864 29.1543 23.9994C29.0325 23.6408 28.8945 23.2956 28.7457 22.9558C28.7024 22.8594 28.6564 22.7658 28.6131 22.6695C28.4995 22.4233 28.3832 22.1798 28.2587 21.9443C28.21 21.8506 28.1586 21.757 28.1072 21.666C27.9719 21.4225 27.8313 21.1816 27.6852 20.9488C27.6446 20.8819 27.604 20.815 27.5607 20.7508C27.374 20.4592 27.1792 20.1728 26.9817 19.8999C26.9817 19.8999 26.9817 19.8972 26.979 19.8945C26.9493 20.2986 26.9222 20.7053 26.906 21.1174C26.8897 21.5375 26.8789 21.9577 26.8789 22.3858C26.8789 22.9959 26.8978 23.598 26.9303 24.1894C26.9384 24.3366 26.9547 24.4784 26.9655 24.6256C26.9952 25.0671 27.0277 25.5113 27.0737 25.9394C27.0899 26.0813 27.1116 26.2177 27.1278 26.3569C27.1792 26.7823 27.2306 27.2078 27.2929 27.6199C27.3118 27.743 27.3361 27.8607 27.3551 27.9812C27.4227 28.3986 27.4931 28.816 27.5715 29.2147C27.5715 29.2255 27.5769 29.2362 27.5796 29.2495C28.4806 31.013 29.0027 32.8139 29.3004 34.3819C29.3058 34.3605 29.3112 34.3338 29.3166 34.3124V34.3043Z" fill="#A30A71"/>
<path d="M26.5438 29.649C26.3598 29.2878 26.1542 28.9319 25.9351 28.5787C25.9134 28.5466 25.8972 28.5118 25.8755 28.4797C25.6402 28.1104 25.3858 27.7438 25.1072 27.3906C24.796 26.9972 24.4605 26.636 24.1169 26.2881C24.0682 26.2399 24.0195 26.1864 23.9708 26.1382C23.6408 25.8145 23.2972 25.5094 22.9455 25.2258C22.8832 25.1749 22.821 25.1241 22.7561 25.0732C22.4044 24.7949 22.0445 24.5327 21.6847 24.2892C21.636 24.2571 21.5846 24.225 21.5359 24.1928C21.1598 23.9467 20.7837 23.7165 20.4131 23.5078C20.4401 23.7701 20.4699 24.0323 20.5105 24.2972C20.524 24.3882 20.543 24.4792 20.5592 24.5675C20.6052 24.8377 20.6593 25.1107 20.7242 25.381C20.7486 25.488 20.7756 25.5977 20.8027 25.7047C20.892 26.058 20.9894 26.4112 21.1111 26.7617C21.2924 27.2916 21.5088 27.7946 21.7415 28.2843C21.7686 28.3432 21.7956 28.4047 21.8254 28.4636C22.0526 28.9212 22.3015 29.36 22.5613 29.7802C22.6073 29.8551 22.656 29.9327 22.702 30.0076C22.9617 30.4144 23.2349 30.8024 23.5163 31.1743C23.5704 31.2439 23.6245 31.3135 23.6787 31.383C23.9654 31.7496 24.2576 32.1029 24.5525 32.432C24.5958 32.4802 24.6391 32.5257 24.6824 32.5738C25.3236 33.2722 25.9648 33.885 26.56 34.4015C26.5817 34.4202 26.6033 34.4416 26.625 34.4577C26.9253 34.7146 27.2121 34.95 27.4799 35.1588C27.4934 35.1695 27.5097 35.1828 27.5232 35.1935C27.7938 35.4049 28.0454 35.5923 28.2672 35.7501C27.6639 34.0911 27.0227 32.0119 26.5438 29.6437V29.649Z" fill="#A30A71"/>
<path d="M20.373 19.9665C20.3974 19.6775 20.4272 19.3992 20.4596 19.1289C20.4272 19.3992 20.3974 19.6748 20.373 19.9665Z" fill="#A30A71"/>
<path d="M20.4756 18.9707C20.5162 18.6549 20.5622 18.3552 20.6082 18.0742C20.5595 18.3552 20.5162 18.6549 20.4756 18.9707Z" fill="#A30A71"/>
<path d="M22.3418 15.2617C22.4798 15.3661 22.6259 15.4758 22.7801 15.5962C22.6259 15.4758 22.4825 15.3661 22.3418 15.2617Z" fill="#A30A71"/>
<path d="M20.3127 22.1615C20.3046 21.8484 20.3046 21.5407 20.3127 21.2383C20.3073 21.5407 20.3046 21.8457 20.3127 22.1615Z" fill="#A30A71"/>
<path d="M25.9896 18.6457C24.8939 17.3719 23.7548 16.3631 22.835 15.6406C23.7521 16.3631 24.8939 17.3746 25.9896 18.6457Z" fill="#A30A71"/>
<path d="M21.4658 14.6445C21.5659 14.7114 21.685 14.7917 21.8121 14.8827C21.685 14.7944 21.5659 14.7141 21.4658 14.6445Z" fill="#A30A71"/>
<path d="M21.5329 24.1968C21.5816 24.229 21.633 24.2611 21.6817 24.2932C22.0443 24.534 22.4014 24.7962 22.7531 25.0772C22.8153 25.1281 22.8776 25.1762 22.9425 25.2297C23.2942 25.5161 23.6351 25.8184 23.9679 26.1422C24.0166 26.1904 24.0653 26.2412 24.114 26.2921C24.4576 26.64 24.7931 27.0012 25.1042 27.3946C25.3856 27.7478 25.6372 28.1144 25.8726 28.4837C25.8942 28.5158 25.9105 28.5506 25.9321 28.5827C26.154 28.9359 26.3542 29.2918 26.5408 29.6504C27.5148 31.5342 28.0235 33.4609 28.2778 34.9219C28.3346 35.2537 28.3806 35.5668 28.4185 35.8665C28.5565 35.9628 28.6836 36.0512 28.7918 36.1234C28.8405 35.9816 28.8919 35.8183 28.9488 35.6391C29.0083 35.4464 29.0759 35.2056 29.149 34.9487C29.0759 34.7373 28.9948 34.5339 28.9217 34.3225C28.4645 32.9605 27.9667 31.2238 27.5771 29.2463C27.5771 29.2463 27.5771 29.2436 27.5771 29.2409C27.5771 29.2302 27.5744 29.2222 27.5716 29.2115C27.4932 28.8128 27.4228 28.398 27.3552 27.9779C27.3363 27.8548 27.3119 27.7398 27.293 27.6167C27.2307 27.2046 27.1766 26.7818 27.1279 26.3536C27.1117 26.2118 27.0901 26.078 27.0738 25.9362C27.0278 25.5054 26.9954 25.0638 26.9656 24.6223C26.9548 24.4751 26.9386 24.3333 26.9304 24.1861C26.898 23.5948 26.879 22.9927 26.879 22.3826C26.879 21.9571 26.8871 21.5343 26.9061 21.1142C26.9223 20.7021 26.9467 20.2954 26.9791 19.8913C26.6599 19.4524 26.3298 19.043 25.9943 18.6523C25.8645 19.8512 25.7887 21.0981 25.7887 22.3826C25.7887 23.9373 25.8996 25.4385 26.0836 26.8728C26.0457 26.8246 26.0106 26.7738 25.97 26.7229C24.3277 24.6517 22.2391 23.2068 20.3154 22.214C20.329 22.6395 20.3614 23.073 20.4074 23.5118C20.7808 23.7205 21.1568 23.9507 21.5302 24.1968H21.5329Z" fill="#A30A71"/>
<path d="M27.0711 25.9311C27.0251 25.5002 26.9927 25.0587 26.9629 24.6172C26.9927 25.0587 27.0251 25.5029 27.0711 25.9311Z" fill="#A30A71"/>
<path d="M27.293 27.6146C27.2307 27.2052 27.1766 26.7797 27.1279 26.3516C27.1793 26.777 27.2307 27.2025 27.293 27.6146Z" fill="#A30A71"/>
<path d="M27.5719 29.2063C27.4935 28.8075 27.4231 28.3901 27.3555 27.9727C27.4231 28.3901 27.4935 28.8049 27.5719 29.2063Z" fill="#A30A71"/>
<path d="M29.4824 33.5859C29.4283 33.8401 29.3742 34.0783 29.3174 34.3031C29.3715 34.0756 29.4283 33.8401 29.4824 33.5859Z" fill="#A30A71"/>
<path d="M27.5801 29.2383C27.9724 31.2158 28.4675 32.9525 28.9247 34.3145C28.9951 34.5286 29.0762 34.7319 29.152 34.9407C29.2007 34.7614 29.2521 34.5767 29.3008 34.3707C29.0005 32.8026 28.481 31.0017 27.5801 29.2383Z" fill="#A30A71"/>
<path d="M28.7461 22.9531C28.8949 23.293 29.0329 23.6408 29.1546 23.9967C29.0329 23.6382 28.8922 23.293 28.7461 22.9531Z" fill="#A30A71"/>
<path d="M26.9764 19.8906C26.9466 20.2947 26.9196 20.7014 26.9033 21.1135C26.9196 20.7014 26.9439 20.2947 26.9764 19.8906Z" fill="#A30A71"/>
<path d="M26.9795 19.8945C27.1797 20.1675 27.3718 20.4538 27.5585 20.7455C27.3718 20.4538 27.177 20.1675 26.9795 19.8945Z" fill="#A30A71"/>
<path d="M27.6855 20.9453C27.8316 21.1781 27.9723 21.4189 28.1076 21.6625C27.9723 21.4163 27.8316 21.1781 27.6855 20.9453Z" fill="#A30A71"/>
<path d="M28.2568 21.9414C28.3813 22.1769 28.5003 22.4204 28.6113 22.6666C28.4976 22.4204 28.3813 22.1769 28.2568 21.9414Z" fill="#A30A71"/>
<path d="M25.1045 27.3906C25.3859 27.7438 25.6402 28.1104 25.8729 28.4797C25.6348 28.1104 25.3832 27.7438 25.1045 27.3906Z" fill="#A30A71"/>
<path d="M21.7359 28.2882C21.5005 27.7985 21.284 27.2928 21.1055 26.7656C21.2867 27.2955 21.5032 27.7985 21.7359 28.2882Z" fill="#A30A71"/>
<path d="M22.5562 29.7853C22.2938 29.3625 22.0476 28.9263 21.8203 28.4688C22.0476 28.9263 22.2938 29.3652 22.5562 29.7853Z" fill="#A30A71"/>
<path d="M20.7972 25.7105C20.7702 25.6035 20.7431 25.4938 20.7188 25.3867C20.7431 25.4938 20.7702 25.6008 20.7972 25.7105Z" fill="#A30A71"/>
<path d="M26.5439 29.6484C27.0228 32.0139 27.664 34.0958 28.2674 35.7549C28.0455 35.597 27.7939 35.4097 27.5233 35.1983C27.8615 35.4605 28.1673 35.6853 28.4216 35.8646C28.3837 35.5649 28.3377 35.2518 28.2809 34.92C28.0239 33.4563 27.5179 31.5323 26.5439 29.6484Z" fill="#A30A71"/>
<path d="M20.4102 23.5117C20.7835 23.7204 21.1596 23.9532 21.5329 24.1968C21.1569 23.9506 20.7808 23.7204 20.4102 23.5117Z" fill="#A30A71"/>
<path d="M20.5565 24.571C20.5403 24.4801 20.5213 24.3891 20.5078 24.3008C20.5213 24.3918 20.5403 24.4827 20.5565 24.571Z" fill="#A30A71"/>
<path d="M27.477 35.1659C27.2092 34.9572 26.9224 34.7244 26.6221 34.4648C26.9224 34.7244 27.2092 34.9545 27.477 35.1659Z" fill="#A30A71"/>
<path d="M25.9326 28.5781C26.1518 28.9313 26.3547 29.2872 26.5414 29.6458C26.3547 29.2872 26.1545 28.9313 25.9326 28.5781Z" fill="#A30A71"/>
<path d="M24.6797 32.5781C25.3209 33.2792 25.9621 33.8893 26.5573 34.4058C25.9621 33.8893 25.3182 33.2765 24.6797 32.5781Z" fill="#A30A71"/>
<path d="M22.9424 25.2266C23.2914 25.5129 23.635 25.8153 23.9678 26.1391C23.635 25.8153 23.2941 25.5129 22.9424 25.2266Z" fill="#A30A71"/>
<path d="M21.6846 24.293C22.0444 24.5338 22.4042 24.7987 22.756 25.077C22.4042 24.7987 22.0444 24.5365 21.6846 24.293Z" fill="#A30A71"/>
<path d="M33.938 25.6367C33.9245 25.7652 33.9137 25.8963 33.8975 26.0247C33.911 25.8963 33.9245 25.7678 33.938 25.6367Z" fill="#A30A71"/>
<path d="M35.0605 28.4902C35.0768 28.4661 35.0903 28.4421 35.1038 28.418C35.0876 28.4421 35.0741 28.4661 35.0605 28.4902Z" fill="#A30A71"/>
<path d="M34.0622 23.9922C34.0541 24.142 34.0433 24.2892 34.0352 24.4364C34.046 24.2865 34.0568 24.142 34.0622 23.9922Z" fill="#A30A71"/>
<path d="M36.792 26.3246C36.8461 26.2711 36.8975 26.2149 36.9489 26.1641C36.8948 26.2176 36.8434 26.2711 36.792 26.3246Z" fill="#A30A71"/>
<path d="M35.0472 19.237C35.1419 20.2565 35.196 21.3055 35.196 22.3785C35.196 23.9065 35.0877 25.3862 34.9092 26.7965C34.9281 26.7724 34.9471 26.7456 34.966 26.7215C36.5812 24.6878 38.6266 23.2535 40.5204 22.2635C40.5204 22.2554 40.5204 22.2501 40.5204 22.242C40.5367 21.9183 40.5421 21.6025 40.5421 21.2921C40.5421 21.2466 40.5448 21.1984 40.5421 21.1529C40.5421 20.8265 40.5286 20.5107 40.5123 20.2057C40.5123 20.1789 40.5123 20.1495 40.5096 20.1227C40.4934 19.815 40.4663 19.518 40.4393 19.2343C40.4393 19.2102 40.4366 19.1861 40.4339 19.1621C40.4014 18.857 40.3662 18.5653 40.3283 18.2924C40.1525 17.0668 39.9063 16.0607 39.7277 15.4292C39.6844 15.274 39.6438 15.1348 39.606 15.0117C39.5032 15.084 39.3841 15.1696 39.2542 15.2633C39.2299 15.282 39.2001 15.3034 39.1731 15.3221C39.0567 15.4078 38.935 15.4987 38.8024 15.6031C38.7781 15.6218 38.7564 15.6406 38.7321 15.6566C38.5806 15.7744 38.4209 15.9028 38.2532 16.0393C38.2451 16.0446 38.2397 16.05 38.2316 16.058C37.3009 16.826 36.1429 17.899 35.0418 19.237H35.0472Z" fill="#A30A71"/>
<path d="M33.8971 26.0216C33.9107 25.8931 33.9242 25.762 33.9377 25.6336C33.9756 25.2375 34.0081 24.8388 34.0351 24.4348C34.0432 24.2876 34.0568 24.1377 34.0622 23.9906C34.0892 23.4581 34.1082 22.9202 34.1055 22.377C34.1055 21.7642 34.0865 21.1594 34.0541 20.5627C34.0541 20.5627 34.0541 20.5574 34.0541 20.5547C33.8701 20.8223 33.6915 21.0979 33.5157 21.3815C33.5048 21.4003 33.4913 21.419 33.4805 21.4404C33.3263 21.6946 33.1775 21.9569 33.0341 22.2245C33.007 22.2753 32.98 22.3235 32.9529 22.3743C32.8257 22.6178 32.7067 22.8694 32.5904 23.1209C32.5579 23.1905 32.5227 23.26 32.493 23.3296C32.3523 23.648 32.2224 23.9718 32.1061 24.3063C30.9968 27.4505 31.1294 30.6697 31.4351 32.8211C31.4757 33.0967 31.519 33.3589 31.565 33.6105C31.5866 33.7282 31.6083 33.8379 31.6299 33.9477C31.6461 34.0279 31.6624 34.1055 31.6786 34.1831C31.9924 32.6177 32.5254 30.8329 33.4345 29.0962C33.6266 28.1168 33.7835 27.0866 33.9025 26.0216H33.8971Z" fill="#A30A71"/>
<path d="M33.4649 35.1058C33.4866 35.087 33.5082 35.071 33.5299 35.0522C33.7788 34.8462 34.0466 34.6187 34.3253 34.3699C34.3605 34.3378 34.3983 34.303 34.4335 34.2709C34.7149 34.0167 35.0017 33.7437 35.2966 33.4467C35.3209 33.4226 35.3453 33.3958 35.3723 33.3691C35.6591 33.0801 35.9486 32.7697 36.2381 32.4405C36.2651 32.4084 36.2949 32.379 36.322 32.3469C36.6087 32.0178 36.8928 31.6645 37.1742 31.2979C37.2229 31.2337 37.2743 31.1695 37.323 31.1026C37.5936 30.7387 37.856 30.356 38.1076 29.96C38.1563 29.885 38.2023 29.8074 38.2483 29.7325C38.4999 29.3231 38.738 28.8976 38.9571 28.4561C38.9869 28.3946 39.014 28.3303 39.0464 28.2688C39.2737 27.7952 39.4847 27.3108 39.6633 26.8024C39.8364 26.31 39.9717 25.815 40.0881 25.3226C40.1178 25.1995 40.1422 25.0764 40.1692 24.9533C40.2558 24.5493 40.3261 24.1452 40.3802 23.7492C40.3884 23.6957 40.3965 23.6395 40.4046 23.5859C39.6389 24.0221 38.8624 24.5386 38.113 25.1353C38.0616 25.1781 38.0075 25.2182 37.9561 25.2611C37.6125 25.542 37.277 25.8417 36.9524 26.1628C36.8982 26.2164 36.8468 26.2699 36.7954 26.3234C36.4627 26.6606 36.1407 27.0111 35.8404 27.3911C35.5752 27.7256 35.3317 28.0681 35.1099 28.416C35.0937 28.4401 35.0801 28.4641 35.0666 28.4882C34.8583 28.8174 34.6608 29.1518 34.4822 29.489C34.4822 29.489 34.4822 29.4917 34.4822 29.4944C34.0087 31.884 33.3675 33.9872 32.7588 35.665C32.9725 35.5045 33.216 35.3145 33.473 35.1058H33.4649Z" fill="#A30A71"/>
<path d="M40.334 18.2891C40.3719 18.562 40.4097 18.851 40.4395 19.1587C40.407 18.8537 40.3719 18.562 40.334 18.2891Z" fill="#A30A71"/>
<path d="M34.0539 20.5541C34.0539 20.5541 34.0539 20.5595 34.0539 20.5622C34.0864 21.1589 34.1053 21.7636 34.1053 22.3764C34.1053 22.9223 34.0864 23.4575 34.0621 23.99C34.0539 24.1399 34.0431 24.287 34.035 24.4342C34.0107 24.8383 33.9782 25.237 33.9376 25.633C33.9241 25.7615 33.9133 25.8926 33.897 26.021C33.5128 29.5185 32.6525 32.6225 31.8408 34.9292C31.9085 35.2128 31.9761 35.4724 32.0329 35.6784C32.0762 35.8309 32.1168 35.9728 32.1547 36.0959C32.2602 36.0209 32.3846 35.9326 32.5199 35.8336C32.5578 35.5419 32.6011 35.2369 32.6579 34.9158C32.9203 33.4146 33.4452 31.4237 34.4706 29.4917C34.4706 29.4917 34.4706 29.4917 34.4706 29.489C34.6492 29.1519 34.844 28.82 35.055 28.4882C35.0712 28.4641 35.0847 28.4401 35.0983 28.416C35.3228 28.0681 35.5663 27.7229 35.8288 27.3911C36.1291 27.0111 36.4537 26.6606 36.7838 26.3234C36.8379 26.2699 36.8893 26.2137 36.9407 26.1629C37.2654 25.8417 37.6009 25.5447 37.9445 25.2611C37.9959 25.2183 38.05 25.1781 38.1014 25.1353C38.8508 24.5359 39.6273 24.0221 40.393 23.5859C40.4498 23.1364 40.4904 22.6949 40.5147 22.264C38.6209 23.2568 36.5755 24.6884 34.9603 26.7221C34.9414 26.7462 34.9224 26.773 34.9035 26.797C35.082 25.3868 35.1903 23.9071 35.1903 22.3791C35.1903 21.3061 35.1334 20.2571 35.0415 19.2376C36.1426 17.8969 37.3006 16.8266 38.2313 16.0586C37.0111 17.0621 35.4067 18.5873 34.0485 20.5568L34.0539 20.5541Z" fill="#A30A71"/>
<path d="M38.2588 16.0389C38.4265 15.8998 38.5862 15.774 38.7377 15.6562C38.5862 15.774 38.4265 15.9024 38.2588 16.0389Z" fill="#A30A71"/>
<path d="M40.4453 19.2266C40.4724 19.5129 40.4994 19.8072 40.5157 20.115C40.4967 19.8072 40.4724 19.5102 40.4453 19.2266Z" fill="#A30A71"/>
<path d="M40.5176 20.1992C40.5338 20.5069 40.5446 20.8227 40.5473 21.1465C40.5473 20.82 40.5338 20.5043 40.5176 20.1992Z" fill="#A30A71"/>
<path d="M32.5908 23.1216C32.7072 22.8674 32.8262 22.6158 32.9534 22.375C32.8262 22.6185 32.7072 22.87 32.5908 23.1216Z" fill="#A30A71"/>
<path d="M34.054 20.5547C33.8701 20.8223 33.6915 21.0979 33.5156 21.3815C33.6888 21.0979 33.8673 20.8223 34.054 20.5547Z" fill="#A30A71"/>
<path d="M34.0547 20.5625C34.0872 21.1592 34.1061 21.764 34.1061 22.3768C34.1061 21.764 34.0872 21.1566 34.0547 20.5625Z" fill="#A30A71"/>
<path d="M34.1058 22.3789C34.1058 22.9248 34.0868 23.46 34.0625 23.9925C34.0896 23.46 34.1085 22.9221 34.1058 22.3789Z" fill="#A30A71"/>
<path d="M34.0359 24.4375C34.0088 24.8416 33.9791 25.243 33.9385 25.6363C33.9764 25.2403 34.0088 24.8416 34.0359 24.4375Z" fill="#A30A71"/>
<path d="M33.4317 29.0981C32.5226 30.8347 31.9896 32.6196 31.6758 34.185C31.7326 34.4553 31.7867 34.7041 31.8408 34.9316C32.6525 32.6249 33.5128 29.5209 33.897 26.0234C33.7807 27.0858 33.6211 28.116 33.429 29.0981H33.4317Z" fill="#A30A71"/>
<path d="M34.3247 34.3711C34.0488 34.62 33.7809 34.8474 33.5293 35.0535C33.7809 34.8474 34.0461 34.62 34.3247 34.3711Z" fill="#A30A71"/>
<path d="M35.2967 33.4453C35.0018 33.7423 34.7123 34.0153 34.4336 34.2695C34.715 34.0153 35.0018 33.7423 35.2967 33.4453Z" fill="#A30A71"/>
<path d="M32.7507 35.6668C33.3567 33.989 33.9979 31.8857 34.4741 29.4961C33.4487 31.4281 32.9239 33.419 32.6614 34.9202C32.6046 35.2413 32.5613 35.5463 32.5234 35.838C32.7913 35.6427 33.1105 35.3965 33.465 35.1048C33.2079 35.3135 32.9671 35.5035 32.7507 35.6641V35.6668Z" fill="#A30A71"/>
<path d="M36.2378 32.4414C35.9483 32.7679 35.6589 33.0783 35.3721 33.3699C35.6589 33.081 35.9483 32.7705 36.2378 32.4414Z" fill="#A30A71"/>
<path d="M35.835 27.3919C36.1353 27.0119 36.4599 26.6587 36.79 26.3242C36.4572 26.6614 36.1353 27.0119 35.835 27.3919Z" fill="#A30A71"/>
<path d="M35.1045 28.4194C35.3291 28.0715 35.5725 27.729 35.835 27.3945C35.5698 27.729 35.3291 28.0715 35.1045 28.4194Z" fill="#A30A71"/>
<path d="M36.9492 26.1596C37.2739 25.8412 37.6094 25.5388 37.953 25.2578C37.6094 25.5388 37.2739 25.8385 36.9492 26.1596Z" fill="#A30A71"/>
<path d="M40.38 23.75C40.3259 24.146 40.2555 24.5501 40.1689 24.9542C40.2555 24.5501 40.3259 24.1487 40.38 23.75Z" fill="#A30A71"/>
<path d="M37.1735 31.2969C36.8949 31.6635 36.6108 32.0167 36.3213 32.3458C36.6081 32.0167 36.8922 31.6635 37.1735 31.2969Z" fill="#A30A71"/>
<path d="M34.4766 29.493C34.6551 29.1558 34.8499 28.824 35.061 28.4922C34.8499 28.8213 34.6551 29.1558 34.4766 29.493Z" fill="#A30A71"/>
<path d="M40.0908 25.3203C39.9744 25.8127 39.8392 26.3051 39.666 26.8001C39.8392 26.3077 39.9744 25.8127 40.0908 25.3203Z" fill="#A30A71"/>
<path d="M38.9569 28.4531C38.7377 28.8947 38.497 29.3201 38.248 29.7295C38.4997 29.3201 38.7377 28.8947 38.9569 28.4531Z" fill="#A30A71"/>
<path d="M34.081 37.6328C34.035 37.6489 33.9945 37.6622 33.9512 37.6783C33.9972 37.6622 34.035 37.6489 34.081 37.6328Z" fill="#A30A71"/>
<path d="M35.1611 37.2148C35.0935 37.2443 35.0259 37.271 34.9609 37.2978C35.0286 37.271 35.0935 37.2443 35.1611 37.2148Z" fill="#A30A71"/>
<path d="M37.4658 36.0938C37.4442 36.1071 37.4199 36.1205 37.3955 36.1339C37.4199 36.1205 37.4415 36.1071 37.4658 36.0938Z" fill="#A30A71"/>
<path d="M33.167 37.9355C33.1859 37.9301 33.2103 37.9221 33.2292 37.9141C33.2103 37.9194 33.1886 37.9274 33.1697 37.9328L33.167 37.9355Z" fill="#A30A71"/>
<path d="M41.0566 34.9082C42.6367 34.464 44.3547 34.175 46.1566 34.175C47.2821 34.175 48.3724 34.2874 49.4167 34.4774C49.7657 34.0947 50.085 33.7201 50.3609 33.3749C51.1158 32.4223 51.665 31.5686 51.9924 31.0227C52.0762 30.8809 52.152 30.7525 52.2142 30.6374C51.481 30.4608 50.085 30.1798 48.3697 30.0808C47.7014 30.0434 47.0494 30.0434 46.4109 30.0674C46.0727 30.0808 45.748 30.121 45.4207 30.1504C45.1663 30.1745 44.9093 30.1932 44.6604 30.2253C44.2032 31.1458 43.6512 32.0583 42.9694 32.9173C42.3823 33.6559 41.7357 34.3168 41.0621 34.9055L41.0566 34.9082Z" fill="#A30A71"/>
<path d="M39.9495 34.4023C39.8845 34.4559 39.8169 34.5094 39.752 34.5602C39.8196 34.5067 39.8845 34.4559 39.9495 34.4023Z" fill="#A30A71"/>
<path d="M41.1156 33.3438C41.0669 33.3946 41.0182 33.4481 40.9668 33.4963C41.0182 33.4454 41.0669 33.3946 41.1156 33.3438Z" fill="#A30A71"/>
<path d="M42.7445 31.3555C42.5443 31.6578 42.3306 31.9576 42.1006 32.2492C42.3306 31.9576 42.547 31.6578 42.7445 31.3555Z" fill="#A30A71"/>
<path d="M33.2261 37.9181C33.4479 37.8485 33.6914 37.7682 33.9511 37.6772C33.9944 37.6612 34.0377 37.6478 34.081 37.6318C34.357 37.5327 34.6519 37.4204 34.9576 37.2973C35.0252 37.2705 35.0902 37.2437 35.1578 37.2143C35.4689 37.0859 35.7936 36.9414 36.1264 36.7835C36.1886 36.754 36.2535 36.7219 36.3185 36.6898C36.6702 36.5186 37.03 36.3366 37.3926 36.1332C37.4142 36.1199 37.4386 36.1065 37.4629 36.0931C37.8173 35.8924 38.1745 35.673 38.5316 35.4402C38.5857 35.4054 38.6371 35.3733 38.6912 35.3385C39.0484 35.1003 39.4028 34.8381 39.7518 34.5625C39.8167 34.509 39.8844 34.4581 39.9493 34.4046C40.2956 34.1209 40.6365 33.8212 40.9639 33.5001C41.0153 33.4493 41.064 33.3984 41.1127 33.3476C41.4536 33.0024 41.7863 32.6412 42.0975 32.2505C42.3274 31.9588 42.5412 31.6591 42.7414 31.3567C42.9308 31.0704 43.1066 30.7787 43.2717 30.4844C43.0958 30.5245 42.9145 30.5539 42.7414 30.5994C42.5709 30.6449 42.3978 30.6851 42.2328 30.7359C41.7025 30.8938 41.1857 31.0677 40.6933 31.2791C37.7416 32.5555 35.5528 34.798 34.2379 36.4543C34.0323 36.7166 33.8429 36.9681 33.6671 37.209C33.6292 37.2625 33.5967 37.3106 33.5588 37.3615C33.4263 37.5488 33.2991 37.7308 33.1855 37.902C33.1774 37.9154 33.1692 37.9261 33.1611 37.9395C33.1801 37.9341 33.2017 37.9261 33.2207 37.9207L33.2261 37.9181Z" fill="#A30A71"/>
<path d="M36.2374 39.7474C39.0836 39.9079 41.6971 39.5012 43.9048 38.5485C44.3269 38.3666 44.7273 38.1632 45.1169 37.9465C45.2359 37.8796 45.3496 37.8073 45.4686 37.7377C45.7365 37.5772 46.0016 37.414 46.2532 37.2427C46.3696 37.1624 46.4832 37.0821 46.5968 37.0019C46.8511 36.8172 47.1001 36.6299 47.3381 36.4372C47.4193 36.3703 47.5059 36.3061 47.5843 36.2392C47.8955 35.9797 48.1931 35.7147 48.4718 35.4498C47.7223 35.3428 46.954 35.2812 46.1666 35.2812C42.3627 35.2812 38.9402 36.6808 36.7379 37.8555C36.2671 38.107 35.8045 38.3746 35.3527 38.6529C34.9063 38.9285 34.468 39.2175 34.0459 39.5145C34.6817 39.6136 35.423 39.7019 36.2428 39.75L36.2374 39.7474Z" fill="#A30A71"/>
<path d="M42.1007 32.2469C41.7923 32.6376 41.4595 32.9988 41.1159 33.344C41.0645 33.3948 41.0185 33.4484 40.9671 33.4965C40.6398 33.8176 40.2989 34.12 39.9526 34.401C39.8876 34.4545 39.82 34.508 39.7551 34.5589C39.406 34.8345 39.0516 35.0941 38.6945 35.3349C38.6404 35.3697 38.589 35.4018 38.5349 35.4366C38.1777 35.6694 37.8206 35.8888 37.4662 36.0895C37.4418 36.1029 37.4202 36.1163 37.3958 36.1296C37.0306 36.333 36.6735 36.515 36.3218 36.6862C36.2568 36.7183 36.1946 36.7504 36.1297 36.7799C35.7969 36.9378 35.4722 37.0796 35.1611 37.2107C35.0934 37.2401 35.0285 37.2642 34.9609 37.2937C34.6551 37.4167 34.3602 37.5318 34.0843 37.6281C34.0383 37.6442 33.9977 37.6576 33.9544 37.6736C33.6947 37.7646 33.4512 37.8449 33.2293 37.9145C33.2104 37.9198 33.186 37.9279 33.1671 37.9359C32.9453 38.2677 32.7559 38.5701 32.6179 38.8056C32.5313 38.9474 32.4556 39.0758 32.3906 39.1909C32.7748 39.2845 33.343 39.405 34.041 39.5147C34.4658 39.2176 34.9014 38.9286 35.3505 38.653C35.8023 38.3747 36.2622 38.1071 36.7357 37.8556C38.938 36.6809 42.3632 35.2814 46.1644 35.2814C46.949 35.2814 47.7201 35.3429 48.4696 35.45C49.2244 34.7301 49.8575 34.0103 50.3607 33.3734C50.0875 33.7186 49.7655 34.0933 49.4165 34.4759C48.3722 34.2859 47.2818 34.1735 46.1563 34.1735C44.3545 34.1735 42.6364 34.4625 41.0564 34.9067C41.7301 34.318 42.3767 33.6571 42.9638 32.9185C43.6456 32.0596 44.2002 31.1471 44.6548 30.2266C44.1813 30.2908 43.7268 30.3818 43.2749 30.4835C43.1099 30.7778 42.9341 31.0695 42.7447 31.3558C42.5445 31.6582 42.3307 31.9579 42.1007 32.2496V32.2469Z" fill="#A30A71"/>
<path d="M42.7441 31.3528C42.9362 31.0665 43.1094 30.7748 43.2744 30.4805C43.1094 30.7748 42.9335 31.0665 42.7441 31.3528Z" fill="#A30A71"/>
<path d="M33.6729 37.2077C33.8487 36.9669 34.0381 36.7127 34.2437 36.4531C34.0354 36.7154 33.8487 36.9669 33.6729 37.2077Z" fill="#A30A71"/>
<path d="M33.1914 37.8999C33.305 37.7313 33.4322 37.5467 33.5648 37.3594C33.4295 37.5494 33.305 37.7287 33.1914 37.8999Z" fill="#A30A71"/>
<path d="M42.2363 30.7341C42.4041 30.6833 42.5745 30.6431 42.745 30.5977C42.5745 30.6431 42.4014 30.6833 42.2363 30.7341Z" fill="#A30A71"/>
<path d="M34.9606 37.2969C34.6548 37.42 34.3572 37.535 34.084 37.6314C34.3599 37.5324 34.6548 37.42 34.9606 37.2969Z" fill="#A30A71"/>
<path d="M36.1297 36.7852C35.7969 36.943 35.4723 37.0849 35.1611 37.216C35.475 37.0849 35.7969 36.943 36.1297 36.7852Z" fill="#A30A71"/>
<path d="M37.3983 36.1367C37.0331 36.3401 36.6759 36.5221 36.3242 36.6933C36.6759 36.5221 37.0358 36.3401 37.3983 36.1367Z" fill="#A30A71"/>
<path d="M40.9667 33.4961C40.6394 33.8172 40.2985 34.1196 39.9521 34.4006C40.2985 34.1169 40.6394 33.8172 40.9667 33.4961Z" fill="#A30A71"/>
<path d="M42.101 32.2461C41.7926 32.6368 41.4598 32.998 41.1162 33.3432C41.4571 32.998 41.7899 32.6368 42.101 32.2461Z" fill="#A30A71"/>
<path d="M46.2514 37.2422C45.9998 37.4134 45.7346 37.5767 45.4668 37.7372C45.7346 37.5767 45.9971 37.4134 46.2514 37.2422Z" fill="#A30A71"/>
<path d="M45.1144 37.9453C44.7248 38.1621 44.3244 38.3681 43.9023 38.5474C44.3244 38.3654 44.7248 38.1621 45.1144 37.9453Z" fill="#A30A71"/>
<path d="M34.0408 39.514C34.4656 39.217 34.9011 38.928 35.3476 38.6523C34.8984 38.928 34.4629 39.217 34.0381 39.514H34.0408Z" fill="#A30A71"/>
<path d="M30.4912 39.6956C30.5832 39.6956 30.6697 39.7277 30.7563 39.7518C30.5967 39.2701 30.4939 38.957 30.4939 38.957C30.4939 38.957 30.3884 39.2701 30.2314 39.7518C30.318 39.7277 30.4019 39.6956 30.4939 39.6956H30.4912Z" fill="#3C9F51"/>
<path d="M29.6143 45.3158V45.3667C29.6143 46.5334 30.0661 47.6064 30.4908 48.3583C30.9183 47.6064 31.3728 46.5334 31.3728 45.3667V45.3212C31.1862 44.6067 31.0238 43.8896 30.894 43.1858C30.7668 42.8888 30.6288 42.6158 30.4908 42.375C30.3556 42.6158 30.2176 42.8888 30.0904 43.1858C29.9579 43.8949 29.7982 44.6094 29.6143 45.3158Z" fill="#3C9F51"/>
<path d="M28.6404 44.7003C28.6404 44.7618 28.6377 44.8234 28.6377 44.8849C28.6377 44.9652 28.6539 45.0375 28.6566 45.1177C28.8352 44.4461 28.9651 43.844 29.0733 43.3008C28.8677 43.943 28.7026 44.4702 28.6431 44.7003H28.6404Z" fill="#3C9F51"/>
<path d="M30.497 40.1593H30.4943C30.359 40.1593 30.2427 40.0898 30.1507 39.9961C29.918 40.6999 29.6042 41.6578 29.3174 42.5382C29.8477 41.401 30.4916 40.6624 30.4916 40.6624C30.4916 40.6624 31.1355 41.3983 31.6658 42.5355C31.3817 41.6552 31.0679 40.6999 30.8352 39.9961C30.7459 40.0898 30.6296 40.1593 30.497 40.1593Z" fill="#3C9F51"/>
<path d="M32.3469 44.8835C32.3469 44.8246 32.3469 44.7657 32.3442 44.7042C32.282 44.4741 32.1197 43.9442 31.9141 43.3047C32.0196 43.8479 32.1521 44.45 32.328 45.119C32.3307 45.0387 32.3469 44.9638 32.3469 44.8808V44.8835Z" fill="#3C9F51"/>
<path d="M30.4911 39.6953C30.3991 39.6953 30.3152 39.7274 30.2286 39.7515C30.2043 39.8264 30.1772 39.9121 30.1475 39.995C30.2394 40.0913 30.3531 40.1582 30.4911 40.1582H30.4938C30.629 40.1582 30.7427 40.0887 30.832 39.995C30.8049 39.9121 30.7778 39.8291 30.7508 39.7542C30.6642 39.7301 30.5776 39.698 30.4857 39.698L30.4911 39.6953Z" fill="#3C9F51"/>
<path d="M29.3171 42.536C29.2306 42.8009 29.1494 43.0551 29.0709 43.2986C28.9654 43.8418 28.8329 44.4439 28.6543 45.1156C28.7598 47.6068 30.4886 49.5897 30.4886 49.5897C30.4886 49.5897 32.2175 47.6068 32.3257 45.1182C32.1498 44.4466 32.0173 43.8472 31.9117 43.304C31.8333 43.0605 31.7521 42.8009 31.6628 42.5333C31.1326 41.3987 30.4886 40.6602 30.4886 40.6602C30.4886 40.6602 29.8447 41.3987 29.3144 42.536H29.3171ZM30.8945 43.1862C31.0243 43.89 31.184 44.6071 31.3733 45.3216V45.3671C31.3733 46.5338 30.9215 47.6068 30.4941 48.3588C30.0693 47.6068 29.6148 46.5338 29.6148 45.3671V45.3163C29.8014 44.6125 29.9611 43.898 30.0936 43.1862C30.2181 42.8892 30.3588 42.6163 30.4941 42.3754C30.632 42.6163 30.77 42.8892 30.8972 43.1862H30.8945Z" fill="#3C9F51"/>
<path d="M28.2453 42.5553C28.4428 42.0709 28.6646 41.6454 28.8811 41.2815C28.9271 40.8427 28.9135 40.543 28.9135 40.543C28.9135 40.543 28.9108 40.543 28.9054 40.543C28.8784 40.5483 28.7701 40.5751 28.6267 40.6152C28.1884 40.9658 27.2388 41.6829 25.9104 42.4777C25.0446 43.7915 25.1366 45.3998 25.1366 45.3998C25.1366 45.3998 26.9304 45.0412 27.9747 43.7059C28.0451 43.3848 28.1316 43.0637 28.1911 42.7426C28.202 42.6784 28.2209 42.6168 28.2453 42.5553Z" fill="#A30A71"/>
<path d="M26.0624 42.2415C26.0029 42.3191 25.9596 42.3993 25.9082 42.4796C27.2366 41.6849 28.1863 40.9677 28.6245 40.6172C28.078 40.7751 26.8551 41.2219 26.0624 42.2415Z" fill="#A30A71"/>
<path d="M28.879 41.28C28.6626 41.6439 28.4407 42.0694 28.2432 42.5538C28.2189 42.6153 28.1999 42.6768 28.1891 42.7411C28.1296 43.0622 28.043 43.3833 27.9727 43.7044C27.9727 43.7017 27.9781 43.6991 27.9808 43.6964C28.603 42.8936 28.8114 41.9303 28.8817 41.2773L28.879 41.28Z" fill="#A30A71"/>
<path d="M32.6449 42.3441C32.6774 42.4164 32.7099 42.4833 32.7396 42.5555C32.764 42.617 32.7829 42.6813 32.7937 42.7455C32.7937 42.7562 32.7992 42.7669 32.8019 42.7776C32.9317 43.0907 33.0968 43.4064 33.324 43.7008C34.3657 45.0441 36.1702 45.4027 36.1702 45.4027C36.1702 45.4027 36.2541 44.0513 35.6048 42.8151C34.041 41.9293 32.9209 41.0971 32.3906 40.6797C32.3906 40.9473 32.4177 41.6056 32.6449 42.3441Z" fill="#A30A71"/>
<path d="M32.4017 40.543H32.3936C32.3936 40.543 32.3936 40.5992 32.3936 40.6794C32.9238 41.0996 34.0439 41.9318 35.6077 42.8148C35.5049 42.6195 35.3886 42.4268 35.2452 42.2422C34.2441 40.9524 32.5397 40.5724 32.4044 40.5456L32.4017 40.543Z" fill="#A30A71"/>
<path d="M32.7392 42.5551C32.7095 42.4802 32.677 42.4133 32.6445 42.3438C32.6878 42.4882 32.7392 42.6301 32.8015 42.7772C32.8015 42.7665 32.796 42.7558 32.7933 42.7451C32.7825 42.6809 32.7636 42.6167 32.7392 42.5551Z" fill="#A30A71"/>
</g>
<defs>
<clipPath id="clip0_3654_2988">
<rect width="337" height="54" fill="white"/>
</clipPath>
</defs>
</svg>
