<svg width="319" height="39" viewBox="0 0 319 39" fill="none" xmlns="http://www.w3.org/2000/svg">
<g clip-path="url(#clip0_3654_2745)">
<path d="M75.1865 8.93359V9.5935C74.2933 9.73629 73.5002 10.2071 72.7995 11.0021C72.2913 11.5964 71.5405 12.9895 70.5395 15.1853L62.0965 33.6318H61.4997L53.0913 14.4405C52.0788 12.1251 51.4012 10.7667 51.0585 10.3653C50.7159 9.96397 50.0652 9.70541 49.1143 9.60122V8.94131H60.8645V9.60122H60.4679C59.4053 9.60122 58.6854 9.73243 58.2965 9.99099C58.0193 10.1685 57.8807 10.4309 57.8807 10.7744C57.8807 10.9866 57.9269 11.2413 58.027 11.5308C58.1233 11.8202 58.4467 12.6036 59.0011 13.8732L64.2255 25.8904L69.0727 15.1892C69.6502 13.8964 70.0082 13.0281 70.1391 12.5882C70.27 12.1482 70.3393 11.7739 70.3393 11.4652C70.3393 11.1101 70.2431 10.7937 70.0506 10.5197C69.8581 10.2457 69.5732 10.0373 69.1997 9.89837C68.68 9.69769 67.9947 9.59736 67.14 9.59736V8.93745H75.1865V8.93359Z" fill="#1A171B"/>
<path d="M84.3499 32.5695V33.075H74.5439V32.5695H75.1677C75.7105 32.5695 76.1494 32.473 76.4805 32.2839C76.7192 32.1566 76.904 31.9405 77.0349 31.6317C77.135 31.4156 77.1889 30.8406 77.1889 29.9144V17.766C77.1889 16.8205 77.1389 16.2301 77.0349 15.9947C76.9348 15.7593 76.7269 15.5509 76.4189 15.3734C76.1109 15.1959 75.6913 15.1071 75.1677 15.1071H74.5439V14.6016H84.3499V15.1071H83.7262C83.1834 15.1071 82.7445 15.2036 82.4134 15.3927C82.1747 15.52 81.986 15.74 81.8474 16.0449C81.7473 16.261 81.6934 16.836 81.6934 17.7622V29.9106C81.6934 30.8561 81.7473 31.4465 81.8513 31.6819C81.9591 31.9173 82.1631 32.1218 82.475 32.3032C82.783 32.4807 83.2026 32.5695 83.7262 32.5695H84.3499Z" fill="#1A171B"/>
<path d="M90.2822 15.6666V23.1841H90.6557C91.8453 23.1841 92.7077 22.8175 93.2429 22.0804C93.778 21.3433 94.1168 20.2589 94.267 18.8233H94.7944V28.4942H94.267C94.1553 27.4407 93.9243 26.5801 93.5701 25.9048C93.2159 25.2333 92.804 24.7818 92.3304 24.5502C91.8607 24.3187 91.1754 24.2029 90.2822 24.2029V29.405C90.2822 30.4238 90.3246 31.0451 90.4131 31.2728C90.5017 31.5004 90.6634 31.6857 90.9059 31.8323C91.1446 31.979 91.5335 32.0484 92.0686 32.0484H93.189C94.9407 32.0484 96.346 31.6509 97.4009 30.8483C98.4558 30.0494 99.2142 28.8338 99.6762 27.1976H100.188L99.3451 33.0672H83.1328V32.5617H83.7565C84.2993 32.5617 84.7382 32.4652 85.0693 32.2761C85.308 32.1488 85.4928 31.9327 85.6237 31.6239C85.7238 31.4078 85.7739 30.8328 85.7739 29.9066V17.7582C85.7739 16.9208 85.7508 16.4114 85.7046 16.2184C85.6122 15.902 85.4428 15.655 85.1925 15.4813C84.8422 15.2266 84.3609 15.0993 83.7526 15.0993H83.1289V14.5938H98.8292V20.0544H98.3018C98.0323 18.7191 97.6588 17.7621 97.1737 17.1793C96.6886 16.5966 96.0033 16.1721 95.1217 15.8981C94.6058 15.736 93.6356 15.655 92.2188 15.655H90.2822V15.6666Z" fill="#1A171B"/>
<path d="M116.894 14.6055V19.603H116.397C116.1 18.4491 115.773 17.6194 115.415 17.1177C115.057 16.6122 114.56 16.2147 113.937 15.9137C113.586 15.7516 112.974 15.6706 112.096 15.6706H110.699V29.9184C110.699 30.8638 110.753 31.4543 110.857 31.6897C110.965 31.9251 111.169 32.1296 111.48 32.311C111.788 32.4885 112.212 32.5773 112.747 32.5773H113.371V33.0828H103.549V32.5773H104.173C104.716 32.5773 105.155 32.4808 105.486 32.2917C105.725 32.1643 105.913 31.9482 106.052 31.6395C106.152 31.4234 106.206 30.8484 106.206 29.9222V15.6744H104.851C103.588 15.6744 102.672 15.9369 102.098 16.4656C101.297 17.2026 100.789 18.2485 100.577 19.6107H100.05V14.6132H116.897L116.894 14.6055Z" fill="#1A171B"/>
<path d="M122.534 14.6054L131.789 26.0592V18.1172C131.789 17.0096 131.627 16.261 131.304 15.8712C130.861 15.3464 130.118 15.0917 129.079 15.1071V14.6016H135.277V15.1071C134.484 15.2074 133.953 15.3348 133.679 15.4969C133.406 15.6551 133.194 15.9137 133.044 16.2725C132.89 16.6314 132.817 17.245 132.817 18.1172V33.4957H132.347L119.662 18.1172V29.8566C119.662 30.9178 119.908 31.6356 120.401 32.0099C120.894 32.3804 121.46 32.5695 122.095 32.5695H122.538V33.075H115.885V32.5695C116.917 32.5618 117.637 32.3534 118.045 31.9443C118.449 31.5353 118.653 30.8406 118.653 29.8604V16.8244L118.253 16.3343C117.856 15.8442 117.506 15.5239 117.201 15.3657C116.897 15.2113 116.458 15.1264 115.889 15.1071V14.6016H122.541L122.534 14.6054Z" fill="#1A171B"/>
<path d="M145.287 27.8144H138.661L137.872 29.6128C137.614 30.2109 137.483 30.7087 137.483 31.0985C137.483 31.6156 137.695 31.9977 138.118 32.2447C138.369 32.3913 138.981 32.4994 139.959 32.5727V33.0782H133.722V32.5727C134.395 32.4724 134.95 32.1984 135.381 31.7507C135.816 31.2992 136.347 30.373 136.986 28.9644L143.693 14.2266H143.955L150.719 29.3735C151.366 30.8091 151.894 31.7121 152.31 32.0826C152.621 32.3643 153.064 32.5264 153.638 32.5727V33.0782H144.563V32.5727H144.937C145.664 32.5727 146.176 32.4724 146.473 32.2717C146.677 32.125 146.777 31.9166 146.777 31.6465C146.777 31.4844 146.75 31.3146 146.696 31.141C146.677 31.0599 146.538 30.7203 146.28 30.1222L145.283 27.8183L145.287 27.8144ZM144.817 26.8072L142.022 20.4474L139.146 26.8072H144.817Z" fill="#1A171B"/>
<path d="M165.027 26.7809L170.117 14.6055H177.751V15.111H177.143C176.588 15.111 176.146 15.2075 175.815 15.3966C175.584 15.5239 175.399 15.7362 175.26 16.0372C175.16 16.2572 175.11 16.8244 175.11 17.7391V29.9145C175.11 30.86 175.16 31.4504 175.26 31.6858C175.364 31.9212 175.568 32.1258 175.884 32.3071C176.196 32.4847 176.615 32.5734 177.143 32.5734H177.751V33.079H167.957V32.5734H168.565C169.119 32.5734 169.562 32.4769 169.893 32.2878C170.124 32.1605 170.309 31.9444 170.448 31.6357C170.548 31.4195 170.602 30.8445 170.602 29.9184V16.2301L163.41 33.079H163.079L155.775 16.3536V29.3626C155.775 30.2695 155.798 30.8291 155.845 31.0375C155.964 31.4929 156.226 31.8633 156.626 32.1489C157.027 32.4345 157.658 32.5773 158.513 32.5773V33.0828H152.095V32.5773H152.287C152.703 32.585 153.088 32.5194 153.45 32.3805C153.808 32.2415 154.081 32.0524 154.266 31.817C154.451 31.5816 154.593 31.2497 154.693 30.8214C154.713 30.721 154.72 30.258 154.72 29.4321V17.7468C154.72 16.8129 154.67 16.2263 154.566 15.9947C154.466 15.7632 154.258 15.5587 153.943 15.3811C153.631 15.2036 153.207 15.1149 152.684 15.1149H152.091V14.6093H159.752L165.023 26.7848L165.027 26.7809Z" fill="#1A171B"/>
<path d="M198.872 20.6704C201.128 21.1875 202.71 21.8165 203.623 22.5498C204.932 23.5956 205.586 24.954 205.586 26.6211C205.586 28.3809 204.866 29.8357 203.43 30.9857C201.667 32.3789 199.103 33.0735 195.738 33.0735H183.664V32.4329C184.761 32.4329 185.508 32.3326 185.897 32.1319C186.29 31.9312 186.563 31.6688 186.721 31.3485C186.879 31.0282 186.96 30.2332 186.96 28.9674V13.7819C186.96 12.5161 186.879 11.7211 186.721 11.3931C186.563 11.0651 186.286 10.8027 185.889 10.6097C185.493 10.4129 184.75 10.3164 183.664 10.3164V9.67969H195.056C197.778 9.67969 199.707 9.91895 200.839 10.3936C201.971 10.8721 202.864 11.5861 203.519 12.5354C204.173 13.4848 204.5 14.4958 204.5 15.5648C204.5 16.6917 204.085 17.695 203.257 18.5749C202.429 19.4548 200.966 20.1533 198.875 20.6704H198.872ZM192.492 21.5464V29.0523L192.473 29.9168C192.473 30.5381 192.635 31.005 192.954 31.3215C193.274 31.6379 193.751 31.7962 194.382 31.7962C195.318 31.7962 196.18 31.5916 196.97 31.1826C197.759 30.7735 198.363 30.1831 198.783 29.4074C199.203 28.6317 199.414 27.7634 199.414 26.8102C199.414 25.7181 199.157 24.7379 198.644 23.8696C198.132 23.0013 197.424 22.3954 196.523 22.0481C195.622 21.7046 194.279 21.5348 192.492 21.5464ZM192.492 20.2034C194.151 20.2034 195.376 20.0182 196.165 19.6516C196.954 19.285 197.559 18.764 197.978 18.1002C198.398 17.4326 198.61 16.5797 198.61 15.5455C198.61 14.5113 198.402 13.6623 197.99 12.9985C197.574 12.3386 196.981 11.8331 196.211 11.4896C195.441 11.1423 194.202 10.9763 192.496 10.9879V20.2034H192.492Z" fill="#1A171B"/>
<path d="M212.216 24.6545V29.8295C212.216 30.8291 212.278 31.4581 212.401 31.7166C212.524 31.9752 212.744 32.1836 213.059 32.338C213.375 32.4923 213.956 32.5695 214.815 32.5695V33.075H205.217V32.5695C206.083 32.5695 206.672 32.4885 206.98 32.3302C207.288 32.172 207.508 31.9636 207.631 31.7128C207.754 31.4581 207.816 30.8329 207.816 29.8334V17.8471C207.816 16.8476 207.754 16.2185 207.631 15.96C207.508 15.7014 207.288 15.4969 206.972 15.3386C206.661 15.1843 206.071 15.1071 205.217 15.1071V14.6016H213.929C216.197 14.6016 217.856 14.7559 218.907 15.0647C219.958 15.3734 220.817 15.9445 221.479 16.7742C222.141 17.6039 222.476 18.5803 222.476 19.6956C222.476 21.0578 221.98 22.1847 220.983 23.0723C220.347 23.6357 219.454 24.0563 218.311 24.3381L222.819 30.5898C223.408 31.3963 223.828 31.9019 224.078 32.1026C224.455 32.3843 224.894 32.5386 225.391 32.5656V33.0712H219.485L213.44 24.6545H212.208H212.216ZM212.216 15.5972V23.6897H213.005C214.287 23.6897 215.246 23.574 215.881 23.3424C216.517 23.1109 217.017 22.6941 217.383 22.0882C217.749 21.4862 217.93 20.6951 217.93 19.7264C217.93 18.3179 217.595 17.2798 216.925 16.6083C216.255 15.9368 215.181 15.6011 213.694 15.6011H212.216V15.5972Z" fill="#1A171B"/>
<path d="M235.355 32.5695V33.075H225.549V32.5695H226.173C226.715 32.5695 227.154 32.473 227.485 32.2839C227.724 32.1566 227.909 31.9405 228.04 31.6317C228.14 31.4156 228.194 30.8406 228.194 29.9144V17.766C228.194 16.8205 228.144 16.2301 228.04 15.9947C227.94 15.7593 227.732 15.5509 227.424 15.3734C227.116 15.1959 226.696 15.1071 226.173 15.1071H225.549V14.6016H235.355V15.1071H234.731C234.188 15.1071 233.749 15.2036 233.418 15.3927C233.18 15.52 232.991 15.74 232.852 16.0449C232.752 16.261 232.702 16.836 232.702 17.7622V29.9106C232.702 30.8561 232.756 31.4465 232.86 31.6819C232.964 31.9173 233.172 32.1218 233.484 32.3032C233.792 32.4807 234.211 32.5695 234.735 32.5695H235.359H235.355Z" fill="#1A171B"/>
<path d="M242.843 15.6666V23.1841H243.216C244.406 23.1841 245.268 22.8175 245.803 22.0804C246.339 21.3433 246.677 20.2589 246.828 18.8233H247.351V28.4942H246.828C246.716 27.4407 246.485 26.5801 246.127 25.9048C245.773 25.2333 245.361 24.7818 244.887 24.5502C244.417 24.3187 243.736 24.2029 242.839 24.2029V29.405C242.839 30.4238 242.881 31.0451 242.97 31.2728C243.058 31.5004 243.22 31.6857 243.463 31.8323C243.701 31.979 244.09 32.0484 244.625 32.0484H245.746C247.497 32.0484 248.903 31.6509 249.958 30.8483C251.012 30.0494 251.771 28.8338 252.233 27.1976H252.745L251.902 33.0672H235.689V32.5617H236.313C236.856 32.5617 237.295 32.4652 237.626 32.2761C237.865 32.1488 238.05 31.9327 238.18 31.6239C238.281 31.4078 238.334 30.8328 238.334 29.9066V17.7582C238.334 16.9208 238.311 16.4114 238.265 16.2184C238.173 15.902 238.003 15.655 237.753 15.4813C237.403 15.2266 236.921 15.0993 236.313 15.0993H235.689V14.5938H251.39V20.0544H250.866C250.601 18.7191 250.223 17.7621 249.738 17.1793C249.253 16.5966 248.568 16.1721 247.686 15.8981C247.17 15.736 246.2 15.655 244.783 15.655H242.847L242.843 15.6666Z" fill="#1A171B"/>
<path d="M259.825 15.6668V23.2537H260.364C261.196 23.2537 261.873 23.1303 262.397 22.8871C262.924 22.6401 263.367 22.2272 263.733 21.6484C264.099 21.0656 264.334 20.2822 264.445 19.2905H264.93V28.5677H264.445C264.268 26.8157 263.791 25.658 263.013 25.1023C262.235 24.5427 261.35 24.2648 260.364 24.2648H259.825V29.9184C259.825 30.8639 259.879 31.4543 259.983 31.6897C260.091 31.9251 260.295 32.1297 260.607 32.311C260.915 32.4886 261.334 32.5773 261.858 32.5773H262.482V33.0829H252.676V32.5773H253.299C253.842 32.5773 254.281 32.4808 254.612 32.2917C254.851 32.1644 255.036 31.9483 255.167 31.6396C255.267 31.4234 255.317 30.8484 255.317 29.9223V17.7738C255.317 16.8284 255.267 16.2379 255.167 16.0025C255.067 15.7671 254.859 15.5587 254.551 15.3812C254.243 15.2037 253.823 15.1149 253.299 15.1149H252.676V14.6094H268.499V19.9079H267.933C267.802 18.6653 267.475 17.743 266.944 17.1448C266.413 16.5466 265.646 16.1221 264.642 15.879C264.087 15.7439 263.063 15.6745 261.569 15.6745H259.825V15.6668Z" fill="#1A171B"/>
<path d="M279.403 32.5695V33.075H269.597V32.5695H270.22C270.767 32.5695 271.202 32.473 271.533 32.2839C271.772 32.1566 271.957 31.9405 272.088 31.6317C272.188 31.4156 272.242 30.8406 272.242 29.9144V17.766C272.242 16.8205 272.192 16.2301 272.088 15.9947C271.988 15.7593 271.78 15.5509 271.472 15.3734C271.164 15.1959 270.744 15.1071 270.22 15.1071H269.597V14.6016H279.403V15.1071H278.779C278.232 15.1071 277.797 15.2036 277.466 15.3927C277.227 15.52 277.039 15.74 276.896 16.0449C276.796 16.261 276.746 16.836 276.746 17.7622V29.9106C276.746 30.8561 276.8 31.4465 276.904 31.6819C277.012 31.9173 277.216 32.1218 277.528 32.3032C277.836 32.4807 278.255 32.5695 278.779 32.5695H279.403Z" fill="#1A171B"/>
<path d="M286.287 14.6054L295.538 26.0592V18.1172C295.538 17.0096 295.377 16.261 295.057 15.8712C294.614 15.3464 293.871 15.0917 292.832 15.1071V14.6016H299.03V15.1071C298.237 15.2074 297.706 15.3348 297.432 15.4969C297.159 15.6551 296.947 15.9137 296.797 16.2725C296.643 16.6314 296.57 17.245 296.57 18.1172V33.4957H296.1L283.415 18.1172V29.8566C283.415 30.9178 283.661 31.6356 284.154 32.0099C284.647 32.3804 285.213 32.5695 285.848 32.5695H286.29V33.075H279.638V32.5695C280.669 32.5618 281.389 32.3534 281.794 31.9443C282.198 31.5353 282.402 30.8406 282.402 29.8604V16.8244L282.002 16.3343C281.605 15.8442 281.255 15.5239 280.951 15.3657C280.646 15.2113 280.207 15.1264 279.638 15.1071V14.6016H286.29L286.287 14.6054Z" fill="#1A171B"/>
<path d="M316.798 14.1834V20.6937H316.286C315.67 18.9147 314.742 17.5601 313.506 16.6339C312.27 15.7077 310.919 15.2447 309.452 15.2447C307.985 15.2447 306.884 15.6344 305.952 16.4101C305.02 17.1858 304.362 18.2702 303.973 19.6595C303.584 21.0487 303.392 22.4766 303.392 23.9353C303.392 25.7067 303.604 27.258 304.027 28.5933C304.451 29.9285 305.136 30.9087 306.079 31.5339C307.026 32.1591 308.147 32.4755 309.448 32.4755C309.898 32.4755 310.364 32.4253 310.838 32.3327C311.311 32.2362 311.8 32.0973 312.297 31.9159V28.0761C312.297 27.3506 312.247 26.8798 312.147 26.6676C312.047 26.4553 311.835 26.2624 311.515 26.0887C311.196 25.915 310.811 25.8301 310.36 25.8301H309.875V25.3285H318.992V25.8301C318.299 25.8765 317.818 25.9691 317.548 26.108C317.275 26.2508 317.067 26.4823 316.917 26.8104C316.832 26.984 316.794 27.4047 316.794 28.0761V31.9159C315.596 32.4408 314.349 32.8421 313.052 33.1084C311.754 33.3747 310.411 33.5097 309.021 33.5097C307.242 33.5097 305.764 33.2705 304.589 32.7958C303.415 32.3211 302.376 31.6921 301.478 30.9164C300.581 30.1408 299.877 29.2647 299.369 28.2923C298.722 27.038 298.402 25.6372 298.402 24.0858C298.402 21.3073 299.392 18.961 301.375 17.043C303.357 15.1289 305.852 14.168 308.859 14.168C309.791 14.168 310.63 14.2413 311.377 14.3879C311.781 14.4613 312.439 14.6658 313.348 15.0093C314.257 15.3489 314.792 15.5187 314.961 15.5187C315.219 15.5187 315.458 15.426 315.681 15.2408C315.904 15.0556 316.105 14.7005 316.289 14.1834H316.802H316.798Z" fill="#1A171B"/>
<path d="M51.1285 29.9459C50.1236 29.1432 47.1052 26.9397 43.1436 25.944C44.7413 24.0608 45.5691 22.3589 45.6268 22.2355L45.6538 22.1776C45.6807 22.1235 45.6923 22.0618 45.6923 22.0039L50.2199 27.4452C51.0399 28.4293 51.5327 29.1317 51.1285 29.9498V29.9459Z" fill="#38A962"/>
<path d="M26.1494 16.4568C26.0146 16.8466 25.8991 17.2402 25.799 17.63C25.6951 17.1514 25.5642 16.6691 25.4025 16.1905C24.7788 14.3497 23.797 12.7714 22.7383 11.4709C23.3273 6.61225 24.9289 2.67598 25.6489 1.09375C25.6912 1.18637 25.7374 1.29056 25.7875 1.39862C26.0878 2.07396 26.5421 3.16994 27.0118 4.58237C27.6201 6.42316 28.3169 9.02419 28.6249 11.9918C27.6509 13.246 26.7461 14.7395 26.1494 16.4568Z" fill="#8161A2"/>
<path d="M15.8853 15.5315C15.9662 16.7355 16.1818 17.9936 16.6014 19.2401C17.0211 20.4904 17.614 21.6212 18.2839 22.6284C17.8989 22.4084 17.4985 22.2039 17.0827 22.0225C16.1202 21.6019 15.0768 21.297 13.9718 21.104C13.3327 19.6684 12.9785 18.2444 12.786 17.133C12.6089 16.1026 12.5435 15.2189 12.5242 14.6593C12.5204 14.5166 12.5165 14.3892 12.5127 14.2734C13.1749 14.4471 14.4415 14.8369 15.8815 15.5354L15.8853 15.5315Z" fill="#8161A2"/>
<path d="M15.847 14.4472C14.538 13.8529 13.4023 13.5133 12.7285 13.3396L16.7325 8.52734C16.3514 9.79313 15.8393 11.9619 15.847 14.4472Z" fill="#38A962"/>
<path d="M12.8666 20.9474C11.9426 20.8509 10.9801 20.8316 9.99066 20.8895C8.36595 20.9822 6.51025 21.3295 5.875 21.5842V21.5765L11.573 14.7266C11.6308 16.0695 11.8772 18.4776 12.8666 20.9436V20.9474Z" fill="#38A962"/>
<path d="M34.1228 22.0224C33.6492 22.2308 33.1988 22.4624 32.7676 22.7132C33.4529 21.6906 34.065 20.5444 34.5078 19.2709C34.939 18.0283 35.1738 16.7779 35.2739 15.5816C36.7562 14.8523 38.0729 14.447 38.7505 14.2695C38.7505 14.3853 38.7466 14.5127 38.7389 14.6554C38.7197 15.215 38.6542 16.0987 38.4771 17.1291C38.2846 18.2405 37.9343 19.6568 37.299 21.0886C36.171 21.2815 35.1045 21.5902 34.1228 22.0186V22.0224Z" fill="#8161A2"/>
<path d="M39.6892 14.7891L45.3333 21.5733L45.3295 21.5888C44.6942 21.3341 42.8385 20.9868 41.2177 20.8941C40.2475 20.8363 39.3081 20.8556 38.4033 20.9443C39.3735 18.5169 39.6315 16.1436 39.6931 14.7891H39.6892Z" fill="#38A962"/>
<path d="M35.3317 14.4871C35.3817 11.9787 34.9043 9.82146 34.5732 8.63672L38.4964 13.3487C37.8034 13.53 36.6522 13.8812 35.3355 14.4871H35.3317Z" fill="#38A962"/>
<path d="M30.546 3.78224C30.7231 4.00607 30.8886 4.2106 31.0388 4.39198L33.5759 7.44066C33.5759 7.44066 33.5721 7.44066 33.5682 7.44452C33.2333 7.65291 31.3391 8.88396 29.4603 10.9949C28.7288 5.45323 26.7576 1.14648 26.207 0.0273438C27.8818 0.451844 29.5219 2.50102 30.5498 3.7861L30.546 3.78224Z" fill="#38A962"/>
<path d="M20.1782 4.38774C20.3245 4.21022 20.4901 4.00569 20.6672 3.78186C21.7144 2.46977 23.4045 0.358849 25.1101 -0.00390625C24.5518 1.11909 22.6807 5.17114 21.9107 10.5044C20.1051 8.56714 18.3071 7.42099 17.8721 7.15471L20.1782 4.38388V4.38774Z" fill="#38A962"/>
<path d="M0.997103 27.4415L5.51316 22.0117C5.51316 22.0696 5.52856 22.1236 5.55166 22.1777L5.57861 22.2355C5.64021 22.3629 6.46796 24.0686 8.07341 25.9596C4.13101 26.9629 1.13185 29.1588 0.134702 29.9537C-0.184849 29.29 0.0731016 28.5567 0.997103 27.4453V27.4415Z" fill="#38A962"/>
<path d="M12.0116 34.7349C8.73142 34.7349 5.76306 33.5039 3.84961 32.4735C2.74466 31.8753 1.88225 31.2926 1.3548 30.9067C1.1854 30.7832 1.03525 30.6713 0.908203 30.5748C1.94385 29.7799 4.98536 27.6496 8.81997 26.7891C10.0404 28.0626 11.6074 29.3283 13.5285 30.1696C15.2957 30.9414 17.3131 31.3312 19.523 31.3312C19.881 31.3312 20.2506 31.3196 20.6164 31.3003C21.2593 31.2618 21.8522 31.1961 22.3797 31.1228C20.5163 32.4195 16.5469 34.7349 12.0078 34.7349H12.0116Z" fill="#8161A2"/>
<path d="M25.6521 29.0638C25.6098 28.9673 25.5636 28.867 25.5135 28.759C25.348 28.3885 25.1901 28.0026 25.0361 27.6167C25.2017 27.142 25.4481 26.347 25.6714 25.3359C25.8677 26.374 26.0987 27.1806 26.2489 27.6514C26.0179 28.2303 25.81 28.7088 25.6483 29.0638H25.6521Z" fill="#38A962"/>
<path d="M49.9079 30.9065C49.3805 31.2924 48.5219 31.8752 47.417 32.4695C45.5035 33.4998 42.5352 34.7309 39.2396 34.7309C34.7196 34.7309 30.7657 32.4232 28.8984 31.1304C29.4066 31.2037 29.9726 31.2654 30.5886 31.3002C30.9543 31.3233 31.3239 31.331 31.682 31.331C33.8919 31.331 35.9093 30.9413 37.6765 30.1656C39.6015 29.3243 41.1723 28.0547 42.3966 26.7734C46.2543 27.6263 49.3189 29.772 50.3584 30.5708C50.2352 30.6673 50.085 30.7792 49.9118 30.9027L49.9079 30.9065Z" fill="#8161A2"/>
<path d="M6.78705 22.3319C6.8448 22.4323 6.9064 22.5481 6.97955 22.6715C7.26445 23.1501 7.738 23.8987 8.39251 24.74C9.53211 26.1988 11.434 28.1746 13.9904 29.2899C15.9039 30.1273 18.1754 30.4823 20.6432 30.3434C22.137 30.2585 23.3459 30.0115 23.9812 29.8533C23.9273 29.753 23.8618 29.6411 23.7887 29.5176C23.5038 29.0352 23.0302 28.2827 22.3757 27.4452C21.2323 25.9904 19.3381 24.0145 16.774 22.8954C14.8605 22.0579 12.589 21.7029 10.1212 21.8418C8.63121 21.9267 7.4223 22.1737 6.7832 22.3281L6.78705 22.3319Z" fill="#A5027D"/>
<path d="M17.9024 8.27339C17.86 8.39688 17.8138 8.53967 17.7676 8.69789C17.5944 9.26904 17.3441 10.1798 17.1593 11.2873C16.8321 13.2246 16.6434 16.1228 17.5905 18.9283C19.0882 23.3702 22.9767 26.2876 24.2626 27.1521C24.3049 27.0286 24.3511 26.8858 24.3973 26.7237C24.5706 26.1526 24.817 25.2418 25.0056 24.1343C25.3329 22.1931 25.5177 19.295 24.5744 16.4933C23.0768 12.0437 19.1844 9.13397 17.9024 8.26953V8.27339Z" fill="#A5027D"/>
<path d="M33.645 8.59375C32.3745 9.49292 28.6477 12.4181 27.1308 16.7712C26.1645 19.5343 26.28 22.3669 26.5495 24.2578C26.7035 25.3422 26.9191 26.2221 27.0731 26.7739C27.1116 26.909 27.1462 27.0325 27.177 27.1406C28.4475 26.2414 32.1743 23.3162 33.6912 18.9631C34.6537 16.1962 34.5382 13.3674 34.2726 11.4804C34.1224 10.4037 33.9068 9.51607 33.7528 8.96422C33.7143 8.82915 33.6797 8.70566 33.6489 8.59761L33.645 8.59375Z" fill="#A5027D"/>
<path d="M27.377 29.8573C28.0122 30.0116 29.2211 30.2625 30.7149 30.3474C33.1828 30.4863 35.4543 30.1313 37.3677 29.2938C39.928 28.1747 41.826 26.2027 42.9695 24.744C43.624 23.9065 44.0975 23.1579 44.3824 22.6755C44.4556 22.552 44.521 22.4362 44.5749 22.3359C43.9397 22.1815 42.7269 21.9345 41.2408 21.8496C38.7691 21.7107 36.5015 22.0658 34.5842 22.9032C32.0239 24.0262 30.1259 25.9982 28.9863 27.4531C28.3318 28.2905 27.8582 29.043 27.5772 29.5215C27.5002 29.645 27.4347 29.7608 27.3808 29.8611L27.377 29.8573Z" fill="#A5027D"/>
<path d="M25.6329 38.9991C25.6329 38.9991 27.246 37.1467 27.246 34.8621C27.246 34.8081 27.246 34.7579 27.246 34.7039C27.0458 33.9514 25.6367 29.6523 25.6367 29.6523C25.6367 29.6523 24.2276 33.9475 24.0312 34.7C24.0312 34.7541 24.0312 34.8081 24.0312 34.8621C24.0312 37.1506 25.6406 38.9991 25.6406 38.9991" fill="#38A962"/>
<path d="M20.9867 35.3188C20.9867 35.3188 22.5498 35.0024 23.4545 33.8215C24.3593 32.6406 24.263 31.043 24.263 31.043C24.263 31.043 24.263 31.043 24.2553 31.043C24.136 31.0661 22.6614 31.4019 21.7913 32.5364C20.8866 33.7212 20.9867 35.315 20.9867 35.315" fill="#A5027D"/>
<path d="M30.5615 35.3188C30.5615 35.3188 28.9984 35.0024 28.0937 33.8215C27.1889 32.6406 27.2852 31.043 27.2852 31.043C27.2852 31.043 27.2852 31.043 27.2929 31.043C27.4084 31.0661 28.8868 31.4019 29.7569 32.5364C30.6655 33.7212 30.5615 35.315 30.5615 35.315" fill="#A5027D"/>
</g>
<defs>
<clipPath id="clip0_3654_2745">
<rect width="319" height="39" fill="white"/>
</clipPath>
</defs>
</svg>
