<?xml version="1.0" encoding="utf-8"?>
<!-- Generator: Adobe Illustrator 27.4.1, SVG Export Plug-In . SVG Version: 6.00 Build 0)  -->
<svg version="1.1" id="Layer_1" xmlns="http://www.w3.org/2000/svg" xmlns:xlink="http://www.w3.org/1999/xlink" x="0px" y="0px"
	 width="35px" height="30px" viewBox="0 0 35 30" style="enable-background:new 0 0 35 30;" xml:space="preserve">
<style type="text/css">
	.st0{clip-path:url(#SVGID_00000046340552252291491900000013692161895652001945_);}
	.st1{fill:#A8CAEB;}
</style>
<g>
	<g>
		<g>
			<g>
				<g>
					<defs>
						<rect id="SVGID_1_" width="35" height="30"/>
					</defs>
					<clipPath id="SVGID_00000160887110692267747110000015018484290391223213_">
						<use xlink:href="#SVGID_1_"  style="overflow:visible;"/>
					</clipPath>
					<g style="clip-path:url(#SVGID_00000160887110692267747110000015018484290391223213_);">
						<path class="st1" d="M0,20.6c0.1-2.2-0.2-5,0.2-7.7C1,6.6,6.6,0.9,13,0c1.4-0.2,2.2,0.5,2.2,1.9c0,0.5,0,1,0,1.4
							c0,1.5-0.3,1.9-1.8,2.2c-2,0.4-3.9,1.5-5.3,3S5.8,12,5.6,14c-0.1,0.7,0,0.9,0.8,0.9c2.3-0.1,4.6,0,6.9,0
							c1.3,0,1.9,0.5,1.9,1.9c0,3.8,0,7.5,0,11.3c0,1.4-0.6,1.9-2,1.9H2c-1.4,0-2-0.5-2-1.9C0,25.7,0,23.4,0,20.6z"/>
						<path class="st1" d="M19.8,20.6c0.1-2.3-0.2-5.1,0.2-7.8c0.5-3.2,2-6.1,4.3-8.4s5.3-3.8,8.5-4.3C34.2-0.2,35,0.5,35,1.9
							c0,2.4,0.6,3.1-2.8,3.9c-3.8,0.9-6.5,4.5-6.8,8.4C25.3,14.9,25.5,15,26,15c2.3,0,4.7,0,7,0c1.4,0,2,0.5,2,1.9
							c0,3.7,0,7.5,0,11.3c0,1.3-0.6,1.9-1.9,1.9c-3.8,0-7.6,0-11.4,0c-1.3,0-1.9-0.6-1.9-1.9C19.8,25.8,19.8,23.4,19.8,20.6z"/>
					</g>
				</g>
			</g>
		</g>
	</g>
</g>
</svg>
